<svg preserveAspectRatio="none" width="100%" height="100%" overflow="visible" style="display: block;" viewBox="0 0 31.0857 17.3714" fill="none" xmlns="http://www.w3.org/2000/svg">
<g id="Frame 1000008234">
<ellipse id="Ellipse 474" cx="9.05967" cy="5.19485" rx="2.49351" ry="3.49091" fill="var(--fill-0, #222222)"/>
<ellipse id="Ellipse 475" cx="22.0259" cy="5.19485" rx="2.49351" ry="3.49091" fill="var(--fill-0, #222222)"/>
<ellipse id="Ellipse 478" cx="23.9153" cy="12.9497" rx="3.45869" ry="1.97639" fill="var(--fill-0, #FFC55F)"/>
<ellipse id="Ellipse 479" cx="7.11592" cy="12.9482" rx="3.45869" ry="1.97639" fill="var(--fill-0, #FFC55F)"/>
<path id="Vector 18 (Stroke)" d="M20.8146 13.0995C21.1311 12.7061 21.7069 12.6438 22.1003 12.9602C22.4938 13.2768 22.5561 13.8525 22.2396 14.246C21.6715 14.9522 20.8029 15.4937 19.8298 15.8727C18.8444 16.2565 17.687 16.4988 16.4673 16.5638C14.0368 16.6933 11.2481 16.121 9.00212 14.3986C8.60153 14.0914 8.52544 13.5172 8.83247 13.1165C9.13969 12.7159 9.71395 12.6398 10.1146 12.9468C11.938 14.3453 14.267 14.8499 16.37 14.7379C17.4171 14.6821 18.381 14.4751 19.1664 14.1692C19.964 13.8585 20.516 13.4707 20.8146 13.0995Z" fill="var(--fill-0, #222222)"/>
</g>
</svg>
