<svg preserveAspectRatio="none" width="100%" height="100%" overflow="visible" style="display: block;" viewBox="0 0 43.8858 64.6096" fill="none" xmlns="http://www.w3.org/2000/svg">
<g id="Group 26">
<path id="Vector 49" d="M21.52 15.524C21.1194 12.7197 21.687 8.0123 22.0208 6.00917C23.1894 5.34146 25.2259 4.40666 24.0241 6.00917C22.8222 7.61167 23.1894 13.0201 23.5233 15.524H21.52Z" fill="var(--fill-0, #246B31)"/>
<path id="Vector" d="M18.4587 6.86719C20.1936 8.61471 21.7012 8.29004 22.4693 7.47803C23.2374 6.66601 23.5158 5.10297 21.781 3.35558C20.5012 2.06643 18.0878 1.50128 17.1239 1.50947C16.7952 1.51221 16.5527 1.76879 16.5578 2.10766C16.5731 3.10207 17.1788 5.57816 18.4586 6.86731L18.4587 6.86719Z" fill="var(--fill-0, #6BBF59)"/>
<path id="Vector_2" d="M26.32 7.66448C24.1048 8.95078 22.6783 8.21708 22.1262 7.19375C21.5742 6.17043 21.7172 4.52515 23.9322 3.23894C25.5662 2.29 28.1432 2.37481 29.1093 2.64363C29.4386 2.73524 29.6129 3.05854 29.5161 3.39754C29.232 4.39228 27.9541 6.7157 26.3201 7.66463L26.32 7.66448Z" fill="var(--fill-0, #6BBF59)"/>
<path id="Vector 48" d="M11.6728 18.4963C14.8828 15.9656 16.0922 14.0025 17.197 12.255C17.7707 11.3476 18.3823 9.85251 18.8541 9.75842C19.3946 9.65063 20.3498 10.9881 21.6096 12.1812C21.967 12.5196 22.5195 12.5016 22.8932 12.1813C24.3212 10.9571 25.3864 10.2861 26.1233 10.0736C26.4081 9.99146 26.6248 10.256 26.6013 10.5515C26.5218 11.5537 26.6308 12.9271 27.0702 14.1384C27.413 15.0836 28.2589 15.7011 29.1489 16.169C32.536 17.9496 37.8858 21.7569 41.7793 31.7278C46.2538 43.1869 43.1323 52.7256 36.8076 59.1896C30.4829 65.6536 13.0539 67.9274 4.76779 56.9427C-3.51836 45.958 -0.870539 28.3851 11.6728 18.4963Z" fill="var(--fill-0, #FFDAB1)"/>
</g>
</svg>
