<svg preserveAspectRatio="none" width="100%" height="100%" overflow="visible" style="display: block;" viewBox="0 0 32.36 36.1997" fill="none" xmlns="http://www.w3.org/2000/svg">
<g id="Group 13">
<path id="Vector" d="M19.9231 9.16421e-05H12.442V3.29958H19.9231V9.16421e-05Z" fill="var(--fill-0, #FF9528)"/>
<path id="Vector_2" d="M18.4396 33.9401C26.1276 32.6922 31.3483 25.4482 30.1004 17.7601C28.8524 10.0721 21.6084 4.85138 13.9204 6.09932C6.23234 7.34727 1.01162 14.5913 2.25956 22.2793C3.50751 29.9674 10.7515 35.1881 18.4396 33.9401Z" fill="var(--fill-0, #3A5480)"/>
<path id="Vector_3" d="M16.1807 5.91561C16.6949 5.91561 17.2017 5.94564 17.7009 5.99819V3.30304H14.6604V5.99819C15.1597 5.94564 15.6664 5.91561 16.1807 5.91561Z" fill="var(--fill-0, #FFCA93)"/>
<path id="Vector_4" d="M26.8525 6.26593L24.4914 8.627C25.6701 9.49035 26.7136 10.5301 27.577 11.7125L29.938 9.35146L26.8525 6.26593Z" fill="var(--fill-0, #FF9528)"/>
<path id="Vector_5" d="M16.1807 8.97236C10.0884 8.97236 5.13358 13.9272 5.13358 20.0195C5.13358 26.1117 10.0884 31.0666 16.1807 31.0666C22.2729 31.0666 27.2278 26.1117 27.2278 20.0195C27.2278 13.9272 22.2729 8.97236 16.1807 8.97236Z" fill="var(--fill-0, white)"/>
<g id="Group">
<path id="Vector_6" d="M16.1807 12.0976C15.8429 12.0976 15.5688 11.8236 15.5688 11.4858V10.2771C15.5688 9.93928 15.8429 9.66526 16.1807 9.66526C16.5185 9.66526 16.7926 9.93928 16.7926 10.2771V11.4858C16.7926 11.8236 16.5185 12.0976 16.1807 12.0976Z" fill="var(--fill-0, #3A5480)"/>
<path id="Vector_7" d="M16.1807 30.3672C15.8429 30.3672 15.5688 30.0932 15.5688 29.7554V28.5467C15.5688 28.2088 15.8429 27.9348 16.1807 27.9348C16.5185 27.9348 16.7926 28.2088 16.7926 28.5467V29.7554C16.7926 30.0932 16.5185 30.3672 16.1807 30.3672Z" fill="var(--fill-0, #3A5480)"/>
<path id="Vector_8" d="M25.9178 20.6268H24.7091C24.3713 20.6268 24.0972 20.3528 24.0972 20.015C24.0972 19.6772 24.3713 19.4031 24.7091 19.4031H25.9178C26.2556 19.4031 26.5296 19.6772 26.5296 20.015C26.5296 20.3528 26.2556 20.6268 25.9178 20.6268Z" fill="var(--fill-0, #3A5480)"/>
<path id="Vector_9" d="M7.65245 20.6268H6.44376C6.10593 20.6268 5.83191 20.3528 5.83191 20.015C5.83191 19.6772 6.10593 19.4031 6.44376 19.4031H7.65245C7.99028 19.4031 8.2643 19.6772 8.2643 20.015C8.2643 20.3528 7.99028 20.6268 7.65245 20.6268Z" fill="var(--fill-0, #3A5480)"/>
<path id="Vector_10" d="M21.7813 14.4176C21.5411 14.1774 21.5411 13.7945 21.7813 13.5543L22.6371 12.6984C22.8774 12.4582 23.2603 12.4582 23.5005 12.6984C23.7407 12.9386 23.7407 13.3215 23.5005 13.5618L22.6447 14.4176C22.4044 14.6578 22.0215 14.6578 21.7813 14.4176Z" fill="var(--fill-0, #3A5480)"/>
<path id="Vector_11" d="M8.86483 27.3344C8.62459 27.0979 8.62459 26.7113 8.86483 26.4711L9.72067 25.6152C9.96091 25.375 10.3438 25.375 10.584 25.6152C10.8243 25.8517 10.8243 26.2384 10.584 26.4786L9.72818 27.3344C9.49169 27.5709 9.10506 27.5747 8.86483 27.3344Z" fill="var(--fill-0, #3A5480)"/>
<path id="Vector_12" d="M22.6371 27.3344L21.7813 26.4786C21.5411 26.2384 21.5411 25.8555 21.7813 25.6152C22.0215 25.375 22.4044 25.375 22.6447 25.6152L23.5005 26.4711C23.7407 26.7113 23.7407 27.0942 23.5005 27.3344C23.2603 27.5747 22.8774 27.5747 22.6371 27.3344Z" fill="var(--fill-0, #3A5480)"/>
<path id="Vector_13" d="M9.71703 14.4176L8.86119 13.5618C8.62095 13.3215 8.62095 12.9386 8.86119 12.6984C9.10142 12.4582 9.4843 12.4582 9.72454 12.6984L10.5804 13.5543C10.8206 13.7945 10.8206 14.1774 10.5804 14.4176C10.3401 14.6578 9.95726 14.6578 9.71703 14.4176Z" fill="var(--fill-0, #3A5480)"/>
</g>
<path id="Vector_14" d="M20.9517 15.2483C20.7114 15.0081 20.3285 15.0081 20.0883 15.2483L16.6649 18.6717C16.4247 18.9119 16.4247 19.2948 16.6649 19.5351C16.7851 19.6552 16.939 19.7152 17.0966 19.7152C17.2543 19.7152 17.4082 19.6552 17.5283 19.5351L20.9517 16.1117C21.1919 15.8714 21.1919 15.4886 20.9517 15.2483Z" fill="var(--fill-0, #FF9528)"/>
<path id="Vector_15" d="M16.1807 21.859C15.1672 21.859 14.3414 21.0332 14.3414 20.0197C14.3414 19.0062 15.1672 18.1804 16.1807 18.1804C17.1942 18.1804 18.02 19.0062 18.02 20.0197C18.02 21.0332 17.1942 21.859 16.1807 21.859Z" fill="var(--fill-0, #FF9528)"/>
</g>
</svg>
