<svg preserveAspectRatio="none" width="100%" height="100%" overflow="visible" style="display: block;" viewBox="0 0 30.13 30.5325" fill="none" xmlns="http://www.w3.org/2000/svg">
<g id="Group 9">
<path id="Vector" d="M3.75066 2.33874e-05H26.3793C27.4096 2.33874e-05 28.3472 0.422576 29.0273 1.10268C29.7075 1.78279 30.13 2.72046 30.13 3.75068V26.7818C30.13 27.812 29.7075 28.7497 29.0273 29.4298C28.3472 30.1099 27.4096 30.5325 26.3793 30.5325H3.75066C2.72043 30.5325 1.78277 30.1139 1.10266 29.4338C0.422552 28.7537 0 27.816 0 26.7858V3.75068C0 2.72046 0.422552 1.78279 1.10266 1.10268C1.78277 0.422576 2.72043 2.33874e-05 3.75066 2.33874e-05Z" fill="var(--fill-0, #3A5480)"/>
<path id="Vector_2" d="M5.05455 11.5129H25.0795C25.8079 11.5129 26.4719 11.8107 26.9508 12.2896C27.4297 12.7685 27.7275 13.4325 27.7275 14.1609V25.276C27.7275 26.0044 27.4297 26.6684 26.9508 27.1473C26.4719 27.6262 25.8079 27.924 25.0795 27.924H5.05455C4.32615 27.924 3.66214 27.6262 3.18325 27.1473C2.70435 26.6684 2.40656 26.0044 2.40656 25.276V14.1609C2.40656 13.4325 2.70435 12.7685 3.18325 12.2896C3.66214 11.8107 4.32615 11.5129 5.05455 11.5129Z" fill="var(--fill-0, #F0ECEC)"/>
<path id="Vector_3" fill-rule="evenodd" clip-rule="evenodd" d="M2.90545 14.0849V25.353C2.92558 25.8962 3.15094 26.4073 3.53727 26.7937C3.9236 27.18 4.43469 27.4054 4.97797 27.4255H25.1559C25.6991 27.4054 26.2102 27.18 26.5966 26.7937C26.999 26.3912 27.2284 25.8479 27.2284 25.2765V14.1614C27.2284 13.5899 26.999 13.0466 26.5966 12.6442C26.1941 12.2418 25.6509 12.0124 25.0794 12.0124H5.05444C4.48298 12.0124 3.9397 12.2418 3.53727 12.6442C3.15094 13.0305 2.92558 13.5416 2.90545 14.0849Z" fill="var(--fill-0, #7E8EA8)"/>
<path id="Vector_4" d="M4.94179 2.46752C5.22752 2.75324 5.40861 3.15165 5.40861 3.5903C5.40861 4.02895 5.23154 4.42736 4.94179 4.71308C4.65204 4.99881 4.25766 5.1799 3.81901 5.1799C3.38036 5.1799 2.98195 5.00283 2.69623 4.71308C2.4105 4.42736 2.22941 4.02895 2.22941 3.5903C2.22941 3.15165 2.40648 2.75324 2.69623 2.46752C2.98195 2.18179 3.38036 2.0007 3.81901 2.0007C4.25766 2.0007 4.65607 2.17777 4.94179 2.46752ZM27.4417 2.46752C27.7274 2.75324 27.9085 3.15165 27.9085 3.5903C27.9085 4.02895 27.7315 4.42736 27.4417 4.71308C27.152 4.99881 26.7576 5.1799 26.3189 5.1799C25.8803 5.1799 25.4819 5.00283 25.1961 4.71308C24.9104 4.42736 24.7293 4.02895 24.7293 3.5903C24.7293 3.15165 24.9064 2.75324 25.1961 2.46752C25.4819 2.18179 25.8803 2.0007 26.3189 2.0007C26.7576 2.0007 27.156 2.17777 27.4417 2.46752Z" fill="var(--fill-0, white)"/>
<path id="Vector_5" fill-rule="evenodd" clip-rule="evenodd" d="M15.067 2.21858C17.0188 2.21858 18.874 2.98723 20.2503 4.36756C21.6307 5.7479 22.3993 7.60311 22.3993 9.55087C22.3993 10.0177 22.021 10.392 21.5582 10.392H8.57984C8.11302 10.392 7.73876 10.0137 7.73876 9.55087C7.73876 7.59908 8.5074 5.74388 9.88774 4.36756C11.2681 2.98723 13.1233 2.21858 15.0711 2.21858H15.067Z" fill="var(--fill-0, #F0ECEC)"/>
<path id="Vector_6" d="M15.067 2.7116C16.9544 2.7116 18.6607 3.47622 19.9002 4.71168C21.1397 5.94714 21.9003 7.65747 21.9003 9.54487C21.9003 9.73402 21.7473 9.89096 21.5542 9.89096H8.57175C8.3826 9.89096 8.22566 9.73804 8.22566 9.54487C8.22566 7.65747 8.99028 5.95117 10.2257 4.71168C11.4612 3.47622 13.1715 2.7116 15.0589 2.7116H15.067Z" fill="var(--fill-0, white)"/>
<path id="Vector_7" d="M15.0671 2.7116C15.1959 2.7116 15.3247 2.7116 15.4494 2.72367V3.85852C15.4494 4.07181 15.2764 4.24083 15.0671 4.24083C14.8578 4.24083 14.6848 4.06779 14.6848 3.85852V2.72367C14.8096 2.71562 14.9383 2.7116 15.0671 2.7116Z" fill="var(--fill-0, #4D4D4D)"/>
<path id="Vector_8" d="M18.3105 3.52959C18.5359 3.65032 18.7532 3.78715 18.9624 3.93202L18.4272 4.86164C18.3226 5.04273 18.0892 5.10712 17.904 5.00249C17.7229 4.89786 17.6586 4.66445 17.7632 4.47933L18.3105 3.53362V3.52959Z" fill="var(--fill-0, #4D4D4D)"/>
<path id="Vector_9" d="M11.1714 3.93202C11.3807 3.78715 11.598 3.65434 11.8233 3.52959L12.3706 4.4753C12.4753 4.6564 12.4149 4.89383 12.2298 4.99846C12.0487 5.1031 11.8113 5.04273 11.7066 4.85761L11.1714 3.928V3.93202Z" fill="var(--fill-0, #4D4D4D)"/>
<path id="Vector_10" d="M8.82923 6.75324C8.93386 6.51983 9.05056 6.29447 9.17934 6.07313L10.0124 6.55605C10.1935 6.66068 10.2579 6.89409 10.1532 7.07921C10.0486 7.2603 9.81518 7.32469 9.63007 7.22006L8.82923 6.75727V6.75324Z" fill="var(--fill-0, #4D4D4D)"/>
<path id="Vector_11" d="M20.9545 6.07162C21.0833 6.28893 21.2 6.51832 21.3047 6.75173L20.5038 7.21452C20.3227 7.31915 20.0853 7.25879 19.9807 7.07367C19.876 6.89258 19.9364 6.65514 20.1215 6.55051L20.9545 6.06759V6.07162Z" fill="var(--fill-0, #4D4D4D)"/>
<path id="Vector_12" d="M15.3004 9.89243L16.4836 6.4436C16.5439 6.26251 16.4474 6.06934 16.2663 6.00495C16.0852 5.94056 15.892 6.04117 15.8276 6.22226L14.568 9.89243H15.2964H15.3004Z" fill="var(--fill-0, #FF9528)"/>
</g>
</svg>
