<svg preserveAspectRatio="none" width="100%" height="100%" overflow="visible" style="display: block;" viewBox="0 0 36.95 18.6587" fill="none" xmlns="http://www.w3.org/2000/svg">
<g id="Group">
<path id="Vector" d="M36.9175 11.9277L36.6793 11.3499C36.6793 11.3499 35.7772 9.7635 34.7736 8.70421C34.7736 8.70421 25.2704 9.75337 19.2086 4.28965H13.3495L13.3952 4.35047C13.3952 4.35047 10.7343 7.37123 8.0328 5.90139C5.70641 4.6343 5.43272 3.61555 5.49354 2.55119C5.50875 2.31804 5.26547 2.16093 5.05766 2.25722L2.70086 3.33172C2.58429 3.38241 2.49813 3.47364 2.44744 3.58514C2.02677 4.5532 0.0805061 9.34789 0.886379 13.8436L0.693781 15.5364L0.0399589 16.9758C-0.0715456 17.2242 0.0602326 17.5131 0.31872 17.5891L3.6081 18.5572C3.81084 18.618 4.02371 18.5267 4.12508 18.3443L4.17576 18.2581C4.33795 17.9591 4.75863 17.9439 4.94616 18.2277L5.09314 18.4558C5.17423 18.5825 5.31615 18.6585 5.4682 18.6585H8.72717C8.9147 18.6585 9.08196 18.5419 9.14785 18.3696V18.3595C9.27963 18.0199 9.74085 17.9692 9.94358 18.2683L10.0247 18.3899C10.1311 18.5521 10.3288 18.623 10.5112 18.5724L12.9035 17.9287C13.0657 17.8881 13.1874 17.7563 13.2228 17.5942L13.3546 17.0113C13.3952 16.8238 13.5573 16.6818 13.7499 16.6666L14.1858 16.6261C14.4139 16.6058 14.6268 16.7629 14.6673 16.991L14.7991 17.7006C14.8346 17.8881 14.9866 18.0351 15.1742 18.0605L19.0261 18.6078C19.1985 18.6332 19.3657 18.5572 19.462 18.4152L19.7458 17.9946C19.903 17.7614 20.2375 17.7259 20.4351 17.9287L20.9977 18.4913C21.0991 18.5926 21.241 18.6382 21.3829 18.618L25.5796 17.9489C25.7316 17.9236 25.8583 17.8273 25.9191 17.6905L26.1827 17.0975C26.3145 16.8035 26.6997 16.7376 26.9176 16.9707L27.2217 17.2901C27.3383 17.4117 27.5106 17.4573 27.6728 17.4117L31.692 16.2561C31.8846 16.2004 32.0164 16.023 32.0164 15.8253V15.4958C32.0164 15.1664 32.3611 14.9485 32.655 15.0904L32.7767 15.1461C32.9287 15.2171 33.1061 15.2019 33.2379 15.1005L36.7706 12.4497C36.9327 12.3281 36.9936 12.1102 36.9175 11.9226V11.9277Z" fill="var(--fill-0, #DFDFDF)"/>
<path id="Vector_2" d="M36.6944 11.3955C36.2788 10.4325 35.4983 9.45429 34.7735 8.6991C34.7735 8.6991 25.2348 9.75333 19.173 4.25413H13.3241L13.39 4.34536C13.39 4.34536 10.7291 7.36612 8.02761 5.89629C5.63533 4.59371 5.41739 3.61551 5.49341 2.52074C5.50862 2.3028 5.28054 2.15075 5.0778 2.24198L2.69566 3.33168C2.57909 3.38237 2.49293 3.4736 2.44224 3.5851C2.02157 4.55316 0.0753075 9.34786 0.881181 13.8435L0.708856 15.359C1.72253 15.4654 2.65512 15.8354 3.66373 16.0635C4.91562 16.3473 6.32463 16.4841 7.60693 16.4284C9.14265 16.3625 10.6632 15.9063 12.1837 15.6732C12.2344 15.6681 12.28 15.6631 12.3307 15.6529C12.5233 13.9145 14.2972 13.6611 15.8329 14.325C18.1593 15.3286 21.0584 15.435 23.5521 15.217C25.9545 15.0092 28.3265 14.5328 30.6478 13.8841C31.1242 13.7523 36.9732 12.0442 36.6893 11.4006L36.6944 11.3955Z" fill="var(--fill-0, #3A5480)"/>
<path id="Vector_3" d="M19.2291 4.30542C18.6158 3.75803 18.038 3.13969 17.5109 2.45039C17.5109 2.45039 17.1612 1.12754 15.7522 0.17975C15.3569 -0.0888743 14.8247 -0.0533956 14.4699 0.265913L12.7112 1.84218C12.3108 2.20204 12.25 2.80517 12.5693 3.23599L13.3599 4.30035H19.2291V4.30542Z" fill="var(--fill-0, #3A5480)"/>
<path id="Vector_4" d="M34.6976 8.65369C21.0129 8.70437 17.4498 2.27259 17.4498 2.27259L13.3242 4.25433L13.3901 4.34556C13.3901 4.34556 10.7292 7.36631 8.02771 5.89648C5.97501 4.78144 5.52393 3.85392 5.48845 2.92134C5.13366 3.06832 4.74846 3.13421 4.38861 3.27106C3.81081 3.489 2.61467 3.8894 2.06729 4.52802C1.97099 4.78651 1.86455 5.08554 1.75305 5.42005C2.64002 4.34556 4.1656 4.41651 4.1656 4.41651C8.1899 13.048 15.235 5.05006 15.235 5.05006C24.8953 12.237 32.9287 9.68764 34.9307 8.86656C34.9307 8.86656 34.9307 8.86656 34.9358 8.86656C34.9358 8.86656 34.7787 8.65368 34.6976 8.65875V8.65369Z" fill="var(--fill-0, #FF9528)"/>
<path id="Vector_5" d="M16.4263 5.94749L18.7223 4.04684C19.0264 3.79342 19.072 3.3474 18.8186 3.0433L18.5905 2.75947C18.3371 2.4503 17.886 2.40468 17.5819 2.6581L15.2251 4.59423C14.8804 4.87806 14.8754 5.40517 15.215 5.69407L15.5038 5.94242C15.7674 6.16543 16.1577 6.17049 16.4263 5.94749Z" fill="var(--fill-0, white)"/>
<path id="Vector_6" d="M19.1021 7.8174L21.3018 6.27154C21.6718 6.01306 21.7123 5.48088 21.388 5.1717L21.2106 4.99938C20.9774 4.77637 20.6277 4.73582 20.3489 4.89801L17.906 6.3273C17.4549 6.59085 17.4296 7.23961 17.8654 7.53864L18.2861 7.82754C18.5345 7.99479 18.8588 7.99479 19.1021 7.82754V7.8174Z" fill="var(--fill-0, white)"/>
<path id="Vector_7" d="M22.878 6.79849L21.4589 8.28353C21.1244 8.63325 21.2257 9.20597 21.6565 9.41885L22.0265 9.60131C22.3357 9.75336 22.7057 9.6672 22.9135 9.3935L24.1249 7.81217C24.3935 7.45738 24.282 6.95054 23.8917 6.74274L23.7295 6.65657C23.4457 6.50959 23.101 6.56534 22.878 6.79342V6.79849Z" fill="var(--fill-0, white)"/>
<path id="Vector_8" d="M25.7926 7.99505L25.1844 9.2368C24.9614 9.69296 25.2706 10.2302 25.7774 10.2657H25.7926C26.0815 10.286 26.3501 10.1339 26.4819 9.88049L27.1104 8.64887C27.3131 8.25354 27.1104 7.77204 26.6897 7.64026L26.6542 7.63013C26.3147 7.52369 25.9497 7.68081 25.7977 8.00012L25.7926 7.99505Z" fill="var(--fill-0, white)"/>
<path id="Vector_9" d="M13.9313 10.6351C10.2148 10.7513 3.75292 13.8113 0.939083 14.4829C3.50391 14.3365 7.15193 13.9224 11.8022 12.8772C13.5453 12.4833 15.4129 12.6297 17.0315 13.2912L21.6756 15.1899C21.6756 15.1899 21.6756 15.1899 21.6818 15.1899C24.6697 15.254 27.7245 15.0447 30.5295 14.0738C30.9082 13.9427 31.7983 13.5412 31.773 13.5286C28.1499 12.6651 18.482 10.4887 13.9313 10.6301V10.6351Z" fill="var(--fill-0, #7E8EA8)"/>
</g>
</svg>
