<svg preserveAspectRatio="none" width="100%" height="100%" overflow="visible" style="display: block;" viewBox="0 0 48.7501 30.4149" fill="none" xmlns="http://www.w3.org/2000/svg">
<g id="Group 51">
<g id="Group">
<path id="Vector" d="M16.3469 4.05505H14.3804L7.86597 29.1799H9.83249L16.3469 4.05505Z" fill="var(--fill-0, #423B3C)"/>
<path id="Vector_2" d="M26.1902 5.54994L14.0094 5.95809L14.4387 4.05518H26.1637C26.5771 4.05518 26.911 4.38911 26.911 4.80256C26.911 5.2054 26.593 5.53934 26.1849 5.54994H26.1902Z" fill="var(--fill-0, #423B3C)"/>
</g>
<path id="Vector_3" d="M10.5328 23.4075H44.9389C47.0433 23.4075 48.7501 25.1143 48.7501 27.2186H6.72168C6.72168 25.1143 8.42847 23.4075 10.5328 23.4075Z" fill="var(--fill-0, #010101)"/>
<g id="Group_2">
<path id="Vector_4" d="M46.5341 23.4073L39.7334 26.6036L1.7229 26.7255L7.76027 23.7095C8.15252 23.5134 8.59247 23.4073 9.03241 23.4073H46.5394H46.5341Z" fill="var(--fill-0, #C5C5C5)"/>
<path id="Vector_5" d="M48.7443 27.2183L42.0284 30.4146L39.4841 26.6035L46.2 23.4072C47.6152 23.3595 48.686 24.4991 48.7125 25.8667L48.739 27.2183H48.7443Z" fill="var(--fill-0, #423B3C)"/>
</g>
<g id="Group_3">
<g id="Group_4">
<path id="Vector_6" d="M10.4059 5.95797L8.73089 6.45092L3.56812 1.92422L3.81194 0.365845L10.4059 5.95797Z" fill="var(--fill-0, #807D7C)"/>
<g id="Group_5">
<path id="Vector_7" d="M9.5258 5.34299L17.4555 4.85004L12.0065 0L3.81177 0.365741L9.5258 5.34299Z" fill="var(--fill-0, white)"/>
<path id="Vector_8" d="M5.47058 0.917053L9.64745 4.66457L15.9763 4.36244L11.9214 0.609619L5.47058 0.917053Z" fill="var(--fill-0, #807D7C)"/>
</g>
</g>
<path id="Vector_9" d="M17.4555 4.8501V6.07984L9.28198 6.6311L9.52581 5.34305L17.4555 4.8501Z" fill="var(--fill-0, #010101)"/>
</g>
<path id="Vector_10" d="M7.37854 5.26347L9.43517 5.31118L8.66658 4.6062L7.37854 5.26347Z" fill="var(--fill-0, #423B3C)"/>
<g id="Group_6">
<path id="Vector_11" d="M10.0181 5.26343H8.05153L1.53711 30.3882H3.50363L10.0181 5.26343Z" fill="var(--fill-0, #423B3C)"/>
<path id="Vector_12" d="M9.28148 5.26343H7.31496L0.800537 30.3882H2.76706L9.28148 5.26343Z" fill="var(--fill-0, #807D7C)"/>
<path id="Vector_13" d="M19.1242 6.75819L6.94348 7.16634L7.37283 5.26343H19.0977C19.5112 5.26343 19.8451 5.59736 19.8451 6.01081C19.8451 6.41366 19.5271 6.74759 19.1189 6.75819H19.1242Z" fill="var(--fill-0, #807D7C)"/>
</g>
<path id="Vector_14" d="M3.02664 26.6038H39.0071C40.6767 26.6038 42.0284 27.9554 42.0284 29.6251V30.4149H0.789788C0.35514 30.4149 0 30.0597 0 29.6251C0 27.9554 1.35165 26.6038 3.02134 26.6038H3.02664Z" fill="var(--fill-0, #807D7C)"/>
<path id="Vector_15" d="M11.2852 23.9376L7.47937 26.026H39.6328L44.2814 23.8793L11.2852 23.9376Z" fill="var(--fill-0, white)"/>
<path id="Vector_16" d="M7.50061 7.12409L9.12789 7.09229L8.60313 8.41743L7.50061 7.12409Z" fill="var(--fill-0, #423B3C)"/>
</g>
</svg>
