<svg preserveAspectRatio="none" width="100%" height="100%" overflow="visible" style="display: block;" viewBox="0 0 40.0001 40.0004" fill="none" xmlns="http://www.w3.org/2000/svg">
<g id="Group 24">
<path id="Vector" d="M32.1969 40.0004H7.80308C3.5005 40.0004 0 36.4999 0 32.1973V7.80308C0 3.5005 3.5005 0 7.80308 0H32.1969C36.4995 0 40 3.5005 40 7.80308V32.1973C40 36.4999 36.4995 40.0004 32.1969 40.0004ZM7.80308 4.2864C5.86384 4.2864 4.28639 5.86384 4.28639 7.80308V32.1973C4.28639 34.1366 5.86384 35.714 7.80308 35.714H32.1969C34.1362 35.714 35.7136 34.1366 35.7136 32.1973V7.80308C35.7136 5.86425 34.1362 4.2864 32.1969 4.2864H7.80308Z" fill="var(--fill-0, #BDBDBD)"/>
<g id="Group">
<g id="Group_2">
<path id="Vector_2" d="M26.5381 27.5629L16.2839 15.3552L6.35543 27.5629H26.5381Z" fill="var(--fill-0, #BDBDBD)"/>
<path id="Vector_3" d="M33.6449 27.5629L26.968 19.6145L20.5036 27.5629H33.6449Z" fill="var(--fill-0, #BDBDBD)"/>
</g>
<path id="Vector_4" d="M26.342 17.1263C27.591 16.6449 28.2132 15.2421 27.7318 13.9931C27.2503 12.7442 25.8476 12.122 24.5986 12.6034C23.3496 13.0848 22.7274 14.4876 23.2089 15.7366C23.6903 16.9855 25.0931 17.6077 26.342 17.1263Z" fill="var(--fill-0, #BDBDBD)"/>
</g>
</g>
</svg>
