<svg preserveAspectRatio="none" width="100%" height="100%" overflow="visible" style="display: block;" viewBox="0 0 7.58935 10.2303" fill="none" xmlns="http://www.w3.org/2000/svg">
<path id="Union" d="M3.14621 1.2122C3.23607 0.244103 4.29932 -0.306154 5.14133 0.179978L6.92258 1.20927C7.73663 1.67927 7.82188 2.82198 7.08664 3.40752L6.9509 3.51592C6.91658 3.54327 6.88713 3.5771 6.86593 3.61552L5.83273 5.49052C5.78422 5.57871 5.77217 5.71031 5.83175 5.85771C5.99274 6.25521 6.06205 6.61933 6.03683 7.02959C6.00174 7.59707 5.63367 7.9927 5.19699 8.16826C4.77072 8.33946 4.25186 8.31729 3.81613 8.06572L2.72824 7.43779L1.25949 9.98076C1.12142 10.2196 0.815865 10.3011 0.576872 10.1634C0.337818 10.0253 0.256207 9.71987 0.394255 9.48076L1.86203 6.93779L0.783903 6.31474C0.345673 6.06172 0.0671252 5.61959 0.0104658 5.1624C-0.0478265 4.69012 0.134081 4.17369 0.639372 3.88799C1.00141 3.6834 1.36159 3.58273 1.76925 3.52373C1.91033 3.50324 2.01407 3.42798 2.06418 3.3372L3.09445 1.46904C3.11651 1.42894 3.13026 1.38376 3.13449 1.33818L3.14621 1.2122Z" fill="var(--fill-0, #FF9528)"/>
</svg>
