<svg preserveAspectRatio="none" width="100%" height="100%" overflow="visible" style="display: block;" viewBox="0 0 33.2651 41.6698" fill="none" xmlns="http://www.w3.org/2000/svg">
<g id="Group">
<path id="Vector" d="M32.234 13.576C31.1411 9.45737 28.4608 4.99589 24.5095 3.58685C20.2864 2.08083 17.2325 2.97112 16.1805 3.18487C15.1285 3.39862 10.6057 5.94947 10.121 7.06818C9.23453 9.09439 7.60069 8.9464 6.50299 9.16187C5.27685 9.40255 3.9465 9.54659 3.40212 10.026C2.87501 10.6662 3.62424 12.6056 4.17631 13.2009C3.2028 14.0805 2.35807 13.6078 2.48254 14.9751C2.53143 15.5125 2.6982 15.6793 2.86498 16.6243C2.65804 17.2645 2.42025 16.9023 1.84688 17.0802C1.03589 17.6188 1.34309 18.0984 1.15222 18.5773C0.888274 19.2394 0.728423 19.0779 0.232635 19.8504C-0.0773963 20.3334 -0.0778403 20.9547 0.234053 21.4366C1.4759 23.3551 3.04523 24.8064 3.42089 25.6301C3.49215 26.4229 6.6878 36.4342 5.37691 37.8658C5.64149 38.815 20.314 35.4255 20.314 35.4255C20.314 35.4255 18.6505 29.7432 19.058 29.3558C20.6301 27.8613 22.9658 27.3018 26.4617 25.0018C29.9576 22.7018 33.3269 17.6947 32.234 13.576Z" fill="var(--fill-0, #FFCCB8)"/>
<path id="Vector_2" d="M24.1718 18.9157C25.135 19.5515 25.0747 21.7418 23.1025 23.0768C21.6234 24.078 20.4483 23.987 19.4082 23.7686C19.0616 23.6958 18.5181 28.8008 19.058 29.3556C19.9315 29.1321 23.5657 27.5661 26.1895 26.571C31.7793 24.4511 34.5886 17.9953 32.6574 12.3386C32.099 10.7444 28.0877 1.88409 21.3119 0.835506C12.8681 -1.59854 10.7658 1.65078 11.573 5.8915C11.9662 7.95752 13.4777 9.73184 15.1426 11.0337C15.0201 10.0949 15.1222 9.15522 15.3099 8.22752C15.8785 11.7954 18.7974 14.2639 19.353 17.7943C19.2489 18.3986 19.0484 19.051 17.56 20.7068C19.0863 20.944 19.775 20.1958 20.4399 19.8949C21.7989 19.2799 23.1311 18.3676 24.1718 18.9157Z" fill="var(--fill-0, #424242)"/>
<path id="Vector_3" d="M4.76077 36.48C5.11408 35.8115 20.3458 32.4803 20.7515 32.7271C21.1573 32.974 21.9363 35.7248 21.6998 36.076C21.4634 36.4272 6.60972 41.6409 5.86861 41.6698C5.42986 38.0217 4.40746 37.1484 4.76077 36.48Z" fill="var(--fill-0, #CFDFE6)"/>
</g>
</svg>
