<svg preserveAspectRatio="none" width="100%" height="100%" overflow="visible" style="display: block;" viewBox="0 0 19.4563 32.8097" fill="none" xmlns="http://www.w3.org/2000/svg">
<g id="Group">
<path id="Vector" d="M12.6017 19.3017C9.64965 23.698 8.39274 32.7849 8.39274 32.7849L0 32.8097C0 32.8097 2.58904 26.5032 4.27155 18.8417C3.66978 18.2206 2.1198 14.8699 2.43369 12.5953C2.69235 10.9771 2.95335 11.0194 3.52997 11.0057C3.64071 11.0031 3.89354 10.5092 4.09889 10.4673C4.14831 10.2175 5.62103 8.3021 6.14441 9.03017C6.13911 9.02281 6.35852 8.8768 6.35933 8.86727C6.24189 8.30257 7.801 7.92736 8.14711 8.35219C7.53814 7.74327 10.4601 6.79478 11.3699 8.24453C12.0946 9.39941 11.9228 10.2286 12.0782 10.9137C12.2336 11.599 12.6017 19.3017 12.6017 19.3017Z" fill="var(--fill-0, #FFCCB8)"/>
<path id="Vector_2" d="M9.65881 1.36221C8.43815 -1.21079 6.76884 0.373001 7.25806 1.93113C8.02683 5.18457 9.36566 8.07249 10.297 7.54874C11.6433 6.79164 11.0166 4.22423 9.65881 1.36221Z" fill="var(--fill-0, #FFCCB8)"/>
<g id="Group_2">
<path id="Vector_3" d="M5.46888 17.2444L1.51236 12.2753C1.32749 12.0431 1.3808 11.6739 1.63546 11.433L12.8631 0.811025C13.0816 0.604338 13.3818 0.574847 13.5192 0.747485L19.3934 8.12499C19.5308 8.29763 19.4349 8.58353 19.1845 8.75017L6.31731 17.3131C6.02548 17.5073 5.65375 17.4766 5.46888 17.2444Z" fill="var(--fill-0, #EEF7FF)"/>
<path id="Vector_4" d="M5.90671 17.1155C5.82755 17.1155 5.76076 17.0885 5.72346 17.0417L1.76694 12.0726C1.69759 11.9855 1.71807 11.8027 1.85908 11.6693L3.9419 9.69881C4.16763 9.71982 4.39189 9.73008 4.62314 9.73008C5.60027 9.73008 6.097 9.70158 6.57739 9.67398C7.04861 9.64688 7.53586 9.61889 8.49436 9.61889C9.45278 9.61889 9.94003 9.64691 10.4112 9.67398C10.8916 9.70156 11.3883 9.73008 12.3654 9.73008C13.3424 9.73008 13.8391 9.70158 14.3195 9.67398C14.7907 9.64688 15.2779 9.61889 16.2363 9.61889C16.6924 9.61889 17.0714 9.58818 17.396 9.54968L6.13716 17.0422C6.0662 17.0895 5.98434 17.1155 5.90671 17.1155Z" fill="var(--fill-0, #9CD2FF)"/>
</g>
<path id="Vector_5" d="M12.2936 10.7189C12.3387 11.3809 12.4029 12.3861 12.254 12.8111C12.254 12.8111 11.948 13.927 10.8913 14.9781C10.2228 15.6392 9.40707 16.9649 8.93896 17.9518L9.66431 22.9552C10.4268 21.5039 12.8543 19.6965 14.2245 16.8298C16.1784 12.742 13.7196 12.0049 15.1276 9.10191C14.4073 7.42006 12.2208 9.65131 12.2936 10.7189Z" fill="var(--fill-0, #FFCCB8)"/>
<path id="Vector_6" d="M3.87648 10.1245C3.9886 10.3914 4.29577 11.3682 3.88106 11.8828C3.46646 12.2695 2.71485 12.8685 2.15388 11.939C0.584963 9.22287 2.74859 7.77822 3.87648 10.1245Z" fill="var(--fill-0, #FFCCB8)"/>
<path id="Vector_7" d="M5.70529 7.95107C5.7618 8.12935 6.35179 9.48869 5.3002 10.0422C3.96226 10.7463 3.6855 9.24537 3.32664 8.51477C1.95676 5.72579 4.66913 4.68169 5.70529 7.95107Z" fill="var(--fill-0, #FFCCB8)"/>
<path id="Vector_8" d="M7.20688 7.44322C5.97304 8.43821 5.52501 7.70308 5.31535 6.71358C5.06377 5.52622 5.69059 4.74828 6.2905 4.54948C8.09206 3.95241 8.0211 6.78663 7.20688 7.44322Z" fill="var(--fill-0, #FFCCB8)"/>
</g>
</svg>
