<svg preserveAspectRatio="none" width="100%" height="100%" overflow="visible" style="display: block;" viewBox="0 0 24.3579 24.129" fill="none" xmlns="http://www.w3.org/2000/svg">
<g id="Group 18">
<path id="Vector" d="M12.6199 7.40483C10.9738 5.01274 6.63912 -0.10101 0.756245 1.95631C0.273274 2.1254 0.0495334 2.75582 0.251965 3.31891C1.17391 5.88141 4.30493 12.1125 12.2575 9.02593C12.8282 8.80414 13.0139 7.97841 12.6199 7.40483Z" fill="var(--fill-0, #55B35B)"/>
<path id="Vector_2" d="M12.6749 24.1289C12.6365 24.1289 12.5968 24.126 12.5571 24.1204C12.2355 24.0741 12.0265 23.8511 12.0913 23.6205C13.0229 20.2952 11.873 8.63177 11.861 8.5146C11.8372 8.2812 12.0847 8.07804 12.4115 8.06103C12.7344 8.03929 13.0229 8.21978 13.0467 8.45413C13.0944 8.93794 14.2192 20.35 13.2571 23.7868C13.2002 23.9881 12.9528 24.1279 12.6749 24.1279V24.1289Z" fill="var(--fill-0, #55B35B)"/>
<path id="Vector_3" d="M11.9706 7.44564C13.5177 4.98838 17.6401 -0.297985 23.602 1.51758C24.0915 1.66682 24.3408 2.28759 24.1615 2.85847C23.3449 5.45645 20.4707 11.8101 12.3988 9.05061C11.8195 8.85228 11.6003 8.03481 11.9706 7.44564Z" fill="var(--fill-0, #55B35B)"/>
</g>
</svg>
