<svg width="100" height="100" viewBox="0 0 100 100" fill="none" xmlns="http://www.w3.org/2000/svg">
<path d="M33.9438 27.6399H30.0108L16.9819 77.8895H20.915L33.9438 27.6399Z" fill="#423B3C"/>
<path d="M53.6303 30.6294L29.2688 31.4457L30.1275 27.6399H53.5773C54.4042 27.6399 55.0721 28.3078 55.0721 29.1347C55.0721 29.9403 54.436 30.6082 53.6197 30.6294H53.6303Z" fill="#423B3C"/>
<path d="M22.3156 66.3447H91.1279C95.3365 66.3447 98.7501 69.7583 98.7501 73.967H14.6934C14.6934 69.7583 18.1069 66.3447 22.3156 66.3447Z" fill="#010101"/>
<path d="M94.3184 66.345L80.7171 72.7375L4.69604 72.9813L16.7708 66.9492C17.5553 66.557 18.4352 66.345 19.3151 66.345H94.329H94.3184Z" fill="#C5C5C5"/>
<path d="M98.7388 73.9668L85.3071 80.3593L80.2185 72.7371L93.6502 66.3446C96.4807 66.2492 98.6222 68.5284 98.6752 71.2635L98.7282 73.9668H98.7388Z" fill="#423B3C"/>
<path d="M22.0618 31.4457L18.7118 32.4316L8.38623 23.3782L8.87388 20.2615L22.0618 31.4457Z" fill="#807D7C"/>
<path d="M20.3016 30.2159L36.161 29.23L25.263 19.5299L8.87354 20.2614L20.3016 30.2159Z" fill="white"/>
<path d="M12.1912 21.3639L20.5449 28.8589L33.2027 28.2547L25.0928 20.749L12.1912 21.3639Z" fill="#807D7C"/>
<path d="M36.161 29.23V31.6895L19.814 32.792L20.3016 30.2159L36.161 29.23Z" fill="#010101"/>
<path d="M16.0071 30.0567L20.1203 30.1521L18.5832 28.7422L16.0071 30.0567Z" fill="#423B3C"/>
<path d="M21.2861 30.0568H17.3531L4.32422 80.3064H8.25726L21.2861 30.0568Z" fill="#423B3C"/>
<path d="M19.813 30.0568H15.8799L2.85107 80.3064H6.78411L19.813 30.0568Z" fill="#807D7C"/>
<path d="M39.4985 33.0463L15.137 33.8626L15.9957 30.0568H39.4455C40.2724 30.0568 40.9402 30.7246 40.9402 31.5515C40.9402 32.3572 40.3042 33.0251 39.4879 33.0463H39.4985Z" fill="#807D7C"/>
<path d="M7.30328 72.7374H79.2641C82.6035 72.7374 85.3068 75.4407 85.3068 78.7801V80.3597H2.82958C1.96028 80.3597 1.25 79.6494 1.25 78.7801C1.25 75.4407 3.9533 72.7374 7.29267 72.7374H7.30328Z" fill="#807D7C"/>
<path d="M23.8204 67.4052L16.2087 71.582H80.5155L89.8127 67.2886L23.8204 67.4052Z" fill="white"/>
<path d="M16.2512 33.7781L19.5058 33.7145L18.4563 36.3648L16.2512 33.7781Z" fill="#423B3C"/>
</svg>
