<svg width="50" height="50" viewBox="0 0 50 50" fill="none" xmlns="http://www.w3.org/2000/svg">
<path d="M48.9688 17.5771C47.8758 13.4585 45.1955 8.99698 41.2443 7.58795C37.0211 6.08193 33.9673 6.97222 32.9153 7.18597C31.8632 7.39972 27.3404 9.95056 26.8557 11.0693C25.9693 13.0955 24.3354 12.9475 23.2377 13.163C22.0116 13.4037 20.6812 13.5477 20.1369 14.0271C19.6098 14.6673 20.359 16.6067 20.9111 17.202C19.9375 18.0816 19.0928 17.6089 19.2173 18.9762C19.2662 19.5136 19.4329 19.6804 19.5997 20.6254C19.3928 21.2656 19.155 20.9034 18.5816 21.0813C17.7706 21.6199 18.0778 22.0995 17.887 22.5784C17.623 23.2405 17.4632 23.079 16.9674 23.8515C16.6573 24.3345 16.6569 24.9558 16.9688 25.4377C18.2106 27.3562 19.78 28.8075 20.1556 29.6312C20.2269 30.424 23.4225 40.4353 22.1117 41.8669C22.3762 42.8161 37.0488 39.4266 37.0488 39.4266C37.0488 39.4266 35.3852 33.7442 35.7927 33.3569C37.3648 31.8624 39.7005 31.3029 43.1964 29.0029C46.6924 26.7029 50.0617 21.6958 48.9688 17.5771Z" fill="#FFCCB8"/>
<path d="M40.9065 22.9165C41.8698 23.5524 41.8095 25.7427 39.8373 27.0776C38.3581 28.0788 37.183 27.9878 36.143 27.7694C35.7963 27.6966 35.2528 32.8017 35.7927 33.3565C36.6662 33.133 40.3005 31.567 42.9243 30.5719C48.514 28.4519 51.3233 21.9961 49.3921 16.3395C48.8337 14.7453 44.8224 5.88495 38.0467 4.83636C29.6028 2.40231 27.5005 5.65163 28.3077 9.89236C28.701 11.9584 30.2125 13.7327 31.8774 15.0346C31.7548 14.0958 31.857 13.1561 32.0447 12.2284C32.6132 15.7962 35.5321 18.2647 36.0877 21.7952C35.9836 22.3995 35.7831 23.0518 34.2948 24.7076C35.8211 24.9448 36.5097 24.1966 37.1746 23.8957C38.5336 23.2808 39.8659 22.3685 40.9065 22.9165Z" fill="#424242"/>
<path d="M21.4958 40.4809C21.8491 39.8125 37.0807 36.4813 37.4865 36.7281C37.8923 36.975 38.6713 39.7258 38.4348 40.077C38.1983 40.4282 23.3447 45.6419 22.6036 45.6708C22.1648 42.0227 21.1424 41.1494 21.4958 40.4809Z" fill="#CFDFE6"/>
<path d="M12.6017 31.3793C9.64965 35.7757 8.39274 44.8626 8.39274 44.8626L0 44.8874C0 44.8874 2.58904 38.5808 4.27155 30.9193C3.66978 30.2983 2.1198 26.9475 2.43369 24.6729C2.69235 23.0548 2.95335 23.097 3.52997 23.0833C3.64071 23.0807 3.89354 22.5869 4.09889 22.5449C4.14831 22.2952 5.62103 20.3797 6.14441 21.1078C6.13911 21.1004 6.35852 20.9544 6.35933 20.9449C6.24189 20.3802 7.801 20.005 8.14711 20.4298C7.53814 19.8209 10.4601 18.8724 11.3699 20.3222C12.0946 21.477 11.9228 22.3062 12.0782 22.9914C12.2336 23.6766 12.6017 31.3793 12.6017 31.3793Z" fill="#FFCCB8"/>
<path d="M9.65881 13.4397C8.43815 10.8667 6.76884 12.4505 7.25806 14.0086C8.02683 17.2621 9.36566 20.15 10.297 19.6263C11.6433 18.8692 11.0166 16.3017 9.65881 13.4397Z" fill="#FFCCB8"/>
<path d="M5.46874 29.3219L1.51222 24.3528C1.32735 24.1206 1.38066 23.7514 1.63532 23.5105L12.863 12.8886C13.0815 12.6819 13.3816 12.6524 13.5191 12.825L19.3932 20.2025C19.5307 20.3752 19.4347 20.6611 19.1843 20.8277L6.31717 29.3906C6.02534 29.5849 5.6536 29.5541 5.46874 29.3219Z" fill="#EEF7FF"/>
<path d="M5.90659 29.1932C5.82743 29.1932 5.76064 29.1663 5.72333 29.1195L1.76681 24.1503C1.69746 24.0632 1.71795 23.8805 1.85895 23.7471L3.94178 21.7766C4.16751 21.7976 4.39176 21.8078 4.62302 21.8078C5.60014 21.8078 6.09688 21.7793 6.57727 21.7517C7.04848 21.7246 7.53574 21.6967 8.49424 21.6967C9.45265 21.6967 9.93991 21.7247 10.4111 21.7517C10.8914 21.7793 11.3882 21.8078 12.3653 21.8078C13.3423 21.8078 13.839 21.7793 14.3194 21.7517C14.7906 21.7246 15.2778 21.6967 16.2362 21.6967C16.6923 21.6967 17.0713 21.6659 17.3959 21.6274L6.13704 29.12C6.06608 29.1672 5.98422 29.1932 5.90659 29.1932Z" fill="#9CD2FF"/>
<path d="M12.2936 22.7965C12.3387 23.4586 12.4029 24.4637 12.254 24.8888C12.254 24.8888 11.948 26.0047 10.8913 27.0558C10.2228 27.7168 9.40707 29.0426 8.93896 30.0294L9.66431 35.0328C10.4268 33.5816 12.8543 31.7741 14.2245 28.9074C16.1784 24.8197 13.7196 24.0826 15.1276 21.1795C14.4073 19.4977 12.2208 21.7289 12.2936 22.7965Z" fill="#FFCCB8"/>
<path d="M3.87648 22.2021C3.9886 22.4691 4.29577 23.4458 3.88106 23.9604C3.46646 24.3472 2.71485 24.9461 2.15388 24.0167C0.584963 21.3005 2.74859 19.8559 3.87648 22.2021Z" fill="#FFCCB8"/>
<path d="M5.70529 20.0288C5.7618 20.2071 6.35179 21.5665 5.3002 22.1199C3.96226 22.8241 3.6855 21.3231 3.32664 20.5925C1.95676 17.8036 4.66913 16.7594 5.70529 20.0288Z" fill="#FFCCB8"/>
<path d="M7.20688 19.5207C5.97304 20.5157 5.52501 19.7806 5.31535 18.7911C5.06377 17.6037 5.69059 16.8258 6.2905 16.627C8.09206 16.0299 8.0211 18.8641 7.20688 19.5207Z" fill="#FFCCB8"/>
</svg>
