<svg width="100" height="100" viewBox="0 0 100 100" fill="none" xmlns="http://www.w3.org/2000/svg">
<path d="M97.9378 35.154C95.7519 26.9167 90.3913 17.9937 82.4888 15.1757C74.0424 12.1636 67.9348 13.9442 65.8308 14.3717C63.7267 14.7992 54.6811 19.9009 53.7116 22.1383C51.9388 26.1907 48.6711 25.8948 46.4757 26.3257C44.0234 26.8071 41.3627 27.0951 40.274 28.0539C39.2197 29.3344 40.7182 33.2131 41.8224 34.4037C39.8753 36.163 38.1859 35.2175 38.4348 37.9522C38.5326 39.027 38.8661 39.3606 39.1997 41.2507C38.7858 42.531 38.3102 41.8066 37.1635 42.1625C35.5415 43.2396 36.1559 44.1988 35.7742 45.1565C35.2463 46.4808 34.9266 46.1578 33.935 47.7027C33.3149 48.6688 33.314 49.9113 33.9378 50.8751C36.4215 54.7122 39.5602 57.6147 40.3115 59.2621C40.454 60.8478 46.8453 80.8704 44.2235 83.7335C44.7527 85.632 74.0978 78.8529 74.0978 78.8529C74.0978 78.8529 70.7707 67.4883 71.5856 66.7136C74.7299 63.7245 79.4012 62.6056 86.3931 58.0056C93.385 53.4056 100.124 43.3913 97.9378 35.154Z" fill="#FFCCB8"/>
<path d="M81.8133 45.8333C83.7398 47.105 83.6192 51.4855 79.6748 54.1555C76.7165 56.1579 74.3663 55.9759 72.2862 55.5391C71.5929 55.3935 70.5059 65.6036 71.5857 66.7132C73.3327 66.2662 80.6012 63.1342 85.8487 61.144C97.0283 56.9041 102.647 43.9925 98.7845 32.6792C97.6677 29.4908 89.6451 11.7701 76.0936 9.67297C59.2058 4.80486 55.0013 11.3035 56.6157 19.785C57.4022 23.917 60.4252 27.4656 63.755 30.0694C63.5099 28.1918 63.7142 26.3124 64.0896 24.457C65.2267 31.5927 71.0645 36.5297 72.1757 43.5906C71.9675 44.7992 71.5665 46.1039 68.5898 49.4155C71.6424 49.8899 73.0196 48.3935 74.3495 47.7917C77.0674 46.5618 79.732 44.7372 81.8133 45.8333Z" fill="#424242"/>
<path d="M42.9913 80.9617C43.6979 79.6248 74.1612 72.9625 74.9728 73.4561C75.7844 73.9498 77.3423 79.4515 76.8693 80.1539C76.3964 80.8562 46.6892 91.2836 45.207 91.3415C44.3294 84.0452 42.2846 82.2987 42.9913 80.9617Z" fill="#CFDFE6"/>
<path d="M25.2033 62.7588C19.2993 71.5516 16.7855 89.7254 16.7855 89.7254L0 89.775C0 89.775 5.17808 77.1618 8.54311 61.8389C7.33956 60.5968 4.23959 53.8953 4.86738 49.3461C5.38471 46.1098 5.90671 46.1942 7.05994 46.1669C7.28142 46.1617 7.78707 45.174 8.19778 45.09C8.29662 44.5905 11.2421 40.7597 12.2888 42.2159C12.2782 42.2011 12.717 41.9091 12.7187 41.89C12.4838 40.7607 15.602 40.0102 16.2942 40.8599C15.0763 39.6421 20.9202 37.7451 22.7398 40.6446C24.1892 42.9543 23.8456 44.6127 24.1564 45.983C24.4672 47.3534 25.2033 62.7588 25.2033 62.7588Z" fill="#FFCCB8"/>
<path d="M19.3176 26.8799C16.8763 21.7339 13.5377 24.9015 14.5161 28.0178C16.0537 34.5246 18.7313 40.3005 20.5939 39.253C23.2866 37.7388 22.0332 32.604 19.3176 26.8799Z" fill="#FFCCB8"/>
<path d="M10.9377 58.6442L3.02468 48.706C2.65494 48.2416 2.76156 47.5033 3.27089 47.0214L25.7263 25.7775C26.1632 25.3641 26.7635 25.3051 27.0384 25.6504L38.7867 40.4054C39.0616 40.7507 38.8697 41.3225 38.3689 41.6558L12.6346 58.7817C12.0509 59.1701 11.3075 59.1086 10.9377 58.6442Z" fill="#EEF7FF"/>
<path d="M11.8132 58.3865C11.6549 58.3865 11.5213 58.3326 11.4467 58.2389L3.53363 48.3007C3.39493 48.1265 3.4359 47.7609 3.71791 47.4941L7.88356 43.5531C8.33502 43.5952 8.78353 43.6157 9.24604 43.6157C11.2003 43.6157 12.1938 43.5587 13.1545 43.5035C14.097 43.4493 15.0715 43.3933 16.9885 43.3933C18.9053 43.3933 19.8798 43.4493 20.8222 43.5035C21.7829 43.5586 22.7763 43.6157 24.7305 43.6157C26.6846 43.6157 27.678 43.5587 28.6387 43.5035C29.5811 43.4493 30.5555 43.3933 32.4723 43.3933C33.3846 43.3933 34.1426 43.3319 34.7918 43.2549L12.2741 58.2399C12.1322 58.3345 11.9684 58.3865 11.8132 58.3865Z" fill="#9CD2FF"/>
<path d="M24.5872 45.5932C24.6775 46.9172 24.8059 48.9275 24.5081 49.7777C24.5081 49.7777 23.896 52.0095 21.7827 54.1116C20.4457 55.4338 18.8141 58.0852 17.8779 60.059L19.3286 70.0657C20.8536 67.1633 25.7085 63.5484 28.449 57.815C32.3568 49.6395 27.4392 48.1652 30.2553 42.3592C28.8147 38.9955 24.4416 43.458 24.5872 45.5932Z" fill="#FFCCB8"/>
<path d="M7.75295 44.4043C7.97721 44.9383 8.59154 46.8918 7.76212 47.921C6.93293 48.6945 5.42969 49.8923 4.30776 48.0335C1.16993 42.6011 5.49718 39.7118 7.75295 44.4043Z" fill="#FFCCB8"/>
<path d="M11.4106 40.0574C11.5236 40.414 12.7036 43.1327 10.6004 44.2396C7.92453 45.6479 7.37101 42.646 6.65327 41.1848C3.91353 35.6069 9.33826 33.5186 11.4106 40.0574Z" fill="#FFCCB8"/>
<path d="M14.4138 39.0417C11.9461 41.0317 11.05 39.5614 10.6307 37.5824C10.1275 35.2077 11.3812 33.6518 12.581 33.2542C16.1841 32.0601 16.0422 37.7285 14.4138 39.0417Z" fill="#FFCCB8"/>
</svg>
