<svg width="80" height="80" viewBox="0 0 80 80" fill="none" xmlns="http://www.w3.org/2000/svg">
<g clip-path="url(#clip0_734_19352)">
<path d="M39.4713 18.2623C38.9705 14.7568 39.68 8.87264 40.0973 6.36873C41.558 5.53409 44.1037 4.3656 42.6014 6.36873C41.099 8.37186 41.5581 15.1324 41.9754 18.2623H39.4713Z" fill="#246B31"/>
<path d="M35.6449 7.44118C37.8136 9.62558 39.698 9.21975 40.6582 8.20473C41.6184 7.18971 41.9663 5.23591 39.7978 3.05167C38.1981 1.44023 35.1813 0.733795 33.9764 0.74403C33.5656 0.747459 33.2624 1.06819 33.2688 1.49178C33.2879 2.73478 34.0451 5.8299 35.6448 7.44134L35.6449 7.44118Z" fill="#6BBF59"/>
<path d="M45.4712 8.43794C42.7023 10.0458 40.9191 9.12869 40.229 7.84953C39.539 6.57038 39.7177 4.51378 42.4864 2.90602C44.529 1.71984 47.7503 1.82585 48.9578 2.16188C49.3695 2.27639 49.5873 2.68051 49.4664 3.10427C49.1112 4.34769 47.5138 7.25196 45.4713 8.43813L45.4712 8.43794Z" fill="#6BBF59"/>
<path d="M27.1623 21.9777C31.1749 18.8143 32.6866 16.3605 34.0676 14.176C34.7847 13.0418 35.5492 11.173 36.139 11.0554C36.8146 10.9206 38.0086 12.5925 39.5834 14.0838C40.0301 14.5068 40.7207 14.4843 41.1878 14.0839C42.9728 12.5537 44.3044 11.715 45.2255 11.4494C45.5815 11.3467 45.8523 11.6773 45.823 12.0467C45.7236 13.2994 45.8598 15.0162 46.409 16.5303C46.8376 17.7118 47.895 18.4838 49.0075 19.0686C53.2414 21.2943 59.9286 26.0534 64.7955 38.5172C70.3886 52.841 66.4867 64.7643 58.5809 72.8443C50.675 80.9244 28.8888 83.7666 18.5311 70.0358C8.17339 56.3049 11.4832 34.3387 27.1623 21.9777Z" fill="#FFDAB1"/>
<ellipse cx="31.8961" cy="41.9221" rx="3.11688" ry="4.36364" fill="#222222"/>
<ellipse cx="48.1039" cy="41.9221" rx="3.11688" ry="4.36364" fill="#222222"/>
<ellipse cx="50.4657" cy="51.6157" rx="4.32336" ry="2.47049" fill="#FFC55F"/>
<ellipse cx="29.4664" cy="51.6137" rx="4.32336" ry="2.47049" fill="#FFC55F"/>
<path d="M46.5899 51.8028C46.9855 51.3111 47.7052 51.2331 48.197 51.6287C48.6888 52.0244 48.7668 52.7441 48.3711 53.2359C47.6609 54.1186 46.5752 54.7956 45.3589 55.2694C44.1271 55.7491 42.6804 56.052 41.1557 56.1332C38.1176 56.295 34.6318 55.5797 31.8243 53.4267C31.3235 53.0427 31.2284 52.3249 31.6122 51.8241C31.9962 51.3233 32.7141 51.2282 33.2149 51.612C35.4942 53.36 38.4053 53.9909 41.0341 53.8508C42.3429 53.7811 43.5479 53.5223 44.5296 53.1399C45.5266 52.7516 46.2166 52.2669 46.5899 51.8028Z" fill="#222222"/>
</g>
<defs>
<clipPath id="clip0_734_19352">
<rect width="80" height="80" fill="white"/>
</clipPath>
</defs>
</svg>
