<svg width="64" height="64" viewBox="0 0 64 64" fill="none" xmlns="http://www.w3.org/2000/svg">
<g clip-path="url(#clip0_792_4703)">
<path d="M31.5772 14.6099C31.1766 11.8055 31.7442 7.09816 32.078 5.09503C33.2466 4.42732 35.2832 3.49253 34.0813 5.09503C32.8794 6.69753 33.2466 12.106 33.5805 14.6099H31.5772Z" fill="#246B31"/>
<path d="M28.5157 5.95297C30.2507 7.70049 31.7582 7.37582 32.5264 6.56381C33.2945 5.75179 33.5728 4.18876 31.838 2.44136C30.5583 1.15221 28.1448 0.587061 27.1809 0.595248C26.8523 0.597992 26.6097 0.854574 26.6149 1.19344C26.6301 2.18785 27.2359 4.66395 28.5156 5.9531L28.5157 5.95297Z" fill="#6BBF59"/>
<path d="M36.3771 6.75028C34.162 8.03658 32.7354 7.30288 32.1834 6.27955C31.6313 5.25623 31.7743 3.61095 33.9893 2.32474C35.6233 1.3758 38.2004 1.46061 39.1664 1.72943C39.4958 1.82104 39.67 2.14434 39.5733 2.48334C39.2891 3.47808 38.0112 5.8015 36.3772 6.75043L36.3771 6.75028Z" fill="#6BBF59"/>
<path d="M21.7299 17.5821C24.9399 15.0514 26.1493 13.0883 27.2541 11.3408C27.8277 10.4334 28.4393 8.93834 28.9112 8.84425C29.4517 8.73646 30.4069 10.074 31.6667 11.267C32.0241 11.6054 32.5766 11.5874 32.9502 11.2671C34.3782 10.0429 35.4435 9.37197 36.1804 9.15943C36.4652 9.07728 36.6819 9.34181 36.6584 9.63732C36.5789 10.6395 36.6879 12.0129 37.1272 13.2242C37.4701 14.1694 38.316 14.787 39.206 15.2548C42.5931 17.0354 47.9429 20.8427 51.8364 30.8137C56.3109 42.2727 53.1894 51.8114 46.8647 58.2754C40.54 64.7395 23.111 67.0133 14.8249 56.0286C6.53871 45.0439 9.18653 27.4709 21.7299 17.5821Z" fill="#FFDAB1"/>
<ellipse cx="25.5169" cy="33.5377" rx="2.49351" ry="3.49091" fill="#222222"/>
<ellipse cx="38.4833" cy="33.5377" rx="2.49351" ry="3.49091" fill="#222222"/>
<ellipse cx="40.3726" cy="41.2925" rx="3.45869" ry="1.97639" fill="#FFC55F"/>
<ellipse cx="23.5733" cy="41.2909" rx="3.45869" ry="1.97639" fill="#FFC55F"/>
<path d="M37.272 41.4423C37.5885 41.0489 38.1642 40.9865 38.5577 41.303C38.9511 41.6195 39.0135 42.1953 38.697 42.5887C38.1288 43.2949 37.2602 43.8365 36.2871 44.2155C35.3017 44.5993 34.1444 44.8416 32.9246 44.9066C30.4942 45.036 27.7055 44.4638 25.4595 42.7414C25.0589 42.4342 24.9828 41.8599 25.2898 41.4592C25.597 41.0587 26.1713 40.9826 26.572 41.2896C28.3954 42.688 30.7243 43.1927 32.8273 43.0807C33.8744 43.0249 34.8384 42.8178 35.6237 42.5119C36.4214 42.2013 36.9733 41.8135 37.272 41.4423Z" fill="#222222"/>
</g>
<defs>
<clipPath id="clip0_792_4703">
<rect width="64" height="64" fill="white"/>
</clipPath>
</defs>
</svg>
