<svg width="80" height="80" viewBox="0 0 80 80" fill="none" xmlns="http://www.w3.org/2000/svg">
<g clip-path="url(#clip0_734_19346)">
<path d="M39.4837 18.9456C38.9948 15.5231 39.6874 9.77834 40.0949 7.33374C41.5209 6.51887 44.0064 5.37806 42.5396 7.33374C41.0728 9.28942 41.521 15.8898 41.9285 18.9456H39.4837Z" fill="#246B31"/>
<path d="M35.748 8.38045C37.8653 10.5131 39.7051 10.1169 40.6425 9.12591C41.5799 8.13493 41.9196 6.22742 39.8025 4.09492C38.2407 2.52165 35.2953 1.83195 34.119 1.84194C33.7179 1.84529 33.4219 2.15842 33.4282 2.57197C33.4468 3.78553 34.186 6.80734 35.7478 8.3806L35.748 8.38045Z" fill="#6BBF59"/>
<path d="M45.3416 9.35361C42.6383 10.9234 40.8973 10.028 40.2236 8.77914C39.5499 7.53029 39.7244 5.5224 42.4276 3.95273C44.4217 2.79465 47.5667 2.89815 48.7456 3.22622C49.1476 3.33801 49.3602 3.73257 49.2422 4.14629C48.8954 5.36025 47.3358 8.19573 45.3417 9.3538L45.3416 9.35361Z" fill="#6BBF59"/>
<path d="M25.7573 22.7079C30.209 19.6195 31.8862 17.2238 33.4183 15.0911C34.2139 13.9837 35.062 12.1592 35.7164 12.0443C36.4887 11.9088 37.8714 13.6456 39.6978 15.1329C40.1195 15.4763 40.7203 15.4561 41.1527 15.1264C43.2596 13.5197 44.8114 12.6598 45.8629 12.413C46.2227 12.3285 46.4907 12.6643 46.4585 13.0325C46.3491 14.2837 46.5122 16.0015 47.1559 17.4973C47.6261 18.5901 48.6665 19.2645 49.7498 19.7561C54.4308 21.8808 62.0154 26.4746 67.5092 38.8556C73.7145 52.8401 69.3856 64.481 60.6144 72.3696C51.8433 80.2583 27.6727 83.0332 16.1814 69.6276C4.69009 56.222 8.36211 34.7762 25.7573 22.7079Z" fill="url(#paint0_linear_734_19346)"/>
<g clip-path="url(#clip1_734_19346)">
<path d="M38.1123 51.5336C41.0892 51.7673 44.7043 52.9071 47.8631 54.9504C48.393 55.2932 48.5445 56.0013 48.2017 56.5313C47.8588 57.0608 47.1517 57.2126 46.6219 56.87C43.776 55.0289 40.5247 54.0159 37.9333 53.8124C36.6322 53.7103 35.5715 53.8178 34.8368 54.0686C34.098 54.3209 33.8635 54.6454 33.7987 54.8827C33.6322 55.4914 33.004 55.8499 32.3952 55.6836C31.7864 55.5172 31.428 54.8889 31.5943 54.2801C31.9361 53.0296 32.9723 52.29 34.0987 51.9055C35.2294 51.5195 36.6291 51.4171 38.1123 51.5336Z" fill="#222222"/>
<ellipse cx="32.1827" cy="44.6696" rx="3.04305" ry="2.43444" transform="rotate(22.6829 32.1827 44.6696)" fill="#222222"/>
<path d="M26.7921 38.9409C27.059 38.369 27.7392 38.1216 28.3111 38.3885L37.4406 42.6485C38.0123 42.9154 38.2597 43.5956 37.993 44.1675C37.7261 44.7394 37.046 44.9867 36.4741 44.7199L27.3446 40.4599C26.7726 40.193 26.5253 39.5129 26.7921 38.9409Z" fill="#222222"/>
<path d="M53.8164 38.9409C53.5495 38.369 52.8694 38.1216 52.2974 38.3885L43.1679 42.6485C42.5962 42.9154 42.3489 43.5956 42.6155 44.1675C42.8824 44.7394 43.5625 44.9867 44.1345 44.7199L53.2639 40.4599C53.8359 40.193 54.0833 39.5129 53.8164 38.9409Z" fill="#222222"/>
<ellipse cx="3.04305" cy="2.43444" rx="3.04305" ry="2.43444" transform="matrix(-0.922653 0.385631 0.385631 0.922653 50.2947 41.25)" fill="#222222"/>
</g>
<path d="M54.1493 32.4604C54.5397 32.4604 54.8572 32.7766 54.8572 33.167C54.8572 33.5575 54.5397 33.8736 54.1493 33.8736C54.1377 33.8941 54.1175 33.9358 54.1 34.011C54.0432 34.256 54.0628 34.6016 54.113 34.8525C54.1894 35.2353 53.9409 35.6069 53.5581 35.6835C53.1755 35.7598 52.8038 35.5124 52.727 35.1299C52.6556 34.7729 52.6024 34.2058 52.7218 33.6908C52.7824 33.4299 52.9008 33.1246 53.1393 32.8766C53.3973 32.6087 53.747 32.4605 54.1493 32.4604Z" fill="#222222"/>
<path d="M50.8896 29.8841C50.8896 29.4936 51.2058 29.1775 51.5962 29.1775C51.9867 29.1775 52.3028 29.4936 52.3028 29.8841C52.3028 30.1649 52.3792 30.5377 52.5453 30.7812C52.6204 30.8913 52.7026 30.9586 52.7929 30.9965C52.8815 31.0336 53.0315 31.0646 53.2817 31.0146C53.6645 30.9382 54.0362 31.1867 54.1127 31.5695C54.1892 31.9522 53.9417 32.3238 53.5591 32.4006C53.0798 32.4964 52.636 32.4642 52.2458 32.3007C51.8577 32.138 51.5754 31.8681 51.3771 31.5773C50.996 31.0183 50.8896 30.3328 50.8896 29.8841Z" fill="#222222"/>
<path d="M49.3313 30.0615C49.6361 29.818 50.0805 29.8672 50.3244 30.1717C50.615 30.5349 50.9829 31.1644 51.0258 31.8558C51.0483 32.2189 50.9814 32.6192 50.7445 32.9889C50.5078 33.358 50.1405 33.6359 49.671 33.8239C49.3085 33.9688 48.8968 33.7922 48.7518 33.4297C48.6068 33.0673 48.7824 32.6557 49.1446 32.5105C49.4044 32.4066 49.5086 32.2945 49.553 32.2253C49.5969 32.1568 49.6217 32.0698 49.6139 31.9439C49.5961 31.6568 49.4167 31.3006 49.2211 31.0559C48.9772 30.751 49.0264 30.3054 49.3313 30.0615Z" fill="#222222"/>
<path d="M50.9852 33.6886C51.7255 33.8168 52.3646 34.3648 52.8217 35.3466C52.9864 35.7005 52.8333 36.1205 52.4794 36.2853C52.1255 36.4501 51.7055 36.297 51.5407 35.9431C51.2096 35.2319 50.8868 35.1066 50.7444 35.0818C50.5612 35.0501 50.3608 35.1285 50.2356 35.2313C49.934 35.4794 49.4891 35.436 49.241 35.1344C48.9931 34.8328 49.0364 34.3878 49.338 34.1398C49.6824 33.8567 50.2859 33.5678 50.9852 33.6886Z" fill="#222222"/>
</g>
<defs>
<linearGradient id="paint0_linear_734_19346" x1="40" y1="12.0369" x2="40" y2="78.984" gradientUnits="userSpaceOnUse">
<stop offset="0.33925" stop-color="#FFAC79"/>
<stop offset="0.628738" stop-color="#FFCFA3"/>
<stop offset="1" stop-color="#FFDAB1"/>
</linearGradient>
<clipPath id="clip0_734_19346">
<rect width="80" height="80" fill="white"/>
</clipPath>
<clipPath id="clip1_734_19346">
<rect width="36.5166" height="21.91" fill="white" transform="translate(21.7416 35.1641)"/>
</clipPath>
</defs>
</svg>
