<svg width="80" height="80" viewBox="0 0 80 80" fill="none" xmlns="http://www.w3.org/2000/svg">
<path d="M39.4159 21.4299C38.8629 17.5587 39.6464 11.0606 40.1072 8.29541C41.7203 7.37369 44.5316 6.08328 42.8725 8.29541C41.2134 10.5075 41.7204 17.9735 42.1812 21.4299H39.4159Z" fill="#246B31"/>
<path d="M35.1902 9.47971C37.5852 11.892 39.6663 11.4438 40.7266 10.3229C41.7869 9.202 42.1712 7.04435 39.7764 4.63221C38.0098 2.85264 34.6782 2.07249 33.3476 2.08379C32.894 2.08758 32.5592 2.44177 32.5662 2.90956C32.5873 4.28225 33.4235 7.70031 35.1901 9.47988L35.1902 9.47971Z" fill="#6BBF59"/>
<path d="M46.0417 10.5805C42.9839 12.3561 41.0146 11.3433 40.2526 9.93071C39.4905 8.51809 39.688 6.2469 42.7456 4.4714C45.0012 3.16146 48.5586 3.27853 49.8921 3.64962C50.3468 3.77607 50.5873 4.22237 50.4538 4.69034C50.0615 6.06349 48.2975 9.27078 46.0418 10.5807L46.0417 10.5805Z" fill="#6BBF59"/>
<path d="M25.6773 24.4417C30.1539 21.4554 31.8405 19.1389 33.3813 17.0768C34.1813 16.006 35.0342 14.2418 35.6922 14.1308C36.4591 14.0014 37.8243 15.637 39.6266 17.0626C40.0941 17.4324 40.7486 17.4103 41.2301 17.0589C43.2516 15.5834 44.7594 14.7717 45.8023 14.5095C46.2105 14.4069 46.5156 14.7883 46.4846 15.208C46.4009 16.34 46.5517 17.8302 47.0967 19.1709C47.5973 20.4024 48.7857 21.1355 50.0011 21.6741C54.722 23.7661 62.2152 28.2493 67.6635 40.0555C73.9036 53.5776 69.5504 64.8336 60.73 72.4614C51.9096 80.0892 27.6034 82.7724 16.0476 69.81C4.49181 56.8476 8.18443 36.111 25.6773 24.4417Z" fill="#FFE2C2"/>
<g clip-path="url(#clip0_734_19347)">
<ellipse cx="39.6547" cy="51.5987" rx="12.0323" ry="6.68464" fill="#E8C8A5"/>
<path d="M29.6278 50.1133H33.6386V53.4556C33.6386 54.5631 32.7407 55.461 31.6332 55.461C30.5257 55.461 29.6278 54.5631 29.6278 53.4556V50.1133Z" fill="#3D7EFF"/>
<path d="M35.0822 47.7808C35.6316 47.4708 36.3287 47.6646 36.6391 48.2138C36.9496 48.7634 36.7557 49.4614 36.2061 49.7718C34.6428 50.6549 33.2539 51.2331 31.7463 51.2551C30.2335 51.2771 28.7739 50.7373 27.061 49.7718C26.5113 49.4619 26.317 48.7647 26.6269 48.2149C26.9368 47.6652 27.634 47.4709 28.1838 47.7808C29.7573 48.6677 30.794 48.9838 31.7128 48.9705C32.637 48.957 33.6168 48.6086 35.0822 47.7808Z" fill="#222222"/>
<path d="M51.1252 47.7808C51.6746 47.4708 52.3717 47.6646 52.6821 48.2138C52.9926 48.7634 52.7986 49.4614 52.2491 49.7718C50.6858 50.6549 49.2969 51.2331 47.7893 51.2551C46.2764 51.2771 44.8168 50.7373 43.104 49.7718C42.5543 49.4619 42.3599 48.7647 42.6698 48.2149C42.9798 47.6652 43.677 47.4709 44.2268 47.7808C45.8002 48.6677 46.837 48.9838 47.7558 48.9705C48.6799 48.957 49.6598 48.6086 51.1252 47.7808Z" fill="#222222"/>
<path d="M35.8366 65.7304C35.5435 66.2893 34.8525 66.5052 34.2935 66.2122C33.7347 65.9191 33.5198 65.2279 33.8128 64.6689C34.3678 63.6102 35.3566 62.6824 36.5307 61.9362C37.7188 61.1811 39.1691 60.5645 40.7486 60.1646C43.8969 59.3675 47.6921 59.3986 51.071 61.0704C51.6366 61.3503 51.8688 62.0361 51.5892 62.6017C51.3093 63.1673 50.6235 63.3995 50.0578 63.1199C47.2755 61.7432 44.0606 61.6838 41.3096 62.3803C39.9396 62.7272 38.718 63.2538 37.7563 63.8649C36.7807 64.485 36.1421 65.1475 35.8366 65.7304Z" fill="#222222"/>
</g>
<defs>
<clipPath id="clip0_734_19347">
<rect width="26.7385" height="24.0647" fill="white" transform="translate(26.2855 43.4285)"/>
</clipPath>
</defs>
</svg>
