<svg width="64" height="64" viewBox="0 0 64 64" fill="none" xmlns="http://www.w3.org/2000/svg">
<g clip-path="url(#clip0_792_4716)">
<path d="M31.5782 14.7614C31.1776 11.9569 31.7452 7.24929 32.079 5.24607C33.2476 4.57833 35.2843 3.64349 34.0824 5.24607C32.8804 6.84865 33.2477 12.2574 33.5816 14.7614H31.5782Z" fill="#246B31"/>
<path d="M28.5167 6.10416C30.2517 7.85176 31.7593 7.52708 32.5275 6.71502C33.2957 5.90297 33.574 4.33986 31.8391 2.59239C30.5593 1.30318 28.1458 0.737998 27.1818 0.746186C26.8532 0.74893 26.6106 1.00552 26.6157 1.34441C26.631 2.33886 27.2368 4.81507 28.5166 6.10428L28.5167 6.10416Z" fill="#6BBF59"/>
<path d="M36.3783 6.90154C34.1631 8.18789 32.7364 7.45416 32.1844 6.43079C31.6323 5.40742 31.7753 3.76206 33.9904 2.47579C35.6245 1.52681 38.2017 1.61162 39.1677 1.88046C39.4971 1.97206 39.6714 2.29538 39.5746 2.6344C39.2904 3.62918 38.0125 5.95271 36.3784 6.90169L36.3783 6.90154Z" fill="#6BBF59"/>
<path d="M21.7304 17.7339C24.9406 15.2031 26.15 13.2399 27.2549 11.4923C27.8286 10.5848 28.4402 9.08971 28.912 8.99562C29.4526 8.88782 30.4078 10.2254 31.6677 11.4185C32.0251 11.7569 32.5776 11.7389 32.9513 11.4186C34.3794 10.1943 35.4447 9.52336 36.1816 9.31082C36.4664 9.22866 36.6831 9.4932 36.6596 9.78872C36.5801 10.791 36.6891 12.1644 37.1285 13.3758C37.4714 14.321 38.3173 14.9386 39.2074 15.4065C42.5946 17.1872 47.9447 20.9946 51.8383 30.9661C56.313 42.4256 53.1914 51.9647 46.8664 58.4291C40.5414 64.8934 23.1116 67.1673 14.8251 56.1821C6.53855 45.1969 9.18649 27.6232 21.7304 17.7339Z" fill="#FFDAB1"/>
<g clip-path="url(#clip1_792_4716)">
<ellipse cx="39.4817" cy="34.5351" rx="2.49362" ry="3.49107" fill="#222222"/>
<path d="M38.4745 42.1201C38.9051 41.8565 39.4676 41.9919 39.7313 42.4225C39.9949 42.853 39.8602 43.4157 39.4298 43.6795C37.5348 44.8402 34.5394 45.4029 31.6227 45.0138C28.6843 44.6219 25.6568 43.2386 23.8655 40.3083C23.6023 39.8775 23.7382 39.3142 24.169 39.0509C24.5998 38.7875 25.163 38.9235 25.4264 39.3543C26.8474 41.679 29.2935 42.8586 31.8649 43.2015C34.458 43.5473 37.01 43.0172 38.4745 42.1201Z" fill="#222222"/>
<path d="M22.6415 32.9708C24.2206 32.2441 27.94 31.7869 30.536 35.418C30.8297 35.8288 30.7348 36.4 30.324 36.6937C29.9133 36.9873 29.342 36.8924 29.0483 36.4817C27.1141 33.7762 24.4516 34.1506 23.4061 34.6317C22.9474 34.8427 22.4042 34.6416 22.1932 34.1829C21.9824 33.7243 22.1831 33.1819 22.6415 32.9708Z" fill="#222222"/>
</g>
<path d="M17.3804 35.0052C17.2398 35.0218 17.0976 35.0324 16.9553 35.0339C16.9905 34.0016 16.3636 32.833 15.6724 32.0747C15.2932 31.6584 14.8681 31.2937 14.3253 31.0923C14.2717 31.0727 14.2198 31.05 14.1678 31.0257C14.1188 31.0015 14.0439 30.9864 14.047 30.9213C14.05 30.8577 14.1234 30.8456 14.1769 30.829C14.9354 30.5883 15.5547 30.0963 15.9997 29.447C16.4874 28.734 16.7061 27.9848 16.9064 27.1644C17.1618 27.1402 17.5043 26.9827 17.752 27.0932C17.9477 27.181 17.8744 27.396 17.8759 27.6003C17.8789 27.9772 17.908 28.3511 17.9982 28.7174C18.1083 29.1564 18.379 29.4969 18.7307 29.7649C19.2108 30.1312 19.6558 30.5429 20.1772 30.8577C20.3974 30.9909 20.6344 31.0696 20.8699 31.1604C20.9341 31.1847 21.0152 31.2089 21.0274 31.2815C21.0427 31.3693 20.9464 31.383 20.8913 31.4147C20.2491 31.778 19.6435 32.2049 19.171 32.7589C18.8866 33.0934 18.59 33.4219 18.3499 33.7897C18.278 33.8987 17.8958 34.9083 17.8499 34.9189C17.6954 34.9552 17.5379 34.984 17.3804 35.0036V35.0052Z" fill="#FFB431"/>
</g>
<defs>
<clipPath id="clip0_792_4716">
<rect width="64" height="64" fill="white"/>
</clipPath>
<clipPath id="clip1_792_4716">
<rect width="19.949" height="17.9541" fill="white" transform="translate(22.0266 28.0518)"/>
</clipPath>
</defs>
</svg>
