<svg width="64" height="64" viewBox="0 0 64 64" fill="none" xmlns="http://www.w3.org/2000/svg">
<g clip-path="url(#clip0_792_4728)">
<path d="M29.8463 17.6451C28.9553 14.4521 28.8984 8.90393 28.9814 6.52898C30.2357 5.57665 32.4567 4.18251 31.3057 6.22454C30.1547 8.26656 31.4028 14.4861 32.1707 17.3407L29.8463 17.6451Z" fill="#246B31"/>
<path d="M24.979 8.06597C27.2576 9.82994 28.9575 9.22413 29.7254 8.16522C30.4932 7.10631 30.5786 5.25043 28.3002 3.48658C26.6194 2.18528 23.7332 1.89631 22.616 2.0523C22.2351 2.10543 21.9927 2.44 22.0502 2.83241C22.219 3.98389 23.2981 6.76483 24.9789 8.06614L24.979 8.06597Z" fill="#6BBF59"/>
<path d="M34.2212 7.79631C31.8464 9.62543 30.0797 8.99092 29.2836 7.88746C28.4876 6.784 28.4035 4.85326 30.778 3.02426C32.5298 1.67489 35.5328 1.38165 36.6945 1.54676C37.0906 1.60299 37.3419 1.95163 37.2812 2.35968C37.1026 3.55705 35.973 6.4471 34.2213 7.79647L34.2212 7.79631Z" fill="#6BBF59"/>
<path d="M19.546 20.569C22.6745 17.7699 23.7304 15.7781 24.7005 14.0011C25.2043 13.0784 25.6772 11.6049 26.1708 11.4514C26.7486 11.2718 27.973 12.4317 29.5125 13.3742C29.8959 13.6089 30.385 13.528 30.7067 13.214C32.1322 11.8229 33.2207 11.0252 33.9994 10.7213C34.2881 10.6086 34.5475 10.8576 34.5631 11.1672C34.6099 12.0948 34.8911 13.311 35.4864 14.3449C35.9808 15.2034 36.9214 15.641 37.8696 15.9279C41.7037 17.0881 47.9546 19.8441 53.3818 28.63C59.5646 38.6393 57.3829 47.9311 51.3986 54.818C45.4143 61.7049 27.0342 66.2591 16.8289 57.2244C6.6236 48.1898 7.32145 31.5068 19.546 20.569Z" fill="#FFDAB1"/>
<g clip-path="url(#clip1_792_4728)">
<ellipse cx="32.1265" cy="43.532" rx="10.0056" ry="5.55865" transform="rotate(-9.88965 32.1265 43.532)" fill="#E7CAAA"/>
<path d="M37.1294 47.7595C38.0328 47.7595 39.0269 47.9056 39.7616 48.2729C40.2132 48.4988 40.3964 49.0481 40.1705 49.4997C39.9446 49.9513 39.3953 50.1345 38.9437 49.9086C38.5666 49.7201 37.8934 49.5881 37.1294 49.5881C36.3655 49.5881 35.6923 49.7201 35.3151 49.9086C34.1913 50.4705 32.7749 51.197 30.7259 50.514C29.8061 50.2075 29.0791 50.6519 28.8821 50.8488C28.5251 51.2059 27.9463 51.2058 27.5892 50.8488C27.2323 50.4918 27.2323 49.913 27.5892 49.5559C28.1336 49.0116 29.5562 48.1965 31.3044 48.7792C32.5906 49.2078 33.3977 48.8227 34.4973 48.2729C35.2318 47.9057 36.226 47.7595 37.1294 47.7595Z" fill="#222222"/>
<path d="M27.1241 41.3085C27.68 41.8643 27.6801 46.8673 25.4565 46.8674C23.7918 46.8675 22.6464 45.5692 22.2026 44.7951C22.1523 44.7073 22.1741 44.5977 22.2505 44.5314C23.7751 43.2091 26.692 40.8763 27.1241 41.3085Z" fill="#575454"/>
<path d="M34.9061 44.0883C34.0167 43.199 34.5355 40.7531 34.9061 39.6414L39.9091 40.197C39.9091 40.9381 40.465 41.8643 39.9091 42.9763C39.3532 44.0883 36.018 45.1999 34.9061 44.0883Z" fill="#575454"/>
<path d="M26.3727 40.5248C26.8046 40.2636 27.3668 40.4017 27.6282 40.8336C27.8896 41.2655 27.7513 41.8277 27.3195 42.0892L22.5637 44.9674C22.1317 45.2289 21.5696 45.0906 21.3081 44.6587C21.0467 44.2267 21.1849 43.6645 21.6169 43.4031L26.3727 40.5248Z" fill="#222222"/>
<path d="M34.8319 38.6564L34.7391 38.6507C34.2756 38.6467 33.8749 38.9946 33.8232 39.4653C33.7714 39.936 34.0869 40.3627 34.5402 40.4594L34.6321 40.474L40.1577 41.0817C40.6596 41.1369 41.1112 40.7747 41.1664 40.2728C41.2216 39.7709 40.8595 39.3193 40.3576 39.2641L34.8319 38.6564Z" fill="#222222"/>
</g>
<path d="M55.2857 9.99696C55.3452 9.72655 55.2285 9.19038 54.4307 8.51112C53.6724 7.86556 52.4829 7.27428 51.0373 6.95502C49.5918 6.63588 48.2646 6.67136 47.3051 6.93749C46.2955 7.21761 45.9638 7.65474 45.9039 7.92506C45.8442 8.19535 45.9604 8.73228 46.7586 9.4119C47.5169 10.0574 48.7057 10.6485 50.1511 10.9678C51.5967 11.287 52.9246 11.2517 53.8843 10.9855C54.8945 10.7053 55.226 10.2673 55.2857 9.99696ZM57.3449 10.4517C57.0343 11.8579 55.7503 12.6562 54.4478 13.0176C53.0944 13.3929 51.41 13.4054 49.6963 13.0269C47.9829 12.6485 46.4611 11.9279 45.3917 11.0176C44.3625 10.1413 43.5342 8.87652 43.8447 7.47031C44.1554 6.06438 45.4392 5.26676 46.7415 4.90546C48.0948 4.53014 49.7785 4.51752 51.492 4.89586C53.2057 5.27431 54.7282 5.99499 55.7976 6.90542C56.8267 7.78159 57.6552 9.04569 57.3449 10.4517Z" fill="#AFAFAF"/>
</g>
<defs>
<clipPath id="clip0_792_4728">
<rect width="64" height="64" fill="white"/>
</clipPath>
<clipPath id="clip1_792_4728">
<rect width="25.4881" height="22.9393" fill="white" transform="translate(19.5952 33.6991) rotate(-7.46197)"/>
</clipPath>
</defs>
</svg>
