<svg width="80" height="80" viewBox="0 0 80 80" fill="none" xmlns="http://www.w3.org/2000/svg">
<g clip-path="url(#clip0_734_19350)">
<path d="M39.4727 18.4518C38.9719 14.9461 39.6813 9.06165 40.0987 6.55762C41.5594 5.72294 44.1053 4.5544 42.6028 6.55762C41.1004 8.56084 41.5595 15.3217 41.9768 18.4518H39.4727Z" fill="#246B31"/>
<path d="M35.6459 7.63023C37.8147 9.81472 39.6992 9.40888 40.6594 8.39381C41.6197 7.37874 41.9676 5.42486 39.799 3.24051C38.1992 1.629 35.1823 0.922529 33.9773 0.932763C33.5665 0.936193 33.2633 1.25694 33.2697 1.68054C33.2888 2.9236 34.046 6.01887 35.6458 7.63038L35.6459 7.63023Z" fill="#6BBF59"/>
<path d="M45.4727 8.62696C42.7037 10.2349 40.9204 9.31773 40.2303 8.03852C39.5402 6.75931 39.719 4.7026 42.4878 3.09477C44.5304 1.90854 47.7519 2.01456 48.9595 2.3506C49.3712 2.46511 49.589 2.86926 49.4681 3.29304C49.1129 4.53651 47.5154 7.44092 45.4728 8.62715L45.4727 8.62696Z" fill="#6BBF59"/>
<path d="M27.163 22.1674C31.1757 19.0039 32.6875 16.5499 34.0686 14.3654C34.7857 13.2311 35.5502 11.3622 36.14 11.2446C36.8157 11.1098 38.0097 12.7818 39.5846 14.2732C40.0314 14.6962 40.722 14.6737 41.1891 14.2733C42.9742 12.743 44.3059 11.9043 45.227 11.6386C45.583 11.5359 45.8539 11.8666 45.8246 12.236C45.7252 13.4887 45.8614 15.2056 46.4106 16.7198C46.8392 17.9013 47.8967 18.6733 49.0092 19.2582C53.2433 21.484 59.9308 26.2433 64.7979 38.7076C70.3913 53.0321 66.4892 64.956 58.583 73.0364C50.6768 81.1169 28.8895 83.9592 18.5314 70.2277C8.17318 56.4962 11.4831 34.529 27.163 22.1674Z" fill="#FFDAB1"/>
<g clip-path="url(#clip1_734_19350)">
<path d="M46.5917 50.5567C46.9874 50.0651 47.7071 49.987 48.1989 50.3826C48.6904 50.7783 48.7684 51.498 48.373 51.9898C47.6628 52.8726 46.5761 53.5495 45.3596 54.0232C44.1278 54.5029 42.681 54.807 41.1565 54.8882C38.1184 55.0499 34.6325 54.3336 31.825 52.1806C31.3243 51.7966 31.2291 51.0788 31.6129 50.5779C31.997 50.0772 32.7148 49.9821 33.2156 50.3659C35.4951 52.114 38.407 52.7448 41.0359 52.6047C42.3445 52.5349 43.5488 52.276 44.5304 51.8938C45.5275 51.5054 46.2184 51.0208 46.5917 50.5567Z" fill="#222222"/>
<path d="M34.3726 39.1056C34.8948 38.7516 35.6054 38.8883 35.9596 39.4103C36.3138 39.9327 36.1774 40.6443 35.6549 40.9985C34.4377 41.8235 33.2843 42.4189 31.992 42.4415C30.6914 42.4642 29.4789 41.9046 28.1393 40.9985C27.6167 40.6448 27.4799 39.9341 27.8335 39.4114C28.1872 38.8888 28.8978 38.752 29.4205 39.1056C30.6348 39.9269 31.3626 40.166 31.9518 40.1558C32.5493 40.1454 33.236 39.876 34.3726 39.1056Z" fill="#222222"/>
<path d="M50.5812 39.1056C51.1035 38.7516 51.814 38.8883 52.1682 39.4103C52.5224 39.9327 52.386 40.6443 51.8635 40.9985C50.6463 41.8235 49.4929 42.4189 48.2006 42.4415C46.9 42.4642 45.6875 41.9046 44.3479 40.9985C43.8254 40.6448 43.6885 39.9341 44.0421 39.4114C44.3958 38.8888 45.1065 38.752 45.6292 39.1056C46.8434 39.9269 47.5712 40.166 48.1604 40.1558C48.7579 40.1454 49.4446 39.876 50.5812 39.1056Z" fill="#222222"/>
</g>
</g>
<defs>
<clipPath id="clip0_734_19350">
<rect width="80" height="80" fill="white"/>
</clipPath>
<clipPath id="clip1_734_19350">
<rect width="24.9362" height="22.4426" fill="white" transform="translate(27.5332 35.0647)"/>
</clipPath>
</defs>
</svg>
