<svg width="80" height="80" viewBox="0 0 80 80" fill="none" xmlns="http://www.w3.org/2000/svg">
<g clip-path="url(#clip0_734_19348)">
<path d="M37.1225 18.2112C36.1733 14.8174 36.04 8.91908 36.0919 6.39416C37.354 5.38068 39.5926 3.89669 38.4504 6.06856C37.3083 8.24043 38.6616 14.8515 39.481 17.8856L37.1225 18.2112Z" fill="#246B31"/>
<path d="M32.0442 8.03139C34.3844 9.90478 36.104 9.2593 36.8701 8.13291C37.6362 7.00652 37.6977 5.03344 35.3577 3.16018C33.6315 1.77816 30.6939 1.47338 29.5604 1.64015C29.174 1.69695 28.9321 2.05284 28.9958 2.46997C29.1831 3.69398 30.3179 6.64953 32.0441 8.03156L32.0442 8.03139Z" fill="#6BBF59"/>
<path d="M41.4351 7.73707C39.0461 9.68363 37.2417 9.01055 36.4175 7.83812C35.5933 6.66568 35.4815 4.61315 37.8703 2.66673C39.6325 1.23073 42.681 0.916459 43.8641 1.09101C44.2674 1.15046 44.5276 1.5209 44.4715 1.95475C44.3063 3.22784 43.1974 6.30124 41.4352 7.73725L41.4351 7.73707Z" fill="#6BBF59"/>
<path d="M26.035 23.478C29.3833 19.8349 30.4729 17.217 31.476 14.8821C31.9969 13.6696 32.4624 11.7262 33.0019 11.5335C33.6123 11.3154 34.9391 12.7707 36.5967 14.0272C37.1024 14.4105 37.8093 14.2895 38.2201 13.8059C39.6565 12.1147 40.7732 11.1347 41.5932 10.7503C41.9249 10.5948 42.2353 10.8795 42.2575 11.2451C42.3331 12.486 42.6906 14.151 43.4053 15.5697C43.973 16.6968 45.1155 17.3419 46.2925 17.7973C50.5893 19.4595 57.4898 23.3099 63.7334 34.9043C70.9526 48.3106 68.9017 60.5829 62.5561 69.5836C56.2105 78.5843 36.078 84.2217 24.452 72.02C12.826 59.8183 12.9511 37.7136 26.035 23.478Z" fill="#FFDAB1"/>
<path d="M56.6876 32.4637C57.0267 32.412 57.3434 32.6449 57.3951 32.984L57.5615 34.076C58.2742 38.7525 55.061 43.1215 50.3845 43.8343C47.2898 44.3059 44.3305 43.0578 42.4759 40.8043C42.092 40.3379 41.1306 40.4844 40.9031 41.0441C39.8041 43.7478 37.3512 45.8208 34.2563 46.2925C29.5798 47.0053 25.2109 43.7921 24.498 39.1156L24.3316 38.0235C24.2799 37.6845 24.5129 37.3678 24.8519 37.3161L56.6876 32.4637Z" fill="#222222"/>
<path d="M29.248 37.5918L34.491 36.9657L37.406 42.8216C36.6887 44.2366 35.0454 45.3192 32.8087 45.1431L29.248 37.5918Z" fill="white"/>
<path d="M46.483 35.1833L50.9335 34.5076L53.6755 40.0726C53.124 41.4381 51.7673 42.4985 49.8496 42.3625L46.483 35.1833Z" fill="white"/>
<path d="M30.4818 50.6514C30.8216 50.1195 31.5287 49.9635 32.0607 50.3032C34.447 51.8273 40.9665 54.1792 47.5098 51.1783C48.0835 50.9152 48.7626 51.1663 49.0258 51.7399C49.2889 52.3136 49.0368 52.9929 48.4631 53.256C40.9878 56.6846 33.63 54.0186 30.83 52.2303C30.2981 51.8906 30.1421 51.1834 30.4818 50.6514Z" fill="#222222"/>
<path d="M70.4319 11.8729C70.4454 11.8505 70.4549 11.8274 70.4617 11.8048C71.0127 10.3218 70.1476 8.79623 68.7461 8.21807C68.3024 8.03534 67.8969 7.81937 67.533 7.50115C67.2673 7.27001 67.0875 6.98832 66.8513 6.73481C66.4289 6.28125 65.7596 6.57252 65.7962 7.19229C65.8311 7.80161 66.0024 8.43255 66.1022 9.03242L66.9764 14.2901C65.8386 13.93 64.4878 14.3601 63.6568 15.1899C62.9331 15.9133 62.5655 17.0999 63.3245 17.9474C64.8742 19.6734 68.7478 17.9643 68.2764 15.601C68.2772 15.5821 68.2768 15.5633 68.2735 15.5437L67.63 11.674C67.6022 11.5067 67.5576 11.3341 67.5455 11.1656C67.4983 10.4818 68.1492 9.9921 68.7649 10.3772C69.0899 10.5811 69.2697 10.9433 69.3657 11.3048C69.4186 11.5028 69.4064 11.7493 69.5209 11.9263C69.7512 12.2802 70.1996 12.2029 70.4187 11.8979C70.4228 11.8905 70.4269 11.8831 70.4323 11.8755L70.4319 11.8729Z" fill="#222222"/>
<path d="M64.1494 10.6426C64.1574 10.6295 64.1629 10.616 64.1669 10.6028C64.4886 9.73677 63.9834 8.84588 63.165 8.50825C62.9059 8.40153 62.6691 8.27542 62.4566 8.08958C62.3014 7.9546 62.1964 7.7901 62.0585 7.64206C61.8118 7.37719 61.421 7.54729 61.4423 7.90922C61.4627 8.26504 61.5628 8.6335 61.621 8.98381L62.1316 12.0542C61.4671 11.8439 60.6783 12.095 60.193 12.5797C59.7703 13.0021 59.5557 13.695 59.9989 14.1899C60.9039 15.1979 63.166 14.1998 62.8907 12.8197C62.8912 12.8086 62.8909 12.7977 62.889 12.7862L62.5132 10.5264C62.497 10.4287 62.4709 10.328 62.4639 10.2295C62.4363 9.83019 62.8164 9.54423 63.176 9.76915C63.3658 9.88818 63.4708 10.0997 63.5269 10.3108C63.5577 10.4265 63.5506 10.5704 63.6175 10.6738C63.752 10.8804 64.0138 10.8353 64.1418 10.6572C64.1442 10.6529 64.1466 10.6485 64.1497 10.6441L64.1494 10.6426Z" fill="#222222"/>
</g>
<defs>
<clipPath id="clip0_734_19348">
<rect width="80" height="80" fill="white"/>
</clipPath>
</defs>
</svg>
