<svg width="64" height="64" viewBox="0 0 64 64" fill="none" xmlns="http://www.w3.org/2000/svg">
<g clip-path="url(#clip0_792_4802)">
<path d="M31.3826 14.4684C30.986 11.6899 31.5487 7.026 31.8797 5.04139C33.0375 4.37995 35.0554 3.45397 33.8644 5.04158C32.6735 6.62918 33.0368 11.9877 33.3674 14.4686L31.3826 14.4684Z" fill="#246B31"/>
<path d="M28.3509 5.89121C30.0696 7.62276 31.5633 7.30123 32.3245 6.49678C33.0856 5.69233 33.3615 4.14375 31.6428 2.41232C30.375 1.13495 27.9839 0.574793 27.0289 0.582817C26.7033 0.585504 26.463 0.839696 26.468 1.17544C26.483 2.16066 27.083 4.61397 28.3508 5.89133L28.3509 5.89121Z" fill="#6BBF59"/>
<path d="M36.1392 6.68192C33.9444 7.95614 32.5311 7.22908 31.9842 6.21515C31.4374 5.20123 31.5792 3.57114 33.7739 2.29701C35.3929 1.35698 37.9461 1.44124 38.9032 1.70767C39.2295 1.79846 39.4021 2.1188 39.3063 2.45466C39.0246 3.44019 37.7583 5.74205 36.1393 6.68208L36.1392 6.68192Z" fill="#6BBF59"/>
<path d="M21.6265 17.4123C24.8071 14.9052 26.0055 12.9604 27.1003 11.2291C27.6687 10.3301 28.2748 8.8489 28.7423 8.75572C29.2778 8.64898 30.224 9.97422 31.4722 11.1564C31.8262 11.4917 32.3736 11.4739 32.7438 11.1566C34.1588 9.9438 35.2143 9.27917 35.9444 9.06867C36.2266 8.9873 36.4412 9.24941 36.4179 9.54219C36.3391 10.5351 36.4469 11.8959 36.8821 13.096C37.2217 14.0325 38.0598 14.6444 38.9415 15.1081C42.2972 16.8725 47.5973 20.6452 51.4539 30.5245C55.8861 41.8782 52.7925 51.3285 46.5255 57.7323C40.2586 64.1361 22.9903 66.3873 14.7816 55.5032C6.57297 44.6192 9.19797 27.2087 21.6265 17.4123Z" fill="#FFDAB1"/>
<ellipse cx="25.3767" cy="33.0704" rx="2.47049" ry="3.45869" fill="#222222"/>
<ellipse cx="38.2233" cy="33.0715" rx="2.47049" ry="3.45869" fill="#222222"/>
<ellipse cx="40.1992" cy="40.4831" rx="3.45869" ry="1.97639" fill="#F5B5D0"/>
<ellipse cx="23.3997" cy="40.4816" rx="3.45869" ry="1.97639" fill="#F5B5D0"/>
<path d="M37.0168 40.898C37.3334 40.5049 37.9084 40.4425 38.3017 40.7588C38.6951 41.0754 38.7574 41.6511 38.4408 42.0445C37.8766 42.7456 37.0145 43.2829 36.0496 43.6586C35.0724 44.0391 33.9248 44.2797 32.7156 44.344C30.3061 44.4721 27.5411 43.9042 25.314 42.196C24.9135 41.8887 24.8374 41.3145 25.1445 40.9138C25.4518 40.5133 26.026 40.4372 26.4267 40.7443C28.2312 42.1285 30.5364 42.6288 32.6185 42.5181C33.6551 42.463 34.6092 42.2576 35.3864 41.955C36.1759 41.6475 36.7221 41.2642 37.0168 40.898Z" fill="#222222"/>
<path d="M50.6483 8.56369C51.7044 7.81797 51.1492 8.17728 51.8063 7.8096C52.0755 7.65944 53.2512 7.3376 53.2801 7.3705C53.4524 7.5726 53.6784 7.32535 54.0421 7.73225C56.1969 10.1435 52.146 12.2414 49.5786 13.9254C49.3069 14.1045 49.548 14.1518 49.1675 14.2165C48.8537 14.2705 48.8589 13.8883 48.6279 13.859C48.5596 13.8498 48.47 13.7211 48.605 13.6412C48.3467 13.2365 48.3698 13.158 48.0675 13.0001C47.8825 12.9044 47.7019 11.3536 47.5339 11.2087C47.3167 11.0231 47.347 10.7538 47.2974 10.5036C46.9322 8.65393 46.4004 8.45967 47.4343 6.40527C47.4517 6.37091 47.9579 6.10434 48.2758 6.18097C48.747 6.29537 48.7648 5.98066 49.1347 6.19539C49.1665 6.21419 49.9089 6.58169 49.8966 6.84733C49.8956 6.88018 49.9174 6.92508 49.9419 6.94605C50.2348 7.19385 50.3274 7.57051 50.6485 8.56252L50.6483 8.56369ZM49.4215 13.1142C49.1865 12.7363 49.2574 12.6934 49.1181 12.7051C49.0265 12.909 49.1314 13.0531 49.224 13.2069C49.2941 13.1737 49.3502 13.1473 49.4217 13.113L49.4215 13.1142ZM50.9168 9.93912C51.2345 9.83816 51.4459 9.67851 51.5624 9.46501C51.342 9.60197 51.1078 9.68833 50.9168 9.93912ZM50.6722 11.4866C50.6821 11.5058 50.6928 11.5264 50.7027 11.5456C50.8433 11.4921 50.9371 11.4205 50.9841 11.3306C50.8918 11.3764 50.7813 11.432 50.6722 11.4866ZM49.5205 11.0897C49.5496 11.1606 49.5779 11.2301 49.6284 11.3532C49.696 11.1651 49.6031 11.1301 49.5205 11.0897ZM49.4123 10.8225C49.4323 10.8144 49.4522 10.8075 49.4723 10.7994C49.4546 10.7455 49.437 10.6917 49.4195 10.6367C49.4033 10.6431 49.387 10.6495 49.3707 10.656L49.4123 10.8225Z" fill="#FF9CC6"/>
<path d="M54.8144 3.33299C55.3424 2.96013 55.0649 3.13979 55.3934 2.95595C55.528 2.88087 56.1158 2.71995 56.1303 2.7364C56.2165 2.83745 56.3294 2.71382 56.5113 2.91727C57.5887 4.12291 55.5632 5.17184 54.2795 6.01386C54.1437 6.10337 54.2642 6.12703 54.074 6.1594C53.9171 6.18641 53.9197 5.99531 53.8042 5.98066C53.77 5.97606 53.7252 5.91171 53.7927 5.87176C53.6636 5.6694 53.6752 5.63015 53.524 5.5512C53.4315 5.50332 53.3412 4.72795 53.2572 4.65551C53.1486 4.56269 53.1637 4.42806 53.1389 4.30294C52.9564 3.37811 52.6904 3.28098 53.2074 2.25378C53.2161 2.2366 53.4692 2.10332 53.6281 2.14163C53.8637 2.19883 53.8726 2.04148 54.0576 2.14884C54.0735 2.15824 54.4447 2.34199 54.4386 2.47481C54.438 2.49124 54.4489 2.51369 54.4612 2.52417C54.6076 2.64807 54.6539 2.8364 54.8145 3.33241L54.8144 3.33299ZM54.201 5.60826C54.0835 5.41931 54.119 5.39786 54.0493 5.40368C54.0035 5.50566 54.0559 5.57771 54.1022 5.65461C54.1373 5.63797 54.1653 5.62478 54.2011 5.60767L54.201 5.60826ZM54.9486 4.02071C55.1075 3.97023 55.2132 3.8904 55.2714 3.78365C55.1612 3.85213 55.0441 3.89531 54.9486 4.02071ZM54.8264 4.79446C54.8313 4.80405 54.8366 4.81433 54.8416 4.82392C54.9119 4.79721 54.9588 4.76138 54.9823 4.71643C54.9361 4.73935 54.8809 4.76714 54.8264 4.79446ZM54.2505 4.59602C54.265 4.63147 54.2792 4.66622 54.3044 4.72776C54.3382 4.63372 54.2918 4.61617 54.2505 4.59602ZM54.1964 4.4624C54.2064 4.45835 54.2163 4.45488 54.2264 4.45083C54.2175 4.42391 54.2087 4.39699 54.2 4.36948C54.1919 4.37269 54.1837 4.37591 54.1756 4.37913L54.1964 4.4624Z" fill="#FF9CC6"/>
</g>
<defs>
<clipPath id="clip0_792_4802">
<rect width="64" height="64" fill="white"/>
</clipPath>
</defs>
</svg>
