<svg width="64" height="64" viewBox="0 0 64 64" fill="none" xmlns="http://www.w3.org/2000/svg">
<g clip-path="url(#clip0_792_4789)">
<path d="M35.1084 13.3675C35.914 11.0403 38.2249 7.62709 39.2797 6.2114C40.4485 6.15998 42.3946 6.24733 40.8282 7.00811C39.2618 7.76888 37.3947 12.0958 36.657 14.1642L35.1084 13.3675Z" fill="#246B31"/>
<path d="M36.1854 5.45829C36.8316 7.49917 38.1261 7.84777 39.0428 7.52556C39.9595 7.20334 40.7963 6.10577 40.1502 4.06505C39.6737 2.55953 38.0328 1.1628 37.2844 0.785774C37.0293 0.657192 36.7397 0.759078 36.6089 1.02307C36.2252 1.79783 35.7087 3.95283 36.1853 5.45834L36.1854 5.45829Z" fill="#6BBF59"/>
<path d="M41.9449 9.20125C39.7209 9.3146 38.91 8.18007 38.8902 7.16947C38.8705 6.15886 39.6353 4.94389 41.8591 4.83055C43.4997 4.74685 45.4581 5.83733 46.0979 6.42934C46.3161 6.63114 46.3222 6.95036 46.1126 7.17395C45.4973 7.82988 43.5854 9.11771 41.9449 9.2014L41.9449 9.20125Z" fill="#6BBF59"/>
<path d="M25.9646 15.1661C29.4873 13.3925 31.0493 11.7379 32.4656 10.2712C33.201 9.50964 34.1077 8.18224 34.5608 8.193C35.0708 8.2051 35.6222 9.66657 36.4701 11.0828C36.7369 11.5284 37.3134 11.6463 37.768 11.3952C39.2981 10.5499 40.3946 10.1391 41.1065 10.0845C41.4001 10.062 41.5502 10.3649 41.4607 10.6454C41.1567 11.5981 40.9367 12.9499 41.0491 14.2213C41.139 15.2381 41.8035 16.0647 42.5505 16.7602C45.2318 19.2568 49.1783 24.1468 50.4079 34.6427C51.8334 46.8103 46.7619 55.4491 39.4774 60.3874C32.1929 65.3257 15.7324 63.7545 10.7124 51.2208C5.69247 38.6871 12.1992 22.0969 25.9646 15.1661Z" fill="#FFDAB1"/>
<g clip-path="url(#clip1_792_4789)">
<ellipse cx="24.5695" cy="30.632" rx="2.00311" ry="3.00467" transform="rotate(13.3898 24.5695 30.632)" fill="#222222"/>
<ellipse cx="35.403" cy="32.6963" rx="3.00467" ry="4.50701" transform="rotate(13.3898 35.403 32.6963)" fill="#222222"/>
<path d="M32.7108 39.8664C32.9487 39.9231 33.1542 40.0728 33.2809 40.282L35.4671 43.8909C35.7287 44.3227 35.59 44.8847 35.1582 45.1463C34.7263 45.4079 34.1641 45.2701 33.9025 44.8382L32.1967 42.022L29.4058 43.7678C29.1984 43.8975 28.9476 43.9386 28.7096 43.882C28.4716 43.8253 28.2662 43.6756 28.1394 43.4663L26.7247 41.1315L24.4106 42.5787C24.2031 42.7084 23.9524 42.7495 23.7143 42.6929C23.4763 42.6362 23.271 42.4865 23.1442 42.2773L20.958 38.6684C20.6964 38.2366 20.8343 37.6744 21.2661 37.4128C21.6979 37.1512 22.2601 37.2891 22.5217 37.7209L24.2269 40.536L26.5416 39.0899C26.7491 38.9602 26.9999 38.9191 27.2379 38.9757C27.4759 39.0323 27.6812 39.1821 27.808 39.3913L29.2221 41.7251L32.0136 39.9804L32.0939 39.9361C32.2842 39.8422 32.5025 39.8168 32.7108 39.8664Z" fill="#222222"/>
</g>
<path d="M53.5529 11.906L56.2386 13.9545C56.7327 14.3314 56.7679 15.0625 56.3124 15.4851L51.7051 19.7594C50.9555 20.4548 49.7683 19.7122 50.0656 18.7339L51.9872 12.4111C52.1903 11.7429 52.9977 11.4824 53.5529 11.906Z" fill="#FFE23A"/>
<path d="M53.5754 24.3837L60.4627 21.5746C61.0386 21.3397 61.6871 21.6811 61.8195 22.2888L62.4073 24.9872C62.542 25.6056 62.0764 26.1924 61.4435 26.2018L53.9685 26.3125C52.8613 26.3289 52.5501 24.8019 53.5754 24.3837Z" fill="#FFE23A"/>
</g>
<defs>
<clipPath id="clip0_792_4789">
<rect width="64" height="64" fill="white"/>
</clipPath>
<clipPath id="clip1_792_4789">
<rect width="20.0311" height="18.028" fill="white" transform="translate(21.8318 24.8325) rotate(13.3898)"/>
</clipPath>
</defs>
</svg>
