<svg width="80" height="80" viewBox="0 0 80 80" fill="none" xmlns="http://www.w3.org/2000/svg">
<g clip-path="url(#clip0_734_19345)">
<path d="M43.8858 16.7096C44.8928 13.8006 47.7815 9.5341 49.0999 7.76449C50.561 7.70022 52.9936 7.80941 51.0356 8.76038C49.0776 9.71135 46.7437 15.12 45.8215 17.7055L43.8858 16.7096Z" fill="#246B31"/>
<path d="M45.2317 6.82305C46.0394 9.37414 47.6575 9.8099 48.8035 9.40713C49.9494 9.00436 50.9954 7.6324 50.1877 5.08149C49.592 3.1996 47.5409 1.45369 46.6054 0.982401C46.2865 0.821674 45.9246 0.94903 45.7611 1.27902C45.2815 2.24747 44.6358 4.94122 45.2316 6.82311L45.2317 6.82305Z" fill="#6BBF59"/>
<path d="M52.4312 11.5017C49.6512 11.6434 48.6375 10.2253 48.6128 8.96202C48.5881 7.69876 49.5442 6.18005 52.324 6.03837C54.3746 5.93375 56.8226 7.29685 57.6224 8.03685C57.8952 8.28911 57.9028 8.68814 57.6408 8.96761C56.8717 9.78753 54.4818 11.3973 52.4311 11.5019L52.4312 11.5017Z" fill="#6BBF59"/>
<path d="M32.4559 18.9578C36.8593 16.7407 38.8118 14.6726 40.5821 12.8391C41.5014 11.8872 42.6347 10.2279 43.2012 10.2414C43.8387 10.2565 44.5279 12.0833 45.5878 13.8536C45.9214 14.4106 46.6419 14.558 47.2102 14.2441C49.1229 13.1875 50.4935 12.674 51.3833 12.6057C51.7503 12.5776 51.938 12.9563 51.8261 13.3069C51.446 14.4977 51.171 16.1875 51.3116 17.7768C51.424 19.0477 52.2546 20.081 53.1883 20.9504C56.5399 24.0711 61.473 30.1836 63.0101 43.3035C64.7919 58.513 58.4525 69.3115 49.3469 75.4844C40.2413 81.6573 19.6657 79.6932 13.3907 64.0261C7.11577 48.3591 15.2492 27.6212 32.4559 18.9578Z" fill="#FFDAB1"/>
<g clip-path="url(#clip1_734_19345)">
<ellipse cx="30.7117" cy="38.29" rx="2.50389" ry="3.75584" transform="rotate(13.3898 30.7117 38.29)" fill="#222222"/>
<ellipse cx="44.2535" cy="40.8702" rx="3.75584" ry="5.63376" transform="rotate(13.3898 44.2535 40.8702)" fill="#222222"/>
<path d="M40.888 49.833C41.1854 49.904 41.4423 50.0911 41.6007 50.3526L44.3335 54.8636C44.6604 55.4035 44.4871 56.1059 43.9473 56.4329C43.4074 56.7599 42.7047 56.5877 42.3777 56.0478L40.2455 52.5276L36.7569 54.7098C36.4976 54.872 36.1841 54.9233 35.8866 54.8526C35.589 54.7817 35.3324 54.5946 35.1739 54.333L33.4055 51.4145L30.5128 53.2235C30.2535 53.3856 29.94 53.437 29.6425 53.3662C29.345 53.2954 29.0883 53.1082 28.9298 52.8466L26.1971 48.3356C25.8701 47.7958 26.0424 47.0931 26.5822 46.766C27.122 46.4391 27.8247 46.6114 28.1517 47.1511L30.2832 50.6701L33.1766 48.8624C33.4359 48.7003 33.7494 48.6489 34.0469 48.7197C34.3445 48.7905 34.6011 48.9777 34.7596 49.2392L36.5272 52.1564L40.0166 49.9755L40.117 49.9202C40.3548 49.8028 40.6277 49.7711 40.888 49.833Z" fill="#222222"/>
</g>
<path d="M66.9411 14.8826L70.2982 17.4434C70.9158 17.9144 70.9598 18.8283 70.3904 19.3566L64.6313 24.6994C63.6944 25.5686 62.2104 24.6404 62.582 23.4176L64.984 15.514C65.2378 14.6788 66.247 14.3532 66.9411 14.8826Z" fill="#FFE23A"/>
<path d="M66.9692 30.4798L75.5782 26.9685C76.2981 26.6748 77.1088 27.1016 77.2743 27.8612L78.009 31.2342C78.1774 32.0072 77.5954 32.7407 76.8043 32.7524L67.4605 32.8908C66.0766 32.9113 65.6876 31.0025 66.9692 30.4798Z" fill="#FFE23A"/>
</g>
<defs>
<clipPath id="clip0_734_19345">
<rect width="80" height="80" fill="white"/>
</clipPath>
<clipPath id="clip1_734_19345">
<rect width="25.0389" height="22.535" fill="white" transform="translate(27.2897 31.0408) rotate(13.3898)"/>
</clipPath>
</defs>
</svg>
