<svg width="64" height="64" viewBox="0 0 64 64" fill="none" xmlns="http://www.w3.org/2000/svg">
<g clip-path="url(#clip0_792_4743)">
<path d="M31.5782 14.7614C31.1776 11.9569 31.7452 7.24929 32.079 5.24607C33.2476 4.57833 35.2843 3.64349 34.0824 5.24607C32.8804 6.84865 33.2477 12.2574 33.5816 14.7614H31.5782Z" fill="#246B31"/>
<path d="M28.5167 6.10416C30.2517 7.85176 31.7593 7.52708 32.5275 6.71502C33.2957 5.90297 33.574 4.33986 31.8391 2.59239C30.5593 1.30318 28.1458 0.737998 27.1818 0.746186C26.8532 0.74893 26.6106 1.00552 26.6157 1.34441C26.631 2.33886 27.2368 4.81507 28.5166 6.10428L28.5167 6.10416Z" fill="#6BBF59"/>
<path d="M36.3783 6.90154C34.1631 8.18789 32.7364 7.45416 32.1844 6.43079C31.6323 5.40742 31.7753 3.76206 33.9904 2.47579C35.6245 1.52681 38.2017 1.61162 39.1677 1.88046C39.4971 1.97206 39.6714 2.29538 39.5746 2.6344C39.2904 3.62918 38.0125 5.95271 36.3784 6.90169L36.3783 6.90154Z" fill="#6BBF59"/>
<path d="M21.7304 17.7339C24.9406 15.2031 26.15 13.2399 27.2549 11.4923C27.8286 10.5848 28.4402 9.08971 28.912 8.99562C29.4526 8.88782 30.4078 10.2254 31.6677 11.4185C32.0251 11.7569 32.5776 11.7389 32.9513 11.4186C34.3794 10.1943 35.4447 9.52336 36.1816 9.31082C36.4664 9.22866 36.6831 9.4932 36.6596 9.78872C36.5801 10.791 36.6891 12.1644 37.1285 13.3758C37.4714 14.321 38.3173 14.9386 39.2074 15.4065C42.5946 17.1872 47.9447 20.9946 51.8383 30.9661C56.313 42.4256 53.1914 51.9647 46.8664 58.4291C40.5414 64.8934 23.1116 67.1673 14.8251 56.1821C6.53855 45.1969 9.18649 27.6232 21.7304 17.7339Z" fill="#FFDAB1"/>
<g clip-path="url(#clip1_792_4743)">
<path d="M37.2733 40.4454C37.5899 40.0521 38.1657 39.9897 38.5591 40.3061C38.9523 40.6227 39.0147 41.1985 38.6983 41.5919C38.1302 42.2981 37.2608 42.8396 36.2876 43.2186C35.3022 43.6024 34.1448 43.8456 32.9251 43.9106C30.4946 44.04 27.706 43.4669 25.4599 41.7445C25.0594 41.4373 24.9833 40.8631 25.2903 40.4624C25.5975 40.0618 26.1718 39.9857 26.5724 40.2927C28.396 41.6913 30.7256 42.1959 32.8287 42.0838C33.8755 42.028 34.839 41.8209 35.6242 41.5151C36.422 41.2044 36.9747 40.8167 37.2733 40.4454Z" fill="#222222"/>
<path d="M27.498 31.2845C27.9158 31.0013 28.4842 31.1106 28.7676 31.5283C29.051 31.9462 28.9418 32.5155 28.5239 32.7988C27.5501 33.4589 26.6274 33.9352 25.5935 33.9533C24.5531 33.9714 23.5831 33.5237 22.5114 32.7988C22.0933 32.5158 21.9839 31.9473 22.2667 31.5292C22.5497 31.1111 23.1182 31.0017 23.5364 31.2845C24.5078 31.9416 25.09 32.1328 25.5614 32.1247C26.0394 32.1163 26.5888 31.9009 27.498 31.2845Z" fill="#222222"/>
<path d="M40.465 31.2845C40.8829 31.0013 41.4513 31.1106 41.7347 31.5283C42.018 31.9462 41.9089 32.5155 41.4909 32.7988C40.5172 33.4589 39.5944 33.9352 38.5606 33.9533C37.5201 33.9714 36.5501 33.5237 35.4784 32.7988C35.0604 32.5158 34.9509 31.9473 35.2338 31.5292C35.5167 31.1111 36.0853 31.0017 36.5034 31.2845C37.4748 31.9416 38.0571 32.1328 38.5284 32.1247C39.0064 32.1163 39.5558 31.9009 40.465 31.2845Z" fill="#222222"/>
</g>
</g>
<defs>
<clipPath id="clip0_792_4743">
<rect width="64" height="64" fill="white"/>
</clipPath>
<clipPath id="clip1_792_4743">
<rect width="19.949" height="17.9541" fill="white" transform="translate(22.0266 28.0518)"/>
</clipPath>
</defs>
</svg>
