<svg width="64" height="64" viewBox="0 0 64 64" fill="none" xmlns="http://www.w3.org/2000/svg">
<path d="M31.5328 17.1439C31.0904 14.047 31.7171 8.84846 32.0858 6.63632C33.3763 5.89895 35.6254 4.86662 34.2981 6.63632C32.9708 8.40603 33.3764 14.3788 33.745 17.1439H31.5328Z" fill="#246B31"/>
<path d="M28.1524 7.58391C30.0684 9.51376 31.7332 9.15522 32.5815 8.25848C33.4298 7.36174 33.7372 5.63562 31.8214 3.70591C30.4081 2.28226 27.7428 1.65814 26.6783 1.66718C26.3154 1.67021 26.0476 1.95356 26.0532 2.32779C26.0701 3.42595 26.739 6.16039 28.1523 7.58405L28.1524 7.58391Z" fill="#6BBF59"/>
<path d="M36.8335 8.46441C34.3873 9.88491 32.8119 9.07466 32.2022 7.94456C31.5926 6.81447 31.7505 4.99752 34.1966 3.57712C36.0011 2.52917 38.847 2.62282 39.9138 2.9197C40.2776 3.02086 40.47 3.37789 40.3632 3.75227C40.0493 4.85079 38.6381 7.41663 36.8336 8.46458L36.8335 8.46441Z" fill="#6BBF59"/>
<path d="M20.542 19.5534C24.1233 17.1644 25.4726 15.3111 26.7052 13.6614C27.3452 12.8048 28.0275 11.3934 28.554 11.3046C29.1674 11.2011 30.2597 12.5096 31.7015 13.6501C32.0755 13.9459 32.5991 13.9283 32.9842 13.6471C34.6014 12.4667 35.8077 11.8174 36.6421 11.6076C36.9686 11.5255 37.2127 11.8306 37.1879 12.1664C37.1209 13.072 37.2415 14.2641 37.6775 15.3367C38.078 16.3219 39.0288 16.9084 40.0011 17.3393C43.7778 19.0129 49.7724 22.5994 54.131 32.0444C59.1231 42.8621 55.6405 51.8669 48.5842 57.9691C41.5279 64.0714 22.0829 66.2179 12.8383 55.848C3.59364 45.4781 6.54774 28.8888 20.542 19.5534Z" fill="#FFE2C2"/>
<g clip-path="url(#clip0_792_4755)">
<ellipse cx="31.724" cy="41.2789" rx="9.62588" ry="5.34771" fill="#E8C8A5"/>
<path d="M23.7024 40.0906H26.911V42.7644C26.911 43.6505 26.1927 44.3687 25.3067 44.3687C24.4207 44.3687 23.7024 43.6505 23.7024 42.7644V40.0906Z" fill="#3D7EFF"/>
<path d="M28.0661 38.2246C28.5056 37.9766 29.0633 38.1317 29.3117 38.571C29.56 39.0107 29.4049 39.5691 28.9652 39.8175C27.7146 40.524 26.6035 40.9865 25.3974 41.0041C24.1871 41.0216 23.0194 40.5899 21.6492 39.8175C21.2094 39.5695 21.0539 39.0118 21.3018 38.5719C21.5498 38.1322 22.1075 37.9767 22.5474 38.2246C23.8062 38.9341 24.6355 39.187 25.3706 39.1764C26.1099 39.1656 26.8938 38.8869 28.0661 38.2246Z" fill="#222222"/>
<path d="M40.9003 38.2246C41.3399 37.9766 41.8975 38.1317 42.1459 38.571C42.3942 39.0107 42.2391 39.5691 41.7995 39.8175C40.5488 40.524 39.4377 40.9865 38.2316 41.0041C37.0214 41.0216 35.8537 40.5899 34.4834 39.8175C34.0436 39.5695 33.8881 39.0118 34.1361 38.5719C34.384 38.1322 34.9418 37.9767 35.3816 38.2246C36.6404 38.9341 37.4698 39.187 38.2048 39.1764C38.9441 39.1656 39.728 38.8869 40.9003 38.2246Z" fill="#222222"/>
<path d="M28.6693 52.5843C28.4349 53.0314 27.882 53.2041 27.4349 52.9697C26.9878 52.7352 26.8159 52.1822 27.0503 51.7351C27.4943 50.8881 28.2853 50.1458 29.2246 49.5489C30.1751 48.9448 31.3353 48.4516 32.5989 48.1316C35.1176 47.494 38.1537 47.5188 40.8569 48.8563C41.3093 49.0802 41.4951 49.6288 41.2714 50.0813C41.0475 50.5338 40.4988 50.7196 40.0463 50.4959C37.8205 49.3945 35.2485 49.347 33.0477 49.9042C31.9517 50.1817 30.9744 50.603 30.2051 51.0919C29.4246 51.5879 28.9137 52.1179 28.6693 52.5843Z" fill="#222222"/>
</g>
<defs>
<clipPath id="clip0_792_4755">
<rect width="21.3908" height="19.2518" fill="white" transform="translate(21.0283 34.7429)"/>
</clipPath>
</defs>
</svg>
