<svg width="64" height="64" viewBox="0 0 64 64" fill="none" xmlns="http://www.w3.org/2000/svg">
<g clip-path="url(#clip0_792_4817)">
<path d="M29.6978 14.569C28.9385 11.8539 28.8318 7.13529 28.8734 5.11536C29.883 4.30457 31.6739 3.11738 30.7601 4.85487C29.8464 6.59237 30.9291 11.8812 31.5846 14.3085L29.6978 14.569Z" fill="#246B31"/>
<path d="M25.6353 6.42506C27.5075 7.92377 28.8832 7.40739 29.496 6.50628C30.1089 5.60517 30.1581 4.0267 28.2861 2.5281C26.9052 1.42248 24.555 1.17865 23.6483 1.31207C23.3391 1.35751 23.1456 1.64222 23.1966 1.97593C23.3465 2.95514 24.2543 5.31958 25.6353 6.4252L25.6353 6.42506Z" fill="#6BBF59"/>
<path d="M33.1478 6.18956C31.2366 7.7468 29.7931 7.20834 29.1337 6.2704C28.4744 5.33245 28.3849 3.69042 30.2959 2.13329C31.7057 0.984483 34.1445 0.733069 35.091 0.872711C35.4137 0.920271 35.6218 1.21662 35.5769 1.5637C35.4447 2.58217 34.5576 5.0409 33.1479 6.1897L33.1478 6.18956Z" fill="#6BBF59"/>
<path d="M20.8279 18.7823C23.5065 15.8678 24.3782 13.7735 25.1807 11.9055C25.5974 10.9356 25.9698 9.38088 26.4014 9.22669C26.8898 9.05221 27.9512 10.2165 29.2773 11.2216C29.6819 11.5283 30.2474 11.4315 30.576 11.0446C31.7251 9.69164 32.6185 8.90763 33.2745 8.60011C33.5398 8.47573 33.7881 8.70345 33.8059 8.99596C33.8663 9.98865 34.1524 11.3206 34.7241 12.4557C35.1783 13.3573 36.0923 13.8734 37.0339 14.2377C40.4713 15.5674 45.9918 18.6478 50.9866 27.9233C56.762 38.6483 55.1213 48.4662 50.0448 55.6668C44.9683 62.8673 28.8623 67.3772 19.5615 57.6159C10.2607 47.8545 10.3608 30.1708 20.8279 18.7823Z" fill="#FFDAB1"/>
<path d="M45.3506 25.9709C45.6219 25.9295 45.8752 26.1159 45.9166 26.3871L46.0496 27.2601C46.6199 31.0013 44.049 34.4967 40.3079 35.067C37.8319 35.4444 35.4644 34.4458 33.9808 32.6429C33.6736 32.2696 32.9039 32.3869 32.7219 32.8348C31.8429 34.9978 29.881 36.6562 27.4051 37.0336C23.664 37.6038 20.1689 35.0339 19.5984 31.2928L19.4652 30.4188C19.4239 30.1476 19.6102 29.8942 19.8815 29.8529L45.3506 25.9709Z" fill="#222222"/>
<path d="M23.3984 30.0734L27.5928 29.5725L29.9248 34.2572C29.351 35.3892 28.0363 36.2553 26.247 36.1144L23.3984 30.0734Z" fill="white"/>
<path d="M37.1863 28.1466L40.7467 27.606L42.9403 32.058C42.4991 33.1504 41.4137 33.9988 39.8795 33.8899L37.1863 28.1466Z" fill="white"/>
<path d="M24.3854 40.5211C24.6571 40.0955 25.2229 39.9707 25.6484 40.2425C27.5575 41.4618 32.7731 43.3433 38.0077 40.9425C38.4667 40.7321 39.01 40.9329 39.2205 41.3918C39.431 41.8508 39.2293 42.3942 38.7704 42.6047C32.7902 45.3476 26.9039 43.2148 24.6639 41.7841C24.2384 41.5123 24.1136 40.9466 24.3854 40.5211Z" fill="#222222"/>
<path d="M56.3457 9.4983C56.3565 9.48039 56.3641 9.46194 56.3696 9.44383C56.8103 8.25743 56.1182 7.03699 54.9971 6.57445C54.6421 6.42827 54.3177 6.2555 54.0266 6.00092C53.814 5.81601 53.6702 5.59065 53.4812 5.38785C53.1433 5.025 52.6079 5.25801 52.6372 5.75383C52.665 6.24129 52.8021 6.74604 52.8819 7.22593L53.5813 11.4321C52.671 11.144 51.5905 11.4881 50.9257 12.152C50.3466 12.7307 50.0526 13.6799 50.6598 14.3579C51.8996 15.7387 54.9984 14.3714 54.6213 12.4808C54.622 12.4656 54.6216 12.4507 54.619 12.435L54.1042 9.33917C54.082 9.20534 54.0463 9.06731 54.0366 8.93246C53.9988 8.38541 54.5196 7.99368 55.0121 8.3018C55.2721 8.46486 55.416 8.75467 55.4928 9.04381C55.5351 9.20224 55.5253 9.39941 55.6169 9.54105C55.8012 9.82415 56.1599 9.76235 56.3352 9.51832C56.3385 9.5124 56.3417 9.50648 56.346 9.5004L56.3457 9.4983Z" fill="#222222"/>
<path d="M51.3195 8.51391C51.3258 8.50344 51.3302 8.49267 51.3334 8.4821C51.5908 7.78927 51.1866 7.07656 50.5319 6.80645C50.3246 6.72108 50.1352 6.62019 49.9652 6.47152C49.841 6.36354 49.757 6.23193 49.6467 6.1135C49.4494 5.90161 49.1367 6.03768 49.1538 6.32723C49.1701 6.61189 49.2501 6.90665 49.2967 7.1869L49.7051 9.64319C49.1736 9.47496 48.5425 9.67589 48.1543 10.0636C47.8162 10.4015 47.6444 10.9559 47.999 11.3518C48.723 12.1582 50.5327 11.3597 50.3125 10.2556C50.3129 10.2468 50.3126 10.238 50.3111 10.2289L50.0105 8.42098C49.9975 8.34282 49.9766 8.26222 49.971 8.18347C49.9489 7.86401 50.2531 7.63524 50.5407 7.81518C50.6925 7.9104 50.7765 8.07964 50.8214 8.2485C50.8461 8.34101 50.8404 8.45616 50.8939 8.53887C51.0015 8.70419 51.211 8.6681 51.3133 8.52559C51.3152 8.52214 51.3171 8.51868 51.3197 8.51513L51.3195 8.51391Z" fill="#222222"/>
</g>
<defs>
<clipPath id="clip0_792_4817">
<rect width="64" height="64" fill="white"/>
</clipPath>
</defs>
</svg>
