<svg width="80" height="80" viewBox="0 0 80 80" fill="none" xmlns="http://www.w3.org/2000/svg">
<g clip-path="url(#clip0_734_19351)">
<path d="M39.4727 18.4518C38.9719 14.9461 39.6813 9.06165 40.0987 6.55762C41.5594 5.72294 44.1053 4.5544 42.6028 6.55762C41.1004 8.56084 41.5595 15.3217 41.9768 18.4518H39.4727Z" fill="#246B31"/>
<path d="M35.6459 7.63023C37.8147 9.81472 39.6992 9.40888 40.6594 8.39381C41.6197 7.37874 41.9676 5.42486 39.799 3.24051C38.1992 1.629 35.1823 0.922529 33.9773 0.932763C33.5665 0.936193 33.2633 1.25694 33.2697 1.68054C33.2888 2.9236 34.046 6.01887 35.6458 7.63038L35.6459 7.63023Z" fill="#6BBF59"/>
<path d="M45.4727 8.62696C42.7037 10.2349 40.9204 9.31773 40.2303 8.03852C39.5402 6.75931 39.719 4.7026 42.4878 3.09477C44.5304 1.90854 47.7519 2.01456 48.9595 2.3506C49.3712 2.46511 49.589 2.86926 49.4681 3.29304C49.1129 4.53651 47.5154 7.44092 45.4728 8.62715L45.4727 8.62696Z" fill="#6BBF59"/>
<path d="M27.163 22.1674C31.1757 19.0039 32.6875 16.5499 34.0686 14.3654C34.7857 13.2311 35.5502 11.3622 36.14 11.2446C36.8157 11.1098 38.0097 12.7818 39.5846 14.2732C40.0314 14.6962 40.722 14.6737 41.1891 14.2733C42.9742 12.743 44.3059 11.9043 45.227 11.6386C45.583 11.5359 45.8539 11.8666 45.8246 12.236C45.7252 13.4887 45.8614 15.2056 46.4106 16.7198C46.8392 17.9013 47.8967 18.6733 49.0092 19.2582C53.2433 21.484 59.9308 26.2433 64.7979 38.7076C70.3913 53.0321 66.4892 64.956 58.583 73.0364C50.6768 81.1169 28.8895 83.9592 18.5314 70.2277C8.17318 56.4962 11.4831 34.529 27.163 22.1674Z" fill="#FFDAB1"/>
<g clip-path="url(#clip1_734_19351)">
<ellipse cx="49.3524" cy="43.1689" rx="3.11703" ry="4.36384" fill="#222222"/>
<path d="M48.0932 52.65C48.6315 52.3205 49.3346 52.4898 49.6642 53.028C49.9938 53.5661 49.8254 54.2695 49.2874 54.5993C46.9187 56.0502 43.1744 56.7534 39.5285 56.2672C35.8555 55.7772 32.0711 54.0482 29.832 50.3853C29.503 49.8468 29.6729 49.1427 30.2113 48.8135C30.7498 48.4843 31.4539 48.6543 31.7831 49.1928C33.5594 52.0987 36.6169 53.5731 39.8313 54.0018C43.0727 54.4341 46.2626 53.7714 48.0932 52.65Z" fill="#222222"/>
<path d="M28.302 41.2134C30.2759 40.3051 34.9251 39.7337 38.1701 44.2725C38.5372 44.786 38.4186 45.5 37.9051 45.8671C37.3917 46.2341 36.6776 46.1155 36.3105 45.6021C33.8927 42.2203 30.5646 42.6882 29.2577 43.2895C28.6843 43.5534 28.0054 43.302 27.7416 42.7286C27.4781 42.1554 27.729 41.4773 28.302 41.2134Z" fill="#222222"/>
</g>
<path d="M21.7256 43.7565C21.5497 43.7773 21.3719 43.7906 21.1942 43.7925C21.2381 42.5021 20.4545 41.0414 19.5905 40.0935C19.1165 39.5731 18.5851 39.1172 17.9066 38.8655C17.8397 38.8409 17.7747 38.8125 17.7097 38.7823C17.6485 38.752 17.5549 38.7331 17.5587 38.6517C17.5625 38.5722 17.6543 38.5571 17.7212 38.5363C18.6692 38.2354 19.4433 37.6205 19.9996 36.8088C20.6093 35.9177 20.8826 34.9811 21.133 33.9556C21.4522 33.9253 21.8804 33.7285 22.19 33.8666C22.4347 33.9764 22.3429 34.2451 22.3448 34.5005C22.3487 34.9716 22.385 35.439 22.4978 35.8968C22.6354 36.4455 22.9737 36.8713 23.4133 37.2062C24.0135 37.664 24.5697 38.1787 25.2215 38.5722C25.4967 38.7387 25.793 38.8371 26.0874 38.9507C26.1676 38.9809 26.269 39.0112 26.2842 39.102C26.3034 39.2118 26.1829 39.2288 26.1141 39.2685C25.3113 39.7226 24.5544 40.2562 23.9638 40.9487C23.6083 41.3668 23.2375 41.7774 22.9374 42.2372C22.8475 42.3734 22.3697 43.6354 22.3124 43.6487C22.1193 43.6941 21.9224 43.73 21.7256 43.7546V43.7565Z" fill="#FFB431"/>
</g>
<defs>
<clipPath id="clip0_734_19351">
<rect width="80" height="80" fill="white"/>
</clipPath>
<clipPath id="clip1_734_19351">
<rect width="24.9362" height="22.4426" fill="white" transform="translate(27.5332 35.0647)"/>
</clipPath>
</defs>
</svg>
