<svg width="80" height="80" viewBox="0 0 80 80" fill="none" xmlns="http://www.w3.org/2000/svg">
<g clip-path="url(#clip0_734_19349)">
<path d="M37.3081 22.0563C36.1943 18.0651 36.1233 11.1299 36.2269 8.16116C37.7949 6.97075 40.5711 5.22808 39.1324 7.78061C37.6936 10.3331 39.2537 18.1076 40.2136 21.6758L37.3081 22.0563Z" fill="#246B31"/>
<path d="M31.2237 10.0825C34.072 12.2874 36.1969 11.5302 37.1567 10.2065C38.1165 8.88288 38.2232 6.56304 35.3752 4.35823C33.2742 2.7316 29.6665 2.37039 28.27 2.56538C27.7939 2.63179 27.4908 3.05 27.5626 3.54051C27.7737 4.97986 29.1226 8.45604 31.2236 10.0827L31.2237 10.0825Z" fill="#6BBF59"/>
<path d="M42.7764 9.74532C39.8079 12.0317 37.5995 11.2386 36.6045 9.85926C35.6094 8.47994 35.5043 6.06651 38.4725 3.78026C40.6621 2.09355 44.4159 1.727 45.8681 1.93339C46.3632 2.00368 46.6773 2.43948 46.6014 2.94954C46.3782 4.44625 44.9662 8.05882 42.7765 9.74553L42.7764 9.74532Z" fill="#6BBF59"/>
<path d="M24.4327 25.7112C28.3433 22.2123 29.6632 19.7226 30.8759 17.5013C31.5055 16.3479 32.0967 14.506 32.7137 14.3142C33.4359 14.0896 34.9664 15.5396 36.8908 16.7176C37.3701 17.011 37.9814 16.91 38.3835 16.5175C40.1654 14.7785 41.5261 13.7814 42.4994 13.4015C42.8603 13.2607 43.1846 13.572 43.2041 13.9589C43.2625 15.1185 43.6141 16.6387 44.3582 17.931C44.9761 19.0042 46.1519 19.5512 47.3372 19.9098C52.1298 21.36 59.9435 24.805 66.7274 35.7874C74.456 48.2991 71.7288 59.9138 64.2485 68.5224C56.7681 77.131 33.7929 82.8238 21.0363 71.5305C8.27969 60.2372 9.152 39.3834 24.4327 25.7112Z" fill="#FFDAB1"/>
<g clip-path="url(#clip1_734_19349)">
<ellipse cx="40.1582" cy="54.4152" rx="12.507" ry="6.94831" transform="rotate(-9.88965 40.1582 54.4152)" fill="#E7CAAA"/>
<path d="M46.412 59.6995C47.5412 59.6994 48.7839 59.8821 49.7021 60.3412C50.2667 60.6235 50.4956 61.3102 50.2133 61.8747C49.9309 62.4391 49.2443 62.6682 48.6798 62.3858C48.2084 62.1502 47.3669 61.9852 46.412 61.9852C45.457 61.9852 44.6155 62.1502 44.1441 62.3858C42.7394 63.0882 40.9689 63.9963 38.4075 63.1425C37.2578 62.7594 36.349 63.315 36.1028 63.5611C35.6565 64.0074 34.9331 64.0074 34.4867 63.5611C34.0406 63.1148 34.0405 62.3913 34.4867 61.945C35.1672 61.2646 36.9455 60.2456 39.1307 60.974C40.7384 61.5098 41.7473 61.0285 43.1218 60.3412C44.04 59.8822 45.2826 59.6995 46.412 59.6995Z" fill="#222222"/>
<path d="M33.905 51.6356C34.5998 52.3304 34.5999 58.5841 31.8205 58.5843C29.7395 58.5843 28.3078 56.9614 27.7531 55.9939C27.6902 55.8842 27.7174 55.7472 27.8129 55.6643C29.7187 54.0114 33.3648 51.0954 33.905 51.6356Z" fill="#575454"/>
<path d="M43.6327 55.1102C42.5209 53.9985 43.1694 50.9412 43.6327 49.5515L49.8864 50.246C49.8864 51.1724 50.5812 52.3302 49.8864 53.7202C49.1915 55.1102 45.0225 56.4997 43.6327 55.1102Z" fill="#575454"/>
<path d="M32.9655 50.6559C33.5055 50.3293 34.2083 50.502 34.535 51.0419C34.8618 51.5818 34.6888 52.2845 34.149 52.6114L28.2043 56.2092C27.6643 56.536 26.9616 56.3632 26.6348 55.8232C26.308 55.2832 26.4808 54.5805 27.0208 54.2537L32.9655 50.6559Z" fill="#222222"/>
<path d="M43.5397 48.3203L43.4237 48.3132C42.8443 48.3081 42.3435 48.7431 42.2788 49.3314C42.2141 49.9198 42.6084 50.4531 43.1751 50.5741L43.2899 50.5924L50.1969 51.3519C50.8243 51.4209 51.3888 50.9682 51.4578 50.3408C51.5268 49.7134 51.0742 49.1489 50.4468 49.0799L43.5397 48.3203Z" fill="#222222"/>
</g>
<path d="M69.1075 12.4963C69.1818 12.1583 69.0359 11.4881 68.0387 10.639C67.0908 9.83207 65.604 9.09297 63.7969 8.6939C61.9901 8.29497 60.3311 8.33932 59.1317 8.67198C57.8696 9.02213 57.455 9.56855 57.3801 9.90644C57.3055 10.2443 57.4508 10.9155 58.4486 11.765C59.3964 12.5719 60.8824 13.3107 62.6892 13.7098C64.4962 14.1089 66.1561 14.0647 67.3556 13.732C68.6184 13.3817 69.0328 12.8342 69.1075 12.4963ZM71.6814 13.0648C71.2932 14.8225 69.6882 15.8204 68.0601 16.2721C66.3683 16.7413 64.2628 16.7569 62.1207 16.2838C59.9789 15.8107 58.0767 14.91 56.74 13.7721C55.4535 12.6768 54.418 11.0958 54.8062 9.33801C55.1945 7.58059 56.7993 6.58358 58.4272 6.13195C60.1188 5.66279 62.2234 5.64702 64.3653 6.11995C66.5074 6.59301 68.4105 7.49386 69.7473 8.6319C71.0337 9.72711 72.0693 11.3072 71.6814 13.0648Z" fill="#AFAFAF"/>
</g>
<defs>
<clipPath id="clip0_734_19349">
<rect width="80" height="80" fill="white"/>
</clipPath>
<clipPath id="clip1_734_19349">
<rect width="31.8601" height="28.6741" fill="white" transform="translate(24.4941 42.1238) rotate(-7.46197)"/>
</clipPath>
</defs>
</svg>
