<svg width="80" height="80" viewBox="0 0 80 80" fill="none" xmlns="http://www.w3.org/2000/svg">
<g clip-path="url(#clip0_734_19344)">
<path d="M39.2288 18.0856C38.7329 14.6124 39.4364 8.78259 39.8501 6.30183C41.2973 5.47503 43.8197 4.31756 42.331 6.30206C40.8424 8.28656 41.2965 14.9848 41.7097 18.0858L39.2288 18.0856Z" fill="#246B31"/>
<path d="M35.4388 7.36405C37.5872 9.52848 39.4544 9.12657 40.4058 8.12101C41.3571 7.11544 41.702 5.17971 39.5537 3.01543C37.969 1.41872 34.9801 0.718522 33.7863 0.728551C33.3793 0.731911 33.0789 1.04965 33.0852 1.46933C33.104 2.70086 33.8539 5.76749 35.4387 7.3642L35.4388 7.36405Z" fill="#6BBF59"/>
<path d="M45.1742 8.35237C42.4307 9.94515 40.664 9.03632 39.9805 7.76891C39.2969 6.5015 39.4742 4.46389 42.2175 2.87123C44.2413 1.69619 47.4329 1.80152 48.6292 2.13456C49.0371 2.24805 49.2529 2.64846 49.133 3.0683C48.781 4.3002 47.1981 7.17753 45.1743 8.35256L45.1742 8.35237Z" fill="#6BBF59"/>
<path d="M27.0331 21.7654C31.0089 18.6316 32.5069 16.2005 33.8754 14.0364C34.586 12.9127 35.3435 11.0612 35.9279 10.9447C36.5973 10.8113 37.7801 12.4678 39.3403 13.9455C39.7828 14.3647 40.4671 14.3424 40.9299 13.9457C42.6985 12.4298 44.0179 11.599 44.9305 11.3359C45.2833 11.2342 45.5516 11.5618 45.5225 11.9278C45.4239 13.1689 45.5587 14.8698 46.1027 16.37C46.5272 17.5407 47.5748 18.3056 48.6769 18.8851C52.8715 21.0907 59.4966 25.8065 64.3174 38.1556C69.8576 52.3478 65.9906 64.1607 58.157 72.1654C50.3233 80.1702 28.7379 82.9842 18.4771 69.3791C8.21627 55.774 11.4975 34.0109 27.0331 21.7654Z" fill="#FFDAB1"/>
<ellipse cx="31.7211" cy="41.3378" rx="3.08812" ry="4.32336" fill="#222222"/>
<ellipse cx="47.7792" cy="41.3393" rx="3.08812" ry="4.32336" fill="#222222"/>
<ellipse cx="50.249" cy="50.604" rx="4.32336" ry="2.47049" fill="#F5B5D0"/>
<ellipse cx="29.2498" cy="50.602" rx="4.32336" ry="2.47049" fill="#F5B5D0"/>
<path d="M46.2711 51.1225C46.6667 50.6311 47.3855 50.5531 47.8771 50.9485C48.3688 51.3442 48.4467 52.0639 48.0511 52.5557C47.3458 53.4321 46.2682 54.1036 45.062 54.5732C43.8404 55.0488 42.406 55.3496 40.8945 55.43C37.8826 55.5901 34.4264 54.8802 31.6426 52.745C31.1419 52.3609 31.0468 51.6431 31.4306 51.1423C31.8147 50.6416 32.5326 50.5465 33.0333 50.9304C35.289 52.6606 38.1705 53.286 40.7731 53.1476C42.0688 53.0787 43.2615 52.822 44.233 52.4437C45.2199 52.0594 45.9027 51.5803 46.2711 51.1225Z" fill="#222222"/>
<path d="M63.3104 10.7046C64.6305 9.7724 63.9365 10.2215 64.7578 9.76194C65.0943 9.57424 66.564 9.17194 66.6001 9.21307C66.8155 9.46569 67.098 9.15663 67.5526 9.66525C70.2462 12.6793 65.1825 15.3017 61.9732 17.4067C61.6336 17.6305 61.935 17.6896 61.4594 17.7706C61.0671 17.8381 61.0737 17.3604 60.7849 17.3237C60.6995 17.3122 60.5875 17.1513 60.7562 17.0515C60.4334 16.5456 60.4623 16.4474 60.0844 16.2501C59.8531 16.1304 59.6274 14.192 59.4174 14.0108C59.1459 13.7788 59.1837 13.4422 59.1217 13.1294C58.6653 10.8173 58.0005 10.5745 59.2929 8.00653C59.3147 7.96358 59.9473 7.63037 60.3447 7.72616C60.9337 7.86915 60.956 7.47577 61.4184 7.74417C61.4582 7.76768 62.3861 8.22705 62.3708 8.5591C62.3695 8.60016 62.3968 8.65629 62.4273 8.6825C62.7935 8.99225 62.9092 9.46308 63.3107 10.7031L63.3104 10.7046ZM61.7768 16.3927C61.4831 15.9203 61.5718 15.8667 61.3976 15.8813C61.2832 16.1362 61.4143 16.3164 61.53 16.5086C61.6177 16.467 61.6878 16.434 61.7771 16.3912L61.7768 16.3927ZM63.646 12.4238C64.0432 12.2976 64.3073 12.0981 64.453 11.8312C64.1775 12.0024 63.8848 12.1104 63.646 12.4238ZM63.3403 14.3582C63.3526 14.3822 63.366 14.4079 63.3783 14.4319C63.5542 14.3651 63.6714 14.2755 63.7301 14.1631C63.6147 14.2205 63.4767 14.2899 63.3403 14.3582ZM61.9006 13.8621C61.937 13.9507 61.9723 14.0376 62.0355 14.1915C62.12 13.9564 62.0039 13.9125 61.9006 13.8621ZM61.7653 13.5281C61.7904 13.5179 61.8152 13.5093 61.8403 13.4992C61.8183 13.4318 61.7962 13.3645 61.7744 13.2958C61.7541 13.3038 61.7337 13.3118 61.7134 13.3199L61.7653 13.5281Z" fill="#FF9CC6"/>
<path d="M68.518 4.1663C69.178 3.70023 68.8311 3.92479 69.2417 3.695C69.41 3.60115 70.1448 3.4 70.1629 3.42056C70.2706 3.54687 70.4118 3.39234 70.6391 3.64665C71.9859 5.1537 69.454 6.46486 67.8494 7.51738C67.6796 7.62928 67.8303 7.65885 67.5925 7.69931C67.3964 7.73307 67.3996 7.4942 67.2552 7.47589C67.2126 7.47014 67.1565 7.38969 67.2409 7.33976C67.0795 7.08681 67.0939 7.03775 66.905 6.93906C66.7893 6.87922 66.6765 5.91 66.5715 5.81945C66.4358 5.70343 66.4547 5.53514 66.4236 5.37873C66.1954 4.2227 65.863 4.10129 66.5092 2.81729C66.5201 2.79582 66.8365 2.62921 67.0352 2.6771C67.3297 2.7486 67.3408 2.55191 67.572 2.68611C67.5919 2.69787 68.0558 2.92755 68.0482 3.09357C68.0475 3.11411 68.0612 3.14217 68.0765 3.15527C68.2595 3.31015 68.3174 3.54557 68.5181 4.16557L68.518 4.1663ZM67.7512 7.01038C67.6043 6.7742 67.6487 6.74739 67.5616 6.75467C67.5044 6.88214 67.5699 6.9722 67.6278 7.06833C67.6716 7.04753 67.7067 7.03104 67.7514 7.00965L67.7512 7.01038ZM68.6858 5.02595C68.8844 4.96285 69.0165 4.86306 69.0893 4.72963C68.9515 4.81522 68.8052 4.8692 68.6858 5.02595ZM68.5329 5.99313C68.5391 6.00512 68.5458 6.01798 68.552 6.02996C68.6399 5.99658 68.6985 5.95179 68.7278 5.8956C68.6701 5.92425 68.6011 5.95899 68.5329 5.99313ZM67.8131 5.74508C67.8313 5.7894 67.8489 5.83284 67.8805 5.90977C67.9228 5.79221 67.8647 5.77028 67.8131 5.74508ZM67.7455 5.57806C67.758 5.573 67.7704 5.56867 67.783 5.5636C67.7719 5.52995 67.7609 5.49629 67.75 5.4619C67.7398 5.46593 67.7296 5.46995 67.7195 5.47397L67.7455 5.57806Z" fill="#FF9CC6"/>
</g>
<defs>
<clipPath id="clip0_734_19344">
<rect width="80" height="80" fill="white"/>
</clipPath>
</defs>
</svg>
