<svg width="64" height="64" viewBox="0 0 64 64" fill="none" xmlns="http://www.w3.org/2000/svg">
<g clip-path="url(#clip0_792_4769)">
<path d="M31.5869 15.1565C31.1958 12.4186 31.7499 7.82272 32.0758 5.86704C33.2167 5.21515 35.205 4.3025 34.0316 5.86704C32.8582 7.43158 33.2168 12.7119 33.5427 15.1565H31.5869Z" fill="#246B31"/>
<path d="M28.5985 6.70431C30.2924 8.41043 31.7642 8.09346 32.5142 7.30068C33.2641 6.5079 33.5358 4.98189 31.8421 3.27589C30.5927 2.01727 28.2364 1.46551 27.2953 1.4735C26.9745 1.47618 26.7377 1.72669 26.7427 2.05753C26.7576 3.02838 27.349 5.44582 28.5984 6.70443L28.5985 6.70431Z" fill="#6BBF59"/>
<path d="M36.2732 7.48275C34.1105 8.73857 32.7177 8.02225 32.1788 7.02317C31.6398 6.02409 31.7794 4.41778 33.942 3.16204C35.5373 2.23557 38.0533 2.31837 38.9964 2.58083C39.318 2.67026 39.4881 2.98591 39.3936 3.31688C39.1162 4.28805 37.8686 6.55643 36.2733 7.48289L36.2732 7.48275Z" fill="#6BBF59"/>
<path d="M20.6058 18.1662C24.1671 15.6955 25.5089 13.7789 26.7346 12.0728C27.3711 11.1869 28.0496 9.72722 28.573 9.63536C29.1909 9.52694 30.2971 10.9164 31.7582 12.1062C32.0955 12.3809 32.5762 12.3648 32.9221 12.101C34.6076 10.8157 35.849 10.1277 36.6903 9.93027C36.9781 9.8627 37.1925 10.1314 37.1667 10.4259C37.0792 11.4269 37.2097 12.8011 37.7246 13.9978C38.1008 14.8719 38.9332 15.4115 39.7998 15.8048C43.5446 17.5045 49.6123 21.1796 54.0073 31.0844C58.9716 42.272 55.5084 51.5847 48.4915 57.8956C41.4746 64.2065 22.1381 66.4265 12.9451 55.702C3.75202 44.9775 6.68964 27.8208 20.6058 18.1662Z" fill="url(#paint0_linear_792_4769)"/>
<g clip-path="url(#clip1_792_4769)">
<path d="M30.4899 41.2268C32.8714 41.4138 35.7635 42.3256 38.2905 43.9603C38.7145 44.2345 38.8357 44.801 38.5614 45.225C38.2871 45.6486 37.7214 45.77 37.2976 45.496C35.0208 44.0231 32.4198 43.2127 30.3467 43.0499C29.3058 42.9682 28.4572 43.0542 27.8695 43.2549C27.2785 43.4567 27.0908 43.7163 27.039 43.9061C26.9058 44.3931 26.4032 44.6799 25.9162 44.5468C25.4292 44.4137 25.1424 43.9111 25.2755 43.424C25.5489 42.4236 26.3779 41.8319 27.279 41.5243C28.1835 41.2155 29.3034 41.1336 30.4899 41.2268Z" fill="#222222"/>
<ellipse cx="25.7463" cy="35.7357" rx="2.43444" ry="1.94755" transform="rotate(22.6829 25.7463 35.7357)" fill="#222222"/>
<path d="M21.4339 31.1527C21.6474 30.6951 22.1915 30.4972 22.649 30.7107L29.9526 34.1187C30.41 34.3323 30.6079 34.8764 30.3946 35.3339C30.1811 35.7914 29.6369 35.9893 29.1794 35.7759L21.8758 32.3679C21.4183 32.1543 21.2204 31.6102 21.4339 31.1527Z" fill="#222222"/>
<path d="M43.0532 31.1527C42.8397 30.6951 42.2956 30.4972 41.838 30.7107L34.5345 34.1187C34.077 34.3323 33.8792 34.8764 34.0925 35.3339C34.306 35.7914 34.8501 35.9893 35.3077 35.7759L42.6112 32.3679C43.0688 32.1543 43.2667 31.6102 43.0532 31.1527Z" fill="#222222"/>
<ellipse cx="2.43444" cy="1.94755" rx="2.43444" ry="1.94755" transform="matrix(-0.922653 0.385631 0.385631 0.922653 40.2356 33)" fill="#222222"/>
</g>
<path d="M43.3193 25.9685C43.6316 25.9685 43.8856 26.2214 43.8856 26.5338C43.8856 26.8461 43.6316 27.099 43.3193 27.099C43.31 27.1154 43.2938 27.1488 43.2799 27.209C43.2344 27.4049 43.2501 27.6814 43.2902 27.8821C43.3514 28.1884 43.1526 28.4857 42.8463 28.547C42.5403 28.608 42.2429 28.4101 42.1815 28.1041C42.1244 27.8185 42.0817 27.3648 42.1773 26.9528C42.2258 26.7441 42.3205 26.4998 42.5113 26.3014C42.7177 26.0871 42.9975 25.9686 43.3193 25.9685Z" fill="#222222"/>
<path d="M40.7119 23.9071C40.7119 23.5947 40.9648 23.3418 41.2772 23.3418C41.5896 23.3418 41.8424 23.5947 41.8424 23.9071C41.8424 24.1317 41.9036 24.43 42.0364 24.6248C42.0965 24.7129 42.1623 24.7667 42.2345 24.797C42.3054 24.8267 42.4254 24.8515 42.6255 24.8115C42.9318 24.7503 43.2291 24.9492 43.2904 25.2554C43.3515 25.5616 43.1535 25.8588 42.8475 25.9202C42.464 25.9969 42.109 25.9712 41.7968 25.8404C41.4864 25.7102 41.2605 25.4943 41.1019 25.2616C40.797 24.8145 40.7119 24.266 40.7119 23.9071Z" fill="#222222"/>
<path d="M39.465 24.0491C39.7088 23.8543 40.0644 23.8937 40.2595 24.1372C40.4919 24.4278 40.7862 24.9314 40.8206 25.4845C40.8386 25.775 40.7851 26.0952 40.5955 26.391C40.4062 26.6863 40.1124 26.9087 39.7367 27.059C39.4467 27.175 39.1174 27.0336 39.0014 26.7437C38.8854 26.4538 39.0258 26.1245 39.3156 26.0083C39.5234 25.9252 39.6068 25.8355 39.6423 25.7801C39.6775 25.7253 39.6973 25.6557 39.6911 25.5551C39.6768 25.3253 39.5333 25.0404 39.3768 24.8446C39.1817 24.6007 39.2211 24.2442 39.465 24.0491Z" fill="#222222"/>
<path d="M40.7885 26.9509C41.3807 27.0534 41.892 27.4919 42.2576 28.2773C42.3894 28.5604 42.267 28.8964 41.9838 29.0283C41.7007 29.1601 41.3647 29.0376 41.2328 28.7545C40.968 28.1856 40.7097 28.0853 40.5958 28.0654C40.4493 28.0401 40.2889 28.1028 40.1888 28.1851C39.9475 28.3835 39.5915 28.3488 39.3931 28.1075C39.1948 27.8663 39.2295 27.5103 39.4707 27.3119C39.7462 27.0853 40.229 26.8542 40.7885 26.9509Z" fill="#222222"/>
</g>
<defs>
<linearGradient id="paint0_linear_792_4769" x1="31.9999" y1="9.62939" x2="31.9999" y2="63.1871" gradientUnits="userSpaceOnUse">
<stop offset="0.33925" stop-color="#FFAC79"/>
<stop offset="0.628738" stop-color="#FFCFA3"/>
<stop offset="1" stop-color="#FFDAB1"/>
</linearGradient>
<clipPath id="clip0_792_4769">
<rect width="64" height="64" fill="white"/>
</clipPath>
<clipPath id="clip1_792_4769">
<rect width="29.2133" height="17.528" fill="white" transform="translate(17.3936 28.1313)"/>
</clipPath>
</defs>
</svg>
