<svg width="50" height="50" viewBox="0 0 50 50" fill="none" xmlns="http://www.w3.org/2000/svg">
<g clip-path="url(#clip0_1019_24639)">
<path d="M34.4046 10.0907L33.1621 9.37332L33.9963 7.92842C33.9133 7.64831 33.8276 7.3729 33.7243 7.10618L32.3359 6.30458L32.863 5.39152C32.7519 5.21441 32.6354 5.04672 32.5114 4.88102L31.8511 6.0247L30.3921 5.18233L31.2345 3.72332L31.7992 4.0494C31.3174 3.55787 30.7686 3.12805 30.1615 2.77752C29.5543 2.42699 28.9077 2.16661 28.2411 1.99512L28.8059 2.3212L27.9635 3.78021L26.5045 2.93785L27.1648 1.79417C26.9593 1.76966 26.7531 1.75729 26.5469 1.74491L26.0198 2.65797L24.6313 1.85637C24.3487 1.90027 24.0673 1.96373 23.7832 2.0319L22.949 3.47679L21.7065 2.75943C21.2533 2.9684 20.8033 3.20434 20.3538 3.47198L19.8756 4.30032L19.4567 4.05848C19.289 4.17502 19.126 4.29428 18.965 4.42097L19.5957 4.78509L18.7533 6.2441L17.6191 5.58923C17.4796 5.72208 17.3422 5.86235 17.2121 6.00063L18.4735 6.72887L17.6311 8.18788L16.0874 7.29661C15.9714 7.44304 15.8575 7.5969 15.7463 7.74605L17.3559 8.67537L16.5136 10.1344L14.8145 9.15344C14.7683 9.23344 14.7221 9.31346 14.6732 9.39817C14.6243 9.48289 14.5808 9.55819 14.5319 9.64291L16.231 10.6239L15.3886 12.0829L13.779 11.1536C13.7027 11.3291 13.6291 11.5 13.5603 11.6736L15.104 12.5649L14.2617 14.0239L13.0003 13.2957C12.9476 13.4849 12.8975 13.6694 12.8475 13.8538L13.9818 14.5087L13.1394 15.9677L12.5087 15.6036C12.4795 15.8064 12.4577 16.0071 12.4407 16.2106L12.8595 16.4525L12.3813 17.2808C12.3722 17.7965 12.3902 18.3088 12.4405 18.8086L13.6831 19.5259L12.8488 20.9708C12.9319 21.2509 13.0176 21.5263 13.1209 21.7931L14.5093 22.5947L13.9821 23.5077C14.0933 23.6848 14.2098 23.8525 14.3338 24.0182L14.9941 22.8745L16.4531 23.7169L15.5374 25.303C15.6811 25.4236 15.8322 25.5423 15.9814 25.6535L16.9379 23.9968L18.3969 24.8392L17.4404 26.4958C17.616 26.5721 17.7896 26.641 17.9659 26.7051L18.8816 25.119L20.3406 25.9614L19.6803 27.1051C19.8858 27.1296 20.092 27.142 20.2983 27.1543L20.8254 26.2413L22.2138 27.0429C22.4965 26.999 22.7778 26.9355 23.0619 26.8673L23.8961 25.4225L25.1387 26.1398C25.5919 25.9308 26.0419 25.6949 26.4913 25.4273L26.9696 24.5989L27.3885 24.8408C27.5562 24.7242 27.7191 24.605 27.8801 24.4783L27.2495 24.1142L28.0918 22.6551L29.2261 23.31C29.3655 23.1772 29.503 23.0369 29.6331 22.8986L28.3717 22.1704L29.2141 20.7114L30.7578 21.6026C30.8737 21.4562 30.9877 21.3023 31.0989 21.1532L29.4892 20.2239L30.3316 18.7649L32.0307 19.7458C32.0768 19.6658 32.123 19.5858 32.172 19.5011C32.2209 19.4164 32.2643 19.341 32.3133 19.2563L30.6142 18.2754L31.4566 16.8164L33.0662 17.7457C33.1425 17.5701 33.216 17.3992 33.2849 17.2256L31.7412 16.3343L32.5835 14.8753L33.8449 15.6035C33.8976 15.4144 33.9476 15.2299 33.9977 15.0454L32.8634 14.3905L33.7058 12.9315L34.3364 13.2956C34.3656 13.0929 34.3874 12.8921 34.4045 12.6886L33.9856 12.4468L34.4639 11.6184C34.4729 11.1028 34.455 10.5904 34.4046 10.0907ZM13.9657 19.0365L12.5066 18.1941L13.349 16.7351L14.808 17.5774L13.9657 19.0365ZM15.0879 17.0927L13.6289 16.2503L14.4712 14.7913L15.9303 15.6337L15.0879 17.0927ZM16.2101 15.1489L14.7511 14.3065L15.5935 12.8475L17.0525 13.6899L16.2101 15.1489ZM17.3351 13.2004L15.8761 12.358L16.7184 10.899L18.1775 11.7414L17.3351 13.2004ZM18.4573 11.2566L16.9983 10.4143L17.8407 8.95525L19.2997 9.79761L18.4573 11.2566ZM19.5796 9.31284L18.1206 8.47048L18.9629 7.01147L20.4219 7.85383L19.5796 9.31284ZM20.7045 7.36435L19.2455 6.52199L20.0879 5.06298L21.5469 5.90534L20.7045 7.36435ZM21.8268 5.42057L20.3678 4.57821L21.2101 3.1192L22.6691 3.96156L21.8268 5.42057ZM14.7872 22.1025L13.3282 21.2601L14.1705 19.8011L15.6296 20.6435L14.7872 22.1025ZM15.9094 20.1587L14.4504 19.3163L15.2928 17.8573L16.7518 18.6997L15.9094 20.1587ZM17.0317 18.2149L15.5727 17.3726L16.415 15.9135L17.874 16.7559L17.0317 18.2149ZM18.1539 16.2711L16.6949 15.4288L17.5373 13.9698L18.9963 14.8121L18.1539 16.2711ZM19.2789 14.3226L17.8199 13.4803L18.6622 12.0213L20.1212 12.8636L19.2789 14.3226ZM20.4011 12.3789L18.9421 11.5365L19.7845 10.0775L21.2435 10.9199L20.4011 12.3789ZM21.5234 10.4351L20.0644 9.59272L20.9067 8.13371L22.3657 8.97607L21.5234 10.4351ZM22.6483 8.48659L21.1893 7.64423L22.0317 6.18522L23.4907 7.02758L22.6483 8.48659ZM23.7706 6.54281L22.3116 5.70045L23.1539 4.24144L24.6129 5.0838L23.7706 6.54281ZM24.8928 4.59903L23.4338 3.75667L24.2762 2.29766L25.7352 3.14002L24.8928 4.59903ZM16.7357 23.2274L15.2767 22.3851L16.119 20.9261L17.578 21.7684L16.7357 23.2274ZM17.8579 21.2837L16.3989 20.4413L17.2413 18.9823L18.7003 19.8246L17.8579 21.2837ZM18.9802 19.3399L17.5212 18.4975L18.3635 17.0385L19.8225 17.8809L18.9802 19.3399ZM20.1024 17.3961L18.6434 16.5537L19.4858 15.0947L20.9448 15.9371L20.1024 17.3961ZM21.2274 15.4476L19.7684 14.6052L20.6107 13.1462L22.0697 13.9886L21.2274 15.4476ZM22.3496 13.5038L20.8906 12.6615L21.733 11.2024L23.192 12.0448L22.3496 13.5038ZM23.4719 11.56L22.0128 10.7177L22.8552 9.25867L24.3142 10.101L23.4719 11.56ZM24.5968 9.61155L23.1378 8.76919L23.9802 7.31018L25.4392 8.15254L24.5968 9.61155ZM25.7191 7.66777L24.26 6.82541L25.1024 5.3664L26.5614 6.20876L25.7191 7.66777ZM26.8413 5.72399L25.3823 4.88163L26.2246 3.42262L27.6837 4.26498L26.8413 5.72399ZM18.6795 24.3497L17.2204 23.5073L18.0628 22.0483L19.5218 22.8907L18.6795 24.3497ZM19.8017 22.4059L18.3427 21.5635L19.1851 20.1045L20.6441 20.9469L19.8017 22.4059ZM20.9239 20.4621L19.4649 19.6198L20.3073 18.1607L21.7663 19.0031L20.9239 20.4621ZM22.0462 18.5183L20.5872 17.676L21.4295 16.217L22.8886 17.0593L22.0462 18.5183ZM23.1711 16.5698L21.7121 15.7275L22.5545 14.2685L24.0135 15.1108L23.1711 16.5698ZM24.2934 14.6261L22.8344 13.7837L23.6767 12.3247L25.1358 13.1671L24.2934 14.6261ZM25.4156 12.6823L23.9566 11.8399L24.799 10.3809L26.258 11.2233L25.4156 12.6823ZM26.5406 10.7338L25.0816 9.89143L25.9239 8.43242L27.383 9.27478L26.5406 10.7338ZM27.6628 8.79002L26.2038 7.94765L27.0462 6.48864L28.5052 7.331L27.6628 8.79002ZM28.7851 6.84623L27.3261 6.00387L28.1684 4.54486L29.6274 5.38722L28.7851 6.84623ZM29.9073 4.90245L28.4483 4.06009L29.2907 2.60108L30.7497 3.44344L29.9073 4.90245ZM20.6232 25.4719L19.1642 24.6296L20.0066 23.1705L21.4656 24.0129L20.6232 25.4719ZM21.7455 23.5281L20.2865 22.6858L21.1288 21.2268L22.5878 22.0691L21.7455 23.5281ZM22.8677 21.5844L21.4087 20.742L22.2511 19.283L23.7101 20.1253L22.8677 21.5844ZM23.99 19.6406L22.531 18.7982L23.3733 17.3392L24.8323 18.1816L23.99 19.6406ZM25.1149 17.6921L23.6559 16.8497L24.4983 15.3907L25.9573 16.2331L25.1149 17.6921ZM26.2372 15.7483L24.7782 14.9059L25.6205 13.4469L27.0795 14.2893L26.2372 15.7483ZM27.3594 13.8045L25.9004 12.9622L26.7428 11.5032L28.2018 12.3455L27.3594 13.8045ZM28.4844 11.856L27.0254 11.0137L27.8677 9.55466L29.3267 10.397L28.4844 11.856ZM29.6066 9.91226L28.1476 9.0699L28.99 7.61088L30.449 8.45324L29.6066 9.91226ZM30.7289 7.96848L29.2698 7.12612L30.1122 5.6671L31.5712 6.50946L30.7289 7.96848ZM22.567 26.5942L21.108 25.7518L21.9504 24.2928L23.4094 25.1351L22.567 26.5942ZM23.6893 24.6504L22.2303 23.808L23.0726 22.349L24.5316 23.1914L23.6893 24.6504ZM24.8115 22.7066L23.3525 21.8642L24.1949 20.4052L25.6539 21.2476L24.8115 22.7066ZM25.9337 20.7628L24.4747 19.9205L25.3171 18.4614L26.7761 19.3038L25.9337 20.7628ZM27.0587 18.8143L25.5997 17.972L26.4421 16.513L27.9011 17.3553L27.0587 18.8143ZM28.181 16.8705L26.7219 16.0282L27.5643 14.5692L29.0233 15.4115L28.181 16.8705ZM29.3032 14.9268L27.8442 14.0844L28.6865 12.6254L30.1456 13.4678L29.3032 14.9268ZM30.4282 12.9783L28.9691 12.1359L29.8115 10.6769L31.2705 11.5193L30.4282 12.9783ZM31.5504 11.0345L30.0914 10.1921L30.9337 8.73313L32.3928 9.57549L31.5504 11.0345ZM32.6726 9.09072L31.2136 8.24836L32.056 6.78935L33.515 7.63171L32.6726 9.09072ZM25.6378 25.7753L24.1787 24.933L25.0211 23.474L26.4801 24.3163L25.6378 25.7753ZM26.76 23.8316L25.301 22.9892L26.1433 21.5302L27.6024 22.3725L26.76 23.8316ZM27.8822 21.8878L26.4232 21.0454L27.2656 19.5864L28.7246 20.4288L27.8822 21.8878ZM29.0072 19.9393L27.5482 19.0969L28.3905 17.6379L29.8496 18.4803L29.0072 19.9393ZM30.1294 17.9955L28.6704 17.1531L29.5128 15.6941L30.9718 16.5365L30.1294 17.9955ZM31.2517 16.0517L29.7927 15.2094L30.635 13.7504L32.094 14.5927L31.2517 16.0517ZM32.3766 14.1032L30.9176 13.2609L31.76 11.8019L33.219 12.6442L32.3766 14.1032ZM33.4989 12.1595L32.0399 11.3171L32.8822 9.85809L34.3412 10.7004L33.4989 12.1595Z" fill="#DFDFDF"/>
<path d="M30.7236 1.80338C25.3535 -1.29705 17.7311 1.85136 13.7013 8.83109C11.3726 12.8645 10.7536 17.2952 11.6758 20.9151C13.0029 26.1054 12.2147 31.6119 9.53542 36.2525L5.32361 43.5475C5.16873 43.8158 5.26023 44.1573 5.5285 44.3122L6.50274 44.8747C6.77101 45.0296 7.11251 44.9381 7.26739 44.6698L11.4792 37.3747C14.1585 32.7341 18.5331 29.2983 23.6915 27.8524C27.2922 26.8438 30.8151 24.0897 33.1439 20.0562C37.1763 13.0718 36.089 4.9011 30.7189 1.80066L30.7236 1.80338ZM13.6171 19.1179C13.2225 16.1603 13.9461 12.907 15.6471 9.96075C17.3481 7.01449 19.8038 4.76118 22.5625 3.62414C25.1165 2.56979 27.6118 2.6173 29.5932 3.76128C31.5746 4.90526 32.8634 7.04246 33.2274 9.78153C33.622 12.7391 32.8984 15.9924 31.1974 18.9387C29.4963 21.885 27.0407 24.1383 24.282 25.2753C21.7279 26.3297 19.2327 26.2821 17.2513 25.1382C15.2698 23.9942 13.9811 21.857 13.6171 19.1179ZM14.072 30.6448C14.3992 29.0891 14.5599 27.5064 14.5555 25.9162C15.0281 26.3585 15.5548 26.7504 16.129 27.0819C16.7032 27.4135 17.3088 27.6689 17.9254 27.8618C16.546 28.6531 15.2557 29.5836 14.0693 30.6495L14.072 30.6448Z" fill="#525252"/>
<path d="M11.9688 37.6571L9.05078 35.9724L4.83898 43.2675L7.757 44.9522L11.9688 37.6571Z" fill="#1E4157"/>
<path d="M36.574 46.4728C33.9762 50.9722 28.2201 52.5185 23.716 49.9181C19.8237 47.6709 18.1429 43.0608 19.4392 38.9458C19.641 38.303 19.9174 37.6719 20.2707 37.0601C20.3033 37.0036 20.3359 36.9471 20.3685 36.8907C23.0122 32.5182 28.6811 31.047 33.124 33.6121C35.1666 34.7914 36.5983 36.6158 37.3117 38.6843C37.5047 39.2413 37.6478 39.8196 37.7341 40.4092C38.0291 42.4307 37.6698 44.564 36.5693 46.4701L36.574 46.4728Z" fill="#BAD706"/>
<path d="M37.739 40.4119C37.5391 40.1711 37.3136 39.953 37.0772 39.7538C36.994 39.6806 36.8079 39.5355 36.4529 39.3243C36.2741 39.221 36.0898 39.1272 35.8974 39.0475C35.7069 38.9752 35.509 38.9049 35.3124 38.8541C35.1327 38.8068 34.9475 38.7689 34.7615 38.7431C34.7251 38.7409 34.6915 38.734 34.6551 38.7319C34.304 38.6986 33.9528 38.7092 33.6048 38.7467C33.6048 38.7467 33.5927 38.746 33.5899 38.7507C33.2729 38.7999 32.9544 38.8733 32.6513 38.9744C32.2051 39.1059 31.4766 39.5199 31.1307 39.8473C30.8323 40.1142 30.566 40.4123 30.3206 40.7287C30.307 40.7523 30.286 40.7778 30.2677 40.7986C29.9002 41.283 29.5723 41.7965 29.2095 42.2836C28.8358 42.7895 28.4265 43.2812 27.9374 43.6828C27.4529 44.0871 26.9209 44.4325 26.3367 44.6726C25.5843 44.9975 24.7612 45.1624 23.9431 45.123C23.497 45.0914 23.0558 45.0186 22.6338 44.8691C22.2764 44.7381 21.9252 44.5855 21.6039 44.3812C21.2947 44.1776 20.9945 43.9478 20.7382 43.6743C20.441 43.3521 20.173 42.9903 19.9928 42.585C19.5828 41.7082 19.515 40.7278 19.4748 39.7758C19.4645 39.5001 19.4523 39.2169 19.4421 38.9412C19.6438 38.2983 19.9203 37.6673 20.2735 37.0554C20.3061 36.9989 20.3388 36.9425 20.3714 36.886C20.4186 38.0867 20.4463 39.2887 20.5178 40.491C20.5594 40.9731 20.5399 40.8112 20.6003 41.185C20.6992 41.6876 20.805 41.9934 20.9099 42.1921C20.9727 42.3224 21.0456 42.4461 21.124 42.5604C21.1528 42.6084 21.1843 42.6517 21.2204 42.6977C21.2586 42.7511 21.3042 42.8025 21.3451 42.8512C21.4954 43.0258 21.6612 43.1843 21.8425 43.3267C22.0521 43.4853 22.2753 43.6205 22.5141 43.7395C22.5753 43.7748 22.6419 43.8007 22.7085 43.8266C22.7132 43.8294 22.7179 43.8321 22.7226 43.8348C22.7462 43.8484 22.7677 43.8545 22.794 43.8634C22.9797 43.933 23.1662 43.9905 23.3608 44.0338C23.4786 44.0579 23.5965 44.082 23.7171 44.1014C23.8404 44.1161 23.9617 44.1234 24.0857 44.126C24.302 44.1317 24.5171 44.1178 24.733 44.0918C24.7404 44.0898 24.7525 44.0905 24.7599 44.0886C25.05 44.0427 25.3415 43.9725 25.6177 43.8746C25.9086 43.7728 25.8965 43.7721 25.9992 43.7247C26.1694 43.6472 26.3302 43.5644 26.489 43.4741C26.6478 43.3838 26.8074 43.2814 26.9575 43.1735C27.1205 43.0542 27.046 43.1179 27.3438 42.8631C27.7748 42.497 28.2175 41.9368 28.3185 41.7943C28.9465 40.9457 29.4912 40.024 30.2515 39.2832C30.7112 38.8457 31.242 38.4807 31.8221 38.2258C32.1247 38.093 32.4313 37.9751 32.7525 37.897C33.0717 37.8114 33.3982 37.7677 33.7266 37.7314C34.3558 37.6742 34.9925 37.7344 35.6012 37.8975C36.2071 38.0654 36.7951 38.3295 37.3091 38.6891C37.5021 39.2461 37.6452 39.8244 37.7315 40.4139L37.739 40.4119Z" fill="#FFE1BD"/>
</g>
<defs>
<clipPath id="clip0_1019_24639">
<rect width="50" height="50" fill="white"/>
</clipPath>
</defs>
</svg>
