<svg width="50" height="50" viewBox="0 0 50 50" fill="none" xmlns="http://www.w3.org/2000/svg">
<rect width="50" height="50" rx="25" fill="white"/>
<path d="M8.66736 35.5328L8.61399 34.9101C8.61399 34.9101 8.68791 33.0866 9.09371 31.685C9.09371 31.685 18.0193 28.2579 20.8994 20.6222L26.1056 17.9345L26.093 18.0095C26.093 18.0095 29.8431 19.4731 31.5693 16.9278C33.0552 14.7347 32.8311 13.7039 32.2888 12.786C32.1683 12.5858 32.3124 12.3346 32.5413 12.3249L35.1284 12.1985C35.2552 12.1901 35.3736 12.2316 35.4698 12.3075C36.2877 12.9747 40.2165 16.3423 41.5627 20.7068L42.5104 22.1226L43.7517 23.1017C43.9647 23.2713 43.9801 23.5884 43.7853 23.7746L41.3065 26.1437C41.1542 26.2907 40.9232 26.3073 40.7495 26.1917L40.6649 26.1384C40.3836 25.9471 40.0028 26.1265 39.9664 26.4647L39.9404 26.7348C39.9265 26.8846 39.8353 27.0173 39.7002 27.087L36.8043 28.582C36.6377 28.668 36.4356 28.6412 36.298 28.5183L36.2933 28.5093C36.0205 28.268 35.5874 28.4345 35.5444 28.7932L35.5281 28.9385C35.508 29.1315 35.3649 29.2852 35.1795 29.3238L32.7585 29.8493C32.5958 29.8876 32.4272 29.8263 32.3213 29.6985L31.9368 29.241C31.8148 29.093 31.6056 29.0413 31.4275 29.1161L31.0215 29.2801C30.8096 29.3667 30.6925 29.6039 30.7611 29.8252L30.9695 30.5162C31.024 30.6991 30.9563 30.8994 30.8013 31.008L27.6296 33.2614C27.4881 33.3629 27.3046 33.3721 27.154 33.2902L26.7088 33.0466C26.4622 32.9115 26.1487 33.0334 26.0661 33.3042L25.8242 34.0622C25.7806 34.1988 25.6755 34.3044 25.5401 34.3515L21.5041 35.6821C21.3574 35.7293 21.2006 35.7019 21.0838 35.6082L20.5776 35.2022C20.3257 35.0014 19.9532 35.1196 19.8664 35.4267L19.7427 35.8499C19.6949 36.0115 19.5627 36.1311 19.3977 36.1649L15.2962 36.9818C15.0995 37.0206 14.901 36.9235 14.8103 36.7478L14.6592 36.4551C14.5081 36.1623 14.1018 36.1268 13.9057 36.3877L13.8232 36.4931C13.7207 36.6259 13.5561 36.6937 13.3925 36.6641L9.03744 35.9292C8.83753 35.8955 8.68351 35.7298 8.66504 35.5283L8.66736 35.5328Z" fill="#DFDFDF"/>
<path d="M8.62151 34.9574C8.54906 33.9111 8.79389 32.6838 9.09149 31.6803C9.09149 31.6803 18.051 28.2414 20.9147 20.5743L26.112 17.8912L26.0953 18.0025C26.0953 18.0025 29.8454 19.4661 31.5716 16.9208C33.0998 14.6659 32.8447 13.6968 32.275 12.7588C32.1615 12.5722 32.2944 12.3324 32.5164 12.3205L35.133 12.196C35.2598 12.1876 35.3782 12.2291 35.4744 12.305C36.2923 12.9722 40.2211 16.3399 41.5673 20.7043L42.4156 21.9718C41.5637 22.5314 40.9048 23.288 40.1132 23.9533C39.131 24.7798 37.9417 25.5477 36.7767 26.0864C35.3819 26.7323 33.8215 27.0245 32.3635 27.5148C32.3161 27.5336 32.2733 27.55 32.2236 27.5642C31.255 26.1078 29.5624 26.6964 28.5024 27.9909C26.8956 29.9498 24.3683 31.3742 22.0525 32.3245C19.8225 33.2419 17.4962 33.9066 15.1359 34.395C14.6522 34.4965 8.6714 35.6618 8.62833 34.9596L8.62151 34.9574Z" fill="#3A5480"/>
<path d="M20.8884 20.6456C21.1822 19.8779 21.412 19.0634 21.5642 18.2091C21.5642 18.2091 21.2681 16.8732 22.0853 15.3847C22.3134 14.9646 22.8026 14.752 23.2643 14.873L25.5501 15.4669C26.071 15.603 26.4017 16.111 26.3156 16.6403L26.1013 17.9487L20.8861 20.6411L20.8884 20.6456Z" fill="#3A5480"/>
<path d="M9.13813 31.6051C21.3213 25.3726 21.5369 18.023 21.5369 18.023L26.112 17.8914L26.0953 18.0027C26.0953 18.0027 29.8454 19.4663 31.5716 16.921C32.8841 14.9885 32.8594 13.9574 32.4631 13.1125C32.8458 13.0804 33.2183 12.9622 33.6009 12.9187C34.2143 12.8473 35.4608 12.6544 36.2401 12.9708C36.4443 13.1563 36.676 13.3732 36.9286 13.6193C35.6475 13.0714 34.3245 13.8343 34.3245 13.8343C34.708 23.35 24.7791 19.475 24.7791 19.475C19.492 30.2926 11.1842 31.7124 9.02862 31.9012C9.02862 31.9012 9.02861 31.9012 9.02411 31.9035C9.02411 31.9035 9.06607 31.6423 9.14046 31.6096L9.13813 31.6051Z" fill="#FF9528"/>
<path d="M24.1322 20.8189L21.2202 20.1833C20.8337 20.0976 20.5886 19.7222 20.6743 19.3357L20.7467 18.9789C20.8301 18.5879 21.21 18.3404 21.5965 18.4261L24.5788 19.0654C25.0153 19.1595 25.2616 19.6256 25.0923 20.038L24.9496 20.3913C24.8177 20.7103 24.4732 20.8938 24.1322 20.8189Z" fill="white"/>
<path d="M22.6123 23.708L19.9486 23.3434C19.5013 23.2835 19.2211 22.8292 19.3676 22.4056L19.4461 22.1711C19.551 21.866 19.8432 21.6696 20.1653 21.6858L22.9917 21.8352C23.5134 21.8625 23.8335 22.4273 23.5834 22.893L23.3421 23.3427C23.1981 23.6052 22.9099 23.754 22.617 23.717L22.6123 23.708Z" fill="white"/>
<path d="M18.7897 24.5348L20.732 25.2033C21.1896 25.3606 21.3623 25.916 21.0771 26.3028L20.832 26.6347C20.6271 26.9116 20.2588 27.0048 19.9486 26.8569L18.1468 26.0074C17.7454 25.8154 17.6119 25.3139 17.8634 24.9502L17.968 24.7992C18.1528 24.5384 18.4846 24.4299 18.7874 24.5302L18.7897 24.5348Z" fill="white"/>
<path d="M16.7487 26.935L17.8588 27.7594C18.2662 28.0624 18.2379 28.6816 17.8038 28.9456L17.7903 28.9526C17.5429 29.1032 17.2345 29.0913 17.0011 28.9265L15.8777 28.1204C15.5162 27.8622 15.4755 27.3413 15.7888 27.0312L15.8157 27.006C16.0686 26.7556 16.4649 26.7278 16.7465 26.9418L16.7487 26.935Z" fill="white"/>
<path d="M28.4996 23.8398C31.8552 22.2382 39.0009 21.9931 41.8092 21.2991C39.463 22.3455 36.0315 23.651 31.4199 24.8554C29.6903 25.305 28.098 26.2918 26.9632 27.6221L23.7076 31.4396C23.7076 31.4396 23.7076 31.4396 23.702 31.4424C21.0764 32.8701 18.266 34.0854 15.3282 34.5094C14.9315 34.5666 13.9564 34.6182 13.9731 34.5953C16.7964 32.166 24.3887 25.7972 28.4972 23.8353L28.4996 23.8398Z" fill="#7E8EA8"/>
</svg>
