<svg width="100" height="100" viewBox="0 0 100 100" fill="none" xmlns="http://www.w3.org/2000/svg">
<path d="M94.9687 64.9054V18.4568C94.9687 17.9349 94.5507 17.5 94.0492 17.5H25.379C24.8774 17.5 24.4595 17.9349 24.4595 18.4568V65.2098C24.4595 66.0144 25.2327 66.3406 25.8596 66.0362C28.1166 64.9924 30.3736 63.9486 32.6305 62.9048H86.8185C89.0755 63.9486 91.3324 64.9924 93.5894 66.0362C93.673 66.0797 93.7566 66.1014 93.8402 66.1232C94.3208 66.2319 94.906 65.9709 94.9687 65.3403C95.0105 65.1881 95.0105 65.0359 94.9687 64.9054ZM47.0709 25.7851V28.8077H42.5988V25.7851H47.0709ZM76.8085 25.7851V28.8077H72.3363V25.7851H76.8085ZM81.7822 25.7851V28.8077H77.31V25.7851H81.7822ZM93.1088 46.0955L90.7473 45.791V41.7029H93.1088V46.0955ZM90.2667 45.7258L87.9052 45.4214V41.7029H90.2667V45.7258ZM26.3194 41.7029H28.6808V45.791L26.3194 46.0955V41.7029ZM29.1615 41.7029H31.5229V45.4214L29.1615 45.7258V41.7029ZM57.478 45.3126V41.7029H61.9501V45.3126H57.478ZM47.0709 37.5929V41.2027H42.5988V37.5929H47.0709ZM47.5724 37.5929H52.0446V41.2027H47.5724V37.5929ZM52.5252 37.5929H56.9974V41.2027H52.5252V37.5929ZM57.478 37.5929H61.9501V41.2027H57.478V37.5929ZM62.4308 37.5929H66.9029V41.2027H62.4308V37.5929ZM67.4045 37.5929H71.8766V41.2027H67.4045V37.5929ZM72.3572 37.5929H76.8294V41.2027H72.3572V37.5929ZM42.1181 37.5929V41.2027H37.646V37.5929H42.1181ZM42.1181 41.7029V45.3126H37.646V41.7029H42.1181ZM42.6197 41.7029H47.0918V45.3126H42.6197V41.7029ZM47.5724 41.7029H52.0446V45.3126H47.5724V41.7029ZM52.5252 41.7029H56.9974V45.3126H52.5252V41.7029ZM62.4308 41.7029H66.9029V45.3126H62.4308V41.7029ZM67.4045 41.7029H71.8766V45.3126H67.4045V41.7029ZM72.3572 41.7029H76.8294V45.3126H72.3572V41.7029ZM77.31 41.7029H81.7822V45.3126H77.31V41.7029ZM77.31 41.2027V37.5929H81.7822V41.2027H77.31ZM77.31 37.071V33.4613H81.7822V37.071H77.31ZM76.8085 37.071H72.3363V33.4613H76.8085V37.071ZM71.8557 37.071H67.3836V33.4613H71.8557V37.071ZM66.9029 37.071H62.4308V33.4613H66.9029V37.071ZM61.9501 37.071H57.478V33.4613H61.9501V37.071ZM56.9974 37.071H52.5252V33.4613H56.9974V37.071ZM52.0237 37.071H47.5516V33.4613H52.0237V37.071ZM47.0709 37.071H42.5988V33.4613H47.0709V37.071ZM42.1181 37.071H37.646V33.4613H42.1181V37.071ZM37.1653 37.071H33.3828V33.4613H37.1653V37.071ZM37.1653 37.5929V41.2027H33.3828V37.5929H37.1653ZM37.1653 41.7029V45.3126H33.3828V41.7029H37.1653ZM86.0662 45.3126H82.2837V41.7029H86.0662V45.3126ZM82.2628 41.2027V37.5929H86.0453V41.2027H82.2628ZM82.2628 37.071V33.4613H86.0453V37.071H82.2628ZM82.2628 32.9394V29.3296H86.0453V32.9394H82.2628ZM81.7822 32.9394H77.31V29.3296H81.7822V32.9394ZM76.8085 32.9394H72.3363V29.3296H76.8085V32.9394ZM71.8557 32.9394H67.3836V29.3296H71.8557V32.9394ZM66.9029 32.9394H62.4308V29.3296H66.9029V32.9394ZM61.9501 32.9394H57.478V29.3296H61.9501V32.9394ZM56.9974 32.9394H52.5252V29.3296H56.9974V32.9394ZM52.0237 32.9394H47.5516V29.3296H52.0237V32.9394ZM47.0709 32.9394H42.5988V29.3296H47.0709V32.9394ZM42.1181 32.9394H37.646V29.3296H42.1181V32.9394ZM37.1653 32.9394H33.3828V29.3296H37.1653V32.9394ZM56.9974 45.8345V49.4443H52.5252V45.8345H56.9974ZM57.478 45.8345H61.9501V49.4443H57.478V45.8345ZM62.4308 45.8345H66.9029V49.4443H62.4308V45.8345ZM86.0662 28.8077H82.2837V25.7851H86.0662V28.8077ZM71.8557 28.8077H67.3836V25.7851H71.8557V28.8077ZM66.9029 28.8077H62.4308V25.7851H66.9029V28.8077ZM61.9501 28.8077H57.478V25.7851H61.9501V28.8077ZM56.9974 28.8077H52.5252V25.7851H56.9974V28.8077ZM52.0237 28.8077H47.5516V25.7851H52.0237V28.8077ZM42.1181 28.8077H37.646V25.7851H42.1181V28.8077ZM37.1653 28.8077H33.3828V25.7851H37.1653V28.8077ZM31.502 41.2027H29.1406V36.9841L31.502 37.419V41.2027ZM28.6599 41.2027H26.2985V36.4839L28.6599 36.9188V41.2245V41.2027ZM26.3194 46.6174L28.6808 46.3129V50.4011L26.3194 51.01V46.6174ZM29.1615 46.2477L31.5229 45.9432V49.6617L29.1615 50.2706V46.2477ZM33.3619 45.8345H37.1444V49.4443H33.3619V45.8345ZM37.646 45.8345H42.1181V49.4443H37.646V45.8345ZM42.6197 45.8345H47.0918V49.4443H42.6197V45.8345ZM47.5724 45.8345H52.0446V49.4443H47.5724V45.8345ZM52.0237 49.9662V53.576H47.5516V49.9662H52.0237ZM52.5252 49.9662H56.9974V53.576H52.5252V49.9662ZM57.478 49.9662H61.9501V53.576H57.478V49.9662ZM62.4308 49.9662H66.9029V53.576H62.4308V49.9662ZM67.4045 49.9662H71.8766V53.576H67.4045V49.9662ZM67.4045 49.4443V45.8345H71.8766V49.4443H67.4045ZM72.3572 45.8345H76.8294V49.4443H72.3572V45.8345ZM77.31 45.8345H81.7822V49.4443H77.31V45.8345ZM82.2628 45.8345H86.0453V49.4443H82.2628V45.8345ZM87.9261 49.1833V45.9432L90.2876 46.2477V50.2706L87.9261 49.6617V49.1833ZM90.7682 46.3129L93.1297 46.6174V50.9882L90.7682 50.3793V46.3129ZM93.1088 41.2027H90.7473V36.9188L93.1088 36.4839V41.2027ZM90.2667 41.2027H87.9052V37.4407L90.2667 37.0058V41.2027ZM87.5082 24.0237C87.3619 23.915 87.1738 23.8497 86.9857 23.8497H83.0987L84.6243 21.8926H89.8487L87.5082 24.0019V24.0237ZM82.4509 23.8497H77.8534L78.8774 21.8926H83.9764L82.4509 23.8497ZM77.2891 23.8497H72.7125L73.4021 21.8926H78.334L77.31 23.8497H77.2891ZM72.1901 23.8497H67.509L67.697 21.8926H72.8797L72.1901 23.8497ZM66.9865 23.8497H62.4308V21.8926H67.1746L66.9865 23.8497ZM61.9501 23.8497H57.478V21.8926H61.9501V23.8497ZM56.9974 23.8497H52.5252V21.8926H56.9974V23.8497ZM52.0237 23.8497H47.4053L47.0709 21.8926H52.0446V23.8497H52.0237ZM46.9037 23.8497H42.2644L41.5539 21.8926H46.5694L46.9037 23.8497ZM41.742 23.8497H37.0817L35.8279 21.8926H41.0105L41.742 23.8497ZM36.4757 23.8497H32.4424C32.2544 23.8497 32.0872 23.915 31.92 24.0237L29.5794 21.9144H35.2218L36.4757 23.8715V23.8497ZM31.6065 24.4151C31.5438 24.5456 31.5229 24.676 31.5229 24.8283V28.2206L29.1615 26.8071V22.2188L31.6065 24.4151ZM31.502 28.8077V32.6132L29.1406 31.7869V27.3942L31.502 28.8077ZM31.502 33.1568V36.8971L29.1406 36.4622V32.3305L31.502 33.1568ZM28.6599 36.3752L26.2985 35.9403V31.3302L28.6599 32.1565V36.3752ZM26.3194 51.5319L28.6808 50.923V54.8589L26.3194 55.6635V51.5101V51.5319ZM29.1615 50.8143L31.5229 50.2054V53.9021L29.1615 54.7067V50.8143ZM33.3619 49.9662H37.1444V53.576H33.3619V49.9662ZM37.646 49.9662H42.1181V53.576H37.646V49.9662ZM42.6197 49.9662H47.0918V53.576H42.6197V49.9662ZM47.0709 54.0979V57.7076H42.5988V54.0979H47.0709ZM47.5724 54.0979H52.0446V57.7076H47.5724V54.0979ZM52.5252 54.0979H56.9974V57.7076H52.5252V54.0979ZM57.478 54.0979H61.9501V57.7076H57.478V54.0979ZM62.4308 54.0979H66.9029V57.7076H62.4308V54.0979ZM67.4045 54.0979H71.8766V57.7076H67.4045V54.0979ZM72.3572 54.0979H76.8294V57.7076H72.3572V54.0979ZM72.3572 53.576V49.9662H76.8294V53.576H72.3572ZM77.31 49.9662H81.7822V53.576H77.31V49.9662ZM82.2628 49.9662H86.0453V53.576H82.2628V49.9662ZM87.9261 50.1836L90.2876 50.7925V54.685L87.9261 53.8586V50.1836ZM90.7682 50.923L93.1297 51.5319V55.6853L90.7682 54.8589V50.923ZM93.1088 35.962L90.7473 36.3969V32.2L93.1088 31.3737V35.962ZM90.2667 36.4839L87.9052 36.9188V33.1786L90.2667 32.3522V36.4839ZM87.9261 32.6349V28.8512L90.2876 27.4377V31.8086L87.9261 32.6349ZM87.9261 28.2641V24.8283C87.9261 24.676 87.8843 24.5456 87.8425 24.4151L90.2876 22.2188V26.8506L87.9261 28.2641ZM90.7682 21.7621L93.1297 19.6528V25.1327L90.7682 26.5462V21.7621ZM90.4339 21.3707H85.0422L86.5678 19.4136H92.6072L90.4339 21.3707ZM84.3944 21.3707H79.1699L80.1939 19.4136H85.9199L84.3944 21.3707ZM78.5848 21.3707H73.5693L74.2589 19.4136H79.6088L78.5848 21.3707ZM73.0469 21.3707H67.7388L67.9269 19.4136H73.7365L73.0469 21.3707ZM67.2373 21.3707H62.4308V19.4136H67.4254L67.2373 21.3707ZM61.9501 21.3707H57.478V19.4136H61.9501V21.3707ZM56.9974 21.3707H52.5252V19.4136H56.9974V21.3707ZM52.0237 21.3707H46.9664L46.632 19.4136H52.0446V21.3707H52.0237ZM46.4649 21.3707H41.3449L40.6344 19.4136H46.1305L46.4649 21.3707ZM40.8225 21.3707H35.4935L34.2396 19.4136H40.1119L40.8434 21.3707H40.8225ZM34.8875 21.3707H28.9943L26.8209 19.4136H33.6336L34.8875 21.3707ZM28.6599 21.7621V26.5027L26.2985 25.0892V19.6528L28.6599 21.7621ZM28.6599 27.0898V31.6129L26.2985 30.7866V25.6546L28.6599 27.0681V27.0898ZM26.3194 56.2289L28.6808 55.4026V59.0558L26.3194 59.9039V56.2072V56.2289ZM29.1615 55.2504L31.5229 54.424V58.0338L29.1615 58.8819V55.2286V55.2504ZM33.3619 54.0979H37.1444V57.7076H33.3619V54.0979ZM37.646 54.0979H42.1181V57.7076H37.646V54.0979ZM42.1181 58.2078V60.9912H37.646V58.2078H42.1181ZM42.6197 58.2078H47.0918V60.9912H42.6197V58.2078ZM47.5724 58.2078H52.0446V60.9912H47.5724V58.2078ZM52.5252 58.2078H56.9974V60.9912H52.5252V58.2078ZM57.478 58.2078H61.9501V60.9912H57.478V58.2078ZM62.4308 58.2078H66.9029V60.9912H62.4308V58.2078ZM67.4045 58.2078H71.8766V60.9912H67.4045V58.2078ZM72.3572 58.2078H76.8294V60.9912H72.3572V58.2078ZM77.31 58.2078H81.7822V60.9912H77.31V58.2078ZM77.31 57.7076V54.0979H81.7822V57.7076H77.31ZM82.2628 54.0979H86.0453V57.7076H82.2628V54.0979ZM87.9261 54.4023L90.2876 55.2286V58.8601L87.9261 57.9903V54.4023ZM90.7682 55.3808L93.1297 56.2072V59.9039L90.7682 59.0341V55.3808ZM93.1088 30.8301L90.7473 31.6564V27.155L93.1088 25.7416V30.8518V30.8301ZM26.3194 60.4693L28.6808 59.5995V62.6439C27.8867 63.0135 27.1135 63.3615 26.3194 63.7311V60.4693ZM31.502 61.3391C31.1677 61.4913 30.8333 61.6436 30.5198 61.7958C30.0601 62.0132 29.6212 62.209 29.1615 62.4264V59.4255L31.5229 58.5557V61.3174L31.502 61.3391ZM33.3619 58.2078H37.1444V60.9912H33.3619V58.2078ZM82.2628 60.9912V58.2078H86.0453V60.9912H82.2628ZM87.9888 61.3826C87.9888 61.3826 87.947 61.3826 87.9261 61.3609V58.5557L90.2876 59.4255V62.4482C89.9532 62.2959 89.6397 62.1437 89.3054 61.9915C88.8665 61.7958 88.4277 61.5783 87.9888 61.3826ZM90.7682 62.6656V59.5995L93.1297 60.4693V63.7746C92.3356 63.405 91.5623 63.057 90.7682 62.6874V62.6656Z" fill="#757575"/>
<path d="M23.6206 46.3503C13.7283 46.3503 5.66992 54.4087 5.66992 64.301C5.66992 74.1932 13.7283 82.2516 23.6206 82.2516C33.5128 82.2516 41.5712 74.1932 41.5712 64.301C41.5712 54.4087 33.5128 46.3503 23.6206 46.3503Z" fill="#276182"/>
<path d="M23.6207 82.9225C13.3582 82.9225 5 74.5644 5 64.3018C5 54.0393 13.3582 45.6812 23.6207 45.6812C33.8832 45.6812 42.2414 54.0393 42.2414 64.3018C42.2414 74.5644 33.8832 82.9225 23.6207 82.9225Z" fill="#E7E7E7"/>
<mask id="mask0_1019_10541" style="mask-type:luminance" maskUnits="userSpaceOnUse" x="5" y="45" width="38" height="38">
<path d="M23.6207 82.9225C13.3582 82.9225 5 74.5644 5 64.3018C5 54.0393 13.3582 45.6812 23.6207 45.6812C33.8832 45.6812 42.2414 54.0393 42.2414 64.3018C42.2414 74.5644 33.8832 82.9225 23.6207 82.9225Z" fill="white"/>
</mask>
<g mask="url(#mask0_1019_10541)">
<path d="M42.8401 62.8732L41.6234 57.3892C41.3765 56.6839 40.6359 55.9962 39.9659 55.8375C39.719 55.7846 39.4545 55.8023 39.2077 55.9081C35.7163 53.1396 32.2249 50.3712 28.7335 47.6204C28.7335 47.3559 28.6806 47.0738 28.5219 46.8269L28.2751 46.4566C27.8695 45.8395 26.9349 45.2399 26.212 45.1342C26.212 45.1342 24.9776 44.9402 23.6199 44.9402C22.2621 44.9402 20.9044 45.1518 20.9044 45.1518C20.1814 45.2752 19.2116 45.8395 18.7531 46.4214L18.4004 46.8798C18.1712 47.1796 18.1007 47.5499 18.1712 47.8673C14.768 50.5652 11.3472 53.2631 7.94394 55.9786C7.69708 55.8552 7.41495 55.8199 7.15045 55.8904C6.53329 56.0668 5.84559 56.7897 5.59872 57.4774C5.59872 57.4774 4.24097 61.4096 4.24097 64.3191V64.6012C4.24097 64.9186 4.71706 65.5711 5.26369 66.0648L5.29896 66.1001C5.54582 66.3293 5.86322 66.4351 6.18062 66.4175C7.39731 69.4151 8.614 72.4128 9.8307 75.4104C9.54857 75.622 9.3546 75.9394 9.3546 76.2921C9.3546 76.9269 9.79543 77.8614 10.3597 78.3552L14.768 81.4762C15.4028 81.8465 16.4961 81.8994 17.1838 81.6173L18.1183 81.2294C18.3299 81.1412 18.4886 81.0001 18.612 80.8414H27.9753C28.0987 81.053 28.2927 81.247 28.5572 81.3528L29.5799 81.776C30.2676 82.0581 31.3609 82.0229 32.0133 81.6702L36.1571 78.937C36.739 78.4786 37.0917 77.4911 36.9682 76.7682V76.6447C36.9682 76.6447 36.933 76.6095 36.933 76.5918L37.1798 75.9041C38.5023 72.6596 39.8248 69.4151 41.1297 66.1706C41.2002 66.1177 41.2707 66.0648 41.3413 65.9943L42.0819 65.1831C42.5756 64.6365 42.9106 63.5961 42.8401 62.8555V62.8732ZM23.902 50.9884C24.2194 50.9531 24.5015 50.8649 24.7484 50.7062L28.134 48.6255C28.328 48.5021 28.469 48.3434 28.5748 48.1671C31.9604 50.8473 35.346 53.5276 38.7139 56.2078C38.5376 56.3665 38.3789 56.5781 38.2907 56.8073L36.7566 60.9864C36.7037 61.1099 36.6861 61.2509 36.6685 61.392C34.3409 61.6741 32.0133 61.9562 29.7033 62.256C29.6152 61.8152 29.3683 61.4096 29.0333 61.1628L24.5015 57.8301C24.3252 57.7066 24.1136 57.6185 23.902 57.5656V50.9884ZM18.4357 48.361C18.5239 48.4492 18.612 48.5374 18.7355 48.6079L22.4208 50.7415C22.6853 50.8826 23.0027 50.9707 23.3201 51.006V57.5127C22.9498 57.5127 22.5972 57.6185 22.315 57.8301L17.6422 61.1804C17.3072 61.4096 17.0956 61.7975 16.9898 62.2031C14.6975 61.921 12.4052 61.6389 10.1128 61.3567C10.1128 61.057 10.0952 60.7572 10.007 60.4927L8.70217 56.8426C8.63164 56.6486 8.52584 56.4723 8.40241 56.3312C11.7527 53.6863 15.103 51.0236 18.4357 48.3787V48.361ZM14.6269 75.1283H10.6947C10.5713 75.1283 10.4479 75.1459 10.3244 75.1812C9.12537 72.2188 7.90868 69.2564 6.70962 66.294C6.86832 66.2059 7.00938 66.1001 7.11518 65.959L9.60147 62.8026C9.79543 62.5558 9.9365 62.2384 10.007 61.8857C12.317 62.1678 14.6269 62.45 16.9193 62.7321C16.9193 62.8908 16.9545 63.0495 17.0074 63.1906L19.0881 68.4805C19.1763 68.6921 19.2997 68.8861 19.4584 69.0448C18.1536 71.1432 16.8487 73.2415 15.5262 75.3399C15.2088 75.1988 14.8914 75.1106 14.5917 75.1106L14.6269 75.1283ZM29.9326 76.5037L28.0106 79.7129C27.8871 79.9069 27.8519 80.1185 27.8342 80.3124H18.8413C18.8589 80.0832 18.806 79.8363 18.6649 79.5895L16.6724 76.2921C16.5313 76.0628 16.3197 75.8336 16.0552 75.6573C17.3425 73.5765 18.6473 71.5135 19.9345 69.4327C20.2519 69.6267 20.6046 69.7501 20.9573 69.7501H25.9827C26.4059 69.7501 26.8468 69.5562 27.1994 69.274C28.5043 71.3724 29.8091 73.4531 31.114 75.5515C30.6203 75.7631 30.1794 76.1157 29.9326 76.5037ZM36.5979 75.9218C36.2982 75.5691 35.8397 75.3399 35.3812 75.3399H31.9604C31.8546 75.3399 31.7664 75.3399 31.6606 75.3751C30.3029 73.1886 28.9451 71.0197 27.5874 68.8332C27.6579 68.7274 27.7284 68.604 27.7637 68.4805L29.6504 63.2082C29.7033 63.0848 29.721 62.9437 29.721 62.8026C32.0309 62.5205 34.3409 62.2384 36.6508 61.9562C36.7037 62.45 36.8801 62.9437 37.1622 63.2611L39.5427 65.9943C39.7896 66.2764 40.107 66.4175 40.4244 66.4175C39.1371 69.5914 37.8499 72.7478 36.5627 75.9218H36.5979Z" fill="#474747"/>
</g>
</svg>
