<svg width="50" height="50" viewBox="0 0 50 50" fill="none" xmlns="http://www.w3.org/2000/svg">
<rect width="50" height="50" rx="25" fill="white"/>
<path d="M13.7507 9.99976H36.3793C37.4096 9.99976 38.3472 10.4223 39.0273 11.1024C39.7075 11.7825 40.13 12.7202 40.13 13.7504V36.7815C40.13 37.8118 39.7075 38.7494 39.0273 39.4295C38.3472 40.1096 37.4096 40.5322 36.3793 40.5322H13.7507C12.7204 40.5322 11.7828 40.1137 11.1027 39.4336C10.4226 38.7534 10 37.8158 10 36.7856V13.7504C10 12.7202 10.4226 11.7825 11.1027 11.1024C11.7828 10.4223 12.7204 9.99976 13.7507 9.99976Z" fill="#3A5480"/>
<path d="M15.0545 21.5127H35.0794C35.8078 21.5127 36.4719 21.8105 36.9508 22.2894C37.4296 22.7683 37.7274 23.4323 37.7274 24.1607V35.2758C37.7274 36.0042 37.4296 36.6682 36.9508 37.1471C36.4719 37.626 35.8078 37.9238 35.0794 37.9238H15.0545C14.3261 37.9238 13.6621 37.626 13.1832 37.1471C12.7043 36.6682 12.4065 36.0042 12.4065 35.2758V24.1607C12.4065 23.4323 12.7043 22.7683 13.1832 22.2894C13.6621 21.8105 14.3261 21.5127 15.0545 21.5127Z" fill="#F0ECEC"/>
<path fill-rule="evenodd" clip-rule="evenodd" d="M12.9054 24.0847V35.3528C12.9255 35.8961 13.1509 36.4072 13.5372 36.7935C13.9235 37.1798 14.4346 37.4052 14.9779 37.4253H35.1558C35.6991 37.4052 36.2102 37.1798 36.5965 36.7935C36.9989 36.3911 37.2283 35.8478 37.2283 35.2763V24.1612C37.2283 23.5897 36.9989 23.0465 36.5965 22.644C36.1941 22.2416 35.6508 22.0122 35.0793 22.0122H15.0544C14.4829 22.0122 13.9396 22.2416 13.5372 22.644C13.1509 23.0304 12.9255 23.5414 12.9054 24.0847Z" fill="#7E8EA8"/>
<path d="M14.9418 12.4673C15.2275 12.753 15.4086 13.1514 15.4086 13.5901C15.4086 14.0287 15.2315 14.4271 14.9418 14.7129C14.652 14.9986 14.2576 15.1797 13.819 15.1797C13.3803 15.1797 12.9819 15.0026 12.6962 14.7129C12.4105 14.4271 12.2294 14.0287 12.2294 13.5901C12.2294 13.1514 12.4064 12.753 12.6962 12.4673C12.9819 12.1816 13.3803 12.0005 13.819 12.0005C14.2576 12.0005 14.656 12.1776 14.9418 12.4673ZM37.4417 12.4673C37.7274 12.753 37.9085 13.1514 37.9085 13.5901C37.9085 14.0287 37.7314 14.4271 37.4417 14.7129C37.1519 14.9986 36.7575 15.1797 36.3189 15.1797C35.8802 15.1797 35.4818 15.0026 35.1961 14.7129C34.9104 14.4271 34.7293 14.0287 34.7293 13.5901C34.7293 13.1514 34.9064 12.753 35.1961 12.4673C35.4818 12.1816 35.8802 12.0005 36.3189 12.0005C36.7575 12.0005 37.1559 12.1776 37.4417 12.4673Z" fill="white"/>
<path fill-rule="evenodd" clip-rule="evenodd" d="M25.067 12.2183C27.0188 12.2183 28.874 12.9869 30.2503 14.3672C31.6307 15.7476 32.3993 17.6028 32.3993 19.5506C32.3993 20.0174 32.021 20.3916 31.5582 20.3916H18.5799C18.113 20.3916 17.7388 20.0133 17.7388 19.5506C17.7388 17.5988 18.5074 15.7436 19.8878 14.3672C21.2681 12.9869 23.1233 12.2183 25.0711 12.2183H25.067Z" fill="#F0ECEC"/>
<path d="M25.067 12.7114C26.9544 12.7114 28.6607 13.476 29.9002 14.7115C31.1397 15.947 31.9003 17.6573 31.9003 19.5447C31.9003 19.7338 31.7474 19.8908 31.5542 19.8908H18.5718C18.3827 19.8908 18.2257 19.7379 18.2257 19.5447C18.2257 17.6573 18.9903 15.951 20.2258 14.7115C21.4613 13.476 23.1716 12.7114 25.059 12.7114H25.067Z" fill="white"/>
<path d="M25.0671 12.7114C25.1959 12.7114 25.3247 12.7114 25.4494 12.7235V13.8584C25.4494 14.0716 25.2764 14.2407 25.0671 14.2407C24.8579 14.2407 24.6848 14.0676 24.6848 13.8584V12.7235C24.8096 12.7155 24.9383 12.7114 25.0671 12.7114Z" fill="#4D4D4D"/>
<path d="M28.3105 13.5293C28.5358 13.65 28.7531 13.7869 28.9624 13.9317L28.4272 14.8613C28.3225 15.0424 28.0891 15.1068 27.904 15.0022C27.7229 14.8976 27.6585 14.6642 27.7631 14.479L28.3105 13.5333V13.5293Z" fill="#4D4D4D"/>
<path d="M21.1714 13.9317C21.3807 13.7869 21.598 13.6541 21.8233 13.5293L22.3706 14.475C22.4753 14.6561 22.4149 14.8935 22.2298 14.9982C22.0487 15.1028 21.8113 15.0424 21.7066 14.8573L21.1714 13.9277V13.9317Z" fill="#4D4D4D"/>
<path d="M18.8292 16.7531C18.9339 16.5197 19.0506 16.2943 19.1793 16.073L20.0124 16.5559C20.1935 16.6605 20.2579 16.894 20.1532 17.0791C20.0486 17.2602 19.8152 17.3246 19.6301 17.2199L18.8292 16.7571V16.7531Z" fill="#4D4D4D"/>
<path d="M30.9546 16.0714C31.0834 16.2887 31.2001 16.5181 31.3047 16.7515L30.5039 17.2143C30.3228 17.3189 30.0853 17.2586 29.9807 17.0735C29.8761 16.8924 29.9364 16.6549 30.1215 16.5503L30.9546 16.0674V16.0714Z" fill="#4D4D4D"/>
<path d="M25.3004 19.8921L26.4836 16.4433C26.5439 16.2622 26.4473 16.069 26.2663 16.0046C26.0852 15.9402 25.892 16.0409 25.8276 16.2219L24.568 19.8921H25.2964H25.3004Z" fill="#FF9528"/>
</svg>
