<svg width="100" height="100" viewBox="0 0 100 100" fill="none" xmlns="http://www.w3.org/2000/svg">
<path d="M2.67871 63.0454C2.67871 63.2841 2.85453 63.5352 3.15594 63.5352H97.0197C97.3211 63.5352 97.4969 63.2966 97.4969 63.0454V62.6812C97.4969 62.518 97.4216 62.3673 97.2583 62.2668L86.5708 56.1758C86.5708 56.1758 86.4453 56.1256 86.3825 56.113C86.3699 56.113 86.3448 56.113 86.3322 56.113H13.856C13.768 56.113 13.6927 56.1382 13.6173 56.1758L2.92988 62.2668C2.76662 62.3673 2.69127 62.518 2.69127 62.6812V63.0454H2.67871Z" fill="#3E403D"/>
<path d="M97.0198 63.1711H3.15605C2.66626 63.1711 2.49044 62.518 2.91744 62.2794L13.6049 56.201C13.6677 56.1633 13.7556 56.1382 13.8435 56.1382H86.3324C86.4203 56.1382 86.4956 56.1633 86.571 56.201L97.2584 62.2794C97.6854 62.5306 97.5096 63.1711 97.0198 63.1711Z" fill="#919296"/>
<g opacity="0.53" style="mix-blend-mode:multiply">
<path d="M38.6844 56.1257L25.234 63.1586H12.1604L30.9985 56.1257H38.6844ZM41.1961 56.1257L29.5291 63.1586H33.146L43.3311 56.1257H41.2087H41.1961ZM46.5085 56.1257L38.5714 63.1586H51.645L54.2069 56.1257H46.521H46.5085ZM56.7061 56.1257L55.9275 63.1586H59.5444L58.8411 56.1257H56.7187H56.7061Z" fill="#999999"/>
</g>
<path d="M25.0997 50.2227C25.0381 50.4489 24.9661 50.675 24.8839 50.8908C24.7708 51.23 24.6475 51.5384 24.5036 51.857C24.4213 52.0421 24.3391 52.2168 24.2466 52.4018C24.2466 52.4018 24.2466 52.4018 24.2466 52.4121C23.1262 54.5706 21.348 56.4311 19.0147 57.6337C16.6917 58.8363 14.1529 59.2166 11.7374 58.8774C11.5216 58.8466 11.316 58.8054 11.1001 58.7746C10.7712 58.7027 10.4628 58.6307 10.1442 58.5382C9.9078 58.4765 9.67139 58.4046 9.44525 58.3223C8.09874 57.8598 6.83446 57.1506 5.71408 56.2358C5.57018 56.1227 5.44684 56.0096 5.30293 55.8863C4.84039 55.4649 4.39841 55.0126 4.00782 54.5192C3.47332 53.8717 3.01078 53.1624 2.60991 52.3915C2.41462 52.0009 2.2296 51.6103 2.07542 51.2095C2.0343 51.117 2.00347 51.0245 1.97263 50.9422C1.82873 50.5311 1.70538 50.1302 1.6026 49.7191C1.58204 49.6266 1.56148 49.534 1.54092 49.4415C1.25312 48.1464 1.18117 46.841 1.31479 45.5562C1.31479 45.4842 1.33535 45.4226 1.33535 45.3609C1.36619 45.1039 1.4073 44.8367 1.45869 44.5797C1.46897 44.5078 1.47925 44.4358 1.49981 44.3741C1.68483 43.449 1.98291 42.5548 2.38378 41.7017C2.40434 41.6503 2.43517 41.5886 2.45573 41.5372C2.83604 40.756 3.28831 40.0057 3.83308 39.317C3.87419 39.2656 3.91531 39.2039 3.95642 39.1525C4.99457 37.8677 6.29997 36.7884 7.85205 35.9867C9.41442 35.185 11.0487 34.7533 12.6933 34.6505C12.7653 34.6505 12.827 34.6505 12.8989 34.6402C13.7726 34.5991 14.6463 34.6607 15.5097 34.8046C15.5714 34.8149 15.6228 34.8252 15.6947 34.8458C16.6198 35.0205 17.5243 35.298 18.3775 35.6783C18.4494 35.7092 18.5111 35.74 18.5728 35.7708C18.8092 35.8839 19.0456 35.997 19.282 36.1306C19.3437 36.1614 19.395 36.1923 19.4567 36.2231C19.6212 36.3156 19.7754 36.4081 19.9295 36.5006C20.8649 37.0865 21.7283 37.806 22.4889 38.6489C22.5506 38.7208 22.6123 38.7825 22.674 38.8545C22.9515 39.1731 23.2187 39.5123 23.4551 39.8721C23.5065 39.9543 23.5682 40.0365 23.6196 40.1187C23.856 40.4785 24.0719 40.8485 24.2774 41.2391C24.9764 42.5959 25.3978 44.0247 25.5623 45.4637C25.5623 45.4637 25.5623 45.4637 25.5623 45.474C25.5828 45.6487 25.5931 45.8234 25.6034 45.9982C25.7062 47.4475 25.5417 48.8865 25.1408 50.2536L25.0997 50.2227Z" fill="#3E403D"/>
<path d="M12.8685 34.6094C12.7966 34.6094 12.7246 34.6094 12.6527 34.6197C12.6732 34.6402 12.6835 34.6608 12.6938 34.6813C12.9816 35.2467 11.5426 36.7576 8.92151 38.1041C6.30044 39.4506 4.23441 39.759 3.94661 39.1937C3.93633 39.1731 3.92605 39.1423 3.91577 39.1217C3.87466 39.1731 3.83354 39.2348 3.78215 39.2862C4.22413 40.1085 6.77326 39.4198 9.00374 38.2686C11.2239 37.1174 13.2694 35.442 12.8583 34.6094H12.8685ZM15.6541 34.8149C15.5924 34.8047 15.5307 34.7944 15.4793 34.7841C15.356 36.2026 13.1049 38.3919 9.91854 40.0365C6.73214 41.6811 3.64853 42.2465 2.42536 41.5269C2.4048 41.5783 2.37397 41.6297 2.35341 41.6914C3.66909 42.4418 6.74242 41.8867 10.0111 40.201C13.2694 38.5153 15.5102 36.3362 15.6643 34.8252L15.6541 34.8149ZM11.6454 43.3771C7.35914 45.587 3.06264 46.029 1.42833 44.5592C1.4386 44.4975 1.44888 44.4255 1.46944 44.3536C2.97013 45.8851 7.25635 45.4431 11.5631 43.2229C15.8699 41.0027 18.7171 37.7547 18.3368 35.6475C18.4088 35.6784 18.4704 35.7092 18.5321 35.74C18.7788 37.9294 15.9316 41.1775 11.6454 43.3874V43.3771ZM12.0462 44.148C7.79085 46.3477 3.45323 46.8205 1.28442 45.5356C1.28442 45.4637 1.2947 45.402 1.30498 45.3403C3.38128 46.656 7.69834 46.1832 11.964 43.9836C16.2297 41.7839 19.118 38.5358 19.2413 36.0792C19.303 36.1101 19.3544 36.1409 19.4161 36.182C19.2002 38.7003 16.3016 41.9484 12.0462 44.148ZM13.8656 47.6736C8.66454 50.3564 3.55602 51.1273 1.57223 49.6985C1.55167 49.606 1.53111 49.5135 1.51056 49.421C3.27849 51.0142 8.46924 50.2536 13.7833 47.5194C19.0974 44.775 22.7258 40.9822 22.4483 38.6284C22.51 38.69 22.5716 38.762 22.6333 38.8339C22.6539 41.2905 19.0563 45.0012 13.8553 47.6839L13.8656 47.6736ZM14.5645 49.0304C9.38405 51.7029 4.26525 52.5149 2.04505 51.1889C2.01421 51.0964 1.9731 51.0039 1.94226 50.9114C3.96717 52.3813 9.17847 51.6001 14.4823 48.8659C19.7861 46.1318 23.4556 42.339 23.4248 39.831C23.4762 39.9132 23.5276 39.9954 23.5892 40.0776C23.3734 42.6576 19.7553 46.3579 14.5748 49.0304H14.5645ZM17.0828 53.9128C12.6013 56.2255 8.1506 57.0375 5.68371 56.2255C5.53981 56.1124 5.40619 55.9994 5.27256 55.876C7.5236 56.9861 12.2313 56.2049 16.9903 53.7483C21.7493 51.2917 25.1105 47.91 25.5113 45.4329C25.5319 45.6076 25.5422 45.7823 25.5525 45.9674C24.7918 48.4548 21.5438 51.6001 17.0622 53.9128H17.0828ZM18.1826 56.0405C15.1607 57.6029 12.1696 58.5074 10.1241 58.5177C9.88771 58.456 9.6513 58.384 9.42516 58.3018C11.3987 58.5177 14.7804 57.5926 18.1004 55.876C21.4615 54.1389 24.1443 51.9496 25.1002 50.2125C25.0282 50.4386 24.9666 50.6544 24.8843 50.8806C23.692 52.5457 21.2046 54.4781 18.1826 56.0302V56.0405ZM18.419 56.503C16.0138 57.7468 13.6292 58.5691 11.7276 58.8671C11.5117 58.8363 11.3062 58.8055 11.0903 58.7643C13.0638 58.5691 15.7157 57.6954 18.3368 56.3489C20.9784 54.9921 23.1986 53.3475 24.4938 51.8673C24.4115 52.0421 24.3293 52.2271 24.2368 52.4018C24.2368 52.4018 24.2368 52.4018 24.2368 52.4121C22.8903 53.7997 20.8345 55.2696 18.4293 56.5133L18.419 56.503Z" fill="#131617"/>
<g opacity="0.53" style="mix-blend-mode:multiply">
<path d="M25.0997 50.2226C25.0381 50.4487 24.9661 50.6749 24.8839 50.8907C24.7708 51.2299 24.6475 51.5383 24.5036 51.8569C24.4213 52.042 24.3391 52.2167 24.2466 52.4017C24.2466 52.4017 24.2466 52.4017 24.2466 52.412C23.1262 54.5705 21.348 56.431 19.0147 57.6336C16.6917 58.8362 14.1529 59.2165 11.7374 58.8773C11.5216 58.8465 11.316 58.8053 11.1001 58.7745C10.7712 58.7026 10.4628 58.6306 10.1442 58.5381C9.90779 58.4764 9.67138 58.4045 9.44525 58.3222C8.09874 57.8597 6.83446 57.1505 5.71408 56.2357C5.57018 56.1226 5.44683 56.0095 5.30293 55.8862C4.84039 55.4648 4.3984 55.0125 4.00781 54.5191C9.01355 55.6189 14.2351 53.8407 17.5346 49.8731C20.6593 46.1214 21.5433 41.0232 19.9295 36.48C20.8649 37.0659 21.7283 37.7854 22.4889 38.6282C22.5506 38.7002 22.6123 38.7619 22.674 38.8338C22.9515 39.1524 23.2187 39.4916 23.4551 39.8514C23.5065 39.9336 23.5682 40.0159 23.6196 40.0981C23.856 40.4578 24.0719 40.8279 24.2774 41.2185C24.9764 42.5753 25.3978 44.004 25.5623 45.443C25.5623 45.443 25.5623 45.443 25.5623 45.4533C25.5828 45.628 25.5931 45.8028 25.6034 45.9775C25.7062 47.4268 25.5417 48.8658 25.1408 50.2329L25.0997 50.2226Z" fill="#999999"/>
</g>
<g opacity="0.13" style="mix-blend-mode:screen">
<path d="M9.04404 41.784C7.6153 43.2128 5.76513 43.6856 4.92228 42.8427C4.07943 41.9999 4.55225 40.1497 5.98099 38.721C7.40973 37.2922 9.2599 36.8194 10.1028 37.6623C10.9456 38.5051 10.4728 40.3553 9.04404 41.784Z" fill="white"/>
</g>
<path d="M37.5754 58.5809C34.0902 59.9064 30.2179 59.9064 27.5519 59.1022C14.4753 55.7064 10.4689 38.1021 22.7859 29.568C24.9753 28.1233 27.3881 27.4531 27.5519 27.4531C30.1881 26.6638 34.0902 26.6489 37.5754 27.9744C39.6158 28.7638 41.4328 29.8957 43.0264 31.4148C43.5924 31.9808 44.0839 32.4723 44.6052 33.1425C44.6052 33.1425 45.0967 33.7531 45.0967 33.7978C51.3222 42.5404 47.4796 54.7532 37.5754 58.5511V58.5809Z" fill="#F38120"/>
<g opacity="0.88" style="mix-blend-mode:multiply">
<path d="M45.097 33.8128C45.097 33.8128 45.097 33.8128 45.097 33.7979C44.9332 33.5745 44.7843 33.3659 44.6205 33.1574C45.5885 35.6298 46.1843 39.2787 46.1843 43.2702C46.1843 47.2617 45.5885 50.9405 44.6056 53.4128C44.7843 53.1745 44.963 52.9511 45.1268 52.7128C45.946 50.2554 46.4375 46.9043 46.4375 43.2553C46.4375 39.6064 45.946 36.2553 45.1268 33.7979L45.097 33.8128ZM43.697 32.1149C43.697 32.1149 43.5928 31.9957 43.5332 31.9362C43.3694 31.7574 43.2056 31.6085 43.0268 31.4298C43.2353 31.7425 43.4439 32.1149 43.6226 32.517C44.7545 34.9596 45.4694 38.9213 45.4694 43.2702C45.4694 48.2894 44.5013 52.9064 43.0268 55.1256C43.2651 54.9022 43.5034 54.6639 43.7119 54.4256C44.9481 51.9681 45.7077 47.8575 45.7077 43.2702C45.7077 38.683 44.9332 34.5574 43.6822 32.1L43.697 32.1149ZM38.246 28.2574C38.0226 28.1532 37.7992 28.0787 37.5757 27.9893C40.2864 30 42.2524 36.0915 42.2524 43.2851C42.2524 43.3894 42.2524 43.5085 42.2524 43.6277C42.1928 50.6724 40.2417 56.615 37.5757 58.5958C37.7992 58.5065 38.0226 58.4171 38.246 58.3277C40.7481 55.9001 42.5056 50.0766 42.5056 43.3V43.0468C42.4609 36.3745 40.7183 30.6702 38.246 28.2723V28.2574ZM29.9949 27.0063C29.8608 27.0063 29.7417 27.0361 29.6076 27.051C32.6162 28.5553 34.88 35.2723 34.88 43.2851C34.88 46.9937 34.3885 50.4192 33.5842 53.1894C32.631 56.4065 31.2162 58.715 29.6076 59.5341C29.7417 59.5341 29.8608 59.5639 29.9949 59.5788C31.5736 58.5958 32.9438 56.2277 33.8672 53.0405C34.6566 50.3 35.1332 46.9341 35.1332 43.3C35.1332 35.466 32.9587 28.8681 30.0098 27.0212L29.9949 27.0063ZM27.9098 27.3489C27.7906 27.3787 27.6715 27.4085 27.5523 27.4532C30.5459 28.5851 32.8396 35.2574 32.8396 43.2702C32.8396 47.5447 32.1842 51.4469 31.1268 54.3064C30.2034 56.8235 28.9523 58.566 27.5523 59.0873C27.6715 59.1171 27.7906 59.1618 27.9098 59.1916C29.28 58.4916 30.4864 56.7043 31.3949 54.2022C32.4374 51.3128 33.0779 47.4702 33.0779 43.2702C33.0779 35.4064 30.8587 28.8383 27.9098 27.3489ZM22.7714 29.5681C22.697 29.6276 22.6225 29.6723 22.548 29.717C25.4076 31.3702 27.5076 36.8362 27.5076 43.2702C27.5076 48.6022 26.0629 53.249 23.9629 55.6469C23.531 56.1533 23.0544 56.5405 22.5629 56.8235C22.6374 56.883 22.7119 56.9277 22.7863 56.9724C23.3076 56.6448 23.814 56.183 24.2757 55.632C26.3608 53.1298 27.7608 48.5277 27.7608 43.2553C27.7608 36.8213 25.6608 31.3553 22.7863 29.5532L22.7714 29.5681ZM21.6842 30.3425C21.6842 30.3425 21.5353 30.4468 21.4608 30.5213C24.2012 31.3702 26.331 36.7617 26.331 43.2702C26.331 49.0639 24.648 53.9639 22.3544 55.5873C22.0714 55.7958 21.7736 55.9447 21.4608 56.0341C21.5353 56.0937 21.6097 56.1533 21.6842 56.2128C22.0268 56.0788 22.3693 55.8703 22.697 55.6171C24.9608 53.7852 26.5693 48.9447 26.5693 43.2851C26.5693 36.8064 24.4544 31.4 21.6842 30.3574V30.3425ZM18.8097 33.217C18.8097 33.217 18.7055 33.3511 18.6608 33.4106C20.2842 34.4383 21.5055 38.4745 21.5055 43.2702C21.5055 48.066 20.2842 52.1171 18.6608 53.1447C18.7204 53.2043 18.765 53.2788 18.8097 53.3384C20.5225 52.2362 21.7587 48.2149 21.7587 43.2702C21.7587 38.3255 20.5225 34.3191 18.8097 33.217ZM16.8438 36.4191C16.814 36.5085 16.7693 36.583 16.7246 36.6723C16.7544 36.6723 16.7991 36.6723 16.8289 36.6723C17.6778 36.6723 18.5863 39.3234 18.5863 43.2851C18.5863 47.2468 17.6778 49.8979 16.8289 49.8979C16.7991 49.8979 16.7544 49.8979 16.7246 49.8979C16.7693 49.9873 16.7991 50.0617 16.8438 50.1511C18.0948 50.1362 18.8395 46.6511 18.8395 43.2851C18.8395 39.9192 18.0948 36.4489 16.8438 36.434V36.4191Z" fill="#F7CC2F"/>
</g>
<g opacity="0.88" style="mix-blend-mode:multiply">
<path d="M48.1058 43.2704C48.1058 46.7853 46.9887 50.047 45.1121 52.7278C44.9483 52.9661 44.7696 53.1895 44.5909 53.4278C44.3079 53.7704 44.0249 54.1129 43.727 54.4257C43.5036 54.664 43.2802 54.9023 43.0419 55.1257C41.6568 56.4513 40.0334 57.5385 38.261 58.2981C38.0376 58.4023 37.8142 58.4768 37.5908 58.5662C35.7738 59.2513 33.8078 59.6385 31.7525 59.6385C31.1568 59.6385 30.5759 59.6087 30.01 59.5491C29.8759 59.5491 29.7568 59.5193 29.6227 59.5045C29.0419 59.43 28.4759 59.3257 27.9248 59.1917C27.8057 59.1619 27.6865 59.1321 27.5674 59.0874C25.8546 58.6406 24.2461 57.9108 22.8014 56.9725C22.727 56.913 22.6525 56.8683 22.578 56.8236C22.295 56.63 21.9972 56.4215 21.7142 56.1981C21.6397 56.1385 21.5652 56.0938 21.4908 56.0193C21.2376 55.8108 20.9844 55.6023 20.7312 55.364C21.2823 55.4534 21.8333 55.5278 22.3844 55.5725C22.5035 55.5725 22.6078 55.5874 22.727 55.6023C23.144 55.6321 23.5461 55.647 23.9631 55.647C24.0674 55.647 24.1716 55.647 24.2759 55.647C26.6291 55.6172 28.9525 55.1555 31.127 54.3215C31.2163 54.2917 31.3057 54.247 31.41 54.2172C32.1546 53.9193 32.8844 53.5619 33.5993 53.1746C33.6887 53.1151 33.7929 53.0704 33.8823 53.0108C35.9078 51.8491 37.7547 50.33 39.3036 48.4682C40.5398 46.9789 41.5377 45.3406 42.2674 43.6129C42.3568 43.4193 42.4462 43.2257 42.5206 43.0321C43.8313 39.6959 44.2334 36.0618 43.6526 32.5171C43.6228 32.3235 43.593 32.1299 43.5483 31.9363C43.6079 31.9959 43.6526 32.0554 43.7121 32.115C44.0249 32.4576 44.3377 32.8001 44.6206 33.1725C44.7845 33.381 44.9483 33.5895 45.0972 33.8129C45.0972 33.8129 45.0972 33.8129 45.0972 33.8278C46.9887 36.4937 48.1058 39.7703 48.1058 43.2853V43.2704Z" fill="#F7CC2F"/>
</g>
<g opacity="0.26" style="mix-blend-mode:screen">
<path d="M27.2987 36.7765C25.2285 38.8467 22.5476 39.5318 21.3263 38.3105C20.1051 37.0893 20.7902 34.4084 22.8604 32.3382C24.9306 30.268 27.6115 29.5828 28.8328 30.8041C30.054 32.0254 29.3689 34.7063 27.2987 36.7765Z" fill="white"/>
</g>
<path d="M75.9079 62.253C76.2345 61.6879 76.4228 61.0223 76.4228 60.319C76.4228 58.1714 74.6772 56.4258 72.5297 56.4258C70.3821 56.4258 68.6365 58.1714 68.6365 60.319C68.6365 61.0223 68.8248 61.6879 69.1514 62.253C68.423 63.0568 67.9834 64.1243 67.9834 65.2922C67.9834 66.6235 68.5485 67.804 69.4528 68.6454C69.4779 68.6705 69.503 68.6956 69.5281 68.7333L75.9331 62.3284C75.9331 62.3284 75.8954 62.2907 75.8828 62.2656L75.9079 62.253ZM75.0163 61.4744C74.3004 61.0097 73.459 60.746 72.5422 60.746C71.6254 60.746 70.784 61.0097 70.0681 61.4744C69.7919 61.1353 69.6286 60.7334 69.6286 60.3064C69.6286 59.0882 70.9347 58.1086 72.5422 58.1086C74.1497 58.1086 75.4558 59.0882 75.4558 60.3064C75.4558 60.7334 75.2926 61.1353 75.0163 61.4744Z" fill="#31465A"/>
<path d="M75.9579 62.3035L69.553 68.7084C69.6786 68.834 69.8167 68.9345 69.98 69.0224C70.2563 69.1731 70.5702 69.261 70.9093 69.261H74.1871C74.5262 69.261 74.8402 69.1731 75.1039 69.0224C75.2923 68.9219 75.4681 68.7838 75.6188 68.6205C76.5231 67.7916 77.0882 66.5985 77.0882 65.2799C77.0882 64.137 76.6612 63.0947 75.9705 62.3035H75.9579Z" fill="#293E4F"/>
<g opacity="0.4">
<path d="M69.578 62.9564C69.0631 63.4462 68.7366 64.1746 68.7868 64.8904C68.8119 65.2295 69.3394 65.2295 69.3143 64.8904C69.2641 64.3127 69.5278 63.735 69.9422 63.3331C70.1808 63.0945 69.8166 62.7303 69.5655 62.9564H69.578Z" fill="white"/>
</g>
<path d="M83.797 64.3552C84.0256 63.9596 84.1575 63.4936 84.1575 63.0013C84.1575 61.4979 82.9354 60.2759 81.4321 60.2759C79.9287 60.2759 78.7067 61.4979 78.7067 63.0013C78.7067 63.4936 78.8385 63.9596 79.0671 64.3552C78.5572 64.9178 78.2495 65.6651 78.2495 66.4827C78.2495 67.4147 78.6451 68.2411 79.2781 68.8301C79.2957 68.8477 79.3133 68.8653 79.3309 68.8916L83.8146 64.4079C83.8146 64.4079 83.7882 64.3816 83.7794 64.364L83.797 64.3552ZM83.1728 63.8101C82.6717 63.4848 82.0826 63.3002 81.4409 63.3002C80.7991 63.3002 80.21 63.4848 79.7089 63.8101C79.5155 63.5727 79.4012 63.2914 79.4012 62.9925C79.4012 62.1397 80.3155 61.454 81.4409 61.454C82.5662 61.454 83.4805 62.1397 83.4805 62.9925C83.4805 63.2914 83.3662 63.5727 83.1728 63.8101Z" fill="#31465A"/>
<path d="M83.8321 64.3901L79.3484 68.8738C79.4363 68.9618 79.533 69.0321 79.6473 69.0936C79.8407 69.1991 80.0605 69.2607 80.2979 69.2607H82.5925C82.8299 69.2607 83.0497 69.1991 83.2343 69.0936C83.3662 69.0233 83.4892 68.9266 83.5947 68.8123C84.2277 68.2321 84.6233 67.3969 84.6233 66.4737C84.6233 65.6737 84.3244 64.944 83.8409 64.3901H83.8321Z" fill="#293E4F"/>
<g opacity="0.4">
<path d="M79.366 64.8474C79.0056 65.1903 78.777 65.7002 78.8122 66.2013C78.8297 66.4387 79.199 66.4387 79.1814 66.2013C79.1462 65.7969 79.3309 65.3925 79.621 65.1111C79.788 64.9441 79.5331 64.6891 79.3572 64.8474H79.366Z" fill="white"/>
</g>
<path d="M89.2535 57.709H87.2817V58.8895H89.2535V57.709Z" fill="#001923"/>
<path d="M89.2406 59.6053V58.8895L88.9266 58.5127H87.5954L87.2814 58.8895V59.6053C86.553 59.6053 85.9502 60.1956 85.9502 60.9365V72.0384C85.9502 72.2268 86.1135 72.3901 86.3018 72.3901H90.2201C90.4085 72.3901 90.5718 72.2268 90.5718 72.0384V60.9365C90.5718 60.2081 89.9815 59.6053 89.2406 59.6053Z" fill="#15B9E5"/>
<path d="M89.2407 59.6053V58.8894L89.09 58.7136H88.2737V72.3901H90.2203C90.4087 72.3901 90.5719 72.2268 90.5719 72.0384V60.9365C90.5719 60.2081 89.9817 59.6053 89.2407 59.6053Z" fill="#16ACD4"/>
<path d="M89.2403 57.709H87.2686V58.8895H89.2403V57.709Z" fill="#001923"/>
<path d="M89.2403 57.709H87.2686V58.2992H89.2403V57.709Z" fill="#595959"/>
<path d="M90.5718 61.5518H85.9502V62.4434H90.5718V61.5518Z" fill="#E8901C"/>
<path d="M90.5718 62.9712H85.9502V63.8629H90.5718V62.9712Z" fill="#E8901C"/>
</svg>
