<svg width="100" height="100" viewBox="0 0 100 100" fill="none" xmlns="http://www.w3.org/2000/svg">
<path d="M78.699 20.2389L95.8447 10.2749C95.2948 9.95591 94.7999 9.92292 94.4369 10.1319L78.71 19.2711V20.2279L78.699 20.2389Z" fill="#CBDBF4"/>
<path d="M95.8447 10.2748L78.699 20.2389V25.7488L97.2414 14.9709C97.5933 14.7619 97.8133 14.322 97.8243 13.7061C97.8243 12.4414 96.9445 10.9127 95.8447 10.2858V10.2748Z" fill="#DBE6FA"/>
<path d="M77.7532 9.04314C84.6599 13.0354 90.2468 22.7025 90.2248 30.643C90.2028 38.5834 84.5829 41.7838 77.6762 37.8026C70.7696 33.8103 65.1827 24.1432 65.2047 16.2028C65.2267 8.26229 70.8466 5.06191 77.7642 9.05413L77.7532 9.04314Z" fill="#2A3134"/>
<path d="M68.845 8.17426L72.8592 5.84271C75.1358 4.52297 78.2811 4.70993 81.7675 6.71155L77.7532 9.04309C74.2779 7.03048 71.1215 6.84352 68.845 8.17426Z" fill="#4F575F"/>
<path d="M90.5879 36.3398L86.5737 38.6714C88.8173 37.3626 90.214 34.5912 90.225 30.6429C90.247 22.7025 84.6601 13.0353 77.7534 9.0431L81.7676 6.71155C88.6743 10.7038 94.2612 20.3709 94.2392 28.3114C94.2282 32.2596 92.8315 35.0311 90.5879 36.3398Z" fill="#4F575F"/>
<path d="M71.5835 12.6285C78.4902 16.6207 84.0771 26.2878 84.0551 34.2283C84.0331 42.1688 78.4132 45.3691 71.5066 41.3879C64.5999 37.3957 59.013 27.7285 59.035 19.7881C59.057 11.8476 64.6769 8.64723 71.5945 12.6395L71.5835 12.6285Z" fill="#2A3134"/>
<path d="M62.6753 11.7596L66.6895 9.42804C68.9661 8.1083 72.1115 8.29526 75.5978 10.2969L71.5836 12.6284C68.1082 10.6158 64.9519 10.4288 62.6753 11.7596Z" fill="#4F575F"/>
<path d="M84.4183 39.9251L80.404 42.2567C82.6476 40.9479 84.0443 38.1765 84.0553 34.2282C84.0773 26.2878 78.4904 16.6207 71.5837 12.6284L75.598 10.2969C82.5046 14.2891 88.0916 23.9562 88.0696 31.8967C88.0586 35.8449 86.6618 38.6164 84.4183 39.9251Z" fill="#4F575F"/>
<path d="M64.6991 25.5619C64.6991 28.5313 66.7777 32.1496 69.3622 33.6453L65.348 35.9769C62.7635 34.4812 60.6739 30.8629 60.6849 27.8934C62.0266 27.1126 63.3573 26.3427 64.6991 25.5619Z" fill="#4F575F"/>
<path d="M66.0738 22.5594C65.2379 23.0434 64.71 24.0882 64.71 25.5619C63.3683 26.3427 62.0375 27.1126 60.6958 27.8934C60.6958 26.4197 61.2237 25.3859 62.0595 24.891C63.2693 24.1871 64.875 23.2633 66.0738 22.5594Z" fill="#4F575F"/>
<path d="M63.269 26.9696L67.2833 24.6381C66.7444 24.946 66.4144 25.6059 66.4144 26.5407C66.4144 28.4213 67.7342 30.7199 69.3729 31.6657L65.3586 33.9973C63.72 33.0514 62.3892 30.7529 62.4002 28.8722C62.4002 27.9374 62.7302 27.2776 63.269 26.9696Z" fill="#FFB63C"/>
<path d="M69.3731 33.6343C70.6709 34.3821 71.8476 34.4591 72.7055 33.9642L68.6912 36.2958C67.8444 36.7907 66.6676 36.7247 65.3589 35.9658C66.5687 35.262 68.1743 34.3381 69.3731 33.6343Z" fill="#4F575F"/>
<path d="M71.4847 31.8856L67.4705 34.2171C66.9316 34.5361 66.1837 34.4921 65.3589 34.0082L69.3731 31.6766C70.198 32.1495 70.9458 32.1935 71.4847 31.8856Z" fill="#FFA20D"/>
<path d="M65.4136 16.2138C72.3203 20.206 77.9072 29.8731 77.8852 37.8136C77.8632 45.7541 72.2433 48.9545 65.3366 44.9732C58.43 40.981 52.8431 31.3139 52.8651 23.3734C52.8871 15.4329 58.507 12.2326 65.4246 16.2248L65.4136 16.2138ZM65.3586 35.966C67.9431 37.4617 70.0437 36.2629 70.0547 33.2935C70.0547 30.3241 67.9761 26.7058 65.3916 25.21C62.8071 23.7143 60.7065 24.9131 60.6955 27.8825C60.6955 30.852 62.7741 34.4703 65.3586 35.966Z" fill="#2A3134"/>
<path d="M65.3809 25.2209C67.9654 26.7166 70.055 30.3349 70.044 33.3044C70.044 36.2738 67.9325 37.4726 65.348 35.9768C62.7635 34.4811 60.6739 30.8628 60.6849 27.8934C60.6849 24.924 62.7964 23.7252 65.3809 25.2209ZM65.359 34.0082C66.9976 34.954 68.3284 34.1952 68.3394 32.3145C68.3394 30.4339 67.0196 28.1354 65.3809 27.1895C63.7423 26.2437 62.4005 27.0026 62.4005 28.8832C62.4005 30.7638 63.7203 33.0624 65.359 34.0082Z" fill="#FFCA6C"/>
<path d="M56.5054 15.3448L60.5196 13.0132C62.7962 11.6935 65.9415 11.8805 69.4279 13.8821L65.4137 16.2136C61.9383 14.201 58.7819 14.0141 56.5054 15.3448Z" fill="#4F575F"/>
<path d="M78.2483 43.5105L74.2341 45.842C76.4777 44.5333 77.8744 41.7618 77.8854 37.8136C77.9074 29.8731 72.3205 20.206 65.4138 16.2137L69.428 13.8822C76.3347 17.8744 81.9216 27.5416 81.8996 35.482C81.8886 39.4303 80.4919 42.2017 78.2483 43.5105Z" fill="#4F575F"/>
<path d="M66.0076 27.6185C65.8866 27.6845 62.0374 29.928 62.2793 29.7851C61.7294 29.4661 61.2345 29.4331 60.8716 29.6531C60.9926 29.5871 65.5127 26.9586 65.2487 27.1126C65.4797 27.2336 65.7436 27.4095 66.0076 27.6295V27.6185Z" fill="#CBDBF4"/>
<path d="M68.3062 31.7867C68.1302 31.8857 63.4121 34.6352 63.6651 34.4812C64.116 34.2173 64.2699 33.6234 64.2369 33.1175C64.193 31.8637 63.3021 30.39 62.2573 29.7851C63.786 28.8943 66.1396 27.5306 65.9856 27.6186C67.1844 28.6084 68.1082 30.28 68.2842 31.7867H68.3062Z" fill="#DBE6FA"/>
<path d="M21.9722 52.2537L62.2574 28.8393C62.6203 28.6303 63.1152 28.6633 63.6651 28.9822L23.3799 52.3967C22.83 52.0778 22.3351 52.0448 21.9722 52.2537Z" fill="#CBDBF4"/>
<path d="M65.0731 33.6673L24.7878 57.0817C25.1398 56.8728 25.3597 56.4329 25.3707 55.817C25.3707 54.5522 24.4909 53.0235 23.3911 52.3967L63.6763 28.9822C64.7761 29.6091 65.6559 31.1488 65.6559 32.4025C65.6559 33.0294 65.436 33.4693 65.0731 33.6673Z" fill="#DBE6FA"/>
<path d="M26.8882 38.6054C33.7949 42.5976 39.3818 52.2648 39.3598 60.2052C39.3378 68.1457 33.7179 71.3461 26.8113 67.3648C19.9046 63.3726 14.3177 53.7055 14.3397 45.765C14.3617 37.8245 19.9816 34.6242 26.8992 38.6164L26.8882 38.6054Z" fill="#2A3134"/>
<path d="M17.98 37.7365L21.9942 35.405C24.2708 34.0852 27.4162 34.2722 30.9025 36.2738L26.8883 38.6054C23.4129 36.5927 20.2565 36.4058 17.98 37.7365Z" fill="#4F575F"/>
<path d="M39.7227 65.9021L35.7085 68.2336C37.952 66.9249 39.3488 64.1534 39.3598 60.2052C39.3818 52.2647 33.7948 42.5976 26.8882 38.6054L30.9024 36.2738C37.8091 40.266 43.396 49.9332 43.374 57.8736C43.363 61.8219 41.9663 64.5933 39.7227 65.9021Z" fill="#4F575F"/>
<path d="M20.7186 42.1907C27.6252 46.1829 33.2121 55.8501 33.1901 63.7905C33.1682 71.731 27.5482 74.9314 20.6416 70.9502C13.7349 66.9579 8.14799 57.2908 8.16999 49.3503C8.19198 41.4099 13.8119 38.2095 20.7296 42.2017L20.7186 42.1907Z" fill="#2A3134"/>
<path d="M11.8103 41.3218L15.8245 38.9903C18.1011 37.6706 21.2465 37.8575 24.7328 39.8591L20.7186 42.1907C17.2433 40.1781 14.0869 39.9911 11.8103 41.3218Z" fill="#4F575F"/>
<path d="M33.553 69.4874L29.5388 71.8189C31.7824 70.5102 33.1791 67.7387 33.1901 63.7905C33.2121 55.85 27.6252 46.1829 20.7185 42.1907L24.7327 39.8591C31.6394 43.8514 37.2263 53.5185 37.2043 61.459C37.1933 65.4072 35.7966 68.1787 33.553 69.4874Z" fill="#4F575F"/>
<path d="M13.8338 55.1132C13.8338 58.0826 15.9124 61.7009 18.4969 63.1966L14.4827 65.5282C11.8982 64.0324 9.80863 60.4141 9.81962 57.4447C11.1614 56.6639 12.4921 55.894 13.8338 55.1132Z" fill="#4F575F"/>
<path d="M15.1975 52.1218C14.3617 52.6057 13.8338 53.6505 13.8338 55.1242C12.4921 55.9051 11.1613 56.6749 9.81958 57.4558C9.81958 55.9821 10.3475 54.9483 11.1833 54.4534C12.3931 53.7495 13.9988 52.8257 15.1975 52.1218Z" fill="#4F575F"/>
<path d="M12.3928 56.532L16.407 54.2004C15.8682 54.5084 15.5382 55.1683 15.5382 56.1031C15.5382 57.9837 16.858 60.2823 18.4966 61.2281L14.4824 63.5596C12.8437 62.6138 11.513 60.3153 11.524 58.4346C11.524 57.4998 11.8539 56.8399 12.3928 56.532Z" fill="#FFB63C"/>
<path d="M20.6195 61.4369L16.6052 63.7684C16.0663 64.0874 15.3185 64.0434 14.4937 63.5595L18.5079 61.2279C19.3327 61.7008 20.0806 61.7448 20.6195 61.4369Z" fill="#FFA20D"/>
<path d="M14.5486 45.776C21.4553 49.7683 27.0422 59.4354 27.0202 67.3759C26.9982 75.3163 21.3783 78.5167 14.4717 74.5355C7.56499 70.5433 1.97807 60.8761 2.00006 52.9357C2.02206 44.9952 7.64197 41.7948 14.5596 45.787L14.5486 45.776ZM14.4936 65.5282C17.0781 67.0239 19.1787 65.8252 19.1897 62.8557C19.1897 59.8863 17.1111 56.268 14.5266 54.7723C11.9421 53.2766 9.84155 54.4754 9.83055 57.4448C9.83055 60.4142 11.9091 64.0325 14.4936 65.5282Z" fill="#2A3134"/>
<path d="M14.5157 54.7722C17.1002 56.2679 19.1898 59.8862 19.1788 62.8556C19.1788 65.8251 17.0672 67.0238 14.4827 65.5281C11.8982 64.0324 9.80863 60.4141 9.81962 57.4447C9.81962 54.4752 11.9312 53.2765 14.5157 54.7722ZM14.4937 63.5705C16.1324 64.5163 17.4631 63.7575 17.4741 61.8768C17.4741 59.9962 16.1544 57.6976 14.5157 56.7518C12.877 55.806 11.5353 56.5648 11.5353 58.4455C11.5353 60.3261 12.855 62.6247 14.4937 63.5705Z" fill="#FFCA6C"/>
<path d="M5.64038 44.9072L9.6546 42.5756C11.9312 41.2559 15.0766 41.4428 18.5629 43.4445L14.5487 45.776C11.0733 43.7634 7.91694 43.5764 5.64038 44.9072Z" fill="#4F575F"/>
<path d="M27.3831 73.0727L23.3689 75.4043C25.6124 74.0955 27.0092 71.3241 27.0202 67.3758C27.0422 59.4354 21.4552 49.7682 14.5486 45.776L18.5628 43.4445C25.4695 47.4367 31.0564 57.1038 31.0344 65.0443C31.0234 68.9925 29.6267 71.764 27.3831 73.0727Z" fill="#4F575F"/>
<path d="M15.1425 57.1807L4.52952 63.3505L4.33156 63.4605C3.78166 63.1416 3.28676 63.1086 2.92383 63.3285L4.46353 62.4377L14.3836 56.6748C14.3836 56.6748 14.4716 56.7188 14.5156 56.7518C14.7355 56.8728 14.9445 57.0267 15.1425 57.1917V57.1807Z" fill="#CBDBF4"/>
<path d="M17.441 61.3489L7.01501 67.4087L5.73926 68.1565C6.09119 67.9476 6.31115 67.5077 6.32215 66.8918C6.32215 66.8588 6.32215 66.8258 6.32215 66.7928C6.28915 65.649 5.5523 64.3183 4.59548 63.6254C4.5185 63.5594 4.43051 63.5044 4.34253 63.4604L4.54049 63.3505L15.1534 57.1807C16.3522 58.1705 17.276 59.8422 17.452 61.3489H17.441Z" fill="#DBE6FA"/>
<path d="M4.33144 63.4605C5.43122 64.0874 6.31105 65.6271 6.31105 66.8808C6.31105 68.1346 5.40923 68.6405 4.32044 68.0136C3.23165 67.3867 2.34082 65.847 2.34082 64.5933C2.34082 63.3285 3.23165 62.8226 4.33144 63.4605Z" fill="#BBCFEF"/>
<path d="M89.8655 62.0118V79.2834C90.0051 81.045 88.9095 82.8387 86.568 84.1921C82.1534 86.7377 75.0106 86.7377 70.5961 84.1921C68.3942 82.9246 67.2878 81.249 67.2878 79.5842V62.0226H89.8655V62.0118Z" fill="#3D4449"/>
<path d="M70.5963 57.404C66.1818 59.9496 66.1818 64.0742 70.5963 66.6198C75.0109 69.1654 82.1537 69.1654 86.5682 66.6198C90.9828 64.0742 90.9828 59.9496 86.5682 57.404C82.1537 54.8583 75.0109 54.8583 70.5963 57.404Z" fill="#7A7A7A"/>
<path d="M88.1364 56.6949V59.7776C88.2545 61.2706 87.3201 62.7959 85.3437 63.9344C81.6058 66.0934 75.5479 66.0934 71.8207 63.9344C69.9518 62.8603 69.0173 61.4425 69.0173 60.0247V56.6949H88.1364Z" fill="#3D4449"/>
<path d="M71.8207 52.7852C68.0829 54.9442 68.0829 58.435 71.8207 60.594C75.5586 62.7529 81.6166 62.7529 85.3437 60.594C89.0816 58.435 89.0816 54.9442 85.3437 52.7852C81.6058 50.6263 75.5479 50.6263 71.8207 52.7852Z" fill="#7A7A7A"/>
<path d="M86.5682 81.8612C85.0215 82.7528 83.1311 83.3328 81.144 83.6013C79.4577 83.8269 77.7069 83.8269 76.0313 83.6013C74.0442 83.3328 72.1538 82.7528 70.6071 81.8612C68.4051 80.5938 67.2988 78.9182 67.2988 77.2533V64.0741C67.2988 65.739 68.4051 67.4146 70.6071 68.682C75.0216 71.2276 82.1644 71.2276 86.579 68.682C88.6735 67.4683 89.7691 65.9108 89.8765 64.3211V76.9526C90.0161 78.7141 88.9205 80.5079 86.579 81.8612H86.5682Z" fill="white"/>
<path d="M86.5682 80.2608C85.9667 80.6045 85.3115 80.9052 84.6134 81.163C83.5285 81.5604 82.3578 81.8397 81.144 82.0008C79.4577 82.2264 77.7069 82.2264 76.0313 82.0008C74.8175 81.8397 73.6468 81.5604 72.5619 81.163C71.8638 80.9052 71.2086 80.6045 70.6071 80.2608C68.4051 78.9933 67.2988 77.3177 67.2988 75.6529V65.6744C67.2988 67.3393 68.4051 69.0149 70.6071 70.2823C75.0216 72.828 82.1644 72.828 86.579 70.2823C88.6735 69.0686 89.7691 67.5112 89.8765 65.9215V75.3521C90.0161 77.1136 88.9205 78.9074 86.579 80.2608H86.5682Z" fill="#F4704D"/>
<path d="M84.6564 80.4863C84.6564 80.7119 84.6457 80.9374 84.6134 81.163C83.5286 81.5604 82.3578 81.8397 81.1441 82.0008C79.4578 82.2264 77.707 82.2264 76.0314 82.0008C74.8176 81.8397 73.6469 81.5604 72.562 81.163C72.5298 80.9374 72.519 80.7119 72.519 80.4863C72.519 77.2747 75.2365 74.6754 78.5877 74.6754C81.9389 74.6754 84.6564 77.2747 84.6564 80.4863Z" fill="#FFCA6C"/>
<path d="M85.7948 75.5026C85.6874 74.783 85.3974 74.2566 84.9893 73.8377C84.8496 73.6874 84.6992 73.5585 84.5381 73.4403C84.3233 73.2148 84.1192 72.9892 83.9044 72.7636C83.6789 72.6347 83.464 72.624 83.2492 72.7207C83.2277 72.7207 83.2062 72.7422 83.1848 72.7529C83.1633 72.7529 83.1418 72.7744 83.1203 72.7851C83.1096 72.7851 83.0881 72.8066 83.0773 72.8173C83.0666 72.8173 83.0451 72.8388 83.0344 72.8496C83.0236 72.8496 83.0022 72.8711 82.9914 72.8818C82.9914 72.8818 82.9699 72.8925 82.9592 72.9033C82.9377 72.9248 82.9055 72.957 82.884 72.9785C82.7014 73.1074 82.5081 73.2148 82.3147 73.2899C82.2288 73.3222 82.1644 73.4081 82.1751 73.4833C82.1751 73.5692 82.2718 73.6122 82.3684 73.5692C82.3899 73.5692 82.4221 73.5477 82.4436 73.537C82.4007 73.6122 82.3577 73.6874 82.3147 73.7626C82.2718 73.8377 82.2933 73.9129 82.3684 73.9237C82.3684 73.9237 82.4544 73.9237 82.4973 73.9022C82.4544 73.9774 82.4866 74.0526 82.551 74.0633C82.6047 74.074 82.6799 74.0526 82.7336 73.9989C82.7336 74.0526 82.7551 74.0955 82.8088 74.1063C82.884 74.117 82.9807 74.074 83.0236 73.9881C83.0236 74.0311 83.0451 74.074 83.0881 74.0848C83.1633 74.0848 83.2385 74.1063 83.3029 74.1063C83.3674 74.1278 83.4533 74.0955 83.507 74.0203C83.5285 73.9989 83.55 73.9666 83.5607 73.9452C83.6896 73.9559 83.8292 73.9666 83.9689 73.9559C84.087 74.9011 83.8077 75.4704 84.1515 75.8893C83.6037 75.4596 82.5833 76.0504 82.5188 76.6089C82.1858 76.276 81.058 76.4693 81.0043 77.0063C80.7358 76.7056 79.8336 76.6626 79.651 77.0708C79.651 76.9204 79.651 76.77 79.651 76.6197C79.6939 76.566 79.7476 76.5015 79.8013 76.4371C79.9195 76.2867 80.0054 76.0826 80.0699 75.8141C80.0699 75.8141 80.0806 75.8141 80.0913 75.8141C80.1236 75.8141 80.1451 75.8141 80.1773 75.7926C80.2954 75.7389 80.3276 75.5993 80.3599 75.4059C80.3921 75.1804 80.3813 74.9763 80.231 74.987C80.231 74.8044 80.2525 74.6326 80.2525 74.4607C80.2525 74.3641 80.2417 74.2781 80.2095 74.1922C80.3384 74.0955 80.4565 73.9666 80.5854 73.8163C80.5854 73.8055 80.3921 73.8163 80.4028 73.8163C80.5102 73.6766 80.5532 73.58 80.6391 73.3651C80.6177 73.3866 80.4351 73.6014 79.9732 73.6229C79.9517 73.6229 80.0591 73.4833 80.0376 73.494C79.7799 73.5692 79.5758 73.58 79.3717 73.537C79.1784 73.494 79.0387 73.4833 78.9635 73.4833C78.9313 73.4833 78.9098 73.4833 78.9098 73.4833C78.9958 73.4188 78.9098 73.247 78.9098 73.2685C78.7272 73.4618 78.4802 73.4081 77.8465 73.537C77.6531 73.58 77.5028 73.6551 77.3416 73.784C77.3202 73.8055 77.2987 73.827 77.2665 73.8485C77.0839 74.0096 76.9764 74.2352 76.9764 74.4715C76.9764 74.6433 76.9979 74.8152 77.0087 74.9978C76.8583 74.9978 76.8261 75.1911 76.8583 75.4167C76.8798 75.5993 76.9335 75.7497 77.0516 75.8034C77.0839 75.8141 77.1053 75.8248 77.1376 75.8248H77.159C77.2128 76.0934 77.2987 76.2974 77.4168 76.4478C77.4705 76.5123 77.5135 76.5767 77.5565 76.6304C77.5565 76.7808 77.5565 76.9419 77.5565 77.0923C77.3631 76.77 76.4824 76.6949 76.2031 77.0278C76.1064 76.7593 75.5479 76.3082 74.6886 76.6304C74.6886 76.6197 74.1301 75.3307 73.056 75.9108C73.3997 75.4919 73.1204 74.9226 73.2386 73.9774H73.303C73.4212 73.9774 73.5286 73.9774 73.636 73.9666C73.6575 73.9881 73.6789 74.0203 73.6897 74.0418C73.7434 74.1063 73.8293 74.1492 73.8938 74.1277C73.969 74.1277 74.0334 74.1063 74.1086 74.1063C74.1516 74.1063 74.173 74.0633 74.173 74.0096C74.216 74.0848 74.3127 74.1385 74.3879 74.1277C74.4416 74.117 74.4738 74.074 74.463 74.0203C74.506 74.074 74.5812 74.0955 74.6456 74.0848C74.7208 74.074 74.7423 73.9989 74.6993 73.9237C74.7423 73.9452 74.7853 73.9559 74.8282 73.9452C74.9034 73.9344 74.9249 73.8485 74.8819 73.784C74.839 73.7088 74.796 73.6337 74.753 73.5585C74.7745 73.5585 74.8068 73.58 74.8282 73.5907C74.9249 73.6229 75.0108 73.5907 75.0216 73.5048C75.0216 73.4188 74.9679 73.3329 74.8819 73.3007C74.6779 73.2255 74.4953 73.1181 74.3127 72.9892C74.2912 72.9677 74.259 72.9355 74.2375 72.914C74.2375 72.914 74.216 72.8925 74.2053 72.8925C74.1945 72.8818 74.173 72.871 74.1623 72.8603C74.1516 72.8603 74.1408 72.8388 74.1193 72.8281C74.1086 72.8281 74.0871 72.8066 74.0764 72.7959C74.0549 72.7851 74.0334 72.7744 74.0119 72.7636C73.9904 72.7529 73.969 72.7422 73.9475 72.7314C73.7327 72.6455 73.5178 72.6455 73.2923 72.7744C73.0774 73.0107 72.8734 73.2362 72.6586 73.4511C72.4974 73.58 72.3471 73.7088 72.2074 73.8485C71.7456 74.3318 71.4341 74.9548 71.3589 75.8356C71.8422 76.6949 72.4008 77.3178 73.0023 77.7153C73.4426 78.0053 73.9045 78.1771 74.3771 78.2308C74.5597 78.7142 74.7638 79.1546 74.9894 79.552C75.0968 79.7346 75.2149 79.9172 75.3331 80.0783C75.3545 80.1105 75.376 80.1427 75.4083 80.175C75.8164 80.7442 76.042 81.335 76.0312 81.9043C76.0312 81.9365 76.0312 81.9794 76.0312 82.0117C77.7176 82.2372 79.4684 82.2372 81.144 82.0117C81.144 81.9794 81.144 81.9365 81.144 81.9043C81.144 81.292 81.391 80.6798 81.8421 80.0783C81.971 79.9172 82.0892 79.7346 82.1966 79.552C82.4329 79.1546 82.6262 78.7142 82.8088 78.2308C83.2814 78.1664 83.754 77.9945 84.1837 77.7153C84.7852 77.3178 85.3437 76.7056 85.8271 75.8463C85.8271 75.7282 85.8056 75.6208 85.7841 75.5241L85.7948 75.5026Z" fill="#3C3C3B"/>
<path d="M63.9797 84.1385C67.7176 86.2974 67.7176 89.799 63.9797 91.958C60.2418 94.1169 54.1731 94.1169 50.4352 91.958C46.6974 89.799 46.6974 86.2974 50.4352 84.1385C54.1731 81.9796 60.2418 81.9796 63.9797 84.1385Z" fill="#3C3C3B"/>
<path d="M66.5362 88.5639C61.2408 93.7196 52.7769 93.6122 47.6212 88.3168C42.4655 83.0215 42.5729 74.5576 47.8682 69.4019C48.2871 68.9937 48.7275 68.6178 49.1787 68.2741C50.3602 67.3826 51.6491 66.7166 53.0025 66.2763C55.3333 65.5136 57.8252 65.4062 60.199 65.9433C61.7457 66.2977 63.2387 66.9207 64.592 67.8337C65.3654 68.3493 66.0958 68.9508 66.7725 69.6489C71.9282 74.9335 71.8208 83.4082 66.5254 88.5639H66.5362Z" fill="#3D4449"/>
<path d="M64.6028 67.8337C64.5169 64.9981 62.6587 61.8617 60.2205 60.4546L55.473 57.7156C53.9585 56.8456 52.3795 56.7597 51.1336 57.4793C49.8876 58.199 49.1787 59.6168 49.1787 61.3568V68.2848C50.3602 67.3933 51.6491 66.7274 53.0025 66.287V61.3568C53.0025 61.0883 53.0455 60.9272 53.067 60.8305C53.1636 60.852 53.3247 60.895 53.5503 61.0346L58.2978 63.7736C59.0282 64.1925 59.7264 65.0303 60.1883 65.954C60.5427 66.6522 60.7683 67.4041 60.7683 68.0485V75.3632C60.7683 78.4781 64.5921 78.4781 64.5921 75.3632V68.0485C64.5921 67.9841 64.5921 67.9089 64.5921 67.8444L64.6028 67.8337Z" fill="#4F575F"/>
<path d="M53.4537 87.9195L46.182 83.7197C45.7524 83.4727 45.3764 82.9141 45.2797 82.3771C44.8286 79.8529 44.8286 77.5007 45.2797 75.4921C45.3764 75.0625 45.7524 74.9443 46.182 75.1913L53.4537 79.3911C53.8833 79.6381 54.2593 80.1967 54.3559 80.7337C54.807 83.2579 54.807 85.6101 54.3559 87.6187C54.2593 88.0484 53.8833 88.1665 53.4537 87.9195Z" fill="#706F6F"/>
<path d="M49.286 81.0881C49.4149 81.3137 49.4901 81.5392 49.4901 81.7433V83.29C49.4901 83.6122 49.3935 83.8271 49.2001 83.9452C49.0068 84.0634 48.7705 84.0311 48.4912 83.87L47.1486 83.0967C46.8693 82.9356 46.633 82.6885 46.4397 82.3448C46.2463 82.0011 46.1497 81.6789 46.1497 81.3566V80.5833L47.4923 81.3566V82.13L48.1582 82.5167V80.97L47.4923 80.5833V79.4232L48.1582 79.8099V78.6499L47.4923 78.2632V79.0366L46.1497 78.2632V77.4899C46.1497 77.1676 46.2463 76.9528 46.4397 76.8347C46.633 76.7165 46.8693 76.7487 47.1486 76.9098L48.4912 77.6832C48.7705 77.8443 49.0068 78.0914 49.2001 78.4351C49.3935 78.7788 49.4901 79.101 49.4901 79.4232V80.1966C49.4901 80.4114 49.4257 80.5511 49.286 80.6262C49.1571 80.7014 48.996 80.6907 48.8134 80.5833C48.996 80.6907 49.1571 80.8518 49.286 81.0881Z" fill="#3C3C3B"/>
<path d="M50.156 82.9142C50.156 82.4846 50.2849 82.1946 50.5534 82.0442C50.8112 81.8938 51.1334 81.926 51.4986 82.1409L51.8316 82.3342C51.9175 82.3879 52.0035 82.3986 52.0679 82.3557C52.1324 82.3127 52.1646 82.2483 52.1646 82.1409V80.9808L51.4986 80.5941V81.3675L50.156 80.5941V79.8208C50.156 79.4986 50.2527 79.2837 50.446 79.1656C50.6394 79.0474 50.8757 79.0797 51.1549 79.2408L52.4976 80.0141C52.7768 80.1752 53.0131 80.4223 53.2065 80.766C53.3998 81.1097 53.4965 81.4319 53.4965 81.7542V83.3009C53.4965 83.6231 53.3998 83.8379 53.2065 83.9561C53.0131 84.0742 52.7768 84.042 52.4976 83.8809L51.8209 83.4942C51.7349 83.4405 51.649 83.4298 51.5846 83.4727C51.5201 83.5157 51.4879 83.5802 51.4879 83.6876V84.4609L53.5072 85.621V86.781L50.1453 84.8476V82.9142H50.156Z" fill="#3C3C3B"/>
<path d="M50.8545 71.3245C50.1241 72.0012 49.1252 72.0979 48.6203 71.5501C48.1155 71.0023 48.2981 70.0141 49.0285 69.3375C49.7589 68.6608 50.7578 68.5641 51.2626 69.1119C51.7675 69.6597 51.5849 70.6479 50.8545 71.3245Z" fill="#EDEDED"/>
<path d="M48.2121 73.1612C47.9221 73.5909 47.428 73.7735 47.095 73.5586C46.7728 73.3438 46.7406 72.8175 47.0306 72.3771C47.3206 71.9475 47.8254 71.7649 48.1477 71.9797C48.4699 72.1945 48.5021 72.7208 48.2121 73.1612Z" fill="#EDEDED"/>
</svg>
