<svg width="100" height="100" viewBox="0 0 100 100" fill="none" xmlns="http://www.w3.org/2000/svg">
<path d="M14.2214 84.3854C18.1877 79.0381 22.1021 73.6493 25.9439 68.2086C26.9718 69.0912 28.0724 69.901 29.1522 70.7317C29.8686 71.2924 30.5851 71.8427 31.2807 72.4345L31.3326 72.476C28.768 75.5494 26.2553 78.6643 23.6804 81.7377C22.0918 83.7624 20.4305 85.7455 18.9353 87.8429C18.9872 87.8844 19.0807 87.9779 19.1326 88.0298C18.2916 87.438 17.4921 86.7838 16.6511 86.192C15.8516 85.5794 15.0417 84.9772 14.2318 84.3854" fill="#232324"/>
<path d="M68.8989 9.87689C68.5043 10.0949 68.2344 10.4583 67.9644 10.8114C66.9157 12.265 65.7113 13.594 64.673 15.058C64.5276 15.2761 64.3719 15.5045 64.2888 15.7641C64.1019 16.522 64.943 17.415 65.7113 17.0723C66.407 16.657 66.8015 15.9094 67.2999 15.2968C68.224 14.0197 69.2934 12.8672 70.2071 11.5901C70.8509 10.801 69.8334 9.48233 68.8989 9.88727" fill="#FCC022"/>
<path d="M62.2744 18.5467C61.8176 18.7336 61.5373 19.1593 61.2361 19.5331C60.8312 20.0937 60.3536 20.6337 60.094 21.2878C59.7306 22.1911 61.0389 23.1048 61.7657 22.4611C62.4821 21.8692 62.9909 21.0698 63.51 20.3222C64.1226 19.5434 63.2193 18.2352 62.2744 18.5467Z" fill="#FCC022"/>
<path d="M58.0387 24.1015C57.8102 24.2261 57.6441 24.4234 57.478 24.631C56.4916 25.9081 55.5571 27.2372 54.5292 28.4831C54.2489 28.8673 53.8958 29.2618 53.9062 29.7602C54.0516 30.269 54.4877 30.7674 55.0484 30.8193C55.609 30.7881 55.9621 30.2794 56.2943 29.8848C57.1976 28.6492 58.1736 27.476 59.0977 26.2611C59.3677 25.8977 59.6688 25.4617 59.5442 24.984C59.43 24.3403 58.672 23.7381 58.0387 24.1119" fill="#FCC022"/>
<path d="M79.9469 11.1125C79.2201 9.66927 77.7872 8.82825 76.5413 7.89378C75.6483 7.26041 74.7969 6.55437 73.8728 5.97292C72.4088 5.04883 70.4672 5.14228 68.972 5.94177C67.7572 6.5959 67.0719 7.85224 66.2309 8.90093C64.5073 11.1021 62.898 13.3968 61.1432 15.5876C57.0939 21.1217 52.9303 26.5832 49.0782 32.2523C42.6407 41.3582 36.8158 50.8691 30.9598 60.3488C29.2882 62.9757 27.7307 65.6753 25.9448 68.2295C26.9727 69.112 28.0733 69.9219 29.1532 70.7525C29.8696 71.3132 30.586 71.8635 31.2817 72.4554C37.6465 65.4987 44.1982 58.7186 50.5007 51.7101C54.9757 46.8405 59.2224 41.7528 63.4587 36.6755C68.9097 30.02 74.1428 23.188 79.4174 16.3975C80.5595 14.9231 80.8398 12.7842 79.9365 11.1125H79.9469Z" fill="#B6B6B6"/>
<path d="M20.7631 90.4697C20.6801 89.4314 19.974 88.5696 19.1122 88.04C18.2712 87.4482 17.4717 86.7941 16.6307 86.2022C15.8312 85.5897 15.0213 84.9874 14.2115 84.3956C13.5262 83.8142 12.7475 83.1704 11.7922 83.1808C10.1725 83.1808 8.79153 84.6656 8.75 86.2542C8.79153 87.1263 9.34183 87.8739 10.0375 88.3619C10.9823 89.0576 11.9168 89.7636 12.8409 90.4801C14.0038 91.373 15.1875 92.2244 16.3607 93.0966C16.7553 93.3769 17.1914 93.6469 17.6898 93.678C19.3614 93.7507 20.9708 92.1725 20.7528 90.4697H20.7631Z" fill="#B6B6B6"/>
<path d="M68.8989 9.87673C69.8334 9.4718 70.8509 10.7801 70.2071 11.5795C69.2934 12.8567 68.224 14.0092 67.2999 15.2863C66.8015 15.8989 66.407 16.6465 65.7113 17.0618C64.943 17.4148 64.1019 16.5115 64.2888 15.7535C64.3719 15.4939 64.5276 15.2759 64.673 15.0475C65.7113 13.5939 66.9157 12.2544 67.9644 10.8008C68.2344 10.4582 68.5043 10.0844 68.8989 9.86635" fill="#E4E4E4"/>
<path d="M62.2744 18.5467C63.2193 18.2352 64.1226 19.5434 63.51 20.3222C62.9909 21.0801 62.4821 21.8692 61.7657 22.4611C61.0389 23.1048 59.7306 22.1807 60.094 21.2878C60.364 20.6337 60.8312 20.1041 61.2361 19.5331C61.5373 19.1593 61.8176 18.7336 62.2744 18.5467Z" fill="#E4E4E4"/>
<path d="M58.0392 24.1017C58.6622 23.7383 59.4305 24.3405 59.5447 24.9738C59.6693 25.4515 59.3682 25.8875 59.0982 26.251C58.1742 27.4658 57.1878 28.639 56.2948 29.8746C55.9626 30.2692 55.6096 30.7779 55.0489 30.8091C54.4882 30.7676 54.0521 30.2692 53.9067 29.75C53.9067 29.2516 54.2494 28.8467 54.5297 28.4729C55.568 27.227 56.5025 25.9083 57.4785 24.6208C57.6446 24.4235 57.8108 24.2159 58.0392 24.0913V24.1017Z" fill="#E4E4E4"/>
<path d="M87.482 68.7545C87.482 69.1686 87.473 69.5738 87.446 69.9789C87.3379 71.7885 86.9868 73.526 86.4286 75.1736C85.9065 76.7131 85.2042 78.1715 84.3399 79.513C83.8628 80.2602 83.3316 80.9804 82.7644 81.6557C82.3053 82.2048 81.8101 82.727 81.297 83.2132C80.8828 83.6093 80.4597 83.9784 80.0095 84.3385C79.9285 84.4016 79.8565 84.4646 79.7755 84.5276C77.7588 86.0941 75.4451 87.2915 72.9242 88.0027C72.4921 88.1288 72.051 88.2278 71.6098 88.3268C71.1777 88.4169 70.7365 88.4979 70.2954 88.5519C69.8632 88.6149 69.4401 88.6599 68.999 88.6869C68.7739 88.705 68.5578 88.714 68.3328 88.723C68.0537 88.732 67.7746 88.741 67.4955 88.741C67.2164 88.741 66.9373 88.741 66.6582 88.723C63.4262 88.5879 60.3922 87.6876 57.7273 86.1931C56.755 85.653 55.8367 85.0228 54.9814 84.3385C54.7023 84.1135 54.4323 83.8884 54.1712 83.6543C54.0091 83.5103 53.8561 83.3662 53.694 83.2132C53.2529 82.79 52.8297 82.3489 52.4336 81.8897C51.2182 80.5033 50.1919 78.9458 49.3996 77.2532C48.5623 75.4797 47.9862 73.571 47.6981 71.5634C47.626 71.0412 47.572 70.5101 47.536 69.9699C47.509 69.5647 47.5 69.1596 47.5 68.7455C47.5 68.5924 47.5 68.4394 47.5 68.2863C47.509 67.7282 47.545 67.179 47.608 66.6298C47.6801 65.9456 47.7881 65.2794 47.9231 64.6221C48.5533 61.6422 49.8408 58.8963 51.6323 56.5645C51.8844 56.2314 52.1455 55.9163 52.4246 55.6012C52.7577 55.2231 53.0998 54.854 53.4599 54.5029C53.541 54.4308 53.613 54.3498 53.694 54.2778C53.8471 54.1337 54.0091 53.9807 54.1622 53.8457C54.4232 53.6116 54.7023 53.3775 54.9724 53.1524C56.755 51.712 58.7987 50.5776 61.0134 49.8213C62.796 49.2092 64.6866 48.849 66.6582 48.768C66.9373 48.759 67.2164 48.75 67.4955 48.75C67.5225 48.75 67.5495 48.75 67.5765 48.75C67.8286 48.75 68.0807 48.75 68.3328 48.768C70.0613 48.84 71.7359 49.1281 73.3204 49.6143C73.9326 49.8033 74.5358 50.0194 75.121 50.2625C76.8945 50.9917 78.5421 51.973 80.0095 53.1614C80.1446 53.2695 80.2796 53.3865 80.4147 53.4945C80.7118 53.7466 81.0089 54.0077 81.288 54.2868C81.486 54.4759 81.6841 54.6739 81.8731 54.872C82.2333 55.2501 82.5844 55.6372 82.9175 56.0424C84.1149 57.4918 85.1142 59.1124 85.8614 60.8679C86.1945 61.6332 86.4736 62.4344 86.7077 63.2447C87.1669 64.8562 87.4369 66.5488 87.473 68.3043C87.473 68.4574 87.473 68.6104 87.473 68.7635L87.482 68.7545Z" fill="#F2F2F2"/>
<path d="M60.9866 66.7465C60.9146 66.0893 60.8155 65.4411 60.6895 64.8019C60.6265 64.5138 60.5634 64.2167 60.4914 63.9286C60.0863 62.3351 59.4831 60.8136 58.6908 59.3641C58.6098 59.2201 58.5288 59.085 58.4568 58.95C58.3847 58.833 58.3127 58.7069 58.2407 58.5899C57.1423 56.7983 55.7739 55.2048 54.1624 53.8453C54.0003 53.9894 53.8473 54.1334 53.6942 54.2775C53.6132 54.3495 53.5412 54.4305 53.4601 54.5026C53.1 54.8537 52.7579 55.2228 52.4248 55.6009C53.8923 56.8073 55.1347 58.2208 56.116 59.8143C56.197 59.9403 56.2691 60.0664 56.3501 60.1924C56.4221 60.3184 56.4941 60.4535 56.5661 60.5795C57.2504 61.8309 57.7725 63.1634 58.1237 64.5408C58.1957 64.8289 58.2587 65.117 58.3217 65.4141C58.4207 65.9273 58.5018 66.4584 58.5558 66.9806C58.6548 67.8989 58.6728 68.8082 58.6188 69.6995C58.6008 69.9966 58.5738 70.2937 58.5468 70.5908C58.3847 72.0312 58.0516 73.4357 57.5475 74.7591C57.4394 75.0382 57.3224 75.3173 57.2054 75.5964C56.6202 76.9288 55.8639 78.1712 54.9636 79.3056C54.7746 79.5397 54.5855 79.7737 54.3784 79.9988C53.7842 80.674 53.127 81.3132 52.4248 81.8894C52.8299 82.3486 53.2441 82.7897 53.6852 83.2129C53.8383 83.3659 54.0003 83.51 54.1624 83.654C55.0176 82.9338 55.8189 82.1325 56.5481 81.2592C56.6112 81.1872 56.6742 81.1062 56.7372 81.0252C56.8632 80.8721 56.9893 80.7101 57.1063 80.548C58.1237 79.2156 58.9519 77.7751 59.5911 76.2446C59.7082 75.9655 59.8162 75.6864 59.9152 75.4073C60.0323 75.0922 60.1403 74.7681 60.2393 74.435C60.6265 73.1746 60.8785 71.8962 61.0046 70.5998C61.0316 70.3027 61.0496 70.0056 61.0676 69.7085C61.1126 68.7272 61.0856 67.7368 60.9866 66.7375V66.7465Z" fill="#CE625F"/>
<g opacity="0.2">
<path d="M58.6823 59.3643L56.5576 60.5887C56.4855 60.4537 56.4135 60.3277 56.3415 60.2016C56.2695 60.0756 56.1884 59.9495 56.1074 59.8235L58.2321 58.5901C58.3041 58.7071 58.3762 58.8242 58.4482 58.9502C58.5202 59.0762 58.6012 59.2113 58.6823 59.3643Z" fill="#686868"/>
<path d="M60.6813 64.802L58.3045 65.4232C58.2505 65.1261 58.1785 64.838 58.1064 64.5499L60.4832 63.9287C60.5552 64.2168 60.6273 64.5049 60.6813 64.802Z" fill="#686868"/>
<path d="M61.0679 69.7179C61.0499 70.015 61.0319 70.3121 61.0049 70.6092H58.5291C58.5651 70.3121 58.5831 70.015 58.6011 69.7179H61.0589H61.0679Z" fill="#686868"/>
<path d="M59.9156 75.4164C59.8166 75.6955 59.7086 75.9746 59.5915 76.2537L57.1877 75.6145C57.3048 75.3354 57.4218 75.0653 57.5299 74.7772L59.9156 75.4164Z" fill="#686868"/>
<path d="M57.1073 80.5572C56.9812 80.7193 56.8642 80.8724 56.7382 81.0344C56.6751 81.1154 56.6121 81.1875 56.5491 81.2685L54.3794 80.0171C54.5775 79.792 54.7755 79.5579 54.9646 79.3239L57.1163 80.5663L57.1073 80.5572Z" fill="#686868"/>
</g>
<path d="M57.8927 56.0055L53.9163 58.3012C53.3393 58.6344 53.1416 59.3722 53.4748 59.9492L53.4793 59.957C53.8124 60.534 54.5502 60.7317 55.1272 60.3986L59.1036 58.1028C59.6806 57.7697 59.8783 57.0319 59.5452 56.4548L59.5407 56.447C59.2075 55.87 58.4697 55.6723 57.8927 56.0055Z" fill="#E56C65"/>
<path d="M61.2168 61.2524L56.2006 62.5674C55.7148 62.6947 55.4243 63.1918 55.5516 63.6775L55.7046 64.261C55.8319 64.7468 56.329 65.0374 56.8148 64.91L61.8309 63.595C62.3167 63.4676 62.6073 62.9706 62.4799 62.4848L62.3269 61.9013C62.1996 61.4156 61.7026 61.125 61.2168 61.2524Z" fill="#E56C65"/>
<path d="M62.148 67.3142H57.5565C56.8902 67.3142 56.3501 67.8543 56.3501 68.5206V68.5296C56.3501 69.1959 56.8902 69.736 57.5565 69.736H62.148C62.8142 69.736 63.3544 69.1959 63.3544 68.5296V68.5206C63.3544 67.8543 62.8142 67.3142 62.148 67.3142Z" fill="#E56C65"/>
<path d="M59.1007 78.9285L55.1244 76.6327C54.5473 76.2996 53.8095 76.4973 53.4764 77.0743L53.4719 77.0821C53.1388 77.6591 53.3365 78.3969 53.9135 78.7301L57.8898 81.0258C58.4668 81.3589 59.2046 81.1612 59.5378 80.5842L59.5423 80.5764C59.8754 79.9994 59.6777 79.2616 59.1007 78.9285Z" fill="#E56C65"/>
<path d="M55.6934 72.7666L55.5404 73.35C55.4131 73.8358 55.7036 74.3329 56.1894 74.4602L61.2056 75.7752C61.6913 75.9026 62.1884 75.612 62.3157 75.1263L62.4687 74.5428C62.596 74.057 62.3055 73.56 61.8197 73.4326L56.8035 72.1176C56.3178 71.9902 55.8207 72.2808 55.6934 72.7666Z" fill="#E56C65"/>
<path d="M73.906 69.7174C73.924 70.0145 73.942 70.3116 73.969 70.6087C74.095 71.9051 74.3471 73.1835 74.7342 74.4439C74.8333 74.768 74.9413 75.0921 75.0583 75.4162C75.1574 75.6953 75.2654 75.9744 75.3824 76.2535C76.0216 77.784 76.8499 79.2335 77.8672 80.5569C77.9933 80.719 78.1103 80.872 78.2364 81.0341C78.2994 81.1151 78.3624 81.1871 78.4254 81.2681C79.1547 82.1414 79.9559 82.9427 80.8112 83.6629C80.9732 83.5189 81.1263 83.3748 81.2883 83.2218C81.7295 82.7986 82.1526 82.3575 82.5488 81.8983C81.8465 81.3222 81.1983 80.692 80.5951 80.0077C80.3971 79.7827 80.199 79.5486 80.0099 79.3145C79.1096 78.1801 78.3624 76.9377 77.7682 75.6053C77.6512 75.3262 77.5341 75.0561 77.4261 74.768C76.9219 73.4446 76.5798 72.0491 76.4268 70.5997C76.3908 70.3026 76.3728 70.0055 76.3547 69.7084C76.3007 68.8171 76.3277 67.9078 76.4178 66.9895C76.4718 66.4583 76.5528 65.9362 76.6518 65.423C76.7059 65.1259 76.7779 64.8378 76.8499 64.5497C77.201 63.1723 77.7232 61.8398 78.4074 60.5884C78.4794 60.4534 78.5515 60.3273 78.6235 60.2013C78.6955 60.0753 78.7765 59.9492 78.8576 59.8232C79.8389 58.2297 81.0813 56.8162 82.5488 55.6098C82.2156 55.2317 81.8735 54.8626 81.5134 54.5115C81.4324 54.4394 81.3604 54.3584 81.2793 54.2864C81.1263 54.1423 80.9642 53.9893 80.8112 53.8542C79.1997 55.2137 77.8222 56.8072 76.7329 58.5988C76.6608 58.7158 76.5888 58.8329 76.5168 58.9589C76.4448 59.0849 76.3637 59.22 76.2827 59.373C75.4815 60.8225 74.8783 62.353 74.4821 63.9375C74.4101 64.2256 74.3381 64.5137 74.2841 64.8108C74.149 65.45 74.05 66.0982 73.987 66.7554C73.8879 67.7548 73.8519 68.7451 73.906 69.7264V69.7174Z" fill="#CE625F"/>
<g opacity="0.2">
<path d="M76.2925 59.3642L78.4172 60.5886C78.4892 60.4536 78.5612 60.3275 78.6332 60.2015C78.7053 60.0754 78.7863 59.9494 78.8673 59.8234L76.7426 58.59C76.6706 58.707 76.5986 58.824 76.5266 58.9501C76.4545 59.0761 76.3735 59.2112 76.2925 59.3642Z" fill="#686868"/>
<path d="M74.2847 64.8018L76.6614 65.423C76.7155 65.1259 76.7875 64.8378 76.8595 64.5497L74.4827 63.9285C74.4107 64.2166 74.3387 64.5047 74.2847 64.8018Z" fill="#686868"/>
<path d="M73.9067 69.7175C73.9247 70.0146 73.9427 70.3117 73.9698 70.6088H76.4456C76.4095 70.3117 76.3915 70.0146 76.3735 69.7175H73.9157H73.9067Z" fill="#686868"/>
<path d="M75.0583 75.4163C75.1574 75.6954 75.2654 75.9745 75.3825 76.2536L77.7862 75.6144C77.6692 75.3353 77.5522 75.0652 77.4441 74.7771L75.0583 75.4163Z" fill="#686868"/>
<path d="M77.8679 80.557C77.9939 80.7191 78.111 80.8721 78.237 81.0342C78.3 81.1152 78.363 81.1872 78.4261 81.2682L80.5958 80.0168C80.3977 79.7918 80.1996 79.5577 80.0106 79.3236L77.8589 80.566L77.8679 80.557Z" fill="#686868"/>
</g>
<path d="M75.8639 58.1092L79.8402 60.405C80.4173 60.7381 81.1551 60.5404 81.4882 59.9634L81.4927 59.9556C81.8258 59.3786 81.6281 58.6408 81.0511 58.3077L77.0748 56.0119C76.4978 55.6788 75.76 55.8765 75.4268 56.4535L75.4223 56.4613C75.0892 57.0383 75.2869 57.7761 75.8639 58.1092Z" fill="#E56C65"/>
<path d="M72.655 61.895L72.5021 62.4785C72.3747 62.9642 72.6653 63.4613 73.1511 63.5886L78.1672 64.9037C78.653 65.031 79.15 64.7404 79.2774 64.2547L79.4303 63.6712C79.5577 63.1854 79.2671 62.6884 78.7814 62.561L73.7652 61.246C73.2794 61.1187 72.7824 61.4092 72.655 61.895Z" fill="#E56C65"/>
<path d="M72.8259 69.7264H77.4174C78.0837 69.7264 78.6238 69.1863 78.6238 68.52V68.511C78.6238 67.8448 78.0837 67.3047 77.4174 67.3047H72.8259C72.1596 67.3047 71.6195 67.8448 71.6195 68.511V68.52C71.6195 69.1863 72.1596 69.7264 72.8259 69.7264Z" fill="#E56C65"/>
<path d="M77.079 81.0198L81.0553 78.724C81.6323 78.3909 81.83 77.6531 81.4969 77.0761L81.4924 77.0683C81.1593 76.4913 80.4214 76.2936 79.8444 76.6267L75.8681 78.9225C75.2911 79.2556 75.0934 79.9934 75.4265 80.5704L75.431 80.5782C75.7642 81.1552 76.502 81.3529 77.079 81.0198Z" fill="#E56C65"/>
<path d="M78.1687 72.1274L73.1525 73.4424C72.6667 73.5697 72.3762 74.0668 72.5035 74.5525L72.6565 75.136C72.7838 75.6218 73.2809 75.9124 73.7667 75.785L78.7828 74.47C79.2686 74.3426 79.5592 73.8456 79.4318 73.3598L79.2788 72.7763C79.1515 72.2906 78.6545 72 78.1687 72.1274Z" fill="#E56C65"/>
<path opacity="0.2" d="M87.4727 68.7544C87.4727 69.1686 87.4637 69.5737 87.4367 69.9788C87.1216 75.1825 84.8168 79.837 81.2787 83.2221C80.8646 83.6183 80.4414 83.9874 79.9913 84.3475C76.7682 86.9403 72.7259 88.5519 68.3145 88.7319C68.0354 88.7409 67.7563 88.7499 67.4772 88.7499C67.1981 88.7499 66.91 88.7499 66.6399 88.7319C62.2285 88.5519 58.1862 86.9403 54.9632 84.3475C54.522 83.9874 54.0899 83.6183 53.6757 83.2221C51.9022 81.5296 50.4347 79.5129 49.3813 77.2622C49.8855 77.8744 50.4347 78.4596 51.0109 79.0088C51.425 79.4049 51.8481 79.774 52.2983 80.1341C55.5213 82.727 59.5637 84.3385 63.9751 84.5186C64.2542 84.5276 64.5333 84.5366 64.8124 84.5366C65.0914 84.5366 65.3795 84.5366 65.6496 84.5186C70.0611 84.3385 74.1034 82.727 77.3264 80.1341C77.7676 79.774 78.1997 79.4049 78.6138 79.0088C82.152 75.6327 84.4567 70.9692 84.7718 65.7655C84.7988 65.3603 84.8078 64.9552 84.8078 64.5411C84.8078 64.388 84.8078 64.235 84.8078 64.0819C84.7448 61.21 84.0696 58.4821 82.9172 56.0333C85.6811 59.3824 87.3737 63.6408 87.4817 68.2953C87.4817 68.4484 87.4817 68.6014 87.4817 68.7544H87.4727Z" fill="#9B9B9B"/>
</svg>
