<svg width="50" height="50" viewBox="0 0 50 50" fill="none" xmlns="http://www.w3.org/2000/svg">
<path d="M39.4021 10.6417L48.0064 5.64141C47.7304 5.48135 47.4821 5.4648 47.3 5.56966L39.4076 10.156V10.6362L39.4021 10.6417Z" fill="#CBDBF4"/>
<path d="M48.0064 5.64111L39.4021 10.6414V13.4065L48.7073 7.99778C48.8839 7.89291 48.9943 7.67215 48.9998 7.36308C48.9998 6.72838 48.5583 5.96122 48.0064 5.64663V5.64111Z" fill="#DBE6FA"/>
<path d="M38.9277 5.02311C42.3937 7.02655 45.1974 11.8779 45.1864 15.8627C45.1754 19.8475 42.3551 21.4535 38.8891 19.4556C35.4231 17.4522 32.6194 12.6009 32.6304 8.61606C32.6414 4.63126 35.4617 3.02519 38.9332 5.02863L38.9277 5.02311Z" fill="#2A3134"/>
<path d="M34.4573 4.58734L36.4718 3.41729C37.6142 2.75499 39.1927 2.84882 40.9422 3.8533L38.9278 5.02335C37.1837 4.01335 35.5997 3.91953 34.4573 4.58734Z" fill="#4F575F"/>
<path d="M45.3688 18.7215L43.3543 19.8916C44.4802 19.2348 45.1811 17.844 45.1867 15.8626C45.1977 11.8778 42.394 7.02652 38.928 5.02308L40.9425 3.85303C44.4085 5.85647 47.2122 10.7078 47.2011 14.6926C47.1956 16.6739 46.4947 18.0647 45.3688 18.7215Z" fill="#4F575F"/>
<path d="M35.8318 6.82219C39.2978 8.82562 42.1015 13.6769 42.0904 17.6617C42.0794 21.6465 39.2591 23.2526 35.7931 21.2547C32.3271 19.2512 29.5234 14.3999 29.5345 10.4151C29.5455 6.43033 32.3658 4.82427 35.8373 6.82771L35.8318 6.82219Z" fill="#2A3134"/>
<path d="M31.3611 6.38617L33.3756 5.21612C34.518 4.55382 36.0965 4.64765 37.846 5.65213L35.8316 6.82218C34.0875 5.81218 32.5035 5.71836 31.3611 6.38617Z" fill="#4F575F"/>
<path d="M42.2726 20.5206L40.2581 21.6906C41.384 21.0339 42.0849 19.6431 42.0905 17.6617C42.1015 13.6769 39.2978 8.82559 35.8318 6.82215L37.8463 5.6521C41.3123 7.65554 44.116 12.5068 44.1049 16.4916C44.0994 18.473 43.3985 19.8638 42.2726 20.5206Z" fill="#4F575F"/>
<path d="M32.3768 13.313C32.3768 14.8031 33.4199 16.6189 34.7169 17.3695L32.7024 18.5396C31.4054 17.789 30.3568 15.9732 30.3623 14.483C31.0357 14.0912 31.7035 13.7048 32.3768 13.313Z" fill="#4F575F"/>
<path d="M33.0665 11.8062C32.6471 12.049 32.3822 12.5733 32.3822 13.3129C31.7088 13.7047 31.041 14.0911 30.3677 14.4829C30.3677 13.7434 30.6326 13.2246 31.052 12.9762C31.6591 12.623 32.4649 12.1594 33.0665 11.8062Z" fill="#4F575F"/>
<path d="M31.6592 14.0194L33.6737 12.8494C33.4032 13.0039 33.2377 13.335 33.2377 13.8042C33.2377 14.7479 33.9 15.9014 34.7223 16.3761L32.7078 17.5461C31.8855 17.0715 31.2177 15.918 31.2232 14.9742C31.2232 14.5051 31.3888 14.174 31.6592 14.0194Z" fill="#FFB63C"/>
<path d="M34.7222 17.364C35.3735 17.7393 35.964 17.7779 36.3945 17.5296L34.3801 18.6996C33.9551 18.948 33.3645 18.9149 32.7078 18.5341C33.3149 18.1808 34.1207 17.7172 34.7222 17.364Z" fill="#4F575F"/>
<path d="M35.7819 16.4865L33.7674 17.6565C33.497 17.8166 33.1217 17.7945 32.7078 17.5516L34.7222 16.3816C35.1362 16.6189 35.5115 16.641 35.7819 16.4865Z" fill="#FFA20D"/>
<path d="M32.7353 8.62175C36.2013 10.6252 39.005 15.4765 38.994 19.4613C38.983 23.4461 36.1627 25.0522 32.6967 23.0542C29.2307 21.0508 26.427 16.1995 26.438 12.2147C26.4491 8.22989 29.2693 6.62383 32.7408 8.62727L32.7353 8.62175ZM32.7077 18.5341C34.0047 19.2847 35.0589 18.6831 35.0644 17.1929C35.0644 15.7028 34.0213 13.887 32.7243 13.1364C31.4273 12.3858 30.3731 12.9874 30.3676 14.4775C30.3676 15.9677 31.4107 17.7835 32.7077 18.5341Z" fill="#2A3134"/>
<path d="M32.719 13.1418C34.016 13.8924 35.0646 15.7082 35.0591 17.1983C35.0591 18.6885 33.9994 19.2901 32.7024 18.5395C31.4054 17.7889 30.3568 15.9731 30.3623 14.4829C30.3623 12.9928 31.422 12.3912 32.719 13.1418ZM32.708 17.5516C33.5303 18.0262 34.1981 17.6454 34.2036 16.7016C34.2036 15.7579 33.5413 14.6044 32.719 14.1297C31.8966 13.6551 31.2233 14.0359 31.2233 14.9797C31.2233 15.9234 31.8856 17.0769 32.708 17.5516Z" fill="#FFCA6C"/>
<path d="M28.2646 8.18573L30.2791 7.01568C31.4216 6.35338 33 6.44721 34.7496 7.45169L32.7351 8.62174C30.9911 7.61174 29.4071 7.51792 28.2646 8.18573Z" fill="#4F575F"/>
<path d="M39.1762 22.3202L37.1617 23.4902C38.2876 22.8334 38.9885 21.4426 38.994 19.4613C39.0051 15.4765 36.2014 10.6252 32.7354 8.62171L34.7498 7.45166C38.2158 9.4551 41.0195 14.3064 41.0085 18.2912C41.003 20.2726 40.3021 21.6634 39.1762 22.3202Z" fill="#4F575F"/>
<path d="M33.0332 14.345C32.9725 14.3782 31.0408 15.5041 31.1623 15.4323C30.8863 15.2722 30.6379 15.2557 30.4558 15.3661C30.5165 15.333 32.7849 14.0139 32.6524 14.0912C32.7683 14.1519 32.9008 14.2402 33.0332 14.3506V14.345Z" fill="#CBDBF4"/>
<path d="M34.1869 16.4366C34.0986 16.4862 31.7309 17.866 31.8578 17.7887C32.0841 17.6563 32.1614 17.3582 32.1448 17.1044C32.1227 16.4752 31.6757 15.7356 31.1514 15.4321C31.9185 14.985 33.0996 14.3007 33.0223 14.3448C33.6239 14.8415 34.0875 15.6804 34.1758 16.4366H34.1869Z" fill="#DBE6FA"/>
<path d="M10.9348 26.7078L31.1513 14.9576C31.3335 14.8527 31.5818 14.8693 31.8578 15.0293L11.6413 26.7795C11.3653 26.6195 11.1169 26.6029 10.9348 26.7078Z" fill="#CBDBF4"/>
<path d="M32.5642 17.3804L12.3477 29.1306C12.5243 29.0258 12.6346 28.805 12.6402 28.4959C12.6402 27.8612 12.1986 27.0941 11.6467 26.7795L31.8632 15.0293C32.4152 15.3439 32.8567 16.1166 32.8567 16.7457C32.8567 17.0603 32.7463 17.2811 32.5642 17.3804Z" fill="#DBE6FA"/>
<path d="M13.4018 19.8586C16.8678 21.862 19.6715 26.7133 19.6605 30.6981C19.6495 34.6829 16.8292 36.289 13.3632 34.291C9.8972 32.2876 7.09349 27.4363 7.10452 23.4515C7.11556 19.4667 9.93583 17.8606 13.4074 19.8641L13.4018 19.8586Z" fill="#2A3134"/>
<path d="M8.9314 19.4225L10.9459 18.2525C12.0883 17.5902 13.6668 17.684 15.4164 18.6885L13.4019 19.8586C11.6578 18.8486 10.0739 18.7547 8.9314 19.4225Z" fill="#4F575F"/>
<path d="M19.8427 33.5572L17.8282 34.7273C18.9541 34.0705 19.655 32.6797 19.6605 30.6983C19.6716 26.7135 16.8679 21.8622 13.4019 19.8588L15.4163 18.6887C18.8823 20.6922 21.686 25.5435 21.675 29.5283C21.6695 31.5096 20.9686 32.9004 19.8427 33.5572Z" fill="#4F575F"/>
<path d="M10.3059 21.6576C13.7719 23.6611 16.5756 28.5124 16.5646 32.4972C16.5535 36.482 13.7333 38.088 10.2673 36.0901C6.80125 34.0867 3.99754 29.2354 4.00858 25.2506C4.01962 21.2658 6.83988 19.6597 10.3114 21.6632L10.3059 21.6576Z" fill="#2A3134"/>
<path d="M5.83521 21.2219L7.84968 20.0518C8.99214 19.3895 10.5706 19.4833 12.3202 20.4878L10.3057 21.6579C8.56165 20.6479 6.97766 20.554 5.83521 21.2219Z" fill="#4F575F"/>
<path d="M16.7465 35.356L14.732 36.5261C15.8579 35.8693 16.5588 34.4785 16.5643 32.4971C16.5754 28.5123 13.7717 23.661 10.3057 21.6576L12.3201 20.4875C15.7861 22.491 18.5899 27.3423 18.5788 31.3271C18.5733 33.3085 17.8724 34.6993 16.7465 35.356Z" fill="#4F575F"/>
<path d="M6.85068 28.1428C6.85068 29.633 7.89379 31.4488 9.19078 32.1994L7.17631 33.3694C5.87932 32.6188 4.83068 30.803 4.8362 29.3129C5.50954 28.921 6.17735 28.5347 6.85068 28.1428Z" fill="#4F575F"/>
<path d="M7.53503 26.6414C7.11558 26.8842 6.85066 27.4085 6.85066 28.1481C6.17733 28.5399 5.50951 28.9263 4.83618 29.3181C4.83618 28.5786 5.1011 28.0598 5.52055 27.8114C6.12765 27.4582 6.93344 26.9946 7.53503 26.6414Z" fill="#4F575F"/>
<path d="M6.12769 28.8549L8.14217 27.6848C7.87173 27.8393 7.70616 28.1705 7.70616 28.6396C7.70616 29.5834 8.36845 30.7369 9.1908 31.2115L7.17633 32.3816C6.35398 31.9069 5.68617 30.7534 5.69168 29.8097C5.69168 29.3405 5.85726 29.0094 6.12769 28.8549Z" fill="#FFB63C"/>
<path d="M10.256 31.316L8.24155 32.4861C7.97112 32.6462 7.59582 32.6241 7.18188 32.3812L9.19636 31.2112C9.6103 31.4485 9.98559 31.4706 10.256 31.316Z" fill="#FFA20D"/>
<path d="M7.20945 23.457C10.6755 25.4604 13.4792 30.3117 13.4681 34.2965C13.4571 38.2813 10.6368 39.8874 7.17082 37.8894C3.70481 35.886 0.901104 31.0347 0.912142 27.0499C0.92318 23.0651 3.74345 21.459 7.21497 23.4625L7.20945 23.457ZM7.18186 33.3693C8.47885 34.1199 9.533 33.5183 9.53852 32.0281C9.53852 30.538 8.49541 28.7222 7.19841 27.9716C5.90142 27.221 4.84727 27.8226 4.84175 29.3127C4.84175 30.8029 5.88486 32.6187 7.18186 33.3693Z" fill="#2A3134"/>
<path d="M7.19287 27.9716C8.48986 28.7222 9.53849 30.538 9.53297 32.0282C9.53297 33.5183 8.4733 34.1199 7.17631 33.3693C5.87932 32.6187 4.83068 30.8029 4.8362 29.3128C4.8362 27.8226 5.89587 27.221 7.19287 27.9716ZM7.18183 32.3869C8.00417 32.8616 8.67199 32.4807 8.67751 31.537C8.67751 30.5932 8.01521 29.4397 7.19287 28.9651C6.37052 28.4904 5.69719 28.8712 5.69719 29.815C5.69719 30.7588 6.35948 31.9123 7.18183 32.3869Z" fill="#FFCA6C"/>
<path d="M2.73901 23.0209L4.75349 21.8509C5.89595 21.1886 7.47441 21.2824 9.22397 22.2869L7.2095 23.4569C5.46546 22.4469 3.88147 22.3531 2.73901 23.0209Z" fill="#4F575F"/>
<path d="M13.6503 37.1554L11.6358 38.3254C12.7617 37.6686 13.4626 36.2778 13.4681 34.2965C13.4792 30.3117 10.6755 25.4604 7.20947 23.4569L9.22395 22.2869C12.69 24.2903 15.4937 29.1416 15.4826 33.1264C15.4771 35.1078 14.7762 36.4986 13.6503 37.1554Z" fill="#4F575F"/>
<path d="M7.50747 29.1804L2.18152 32.2766L2.08218 32.3318C1.80622 32.1718 1.55786 32.1552 1.37573 32.2656L2.14841 31.8185L7.12665 28.9265C7.12665 28.9265 7.1708 28.9486 7.19288 28.9651C7.30326 29.0259 7.40812 29.1031 7.50747 29.1859V29.1804Z" fill="#CBDBF4"/>
<path d="M8.66091 31.2719L3.42879 34.313L2.78857 34.6883C2.96519 34.5834 3.07557 34.3626 3.08109 34.0536C3.08109 34.037 3.08109 34.0204 3.08109 34.0039C3.06453 33.4299 2.69475 32.7621 2.21459 32.4144C2.17595 32.3813 2.1318 32.3537 2.08765 32.3316L2.18699 32.2764L7.51294 29.1802C8.11452 29.6769 8.57813 30.5158 8.66643 31.2719H8.66091Z" fill="#DBE6FA"/>
<path d="M2.08197 32.3315C2.63388 32.6461 3.07541 33.4188 3.07541 34.048C3.07541 34.6771 2.62284 34.931 2.07645 34.6164C1.53006 34.3018 1.08301 33.5292 1.08301 32.9C1.08301 32.2653 1.53006 32.0114 2.08197 32.3315Z" fill="#BBCFEF"/>
<path d="M45.006 31.6047V40.2722C45.0761 41.1562 44.5263 42.0564 43.3512 42.7355C41.1358 44.013 37.5514 44.013 35.336 42.7355C34.231 42.0995 33.6758 41.2586 33.6758 40.4231V31.6101H45.006V31.6047Z" fill="#3D4449"/>
<path d="M35.3361 29.2923C33.1207 30.5698 33.1207 32.6397 35.3361 33.9172C37.5515 35.1946 41.136 35.1946 43.3514 33.9172C45.5667 32.6397 45.5667 30.5698 43.3514 29.2923C41.136 28.0149 37.5515 28.0149 35.3361 29.2923Z" fill="#7A7A7A"/>
<path d="M44.1383 28.9365V30.4835C44.1976 31.2328 43.7286 31.9982 42.7368 32.5695C40.861 33.653 37.821 33.653 35.9505 32.5695C35.0127 32.0305 34.5437 31.319 34.5437 30.6075V28.9365H44.1383Z" fill="#3D4449"/>
<path d="M35.9505 26.9747C34.0748 28.0581 34.0748 29.8099 35.9505 30.8934C37.8263 31.9768 40.8664 31.9768 42.7368 30.8934C44.6126 29.8099 44.6126 28.0581 42.7368 26.9747C40.861 25.8913 37.821 25.8913 35.9505 26.9747Z" fill="#7A7A7A"/>
<path d="M43.3515 41.5659C42.5753 42.0132 41.6266 42.3043 40.6294 42.4391C39.7831 42.5523 38.9045 42.5523 38.0636 42.4391C37.0665 42.3043 36.1178 42.0132 35.3416 41.5659C34.2366 40.9298 33.6814 40.0889 33.6814 39.2535V32.6396C33.6814 33.4751 34.2366 34.316 35.3416 34.9521C37.557 36.2295 41.1415 36.2295 43.3568 34.9521C44.4079 34.343 44.9577 33.5614 45.0116 32.7636V39.1025C45.0817 39.9865 44.5319 40.8867 43.3568 41.5659H43.3515Z" fill="white"/>
<path d="M43.3515 40.7628C43.0496 40.9353 42.7208 41.0862 42.3704 41.2156C41.826 41.415 41.2385 41.5552 40.6294 41.636C39.7831 41.7492 38.9045 41.7492 38.0636 41.636C37.4546 41.5552 36.867 41.415 36.3226 41.2156C35.9722 41.0862 35.6434 40.9353 35.3416 40.7628C34.2366 40.1267 33.6814 39.2859 33.6814 38.4504V33.4429C33.6814 34.2784 34.2366 35.1192 35.3416 35.7553C37.557 37.0328 41.1415 37.0328 43.3568 35.7553C44.4079 35.1462 44.9577 34.3646 45.0116 33.5668V38.2995C45.0817 39.1835 44.5319 40.0836 43.3568 40.7628H43.3515Z" fill="#F4704D"/>
<path d="M42.392 40.8758C42.392 40.989 42.3866 41.1022 42.3704 41.2154C41.826 41.4149 41.2385 41.555 40.6294 41.6358C39.7831 41.749 38.9045 41.749 38.0636 41.6358C37.4545 41.555 36.867 41.4149 36.3226 41.2154C36.3064 41.1022 36.301 40.989 36.301 40.8758C36.301 39.2641 37.6648 37.9597 39.3465 37.9597C41.0283 37.9597 42.392 39.2641 42.392 40.8758Z" fill="#FFCA6C"/>
<path d="M42.9635 38.3749C42.9095 38.0137 42.764 37.7496 42.5592 37.5394C42.4891 37.4639 42.4136 37.3992 42.3328 37.3399C42.225 37.2268 42.1226 37.1136 42.0148 37.0004C41.9016 36.9357 41.7938 36.9303 41.686 36.9788C41.6752 36.9788 41.6644 36.9896 41.6536 36.995C41.6428 36.995 41.6321 37.0058 41.6213 37.0111C41.6159 37.0111 41.6051 37.0219 41.5997 37.0273C41.5943 37.0273 41.5836 37.0381 41.5782 37.0435C41.5728 37.0435 41.562 37.0543 41.5566 37.0597C41.5566 37.0597 41.5458 37.065 41.5404 37.0704C41.5297 37.0812 41.5135 37.0974 41.5027 37.1082C41.4111 37.1729 41.314 37.2268 41.217 37.2645C41.1739 37.2807 41.1416 37.3238 41.1469 37.3615C41.1469 37.4046 41.1955 37.4262 41.244 37.4046C41.2548 37.4046 41.2709 37.3939 41.2817 37.3885C41.2601 37.4262 41.2386 37.4639 41.217 37.5017C41.1955 37.5394 41.2062 37.5771 41.244 37.5825C41.244 37.5825 41.2871 37.5825 41.3087 37.5717C41.2871 37.6095 41.3033 37.6472 41.3356 37.6526C41.3626 37.658 41.4003 37.6472 41.4272 37.6202C41.4272 37.6472 41.438 37.6688 41.465 37.6741C41.5027 37.6795 41.5512 37.658 41.5728 37.6148C41.5728 37.6364 41.5836 37.658 41.6051 37.6634C41.6428 37.6634 41.6806 37.6741 41.7129 37.6741C41.7453 37.6849 41.7884 37.6688 41.8153 37.631C41.8261 37.6202 41.8369 37.6041 41.8423 37.5933C41.907 37.5987 41.977 37.6041 42.0471 37.5987C42.1064 38.073 41.9663 38.3587 42.1387 38.5689C41.8638 38.3533 41.3518 38.6498 41.3194 38.9301C41.1523 38.763 40.5864 38.86 40.5594 39.1295C40.4247 38.9786 39.9719 38.957 39.8802 39.1618C39.8802 39.0864 39.8802 39.0109 39.8802 38.9355C39.9018 38.9085 39.9288 38.8762 39.9557 38.8438C40.015 38.7684 40.0581 38.6659 40.0905 38.5312C40.0905 38.5312 40.0959 38.5312 40.1012 38.5312C40.1174 38.5312 40.1282 38.5312 40.1444 38.5204C40.2037 38.4935 40.2198 38.4234 40.236 38.3264C40.2522 38.2132 40.2468 38.1108 40.1713 38.1161C40.1713 38.0245 40.1821 37.9383 40.1821 37.852C40.1821 37.8035 40.1767 37.7604 40.1605 37.7173C40.2252 37.6688 40.2845 37.6041 40.3492 37.5286C40.3492 37.5232 40.2522 37.5286 40.2576 37.5286C40.3115 37.4585 40.333 37.41 40.3761 37.3022C40.3654 37.313 40.2737 37.4208 40.042 37.4316C40.0312 37.4316 40.0851 37.3615 40.0743 37.3669C39.9449 37.4046 39.8425 37.41 39.7401 37.3885C39.6431 37.3669 39.573 37.3615 39.5353 37.3615C39.5191 37.3615 39.5083 37.3615 39.5083 37.3615C39.5514 37.3292 39.5083 37.2429 39.5083 37.2537C39.4167 37.3507 39.2927 37.3238 38.9747 37.3885C38.8777 37.41 38.8022 37.4478 38.7213 37.5124C38.7106 37.5232 38.6998 37.534 38.6836 37.5448C38.592 37.6256 38.5381 37.7388 38.5381 37.8574C38.5381 37.9437 38.5489 38.0299 38.5542 38.1215C38.4788 38.1215 38.4626 38.2186 38.4788 38.3318C38.4896 38.4234 38.5165 38.4988 38.5758 38.5258C38.592 38.5312 38.6028 38.5366 38.6189 38.5366H38.6297C38.6567 38.6713 38.6998 38.7737 38.7591 38.8492C38.786 38.8816 38.8076 38.9139 38.8292 38.9408C38.8292 39.0163 38.8292 39.0972 38.8292 39.1726C38.7321 39.0109 38.2901 38.9732 38.15 39.1403C38.1015 39.0055 37.8212 38.7791 37.39 38.9408C37.39 38.9355 37.1097 38.2886 36.5706 38.5797C36.7431 38.3695 36.603 38.0838 36.6623 37.6095H36.6946C36.7539 37.6095 36.8078 37.6095 36.8617 37.6041C36.8725 37.6148 36.8833 37.631 36.8887 37.6418C36.9156 37.6741 36.9587 37.6957 36.9911 37.6849C37.0288 37.6849 37.0612 37.6741 37.0989 37.6741C37.1205 37.6741 37.1312 37.6526 37.1312 37.6256C37.1528 37.6634 37.2013 37.6903 37.239 37.6849C37.266 37.6795 37.2822 37.658 37.2768 37.631C37.2983 37.658 37.3361 37.6688 37.3684 37.6634C37.4061 37.658 37.4169 37.6202 37.3954 37.5825C37.4169 37.5933 37.4385 37.5987 37.46 37.5933C37.4978 37.5879 37.5085 37.5448 37.487 37.5124C37.4654 37.4747 37.4439 37.437 37.4223 37.3992C37.4331 37.3992 37.4493 37.41 37.46 37.4154C37.5085 37.4316 37.5517 37.4154 37.5571 37.3723C37.5571 37.3292 37.5301 37.286 37.487 37.2699C37.3846 37.2321 37.2929 37.1782 37.2013 37.1136C37.1905 37.1028 37.1744 37.0866 37.1636 37.0758C37.1636 37.0758 37.1528 37.065 37.1474 37.065C37.142 37.0597 37.1312 37.0543 37.1258 37.0489C37.1205 37.0489 37.1151 37.0381 37.1043 37.0327C37.0989 37.0327 37.0881 37.0219 37.0827 37.0165C37.0719 37.0111 37.0612 37.0058 37.0504 37.0004C37.0396 36.995 37.0288 36.9896 37.018 36.9842C36.9102 36.9411 36.8024 36.9411 36.6892 37.0058C36.5814 37.1243 36.479 37.2375 36.3712 37.3453C36.2904 37.41 36.2149 37.4747 36.1448 37.5448C35.913 37.7873 35.7567 38.1 35.719 38.542C35.9616 38.9732 36.2418 39.2858 36.5437 39.4853C36.7647 39.6308 36.9965 39.717 37.2336 39.744C37.3253 39.9865 37.4277 40.2075 37.5409 40.407C37.5948 40.4986 37.6541 40.5903 37.7134 40.6711C37.7242 40.6873 37.7349 40.7034 37.7511 40.7196C37.9559 41.0053 38.0691 41.3018 38.0637 41.5874C38.0637 41.6036 38.0637 41.6252 38.0637 41.6413C38.91 41.7545 39.7886 41.7545 40.6295 41.6413C40.6295 41.6252 40.6295 41.6036 40.6295 41.5874C40.6295 41.2802 40.7535 40.973 40.9798 40.6711C41.0445 40.5903 41.1038 40.4986 41.1577 40.407C41.2763 40.2075 41.3733 39.9865 41.465 39.744C41.7021 39.7116 41.9393 39.6254 42.1549 39.4853C42.4568 39.2858 42.7371 38.9786 42.9796 38.5474C42.9796 38.4881 42.9688 38.4342 42.9581 38.3857L42.9635 38.3749Z" fill="#3C3C3B"/>
<path d="M32.0157 42.7088C33.8915 43.7923 33.8915 45.5495 32.0157 46.6329C30.1399 47.7163 27.0944 47.7163 25.2186 46.6329C23.3428 45.5495 23.3428 43.7923 25.2186 42.7088C27.0944 41.6254 30.1399 41.6254 32.0157 42.7088Z" fill="#3C3C3B"/>
<path d="M33.2986 44.9293C30.6413 47.5166 26.3938 47.4627 23.8065 44.8053C21.2192 42.1479 21.2731 37.9004 23.9304 35.3131C24.1407 35.1083 24.3617 34.9196 24.588 34.7472C25.181 34.2998 25.8278 33.9656 26.507 33.7446C27.6766 33.3619 28.9272 33.308 30.1184 33.5775C30.8946 33.7554 31.6438 34.068 32.323 34.5262C32.7111 34.7849 33.0776 35.0867 33.4172 35.4371C36.0045 38.0891 35.9506 42.342 33.2933 44.9293H33.2986Z" fill="#3D4449"/>
<path d="M32.3285 34.5263C32.2854 33.1033 31.3529 31.5293 30.1293 30.8232L27.7468 29.4487C26.9868 29.0121 26.1944 28.9689 25.5692 29.3301C24.9439 29.6912 24.5881 30.4027 24.5881 31.276V34.7527C25.1811 34.3053 25.8279 33.9711 26.5071 33.7501V31.276C26.5071 31.1412 26.5286 31.0604 26.5394 31.0118C26.5879 31.0226 26.6688 31.0442 26.782 31.1143L29.1644 32.4888C29.531 32.699 29.8813 33.1194 30.1131 33.583C30.291 33.9333 30.4042 34.3107 30.4042 34.6341V38.3048C30.4042 39.868 32.3231 39.868 32.3231 38.3048V34.6341C32.3231 34.6017 32.3231 34.564 32.3231 34.5317L32.3285 34.5263Z" fill="#4F575F"/>
<path d="M26.7334 44.6059L23.0842 42.4984C22.8686 42.3744 22.68 42.0941 22.6315 41.8246C22.4051 40.5579 22.4051 39.3774 22.6315 38.3695C22.68 38.1538 22.8686 38.0945 23.0842 38.2185L26.7334 40.3261C26.949 40.4501 27.1377 40.7304 27.1862 40.9999C27.4126 42.2666 27.4126 43.447 27.1862 44.455C27.1377 44.6706 26.949 44.7299 26.7334 44.6059Z" fill="#706F6F"/>
<path d="M24.6418 41.1777C24.7065 41.2909 24.7442 41.4041 24.7442 41.5065V42.2827C24.7442 42.4444 24.6957 42.5522 24.5987 42.6115C24.5017 42.6708 24.3831 42.6546 24.2429 42.5738L23.5692 42.1857C23.429 42.1048 23.3104 41.9809 23.2134 41.8084C23.1164 41.6359 23.0679 41.4742 23.0679 41.3125V40.9244L23.7416 41.3125V41.7006L24.0758 41.8946V41.1184L23.7416 40.9244V40.3422L24.0758 40.5363V39.9541L23.7416 39.7601V40.1482L23.0679 39.7601V39.372C23.0679 39.2103 23.1164 39.1025 23.2134 39.0432C23.3104 38.9839 23.429 39.0001 23.5692 39.0809L24.2429 39.469C24.3831 39.5499 24.5017 39.6738 24.5987 39.8463C24.6957 40.0188 24.7442 40.1805 24.7442 40.3422V40.7303C24.7442 40.8381 24.7119 40.9082 24.6418 40.9459C24.5771 40.9837 24.4963 40.9783 24.4046 40.9244C24.4963 40.9783 24.5771 41.0591 24.6418 41.1777Z" fill="#3C3C3B"/>
<path d="M25.0786 42.0941C25.0786 41.8784 25.1433 41.7329 25.2781 41.6574C25.4074 41.582 25.5691 41.5982 25.7524 41.706L25.9195 41.803C25.9626 41.8299 26.0058 41.8353 26.0381 41.8138C26.0704 41.7922 26.0866 41.7599 26.0866 41.706V41.1238L25.7524 40.9298V41.3179L25.0786 40.9298V40.5417C25.0786 40.38 25.1271 40.2722 25.2242 40.2129C25.3212 40.1536 25.4398 40.1697 25.5799 40.2506L26.2537 40.6387C26.3938 40.7196 26.5124 40.8435 26.6095 41.016C26.7065 41.1885 26.755 41.3502 26.755 41.5119V42.2881C26.755 42.4498 26.7065 42.5576 26.6095 42.6169C26.5124 42.6762 26.3938 42.66 26.2537 42.5792L25.9141 42.3851C25.871 42.3582 25.8279 42.3528 25.7955 42.3743C25.7632 42.3959 25.747 42.4283 25.747 42.4822V42.8702L26.7604 43.4524V44.0345L25.0732 43.0643V42.0941H25.0786Z" fill="#3C3C3B"/>
<path d="M25.4289 36.2782C25.0624 36.6178 24.5611 36.6663 24.3078 36.3914C24.0544 36.1165 24.1461 35.6206 24.5126 35.281C24.8791 34.9414 25.3804 34.8929 25.6338 35.1678C25.8871 35.4427 25.7955 35.9386 25.4289 36.2782Z" fill="#EDEDED"/>
<path d="M24.1031 37.1998C23.9576 37.4154 23.7096 37.507 23.5425 37.3992C23.3808 37.2914 23.3646 37.0273 23.5102 36.8063C23.6557 36.5907 23.909 36.499 24.0707 36.6068C24.2325 36.7146 24.2486 36.9788 24.1031 37.1998Z" fill="#EDEDED"/>
</svg>
