<svg width="100" height="100" viewBox="0 0 100 100" fill="none" xmlns="http://www.w3.org/2000/svg">
<path d="M50.2185 89.0227C73.5702 89.0227 92.5005 83.1585 92.5005 75.9247C92.5005 68.6908 73.5702 62.8267 50.2185 62.8267C26.8668 62.8267 7.93652 68.6908 7.93652 75.9247C7.93652 83.1585 26.8668 89.0227 50.2185 89.0227Z" fill="#85CF20"/>
<path d="M34.6957 12.0879H32.7332V70.6542H34.6957V12.0879Z" fill="#FEEF9C"/>
<path d="M63.1511 20.8972C57.451 22.3525 51.6407 23.5874 45.9406 25.2522C42.181 26.3547 38.5095 27.5344 34.7058 28.5157V13.1685C44.0222 16.2445 53.5701 18.5929 63.1511 20.8862V20.8972Z" fill="#FE6225"/>
<path d="M42.0928 70.4118C41.1667 70.5441 40.6705 71.2276 40.417 72.0435H28.653C28.4766 71.2387 28.1017 70.4007 27.5064 69.8936C28.1238 69.9156 28.675 70.059 29.1491 70.3346C28.9396 69.1439 28.234 67.9862 27.2969 67.016C28.4215 67.3578 29.5791 67.9421 30.4281 68.7249C30.1634 66.9167 29.4137 65.1637 28.3884 63.543C30.7368 64.9101 32.9308 66.7073 33.7577 68.758C34.8712 66.7183 37.1976 64.9212 38.8734 63.973C39.557 63.5981 40.2626 63.2894 40.9682 63.0469C39.2814 64.8219 37.8591 66.9498 37.2748 69.0667C38.3552 68.2839 39.8326 67.9421 41.3762 67.9421C40.6485 68.6587 40.0531 69.5187 39.6562 70.522C39.7444 70.4669 39.8326 70.4118 39.9539 70.3677C40.6154 70.1251 41.3872 70.1913 42.0928 70.3897V70.4118Z" fill="#4A931E"/>
<path d="M42.336 75.3071C42.336 76.1561 41.4429 76.9058 40.0427 77.3799C39.7561 75.9797 37.54 74.8992 34.8167 74.8992C33.1188 74.8992 31.6084 75.3292 30.6492 75.9907C30.5169 75.7702 30.4397 75.5387 30.4397 75.3071C30.4397 73.8628 33.0968 72.6831 36.3823 72.6831C39.6679 72.6831 42.325 73.8628 42.325 75.3071H42.336Z" fill="#FECC65"/>
<path d="M40.0432 77.3801C39.0399 77.7329 37.772 77.9314 36.3938 77.9314C33.6485 77.9314 31.3332 77.1155 30.6497 75.9909C31.6089 75.3294 33.1193 74.8994 34.8172 74.8994C37.5294 74.8994 39.7565 75.9799 40.0432 77.3801Z" fill="#685D0F"/>
<path d="M70.1862 72.3745C70.1752 73.2124 69.5468 73.9291 68.6427 74.2929C68.2458 74.4473 67.8048 74.5355 67.3307 74.5355C67.3197 74.5355 67.2976 74.5355 67.2866 74.5355C66.8235 74.5355 66.3935 74.4473 66.0076 74.2929C65.9966 74.2929 65.9746 74.2819 65.9635 74.2709C65.0815 73.907 64.4751 73.1904 64.4641 72.3745C64.5082 72.9919 65.743 73.4881 67.2866 73.4991C67.2976 73.4991 67.3197 73.4991 67.3307 73.4991C68.8853 73.4991 70.1532 73.003 70.1973 72.3745H70.1862Z" fill="white"/>
<path d="M70.1853 72.3412C70.1853 72.3412 70.1853 72.3633 70.1853 72.3743C70.1412 72.9917 68.8843 73.4989 67.3187 73.4989C65.7531 73.4989 64.4962 73.0028 64.4521 72.3743C64.4521 72.3743 64.4521 72.3523 64.4521 72.3412C64.4521 72.3302 64.4521 72.3192 64.4521 72.3082C64.4962 71.6908 65.7531 71.1836 67.3187 71.1836C68.8843 71.1836 70.1412 71.6797 70.1853 72.3082C70.1853 72.3082 70.1853 72.3302 70.1853 72.3412Z" fill="#D8E4E6"/>
<path d="M68.6431 74.2932L67.9815 78.6372H66.6806L66.019 74.2932C66.4049 74.4476 66.8349 74.5358 67.298 74.5358C67.309 74.5358 67.331 74.5358 67.3421 74.5358C67.8162 74.5358 68.2682 74.4476 68.6541 74.2932H68.6431Z" fill="#F7FCFD"/>
<g opacity="0.65" style="mix-blend-mode:multiply">
<path d="M68.6431 74.2932L68.5108 75.1642C68.1469 75.3075 67.75 75.3847 67.3311 75.3847C67.32 75.3847 67.298 75.3847 67.287 75.3847C66.879 75.3847 66.4931 75.2965 66.1513 75.1642L66.019 74.2932C66.4049 74.4476 66.8349 74.5358 67.298 74.5358C67.309 74.5358 67.331 74.5358 67.3421 74.5358C67.8162 74.5358 68.2682 74.4476 68.6541 74.2932H68.6431Z" fill="#CEDADC"/>
</g>
<path d="M70.9686 78.9017C70.5606 78.9568 70.3511 79.2545 70.2409 79.6183H65.1141C65.037 79.2655 64.8716 78.9017 64.618 78.6812C64.8826 78.6812 65.1252 78.7473 65.3346 78.8796C65.2464 78.3614 64.9377 77.8543 64.5298 77.4353C65.0149 77.5897 65.5221 77.8433 65.8969 78.185C65.7867 77.4022 65.4559 76.6305 65.0039 75.9248C66.0292 76.5202 66.9884 77.303 67.3412 78.1961C67.8263 77.314 68.8407 76.5202 69.5683 76.1123C69.866 75.9469 70.1747 75.8146 70.4834 75.7043C69.7447 76.4761 69.1273 77.4022 68.8737 78.3284C69.3478 77.9866 69.9873 77.8433 70.6598 77.8322C70.3401 78.1409 70.0865 78.5158 69.9101 78.9568C69.9432 78.9348 69.9873 78.9127 70.0424 78.8907C70.3291 78.7804 70.6709 78.8135 70.9796 78.9017H70.9686Z" fill="#4A931E"/>
<g opacity="0.85" style="mix-blend-mode:multiply">
<path d="M68.3334 76.2334L68.2011 77.1044C67.8593 77.4352 67.5396 77.799 67.3301 78.1849C67.1537 77.7329 66.8119 77.3139 66.404 76.928L66.2827 76.1562C66.7789 76.4098 67.2088 76.7737 67.4073 77.3029C67.5396 76.8178 67.8483 76.4209 68.3334 76.2444V76.2334Z" fill="#CEDADC"/>
</g>
<path d="M72.765 68.3941C72.765 68.6476 72.7429 68.8902 72.7099 69.1328C72.7099 69.1548 72.7099 69.1769 72.7099 69.1989C72.6106 69.8494 72.3901 70.4668 72.0814 71.0181C71.916 71.3158 71.7176 71.5914 71.5081 71.845C71.4199 71.9552 71.3207 72.0545 71.2214 72.1647C70.9899 72.3962 70.7473 72.5947 70.4827 72.7821C70.2953 72.9144 70.0969 73.0357 69.8874 73.1349C69.5015 73.3334 69.0936 73.4877 68.6636 73.587C68.5313 73.62 68.3879 73.6421 68.2446 73.6641C67.991 73.7083 67.7264 73.7193 67.4618 73.7193C67.1972 73.7193 66.9326 73.6972 66.679 73.6641C66.5357 73.6421 66.4034 73.62 66.2601 73.587C65.8301 73.4877 65.4111 73.3334 65.0363 73.1349C64.8268 73.0247 64.6283 72.9034 64.4409 72.7711C64.1983 72.6057 63.9888 72.4293 63.7794 72.2198C63.6581 72.1096 63.5478 71.9883 63.4486 71.867C63.2171 71.6024 63.0186 71.3158 62.8532 71.0181C62.5445 70.4668 62.324 69.8494 62.2248 69.1989C62.2248 69.1658 62.2248 69.1438 62.2138 69.1107C62.1807 68.8792 62.1697 68.6366 62.1697 68.3941C62.1697 68.1515 62.1807 67.92 62.2138 67.6774C62.2138 67.6443 62.2138 67.6223 62.2248 67.5892C62.4012 66.4205 62.9525 65.3842 63.7573 64.5903C64.0109 64.3368 64.2976 64.1052 64.6063 63.9068C64.6173 63.9068 64.6283 63.8957 64.6393 63.8847C64.8047 63.7745 64.9811 63.6752 65.1686 63.587C65.1686 63.587 65.1686 63.587 65.1796 63.587C65.5103 63.4217 65.8631 63.3004 66.238 63.2122C66.238 63.2122 66.2601 63.2122 66.2711 63.2122C66.4254 63.1791 66.5798 63.146 66.7341 63.124C66.7341 63.124 66.7452 63.124 66.7562 63.124C66.9988 63.0909 67.2413 63.0688 67.4949 63.0688C67.7485 63.0688 68.0021 63.0909 68.2556 63.124H68.2777C68.432 63.146 68.5974 63.1791 68.7408 63.2122C68.7408 63.2122 68.7628 63.2122 68.7738 63.2122C69.1377 63.3004 69.4905 63.4327 69.8102 63.587C69.8102 63.587 69.8102 63.587 69.8212 63.587C69.9976 63.6752 70.174 63.7745 70.3504 63.8847C70.3504 63.8847 70.3725 63.8847 70.3835 63.9068C70.7033 64.1162 71.012 64.3588 71.2876 64.6344C72.0594 65.4172 72.5886 66.4426 72.765 67.5782C72.765 67.6002 72.765 67.6223 72.765 67.6443C72.7981 67.8869 72.8201 68.1295 72.8201 68.383L72.765 68.3941Z" fill="white"/>
<path d="M63.2517 68.3938C63.2517 68.8127 62.9099 69.1435 62.502 69.1435C62.502 69.1435 62.491 69.1435 62.4799 69.1435C62.4799 69.1214 62.4799 69.0884 62.4689 69.0663C62.4358 68.8458 62.4248 68.6253 62.4248 68.3938C62.4248 68.1622 62.4358 67.9417 62.4689 67.7212C62.4689 67.6992 62.4689 67.6661 62.4799 67.644H62.502C62.9209 67.644 63.2517 67.9858 63.2517 68.3938Z" fill="#D6E3E6"/>
<path d="M65.1907 68.394C65.1907 68.8571 64.8158 69.2209 64.3638 69.2209C63.9117 69.2209 63.5369 68.8461 63.5369 68.394C63.5369 67.942 63.9117 67.5671 64.3638 67.5671C64.8158 67.5671 65.1907 67.942 65.1907 68.394Z" fill="#D6E3E6"/>
<path d="M67.264 68.3941C67.264 68.8902 66.856 69.2981 66.3599 69.2981C65.8637 69.2981 65.4558 68.8902 65.4558 68.3941C65.4558 67.8979 65.8637 67.49 66.3599 67.49C66.856 67.49 67.264 67.8979 67.264 68.3941Z" fill="#D6E3E6"/>
<path d="M72.4796 68.3938C72.4796 68.6253 72.4686 68.8678 72.4355 69.0884C72.4355 69.1104 72.4355 69.1325 72.4355 69.1435C72.0166 69.1435 71.6858 68.8017 71.6858 68.3938C71.6858 67.9858 72.0276 67.644 72.4355 67.644C72.4355 67.644 72.4355 67.6771 72.4355 67.6992C72.4686 67.9307 72.4796 68.1622 72.4796 68.3938Z" fill="#D6E3E6"/>
<path d="M69.7229 68.394C69.7229 68.8571 70.0978 69.2209 70.5498 69.2209C71.0018 69.2209 71.3767 68.8461 71.3767 68.394C71.3767 67.942 71.0018 67.5671 70.5498 67.5671C70.0978 67.5671 69.7229 67.942 69.7229 68.394Z" fill="#D6E3E6"/>
<path d="M67.6501 68.3941C67.6501 68.8902 68.0581 69.2981 68.5542 69.2981C69.0504 69.2981 69.4583 68.8902 69.4583 68.3941C69.4583 67.8979 69.0504 67.49 68.5542 67.49C68.0581 67.49 67.6501 67.8979 67.6501 68.3941Z" fill="#D6E3E6"/>
<path d="M68.3445 70.213C68.3445 69.7279 67.9476 69.342 67.4735 69.342C66.9995 69.342 66.6025 69.739 66.6025 70.213C66.6025 70.6871 66.9995 71.084 67.4735 71.084C67.9476 71.084 68.3445 70.6871 68.3445 70.213Z" fill="#D6E3E6"/>
<path d="M70.2955 70.1579C70.2955 69.7169 69.9317 69.353 69.4906 69.353C69.0496 69.353 68.6858 69.7169 68.6858 70.1579C68.6858 70.5989 69.0496 70.9627 69.4906 70.9627C69.9317 70.9627 70.2955 70.5989 70.2955 70.1579Z" fill="#D6E3E6"/>
<path d="M72.0274 69.9597C72.0274 69.5738 71.7187 69.2651 71.3328 69.2651C70.9469 69.2651 70.6382 69.5738 70.6382 69.9597C70.6382 70.3456 70.9469 70.6543 71.3328 70.6543C71.7187 70.6543 72.0274 70.3456 72.0274 69.9597Z" fill="#D6E3E6"/>
<path d="M64.6074 70.1579C64.6074 69.7169 64.9713 69.353 65.4123 69.353C65.8533 69.353 66.2171 69.7169 66.2171 70.1579C66.2171 70.5989 65.8533 70.9627 65.4123 70.9627C64.9713 70.9627 64.6074 70.5989 64.6074 70.1579Z" fill="#D6E3E6"/>
<path d="M62.876 69.9597C62.876 69.5738 63.1847 69.2651 63.5706 69.2651C63.9565 69.2651 64.2652 69.5738 64.2652 69.9597C64.2652 70.3456 63.9565 70.6543 63.5706 70.6543C63.1847 70.6543 62.876 70.3456 62.876 69.9597Z" fill="#D6E3E6"/>
<path d="M69.2486 71.889C69.2486 71.459 68.9068 71.1172 68.4768 71.1172C68.0469 71.1172 67.7051 71.459 67.7051 71.889C67.7051 72.3189 68.0469 72.6607 68.4768 72.6607C68.9068 72.6607 69.2486 72.3189 69.2486 71.889Z" fill="#D6E3E6"/>
<path d="M65.7314 71.889C65.7314 71.459 66.0732 71.1172 66.5032 71.1172C66.9332 71.1172 67.275 71.459 67.275 71.889C67.275 72.3189 66.9332 72.6607 66.5032 72.6607C66.0732 72.6607 65.7314 72.3189 65.7314 71.889Z" fill="#D6E3E6"/>
<path d="M64.0562 71.6795C64.0562 71.3157 64.3538 71.0291 64.7066 71.0291C65.0595 71.0291 65.3571 71.3267 65.3571 71.6795C65.3571 72.0323 65.0595 72.33 64.7066 72.33C64.3538 72.33 64.0562 72.0323 64.0562 71.6795Z" fill="#D6E3E6"/>
<path d="M63.6476 71.5143C63.6476 71.5143 63.6476 71.6245 63.6255 71.6686C63.405 71.4261 63.2176 71.1504 63.0632 70.8638C63.394 70.8968 63.6476 71.1725 63.6476 71.5143Z" fill="#D6E3E6"/>
<path d="M69.5903 71.6795C69.5903 71.3157 69.888 71.0291 70.2408 71.0291C70.5936 71.0291 70.8913 71.3267 70.8913 71.6795C70.8913 72.0323 70.5936 72.33 70.2408 72.33C69.888 72.33 69.5903 72.0323 69.5903 71.6795Z" fill="#D6E3E6"/>
<path d="M71.8291 70.8638C71.6747 71.1394 71.4873 71.404 71.2889 71.6466C71.2889 71.6025 71.2778 71.5584 71.2778 71.5143C71.2778 71.1835 71.5204 70.9189 71.8401 70.8748L71.8291 70.8638Z" fill="#D6E3E6"/>
<path d="M66.3056 73.2893C65.8977 73.1901 65.5118 73.0468 65.1479 72.8593C65.2692 72.7711 65.4236 72.7271 65.5779 72.7271C65.9307 72.7271 66.2174 72.9696 66.3056 73.2893Z" fill="#D6E3E6"/>
<path d="M68.1901 73.3665C67.9475 73.3996 67.6939 73.4216 67.4514 73.4216C67.2088 73.4216 66.9552 73.3996 66.7017 73.3665C66.7568 73.0027 67.0655 72.7271 67.4514 72.7271C67.8373 72.7271 68.1349 73.0027 68.1901 73.3665Z" fill="#D6E3E6"/>
<path d="M69.7446 72.8593C69.3807 73.0468 68.9948 73.1901 68.5869 73.2893C68.6751 72.9696 68.9618 72.7271 69.3146 72.7271C69.48 72.7271 69.6233 72.7822 69.7446 72.8593Z" fill="#D6E3E6"/>
<path d="M68.3445 66.5639C68.3445 67.049 67.9476 67.4349 67.4735 67.4349C66.9995 67.4349 66.6025 67.038 66.6025 66.5639C66.6025 66.0898 66.9995 65.6929 67.4735 65.6929C67.9476 65.6929 68.3445 66.0898 68.3445 66.5639Z" fill="#D6E3E6"/>
<path d="M70.2955 66.6191C70.2955 67.0601 69.9317 67.4239 69.4906 67.4239C69.0496 67.4239 68.6858 67.0601 68.6858 66.6191C68.6858 66.178 69.0496 65.8142 69.4906 65.8142C69.9317 65.8142 70.2955 66.178 70.2955 66.6191Z" fill="#D6E3E6"/>
<path d="M71.3328 67.512C71.7164 67.512 72.0274 67.201 72.0274 66.8174C72.0274 66.4338 71.7164 66.1228 71.3328 66.1228C70.9492 66.1228 70.6382 66.4338 70.6382 66.8174C70.6382 67.201 70.9492 67.512 71.3328 67.512Z" fill="#D6E3E6"/>
<path d="M64.6074 66.6191C64.6074 67.0601 64.9713 67.4239 65.4123 67.4239C65.8533 67.4239 66.2171 67.0601 66.2171 66.6191C66.2171 66.178 65.8533 65.8142 65.4123 65.8142C64.9713 65.8142 64.6074 66.178 64.6074 66.6191Z" fill="#D6E3E6"/>
<path d="M62.876 66.8174C62.876 67.2033 63.1847 67.512 63.5706 67.512C63.9565 67.512 64.2652 67.2033 64.2652 66.8174C64.2652 66.4315 63.9565 66.1228 63.5706 66.1228C63.1847 66.1228 62.876 66.4315 62.876 66.8174Z" fill="#D6E3E6"/>
<path d="M69.2486 64.8877C69.2486 65.3177 68.9068 65.6595 68.4768 65.6595C68.0469 65.6595 67.7051 65.3177 67.7051 64.8877C67.7051 64.4578 68.0469 64.116 68.4768 64.116C68.9068 64.116 69.2486 64.4578 69.2486 64.8877Z" fill="#D6E3E6"/>
<path d="M65.7314 64.8877C65.7314 65.3177 66.0732 65.6595 66.5032 65.6595C66.9332 65.6595 67.275 65.3177 67.275 64.8877C67.275 64.4578 66.9332 64.116 66.5032 64.116C66.0732 64.116 65.7314 64.4578 65.7314 64.8877Z" fill="#D6E3E6"/>
<path d="M64.0562 65.1083C64.0562 65.4721 64.3538 65.7587 64.7066 65.7587C65.0595 65.7587 65.3571 65.4611 65.3571 65.1083C65.3571 64.7554 65.0595 64.4578 64.7066 64.4578C64.3538 64.4578 64.0562 64.7554 64.0562 65.1083Z" fill="#D6E3E6"/>
<path d="M63.6476 65.2737C63.6476 65.2737 63.6476 65.1635 63.6255 65.1194C63.405 65.3619 63.2176 65.6376 63.0632 65.9242C63.394 65.8912 63.6476 65.6155 63.6476 65.2737Z" fill="#D6E3E6"/>
<path d="M69.5903 65.1083C69.5903 65.4721 69.888 65.7587 70.2408 65.7587C70.5936 65.7587 70.8913 65.4611 70.8913 65.1083C70.8913 64.7554 70.5936 64.4578 70.2408 64.4578C69.888 64.4578 69.5903 64.7554 69.5903 65.1083Z" fill="#D6E3E6"/>
<path d="M71.8291 65.9134C71.6747 65.6378 71.4873 65.3732 71.2889 65.1306C71.2889 65.1747 71.2778 65.2188 71.2778 65.2629C71.2778 65.5937 71.5204 65.8583 71.8401 65.9024L71.8291 65.9134Z" fill="#D6E3E6"/>
<path d="M66.3056 63.4875C65.8977 63.5868 65.5118 63.7301 65.1479 63.9175C65.2692 64.0057 65.4236 64.0498 65.5779 64.0498C65.9307 64.0498 66.2174 63.8073 66.3056 63.4875Z" fill="#D6E3E6"/>
<path d="M68.1901 63.4216C67.9475 63.3885 67.6939 63.3665 67.4514 63.3665C67.2088 63.3665 66.9552 63.3885 66.7017 63.4216C66.7568 63.7854 67.0655 64.061 67.4514 64.061C67.8373 64.061 68.1349 63.7854 68.1901 63.4216Z" fill="#D6E3E6"/>
<path d="M69.7446 63.9175C69.3807 63.7301 68.9948 63.5868 68.5869 63.4875C68.6751 63.8073 68.9618 64.0498 69.3146 64.0498C69.48 64.0498 69.6233 63.9947 69.7446 63.9175Z" fill="#D6E3E6"/>
<g opacity="0.85" style="mix-blend-mode:multiply">
<path d="M72.754 68.7466C72.754 68.8789 72.7319 69.0002 72.7099 69.1214C72.7099 69.1435 72.7099 69.1655 72.7099 69.1876C72.6107 69.8381 72.3902 70.4555 72.0814 71.0068C71.9161 71.3044 71.7286 71.5801 71.5081 71.8337C71.4199 71.9439 71.3207 72.0431 71.2215 72.1534C70.9899 72.3849 70.7474 72.5834 70.4828 72.7708C70.2953 72.9031 70.0969 73.0244 69.8874 73.1236C69.5015 73.3221 69.0936 73.4764 68.6636 73.5757C68.5313 73.6087 68.388 73.6308 68.2446 73.6528C67.9911 73.6859 67.7265 73.708 67.4508 73.708C67.1752 73.708 66.9216 73.6859 66.668 73.6528C66.5247 73.6308 66.3924 73.6087 66.2491 73.5757C65.8191 73.4764 65.4001 73.3221 65.0253 73.1236C64.8158 73.0134 64.6173 72.8921 64.4299 72.7598C64.1873 72.5944 63.9779 72.418 63.7684 72.2085C63.6471 72.0983 63.5369 71.977 63.4376 71.8557C63.2061 71.5911 63.0076 71.3044 62.8312 71.0068C62.5225 70.4555 62.302 69.8381 62.2028 69.1876C62.2028 69.1655 62.2028 69.1325 62.1918 69.0994C62.1807 68.9781 62.1697 68.8679 62.1587 68.7466C62.2469 68.8238 62.3461 68.912 62.4564 68.9891C62.6438 69.1214 62.8533 69.2317 63.1069 69.3419C63.2171 69.3971 63.3384 69.4412 63.4707 69.4963C63.6912 69.5845 63.9338 69.6617 64.1873 69.7278C64.3968 69.783 64.6063 69.8381 64.8378 69.8822C65.2568 69.9704 65.6978 70.0255 66.1609 70.0696C66.3152 70.0806 66.4586 70.0917 66.6129 70.1027C66.8885 70.1247 67.1752 70.1247 67.4619 70.1247C67.7485 70.1247 68.0352 70.1247 68.3108 70.1027C68.4652 70.1027 68.6085 70.0806 68.7628 70.0696C69.2259 70.0255 69.6779 69.9594 70.0859 69.8822C70.3064 69.8381 70.5269 69.783 70.7253 69.7278C71.012 69.6507 71.2766 69.5624 71.5192 69.4742C71.6294 69.4301 71.7286 69.386 71.8279 69.3419C72.0594 69.2317 72.2689 69.1214 72.4563 69.0002C72.5666 68.923 72.6768 68.8458 72.765 68.7576L72.754 68.7466Z" fill="#CEDADC"/>
</g>
</svg>
