<svg width="50" height="50" viewBox="0 0 50 50" fill="none" xmlns="http://www.w3.org/2000/svg">
<g clip-path="url(#clip0_1019_27750)">
<path d="M35.9668 15.605L34.4727 11.6345L33.2993 12.1121L34.8548 16.5397L35.9668 15.605Z" fill="#231F20"/>
<path d="M21.3331 30.3885L20.6372 31.0502L20.4053 30.3885C20.4394 29.7881 20.494 29.1264 20.5827 28.4714L21.3331 30.3953V30.3885Z" fill="#231F20"/>
<path d="M17.6627 14.234C17.3489 13.4017 15.0908 13.0469 12.819 13.5586C11.6592 13.8178 10.9224 13.7428 10.4722 13.6132C10.097 13.504 9.7081 13.7496 9.65352 14.1385C9.5853 14.6501 9.63305 15.2709 10.1788 15.5916C10.7041 15.8986 11.5705 15.6735 12.4574 15.3937C13.317 15.1209 14.1834 14.8002 14.7633 14.8684C14.9066 14.8889 15.0567 14.9026 15.2204 14.9162C16.3938 15.0117 17.9424 14.9708 17.6696 14.2408L17.6627 14.234Z" fill="#404041"/>
<path d="M40.5518 21.3977H40.4358V28.5951H40.5518V21.3977Z" fill="#404041"/>
<path d="M36.1598 22.5555L36.0593 22.6135L39.658 28.8466L39.7585 28.7886L36.1598 22.5555Z" fill="#404041"/>
<path d="M32.9315 25.748L32.8735 25.8484L39.1067 29.4471L39.1646 29.3466L32.9315 25.748Z" fill="#404041"/>
<path d="M38.9276 30.1299H31.7302V30.2459H38.9276V30.1299Z" fill="#404041"/>
<path d="M39.1157 30.9299L32.8826 34.5286L32.9406 34.629L39.1737 31.0303L39.1157 30.9299Z" fill="#404041"/>
<path d="M39.6729 31.5154L36.0742 37.7485L36.1747 37.8065L39.7733 31.5734L39.6729 31.5154Z" fill="#404041"/>
<path d="M40.5718 31.7529H40.4558V38.9503H40.5718V31.7529Z" fill="#404041"/>
<path d="M41.3609 31.5077L41.2605 31.5657L44.8592 37.7988L44.9596 37.7408L41.3609 31.5077Z" fill="#404041"/>
<path d="M41.9076 30.9071L41.8496 31.0076L48.0827 34.6063L48.1407 34.5058L41.9076 30.9071Z" fill="#404041"/>
<path d="M49.2836 30.1086H42.0862V30.2246H49.2836V30.1086Z" fill="#404041"/>
<path d="M48.0686 25.7331L41.8354 29.3318L41.8934 29.4322L48.1265 25.8335L48.0686 25.7331Z" fill="#404041"/>
<path d="M44.8326 22.5393L41.2339 28.7725L41.3343 28.8304L44.933 22.5973L44.8326 22.5393Z" fill="#404041"/>
<path d="M40.4969 20.6741C35.2439 20.6741 30.9937 24.9311 30.9937 30.1773C30.9937 35.4236 35.2507 39.6806 40.4969 39.6806C45.7432 39.6806 50.0002 35.4236 50.0002 30.1773C50.0002 24.9311 45.7432 20.6741 40.4969 20.6741ZM40.4969 38.0092C36.1717 38.0092 32.6719 34.5026 32.6719 30.1842C32.6719 25.8657 36.1785 22.3591 40.4969 22.3591C44.8154 22.3591 48.3219 25.8657 48.3219 30.1842C48.3219 34.5026 44.8154 38.0092 40.4969 38.0092Z" fill="#404041"/>
<path d="M40.4966 28.6016C39.6233 28.6016 38.9138 29.3111 38.9138 30.1843C38.9138 31.0575 39.6233 31.767 40.4966 31.767C41.3698 31.767 42.0793 31.0575 42.0793 30.1843C42.0793 29.3111 41.3698 28.6016 40.4966 28.6016Z" fill="#231F20"/>
<path d="M9.55763 22.7883H9.44165V29.9857H9.55763V22.7883Z" fill="#404041"/>
<path d="M5.16074 23.9352L5.0603 23.9932L8.65899 30.2263L8.75943 30.1683L5.16074 23.9352Z" fill="#404041"/>
<path d="M1.93934 27.133L1.88135 27.2334L8.11446 30.8321L8.17245 30.7317L1.93934 27.133Z" fill="#404041"/>
<path d="M7.9342 31.5139H0.736816V31.6299H7.9342V31.5139Z" fill="#404041"/>
<path d="M8.11788 32.3127L1.88477 35.9114L1.94276 36.0118L8.17587 32.4131L8.11788 32.3127Z" fill="#404041"/>
<path d="M8.68756 32.9021L5.08887 39.1353L5.1893 39.1932L8.788 32.9601L8.68756 32.9021Z" fill="#404041"/>
<path d="M9.57862 33.137H9.46265V40.3343H9.57862V33.137Z" fill="#404041"/>
<path d="M10.3563 32.8971L10.2559 32.9551L13.8546 39.1882L13.955 39.1302L10.3563 32.8971Z" fill="#404041"/>
<path d="M10.9117 32.299L10.8538 32.3994L17.0869 35.9981L17.1449 35.8977L10.9117 32.299Z" fill="#404041"/>
<path d="M18.2836 31.4932H11.0862V31.6091H18.2836V31.4932Z" fill="#404041"/>
<path d="M17.0722 27.1179L10.8391 30.7166L10.8971 30.817L17.1302 27.2183L17.0722 27.1179Z" fill="#404041"/>
<path d="M13.8406 23.9258L10.2419 30.1589L10.3424 30.2169L13.9411 23.9838L13.8406 23.9258Z" fill="#404041"/>
<path d="M9.50327 22.0649C4.25021 22.0649 0 26.322 0 31.5682C0 36.8145 4.25703 41.0715 9.50327 41.0715C14.7495 41.0715 19.0065 36.8145 19.0065 31.5682C19.0065 26.322 14.7495 22.0649 9.50327 22.0649ZM9.50327 39.3932C5.17802 39.3932 1.67825 35.8866 1.67825 31.5682C1.67825 27.2498 5.18484 23.7432 9.50327 23.7432C13.8217 23.7432 17.3283 27.2498 17.3283 31.5682C17.3283 35.8866 13.8217 39.3932 9.50327 39.3932Z" fill="#404041"/>
<path d="M9.5034 29.9863C8.63016 29.9863 7.92065 30.6958 7.92065 31.5691C7.92065 32.4423 8.63016 33.1518 9.5034 33.1518C10.3766 33.1518 11.0861 32.4423 11.0861 31.5691C11.0861 30.6958 10.3766 29.9863 9.5034 29.9863ZM9.5034 32.8721C8.78707 32.8721 8.20036 32.2922 8.20036 31.5691C8.20036 30.8459 8.78025 30.266 9.5034 30.266C10.2265 30.266 10.8064 30.8459 10.8064 31.5691C10.8064 32.2922 10.2265 32.8721 9.5034 32.8721Z" fill="#231F20"/>
<path d="M23.5068 29.2432L9.60645 30.1641L9.62764 30.484L23.528 29.5632L23.5068 29.2432Z" fill="#231F20"/>
<path d="M9.17158 32.7784L9.12573 33.0957L23.3456 35.1499L23.3914 34.8325L9.17158 32.7784Z" fill="#231F20"/>
<path d="M10.6703 31.2344L23.6665 31.6369V32.9331L10.4998 32.5306C10.4998 32.5306 11.1001 32.2986 10.6703 31.2344Z" fill="#231F20"/>
<path d="M40.0325 31.2824L35.7754 19.2959L24.2801 33.1449L23.5842 31.6781L32.2825 21.056L35.1546 17.1606L36.3962 17.0037L41.1854 31.0027C40.7556 30.9277 40.319 31.0641 40.0325 31.2824Z" fill="#231F20"/>
<path d="M23.1887 29.147C21.3808 29.147 19.9209 30.6069 19.9209 32.4148C19.9209 34.2227 21.3808 35.6826 23.1887 35.6826C24.9966 35.6826 26.4565 34.2227 26.4565 32.4148C26.4565 30.6069 24.9966 29.147 23.1887 29.147ZM21.5036 34.2295C20.5963 33.9361 20.5622 33.3699 20.5622 33.3699C20.6372 32.7422 20.76 32.1624 21.0261 31.7121L22.2609 32.5717L22.1449 34.2431C22.1449 34.2431 22.4042 34.516 21.4968 34.2227L21.5036 34.2295ZM22.4997 32.1419L21.3331 30.8184C21.7697 30.1089 22.4246 29.6723 23.2774 29.4949L23.5708 31.8213L22.5065 32.1419H22.4997ZM24.6623 35.205C24.6623 35.205 23.9801 35.205 23.7345 34.5228L24.4235 33.1038C24.7578 33.329 25.0785 33.6496 25.3786 34.0999L24.6555 35.1982L24.6623 35.205ZM25.2354 33.1038L24.212 31.7599C24.0961 31.1322 24.212 30.5114 24.56 29.8906C25.7266 30.6956 26.1086 32.3466 26.1086 32.3466L25.2285 33.1038H25.2354Z" fill="#A7A9AC"/>
<path d="M23.1887 29.522C21.5924 29.522 20.2961 30.8182 20.2961 32.4146C20.2961 34.011 21.5924 35.3072 23.1887 35.3072C24.7851 35.3072 26.0813 34.011 26.0813 32.4146C26.0813 30.8182 24.7851 29.522 23.1887 29.522ZM21.6947 34.0178C20.8897 33.7585 20.8624 33.2605 20.8624 33.2605C20.9306 32.7079 21.0398 32.1894 21.2717 31.7938L22.3633 32.551L22.2609 34.0314C22.2609 34.0314 22.4929 34.277 21.6879 34.0178H21.6947ZM22.5816 32.169L21.5446 30.9956C21.9335 30.3679 22.5065 29.9791 23.2638 29.8221L23.523 31.8756L22.5816 32.1622V32.169ZM24.4918 34.8842C24.4918 34.8842 23.8914 34.8842 23.6731 34.2838L24.2871 33.0286C24.5873 33.2264 24.867 33.5061 25.1331 33.9154L24.4986 34.891L24.4918 34.8842ZM24.9966 33.0286L24.0893 31.8415C23.9869 31.2889 24.0893 30.7363 24.3963 30.1837C25.4332 30.8932 25.7675 32.3532 25.7675 32.3532L24.9898 33.0286H24.9966Z" fill="#E6E7E8"/>
<path d="M23.2092 32.2786C23.4139 32.2786 23.5844 32.4491 23.5844 32.6538V34.9733H22.834V32.6538C22.834 32.4491 23.0045 32.2786 23.2092 32.2786Z" fill="#231F20"/>
<path d="M15.5888 20.4896L17.5809 24.7467L20.6467 30.8644L21.393 30.1181L16.2438 19.7392L15.4388 18.136L14.661 16.2804L15.0362 15.2911L15.2273 14.9091C15.0635 14.8955 14.9134 14.8818 14.7702 14.8613C14.1903 14.7931 13.3239 15.1138 12.4643 15.3867L13.6786 16.5328L14.8998 19.6232L9.04639 30.5864L9.99467 30.6751L15.5888 20.4896Z" fill="#231F20"/>
<path d="M36.396 17.0035L15.2889 19.7173C15.2684 19.3216 15.3366 18.9091 15.2889 18.2951L23.0791 17.1945L29.4442 16.41L35.9662 15.605L36.396 17.0035Z" fill="#231F20"/>
<path d="M37.6247 11.0478C37.6247 11.0478 38.7708 12.3031 38.4229 13.8244C38.225 14.6772 37.6588 15.0592 37.1949 15.223C36.8606 15.3458 36.6969 15.721 36.8333 16.0485C36.9493 16.335 37.2563 16.4919 37.5565 16.4169C38.3956 16.219 39.9169 15.5641 39.9442 13.3946C39.9783 10.3997 37.8976 8.97388 37.8976 8.97388L36.7446 10.6999L37.6247 11.0478Z" fill="#404041"/>
<path d="M31.4911 13.5106C31.4911 13.5106 32.6373 14.7658 32.2893 16.2872C32.0915 17.1399 31.5253 17.522 31.0613 17.6857C30.7271 17.8085 30.5633 18.1837 30.6998 18.5112C30.8157 18.7977 31.1227 18.9546 31.4229 18.8796C32.262 18.6817 33.7834 18.0268 33.8107 15.8574C33.8448 12.8624 32.2689 12.2075 32.2689 12.2075L30.6111 13.1626L31.4911 13.5106Z" fill="#404041"/>
<path d="M30.3726 12.9987C30.2567 12.6849 30.4136 12.337 30.7274 12.2142L35.5097 10.3586L37.1061 9.83325L37.8907 10.1061L37.7406 11.1158L31.1572 13.374C30.8365 13.4899 30.4886 13.3262 30.3726 13.0056V12.9987Z" fill="#231F20"/>
<g style="mix-blend-mode:multiply" opacity="0.7">
<path d="M34.0364 12.2415C34.0159 12.1596 33.9955 12.0777 33.9818 11.9959L33.9341 11.7571C33.9136 11.6752 33.9 11.6002 33.8795 11.5183C33.859 11.4364 33.8317 11.3614 33.8044 11.2795C33.8727 11.3341 33.9272 11.4092 33.9682 11.4842C34.0091 11.5592 34.0364 11.6479 34.0569 11.7298C34.0773 11.8117 34.0842 11.9004 34.0842 11.989C34.0842 12.0777 34.0705 12.1596 34.0432 12.2483L34.0364 12.2415Z" fill="#F4C1AB"/>
</g>
<g style="mix-blend-mode:multiply" opacity="0.7">
<path d="M33.3326 12.5556C33.3121 12.4669 33.2917 12.385 33.278 12.2963L33.2303 12.0439C33.2166 11.962 33.1961 11.8802 33.1825 11.7915C33.1689 11.7096 33.1416 11.6277 33.1279 11.5322C33.1893 11.6004 33.2371 11.6755 33.2712 11.7574C33.3053 11.8392 33.3326 11.9279 33.3462 12.0166C33.3599 12.1053 33.3735 12.194 33.3667 12.2827C33.3667 12.3714 33.3531 12.46 33.3258 12.5487L33.3326 12.5556Z" fill="#F4C1AB"/>
</g>
<g style="mix-blend-mode:multiply" opacity="0.7">
<path d="M32.7531 12.7545C32.7326 12.6726 32.7189 12.5976 32.7053 12.5225L32.6644 12.2974C32.6507 12.2224 32.6371 12.1473 32.6234 12.0723C32.6098 11.9972 32.5893 11.9222 32.5757 11.8403C32.6303 11.9017 32.678 11.97 32.7121 12.045C32.7462 12.12 32.7667 12.1951 32.7803 12.2769C32.794 12.3588 32.8008 12.4339 32.794 12.5157C32.794 12.5976 32.7735 12.6795 32.7462 12.7545H32.7531Z" fill="#F4C1AB"/>
</g>
<g style="mix-blend-mode:multiply" opacity="0.7">
<path d="M38.4838 10.5361C38.4497 10.4542 38.4224 10.3792 38.3951 10.3041C38.3678 10.2291 38.3406 10.154 38.3064 10.0858C38.2792 10.0108 38.245 9.94255 38.2041 9.87433C38.17 9.79928 38.1291 9.73789 38.0881 9.66284C38.1632 9.70377 38.2314 9.75835 38.286 9.82657C38.3406 9.89479 38.3815 9.96984 38.4156 10.0449C38.4497 10.1199 38.4702 10.2086 38.4838 10.2905C38.4975 10.3723 38.4975 10.461 38.4838 10.5429V10.5361Z" fill="#F4C1AB"/>
</g>
<g style="mix-blend-mode:multiply" opacity="0.7">
<path d="M39.0433 10.113C38.9956 10.0516 38.9478 9.98338 38.9069 9.92198L38.7773 9.73778C38.7363 9.67638 38.6886 9.61498 38.6477 9.55358C38.6067 9.49218 38.5521 9.43761 38.5044 9.36938C38.5794 9.39667 38.6545 9.43761 38.7159 9.48536C38.7773 9.53994 38.8319 9.59452 38.8728 9.66274C38.9205 9.73096 38.9547 9.79918 38.9819 9.87422C39.0092 9.94927 39.0297 10.0243 39.0365 10.1062L39.0433 10.113Z" fill="#F4C1AB"/>
</g>
<path d="M9.55788 32.9334C10.3529 32.9334 10.9974 32.2889 10.9974 31.4939C10.9974 30.6989 10.3529 30.0544 9.55788 30.0544C8.76288 30.0544 8.11841 30.6989 8.11841 31.4939C8.11841 32.2889 8.76288 32.9334 9.55788 32.9334Z" fill="#231F20"/>
</g>
<defs>
<clipPath id="clip0_1019_27750">
<rect width="50" height="50" fill="white"/>
</clipPath>
</defs>
</svg>
