<svg width="50" height="50" viewBox="0 0 50 50" fill="none" xmlns="http://www.w3.org/2000/svg">
<path d="M1.33936 31.5228C1.33936 31.6421 1.42727 31.7677 1.57797 31.7677H48.5098C48.6605 31.7677 48.7485 31.6484 48.7485 31.5228V31.3407C48.7485 31.2591 48.7108 31.1838 48.6292 31.1335L43.2854 28.088C43.2854 28.088 43.2226 28.0629 43.1912 28.0566C43.185 28.0566 43.1724 28.0566 43.1661 28.0566H6.92798C6.88402 28.0566 6.84635 28.0692 6.80867 28.088L1.46494 31.1335C1.38331 31.1838 1.34563 31.2591 1.34563 31.3407V31.5228H1.33936Z" fill="#3E403D"/>
<path d="M48.5099 31.5855H1.57803C1.33313 31.5855 1.24522 31.259 1.45872 31.1397L6.80245 28.1005C6.83384 28.0817 6.8778 28.0691 6.92175 28.0691H43.1662C43.2101 28.0691 43.2478 28.0817 43.2855 28.1005L48.6292 31.1397C48.8427 31.2653 48.7548 31.5855 48.5099 31.5855Z" fill="#919296"/>
<g opacity="0.53" style="mix-blend-mode:multiply">
<path d="M19.3421 28.063L12.6169 31.5794H6.08008L15.4991 28.063H19.3421ZM20.5979 28.063L14.7644 31.5794H16.5729L21.6654 28.063H20.6042H20.5979ZM23.2541 28.063L19.2856 31.5794H25.8224L27.1033 28.063H23.2604H23.2541ZM28.3529 28.063L27.9636 31.5794H29.7721L29.4204 28.063H28.3592H28.3529Z" fill="#999999"/>
</g>
<path d="M12.5499 25.1115C12.519 25.2245 12.4831 25.3376 12.4419 25.4455C12.3854 25.6151 12.3237 25.7693 12.2518 25.9286C12.2107 26.0211 12.1696 26.1085 12.1233 26.201C12.1233 26.201 12.1233 26.201 12.1233 26.2062C11.5631 27.2854 10.674 28.2157 9.50737 28.817C8.34587 29.4183 7.07645 29.6084 5.8687 29.4388C5.76078 29.4234 5.65799 29.4028 5.55006 29.3874C5.3856 29.3515 5.23142 29.3155 5.0721 29.2692C4.9539 29.2384 4.83569 29.2024 4.72263 29.1613C4.04937 28.93 3.41723 28.5754 2.85704 28.118C2.78509 28.0615 2.72342 28.0049 2.65147 27.9433C2.4202 27.7326 2.1992 27.5064 2.00391 27.2597C1.73666 26.936 1.50539 26.5813 1.30496 26.1959C1.20731 26.0006 1.1148 25.8053 1.03771 25.6049C1.01715 25.5586 1.00173 25.5124 0.986315 25.4712C0.914364 25.2657 0.852692 25.0652 0.801298 24.8597C0.79102 24.8134 0.780741 24.7671 0.770462 24.7209C0.62656 24.0733 0.590585 23.4206 0.657396 22.7782C0.657396 22.7422 0.667675 22.7114 0.667675 22.6806C0.683093 22.5521 0.70365 22.4185 0.729347 22.29C0.734487 22.254 0.739626 22.218 0.749905 22.1872C0.842413 21.7246 0.991454 21.2775 1.19189 20.851C1.20217 20.8253 1.21759 20.7944 1.22786 20.7687C1.41802 20.3781 1.64415 20.003 1.91654 19.6586C1.9371 19.6329 1.95765 19.6021 1.97821 19.5764C2.49729 18.934 3.14998 18.3943 3.92603 17.9935C4.70721 17.5926 5.52437 17.3767 6.34666 17.3254C6.38264 17.3254 6.41348 17.3254 6.44945 17.3202C6.8863 17.2997 7.32314 17.3305 7.75485 17.4024C7.78568 17.4076 7.81138 17.4127 7.84736 17.423C8.3099 17.5104 8.76216 17.6491 9.18873 17.8393C9.2247 17.8547 9.25554 17.8701 9.28638 17.8855C9.40458 17.9421 9.52279 17.9986 9.64099 18.0654C9.67183 18.0808 9.69752 18.0963 9.72836 18.1117C9.81059 18.1579 9.88768 18.2042 9.96477 18.2504C10.4325 18.5434 10.8642 18.9031 11.2445 19.3246C11.2753 19.3605 11.3061 19.3914 11.337 19.4274C11.4757 19.5867 11.6094 19.7563 11.7276 19.9361C11.7533 19.9773 11.7841 20.0184 11.8098 20.0595C11.928 20.2394 12.0359 20.4244 12.1387 20.6197C12.4882 21.2981 12.6989 22.0124 12.7811 22.732C12.7811 22.732 12.7811 22.732 12.7811 22.7371C12.7914 22.8245 12.7966 22.9118 12.8017 22.9992C12.8531 23.7239 12.7709 24.4434 12.5704 25.1269L12.5499 25.1115Z" fill="#3E403D"/>
<path d="M6.43414 17.3047C6.39817 17.3047 6.36219 17.3047 6.32622 17.3098C6.3365 17.3201 6.34164 17.3304 6.34678 17.3407C6.49068 17.6233 5.77117 18.3788 4.46063 19.0521C3.1501 19.7253 2.11709 19.8795 1.97318 19.5968C1.96804 19.5866 1.9629 19.5711 1.95776 19.5609C1.93721 19.5866 1.91665 19.6174 1.89095 19.6431C2.11195 20.0542 3.38651 19.7099 4.50175 19.1343C5.61185 18.5587 6.63458 17.721 6.429 17.3047H6.43414ZM7.82691 17.4075C7.79607 17.4023 7.76524 17.3972 7.73954 17.3921C7.67787 18.1013 6.55235 19.196 4.95915 20.0183C3.36595 20.8406 1.82414 21.1232 1.21256 20.7635C1.20228 20.7892 1.18686 20.8149 1.17658 20.8457C1.83442 21.2209 3.37109 20.9434 5.0054 20.1005C6.63458 19.2576 7.75496 18.1681 7.83205 17.4126L7.82691 17.4075ZM5.82256 21.6886C3.67945 22.7935 1.5312 23.0145 0.714041 22.2796C0.71918 22.2487 0.724319 22.2128 0.734598 22.1768C1.48494 22.9426 3.62806 22.7216 5.78145 21.6115C7.93484 20.5014 9.35844 18.8773 9.16828 17.8238C9.20426 17.8392 9.23509 17.8546 9.26593 17.87C9.38927 18.9647 7.96567 20.5887 5.82256 21.6937V21.6886ZM6.023 22.074C3.8953 23.1738 1.72649 23.4102 0.64209 22.7678C0.64209 22.7318 0.647229 22.701 0.652369 22.6702C1.69052 23.328 3.84905 23.0916 5.98188 21.9918C8.11471 20.892 9.55887 19.2679 9.62055 18.0396C9.65138 18.055 9.67708 18.0705 9.70791 18.091C9.59999 19.3502 8.15069 20.9742 6.023 22.074ZM6.93266 23.8368C4.33215 25.1782 1.77789 25.5636 0.785992 24.8493C0.775713 24.803 0.765434 24.7568 0.755156 24.7105C1.63912 25.5071 4.2345 25.1268 6.89155 23.7597C9.54859 22.3875 11.3628 20.4911 11.224 19.3142C11.2549 19.345 11.2857 19.381 11.3165 19.417C11.3268 20.6453 9.52804 22.5006 6.92752 23.8419L6.93266 23.8368ZM7.28214 24.5152C4.6919 25.8514 2.1325 26.2574 1.0224 25.5945C1.00698 25.5482 0.986427 25.502 0.971009 25.4557C1.98346 26.1906 4.58912 25.8 7.24102 24.433C9.89293 23.0659 11.7277 21.1695 11.7123 19.9155C11.738 19.9566 11.7637 19.9977 11.7945 20.0388C11.6866 21.3288 9.87751 23.179 7.28728 24.5152H7.28214ZM8.54128 26.9564C6.30052 28.1128 4.07518 28.5188 2.84173 28.1128C2.76978 28.0562 2.70297 27.9997 2.63616 27.938C3.76168 28.4931 6.1155 28.1025 8.49503 26.8742C10.8745 25.6459 12.5551 23.955 12.7556 22.7164C12.7658 22.8038 12.771 22.8912 12.7761 22.9837C12.3958 24.2274 10.7718 25.8 8.531 26.9564H8.54128ZM9.09119 28.0202C7.58022 28.8014 6.08467 29.2537 5.06194 29.2588C4.94373 29.228 4.82553 29.192 4.71246 29.1509C5.69922 29.2588 7.39006 28.7963 9.05008 27.938C10.7306 27.0695 12.072 25.9748 12.55 25.1062C12.514 25.2193 12.4832 25.3272 12.4421 25.4403C11.8459 26.2729 10.6022 27.2391 9.09119 28.0151V28.0202ZM9.2094 28.2515C8.00679 28.8734 6.81446 29.2845 5.86368 29.4336C5.75575 29.4181 5.65296 29.4027 5.54504 29.3822C6.53179 29.2845 7.85775 28.8477 9.16828 28.1744C10.4891 27.496 11.5992 26.6737 12.2468 25.9337C12.2056 26.021 12.1645 26.1135 12.1183 26.2009C12.1183 26.2009 12.1183 26.2009 12.1183 26.2061C11.445 26.8999 10.4171 27.6348 9.21454 28.2567L9.2094 28.2515Z" fill="#131617"/>
<g opacity="0.53" style="mix-blend-mode:multiply">
<path d="M12.5499 25.1113C12.519 25.2244 12.4831 25.3374 12.4419 25.4454C12.3854 25.615 12.3237 25.7691 12.2518 25.9285C12.2107 26.021 12.1696 26.1083 12.1233 26.2009C12.1233 26.2009 12.1233 26.2009 12.1233 26.206C11.5631 27.2853 10.674 28.2155 9.50737 28.8168C8.34587 29.4181 7.07645 29.6082 5.8687 29.4386C5.76078 29.4232 5.65799 29.4027 5.55006 29.3873C5.3856 29.3513 5.23142 29.3153 5.0721 29.269C4.9539 29.2382 4.83569 29.2022 4.72263 29.1611C4.04937 28.9299 3.41723 28.5752 2.85704 28.1178C2.78509 28.0613 2.72342 28.0048 2.65147 27.9431C2.42019 27.7324 2.1992 27.5062 2.00391 27.2596C4.50677 27.8095 7.11757 26.9204 8.7673 24.9366C10.3297 23.0607 10.7716 20.5116 9.96477 18.24C10.4325 18.5329 10.8642 18.8927 11.2445 19.3141C11.2753 19.3501 11.3061 19.3809 11.337 19.4169C11.4757 19.5762 11.6094 19.7458 11.7276 19.9257C11.7533 19.9668 11.7841 20.0079 11.8098 20.049C11.928 20.2289 12.0359 20.4139 12.1387 20.6092C12.4882 21.2876 12.6989 22.002 12.7811 22.7215C12.7811 22.7215 12.7811 22.7215 12.7811 22.7266C12.7914 22.814 12.7966 22.9014 12.8017 22.9888C12.8531 23.7134 12.7709 24.4329 12.5704 25.1164L12.5499 25.1113Z" fill="#999999"/>
</g>
<g opacity="0.13" style="mix-blend-mode:screen">
<path d="M4.52214 20.892C3.80777 21.6064 2.88269 21.8428 2.46126 21.4214C2.03983 20.9999 2.27624 20.0749 2.99062 19.3605C3.70499 18.6461 4.63007 18.4097 5.0515 18.8311C5.47292 19.2526 5.23651 20.1776 4.52214 20.892Z" fill="white"/>
</g>
<path d="M18.7877 29.2904C17.0451 29.9532 15.1089 29.9532 13.776 29.5511C7.23764 27.8532 5.23444 19.051 11.393 14.784C12.4877 14.0617 13.694 13.7266 13.776 13.7266C15.0941 13.3319 17.0451 13.3244 18.7877 13.9872C19.8079 14.3819 20.7164 14.9478 21.5132 15.7074C21.7962 15.9904 22.0419 16.2361 22.3026 16.5713C22.3026 16.5713 22.5483 16.8766 22.5483 16.8989C25.6611 21.2702 23.7398 27.3766 18.7877 29.2755V29.2904Z" fill="#F38120"/>
<g opacity="0.88" style="mix-blend-mode:multiply">
<path d="M22.5485 16.9064C22.5485 16.9064 22.5485 16.9064 22.5485 16.8989C22.4666 16.7872 22.3921 16.683 22.3102 16.5787C22.7943 17.8149 23.0921 19.6394 23.0921 21.6351C23.0921 23.6309 22.7943 25.4702 22.3028 26.7064C22.3921 26.5873 22.4815 26.4756 22.5634 26.3564C22.973 25.1277 23.2187 23.4521 23.2187 21.6277C23.2187 19.8032 22.973 18.1277 22.5634 16.8989L22.5485 16.9064ZM21.8485 16.0574C21.8485 16.0574 21.7964 15.9979 21.7666 15.9681C21.6847 15.8787 21.6028 15.8042 21.5134 15.7149C21.6177 15.8713 21.7219 16.0574 21.8113 16.2585C22.3772 17.4798 22.7347 19.4606 22.7347 21.6351C22.7347 24.1447 22.2507 26.4532 21.5134 27.5628C21.6326 27.4511 21.7517 27.3319 21.856 27.2128C22.4741 25.9841 22.8538 23.9287 22.8538 21.6351C22.8538 19.3415 22.4666 17.2787 21.8411 16.05L21.8485 16.0574ZM19.123 14.1287C19.0113 14.0766 18.8996 14.0393 18.7879 13.9947C20.1432 15 21.1262 18.0457 21.1262 21.6426C21.1262 21.6947 21.1262 21.7543 21.1262 21.8138C21.0964 25.3362 20.1209 28.3075 18.7879 29.2979C18.8996 29.2532 19.0113 29.2085 19.123 29.1639C20.374 27.95 21.2528 25.0383 21.2528 21.65V21.5234C21.2304 18.1872 20.3592 15.3351 19.123 14.1362V14.1287ZM14.9974 13.5032C14.9304 13.5032 14.8708 13.5181 14.8038 13.5255C16.3081 14.2776 17.44 17.6362 17.44 21.6426C17.44 23.4968 17.1943 25.2096 16.7921 26.5947C16.3155 28.2032 15.6081 29.3575 14.8038 29.7671C14.8708 29.7671 14.9304 29.782 14.9974 29.7894C15.7868 29.2979 16.4719 28.1139 16.9336 26.5202C17.3283 25.15 17.5666 23.467 17.5666 21.65C17.5666 17.733 16.4794 14.434 15.0049 13.5106L14.9974 13.5032ZM13.9549 13.6745C13.8953 13.6893 13.8357 13.7042 13.7762 13.7266C15.273 14.2925 16.4198 17.6287 16.4198 21.6351C16.4198 23.7724 16.0921 25.7234 15.5634 27.1532C15.1017 28.4117 14.4762 29.283 13.7762 29.5437C13.8357 29.5585 13.8953 29.5809 13.9549 29.5958C14.64 29.2458 15.2432 28.3522 15.6974 27.1011C16.2187 25.6564 16.5389 23.7351 16.5389 21.6351C16.5389 17.7032 15.4294 14.4191 13.9549 13.6745ZM11.3857 14.784C11.3485 14.8138 11.3113 14.8362 11.274 14.8585C12.7038 15.6851 13.7538 18.4181 13.7538 21.6351C13.7538 24.3011 13.0315 26.6245 11.9815 27.8234C11.7655 28.0766 11.5272 28.2702 11.2815 28.4117C11.3187 28.4415 11.3559 28.4639 11.3932 28.4862C11.6538 28.3224 11.907 28.0915 12.1378 27.816C13.1804 26.5649 13.8804 24.2638 13.8804 21.6277C13.8804 18.4106 12.8304 15.6777 11.3932 14.7766L11.3857 14.784ZM10.8421 15.1713C10.8421 15.1713 10.7676 15.2234 10.7304 15.2606C12.1006 15.6851 13.1655 18.3809 13.1655 21.6351C13.1655 24.5319 12.324 26.9819 11.1772 27.7936C11.0357 27.8979 10.8868 27.9724 10.7304 28.0171C10.7676 28.0468 10.8049 28.0766 10.8421 28.1064C11.0134 28.0394 11.1847 27.9351 11.3485 27.8085C12.4804 26.8926 13.2847 24.4724 13.2847 21.6426C13.2847 18.4032 12.2272 15.7 10.8421 15.1787V15.1713ZM9.40486 16.6085C9.40486 16.6085 9.35273 16.6755 9.33039 16.7053C10.1421 17.2191 10.7527 19.2372 10.7527 21.6351C10.7527 24.033 10.1421 26.0585 9.33039 26.5724C9.36018 26.6022 9.38252 26.6394 9.40486 26.6692C10.2612 26.1181 10.8793 24.1075 10.8793 21.6351C10.8793 19.1628 10.2612 17.1596 9.40486 16.6085ZM8.42188 18.2096C8.40699 18.2543 8.38465 18.2915 8.3623 18.3362C8.3772 18.3362 8.39954 18.3362 8.41443 18.3362C8.8389 18.3362 9.29316 19.6617 9.29316 21.6426C9.29316 23.6234 8.8389 24.949 8.41443 24.949C8.39954 24.949 8.3772 24.949 8.3623 24.949C8.38465 24.9936 8.39954 25.0309 8.42188 25.0756C9.04741 25.0681 9.41976 23.3255 9.41976 21.6426C9.41976 19.9596 9.04741 18.2245 8.42188 18.217V18.2096Z" fill="#F7CC2F"/>
</g>
<g opacity="0.88" style="mix-blend-mode:multiply">
<path d="M24.053 21.6353C24.053 23.3928 23.4945 25.0236 22.5562 26.364C22.4743 26.4832 22.3849 26.5949 22.2955 26.714C22.1541 26.8853 22.0126 27.0566 21.8636 27.213C21.7519 27.3321 21.6402 27.4513 21.5211 27.563C20.8285 28.2257 20.0168 28.7694 19.1306 29.1492C19.0189 29.2013 18.9072 29.2385 18.7955 29.2832C17.887 29.6258 16.904 29.8194 15.8764 29.8194C15.5785 29.8194 15.2881 29.8045 15.0051 29.7747C14.9381 29.7747 14.8785 29.7598 14.8115 29.7523C14.5211 29.7151 14.2381 29.663 13.9625 29.596C13.903 29.5811 13.8434 29.5662 13.7838 29.5438C12.9274 29.3204 12.1232 28.9555 11.4008 28.4864C11.3636 28.4566 11.3264 28.4343 11.2891 28.4119C11.1476 28.3151 10.9987 28.2109 10.8572 28.0992C10.82 28.0694 10.7827 28.047 10.7455 28.0098C10.6189 27.9055 10.4923 27.8013 10.3657 27.6821C10.6413 27.7268 10.9168 27.764 11.1923 27.7864C11.2519 27.7864 11.304 27.7938 11.3636 27.8013C11.5721 27.8162 11.7732 27.8236 11.9817 27.8236C12.0338 27.8236 12.0859 27.8236 12.1381 27.8236C13.3147 27.8087 14.4764 27.5779 15.5636 27.1609C15.6083 27.146 15.653 27.1236 15.7051 27.1087C16.0774 26.9598 16.4423 26.7811 16.7998 26.5874C16.8445 26.5577 16.8966 26.5353 16.9413 26.5055C17.954 25.9247 18.8775 25.1651 19.6519 24.2342C20.27 23.4896 20.7689 22.6704 21.1338 21.8066C21.1785 21.7098 21.2232 21.613 21.2604 21.5162C21.9158 19.8481 22.1168 18.031 21.8264 16.2587C21.8115 16.1619 21.7966 16.0651 21.7743 15.9683C21.8041 15.998 21.8264 16.0278 21.8562 16.0576C22.0126 16.2289 22.169 16.4002 22.3104 16.5864C22.3924 16.6906 22.4743 16.7949 22.5487 16.9066C22.5487 16.9066 22.5487 16.9066 22.5487 16.914C23.4945 18.247 24.053 19.8853 24.053 21.6427V21.6353Z" fill="#F7CC2F"/>
</g>
<g opacity="0.26" style="mix-blend-mode:screen">
<path d="M13.6494 18.3884C12.6142 19.4235 11.2738 19.766 10.6632 19.1554C10.0525 18.5447 10.3951 17.2043 11.4302 16.1692C12.4653 15.1341 13.8057 14.7915 14.4164 15.4022C15.027 16.0128 14.6845 17.3533 13.6494 18.3884Z" fill="white"/>
</g>
<path d="M37.954 31.1265C38.1172 30.8439 38.2114 30.5111 38.2114 30.1595C38.2114 29.0857 37.3386 28.2129 36.2648 28.2129C35.1911 28.2129 34.3182 29.0857 34.3182 30.1595C34.3182 30.5111 34.4124 30.8439 34.5757 31.1265C34.2115 31.5284 33.9917 32.0621 33.9917 32.6461C33.9917 33.3117 34.2743 33.902 34.7264 34.3227C34.7389 34.3353 34.7515 34.3478 34.7641 34.3667L37.9665 31.1642C37.9665 31.1642 37.9477 31.1453 37.9414 31.1328L37.954 31.1265ZM37.5081 30.7372C37.1502 30.5049 36.7295 30.373 36.2711 30.373C35.8127 30.373 35.392 30.5049 35.0341 30.7372C34.8959 30.5676 34.8143 30.3667 34.8143 30.1532C34.8143 29.5441 35.4674 29.0543 36.2711 29.0543C37.0749 29.0543 37.7279 29.5441 37.7279 30.1532C37.7279 30.3667 37.6463 30.5676 37.5081 30.7372Z" fill="#31465A"/>
<path d="M37.9788 31.1519L34.7764 34.3543C34.8392 34.4171 34.9082 34.4674 34.9899 34.5113C35.128 34.5867 35.285 34.6306 35.4545 34.6306H37.0934C37.263 34.6306 37.42 34.5867 37.5518 34.5113C37.646 34.4611 37.7339 34.392 37.8093 34.3104C38.2614 33.8959 38.544 33.2994 38.544 32.6401C38.544 32.0686 38.3305 31.5475 37.9851 31.1519H37.9788Z" fill="#293E4F"/>
<g opacity="0.4">
<path d="M34.789 31.4782C34.5316 31.7231 34.3683 32.0873 34.3934 32.4452C34.406 32.6147 34.6697 32.6147 34.6571 32.4452C34.632 32.1564 34.7639 31.8675 34.9711 31.6666C35.0904 31.5473 34.9083 31.3652 34.7827 31.4782H34.789Z" fill="white"/>
</g>
<path d="M41.8985 32.1776C42.0128 31.9798 42.0787 31.7468 42.0787 31.5006C42.0787 30.749 41.4677 30.1379 40.716 30.1379C39.9644 30.1379 39.3533 30.749 39.3533 31.5006C39.3533 31.7468 39.4193 31.9798 39.5336 32.1776C39.2786 32.4589 39.1248 32.8326 39.1248 33.2414C39.1248 33.7073 39.3226 34.1205 39.6391 34.415C39.6479 34.4238 39.6566 34.4326 39.6654 34.4458L41.9073 32.204C41.9073 32.204 41.8941 32.1908 41.8897 32.182L41.8985 32.1776ZM41.5864 31.905C41.3358 31.7424 41.0413 31.6501 40.7204 31.6501C40.3995 31.6501 40.105 31.7424 39.8545 31.905C39.7578 31.7864 39.7006 31.6457 39.7006 31.4962C39.7006 31.0698 40.1578 30.727 40.7204 30.727C41.2831 30.727 41.7403 31.0698 41.7403 31.4962C41.7403 31.6457 41.6831 31.7864 41.5864 31.905Z" fill="#31465A"/>
<path d="M41.9162 32.1951L39.6743 34.4369C39.7183 34.4809 39.7666 34.516 39.8238 34.5468C39.9205 34.5996 40.0304 34.6303 40.1491 34.6303H41.2964C41.4151 34.6303 41.5249 34.5996 41.6173 34.5468C41.6832 34.5117 41.7447 34.4633 41.7975 34.4062C42.114 34.116 42.3118 33.6984 42.3118 33.2369C42.3118 32.8369 42.1623 32.472 41.9206 32.1951H41.9162Z" fill="#293E4F"/>
<g opacity="0.4">
<path d="M39.683 32.4238C39.5028 32.5953 39.3885 32.8502 39.4061 33.1008C39.4149 33.2195 39.5995 33.2195 39.5907 33.1008C39.5731 32.8986 39.6654 32.6964 39.8105 32.5557C39.894 32.4722 39.7665 32.3447 39.6786 32.4238H39.683Z" fill="white"/>
</g>
<path d="M44.6267 28.8545H43.6409V29.4448H44.6267V28.8545Z" fill="#001923"/>
<path d="M44.6203 29.8027V29.4447L44.4633 29.2563H43.7977L43.6407 29.4447V29.8027C43.2765 29.8027 42.9751 30.0978 42.9751 30.4683V36.0192C42.9751 36.1134 43.0567 36.195 43.1509 36.195H45.1101C45.2043 36.195 45.2859 36.1134 45.2859 36.0192V30.4683C45.2859 30.1041 44.9908 29.8027 44.6203 29.8027Z" fill="#15B9E5"/>
<path d="M44.6202 29.8028V29.4448L44.5449 29.3569H44.1367V36.1952H45.11C45.2042 36.1952 45.2858 36.1135 45.2858 36.0193V30.4684C45.2858 30.1042 44.9907 29.8028 44.6202 29.8028Z" fill="#16ACD4"/>
<path d="M44.6201 28.8545H43.6343V29.4448H44.6201V28.8545Z" fill="#001923"/>
<path d="M44.6201 28.8545H43.6343V29.1496H44.6201V28.8545Z" fill="#595959"/>
<path d="M45.2859 30.7759H42.9751V31.2217H45.2859V30.7759Z" fill="#E8901C"/>
<path d="M45.2859 31.4856H42.9751V31.9314H45.2859V31.4856Z" fill="#E8901C"/>
</svg>
