<svg width="50" height="50" viewBox="0 0 50 50" fill="none" xmlns="http://www.w3.org/2000/svg">
<g clip-path="url(#clip0_1019_27655)">
<path d="M25.1093 47.9229C38.856 47.9229 50 44.4708 50 40.2123C50 35.9539 38.856 32.5017 25.1093 32.5017C11.3625 32.5017 0.218506 35.9539 0.218506 40.2123C0.218506 44.4708 11.3625 47.9229 25.1093 47.9229Z" fill="#85CF20"/>
<path d="M15.9712 2.63257H14.8159V37.1097H15.9712V2.63257Z" fill="#FEEF9C"/>
<path d="M32.7226 7.81834C29.367 8.67507 25.9466 9.402 22.591 10.3821C20.3778 11.0311 18.2165 11.7256 15.9773 12.3032V3.26855C21.4617 5.07938 27.0824 6.46184 32.7226 7.81185V7.81834Z" fill="#FE6225"/>
<path d="M20.3259 36.9669C19.7807 37.0448 19.4886 37.4472 19.3393 37.9275H12.414C12.3102 37.4537 12.0895 36.9605 11.739 36.6619C12.1025 36.6749 12.427 36.7593 12.7061 36.9215C12.5828 36.2205 12.1674 35.5391 11.6157 34.9679C12.2777 35.1691 12.9592 35.5131 13.459 35.9739C13.3032 34.9095 12.8619 33.8775 12.2583 32.9234C13.6407 33.7282 14.9323 34.7862 15.4191 35.9934C16.0746 34.7927 17.4441 33.7347 18.4307 33.1765C18.8331 32.9559 19.2485 32.7741 19.6638 32.6313C18.6708 33.6763 17.8335 34.929 17.4896 36.1751C18.1256 35.7143 18.9953 35.5131 19.904 35.5131C19.4756 35.935 19.1251 36.4412 18.8915 37.0319C18.9434 36.9994 18.9953 36.9669 19.0667 36.941C19.4561 36.7982 19.9105 36.8371 20.3259 36.954V36.9669Z" fill="#4A931E"/>
<path d="M20.4687 39.8487C20.4687 40.3484 19.943 40.7898 19.1187 41.0689C18.95 40.2446 17.6454 39.6085 16.0423 39.6085C15.0427 39.6085 14.1536 39.8617 13.5889 40.2511C13.511 40.1213 13.4656 39.985 13.4656 39.8487C13.4656 38.9984 15.0298 38.304 16.9639 38.304C18.8981 38.304 20.4622 38.9984 20.4622 39.8487H20.4687Z" fill="#FECC65"/>
<path d="M19.1189 41.069C18.5283 41.2767 17.7819 41.3935 16.9706 41.3935C15.3545 41.3935 13.9915 40.9132 13.5891 40.2512C14.1538 39.8618 15.043 39.6086 16.0425 39.6086C17.6391 39.6086 18.9502 40.2447 19.1189 41.069Z" fill="#685D0F"/>
<path d="M36.8639 38.1223C36.8574 38.6156 36.4874 39.0375 35.9552 39.2516C35.7216 39.3425 35.462 39.3944 35.1829 39.3944C35.1764 39.3944 35.1634 39.3944 35.1569 39.3944C34.8843 39.3944 34.6312 39.3425 34.404 39.2516C34.3975 39.2516 34.3845 39.2452 34.3781 39.2387C33.8588 39.0245 33.5019 38.6026 33.4954 38.1223C33.5213 38.4858 34.2483 38.7778 35.1569 38.7843C35.1634 38.7843 35.1764 38.7843 35.1829 38.7843C36.098 38.7843 36.8444 38.4923 36.8704 38.1223H36.8639Z" fill="white"/>
<path d="M36.8633 38.1026C36.8633 38.1026 36.8633 38.1156 36.8633 38.1221C36.8373 38.4856 36.0974 38.7841 35.1758 38.7841C34.2542 38.7841 33.5142 38.4921 33.4883 38.1221C33.4883 38.1221 33.4883 38.1091 33.4883 38.1026C33.4883 38.0961 33.4883 38.0897 33.4883 38.0832C33.5142 37.7197 34.2542 37.4211 35.1758 37.4211C36.0974 37.4211 36.8373 37.7132 36.8633 38.0832C36.8633 38.0832 36.8633 38.0961 36.8633 38.1026Z" fill="#D8E4E6"/>
<path d="M35.9556 39.2517L35.5662 41.8089H34.8003L34.4109 39.2517C34.6381 39.3426 34.8912 39.3945 35.1638 39.3945C35.1703 39.3945 35.1832 39.3945 35.1897 39.3945C35.4688 39.3945 35.7349 39.3426 35.9621 39.2517H35.9556Z" fill="#F7FCFD"/>
<g opacity="0.65" style="mix-blend-mode:multiply">
<path d="M35.9556 39.2517L35.8777 39.7645C35.6635 39.8488 35.4299 39.8943 35.1833 39.8943C35.1768 39.8943 35.1638 39.8943 35.1573 39.8943C34.9171 39.8943 34.69 39.8423 34.4888 39.7645L34.4109 39.2517C34.6381 39.3426 34.8912 39.3945 35.1638 39.3945C35.1703 39.3945 35.1832 39.3945 35.1897 39.3945C35.4688 39.3945 35.7349 39.3426 35.9621 39.2517H35.9556Z" fill="#CEDADC"/>
</g>
<path d="M37.3246 41.9645C37.0844 41.9969 36.9611 42.1722 36.8962 42.3864H33.8782C33.8327 42.1787 33.7354 41.9645 33.5861 41.8347C33.7419 41.8347 33.8847 41.8736 34.008 41.9515C33.9561 41.6465 33.7743 41.3479 33.5342 41.1013C33.8198 41.1921 34.1183 41.3414 34.339 41.5426C34.2741 41.0818 34.0794 40.6275 33.8133 40.2121C34.4169 40.5626 34.9815 41.0234 35.1892 41.5491C35.4748 41.0299 36.0719 40.5626 36.5003 40.3224C36.6755 40.2251 36.8573 40.1472 37.039 40.0823C36.6041 40.5366 36.2407 41.0818 36.0914 41.627C36.3705 41.4258 36.7469 41.3414 37.1429 41.3349C36.9546 41.5167 36.8054 41.7373 36.7015 41.9969C36.721 41.984 36.7469 41.971 36.7794 41.958C36.9481 41.8931 37.1493 41.9126 37.3311 41.9645H37.3246Z" fill="#4A931E"/>
<g opacity="0.85" style="mix-blend-mode:multiply">
<path d="M35.7731 40.3941L35.6952 40.9068C35.494 41.1015 35.3058 41.3157 35.1825 41.5429C35.0787 41.2768 34.8775 41.0301 34.6373 40.803L34.5659 40.3486C34.858 40.4979 35.1111 40.7121 35.2279 41.0236C35.3058 40.7381 35.4876 40.5044 35.7731 40.4006V40.3941Z" fill="#CEDADC"/>
</g>
<path d="M38.3821 35.7792C38.3821 35.9284 38.3691 36.0712 38.3496 36.214C38.3496 36.227 38.3496 36.24 38.3496 36.253C38.2912 36.6359 38.1614 36.9994 37.9797 37.3239C37.8823 37.4991 37.7655 37.6614 37.6422 37.8107C37.5902 37.8756 37.5318 37.934 37.4734 37.9989C37.3371 38.1352 37.1943 38.252 37.0385 38.3623C36.9282 38.4402 36.8114 38.5116 36.6881 38.57C36.4609 38.6869 36.2208 38.7777 35.9676 38.8361C35.8897 38.8556 35.8054 38.8686 35.721 38.8816C35.5717 38.9075 35.4159 38.914 35.2602 38.914C35.1044 38.914 34.9486 38.9011 34.7994 38.8816C34.715 38.8686 34.6371 38.8556 34.5527 38.8361C34.2996 38.7777 34.053 38.6869 33.8323 38.57C33.709 38.5051 33.5921 38.4337 33.4818 38.3559C33.339 38.2585 33.2157 38.1547 33.0924 38.0313C33.021 37.9664 32.9561 37.895 32.8977 37.8236C32.7614 37.6679 32.6445 37.4991 32.5472 37.3239C32.3654 36.9994 32.2356 36.6359 32.1772 36.253C32.1772 36.2335 32.1772 36.2205 32.1707 36.201C32.1513 36.0647 32.1448 35.9219 32.1448 35.7792C32.1448 35.6364 32.1513 35.5001 32.1707 35.3573C32.1707 35.3378 32.1707 35.3248 32.1772 35.3054C32.2811 34.6174 32.6056 34.0073 33.0794 33.54C33.2287 33.3907 33.3974 33.2544 33.5792 33.1376C33.5856 33.1376 33.5921 33.1311 33.5986 33.1246C33.696 33.0597 33.7998 33.0013 33.9102 32.9493C33.9102 32.9493 33.9102 32.9493 33.9167 32.9493C34.1114 32.852 34.3191 32.7806 34.5397 32.7287C34.5397 32.7287 34.5527 32.7287 34.5592 32.7287C34.6501 32.7092 34.7409 32.6897 34.8318 32.6767C34.8318 32.6767 34.8383 32.6767 34.8448 32.6767C34.9876 32.6573 35.1304 32.6443 35.2796 32.6443C35.4289 32.6443 35.5782 32.6573 35.7275 32.6767H35.7405C35.8313 32.6897 35.9287 32.7092 36.0131 32.7287C36.0131 32.7287 36.026 32.7287 36.0325 32.7287C36.2467 32.7806 36.4544 32.8585 36.6426 32.9493C36.6426 32.9493 36.6426 32.9493 36.6491 32.9493C36.753 33.0013 36.8568 33.0597 36.9607 33.1246C36.9607 33.1246 36.9736 33.1246 36.9801 33.1376C37.1684 33.2609 37.3501 33.4037 37.5124 33.5659C37.9667 34.0267 38.2782 34.6304 38.3821 35.2989C38.3821 35.3118 38.3821 35.3248 38.3821 35.3378C38.4015 35.4806 38.4145 35.6234 38.4145 35.7727L38.3821 35.7792Z" fill="white"/>
<path d="M32.7817 35.779C32.7817 36.0256 32.5805 36.2203 32.3404 36.2203C32.3404 36.2203 32.3339 36.2203 32.3274 36.2203C32.3274 36.2074 32.3274 36.1879 32.3209 36.1749C32.3014 36.0451 32.2949 35.9153 32.2949 35.779C32.2949 35.6427 32.3014 35.5129 32.3209 35.3831C32.3209 35.3701 32.3209 35.3506 32.3274 35.3376H32.3404C32.587 35.3376 32.7817 35.5388 32.7817 35.779Z" fill="#D6E3E6"/>
<path d="M33.9233 35.7793C33.9233 36.0519 33.7026 36.266 33.4365 36.266C33.1704 36.266 32.9497 36.0454 32.9497 35.7793C32.9497 35.5132 33.1704 35.2925 33.4365 35.2925C33.7026 35.2925 33.9233 35.5132 33.9233 35.7793Z" fill="#D6E3E6"/>
<path d="M35.1438 35.7793C35.1438 36.0714 34.9036 36.3115 34.6116 36.3115C34.3195 36.3115 34.0793 36.0714 34.0793 35.7793C34.0793 35.4872 34.3195 35.2471 34.6116 35.2471C34.9036 35.2471 35.1438 35.4872 35.1438 35.7793Z" fill="#D6E3E6"/>
<path d="M38.2139 35.779C38.2139 35.9153 38.2074 36.0581 38.1879 36.1879C38.1879 36.2009 38.1879 36.2139 38.1879 36.2203C37.9413 36.2203 37.7466 36.0191 37.7466 35.779C37.7466 35.5388 37.9478 35.3376 38.1879 35.3376C38.1879 35.3376 38.1879 35.3571 38.1879 35.3701C38.2074 35.5064 38.2139 35.6427 38.2139 35.779Z" fill="#D6E3E6"/>
<path d="M36.5911 35.7793C36.5911 36.0519 36.8117 36.266 37.0778 36.266C37.344 36.266 37.5646 36.0454 37.5646 35.7793C37.5646 35.5132 37.344 35.2925 37.0778 35.2925C36.8117 35.2925 36.5911 35.5132 36.5911 35.7793Z" fill="#D6E3E6"/>
<path d="M35.3711 35.7793C35.3711 36.0714 35.6112 36.3115 35.9033 36.3115C36.1954 36.3115 36.4355 36.0714 36.4355 35.7793C36.4355 35.4872 36.1954 35.2471 35.9033 35.2471C35.6112 35.2471 35.3711 35.4872 35.3711 35.7793Z" fill="#D6E3E6"/>
<path d="M35.7799 36.8497C35.7799 36.5641 35.5462 36.3369 35.2671 36.3369C34.9881 36.3369 34.7544 36.5706 34.7544 36.8497C34.7544 37.1287 34.9881 37.3624 35.2671 37.3624C35.5462 37.3624 35.7799 37.1287 35.7799 36.8497Z" fill="#D6E3E6"/>
<path d="M36.9281 36.8173C36.9281 36.5577 36.7139 36.3435 36.4543 36.3435C36.1947 36.3435 35.9805 36.5577 35.9805 36.8173C35.9805 37.0769 36.1947 37.2911 36.4543 37.2911C36.7139 37.2911 36.9281 37.0769 36.9281 36.8173Z" fill="#D6E3E6"/>
<path d="M37.9479 36.7006C37.9479 36.4735 37.7662 36.2917 37.539 36.2917C37.3119 36.2917 37.1301 36.4735 37.1301 36.7006C37.1301 36.9278 37.3119 37.1095 37.539 37.1095C37.7662 37.1095 37.9479 36.9278 37.9479 36.7006Z" fill="#D6E3E6"/>
<path d="M33.5798 36.8173C33.5798 36.5577 33.794 36.3435 34.0536 36.3435C34.3133 36.3435 34.5274 36.5577 34.5274 36.8173C34.5274 37.0769 34.3133 37.2911 34.0536 37.2911C33.794 37.2911 33.5798 37.0769 33.5798 36.8173Z" fill="#D6E3E6"/>
<path d="M32.5605 36.7006C32.5605 36.4735 32.7423 36.2917 32.9694 36.2917C33.1966 36.2917 33.3783 36.4735 33.3783 36.7006C33.3783 36.9278 33.1966 37.1095 32.9694 37.1095C32.7423 37.1095 32.5605 36.9278 32.5605 36.7006Z" fill="#D6E3E6"/>
<path d="M36.312 37.8364C36.312 37.5833 36.1108 37.3821 35.8576 37.3821C35.6045 37.3821 35.4033 37.5833 35.4033 37.8364C35.4033 38.0895 35.6045 38.2907 35.8576 38.2907C36.1108 38.2907 36.312 38.0895 36.312 37.8364Z" fill="#D6E3E6"/>
<path d="M34.2415 37.8364C34.2415 37.5833 34.4427 37.3821 34.6958 37.3821C34.9489 37.3821 35.1501 37.5833 35.1501 37.8364C35.1501 38.0895 34.9489 38.2907 34.6958 38.2907C34.4427 38.2907 34.2415 38.0895 34.2415 37.8364Z" fill="#D6E3E6"/>
<path d="M33.2554 37.7133C33.2554 37.4991 33.4306 37.3303 33.6383 37.3303C33.846 37.3303 34.0212 37.5056 34.0212 37.7133C34.0212 37.9209 33.846 38.0962 33.6383 38.0962C33.4306 38.0962 33.2554 37.9209 33.2554 37.7133Z" fill="#D6E3E6"/>
<path d="M33.0149 37.6158C33.0149 37.6158 33.0149 37.6808 33.0019 37.7067C32.8721 37.5639 32.7618 37.4017 32.6709 37.2329C32.8656 37.2524 33.0149 37.4146 33.0149 37.6158Z" fill="#D6E3E6"/>
<path d="M36.5132 37.7133C36.5132 37.4991 36.6884 37.3303 36.8961 37.3303C37.1038 37.3303 37.2791 37.5056 37.2791 37.7133C37.2791 37.9209 37.1038 38.0962 36.8961 38.0962C36.6884 38.0962 36.5132 37.9209 36.5132 37.7133Z" fill="#D6E3E6"/>
<path d="M37.8311 37.2329C37.7402 37.3952 37.6299 37.5509 37.5131 37.6937C37.5131 37.6678 37.5066 37.6418 37.5066 37.6158C37.5066 37.4211 37.6494 37.2654 37.8376 37.2394L37.8311 37.2329Z" fill="#D6E3E6"/>
<path d="M34.5794 38.6608C34.3393 38.6024 34.1121 38.5181 33.8979 38.4077C33.9693 38.3558 34.0602 38.3298 34.1511 38.3298C34.3588 38.3298 34.5275 38.4726 34.5794 38.6608Z" fill="#D6E3E6"/>
<path d="M35.6889 38.7063C35.5462 38.7257 35.3969 38.7387 35.2541 38.7387C35.1113 38.7387 34.962 38.7257 34.8127 38.7063C34.8452 38.4921 35.0269 38.3298 35.2541 38.3298C35.4813 38.3298 35.6565 38.4921 35.6889 38.7063Z" fill="#D6E3E6"/>
<path d="M36.6039 38.4077C36.3897 38.5181 36.1625 38.6024 35.9224 38.6608C35.9743 38.4726 36.143 38.3298 36.3507 38.3298C36.4481 38.3298 36.5325 38.3623 36.6039 38.4077Z" fill="#D6E3E6"/>
<path d="M35.7799 34.7017C35.7799 34.9873 35.5462 35.2144 35.2671 35.2144C34.9881 35.2144 34.7544 34.9808 34.7544 34.7017C34.7544 34.4226 34.9881 34.189 35.2671 34.189C35.5462 34.189 35.7799 34.4226 35.7799 34.7017Z" fill="#D6E3E6"/>
<path d="M36.9281 34.7343C36.9281 34.9939 36.7139 35.2081 36.4543 35.2081C36.1947 35.2081 35.9805 34.9939 35.9805 34.7343C35.9805 34.4747 36.1947 34.2605 36.4543 34.2605C36.7139 34.2605 36.9281 34.4747 36.9281 34.7343Z" fill="#D6E3E6"/>
<path d="M37.539 35.2599C37.7648 35.2599 37.9479 35.0769 37.9479 34.851C37.9479 34.6252 37.7648 34.4421 37.539 34.4421C37.3132 34.4421 37.1301 34.6252 37.1301 34.851C37.1301 35.0769 37.3132 35.2599 37.539 35.2599Z" fill="#D6E3E6"/>
<path d="M33.5798 34.7343C33.5798 34.9939 33.794 35.2081 34.0536 35.2081C34.3133 35.2081 34.5274 34.9939 34.5274 34.7343C34.5274 34.4747 34.3133 34.2605 34.0536 34.2605C33.794 34.2605 33.5798 34.4747 33.5798 34.7343Z" fill="#D6E3E6"/>
<path d="M32.5605 34.851C32.5605 35.0782 32.7423 35.2599 32.9694 35.2599C33.1966 35.2599 33.3783 35.0782 33.3783 34.851C33.3783 34.6239 33.1966 34.4421 32.9694 34.4421C32.7423 34.4421 32.5605 34.6239 32.5605 34.851Z" fill="#D6E3E6"/>
<path d="M36.312 33.7151C36.312 33.9682 36.1108 34.1694 35.8576 34.1694C35.6045 34.1694 35.4033 33.9682 35.4033 33.7151C35.4033 33.4619 35.6045 33.2607 35.8576 33.2607C36.1108 33.2607 36.312 33.4619 36.312 33.7151Z" fill="#D6E3E6"/>
<path d="M34.2415 33.7151C34.2415 33.9682 34.4427 34.1694 34.6958 34.1694C34.9489 34.1694 35.1501 33.9682 35.1501 33.7151C35.1501 33.4619 34.9489 33.2607 34.6958 33.2607C34.4427 33.2607 34.2415 33.4619 34.2415 33.7151Z" fill="#D6E3E6"/>
<path d="M33.2554 33.8448C33.2554 34.059 33.4306 34.2278 33.6383 34.2278C33.846 34.2278 34.0212 34.0525 34.0212 33.8448C34.0212 33.6372 33.846 33.4619 33.6383 33.4619C33.4306 33.4619 33.2554 33.6372 33.2554 33.8448Z" fill="#D6E3E6"/>
<path d="M33.0149 33.9419C33.0149 33.9419 33.0149 33.877 33.0019 33.8511C32.8721 33.9939 32.7618 34.1561 32.6709 34.3249C32.8656 34.3054 33.0149 34.1431 33.0149 33.9419Z" fill="#D6E3E6"/>
<path d="M36.5132 33.8448C36.5132 34.059 36.6884 34.2278 36.8961 34.2278C37.1038 34.2278 37.2791 34.0525 37.2791 33.8448C37.2791 33.6372 37.1038 33.4619 36.8961 33.4619C36.6884 33.4619 36.5132 33.6372 36.5132 33.8448Z" fill="#D6E3E6"/>
<path d="M37.8311 34.319C37.7402 34.1567 37.6299 34.0009 37.5131 33.8582C37.5131 33.8841 37.5066 33.9101 37.5066 33.936C37.5066 34.1308 37.6494 34.2865 37.8376 34.3125L37.8311 34.319Z" fill="#D6E3E6"/>
<path d="M34.5794 32.8906C34.3393 32.949 34.1121 33.0334 33.8979 33.1438C33.9693 33.1957 34.0602 33.2216 34.1511 33.2216C34.3588 33.2216 34.5275 33.0788 34.5794 32.8906Z" fill="#D6E3E6"/>
<path d="M35.6889 32.8518C35.5462 32.8323 35.3969 32.8193 35.2541 32.8193C35.1113 32.8193 34.962 32.8323 34.8127 32.8518C34.8452 33.066 35.0269 33.2282 35.2541 33.2282C35.4813 33.2282 35.6565 33.066 35.6889 32.8518Z" fill="#D6E3E6"/>
<path d="M36.6039 33.1438C36.3897 33.0334 36.1625 32.949 35.9224 32.8906C35.9743 33.0788 36.143 33.2216 36.3507 33.2216C36.4481 33.2216 36.5325 33.1892 36.6039 33.1438Z" fill="#D6E3E6"/>
<g opacity="0.85" style="mix-blend-mode:multiply">
<path d="M38.3755 35.9866C38.3755 36.0645 38.3625 36.1358 38.3495 36.2072C38.3495 36.2202 38.3495 36.2332 38.3495 36.2462C38.2911 36.6291 38.1613 36.9926 37.9796 37.3171C37.8822 37.4923 37.7719 37.6546 37.6421 37.8039C37.5901 37.8688 37.5317 37.9272 37.4733 37.9921C37.337 38.1284 37.1942 38.2452 37.0384 38.3556C36.9281 38.4335 36.8113 38.5049 36.688 38.5633C36.4608 38.6801 36.2207 38.771 35.9675 38.8294C35.8896 38.8488 35.8053 38.8618 35.7209 38.8748C35.5716 38.8943 35.4158 38.9073 35.2536 38.9073C35.0913 38.9073 34.942 38.8943 34.7928 38.8748C34.7084 38.8618 34.6305 38.8488 34.5461 38.8294C34.293 38.771 34.0464 38.6801 33.8257 38.5633C33.7024 38.4984 33.5855 38.427 33.4752 38.3491C33.3324 38.2517 33.2091 38.1479 33.0858 38.0246C33.0144 37.9597 32.9495 37.8883 32.8911 37.8169C32.7548 37.6611 32.6379 37.4923 32.5341 37.3171C32.3524 36.9926 32.2226 36.6291 32.1641 36.2462C32.1641 36.2332 32.1641 36.2137 32.1577 36.1943C32.1512 36.1229 32.1447 36.058 32.1382 35.9866C32.1901 36.032 32.2485 36.0839 32.3134 36.1294C32.4238 36.2072 32.5471 36.2722 32.6964 36.3371C32.7613 36.3695 32.8327 36.3955 32.9105 36.4279C33.0404 36.4798 33.1831 36.5253 33.3324 36.5642C33.4557 36.5967 33.5791 36.6291 33.7154 36.6551C33.962 36.707 34.2216 36.7395 34.4942 36.7654C34.5851 36.7719 34.6694 36.7784 34.7603 36.7849C34.9226 36.7979 35.0913 36.7979 35.2601 36.7979C35.4288 36.7979 35.5976 36.7979 35.7598 36.7849C35.8507 36.7849 35.9351 36.7719 36.0259 36.7654C36.2985 36.7395 36.5647 36.7005 36.8048 36.6551C36.9346 36.6291 37.0644 36.5967 37.1812 36.5642C37.35 36.5188 37.5058 36.4669 37.6485 36.4149C37.7135 36.389 37.7719 36.363 37.8303 36.3371C37.9666 36.2722 38.0899 36.2072 38.2002 36.1358C38.2651 36.0904 38.33 36.045 38.382 35.9931L38.3755 35.9866Z" fill="#CEDADC"/>
</g>
</g>
<defs>
<clipPath id="clip0_1019_27655">
<rect width="50" height="50" fill="white"/>
</clipPath>
</defs>
</svg>
