<svg width="100" height="100" viewBox="0 0 100 100" fill="none" xmlns="http://www.w3.org/2000/svg">
<path d="M71.3852 31.6807L68.4717 23.9382L66.1836 24.8695L69.2167 33.5033L71.3852 31.6807Z" fill="#231F20"/>
<path d="M42.8493 60.5085L41.4923 61.7989L41.04 60.5085C41.1066 59.3378 41.213 58.0474 41.3859 56.7703L42.8493 60.5218V60.5085Z" fill="#231F20"/>
<path d="M35.6924 29.0073C35.0804 27.3843 30.6771 26.6925 26.2471 27.6902C23.9855 28.1958 22.5488 28.0494 21.6708 27.7967C20.9391 27.5838 20.1808 28.0627 20.0744 28.821C19.9414 29.8188 20.0345 31.0294 21.0987 31.6546C22.1231 32.2533 23.8126 31.8142 25.542 31.2688C27.2182 30.7367 28.9077 30.1114 30.0385 30.2445C30.3179 30.2844 30.6105 30.311 30.9298 30.3376C33.218 30.5238 36.2378 30.444 35.7057 29.0206L35.6924 29.0073Z" fill="#404041"/>
<path d="M80.326 42.9766H80.0999V57.0115H80.326V42.9766Z" fill="#404041"/>
<path d="M71.7618 45.2348L71.5659 45.3479L78.5834 57.5025L78.7792 57.3894L71.7618 45.2348Z" fill="#404041"/>
<path d="M65.4668 51.4592L65.3538 51.655L77.5083 58.6725L77.6214 58.4766L65.4668 51.4592Z" fill="#404041"/>
<path d="M77.1589 60.0044H63.124V60.2306H77.1589V60.0044Z" fill="#404041"/>
<path d="M77.5259 61.5643L65.3713 68.5818L65.4844 68.7776L77.639 61.7602L77.5259 61.5643Z" fill="#404041"/>
<path d="M78.6119 62.7063L71.5945 74.8608L71.7903 74.9739L78.8078 62.8193L78.6119 62.7063Z" fill="#404041"/>
<path d="M80.3651 63.1694H80.1389V77.2043H80.3651V63.1694Z" fill="#404041"/>
<path d="M81.9036 62.6911L81.7078 62.8042L88.7252 74.9588L88.9211 74.8457L81.9036 62.6911Z" fill="#404041"/>
<path d="M82.97 61.5202L82.8569 61.7161L95.0115 68.7335L95.1246 68.5377L82.97 61.5202Z" fill="#404041"/>
<path d="M97.3528 59.9631H83.3179V60.1893H97.3528V59.9631Z" fill="#404041"/>
<path d="M94.9837 51.431L82.8291 58.4485L82.9422 58.6443L95.0968 51.6269L94.9837 51.431Z" fill="#404041"/>
<path d="M88.6737 45.2026L81.6562 57.3572L81.8521 57.4703L88.8696 45.3157L88.6737 45.2026Z" fill="#404041"/>
<path d="M80.2187 41.5654C69.9752 41.5654 61.6873 49.8666 61.6873 60.0968C61.6873 70.327 69.9885 78.6282 80.2187 78.6282C90.4488 78.6282 98.7501 70.327 98.7501 60.0968C98.7501 49.8666 90.4488 41.5654 80.2187 41.5654ZM80.2187 75.3689C71.7844 75.3689 64.9598 68.5311 64.9598 60.1101C64.9598 51.6892 71.7977 44.8513 80.2187 44.8513C88.6396 44.8513 95.4775 51.6892 95.4775 60.1101C95.4775 68.5311 88.6396 75.3689 80.2187 75.3689Z" fill="#404041"/>
<path d="M80.2182 57.0244C78.5154 57.0244 77.1318 58.4079 77.1318 60.1108C77.1318 61.8136 78.5154 63.1971 80.2182 63.1971C81.921 63.1971 83.3045 61.8136 83.3045 60.1108C83.3045 58.4079 81.921 57.0244 80.2182 57.0244Z" fill="#231F20"/>
<path d="M19.8873 45.6882H19.6611V59.7231H19.8873V45.6882Z" fill="#404041"/>
<path d="M11.3135 47.9245L11.1177 48.0376L18.1351 60.1922L18.331 60.0791L11.3135 47.9245Z" fill="#404041"/>
<path d="M5.03153 54.1608L4.91846 54.3567L17.073 61.3741L17.1861 61.1783L5.03153 54.1608Z" fill="#404041"/>
<path d="M16.7217 62.7031H2.68677V62.9293H16.7217V62.7031Z" fill="#404041"/>
<path d="M17.0799 64.2606L4.92529 71.2781L5.03837 71.4739L17.193 64.4565L17.0799 64.2606Z" fill="#404041"/>
<path d="M18.1908 65.4104L11.1733 77.5649L11.3692 77.678L18.3866 65.5234L18.1908 65.4104Z" fill="#404041"/>
<path d="M19.9285 65.8682H19.7024V79.9031H19.9285V65.8682Z" fill="#404041"/>
<path d="M21.4449 65.4006L21.249 65.5137L28.2665 77.6683L28.4623 77.5552L21.4449 65.4006Z" fill="#404041"/>
<path d="M22.5279 64.2343L22.4148 64.4302L34.5694 71.4476L34.6825 71.2518L22.5279 64.2343Z" fill="#404041"/>
<path d="M36.9033 62.6626H22.8684V62.8888H36.9033V62.6626Z" fill="#404041"/>
<path d="M34.5408 54.1312L22.3862 61.1487L22.4993 61.3445L34.6539 54.3271L34.5408 54.1312Z" fill="#404041"/>
<path d="M28.2391 47.9065L21.2217 60.061L21.4175 60.1741L28.435 48.0195L28.2391 47.9065Z" fill="#404041"/>
<path d="M19.7814 44.2778C9.53791 44.2778 1.25 52.579 1.25 62.8092C1.25 73.0394 9.55122 81.3406 19.7814 81.3406C30.0116 81.3406 38.3128 73.0394 38.3128 62.8092C38.3128 52.579 30.0116 44.2778 19.7814 44.2778ZM19.7814 78.068C11.3472 78.068 4.5226 71.2302 4.5226 62.8092C4.5226 54.3883 11.3605 47.5504 19.7814 47.5504C28.2023 47.5504 35.0402 54.3883 35.0402 62.8092C35.0402 71.2302 28.2023 78.068 19.7814 78.068Z" fill="#404041"/>
<path d="M19.7819 59.7246C18.0791 59.7246 16.6956 61.1081 16.6956 62.811C16.6956 64.5138 18.0791 65.8973 19.7819 65.8973C21.4847 65.8973 22.8683 64.5138 22.8683 62.811C22.8683 61.1081 21.4847 59.7246 19.7819 59.7246ZM19.7819 65.3519C18.3851 65.3519 17.241 64.2211 17.241 62.811C17.241 61.4008 18.3718 60.27 19.7819 60.27C21.192 60.27 22.3228 61.4008 22.3228 62.811C22.3228 64.2211 21.192 65.3519 19.7819 65.3519Z" fill="#231F20"/>
<path d="M47.0885 58.2757L19.9827 60.0713L20.024 60.6952L47.1298 58.8996L47.0885 58.2757Z" fill="#231F20"/>
<path d="M19.1346 65.1688L19.0452 65.7876L46.7739 69.7933L46.8633 69.1744L19.1346 65.1688Z" fill="#231F20"/>
<path d="M22.0572 62.1582L47.3998 62.9431V65.4707L21.7246 64.6858C21.7246 64.6858 22.8953 64.2335 22.0572 62.1582Z" fill="#231F20"/>
<path d="M79.3131 62.2516L71.0119 38.8778L48.5959 65.8834L47.239 63.0232L64.2006 42.3101L69.8013 34.7139L72.2225 34.408L81.5613 61.7062C80.7232 61.5598 79.8718 61.8259 79.3131 62.2516Z" fill="#231F20"/>
<path d="M46.468 58.0881C42.9426 58.0881 40.0957 60.935 40.0957 64.4604C40.0957 67.9857 42.9426 70.8326 46.468 70.8326C49.9933 70.8326 52.8402 67.9857 52.8402 64.4604C52.8402 60.935 49.9933 58.0881 46.468 58.0881ZM43.1821 67.999C41.4127 67.427 41.3462 66.3228 41.3462 66.3228C41.4925 65.0989 41.732 63.9682 42.2508 63.0901L44.6587 64.7664L44.4326 68.0256C44.4326 68.0256 44.9381 68.5578 43.1688 67.9857L43.1821 67.999ZM45.1243 63.9283L42.8495 61.3474C43.7009 59.9639 44.978 59.1125 46.6409 58.7666L47.2129 63.303L45.1376 63.9283H45.1243ZM49.3414 69.9014C49.3414 69.9014 48.0111 69.9014 47.5322 68.5711L48.8758 65.804C49.5277 66.243 50.1529 66.8683 50.7383 67.7463L49.3281 69.8881L49.3414 69.9014ZM50.4589 65.804L48.4634 63.1833C48.2373 61.9594 48.4634 60.7488 49.1419 59.5382C51.4167 61.108 52.1617 64.3273 52.1617 64.3273L50.4456 65.804H50.4589Z" fill="#A7A9AC"/>
<path d="M46.4682 58.8188C43.3553 58.8188 40.8276 61.3465 40.8276 64.4594C40.8276 67.5724 43.3553 70.1 46.4682 70.1C49.5812 70.1 52.1088 67.5724 52.1088 64.4594C52.1088 61.3465 49.5812 58.8188 46.4682 58.8188ZM43.5548 67.5857C41.985 67.0802 41.9318 66.109 41.9318 66.109C42.0648 65.0315 42.2777 64.0204 42.73 63.2488L44.8585 64.7255L44.659 67.6123C44.659 67.6123 45.1113 68.0912 43.5415 67.5857H43.5548ZM45.2842 63.9805L43.2621 61.6923C44.0204 60.4685 45.1379 59.7102 46.6145 59.4042L47.1201 63.4085L45.2842 63.9672V63.9805ZM49.0091 69.2752C49.0091 69.2752 47.8384 69.2752 47.4127 68.1045L48.61 65.6567C49.1954 66.0425 49.7408 66.5879 50.2596 67.3861L49.0224 69.2885L49.0091 69.2752ZM49.9936 65.6567L48.2242 63.3419C48.0247 62.2644 48.2242 61.1868 48.8229 60.1093C50.845 61.4928 51.4968 64.3397 51.4968 64.3397L49.9803 65.6567H49.9936Z" fill="#E6E7E8"/>
<path d="M46.5083 64.1943C46.9074 64.1943 47.24 64.5269 47.24 64.926V69.4491H45.7766V64.926C45.7766 64.5269 46.1092 64.1943 46.5083 64.1943Z" fill="#231F20"/>
<path d="M31.6482 41.2057L35.5327 49.5069L41.5111 61.4365L42.9663 59.9813L32.9253 39.7423L31.3555 36.6161L29.8389 32.9976L30.5706 31.0686L30.9431 30.3237C30.6238 30.297 30.3312 30.2704 30.0518 30.2305C28.921 30.0975 27.2315 30.7227 25.5553 31.2549L27.9233 33.4898L30.3046 39.5162L18.8904 60.8945L20.7395 61.0674L31.6482 41.2057Z" fill="#231F20"/>
<path d="M72.2225 34.4081L31.0637 39.7C31.0238 38.9284 31.1567 38.1239 31.0636 36.9267L46.2547 34.7806L58.6666 33.2507L71.3844 31.6809L72.2225 34.4081Z" fill="#231F20"/>
<path d="M74.618 22.7942C74.618 22.7942 76.8529 25.242 76.1744 28.2086C75.7887 29.8715 74.6845 30.6165 73.7799 30.9358C73.128 31.1752 72.8087 31.9069 73.0748 32.5454C73.3009 33.1042 73.8996 33.4102 74.4849 33.2638C76.1212 32.878 79.0879 31.6009 79.1411 27.3705C79.2076 21.5304 75.1501 18.75 75.1501 18.75L72.9019 22.1157L74.618 22.7942Z" fill="#404041"/>
<path d="M62.6575 27.5968C62.6575 27.5968 64.8925 30.0446 64.214 33.0112C63.8282 34.6741 62.724 35.4191 61.8194 35.7384C61.1676 35.9779 60.8483 36.7095 61.1143 37.3481C61.3405 37.9068 61.9392 38.2128 62.5245 38.0665C64.1608 37.6807 67.1274 36.4036 67.1806 32.1731C67.2471 26.333 64.1741 25.0559 64.1741 25.0559L60.9414 26.9184L62.6575 27.5968Z" fill="#404041"/>
<path d="M60.4768 26.5985C60.2506 25.9865 60.5566 25.3081 61.1685 25.0686L70.4941 21.4501L73.607 20.4258L75.1369 20.9579L74.8442 22.9268L62.0066 27.3302C61.3814 27.5563 60.7029 27.237 60.4768 26.6118V26.5985Z" fill="#231F20"/>
<g style="mix-blend-mode:multiply" opacity="0.7">
<path d="M67.6208 25.1216C67.5809 24.962 67.541 24.8023 67.5143 24.6427L67.4212 24.1771C67.3813 24.0174 67.3547 23.8711 67.3148 23.7115C67.2749 23.5518 67.2217 23.4055 67.1685 23.2458C67.3015 23.3523 67.4079 23.4986 67.4877 23.6449C67.5676 23.7913 67.6208 23.9642 67.6607 24.1239C67.7006 24.2835 67.7139 24.4564 67.7139 24.6294C67.7139 24.8023 67.6873 24.962 67.6341 25.1349L67.6208 25.1216Z" fill="#F4C1AB"/>
</g>
<g style="mix-blend-mode:multiply" opacity="0.7">
<path d="M66.2487 25.7343C66.2088 25.5613 66.1689 25.4017 66.1423 25.2287L66.0492 24.7365C66.0225 24.5769 65.9826 24.4172 65.956 24.2443C65.9294 24.0847 65.8762 23.925 65.8496 23.7388C65.9693 23.8718 66.0625 24.0181 66.129 24.1778C66.1955 24.3374 66.2487 24.5104 66.2753 24.6833C66.3019 24.8562 66.3285 25.0292 66.3152 25.2021C66.3152 25.3751 66.2886 25.548 66.2354 25.721L66.2487 25.7343Z" fill="#F4C1AB"/>
</g>
<g style="mix-blend-mode:multiply" opacity="0.7">
<path d="M65.1186 26.1225C65.0787 25.9628 65.0521 25.8165 65.0255 25.6702L64.9456 25.2312C64.919 25.0848 64.8924 24.9385 64.8658 24.7922C64.8392 24.6458 64.7993 24.4995 64.7727 24.3398C64.8791 24.4596 64.9723 24.5926 65.0388 24.7389C65.1053 24.8853 65.1452 25.0316 65.1718 25.1912C65.1984 25.3509 65.2117 25.4972 65.1984 25.6569C65.1984 25.8165 65.1585 25.9761 65.1053 26.1225H65.1186Z" fill="#F4C1AB"/>
</g>
<g style="mix-blend-mode:multiply" opacity="0.7">
<path d="M76.2936 21.7966C76.227 21.6369 76.1738 21.4906 76.1206 21.3443C76.0674 21.1979 76.0142 21.0516 75.9477 20.9185C75.8945 20.7722 75.8279 20.6392 75.7481 20.5061C75.6816 20.3598 75.6018 20.2401 75.522 20.0938C75.6683 20.1736 75.8013 20.28 75.9078 20.413C76.0142 20.5461 76.094 20.6924 76.1605 20.8387C76.227 20.9851 76.267 21.158 76.2936 21.3176C76.3202 21.4773 76.3202 21.6502 76.2936 21.8099V21.7966Z" fill="#F4C1AB"/>
</g>
<g style="mix-blend-mode:multiply" opacity="0.7">
<path d="M77.3845 20.9715C77.2913 20.8518 77.1982 20.7188 77.1184 20.599L76.8656 20.2399C76.7858 20.1201 76.6927 20.0004 76.6129 19.8807C76.533 19.7609 76.4266 19.6545 76.3335 19.5215C76.4798 19.5747 76.6262 19.6545 76.7459 19.7476C76.8656 19.8541 76.9721 19.9605 77.0519 20.0935C77.145 20.2266 77.2115 20.3596 77.2647 20.5059C77.3179 20.6523 77.3578 20.7986 77.3711 20.9582L77.3845 20.9715Z" fill="#F4C1AB"/>
</g>
<path d="M19.8883 65.4711C21.4385 65.4711 22.6953 64.2144 22.6953 62.6642C22.6953 61.1139 21.4385 59.8572 19.8883 59.8572C18.338 59.8572 17.0813 61.1139 17.0813 62.6642C17.0813 64.2144 18.338 65.4711 19.8883 65.4711Z" fill="#231F20"/>
</svg>
