<svg width="50" height="50" viewBox="0 0 50 50" fill="none" xmlns="http://www.w3.org/2000/svg">
<g clip-path="url(#clip0_1019_27723)">
<path d="M38.881 17.3616L33.101 14.7137L26.1919 15.1005L20.0771 13.2162L13.5028 12.8394C8.62125 21.1976 5.61 31.6136 4.70176 43.1933C8.05858 45.5527 14.3296 46.8903 18.5533 46.854L23.8143 28.5465L22.4276 47.5444C26.3789 49.0374 32.7081 49.9451 36.6911 48.8936C39.8386 37.7129 40.6105 26.8979 38.9165 17.3679L38.881 17.3616Z" fill="#008CD9"/>
<path d="M13.4574 12.7425C13.4574 12.7425 12.8014 20.9267 14.9034 27.8578C17.0054 34.7888 20.3563 40.0324 20.3563 40.0324L18.4395 46.7983C18.4395 46.7983 13.5989 39.067 11.3601 33.4156C8.75282 26.7618 9.52493 21.6101 9.52493 21.6101C10.5169 18.4995 11.8256 15.5554 13.4574 12.7425Z" fill="#113C5D"/>
<path d="M38.9955 17.2931C38.9955 17.2931 36.7851 25.2004 32.4226 30.9795C28.06 36.7586 23.0919 40.5198 23.0919 40.5198L22.5704 47.5343C22.5704 47.5343 29.7757 41.9496 33.8248 37.4186C38.5652 32.0741 39.6199 26.9728 39.6199 26.9728C39.764 23.7111 39.5538 20.4964 38.9955 17.2931Z" fill="#113C5D"/>
<path d="M38.7362 13.764L33.626 13.7486L29.1595 13.5691C27.3969 13.4983 25.6531 13.1791 23.9797 12.6209L20.1743 11.3516L14.9174 9.51965L13.4771 12.6329C13.4771 12.6329 19.1734 14.937 26.0221 16.1574C32.8709 17.3778 39.0125 17.1831 39.0125 17.1831L38.7362 13.764Z" fill="#113C5D"/>
<path d="M45.545 3.97461C45.0668 2.79586 43.9295 2.03483 42.8137 1.42591C42.4627 1.23312 42.0915 1.04389 41.6906 1.01063C41.1945 0.968155 40.6694 0.967193 40.1629 0.983729C39.6825 1.00086 39.2072 1.0171 38.7316 1.09058C37.8871 1.2239 37.0805 1.54284 36.2552 1.75593C35.5492 1.9376 34.8289 2.03861 34.1193 2.20012C33.4601 2.35274 32.814 2.54984 32.1687 2.75198C31.1584 3.06526 30.1531 3.37766 29.1428 3.69095C28.266 3.96511 27.3986 4.08686 26.5568 4.50039C26.2745 4.63853 26.0007 4.79595 25.7807 5.02187C25.5123 5.29789 25.3474 5.65963 25.2195 6.02523C24.9751 6.70245 24.8279 7.4301 24.8726 8.1551C24.8912 8.43769 25.1117 9.95295 25.5147 9.05543C26.0119 7.95422 25.7066 6.54747 26.4306 5.58298C26.7082 5.21177 27.1097 4.95385 27.5347 4.76977C29.4758 3.92851 31.7121 4.58413 33.813 4.35402C35.0732 4.22017 36.2816 3.7628 37.4183 3.19333C38.7225 2.54235 40.0234 1.72561 41.4788 1.66651C41.9019 1.64907 42.3375 1.70221 42.7138 1.89055C43.101 2.08216 43.4028 2.40837 43.6928 2.72629C43.9955 3.05754 44.3023 3.38287 44.605 3.71413C44.7402 3.86182 44.8822 4.0187 44.9371 4.21174C45.0728 4.68679 44.6615 5.24271 44.9188 5.67033C45.2737 5.64933 45.5629 5.34365 45.6539 5.00533C45.745 4.66701 45.6692 4.29576 45.534 3.97134L45.545 3.97461ZM37.19 2.54748C37.1435 2.69603 37.0477 2.80128 36.9483 2.88637C36.8347 2.97916 36.7007 3.04438 36.5649 3.09951C36.3176 3.2003 36.0572 3.2566 35.7918 3.31379C35.5012 3.37543 35.221 3.46642 34.9322 3.53814C34.525 3.64632 34.1152 3.73937 33.7022 3.84339C33.5032 3.89407 33.3134 3.93793 33.1055 3.9382C32.9137 3.94084 32.7207 3.90731 32.5244 3.88474C32.4923 3.88 32.4686 3.86339 32.4431 3.8367C32.4064 3.86397 32.3473 3.85359 32.3124 3.80258C32.2664 3.74831 32.2664 3.65994 32.2988 3.60746C32.4034 3.46426 32.5576 3.39549 32.7086 3.33769C32.8503 3.2867 32.9956 3.25588 33.1424 3.20401C33.2254 3.17378 33.3162 3.15778 33.406 3.13674L34.2162 2.92632C34.5738 2.83207 34.9305 2.73279 35.2881 2.63854C35.472 2.59053 35.6508 2.54341 35.8355 2.50044C35.985 2.46369 36.1362 2.43703 36.2797 2.39612C36.4132 2.357 36.5466 2.31788 36.6878 2.29299C36.8239 2.26899 36.9745 2.26842 37.1115 2.33782C37.185 2.37164 37.212 2.46564 37.1841 2.54332L37.19 2.54748Z" fill="#333333"/>
<path d="M25.8747 5.96709C25.9483 5.64745 26.0969 5.34056 26.2837 5.07372C26.3875 4.92547 26.5023 4.78049 26.618 4.64055C26.6645 4.58036 26.7161 4.51928 26.7627 4.45909C26.7843 4.43449 26.8051 4.40484 26.8268 4.38023C26.7354 4.42232 26.6491 4.46353 26.5578 4.50562C26.2755 4.64376 26.0018 4.80118 25.7817 5.0271C25.5133 5.30312 25.3484 5.66486 25.2206 6.03045C24.9761 6.70768 24.829 7.43532 24.8736 8.16033C24.8923 8.44292 25.1127 9.95818 25.5158 9.06066C25.7136 8.62035 25.7831 8.12991 25.8424 7.64125C25.7598 7.08407 25.7459 6.50437 25.8697 5.96798L25.8747 5.96709Z" fill="black"/>
<path d="M45.5449 3.97471C45.0667 2.79596 43.9294 2.03493 42.8137 1.42601C42.6183 1.32013 42.4229 1.21424 42.2168 1.13623C42.2186 1.14631 42.2304 1.15462 42.2364 1.15877C42.2509 1.1822 42.2705 1.20473 42.285 1.22816C42.2868 1.23824 42.2977 1.24151 42.2986 1.24655C42.3123 1.26493 42.3259 1.28332 42.3354 1.30764C42.3618 1.33937 42.3959 1.38533 42.4347 1.39927C42.4169 1.38682 42.4042 1.37347 42.3864 1.36102C42.4042 1.37347 42.4279 1.39008 42.4507 1.40165C42.5032 1.43398 42.6111 1.45653 42.6503 1.50161L42.6672 1.50902C42.7069 1.528 42.7508 1.54106 42.7905 1.56004C42.897 1.60364 43.0034 1.64725 43.1057 1.69678C43.4573 1.86347 43.7562 2.14343 44.0189 2.42457C44.6012 3.04439 44.9987 3.79553 45.0816 4.64894C45.0991 4.80699 45.0045 4.94841 44.8859 5.0421C44.8425 5.26804 44.8185 5.48539 44.9356 5.67785C45.2905 5.65685 45.5797 5.35117 45.6708 5.01285C45.7609 4.66949 45.686 4.30327 45.5508 3.97886L45.5449 3.97471Z" fill="black"/>
<path d="M36.6106 6.24632C37.0306 5.79804 37.662 5.19292 38.5181 4.59495C39.3416 4.01833 40.0957 3.49032 41.1831 3.23102C41.8112 3.07869 43.8617 2.59238 45.0939 3.86167C45.1763 3.94589 45.8547 4.66831 45.8957 5.72661C45.9312 6.72352 45.3781 7.41879 44.8531 8.06751C44.4697 8.54575 43.8175 9.35724 42.6782 9.73486C40.9013 10.3288 39.2175 9.44586 39.0103 9.33167C37.6772 8.61034 37.303 8.37485 37.303 8.37485C37.0347 8.20906 36.5953 7.9279 35.9916 7.89401C35.7819 7.88419 35.6087 7.90433 35.4978 7.92389C35.3896 7.95857 35.2244 8.02408 35.0521 8.13762C34.5367 8.4572 34.2912 8.92152 34.1363 9.19312C34.1363 9.19312 33.9237 9.57886 33.1042 10.8565C32.9782 11.0554 31.9277 12.644 30.0904 12.9836C28.9075 13.2026 27.9495 12.8101 27.3775 12.5731C26.6045 12.2572 25.7859 11.9182 25.3323 11.0262C24.8539 10.0814 25.1007 9.12308 25.1316 9.00329C25.5944 7.29479 27.6265 6.73375 28.251 6.56126C29.3263 6.26251 30.2428 6.36079 31.2435 6.46501C32.2763 6.57397 33.1217 6.79915 33.7108 6.98634L36.624 6.23357L36.6106 6.24632Z" fill="#0C3D9C"/>
<path d="M25.4247 10.163C25.4601 9.27319 25.8632 8.46403 26.5076 7.90339C27.1253 7.36826 27.8904 7.02024 28.6851 6.86972C29.1631 6.78024 29.6536 6.76133 30.1363 6.72818C30.6864 6.69356 31.2441 6.67318 31.7977 6.74709C32.1061 6.78627 32.4089 6.85244 32.7149 6.90764C32.9779 6.95482 33.2326 7.01386 33.4917 7.09811C33.5685 7.12095 33.6462 7.14884 33.7271 7.16575C33.7601 7.17554 33.7971 7.1794 33.83 7.18919C33.8511 7.19068 33.8721 7.19216 33.8932 7.19365C33.9083 7.19098 33.9243 7.19335 33.9403 7.19573C33.9825 7.02197 34.0898 6.89389 34.2663 6.86278C34.2663 6.86278 34.2654 6.85774 34.2645 6.8527L33.7029 6.99851C33.1187 6.81043 32.2734 6.58526 31.2356 6.47718C30.2348 6.37296 29.3183 6.27469 28.243 6.57343C27.6236 6.74503 25.5873 7.312 25.1236 9.01546C25.0918 9.13021 24.8459 10.0936 25.3243 11.0384C25.4752 11.334 25.6676 11.5704 25.8841 11.7661C25.5775 11.2952 25.4006 10.7338 25.4247 10.163Z" fill="#0C3D9C"/>
<path d="M45.0948 3.86664C43.8626 2.59736 41.813 3.08871 41.184 3.23599C40.0966 3.4953 39.3475 4.02242 38.519 4.59993C37.6679 5.19701 37.0365 5.80212 36.6115 6.2513L35.055 6.6505C35.1054 6.99506 35.1406 7.3423 35.1708 7.69042C35.1821 7.81318 35.1933 7.93594 35.1986 8.05455C35.3134 7.99793 35.4107 7.95999 35.4886 7.93064C35.6046 7.9102 35.7778 7.89006 35.9824 7.90076C36.5861 7.93465 37.0305 8.21493 37.2938 8.38161C37.2938 8.38161 37.668 8.6171 39.0011 9.33843C39.2083 9.45262 40.8972 10.3347 42.669 9.74161C43.8083 9.36399 44.4604 8.55251 44.8439 8.07427C45.3638 7.42644 45.922 6.73028 45.8865 5.73336C45.8454 4.67507 45.1671 3.95264 45.0847 3.86842L45.0948 3.86664Z" fill="#0C3D9C"/>
<path d="M32.9301 9.01595C33.3184 10.3925 31.225 12.139 30.0454 12.347C28.8658 12.555 25.6748 11.1425 25.8746 9.74028C26.0743 8.33805 28.3864 7.83161 29.3664 7.78875C30.3464 7.74589 32.5469 7.63855 32.9352 9.01506L32.9301 9.01595Z" fill="#43C6EC"/>
<path d="M29.9869 12.1909C29.1893 11.9417 28.4748 11.4856 27.8874 10.8667C27.5746 10.5372 27.2556 10.1724 27.0674 9.75339C26.8895 9.36374 26.8175 8.95542 26.7951 8.53317C26.3173 8.83051 25.9549 9.22187 25.8807 9.74434C25.681 11.1466 28.8719 12.559 30.0515 12.351C30.1272 12.3377 30.2069 12.3185 30.2908 12.2933C30.1912 12.2589 30.0916 12.2244 29.9929 12.1951L29.9869 12.1909Z" fill="#43C6EC"/>
<path opacity="0.27" d="M31.7764 8.57498C30.8403 8.27744 29.8565 8.09228 28.8862 8.19059C28.227 8.25484 27.5705 8.42258 26.9896 8.75372C26.7242 8.89928 26.47 9.07923 26.2405 9.28083C26.4428 9.04246 26.6824 8.83908 26.9433 8.66832C27.5664 8.25179 28.311 8.05292 29.0562 8.00469C29.4876 7.9754 29.9315 8.01667 30.3573 8.10272C30.843 8.2042 31.3266 8.35283 31.7764 8.57498Z" fill="white"/>
<path opacity="0.33" d="M27.0264 10.7588C27.5022 11.2466 28.0546 11.6378 28.6811 11.86C29.3076 12.0822 29.9724 12.0793 30.6055 11.9261C30.3108 12.082 29.9775 12.1668 29.6385 12.1902C28.6209 12.2553 27.5843 11.6532 27.0264 10.7588Z" fill="white"/>
<path d="M45.3811 5.02221C44.9195 4.26157 44.1742 3.74848 43.3368 3.56867C42.5374 3.39776 41.7024 3.46704 40.9355 3.7166C40.4732 3.86569 40.0352 4.09366 39.5978 4.29553C39.0985 4.52912 38.6026 4.78287 38.1513 5.11195C37.9031 5.29606 37.6635 5.49944 37.428 5.69689C37.2243 5.86796 37.0265 6.04317 36.8423 6.23678C36.7856 6.29874 36.7281 6.35567 36.6706 6.41259C36.6439 6.43809 36.6163 6.45855 36.5896 6.48404C36.5712 6.49768 36.5528 6.51132 36.5336 6.51992C36.5193 6.52762 36.5051 6.53533 36.4959 6.54215C36.3743 6.41285 36.2181 6.35204 36.0511 6.40747C36.0511 6.40747 36.0503 6.40243 36.0494 6.39739L36.611 6.25157C37.0309 5.80329 37.6623 5.19817 38.5185 4.60021C39.342 4.02358 40.0961 3.49558 41.1835 3.23627C41.8116 3.08394 43.8621 2.59763 45.0942 3.86692C45.1767 3.95114 45.855 4.67357 45.8961 5.73186C45.9076 6.06249 45.8566 6.36256 45.7599 6.6395C45.8009 6.07611 45.6844 5.5041 45.3853 5.01628L45.3811 5.02221Z" fill="#0C3D9C"/>
<path d="M38.2615 7.64966C38.5901 9.04188 41.2644 9.5579 42.396 9.16606C43.5285 8.77925 45.6365 5.99579 44.7877 4.86681C43.9339 3.73872 41.6672 4.41388 40.7877 4.84965C39.9081 5.28542 37.9328 6.25744 38.2615 7.64966Z" fill="#43C6EC"/>
<path d="M42.3724 9.00388C42.9465 8.39846 43.3502 7.65157 43.5689 6.82816C43.6843 6.39199 43.7825 5.91727 43.7479 5.45558C43.7144 5.03007 43.5778 4.63834 43.3958 4.25461C43.9565 4.28049 44.4647 4.45076 44.7775 4.86861C45.6313 5.9967 43.5232 8.78016 42.3857 9.16786C42.3119 9.19127 42.233 9.21558 42.1473 9.23069C42.2164 9.15093 42.2914 9.07533 42.3614 9.00061L42.3724 9.00388Z" fill="#43C6EC"/>
<path opacity="0.27" d="M39.0565 6.70394C39.7315 5.99238 40.5023 5.35229 41.3966 4.97108C42.0051 4.70786 42.6617 4.54012 43.3274 4.54228C43.6337 4.54025 43.9361 4.57528 44.238 4.63641C43.9432 4.52724 43.6354 4.46197 43.3247 4.4388C42.576 4.3785 41.8287 4.56224 41.1576 4.88328C40.7638 5.06707 40.3967 5.31373 40.0678 5.60042C39.6879 5.92209 39.3412 6.28469 39.0556 6.6989L39.0565 6.70394Z" fill="white"/>
<path opacity="0.33" d="M44.2686 6.31499C44.0879 6.97058 43.7907 7.58433 43.3535 8.08243C42.9164 8.58053 42.3337 8.90159 41.6982 9.07081C42.0348 9.06345 42.363 8.97957 42.6697 8.83195C43.5913 8.39915 44.2053 7.3709 44.2635 6.31588L44.2686 6.31499Z" fill="white"/>
<path d="M35.795 8.19667C36.7886 7.94025 37.4865 7.3152 37.3537 6.80057C37.2209 6.28595 36.3077 6.07664 35.3141 6.33307C34.3204 6.58949 33.6226 7.21455 33.7554 7.72917C33.8882 8.24379 34.8013 8.4531 35.795 8.19667Z" fill="#333333"/>
<path opacity="0.2" d="M33.8338 7.47926C33.8338 7.47926 33.8471 7.46651 33.8513 7.46058C33.891 7.3912 33.9527 7.32835 34.0239 7.28981C34.1846 7.11073 34.3216 6.91504 34.5343 6.79439C34.8406 6.61563 35.2347 6.55134 35.5739 6.47073C35.8687 6.40316 36.183 6.35813 36.4863 6.39821C36.7997 6.4365 37.0734 6.54418 37.3293 6.72776C37.1339 6.26842 36.2604 6.08979 35.3159 6.33429C34.3715 6.57879 33.7345 7.12253 33.7424 7.60972C33.7596 7.5599 33.7928 7.51246 33.8338 7.47926Z" fill="white"/>
<path opacity="0.2" d="M37.019 7.53123C37.019 7.53123 36.9769 7.52826 36.9559 7.52678C36.9559 7.52678 36.9559 7.52678 36.9508 7.52766C36.9206 7.533 36.8903 7.53833 36.861 7.54871C36.8509 7.55048 36.8031 7.57449 36.783 7.57805C36.7779 7.57894 36.7679 7.58072 36.7637 7.58665C36.7109 7.61155 36.659 7.64149 36.6071 7.67143C36.3711 7.80661 36.1478 7.95514 35.8859 8.0325C35.3975 8.18099 34.9015 8.13851 34.3989 8.11798C34.3529 8.15208 34.3052 8.17609 34.2565 8.19506C34.6408 8.34041 35.2039 8.35027 35.7958 8.19913C36.328 8.06369 36.7735 7.81882 37.0519 7.54102C37.041 7.53776 37.0241 7.53034 37.0131 7.52708L37.019 7.53123Z" fill="white"/>
</g>
<defs>
<clipPath id="clip0_1019_27723">
<rect width="50" height="50" fill="white"/>
</clipPath>
</defs>
</svg>
