<svg width="100" height="100" viewBox="0 0 100 100" fill="none" xmlns="http://www.w3.org/2000/svg">
<g clip-path="url(#clip0_1019_10544)">
<path d="M68.2912 20.6274L65.982 19.2942L67.5323 16.6089C67.3781 16.0883 67.2187 15.5765 67.0268 15.0808L64.4464 13.591L65.4261 11.8941C65.2196 11.565 65.0031 11.2534 64.7727 10.9454L63.5455 13.0709L60.834 11.5054L62.3995 8.79387L63.4491 9.39987C62.5537 8.48637 61.5337 7.68758 60.4054 7.03613C59.2771 6.38468 58.0753 5.90078 56.8365 5.58207L57.8861 6.18807L56.3206 8.89959L53.6091 7.33409L54.8362 5.20861C54.4544 5.16306 54.0711 5.14006 53.6879 5.11706L52.7082 6.81394L50.1279 5.3242C49.6026 5.40579 49.0797 5.52373 48.5517 5.65041L47.0013 8.3357L44.6922 7.0025C43.8498 7.39086 43.0135 7.82936 42.1782 8.32675L41.2894 9.86619L40.511 9.41674C40.1993 9.63333 39.8964 9.85498 39.5972 10.0904L40.7693 10.7671L39.2038 13.4786L37.0958 12.2616C36.8366 12.5085 36.5812 12.7692 36.3395 13.0262L38.6836 14.3796L37.1181 17.0911L34.2492 15.4347C34.0337 15.7068 33.822 15.9928 33.6153 16.27L36.6067 17.9971L35.0412 20.7086L31.8836 18.8855C31.7978 19.0342 31.7119 19.1829 31.621 19.3404C31.5301 19.4978 31.4493 19.6378 31.3584 19.7952L34.516 21.6183L32.9505 24.3298L29.9591 22.6027C29.8174 22.929 29.6806 23.2466 29.5527 23.5693L32.4217 25.2257L30.8562 27.9372L28.512 26.5838C28.414 26.9354 28.321 27.2782 28.228 27.6211L30.336 28.8381L28.7705 31.5496L27.5984 30.8729C27.5441 31.2498 27.5036 31.6229 27.4719 32.0011L28.2504 32.4506L27.3616 33.99C27.3448 34.9483 27.3781 35.9005 27.4717 36.8292L29.7809 38.1624L28.2305 40.8477C28.3848 41.3683 28.5441 41.8801 28.7361 42.3758L31.3164 43.8656L30.3367 45.5625C30.5432 45.8916 30.7598 46.2033 30.9902 46.5112L32.2173 44.3857L34.9288 45.9512L33.227 48.8989C33.4941 49.1231 33.775 49.3436 34.0522 49.5503L35.8298 46.4714L38.5413 48.0369L36.7637 51.1158C37.09 51.2575 37.4127 51.3855 37.7404 51.5047L39.4422 48.557L42.1537 50.1225L40.9266 52.248C41.3085 52.2936 41.6917 52.3166 42.075 52.3396L43.0547 50.6427L45.635 52.1324C46.1603 52.0508 46.6832 51.9329 47.2112 51.8062L48.7615 49.1209L51.0707 50.4541C51.913 50.0658 52.7493 49.6273 53.5846 49.1299L54.4734 47.5904L55.2519 48.0399C55.5635 47.8233 55.8664 47.6016 56.1656 47.3662L54.9935 46.6895L56.559 43.978L58.667 45.195C58.9262 44.9481 59.1817 44.6875 59.4234 44.4305L57.0792 43.0771L58.6447 40.3655L61.5137 42.0219C61.7291 41.7498 61.9408 41.4639 62.1475 41.1867L59.1561 39.4596L60.7216 36.748L63.8792 38.5711C63.9651 38.4224 64.0509 38.2737 64.1418 38.1162C64.2327 37.9588 64.3135 37.8189 64.4044 37.6614L61.2468 35.8384L62.8123 33.1268L65.8037 34.8539C65.9455 34.5276 66.0822 34.21 66.2102 33.8874L63.3412 32.231L64.9067 29.5194L67.2508 30.8728C67.3489 30.5213 67.4418 30.1784 67.5348 29.8356L65.4268 28.6185L66.9923 25.907L68.1644 26.5837C68.2187 26.2069 68.2592 25.8337 68.291 25.4555L67.5125 25.0061L68.4013 23.4666C68.4181 22.5083 68.3847 21.5561 68.2912 20.6274ZM30.3061 37.2528L27.5945 35.6873L29.16 32.9758L31.8715 34.5412L30.3061 37.2528ZM32.3917 33.6403L29.6802 32.0748L31.2457 29.3633L33.9572 30.9288L32.3917 33.6403ZM34.4773 30.0279L31.7658 28.4624L33.3313 25.7509L36.0428 27.3164L34.4773 30.0279ZM36.568 26.4067L33.8565 24.8412L35.422 22.1297L38.1335 23.6952L36.568 26.4067ZM38.6537 22.7942L35.9422 21.2287L37.5077 18.5172L40.2192 20.0827L38.6537 22.7942ZM40.7393 19.1818L38.0278 17.6163L39.5933 14.9048L42.3048 16.4703L40.7393 19.1818ZM42.83 15.5606L40.1185 13.9951L41.684 11.2836L44.3955 12.8491L42.83 15.5606ZM44.9157 11.9481L42.2042 10.3826L43.7697 7.67112L46.4812 9.23662L44.9157 11.9481ZM31.8328 42.9509L29.1213 41.3854L30.6868 38.6738L33.3983 40.2393L31.8328 42.9509ZM33.9185 39.3384L31.207 37.7729L32.7725 35.0614L35.484 36.6269L33.9185 39.3384ZM36.0041 35.726L33.2926 34.1605L34.8581 31.4489L37.5696 33.0144L36.0041 35.726ZM38.0898 32.1135L35.3783 30.548L36.9438 27.8365L39.6553 29.402L38.0898 32.1135ZM40.1805 28.4923L37.469 26.9268L39.0345 24.2153L41.746 25.7808L40.1805 28.4923ZM42.2661 24.8799L39.5546 23.3144L41.1201 20.6029L43.8316 22.1684L42.2661 24.8799ZM44.3518 21.2674L41.6403 19.7019L43.2058 16.9904L45.9173 18.5559L44.3518 21.2674ZM46.4425 17.6462L43.731 16.0807L45.2965 13.3692L48.008 14.9347L46.4425 17.6462ZM48.5281 14.0338L45.8166 12.4683L47.3821 9.75677L50.0936 11.3223L48.5281 14.0338ZM50.6138 10.4213L47.9023 8.85585L49.4678 6.14432L52.1793 7.70982L50.6138 10.4213ZM35.454 45.0416L32.7425 43.4761L34.308 40.7645L37.0195 42.33L35.454 45.0416ZM37.5397 41.4291L34.8282 39.8636L36.3937 37.1521L39.1052 38.7176L37.5397 41.4291ZM39.6253 37.8167L36.9138 36.2512L38.4793 33.5396L41.1908 35.1051L39.6253 37.8167ZM41.711 34.2042L38.9995 32.6387L40.565 29.9272L43.2765 31.4927L41.711 34.2042ZM43.8017 30.583L41.0902 29.0175L42.6557 26.306L45.3672 27.8715L43.8017 30.583ZM45.8873 26.9706L43.1758 25.4051L44.7413 22.6936L47.4528 24.2591L45.8873 26.9706ZM47.973 23.3581L45.2615 21.7926L46.827 19.0811L49.5385 20.6466L47.973 23.3581ZM50.0637 19.7369L47.3522 18.1714L48.9177 15.4599L51.6292 17.0254L50.0637 19.7369ZM52.1493 16.1245L49.4378 14.559L51.0033 11.8475L53.7148 13.413L52.1493 16.1245ZM54.235 12.512L51.5235 10.9465L53.089 8.23502L55.8005 9.80052L54.235 12.512ZM39.0665 47.1272L36.355 45.5617L37.9205 42.8502L40.632 44.4157L39.0665 47.1272ZM41.1521 43.5148L38.4406 41.9493L40.0061 39.2377L42.7176 40.8032L41.1521 43.5148ZM43.2378 39.9023L40.5263 38.3368L42.0918 35.6253L44.8033 37.1908L43.2378 39.9023ZM45.3234 36.2899L42.6119 34.7244L44.1774 32.0128L46.8889 33.5783L45.3234 36.2899ZM47.4141 32.6687L44.7026 31.1032L46.2681 28.3917L48.9796 29.9572L47.4141 32.6687ZM49.4998 29.0562L46.7883 27.4907L48.3538 24.7792L51.0653 26.3447L49.4998 29.0562ZM51.5854 25.4438L48.8739 23.8783L50.4394 21.1668L53.1509 22.7323L51.5854 25.4438ZM53.6761 21.8226L50.9646 20.2571L52.5301 17.5456L55.2416 19.1111L53.6761 21.8226ZM55.7618 18.2101L53.0503 16.6446L54.6157 13.9331L57.3273 15.4986L55.7618 18.2101ZM57.8474 14.5977L55.1359 13.0322L56.7014 10.3207L59.4129 11.8862L57.8474 14.5977ZM59.9331 10.9852L57.2215 9.41974L58.787 6.70822L61.4986 8.27372L59.9331 10.9852ZM42.6789 49.2129L39.9674 47.6474L41.5329 44.9358L44.2444 46.5013L42.6789 49.2129ZM44.7646 45.6004L42.0531 44.0349L43.6186 41.3234L46.3301 42.8889L44.7646 45.6004ZM46.8502 41.988L44.1387 40.4225L45.7042 37.7109L48.4157 39.2764L46.8502 41.988ZM48.9359 38.3755L46.2244 36.81L47.7899 34.0985L50.5014 35.664L48.9359 38.3755ZM51.0266 34.7543L48.3151 33.1888L49.8806 30.4773L52.5921 32.0428L51.0266 34.7543ZM53.1122 31.1419L50.4007 29.5764L51.9662 26.8649L54.6777 28.4303L53.1122 31.1419ZM55.1979 27.5294L52.4864 25.9639L54.0519 23.2524L56.7634 24.8179L55.1979 27.5294ZM57.2886 23.9082L54.5771 22.3427L56.1425 19.6312L58.8541 21.1967L57.2886 23.9082ZM59.3742 20.2958L56.6627 18.7303L58.2282 16.0188L60.9397 17.5843L59.3742 20.2958ZM61.4599 16.6833L58.7483 15.1178L60.3138 12.4063L63.0254 13.9718L61.4599 16.6833ZM46.2914 51.2985L43.5799 49.733L45.1454 47.0215L47.8569 48.587L46.2914 51.2985ZM48.377 47.6861L45.6655 46.1206L47.231 43.409L49.9425 44.9745L48.377 47.6861ZM50.4627 44.0736L47.7512 42.5081L49.3167 39.7966L52.0282 41.3621L50.4627 44.0736ZM52.5483 40.4612L49.8368 38.8957L51.4023 36.1841L54.1138 37.7496L52.5483 40.4612ZM54.639 36.84L51.9275 35.2745L53.493 32.5629L56.2045 34.1284L54.639 36.84ZM56.7247 33.2275L54.0132 31.662L55.5787 28.9505L58.2902 30.516L56.7247 33.2275ZM58.8103 29.6151L56.0988 28.0496L57.6643 25.3381L60.3758 26.9035L58.8103 29.6151ZM60.901 25.9939L58.1895 24.4284L59.755 21.7169L62.4665 23.2824L60.901 25.9939ZM62.9867 22.3814L60.2751 20.8159L61.8406 18.1044L64.5522 19.6699L62.9867 22.3814ZM65.0723 18.769L62.3608 17.2035L63.9263 14.492L66.6378 16.0575L65.0723 18.769ZM51.9982 49.7768L49.2867 48.2113L50.8522 45.4997L53.5637 47.0652L51.9982 49.7768ZM54.0839 46.1643L51.3724 44.5988L52.9379 41.8873L55.6494 43.4528L54.0839 46.1643ZM56.1695 42.5519L53.458 40.9864L55.0235 38.2748L57.735 39.8403L56.1695 42.5519ZM58.2602 38.9307L55.5487 37.3652L57.1142 34.6536L59.8257 36.2191L58.2602 38.9307ZM60.3459 35.3182L57.6343 33.7527L59.1998 31.0412L61.9114 32.6067L60.3459 35.3182ZM62.4315 31.7058L59.72 30.1403L61.2855 27.4287L63.997 28.9942L62.4315 31.7058ZM64.5222 28.0846L61.8107 26.5191L63.3762 23.8076L66.0877 25.3731L64.5222 28.0846ZM66.6079 24.4721L63.8963 22.9066L65.4618 20.1951L68.1734 21.7606L66.6079 24.4721Z" fill="#DFDFDF"/>
<path d="M61.4499 5.22552C51.4697 -0.536519 37.3038 5.31469 29.8146 18.2863C25.4868 25.7823 24.3364 34.0166 26.0503 40.7441C28.5166 50.39 27.0517 60.6236 22.0724 69.248L14.2449 82.8056C13.957 83.3042 14.1271 83.9388 14.6257 84.2267L16.4363 85.272C16.9348 85.5599 17.5695 85.3898 17.8573 84.8912L25.6848 71.3336C30.6641 62.7092 38.7942 56.3238 48.381 53.6367C55.0728 51.7623 61.62 46.6438 65.9478 39.1478C73.442 26.1675 71.4213 10.9825 61.4411 5.22048L61.4499 5.22552ZM29.6581 37.404C28.9246 31.9073 30.2695 25.8612 33.4308 20.3857C36.5921 14.9102 41.1557 10.7225 46.2827 8.60935C51.0293 6.64987 55.6667 6.73817 59.3491 8.86421C63.0315 10.9903 65.4267 14.9622 66.103 20.0526C66.8365 25.5493 65.4917 31.5954 62.3304 37.0709C59.1691 42.5464 54.6054 46.7341 49.4784 48.8473C44.7318 50.8067 40.0944 50.7184 36.412 48.5924C32.7296 46.4663 30.3345 42.4944 29.6581 37.404ZM30.5035 58.8262C31.1115 55.935 31.4102 52.9936 31.4021 50.0383C32.2803 50.8603 33.2593 51.5887 34.3264 52.2048C35.3935 52.8209 36.5189 53.2957 37.6648 53.6541C35.1014 55.1247 32.7034 56.8541 30.4985 58.835L30.5035 58.8262Z" fill="#525252"/>
<path d="M26.5949 71.8585L21.1719 68.7275L13.3444 82.2852L18.7674 85.4162L26.5949 71.8585Z" fill="#1E4157"/>
<path d="M72.323 88.242C67.4952 96.604 56.7976 99.4778 48.4269 94.6449C41.1932 90.4686 38.0694 81.9008 40.4787 74.2534C40.8536 73.0587 41.3674 71.8859 42.0239 70.7488C42.0845 70.6438 42.1451 70.5389 42.2057 70.4339C47.1189 62.3078 57.6543 59.5736 65.9113 64.3408C69.7074 66.5325 72.3682 69.923 73.6941 73.7674C74.0528 74.8025 74.3186 75.8773 74.4791 76.973C75.0273 80.7299 74.3595 84.6945 72.3143 88.2369L72.323 88.242Z" fill="#BAD706"/>
<path d="M74.488 76.9779C74.1166 76.5303 73.6975 76.125 73.2582 75.7548C73.1034 75.6188 72.7576 75.3491 72.0979 74.9566C71.7655 74.7647 71.4231 74.5903 71.0654 74.4421C70.7115 74.3077 70.3438 74.1771 69.9784 74.0827C69.6443 73.9948 69.3001 73.9244 68.9545 73.8765C68.8869 73.8724 68.8243 73.8596 68.7567 73.8556C68.1043 73.7938 67.4515 73.8134 66.8048 73.8832C66.8048 73.8832 66.7822 73.8818 66.7772 73.8906C66.188 73.9819 65.5961 74.1184 65.0327 74.3063C64.2036 74.5506 62.8497 75.32 62.2068 75.9285C61.6521 76.4247 61.1573 76.9787 60.7012 77.5667C60.6759 77.6104 60.6369 77.6579 60.6029 77.6966C59.9199 78.5968 59.3106 79.5512 58.6363 80.4564C57.9418 81.3966 57.1811 82.3103 56.272 83.0566C55.3717 83.808 54.3829 84.4501 53.2973 84.8962C51.899 85.5001 50.3693 85.8065 48.8488 85.7333C48.0197 85.6745 47.1998 85.5393 46.4155 85.2614C45.7514 85.018 45.0987 84.7344 44.5016 84.3547C43.927 83.9763 43.3689 83.5491 42.8926 83.0409C42.3403 82.4421 41.8422 81.7697 41.5073 81.0165C40.7454 79.3871 40.6194 77.565 40.5446 75.7957C40.5256 75.2833 40.5029 74.757 40.4839 74.2446C40.8588 73.0498 41.3726 71.877 42.0291 70.7399C42.0897 70.635 42.1503 70.53 42.2109 70.4251C42.2987 72.6566 42.3501 74.8905 42.483 77.1248C42.5604 78.0209 42.5242 77.72 42.6363 78.4146C42.8201 79.3487 43.0168 79.9171 43.2118 80.2862C43.3285 80.5285 43.464 80.7584 43.6096 80.9708C43.6631 81.06 43.7216 81.1404 43.7889 81.2259C43.8599 81.3252 43.9446 81.4208 44.0206 81.5113C44.2998 81.8357 44.6079 82.1303 44.945 82.3948C45.3346 82.6897 45.7494 82.9409 46.1931 83.1621C46.3068 83.2277 46.4306 83.2759 46.5544 83.324C46.5632 83.3291 46.5719 83.3341 46.5807 83.3392C46.6244 83.3644 46.6644 83.3759 46.7132 83.3924C47.0584 83.5217 47.4049 83.6285 47.7666 83.709C47.9857 83.7539 48.2047 83.7987 48.4288 83.8347C48.6579 83.8621 48.8834 83.8756 49.1138 83.8804C49.5159 83.891 49.9157 83.8652 50.3168 83.8168C50.3306 83.8131 50.3531 83.8145 50.3669 83.8108C50.906 83.7255 51.4478 83.5951 51.9609 83.4133C52.5017 83.224 52.4792 83.2226 52.67 83.1345C52.9863 82.9906 53.2852 82.8366 53.5803 82.6688C53.8755 82.501 54.172 82.3107 54.451 82.1102C54.7539 81.8886 54.6155 82.007 55.1689 81.5334C55.9699 80.8529 56.7926 79.8118 56.9804 79.547C58.1475 77.97 59.1599 76.257 60.5728 74.8802C61.4271 74.0672 62.4135 73.3889 63.4918 72.9151C64.0541 72.6683 64.6238 72.4491 65.2208 72.3039C65.8141 72.145 66.4208 72.0637 67.0311 71.9963C68.2004 71.89 69.3838 72.0018 70.515 72.305C71.6411 72.6169 72.7338 73.1078 73.6892 73.7761C74.0479 74.8112 74.3137 75.886 74.4742 76.9816L74.488 76.9779Z" fill="#FFE1BD"/>
</g>
<defs>
<clipPath id="clip0_1019_10544">
<rect width="100" height="100" fill="white"/>
</clipPath>
</defs>
</svg>
