<svg width="50" height="50" viewBox="0 0 50 50" fill="none" xmlns="http://www.w3.org/2000/svg">
<path d="M49.9826 33.3363V7.53156C49.9826 7.24162 49.7504 7 49.4717 7H11.3216C11.043 7 10.8108 7.24162 10.8108 7.53156V33.5055C10.8108 33.9525 11.2404 34.1337 11.5887 33.9645C12.8425 33.3847 14.0964 32.8048 15.3503 32.2249H45.4547C46.7086 32.8048 47.9624 33.3847 49.2163 33.9645C49.2627 33.9887 49.3092 34.0008 49.3556 34.0129C49.6227 34.0733 49.9477 33.9283 49.9826 33.578C50.0058 33.4934 50.0058 33.4088 49.9826 33.3363ZM23.3727 11.6028V13.2821H20.8882V11.6028H23.3727ZM39.8936 11.6028V13.2821H37.4091V11.6028H39.8936ZM42.6567 11.6028V13.2821H40.1722V11.6028H42.6567ZM48.9493 22.8864L47.6374 22.7172V20.446H48.9493V22.8864ZM47.3703 22.681L46.0584 22.5119V20.446H47.3703V22.681ZM11.8441 20.446H13.156V22.7172L11.8441 22.8864V20.446ZM13.423 20.446H14.7349V22.5119L13.423 22.681V20.446ZM29.1544 22.4515V20.446H31.6389V22.4515H29.1544ZM23.3727 18.1627V20.1682H20.8882V18.1627H23.3727ZM23.6513 18.1627H26.1358V20.1682H23.6513V18.1627ZM26.4029 18.1627H28.8874V20.1682H26.4029V18.1627ZM29.1544 18.1627H31.6389V20.1682H29.1544V18.1627ZM31.906 18.1627H34.3905V20.1682H31.906V18.1627ZM34.6691 18.1627H37.1536V20.1682H34.6691V18.1627ZM37.4207 18.1627H39.9052V20.1682H37.4207V18.1627ZM20.6212 18.1627V20.1682H18.1366V18.1627H20.6212ZM20.6212 20.446V22.4515H18.1366V20.446H20.6212ZM20.8998 20.446H23.3843V22.4515H20.8998V20.446ZM23.6513 20.446H26.1358V22.4515H23.6513V20.446ZM26.4029 20.446H28.8874V22.4515H26.4029V20.446ZM31.906 20.446H34.3905V22.4515H31.906V20.446ZM34.6691 20.446H37.1536V22.4515H34.6691V20.446ZM37.4207 20.446H39.9052V22.4515H37.4207V20.446ZM40.1722 20.446H42.6567V22.4515H40.1722V20.446ZM40.1722 20.1682V18.1627H42.6567V20.1682H40.1722ZM40.1722 17.8728V15.8674H42.6567V17.8728H40.1722ZM39.8936 17.8728H37.4091V15.8674H39.8936V17.8728ZM37.142 17.8728H34.6575V15.8674H37.142V17.8728ZM34.3905 17.8728H31.906V15.8674H34.3905V17.8728ZM31.6389 17.8728H29.1544V15.8674H31.6389V17.8728ZM28.8874 17.8728H26.4029V15.8674H28.8874V17.8728ZM26.1242 17.8728H23.6397V15.8674H26.1242V17.8728ZM23.3727 17.8728H20.8882V15.8674H23.3727V17.8728ZM20.6212 17.8728H18.1366V15.8674H20.6212V17.8728ZM17.8696 17.8728H15.7682V15.8674H17.8696V17.8728ZM17.8696 18.1627V20.1682H15.7682V18.1627H17.8696ZM17.8696 20.446V22.4515H15.7682V20.446H17.8696ZM45.0368 22.4515H42.9354V20.446H45.0368V22.4515ZM42.9238 20.1682V18.1627H45.0251V20.1682H42.9238ZM42.9238 17.8728V15.8674H45.0251V17.8728H42.9238ZM42.9238 15.5774V13.572H45.0251V15.5774H42.9238ZM42.6567 15.5774H40.1722V13.572H42.6567V15.5774ZM39.8936 15.5774H37.4091V13.572H39.8936V15.5774ZM37.142 15.5774H34.6575V13.572H37.142V15.5774ZM34.3905 15.5774H31.906V13.572H34.3905V15.5774ZM31.6389 15.5774H29.1544V13.572H31.6389V15.5774ZM28.8874 15.5774H26.4029V13.572H28.8874V15.5774ZM26.1242 15.5774H23.6397V13.572H26.1242V15.5774ZM23.3727 15.5774H20.8882V13.572H23.3727V15.5774ZM20.6212 15.5774H18.1366V13.572H20.6212V15.5774ZM17.8696 15.5774H15.7682V13.572H17.8696V15.5774ZM28.8874 22.7414V24.7468H26.4029V22.7414H28.8874ZM29.1544 22.7414H31.6389V24.7468H29.1544V22.7414ZM31.906 22.7414H34.3905V24.7468H31.906V22.7414ZM45.0368 13.2821H42.9354V11.6028H45.0368V13.2821ZM37.142 13.2821H34.6575V11.6028H37.142V13.2821ZM34.3905 13.2821H31.906V11.6028H34.3905V13.2821ZM31.6389 13.2821H29.1544V11.6028H31.6389V13.2821ZM28.8874 13.2821H26.4029V11.6028H28.8874V13.2821ZM26.1242 13.2821H23.6397V11.6028H26.1242V13.2821ZM20.6212 13.2821H18.1366V11.6028H20.6212V13.2821ZM17.8696 13.2821H15.7682V11.6028H17.8696V13.2821ZM14.7233 20.1682H13.4114V17.8245L14.7233 18.0661V20.1682ZM13.1444 20.1682H11.8325V17.5466L13.1444 17.7882V20.1803V20.1682ZM11.8441 23.1763L13.156 23.0072V25.2784L11.8441 25.6166V23.1763ZM13.423 22.9709L14.7349 22.8018V24.8676L13.423 25.2059V22.9709ZM15.7566 22.7414H17.858V24.7468H15.7566V22.7414ZM18.1366 22.7414H20.6212V24.7468H18.1366V22.7414ZM20.8998 22.7414H23.3843V24.7468H20.8998V22.7414ZM23.6513 22.7414H26.1358V24.7468H23.6513V22.7414ZM26.1242 25.0368V27.0422H23.6397V25.0368H26.1242ZM26.4029 25.0368H28.8874V27.0422H26.4029V25.0368ZM29.1544 25.0368H31.6389V27.0422H29.1544V25.0368ZM31.906 25.0368H34.3905V27.0422H31.906V25.0368ZM34.6691 25.0368H37.1536V27.0422H34.6691V25.0368ZM34.6691 24.7468V22.7414H37.1536V24.7468H34.6691ZM37.4207 22.7414H39.9052V24.7468H37.4207V22.7414ZM40.1722 22.7414H42.6567V24.7468H40.1722V22.7414ZM42.9238 22.7414H45.0251V24.7468H42.9238V22.7414ZM46.07 24.6019V22.8018L47.382 22.9709V25.2059L46.07 24.8676V24.6019ZM47.649 23.0072L48.9609 23.1763V25.6046L47.649 25.2663V23.0072ZM48.9493 20.1682H47.6374V17.7882L48.9493 17.5466V20.1682ZM47.3703 20.1682H46.0584V18.0782L47.3703 17.8366V20.1682ZM45.8378 10.6243C45.7566 10.5639 45.6521 10.5276 45.5476 10.5276H43.3881L44.2357 9.44034H47.1381L45.8378 10.6122V10.6243ZM43.0282 10.5276H40.4741L41.043 9.44034H43.8758L43.0282 10.5276ZM40.1606 10.5276H37.618L38.0012 9.44034H40.7411L40.1722 10.5276H40.1606ZM37.3278 10.5276H34.7272L34.8317 9.44034H37.7109L37.3278 10.5276ZM34.4369 10.5276H31.906V9.44034H34.5414L34.4369 10.5276ZM31.6389 10.5276H29.1544V9.44034H31.6389V10.5276ZM28.8874 10.5276H26.4029V9.44034H28.8874V10.5276ZM26.1242 10.5276H23.5585L23.3727 9.44034H26.1358V10.5276H26.1242ZM23.2798 10.5276H20.7024L20.3077 9.44034H23.0941L23.2798 10.5276ZM20.4122 10.5276H17.8232L17.1266 9.44034H20.0058L20.4122 10.5276ZM17.4865 10.5276H15.2458C15.1413 10.5276 15.0484 10.5639 14.9555 10.6243L13.6552 9.45242H16.7899L17.4865 10.5397V10.5276ZM14.7814 10.8417C14.7465 10.9142 14.7349 10.9867 14.7349 11.0713V12.9559L13.423 12.1706V9.62155L14.7814 10.8417ZM14.7233 13.2821V15.3962L13.4114 14.9371V12.4968L14.7233 13.2821ZM14.7233 15.6982V17.7762L13.4114 17.5345V15.2392L14.7233 15.6982ZM13.1444 17.4862L11.8325 17.2446V14.6834L13.1444 15.1425V17.4862ZM11.8441 25.9066L13.156 25.5683V27.755L11.8441 28.202V25.8945V25.9066ZM13.423 25.5079L14.7349 25.1697V27.2234L13.423 27.6704V25.5079ZM15.7566 25.0368H17.858V27.0422H15.7566V25.0368ZM18.1366 25.0368H20.6212V27.0422H18.1366V25.0368ZM20.8998 25.0368H23.3843V27.0422H20.8998V25.0368ZM23.3727 27.3321V29.3376H20.8882V27.3321H23.3727ZM23.6513 27.3321H26.1358V29.3376H23.6513V27.3321ZM26.4029 27.3321H28.8874V29.3376H26.4029V27.3321ZM29.1544 27.3321H31.6389V29.3376H29.1544V27.3321ZM31.906 27.3321H34.3905V29.3376H31.906V27.3321ZM34.6691 27.3321H37.1536V29.3376H34.6691V27.3321ZM37.4207 27.3321H39.9052V29.3376H37.4207V27.3321ZM37.4207 27.0422V25.0368H39.9052V27.0422H37.4207ZM40.1722 25.0368H42.6567V27.0422H40.1722V25.0368ZM42.9238 25.0368H45.0251V27.0422H42.9238V25.0368ZM46.07 25.1576L47.382 25.4958V27.6583L46.07 27.1992V25.1576ZM47.649 25.5683L48.9609 25.9066V28.214L47.649 27.755V25.5683ZM48.9493 17.2567L47.6374 17.4983V15.1667L48.9493 14.7076V17.2567ZM47.3703 17.5466L46.0584 17.7882V15.7103L47.3703 15.2512V17.5466ZM46.07 15.4083V13.3062L47.382 12.521V14.9492L46.07 15.4083ZM46.07 12.98V11.0713C46.07 10.9867 46.0468 10.9142 46.0236 10.8417L47.382 9.62155V12.1948L46.07 12.98ZM47.649 9.36785L48.9609 8.19601V11.2404L47.649 12.0256V9.36785ZM47.4632 9.1504H44.4679L45.3154 8.06312H48.6707L47.4632 9.1504ZM44.108 9.1504H41.2055L41.7744 8.06312H44.9555L44.108 9.1504ZM40.8804 9.1504H38.094L38.4772 8.06312H41.4493L40.8804 9.1504ZM37.8038 9.1504H34.8549L34.9594 8.06312H38.1869L37.8038 9.1504ZM34.5762 9.1504H31.906V8.06312H34.6807L34.5762 9.1504ZM31.6389 9.1504H29.1544V8.06312H31.6389V9.1504ZM28.8874 9.1504H26.4029V8.06312H28.8874V9.1504ZM26.1242 9.1504H23.3146L23.1289 8.06312H26.1358V9.1504H26.1242ZM23.036 9.1504H20.1916L19.7968 8.06312H22.8503L23.036 9.1504ZM19.9013 9.1504H16.9408L16.2442 8.06312H19.5066L19.9129 9.1504H19.9013ZM16.6041 9.1504H13.3301L12.1227 8.06312H15.9075L16.6041 9.1504ZM13.1444 9.36785V12.0015L11.8325 11.2162V8.19601L13.1444 9.36785ZM13.1444 12.3277V14.8405L11.8325 14.3814V11.5303L13.1444 12.3156V12.3277ZM11.8441 28.5161L13.156 28.057V30.0866L11.8441 30.5577V28.504V28.5161ZM13.423 27.9724L14.7349 27.5133V29.5188L13.423 29.9899V27.9603V27.9724ZM15.7566 27.3321H17.858V29.3376H15.7566V27.3321ZM18.1366 27.3321H20.6212V29.3376H18.1366V27.3321ZM20.6212 29.6154V31.1618H18.1366V29.6154H20.6212ZM20.8998 29.6154H23.3843V31.1618H20.8998V29.6154ZM23.6513 29.6154H26.1358V31.1618H23.6513V29.6154ZM26.4029 29.6154H28.8874V31.1618H26.4029V29.6154ZM29.1544 29.6154H31.6389V31.1618H29.1544V29.6154ZM31.906 29.6154H34.3905V31.1618H31.906V29.6154ZM34.6691 29.6154H37.1536V31.1618H34.6691V29.6154ZM37.4207 29.6154H39.9052V31.1618H37.4207V29.6154ZM40.1722 29.6154H42.6567V31.1618H40.1722V29.6154ZM40.1722 29.3376V27.3321H42.6567V29.3376H40.1722ZM42.9238 27.3321H45.0251V29.3376H42.9238V27.3321ZM46.07 27.5013L47.382 27.9603V29.9779L46.07 29.4946V27.5013ZM47.649 28.0449L48.9609 28.504V30.5577L47.649 30.0745V28.0449ZM48.9493 14.4056L47.6374 14.8647V12.3639L48.9493 11.5787V14.4177V14.4056ZM11.8441 30.8718L13.156 30.3886V32.0799C12.7148 32.2853 12.2853 32.4786 11.8441 32.684V30.8718ZM14.7233 31.3551C14.5376 31.4396 14.3518 31.5242 14.1777 31.6088C13.9222 31.7296 13.6784 31.8383 13.423 31.9591V30.292L14.7349 29.8087V31.343L14.7233 31.3551ZM15.7566 29.6154H17.858V31.1618H15.7566V29.6154ZM42.9238 31.1618V29.6154H45.0251V31.1618H42.9238ZM46.1049 31.3792C46.1049 31.3792 46.0816 31.3792 46.07 31.3672V29.8087L47.382 30.292V31.9712C47.1962 31.8866 47.022 31.8021 46.8363 31.7175C46.5925 31.6088 46.3487 31.488 46.1049 31.3792ZM47.649 32.092V30.3886L48.9609 30.8718V32.7081C48.5197 32.5028 48.0902 32.3095 47.649 32.1041V32.092Z" fill="#757575"/>
<path d="M10.3446 23.0281C4.84895 23.0281 0.37207 27.505 0.37207 33.0006C0.37207 38.4963 4.84895 42.9732 10.3446 42.9732C15.8403 42.9732 20.3172 38.4963 20.3172 33.0006C20.3172 27.505 15.8403 23.0281 10.3446 23.0281Z" fill="#276182"/>
<path d="M10.3448 43.3459C4.64342 43.3459 0 38.7025 0 33.0011C0 27.2997 4.64342 22.6562 10.3448 22.6562C16.0462 22.6562 20.6897 27.2997 20.6897 33.0011C20.6897 38.7025 16.0462 43.3459 10.3448 43.3459Z" fill="#E7E7E7"/>
<mask id="mask0_1019_27711" style="mask-type:luminance" maskUnits="userSpaceOnUse" x="0" y="22" width="21" height="22">
<path d="M10.3448 43.3459C4.64342 43.3459 0 38.7025 0 33.0011C0 27.2997 4.64342 22.6562 10.3448 22.6562C16.0462 22.6562 20.6897 27.2997 20.6897 33.0011C20.6897 38.7025 16.0462 43.3459 10.3448 43.3459Z" fill="white"/>
</mask>
<g mask="url(#mask0_1019_27711)">
<path d="M21.0223 32.2076L20.3464 29.161C20.2092 28.7692 19.7978 28.3871 19.4255 28.2989C19.2884 28.2696 19.1415 28.2794 19.0043 28.3381C17.0647 26.8001 15.125 25.2621 13.1853 23.7339C13.1853 23.587 13.156 23.4302 13.0678 23.2931L12.9306 23.0873C12.7053 22.7445 12.1861 22.4114 11.7845 22.3526C11.7845 22.3526 11.0987 22.2449 10.3444 22.2449C9.59012 22.2449 8.83581 22.3624 8.83581 22.3624C8.43417 22.431 7.89537 22.7445 7.64067 23.0678L7.44475 23.3225C7.3174 23.489 7.27821 23.6947 7.3174 23.871C5.42672 25.3699 3.52625 26.8687 1.63558 28.3773C1.49843 28.3087 1.34169 28.2892 1.19475 28.3283C0.85188 28.4263 0.469825 28.8279 0.332678 29.21C0.332678 29.21 -0.421631 31.3946 -0.421631 33.0109V33.1677C-0.421631 33.344 -0.157133 33.7065 0.146551 33.9808L0.166142 34.0004C0.303289 34.1277 0.479621 34.1865 0.655954 34.1767C1.33189 35.8421 2.00783 37.5074 2.68377 39.1728C2.52703 39.2903 2.41928 39.4667 2.41928 39.6626C2.41928 40.0152 2.66418 40.5344 2.97766 40.8087L5.42672 42.5427C5.77939 42.7484 6.38675 42.7778 6.76881 42.621L7.28801 42.4055C7.40556 42.3565 7.49373 42.2782 7.5623 42.19H12.7641C12.8327 42.3076 12.9404 42.4153 13.0874 42.4741L13.6556 42.7092C14.0376 42.866 14.645 42.8464 15.0074 42.6504L17.3096 41.132C17.6328 40.8773 17.8288 40.3287 17.7602 39.9271V39.8585C17.7602 39.8585 17.7406 39.8389 17.7406 39.8291L17.8777 39.4471C18.6125 37.6446 19.3472 35.842 20.0721 34.0395C20.1113 34.0102 20.1505 33.9808 20.1897 33.9416L20.6011 33.491C20.8754 33.1873 21.0615 32.6093 21.0223 32.1979V32.2076ZM10.5012 25.605C10.6775 25.5854 10.8342 25.5364 10.9714 25.4482L12.8523 24.2923C12.96 24.2237 13.0384 24.1355 13.0972 24.0376C14.9781 25.5266 16.8589 27.0156 18.73 28.5047C18.632 28.5928 18.5439 28.7104 18.4949 28.8377L17.6426 31.1594C17.6132 31.228 17.6034 31.3064 17.5936 31.3848C16.3005 31.5415 15.0074 31.6982 13.7241 31.8648C13.6752 31.6199 13.538 31.3946 13.3519 31.2574L10.8342 29.4059C10.7363 29.3373 10.6187 29.2884 10.5012 29.259V25.605ZM7.46434 24.1453C7.51332 24.1943 7.5623 24.2433 7.63088 24.2825L9.67829 25.4678C9.82523 25.5462 10.0016 25.5952 10.1779 25.6148V29.2296C9.97218 29.2296 9.77625 29.2884 9.61951 29.4059L7.02351 31.2672C6.83738 31.3946 6.71983 31.6101 6.66105 31.8354C5.38754 31.6786 4.11403 31.5219 2.84052 31.3652C2.84052 31.1986 2.83072 31.0321 2.78174 30.8852L2.05682 28.8573C2.01763 28.7496 1.95885 28.6516 1.89028 28.5732C3.75156 27.1038 5.61285 25.6246 7.46434 24.1551V24.1453ZM5.34835 39.016H3.16379C3.09522 39.016 3.02664 39.0258 2.95807 39.0454C2.29193 37.3997 1.61599 35.7539 0.949842 34.1081C1.03801 34.0591 1.11638 34.0004 1.17516 33.922L2.55642 32.1685C2.66418 32.0313 2.74255 31.855 2.78174 31.6591C4.06504 31.8158 5.34835 31.9725 6.62186 32.1293C6.62186 32.2174 6.64146 32.3056 6.67084 32.384L7.8268 35.3229C7.87578 35.4404 7.94436 35.5482 8.03252 35.6363C7.3076 36.8021 6.58268 37.9678 5.84796 39.1336C5.67163 39.0552 5.4953 39.0062 5.32876 39.0062L5.34835 39.016ZM13.8515 39.7801L12.7837 41.5631C12.7151 41.6708 12.6955 41.7884 12.6857 41.8961H7.68965C7.69945 41.7688 7.67006 41.6316 7.59169 41.4945L6.48472 39.6626C6.40635 39.5352 6.28879 39.4079 6.14185 39.3099C6.85697 38.154 7.58189 37.0078 8.29702 35.8518C8.47335 35.9596 8.66928 36.0282 8.8652 36.0282H11.6571C11.8922 36.0282 12.1371 35.9204 12.3331 35.7637C13.058 36.9294 13.7829 38.0854 14.5078 39.2511C14.2335 39.3687 13.9886 39.5646 13.8515 39.7801ZM17.5545 39.4569C17.3879 39.2609 17.1332 39.1336 16.8785 39.1336H14.9781C14.9193 39.1336 14.8703 39.1336 14.8115 39.1532C14.0572 37.9384 13.3029 36.7335 12.5486 35.5188C12.5878 35.46 12.627 35.3914 12.6465 35.3229L13.6947 32.3938C13.7241 32.3252 13.7339 32.2468 13.7339 32.1685C15.0172 32.0117 16.3005 31.855 17.5839 31.6982C17.6132 31.9725 17.7112 32.2468 17.8679 32.4232L19.1904 33.9416C19.3276 34.0983 19.5039 34.1767 19.6802 34.1767C18.9651 35.94 18.25 37.6935 17.5349 39.4569H17.5545Z" fill="#474747"/>
</g>
</svg>
