<svg width="100" height="100" viewBox="0 0 100 100" fill="none" xmlns="http://www.w3.org/2000/svg">
<path d="M71.1459 36.0435L60.6603 31.2398L48.1264 31.9415L37.0334 28.5233L25.1069 27.8396C16.2512 43.0024 10.7885 61.8983 9.14081 82.9052C15.2305 87.1854 26.6067 89.6119 34.2692 89.5462L43.8131 56.3341L41.2975 90.7986C48.4656 93.507 59.9476 95.1537 67.1731 93.2461C72.883 72.9632 74.2835 53.3434 71.2104 36.055L71.1459 36.0435Z" fill="#008CD9"/>
<path d="M25.0245 27.6633C25.0245 27.6633 23.8344 42.5105 27.6476 55.0842C31.4609 67.6579 37.5398 77.1704 37.5398 77.1704L34.0625 89.4445C34.0625 89.4445 25.2812 75.4191 21.2197 65.1667C16.4898 53.096 17.8905 43.7503 17.8905 43.7503C19.69 38.1072 22.0642 32.7664 25.0245 27.6633Z" fill="#113C5D"/>
<path d="M71.3538 35.919C71.3538 35.919 67.3439 50.2638 59.4298 60.7477C51.5156 71.2317 42.5028 78.0549 42.5028 78.0549L41.5568 90.78C41.5568 90.78 54.6281 80.6487 61.9736 72.4289C70.5732 62.7334 72.4866 53.4791 72.4866 53.4791C72.7481 47.5619 72.3666 41.7301 71.3538 35.919Z" fill="#113C5D"/>
<path d="M70.8828 29.5168L61.6124 29.4889L54.0036 29.1831C50.4784 29.0414 46.9908 28.403 43.644 27.2866L37.2095 25.1404L27.6728 21.817L25.0599 27.4648C25.0599 27.4648 35.3936 31.6447 47.8181 33.8587C60.2426 36.0726 71.3841 35.7195 71.3841 35.7195L70.8828 29.5168Z" fill="#113C5D"/>
<path d="M87.9255 9.62807C87.0541 7.47976 84.9812 6.09275 82.9478 4.98298C82.308 4.63161 81.6314 4.28673 80.9007 4.2261C79.9966 4.14869 79.0395 4.14694 78.1165 4.17708C77.241 4.2083 76.3747 4.23791 75.5078 4.37181C73.9687 4.61479 72.4986 5.19609 70.9946 5.58444C69.7078 5.91555 68.3951 6.09965 67.1018 6.394C65.9004 6.67216 64.7228 7.03138 63.5467 7.39978C61.7054 7.97076 59.8733 8.54012 58.032 9.11109C56.4339 9.61076 54.8531 9.83266 53.3188 10.5863C52.8042 10.8381 52.3054 11.125 51.9043 11.5368C51.4152 12.0398 51.1146 12.6991 50.8816 13.3654C50.4361 14.5997 50.1679 15.9258 50.2493 17.2472C50.2833 17.7622 50.685 20.5238 51.4196 18.8881C52.3257 16.8811 51.7694 14.3172 53.0888 12.5594C53.5947 11.8829 54.3265 11.4128 55.101 11.0773C58.6388 9.54405 62.7146 10.739 66.5435 10.3196C68.8404 10.0756 71.0427 9.24204 73.1143 8.20417C75.4913 7.01773 77.8623 5.52919 80.5147 5.42147C81.2859 5.38969 82.0798 5.48653 82.7655 5.8298C83.4713 6.17901 84.0214 6.77355 84.5498 7.35296C85.1015 7.95669 85.6608 8.54961 86.2124 9.15334C86.4588 9.42251 86.7177 9.70843 86.8176 10.0603C87.065 10.9261 86.3153 11.9392 86.7843 12.7186C87.4312 12.6803 87.9582 12.1232 88.1241 11.5066C88.2901 10.89 88.1519 10.2134 87.9055 9.62212L87.9255 9.62807ZM72.6983 7.02707C72.6135 7.29781 72.4389 7.48964 72.2578 7.64471C72.0508 7.81384 71.8065 7.9327 71.559 8.03318C71.1082 8.21687 70.6337 8.31948 70.15 8.42372C69.6204 8.53605 69.1097 8.70189 68.5833 8.8326C67.8413 9.02976 67.0944 9.19935 66.3415 9.38893C65.9789 9.4813 65.633 9.56123 65.2542 9.56172C64.9045 9.56653 64.5527 9.50542 64.195 9.4643C64.1366 9.45564 64.0934 9.42537 64.0469 9.37673C63.9799 9.42644 63.8723 9.40751 63.8086 9.31455C63.7248 9.21564 63.7249 9.05459 63.7838 8.95894C63.9746 8.69794 64.2556 8.5726 64.5307 8.46726C64.789 8.37434 65.0539 8.31817 65.3214 8.22364C65.4727 8.16853 65.6381 8.13937 65.8018 8.10102L67.2783 7.71753C67.9301 7.54576 68.5803 7.36481 69.232 7.19304C69.5671 7.10554 69.893 7.01966 70.2297 6.94134C70.5021 6.87437 70.7777 6.82577 71.0393 6.75123C71.2825 6.67992 71.5257 6.60862 71.7829 6.56326C72.031 6.51952 72.3055 6.51848 72.5552 6.64497C72.6892 6.7066 72.7384 6.87792 72.6875 7.0195L72.6983 7.02707Z" fill="#333333"/>
<path d="M52.0752 13.2592C52.2093 12.6766 52.4802 12.1173 52.8207 11.631C53.0099 11.3608 53.2191 11.0966 53.4299 10.8415C53.5147 10.7318 53.6088 10.6205 53.6936 10.5108C53.7331 10.466 53.7709 10.4119 53.8104 10.3671C53.6439 10.4438 53.4867 10.5189 53.3202 10.5956C52.8057 10.8474 52.3068 11.1343 51.9058 11.546C51.4166 12.0491 51.1161 12.7084 50.883 13.3747C50.4376 14.6089 50.1693 15.9351 50.2507 17.2565C50.2847 17.7715 50.6864 20.5331 51.4211 18.8973C51.7817 18.0949 51.9082 17.201 52.0164 16.3104C51.8658 15.2949 51.8405 14.2384 52.066 13.2608L52.0752 13.2592Z" fill="black"/>
<path d="M87.9252 9.62807C87.0538 7.47977 84.9809 6.09275 82.9474 4.98298C82.5913 4.79 82.2352 4.59702 81.8596 4.45483C81.8629 4.47321 81.8845 4.48834 81.8953 4.49591C81.9218 4.53861 81.9574 4.57968 81.9839 4.62238C81.9871 4.64076 82.0071 4.6467 82.0088 4.65589C82.0336 4.6894 82.0585 4.72291 82.0757 4.76723C82.1238 4.82506 82.186 4.90883 82.2568 4.93424C82.2243 4.91154 82.2011 4.88722 82.1687 4.86452C82.2011 4.88722 82.2443 4.91749 82.2859 4.93857C82.3816 4.99749 82.5783 5.03859 82.6496 5.12074L82.6804 5.13426C82.7528 5.16886 82.8328 5.19265 82.9052 5.22724C83.0992 5.30671 83.2932 5.38618 83.4797 5.47646C84.1206 5.78026 84.6653 6.2905 85.144 6.80289C86.2052 7.93252 86.9298 9.30152 87.0809 10.8569C87.1127 11.1449 86.9403 11.4027 86.7241 11.5734C86.6451 11.9852 86.6013 12.3814 86.8147 12.7321C87.4616 12.6938 87.9886 12.1367 88.1546 11.5201C88.319 10.8943 88.1823 10.2269 87.936 9.63564L87.9252 9.62807Z" fill="black"/>
<path d="M71.6419 13.7687C72.4072 12.9516 73.5579 11.8488 75.1183 10.759C76.6192 9.70805 77.9936 8.74574 79.9754 8.27314C81.1201 7.99552 84.8573 7.1092 87.1029 9.42252C87.2532 9.57603 88.4895 10.8927 88.5643 12.8215C88.6289 14.6384 87.6209 15.9055 86.6641 17.0878C85.9653 17.9595 84.7767 19.4384 82.7002 20.1267C79.4619 21.2092 76.393 19.5999 76.0153 19.3918C73.5857 18.0772 72.9038 17.648 72.9038 17.648C72.4147 17.3458 71.6139 16.8334 70.5136 16.7716C70.1315 16.7537 69.8159 16.7905 69.6138 16.8261C69.4165 16.8893 69.1155 17.0087 68.8015 17.2156C67.8621 17.7981 67.4145 18.6443 67.1324 19.1393C67.1324 19.1393 66.7448 19.8423 65.2513 22.1708C65.0215 22.5334 63.107 25.4288 59.7584 26.0476C57.6026 26.4467 55.8566 25.7315 54.8142 25.2995C53.4054 24.7238 51.9133 24.1059 51.0867 22.4802C50.2147 20.7583 50.6646 19.0117 50.7208 18.7933C51.5643 15.6795 55.268 14.657 56.4061 14.3426C58.3658 13.7982 60.0362 13.9773 61.8601 14.1672C63.7424 14.3658 65.2831 14.7762 66.3569 15.1174L71.6662 13.7454L71.6419 13.7687Z" fill="#0C3D9C"/>
<path d="M51.2549 20.9066C51.3194 19.2848 52.054 17.8101 53.2285 16.7883C54.3544 15.813 55.7487 15.1787 57.1971 14.9044C58.0683 14.7413 58.9622 14.7068 59.842 14.6464C60.8445 14.5833 61.861 14.5462 62.87 14.6809C63.432 14.7523 63.9838 14.8729 64.5415 14.9735C65.0208 15.0595 65.485 15.1671 65.9573 15.3206C66.0973 15.3623 66.2389 15.4131 66.3864 15.4439C66.4464 15.4618 66.514 15.4688 66.5739 15.4866C66.6123 15.4893 66.6507 15.4921 66.6891 15.4948C66.7166 15.4899 66.7458 15.4942 66.775 15.4986C66.8518 15.1819 67.0474 14.9484 67.369 14.8917C67.369 14.8917 67.3674 14.8826 67.3658 14.8734L66.3421 15.1391C65.2776 14.7963 63.7369 14.3859 61.8454 14.189C60.0215 13.999 58.3511 13.8199 56.3914 14.3644C55.2624 14.6771 51.5512 15.7105 50.7061 18.8151C50.6482 19.0242 50.2 20.78 51.072 22.5019C51.347 23.0408 51.6977 23.4715 52.0921 23.8283C51.5334 22.97 51.2109 21.9469 51.2549 20.9066Z" fill="#0C3D9C"/>
<path d="M87.1047 9.43165C84.859 7.11832 81.1235 8.01383 79.9772 8.28227C77.9954 8.75486 76.6302 9.71555 75.1201 10.7681C73.5689 11.8563 72.4182 12.9591 71.6436 13.7778L68.8068 14.5053C68.8986 15.1333 68.9629 15.7662 69.0179 16.4006C69.0384 16.6244 69.0589 16.8481 69.0686 17.0643C69.2778 16.9611 69.455 16.8919 69.5972 16.8385C69.8085 16.8012 70.1241 16.7645 70.497 16.784C71.5973 16.8458 72.4073 17.3566 72.8872 17.6604C72.8872 17.6604 73.5691 18.0895 75.9987 19.4042C76.3764 19.6123 79.4544 21.22 82.6836 20.139C84.76 19.4508 85.9486 17.9718 86.6475 17.1002C87.595 15.9195 88.6123 14.6507 88.5477 12.8338C88.4729 10.905 87.2365 9.58839 87.0863 9.43489L87.1047 9.43165Z" fill="#0C3D9C"/>
<path d="M64.934 18.8163C65.6416 21.325 61.8263 24.5081 59.6764 24.8872C57.5266 25.2663 51.7109 22.692 52.0749 20.1364C52.439 17.5808 56.6528 16.6577 58.4389 16.5796C60.225 16.5015 64.2356 16.3059 64.9432 18.8146L64.934 18.8163Z" fill="#43C6EC"/>
<path d="M59.5702 24.6031C58.1165 24.1489 56.8142 23.3176 55.7437 22.1895C55.1737 21.5891 54.5923 20.9243 54.2492 20.1606C53.9251 19.4504 53.7938 18.7062 53.7529 17.9367C52.8822 18.4786 52.2217 19.1919 52.0864 20.1441C51.7224 22.6997 57.5381 25.274 59.6879 24.8949C59.8257 24.8706 59.9711 24.8355 60.1241 24.7896C59.9425 24.7269 59.7609 24.6642 59.581 24.6106L59.5702 24.6031Z" fill="#43C6EC"/>
<path opacity="0.27" d="M62.8313 18.0124C61.1253 17.4701 59.3322 17.1326 57.5639 17.3118C56.3625 17.4289 55.166 17.7346 54.1072 18.3381C53.6235 18.6034 53.1603 18.9314 52.742 19.2988C53.1106 18.8643 53.5473 18.4937 54.0229 18.1825C55.1585 17.4233 56.5155 17.0609 57.8736 16.973C58.66 16.9196 59.469 16.9948 60.245 17.1516C61.1302 17.3366 62.0116 17.6075 62.8313 18.0124Z" fill="white"/>
<path opacity="0.33" d="M54.1743 21.9927C55.0416 22.8818 56.0483 23.5948 57.1901 23.9997C58.332 24.4046 59.5436 24.3994 60.6975 24.1201C60.1603 24.4043 59.5528 24.5588 58.9351 24.6014C57.0803 24.7201 55.1912 23.6227 54.1743 21.9927Z" fill="white"/>
<path d="M87.6267 11.5374C86.7855 10.1511 85.427 9.21595 83.9009 8.88825C82.4439 8.57676 80.9221 8.70301 79.5245 9.15786C78.6819 9.42957 77.8836 9.84505 77.0865 10.213C76.1763 10.6387 75.2727 11.1012 74.4501 11.7009C73.9977 12.0365 73.561 12.4071 73.1318 12.767C72.7605 13.0788 72.4 13.3981 72.0643 13.751C71.9611 13.8639 71.8563 13.9677 71.7514 14.0714C71.7028 14.1179 71.6525 14.1552 71.6038 14.2016C71.5703 14.2265 71.5368 14.2513 71.5017 14.267C71.4758 14.2811 71.4498 14.2951 71.4331 14.3075C71.2115 14.0719 70.9267 13.961 70.6225 14.0621C70.6225 14.0621 70.6208 14.0529 70.6192 14.0437L71.6428 13.7779C72.4082 12.9609 73.5589 11.8581 75.1192 10.7683C76.6201 9.71734 77.9946 8.75503 79.9764 8.28243C81.121 8.00481 84.8582 7.11849 87.1039 9.43182C87.2541 9.58532 88.4904 10.902 88.5653 12.8307C88.5863 13.4333 88.4932 13.9802 88.317 14.485C88.3917 13.4582 88.1795 12.4156 87.6343 11.5266L87.6267 11.5374Z" fill="#0C3D9C"/>
<path d="M74.651 16.3264C75.25 18.8638 80.1239 19.8043 82.1863 19.0901C84.2503 18.3851 88.0923 13.3122 86.5453 11.2545C84.9892 9.19855 80.858 10.4291 79.255 11.2233C77.652 12.0175 74.052 13.789 74.651 16.3264Z" fill="#43C6EC"/>
<path d="M82.143 18.7944C83.1894 17.691 83.9252 16.3298 84.3237 14.8291C84.534 14.0341 84.713 13.1689 84.6499 12.3275C84.5889 11.552 84.3399 10.838 84.0081 10.1387C85.0301 10.1858 85.9563 10.4962 86.5264 11.2577C88.0825 13.3137 84.2405 18.3867 82.1673 19.0933C82.0327 19.1359 81.889 19.1802 81.7328 19.2078C81.8587 19.0624 81.9955 18.9246 82.123 18.7885L82.143 18.7944Z" fill="#43C6EC"/>
<path opacity="0.27" d="M76.0996 14.6025C77.3298 13.3056 78.7346 12.139 80.3646 11.4443C81.4736 10.9645 82.6701 10.6588 83.8834 10.6628C84.4417 10.6591 84.9929 10.7229 85.543 10.8343C85.0059 10.6354 84.4449 10.5164 83.8786 10.4742C82.514 10.3643 81.1521 10.6992 79.929 11.2843C79.2113 11.6192 78.5422 12.0688 77.9428 12.5913C77.2504 13.1775 76.6186 13.8384 76.098 14.5933L76.0996 14.6025Z" fill="white"/>
<path opacity="0.33" d="M85.599 13.8936C85.2697 15.0885 84.7281 16.2071 83.9313 17.1149C83.1346 18.0227 82.0726 18.6078 80.9144 18.9162C81.5278 18.9028 82.1261 18.7499 82.6849 18.4809C84.3647 17.6921 85.4836 15.8181 85.5898 13.8952L85.599 13.8936Z" fill="white"/>
<path d="M70.1556 17.3235C71.9665 16.8562 73.2384 15.717 72.9964 14.779C72.7543 13.8411 71.09 13.4597 69.2791 13.927C67.4681 14.3943 66.1962 15.5335 66.4383 16.4714C66.6803 17.4094 68.3446 17.7908 70.1556 17.3235Z" fill="#333333"/>
<path opacity="0.2" d="M66.5814 16.0155C66.5814 16.0155 66.6057 15.9922 66.6133 15.9814C66.6857 15.855 66.7981 15.7404 66.9279 15.6702C67.2208 15.3438 67.4705 14.9872 67.8581 14.7673C68.4164 14.4415 69.1346 14.3243 69.7529 14.1774C70.2901 14.0543 70.8629 13.9722 71.4158 14.0452C71.987 14.115 72.4858 14.3113 72.9521 14.6458C72.5961 13.8087 71.004 13.4831 69.2827 13.9287C67.5614 14.3743 66.4004 15.3653 66.4149 16.2532C66.4463 16.1625 66.5068 16.076 66.5814 16.0155Z" fill="white"/>
<path opacity="0.2" d="M72.3865 16.1101C72.3865 16.1101 72.3097 16.1046 72.2713 16.1019C72.2713 16.1019 72.2713 16.1019 72.2622 16.1036C72.207 16.1133 72.1519 16.123 72.0984 16.1419C72.08 16.1451 71.993 16.1889 71.9563 16.1954C71.9471 16.197 71.9287 16.2002 71.9211 16.2111C71.8249 16.2564 71.7303 16.311 71.6358 16.3656C71.2056 16.612 70.7986 16.8826 70.3214 17.0236C69.4312 17.2943 68.5271 17.2169 67.6111 17.1794C67.5273 17.2416 67.4403 17.2853 67.3517 17.3199C68.052 17.5848 69.0783 17.6028 70.157 17.3273C71.1271 17.0805 71.9389 16.6342 72.4464 16.1279C72.4264 16.122 72.3956 16.1084 72.3756 16.1025L72.3865 16.1101Z" fill="white"/>
</svg>
