<svg width="50" height="50" viewBox="0 0 50 50" fill="none" xmlns="http://www.w3.org/2000/svg">
<path d="M5.16577 44.1946C7.37653 41.2142 9.55835 38.2105 11.6997 35.178C12.2726 35.6699 12.8861 36.1213 13.4879 36.5843C13.8873 36.8968 14.2866 37.2035 14.6743 37.5334L14.7033 37.5566C13.2738 39.2696 11.8733 41.0058 10.438 42.7189C9.55256 43.8474 8.62659 44.9528 7.79322 46.1218C7.82215 46.145 7.87424 46.197 7.90318 46.226C7.4344 45.8961 6.98878 45.5315 6.52 45.2016C6.07438 44.8602 5.62297 44.5245 5.17156 44.1946" fill="#232324"/>
<path d="M35.6421 2.66496C35.4222 2.78649 35.2717 2.98905 35.1213 3.18582C34.5368 3.99604 33.8654 4.73682 33.2867 5.55283C33.2057 5.67437 33.1189 5.80169 33.0726 5.94637C32.9684 6.36885 33.4372 6.86656 33.8654 6.67557C34.2532 6.44408 34.4731 6.02739 34.7509 5.68594C35.266 4.9741 35.8621 4.33171 36.3713 3.61987C36.7302 3.18003 36.163 2.44504 35.6421 2.67075" fill="#FCC022"/>
<path d="M31.9496 7.49741C31.695 7.60159 31.5387 7.83887 31.3709 8.04721C31.1452 8.35973 30.879 8.66067 30.7343 9.02527C30.5318 9.52876 31.261 10.038 31.6661 9.67923C32.0654 9.34936 32.349 8.90373 32.6383 8.48705C32.9798 8.053 32.4763 7.3238 31.9496 7.49741Z" fill="#FCC022"/>
<path d="M29.5889 10.5937C29.4616 10.6632 29.369 10.7731 29.2764 10.8889C28.7266 11.6007 28.2057 12.3415 27.6328 13.036C27.4765 13.2501 27.2797 13.47 27.2855 13.7478C27.3665 14.0314 27.6096 14.3092 27.9221 14.3381C28.2346 14.3208 28.4314 14.0372 28.6166 13.8173C29.1201 13.1286 29.6641 12.4746 30.1792 11.7975C30.3297 11.5949 30.4975 11.3519 30.428 11.0857C30.3644 10.7268 29.9419 10.3912 29.5889 10.5995" fill="#FCC022"/>
<path d="M41.8001 3.35366C41.3949 2.54922 40.5963 2.08045 39.9018 1.55959C39.4041 1.20656 38.9295 0.813022 38.4145 0.488932C37.5985 -0.0261394 36.5162 0.0259467 35.6829 0.47157C35.0057 0.836172 34.6238 1.53644 34.155 2.12096C33.1943 3.34787 32.2973 4.62687 31.3192 5.84799C29.0622 8.93263 26.7414 11.9768 24.5943 15.1366C21.0062 20.2121 17.7595 25.5133 14.4955 30.7971C13.5637 32.2613 12.6956 33.766 11.7002 35.1897C12.2731 35.6816 12.8866 36.133 13.4885 36.596C13.8878 36.9085 14.2871 37.2153 14.6749 37.5452C18.2225 33.6676 21.8743 29.8885 25.3872 25.9821C27.8815 23.2678 30.2486 20.432 32.6098 17.602C35.6481 13.8924 38.5649 10.0843 41.5049 6.2994C42.1415 5.4776 42.2978 4.28541 41.7943 3.35366H41.8001Z" fill="#B6B6B6"/>
<path d="M8.8119 47.5862C8.7656 47.0075 8.37206 46.5271 7.89171 46.232C7.42294 45.9021 6.97732 45.5375 6.50854 45.2076C6.06292 44.8662 5.61151 44.5305 5.1601 44.2006C4.77813 43.8765 4.34409 43.5177 3.81165 43.5235C2.90883 43.5235 2.13912 44.3511 2.11597 45.2366C2.13912 45.7227 2.44584 46.1394 2.83359 46.4114C3.36024 46.7991 3.8811 47.1927 4.39617 47.592C5.04435 48.0897 5.70411 48.5643 6.35807 49.0504C6.57799 49.2067 6.82106 49.3571 7.09885 49.3745C8.03061 49.415 8.92764 48.5353 8.80611 47.5862H8.8119Z" fill="#B6B6B6"/>
<path d="M35.6421 2.66489C36.163 2.43919 36.7302 3.16839 36.3713 3.61401C35.8621 4.32585 35.266 4.96825 34.7509 5.68009C34.4731 6.02154 34.2532 6.43823 33.8654 6.66972C33.4372 6.86649 32.9684 6.36299 33.0726 5.94052C33.1189 5.79583 33.2057 5.6743 33.2867 5.54698C33.8654 4.73675 34.5368 3.99019 35.1213 3.17996C35.2717 2.98898 35.4222 2.78064 35.6421 2.65911" fill="#E4E4E4"/>
<path d="M31.9496 7.49741C32.4763 7.3238 32.9798 8.053 32.6383 8.48705C32.349 8.90952 32.0654 9.34936 31.6661 9.67923C31.261 10.038 30.5318 9.52298 30.7343 9.02527C30.8848 8.66067 31.1452 8.36551 31.3709 8.04721C31.5387 7.83887 31.695 7.60159 31.9496 7.49741Z" fill="#E4E4E4"/>
<path d="M29.589 10.5939C29.9362 10.3914 30.3645 10.7271 30.4282 11.0801C30.4976 11.3463 30.3298 11.5894 30.1793 11.7919C29.6642 12.469 29.1144 13.123 28.6167 13.8117C28.4315 14.0316 28.2348 14.3152 27.9223 14.3326C27.6097 14.3094 27.3667 14.0316 27.2856 13.7422C27.2856 13.4645 27.4766 13.2387 27.6329 13.0304C28.2116 12.3359 28.7325 11.6009 29.2765 10.8833C29.3691 10.7733 29.4617 10.6576 29.589 10.5882V10.5939Z" fill="#E4E4E4"/>
<path d="M45.9999 35.4824C45.9999 35.7133 45.9949 35.9391 45.9798 36.1649C45.9196 37.1735 45.7239 38.142 45.4128 39.0603C45.1217 39.9184 44.7303 40.7314 44.2486 41.4791C43.9826 41.8956 43.6866 42.297 43.3704 42.6734C43.1145 42.9795 42.8385 43.2705 42.5525 43.5415C42.3216 43.7623 42.0858 43.968 41.8349 44.1687C41.7897 44.2039 41.7496 44.239 41.7044 44.2741C40.5804 45.1473 39.2907 45.8147 37.8857 46.2111C37.6448 46.2814 37.3989 46.3366 37.153 46.3918C36.9121 46.4419 36.6663 46.4871 36.4204 46.5172C36.1795 46.5523 35.9437 46.5774 35.6978 46.5925C35.5723 46.6025 35.4519 46.6075 35.3264 46.6125C35.1709 46.6176 35.0153 46.6226 34.8598 46.6226C34.7042 46.6226 34.5486 46.6226 34.3931 46.6125C32.5916 46.5373 30.9005 46.0355 29.4151 45.2025C28.8732 44.9014 28.3613 44.5501 27.8846 44.1687C27.7291 44.0433 27.5785 43.9178 27.433 43.7874C27.3427 43.7071 27.2574 43.6268 27.167 43.5415C26.9212 43.3056 26.6853 43.0597 26.4645 42.8038C25.7871 42.031 25.215 41.1629 24.7734 40.2195C24.3067 39.231 23.9856 38.1671 23.825 37.0481C23.7849 36.757 23.7547 36.461 23.7347 36.1599C23.7196 35.9341 23.7146 35.7083 23.7146 35.4774C23.7146 35.3921 23.7146 35.3068 23.7146 35.2215C23.7196 34.9104 23.7397 34.6043 23.7748 34.2982C23.815 33.9168 23.8752 33.5455 23.9504 33.1791C24.3017 31.5182 25.0193 29.9877 26.0179 28.688C26.1584 28.5023 26.3039 28.3267 26.4595 28.151C26.6452 27.9403 26.8358 27.7345 27.0366 27.5388C27.0817 27.4987 27.1219 27.4535 27.167 27.4134C27.2523 27.3331 27.3427 27.2478 27.428 27.1725C27.5735 27.042 27.7291 26.9116 27.8796 26.7861C28.8732 25.9832 30.0123 25.3509 31.2467 24.9294C32.2403 24.5882 33.2941 24.3875 34.3931 24.3423C34.5486 24.3373 34.7042 24.3323 34.8598 24.3323C34.8748 24.3323 34.8899 24.3323 34.9049 24.3323C35.0454 24.3323 35.1859 24.3323 35.3264 24.3423C36.2899 24.3825 37.2233 24.543 38.1065 24.814C38.4477 24.9194 38.7839 25.0398 39.1101 25.1753C40.0986 25.5818 41.0169 26.1287 41.8349 26.7911C41.9102 26.8514 41.9854 26.9166 42.0607 26.9768C42.2263 27.1173 42.3919 27.2628 42.5475 27.4184C42.6578 27.5238 42.7682 27.6342 42.8736 27.7446C43.0744 27.9553 43.2701 28.1711 43.4557 28.3969C44.1231 29.2048 44.6801 30.1081 45.0966 31.0866C45.2823 31.5131 45.4379 31.9598 45.5683 32.4114C45.8243 33.3096 45.9748 34.253 45.9949 35.2315C45.9949 35.3169 45.9949 35.4022 45.9949 35.4875L45.9999 35.4824Z" fill="#F2F2F2"/>
<path d="M31.2319 34.3635C31.1918 33.9972 31.1366 33.6359 31.0663 33.2796C31.0312 33.119 30.9961 32.9534 30.9559 32.7929C30.7301 31.9047 30.3939 31.0566 29.9523 30.2487C29.9071 30.1684 29.862 30.0931 29.8218 30.0179C29.7817 29.9526 29.7415 29.8824 29.7014 29.8171C29.0892 28.8185 28.3264 27.9303 27.4282 27.1726C27.3379 27.2529 27.2526 27.3332 27.1673 27.4135C27.1221 27.4536 27.082 27.4988 27.0368 27.5389C26.8361 27.7346 26.6454 27.9404 26.4597 28.1511C27.2777 28.8236 27.9702 29.6114 28.5171 30.4996C28.5623 30.5698 28.6024 30.6401 28.6476 30.7104C28.6877 30.7806 28.7279 30.8559 28.768 30.9261C29.1494 31.6236 29.4405 32.3663 29.6362 33.1341C29.6763 33.2947 29.7114 33.4552 29.7466 33.6208C29.8018 33.9069 29.8469 34.2029 29.877 34.494C29.9322 35.0058 29.9423 35.5127 29.9122 36.0094C29.9021 36.175 29.8871 36.3406 29.872 36.5062C29.7817 37.3091 29.596 38.0919 29.315 38.8296C29.2548 38.9852 29.1896 39.1407 29.1243 39.2963C28.7981 40.039 28.3766 40.7315 27.8748 41.3637C27.7694 41.4942 27.6641 41.6247 27.5486 41.7501C27.2174 42.1265 26.8511 42.4828 26.4597 42.8039C26.6855 43.0598 26.9164 43.3057 27.1622 43.5416C27.2476 43.6269 27.3379 43.7072 27.4282 43.7875C27.9049 43.386 28.3515 42.9394 28.758 42.4527C28.7931 42.4125 28.8283 42.3674 28.8634 42.3222C28.9336 42.2369 29.0039 42.1466 29.0691 42.0562C29.6362 41.3136 30.0978 40.5107 30.4541 39.6576C30.5193 39.502 30.5796 39.3465 30.6348 39.1909C30.7 39.0153 30.7602 38.8346 30.8154 38.649C31.0312 37.9464 31.1717 37.2339 31.2419 36.5113C31.257 36.3457 31.267 36.1801 31.2771 36.0145C31.3022 35.4675 31.2871 34.9155 31.2319 34.3585V34.3635Z" fill="#CE625F"/>
<g opacity="0.2">
<path d="M29.9474 30.2487L28.7631 30.9312C28.723 30.8559 28.6828 30.7856 28.6427 30.7154C28.6025 30.6451 28.5574 30.5749 28.5122 30.5046L29.6965 29.8171C29.7366 29.8824 29.7768 29.9476 29.8169 30.0179C29.8571 30.0881 29.9022 30.1634 29.9474 30.2487Z" fill="#686868"/>
<path d="M31.0616 33.2792L29.7369 33.6255C29.7068 33.4599 29.6666 33.2993 29.6265 33.1387L30.9512 32.7925C30.9914 32.9531 31.0315 33.1136 31.0616 33.2792Z" fill="#686868"/>
<path d="M31.2774 36.0193C31.2674 36.1849 31.2573 36.3505 31.2423 36.5161H29.8623C29.8824 36.3505 29.8924 36.1849 29.9025 36.0193H31.2724H31.2774Z" fill="#686868"/>
<path d="M30.6347 39.1956C30.5795 39.3512 30.5193 39.5068 30.4541 39.6623L29.1143 39.306C29.1795 39.1505 29.2447 38.9999 29.3049 38.8394L30.6347 39.1956Z" fill="#686868"/>
<path d="M29.0695 42.0613C28.9993 42.1516 28.9341 42.2369 28.8638 42.3272C28.8287 42.3724 28.7936 42.4125 28.7584 42.4577L27.5491 41.7602C27.6595 41.6347 27.7699 41.5042 27.8752 41.3738L29.0746 42.0663L29.0695 42.0613Z" fill="#686868"/>
</g>
<path d="M29.5074 28.3764L27.2911 29.656C26.9695 29.8417 26.8593 30.2529 27.045 30.5745L27.0475 30.5789C27.2331 30.9005 27.6444 31.0107 27.966 30.825L30.1824 29.5454C30.504 29.3597 30.6142 28.9485 30.4285 28.6268L30.426 28.6225C30.2403 28.3009 29.829 28.1907 29.5074 28.3764Z" fill="#E56C65"/>
<path d="M31.3604 31.3009L28.5645 32.0338C28.2937 32.1048 28.1318 32.3818 28.2027 32.6526L28.288 32.9778C28.359 33.2486 28.636 33.4105 28.9068 33.3396L31.7027 32.6066C31.9735 32.5356 32.1354 32.2586 32.0645 31.9878L31.9792 31.6626C31.9082 31.3918 31.6312 31.2299 31.3604 31.3009Z" fill="#E56C65"/>
<path d="M31.8791 34.6797H29.3199C28.9485 34.6797 28.6475 34.9807 28.6475 35.3521V35.3571C28.6475 35.7285 28.9485 36.0296 29.3199 36.0296H31.8791C32.2505 36.0296 32.5515 35.7285 32.5515 35.3571V35.3521C32.5515 34.9807 32.2505 34.6797 31.8791 34.6797Z" fill="#E56C65"/>
<path d="M30.1808 41.1532L27.9644 39.8736C27.6428 39.6879 27.2316 39.7981 27.0459 40.1197L27.0434 40.124C26.8577 40.4456 26.9679 40.8569 27.2895 41.0426L29.5058 42.3222C29.8274 42.5079 30.2387 42.3977 30.4244 42.0761L30.4269 42.0717C30.6126 41.7501 30.5024 41.3389 30.1808 41.1532Z" fill="#E56C65"/>
<path d="M28.2814 37.7187L28.1962 38.0439C28.1252 38.3147 28.2871 38.5917 28.5579 38.6627L31.3538 39.3957C31.6246 39.4667 31.9016 39.3047 31.9726 39.034L32.0579 38.7087C32.1288 38.438 31.9669 38.1609 31.6961 38.0899L28.9002 37.357C28.6294 37.286 28.3524 37.4479 28.2814 37.7187Z" fill="#E56C65"/>
<path d="M38.4329 36.0193C38.443 36.1849 38.453 36.3505 38.4681 36.5161C38.5383 37.2387 38.6788 37.9513 38.8946 38.6538C38.9498 38.8345 39.01 39.0151 39.0752 39.1958C39.1304 39.3513 39.1907 39.5069 39.2559 39.6625C39.6122 40.5155 40.0738 41.3235 40.6409 42.0611C40.7111 42.1514 40.7764 42.2367 40.8466 42.3271C40.8818 42.3722 40.9169 42.4124 40.952 42.4575C41.3585 42.9443 41.8051 43.3909 42.2818 43.7924C42.3721 43.7121 42.4574 43.6318 42.5478 43.5465C42.7936 43.3106 43.0295 43.0647 43.2503 42.8088C42.8589 42.4877 42.4976 42.1364 42.1614 41.755C42.051 41.6296 41.9406 41.4991 41.8352 41.3686C41.3334 40.7363 40.9169 40.0438 40.5857 39.3012C40.5205 39.1456 40.4552 38.9951 40.395 38.8345C40.114 38.0968 39.9233 37.319 39.838 36.5111C39.8179 36.3455 39.8079 36.1799 39.7978 36.0143C39.7677 35.5175 39.7828 35.0107 39.833 34.4989C39.8631 34.2028 39.9082 33.9118 39.9634 33.6257C39.9936 33.4601 40.0337 33.2995 40.0738 33.139C40.2695 32.3712 40.5606 31.6285 40.942 30.931C40.9821 30.8557 41.0223 30.7855 41.0624 30.7152C41.1025 30.645 41.1477 30.5747 41.1929 30.5045C41.7398 29.6163 42.4323 28.8284 43.2503 28.156C43.0646 27.9453 42.8739 27.7395 42.6732 27.5438C42.628 27.5037 42.5879 27.4585 42.5427 27.4184C42.4574 27.3381 42.3671 27.2528 42.2818 27.1775C41.3836 27.9352 40.6158 28.8234 40.0086 29.822C39.9685 29.8873 39.9283 29.9525 39.8882 30.0227C39.848 30.093 39.8029 30.1683 39.7577 30.2536C39.3111 31.0615 38.9749 31.9146 38.7541 32.7977C38.7139 32.9583 38.6738 33.1189 38.6437 33.2845C38.5684 33.6408 38.5132 34.0021 38.4781 34.3684C38.4229 34.9254 38.4028 35.4774 38.4329 36.0244V36.0193Z" fill="#CE625F"/>
<g opacity="0.2">
<path d="M39.7632 30.2484L40.9475 30.9309C40.9876 30.8556 41.0277 30.7854 41.0679 30.7151C41.108 30.6449 41.1532 30.5746 41.1984 30.5044L40.0141 29.8169C39.9739 29.8821 39.9338 29.9474 39.8937 30.0176C39.8535 30.0879 39.8083 30.1631 39.7632 30.2484Z" fill="#686868"/>
<path d="M38.644 33.2792L39.9688 33.6255C39.9989 33.4599 40.0391 33.2993 40.0792 33.1387L38.7544 32.7925C38.7143 32.9531 38.6742 33.1136 38.644 33.2792Z" fill="#686868"/>
<path d="M38.4333 36.0193C38.4434 36.1849 38.4534 36.3505 38.4685 36.5161H39.8484C39.8284 36.3505 39.8183 36.1849 39.8083 36.0193H38.4384H38.4333Z" fill="#686868"/>
<path d="M39.0754 39.1954C39.1306 39.351 39.1909 39.5065 39.2561 39.6621L40.5959 39.3058C40.5307 39.1502 40.4654 38.9997 40.4052 38.8391L39.0754 39.1954Z" fill="#686868"/>
<path d="M40.6412 42.0608C40.7115 42.1511 40.7767 42.2364 40.847 42.3267C40.8821 42.3719 40.9172 42.412 40.9524 42.4572L42.1617 41.7597C42.0513 41.6342 41.9409 41.5038 41.8356 41.3733L40.6362 42.0658L40.6412 42.0608Z" fill="#686868"/>
</g>
<path d="M39.5243 29.5487L41.7407 30.8283C42.0623 31.014 42.4735 30.9038 42.6592 30.5822L42.6617 30.5779C42.8474 30.2563 42.7372 29.845 42.4156 29.6593L40.1992 28.3797C39.8776 28.194 39.4664 28.3042 39.2807 28.6258L39.2782 28.6302C39.0925 28.9518 39.2027 29.363 39.5243 29.5487Z" fill="#E56C65"/>
<path d="M37.736 31.6589L37.6507 31.9841C37.5798 32.2549 37.7417 32.5319 38.0125 32.6029L40.8084 33.3359C41.0792 33.4069 41.3562 33.2449 41.4272 32.9741L41.5125 32.6489C41.5834 32.3782 41.4215 32.1011 41.1507 32.0301L38.3548 31.2972C38.084 31.2262 37.807 31.3881 37.736 31.6589Z" fill="#E56C65"/>
<path d="M37.8311 36.0239H40.3903C40.7617 36.0239 41.0627 35.7229 41.0627 35.3515V35.3465C41.0627 34.9751 40.7617 34.6741 40.3903 34.6741H37.8311C37.4597 34.6741 37.1587 34.9751 37.1587 35.3465V35.3515C37.1587 35.7229 37.4597 36.0239 37.8311 36.0239Z" fill="#E56C65"/>
<path d="M40.2018 42.3187L42.4182 41.0391C42.7398 40.8534 42.85 40.4422 42.6643 40.1205L42.6618 40.1162C42.4761 39.7946 42.0648 39.6844 41.7432 39.8701L39.5269 41.1497C39.2053 41.3354 39.0951 41.7466 39.2807 42.0682L39.2833 42.0726C39.4689 42.3942 39.8802 42.5044 40.2018 42.3187Z" fill="#E56C65"/>
<path d="M40.8091 37.3624L38.0132 38.0954C37.7424 38.1663 37.5805 38.4434 37.6515 38.7141L37.7367 39.0394C37.8077 39.3101 38.0848 39.4721 38.3555 39.4011L41.1514 38.6681C41.4222 38.5971 41.5842 38.3201 41.5132 38.0493L41.4279 37.7241C41.3569 37.4533 41.0799 37.2914 40.8091 37.3624Z" fill="#E56C65"/>
<path opacity="0.2" d="M45.9947 35.4824C45.9947 35.7132 45.9897 35.939 45.9746 36.1649C45.799 39.0653 44.5143 41.6596 42.5422 43.5464C42.3114 43.7672 42.0756 43.973 41.8247 44.1737C40.0282 45.6189 37.7751 46.5171 35.3162 46.6175C35.1606 46.6225 35.0051 46.6275 34.8495 46.6275C34.694 46.6275 34.5334 46.6275 34.3828 46.6175C31.924 46.5171 29.6709 45.6189 27.8744 44.1737C27.6285 43.973 27.3876 43.7672 27.1568 43.5464C26.1682 42.603 25.3503 41.479 24.7632 40.2245C25.0442 40.5657 25.3503 40.8919 25.6715 41.198C25.9023 41.4188 26.1381 41.6245 26.389 41.8252C28.1855 43.2705 30.4386 44.1687 32.8975 44.269C33.0531 44.2741 33.2086 44.2791 33.3642 44.2791C33.5197 44.2791 33.6803 44.2791 33.8309 44.269C36.2897 44.1687 38.5428 43.2705 40.3393 41.8252C40.5852 41.6245 40.8261 41.4188 41.0569 41.198C43.029 39.3162 44.3136 36.7168 44.4893 33.8164C44.5043 33.5906 44.5093 33.3648 44.5093 33.1339C44.5093 33.0486 44.5093 32.9633 44.5093 32.878C44.4742 31.2772 44.0978 29.7568 43.4555 28.3918C44.9961 30.2586 45.9395 32.6321 45.9997 35.2265C45.9997 35.3118 45.9997 35.3971 45.9997 35.4824H45.9947Z" fill="#9B9B9B"/>
</svg>
