<svg width="50" height="50" viewBox="0 0 50 50" fill="none" xmlns="http://www.w3.org/2000/svg">
<rect width="50" height="50" rx="25" fill="white"/>
<path d="M28.9231 7H21.442V10.2995H28.9231V7Z" fill="#FF9528"/>
<path d="M27.4396 40.9401C35.1276 39.6922 40.3484 32.4481 39.1004 24.7601C37.8525 17.0721 30.6084 11.8513 22.9204 13.0993C15.2324 14.3472 10.0117 21.5913 11.2596 29.2793C12.5075 36.9673 19.7516 42.188 27.4396 40.9401Z" fill="#3A5480"/>
<path d="M25.1806 12.9155C25.6949 12.9155 26.2016 12.9456 26.7009 12.9981V10.303H23.6604V12.9981C24.1596 12.9456 24.6664 12.9155 25.1806 12.9155Z" fill="#FFCA93"/>
<path d="M35.8525 13.2659L33.4915 15.6269C34.6701 16.4903 35.7136 17.5301 36.577 18.7125L38.9381 16.3514L35.8525 13.2659Z" fill="#FF9528"/>
<path d="M25.1807 15.9724C19.0884 15.9724 14.1335 20.9273 14.1335 27.0195C14.1335 33.1118 19.0884 38.0666 25.1807 38.0666C31.2729 38.0666 36.2278 33.1118 36.2278 27.0195C36.2278 20.9273 31.2729 15.9724 25.1807 15.9724Z" fill="white"/>
<path d="M25.1807 19.0974C24.8429 19.0974 24.5688 18.8234 24.5688 18.4856V17.2769C24.5688 16.9391 24.8429 16.665 25.1807 16.665C25.5185 16.665 25.7926 16.9391 25.7926 17.2769V18.4856C25.7926 18.8234 25.5185 19.0974 25.1807 19.0974Z" fill="#3A5480"/>
<path d="M25.1807 37.3672C24.8429 37.3672 24.5688 37.0932 24.5688 36.7554V35.5467C24.5688 35.2088 24.8429 34.9348 25.1807 34.9348C25.5185 34.9348 25.7926 35.2088 25.7926 35.5467V36.7554C25.7926 37.0932 25.5185 37.3672 25.1807 37.3672Z" fill="#3A5480"/>
<path d="M34.9178 27.6268H33.7091C33.3713 27.6268 33.0973 27.3528 33.0973 27.0149C33.0973 26.6771 33.3713 26.4031 33.7091 26.4031H34.9178C35.2557 26.4031 35.5297 26.6771 35.5297 27.0149C35.5297 27.3528 35.2557 27.6268 34.9178 27.6268Z" fill="#3A5480"/>
<path d="M16.6524 27.6268H15.4438C15.1059 27.6268 14.8319 27.3528 14.8319 27.0149C14.8319 26.6771 15.1059 26.4031 15.4438 26.4031H16.6524C16.9903 26.4031 17.2643 26.6771 17.2643 27.0149C17.2643 27.3528 16.9903 27.6268 16.6524 27.6268Z" fill="#3A5480"/>
<path d="M30.7813 21.4174C30.541 21.1772 30.541 20.7943 30.7813 20.5541L31.6371 19.6982C31.8773 19.458 32.2602 19.458 32.5004 19.6982C32.7407 19.9385 32.7407 20.3214 32.5004 20.5616L31.6446 21.4174C31.4044 21.6577 31.0215 21.6577 30.7813 21.4174Z" fill="#3A5480"/>
<path d="M17.8649 34.3344C17.6246 34.0979 17.6246 33.7113 17.8649 33.4711L18.7207 32.6152C18.9609 32.375 19.3438 32.375 19.5841 32.6152C19.8243 32.8517 19.8243 33.2383 19.5841 33.4786L18.7282 34.3344C18.4917 34.5709 18.1051 34.5747 17.8649 34.3344Z" fill="#3A5480"/>
<path d="M31.6371 34.3344L30.7813 33.4786C30.541 33.2383 30.541 32.8555 30.7813 32.6152C31.0215 32.375 31.4044 32.375 31.6446 32.6152L32.5004 33.4711C32.7407 33.7113 32.7407 34.0942 32.5004 34.3344C32.2602 34.5747 31.8773 34.5747 31.6371 34.3344Z" fill="#3A5480"/>
<path d="M18.717 21.4174L17.8612 20.5616C17.621 20.3214 17.621 19.9385 17.8612 19.6982C18.1014 19.458 18.4843 19.458 18.7246 19.6982L19.5804 20.5541C19.8206 20.7943 19.8206 21.1772 19.5804 21.4174C19.3402 21.6577 18.9573 21.6577 18.717 21.4174Z" fill="#3A5480"/>
<path d="M29.9516 22.2483C29.7114 22.0081 29.3285 22.0081 29.0883 22.2483L25.6649 25.6717C25.4247 25.9119 25.4247 26.2948 25.6649 26.535C25.785 26.6551 25.9389 26.7152 26.0966 26.7152C26.2542 26.7152 26.4081 26.6551 26.5283 26.535L29.9516 23.1116C30.1919 22.8714 30.1919 22.4885 29.9516 22.2483Z" fill="#FF9528"/>
<path d="M25.1807 28.859C24.1672 28.859 23.3414 28.0332 23.3414 27.0197C23.3414 26.0062 24.1672 25.1804 25.1807 25.1804C26.1942 25.1804 27.02 26.0062 27.02 27.0197C27.02 28.0332 26.1942 28.859 25.1807 28.859Z" fill="#FF9528"/>
</svg>
