<svg width="50" height="50" viewBox="0 0 50 50" fill="none" xmlns="http://www.w3.org/2000/svg">
<path d="M16.9719 13.8198H15.0054L8.49097 38.9446H10.4575L16.9719 13.8198Z" fill="#423B3C"/>
<path d="M26.815 15.3146L14.6343 15.7227L15.0636 13.8198H26.7885C27.202 13.8198 27.5359 14.1538 27.5359 14.5672C27.5359 14.9701 27.2179 15.304 26.8097 15.3146H26.815Z" fill="#423B3C"/>
<path d="M11.1578 33.1724H45.5639C47.6683 33.1724 49.3751 34.8792 49.3751 36.9835H7.34668C7.34668 34.8792 9.05347 33.1724 11.1578 33.1724Z" fill="#010101"/>
<path d="M47.1593 33.1724L40.3587 36.3686L2.34814 36.4905L8.38552 33.4745C8.77776 33.2784 9.21771 33.1724 9.65766 33.1724H47.1646H47.1593Z" fill="#C5C5C5"/>
<path d="M49.3695 36.9835L42.6537 40.1797L40.1094 36.3686L46.8252 33.1723C48.2405 33.1246 49.3112 34.2643 49.3377 35.6318L49.3642 36.9835H49.3695Z" fill="#423B3C"/>
<path d="M11.0309 15.723L9.35589 16.2159L4.19312 11.6892L4.43694 10.1309L11.0309 15.723Z" fill="#807D7C"/>
<path d="M10.1508 15.1079L18.0805 14.6149L12.6315 9.76489L4.43677 10.1306L10.1508 15.1079Z" fill="white"/>
<path d="M6.0957 10.6819L10.2726 14.4295L16.6015 14.1273L12.5465 10.3745L6.0957 10.6819Z" fill="#807D7C"/>
<path d="M18.0805 14.615V15.8447L9.90698 16.396L10.1508 15.1079L18.0805 14.615Z" fill="#010101"/>
<path d="M8.00342 15.0284L10.06 15.0761L9.29146 14.3711L8.00342 15.0284Z" fill="#423B3C"/>
<path d="M10.6431 15.0283H8.67654L2.16211 40.1531H4.12863L10.6431 15.0283Z" fill="#423B3C"/>
<path d="M9.90648 15.0283H7.93996L1.42554 40.1531H3.39206L9.90648 15.0283Z" fill="#807D7C"/>
<path d="M19.7491 16.5231L7.56836 16.9312L7.99771 15.0283H19.7226C20.1361 15.0283 20.47 15.3623 20.47 15.7757C20.47 16.1785 20.152 16.5125 19.7438 16.5231H19.7491Z" fill="#807D7C"/>
<path d="M3.65164 36.3687H39.632C41.3017 36.3687 42.6534 37.7203 42.6534 39.39V40.1798H1.41479C0.98014 40.1798 0.625 39.8246 0.625 39.39C0.625 37.7203 1.97665 36.3687 3.64634 36.3687H3.65164Z" fill="#807D7C"/>
<path d="M11.9103 33.7023L8.10449 35.7908H40.2579L44.9065 33.644L11.9103 33.7023Z" fill="white"/>
<path d="M8.12549 16.889L9.75277 16.8572L9.22801 18.1823L8.12549 16.889Z" fill="#423B3C"/>
</svg>
