<svg width="100" height="100" viewBox="0 0 100 100" fill="none" xmlns="http://www.w3.org/2000/svg">
<g clip-path="url(#clip0_1268_76097)">
<path d="M2.00221 39.8748C2.00221 39.8121 2.00087 39.7493 2.00087 39.6852C2.00087 27.4562 11.9139 17.5432 24.1429 17.5432C36.3718 17.5432 46.2849 27.4576 46.2849 39.6852C46.3204 52.0915 46.3558 64.4951 46.3913 76.9014C46.3995 80.2062 44.2185 83.5137 39.854 86.0343C39.5935 86.1843 39.3248 86.3316 39.0561 86.4721C38.9674 86.5171 38.876 86.5621 38.7874 86.6071C38.6032 86.6999 38.4177 86.794 38.2295 86.884C38.1218 86.9344 38.01 86.9835 37.8981 87.034C37.7263 87.1145 37.5544 87.1909 37.3784 87.2672C37.2598 87.3177 37.1398 87.3654 37.0211 87.4146C36.8997 87.465 36.7811 87.5168 36.6583 87.5646C36.5956 87.5891 36.5314 87.6123 36.4687 87.6369C36.3951 87.6655 36.3214 87.6928 36.2477 87.7201C36.0172 87.8074 35.7826 87.8933 35.548 87.9738C35.4976 87.9929 35.4485 88.0092 35.3966 88.0283C35.1157 88.1224 34.832 88.2152 34.5456 88.3025C34.4787 88.3229 34.4105 88.3407 34.3451 88.3625C34.2196 88.3979 34.0955 88.4389 33.9714 88.4743C33.9004 88.4948 33.8309 88.5098 33.7613 88.5289C33.5431 88.5903 33.3208 88.6475 33.0984 88.7048C32.962 88.7389 32.8243 88.7758 32.6851 88.8085C32.4369 88.8685 32.186 88.9244 31.935 88.9776C31.8436 88.9981 31.7523 89.0199 31.6609 89.039C31.6363 89.0458 31.6117 89.0485 31.5858 89.054C31.354 89.1017 31.118 89.144 30.8834 89.189C30.7648 89.2108 30.6474 89.234 30.5288 89.2545C30.2274 89.3063 29.9246 89.3527 29.6191 89.3977C29.5686 89.4059 29.5168 89.4154 29.4649 89.4223C29.4622 89.4223 29.4595 89.4222 29.4568 89.4236C29.1049 89.4727 28.7502 89.5177 28.397 89.5587C28.3424 89.5641 28.2879 89.5696 28.2319 89.575C27.9332 89.6064 27.6345 89.6378 27.3331 89.6609C27.3263 89.6623 27.3195 89.6623 27.3126 89.6637C27.1953 89.6746 27.078 89.6787 26.9608 89.6882C26.7275 89.7059 26.4943 89.7223 26.2597 89.736C26.1069 89.7441 25.9528 89.7482 25.7987 89.7551C25.5941 89.7632 25.3909 89.7728 25.1877 89.7796C25.1686 89.7796 25.1508 89.781 25.1317 89.7823C25.0062 89.785 24.8808 89.7837 24.7566 89.7851C24.5316 89.7892 24.3079 89.7932 24.0842 89.7919C23.9342 89.7919 23.7856 89.7878 23.6369 89.7864C23.4187 89.7837 23.199 89.7796 22.9808 89.7728C22.9426 89.7714 22.9031 89.7728 22.8663 89.7714C22.7681 89.7673 22.6698 89.7605 22.573 89.7564C22.3207 89.7455 22.0697 89.7332 21.816 89.7182C21.6687 89.7087 21.52 89.6978 21.3741 89.6869C21.1327 89.6678 20.894 89.65 20.654 89.6268C20.5721 89.6187 20.4916 89.6146 20.4098 89.6064C20.3034 89.5955 20.1984 89.5832 20.0934 89.5723C20.0129 89.5627 19.9352 89.5546 19.8547 89.545C19.5478 89.5109 19.2437 89.4714 18.9395 89.4291C18.8959 89.4223 18.8508 89.4154 18.8058 89.4086C18.5371 89.3704 18.2711 89.3281 18.0052 89.2831C17.9261 89.2695 17.8497 89.2572 17.772 89.2436C17.7092 89.2327 17.6478 89.2231 17.5837 89.2122C17.4733 89.1931 17.3655 89.1686 17.255 89.1481C17.0614 89.1113 16.869 89.0744 16.6767 89.0335C16.5199 89.0008 16.363 88.9653 16.2048 88.9312C16.0166 88.889 15.8297 88.8453 15.6429 88.8003C15.4874 88.7635 15.3306 88.7226 15.1764 88.6844C14.9909 88.6353 14.8068 88.5875 14.624 88.5371C14.4713 88.4948 14.3185 88.4511 14.1671 88.4048C13.9857 88.3516 13.8043 88.297 13.6256 88.2397C13.5479 88.2152 13.4701 88.1947 13.391 88.1688C13.2833 88.1333 13.1769 88.0951 13.0691 88.0597C12.9996 88.0351 12.93 88.0133 12.8618 87.9888C12.589 87.8947 12.3176 87.7965 12.0476 87.6942C11.9957 87.6737 11.9425 87.6532 11.8907 87.6314C11.6656 87.5441 11.4433 87.4541 11.2238 87.3627C11.1528 87.3314 11.0819 87.3027 11.0137 87.2727C10.7532 87.1595 10.4927 87.0449 10.2403 86.9249C10.2076 86.9085 10.1735 86.8922 10.1408 86.8758C9.91573 86.768 9.69344 86.6562 9.47384 86.543C9.40565 86.5089 9.34014 86.4721 9.27467 86.438C9.02644 86.3057 8.78231 86.1734 8.54226 86.0343C8.45224 85.9811 8.36087 85.9279 8.27358 85.8747C8.11264 85.7778 7.95714 85.681 7.80165 85.5814C7.77164 85.561 7.74166 85.5419 7.71029 85.5214C7.49069 85.3796 7.27381 85.2336 7.06649 85.0863C7.03921 85.0672 7.01602 85.0509 6.98874 85.0318C6.78142 84.8817 6.57549 84.729 6.38045 84.5735C6.35999 84.5585 6.34226 84.5435 6.3218 84.5271C6.12266 84.3689 5.93035 84.2107 5.74485 84.047C5.73121 84.0347 5.71621 84.0211 5.70393 84.0102C5.62483 83.9406 5.54571 83.8697 5.46797 83.7988C5.38204 83.7197 5.30155 83.6406 5.21835 83.5601C5.19107 83.5314 5.15971 83.5042 5.13107 83.4755C4.97149 83.3159 4.81601 83.1564 4.66871 82.9941C4.63461 82.9545 4.59913 82.9163 4.5664 82.8768C4.44228 82.7376 4.32225 82.5985 4.20768 82.4567C4.18041 82.4253 4.15451 82.3926 4.1286 82.3612C4.11632 82.3476 4.10406 82.3339 4.09451 82.3217C3.97721 82.1716 3.86806 82.0202 3.76031 81.8702C3.73576 81.8374 3.71532 81.8061 3.69213 81.7733C3.57756 81.6083 3.46843 81.4405 3.36613 81.2728C3.3484 81.2441 3.33206 81.2169 3.31706 81.1896C3.27887 81.1255 3.23931 81.0627 3.20522 80.9986C3.14248 80.8882 3.08244 80.7777 3.02515 80.6658C3.01833 80.6522 3.01153 80.6385 3.00471 80.6263C2.91197 80.4408 2.82331 80.2553 2.74556 80.0684C2.7442 80.0657 2.74285 80.063 2.74149 80.0602C2.69648 79.9539 2.6542 79.8475 2.61328 79.7411C2.58328 79.6552 2.55327 79.572 2.52463 79.486C2.52053 79.4738 2.51644 79.4629 2.51235 79.4519C2.44961 79.2651 2.39506 79.0796 2.34868 78.8913C2.34459 78.875 2.33912 78.8573 2.33503 78.8423C2.30502 78.7263 2.27909 78.6104 2.2559 78.4945C2.24226 78.4263 2.22999 78.3581 2.22044 78.2912C2.21635 78.2694 2.21089 78.2489 2.20816 78.2271C2.17815 78.0471 2.15635 77.8657 2.13998 77.6857C2.13725 77.6611 2.13452 77.6365 2.13315 77.6106C2.12224 77.4824 2.11406 77.3529 2.10997 77.2247C2.10724 77.1605 2.10725 77.0951 2.10589 77.0296C2.07179 64.6233 2.03497 52.2197 2.00087 39.8134C1.99951 39.8339 2.00221 39.853 2.00221 39.8748Z" fill="#7EB1ED"/>
<path d="M8.53676 68.1171C-0.139196 73.1254 -0.184222 81.2463 8.43444 86.256C17.0531 91.2643 31.0743 91.2643 39.7503 86.256C48.4235 81.2476 48.4726 73.1268 39.8526 68.1171C31.2325 63.1088 17.2113 63.1088 8.53676 68.1171Z" fill="#5B9AD8"/>
<path d="M3.19266 21.4268C3.19812 21.5332 3.20493 21.6396 3.21584 21.7473C3.22403 21.8333 3.23766 21.9206 3.24993 22.0079C3.26357 22.1142 3.27859 22.2234 3.29905 22.3297C3.31542 22.4157 3.33452 22.5057 3.35362 22.593C3.37817 22.6953 3.40135 22.7989 3.42863 22.904C3.4559 22.994 3.48044 23.0826 3.50908 23.1726C3.54182 23.2736 3.57591 23.3759 3.60865 23.4795C3.64138 23.5668 3.6741 23.6514 3.70684 23.736C3.75321 23.8464 3.79552 23.9555 3.84599 24.0647C3.88281 24.1479 3.92236 24.2297 3.96191 24.3129C4.0151 24.4234 4.07104 24.5298 4.12832 24.6361C4.17197 24.718 4.21698 24.7985 4.26335 24.8789C4.337 25.003 4.41475 25.1258 4.49386 25.2513C4.5416 25.3236 4.58795 25.3972 4.63705 25.4695C4.7257 25.6045 4.8253 25.7327 4.9235 25.865C4.97124 25.9264 5.01351 25.9864 5.06261 26.0465C5.22764 26.2565 5.40902 26.4679 5.59997 26.6725C5.64771 26.7257 5.69819 26.7761 5.74865 26.8266C5.89732 26.9876 6.05692 27.143 6.22196 27.2999C6.29561 27.3681 6.36788 27.439 6.4429 27.5058C6.5411 27.5931 6.64205 27.6818 6.74571 27.7691C6.83982 27.8482 6.9339 27.9273 7.02938 28.005C7.13576 28.091 7.24626 28.1755 7.35537 28.2615C7.4563 28.3378 7.55724 28.4142 7.66227 28.4906C7.7782 28.5738 7.89414 28.6557 8.01553 28.7389C8.12464 28.8152 8.23239 28.8862 8.34423 28.9625C8.46698 29.043 8.59382 29.1221 8.7193 29.2012C8.87752 29.298 9.03299 29.399 9.19939 29.4945C9.64949 29.755 10.1187 29.995 10.5974 30.2269C10.7256 30.2896 10.8511 30.3496 10.9807 30.4083C11.4117 30.6061 11.8522 30.7956 12.3037 30.9716C12.3637 30.9975 12.4237 31.0248 12.4851 31.048C12.9706 31.2321 13.4671 31.3999 13.9731 31.5581C14.325 31.6686 14.6837 31.764 15.0425 31.8636C15.3112 31.9373 15.5785 32.015 15.8554 32.0832C16.2332 32.1732 16.6233 32.251 17.0093 32.3287C17.2848 32.3846 17.5575 32.4474 17.8358 32.4965C17.9531 32.5169 18.0718 32.5333 18.1904 32.5538C18.6651 32.6315 19.1411 32.697 19.6225 32.7556C19.7617 32.7733 19.9035 32.7911 20.044 32.8047C20.6019 32.8661 21.1624 32.9138 21.7257 32.9479C21.8308 32.952 21.933 32.9575 22.0353 32.9643C22.4159 32.982 22.7991 32.9875 23.1783 32.9929C23.5561 32.9998 23.9326 33.0052 24.3117 32.9984C24.6282 32.9943 24.9446 32.9848 25.261 32.9725C25.6115 32.9589 25.9607 32.9398 26.3085 32.9166C26.6304 32.8934 26.9509 32.8675 27.2714 32.8361C27.6179 32.802 27.963 32.7638 28.3053 32.7201C28.6176 32.6806 28.9232 32.6356 29.2301 32.5878C29.5997 32.5319 29.9666 32.4651 30.3321 32.3955C30.7113 32.3233 31.0959 32.2496 31.4683 32.1664C31.5583 32.1446 31.6497 32.1268 31.7383 32.1064C32.2675 31.9782 32.7872 31.8377 33.3 31.6849C33.446 31.6413 33.5919 31.5935 33.7392 31.5485C34.1661 31.4135 34.5835 31.2717 34.9954 31.1189C35.1168 31.0753 35.2381 31.0316 35.3595 30.9866C35.7333 30.8407 36.0961 30.6797 36.4602 30.5201C36.6375 30.4397 36.8217 30.3687 36.9949 30.2842C37.5186 30.0359 38.0274 29.7727 38.5157 29.4917C42.6007 27.1321 44.6424 24.0374 44.6315 20.9426C44.6397 23.4127 44.6465 25.8828 44.6547 28.3529C44.6629 31.4435 42.6225 34.541 38.5361 36.8992C38.0506 37.1802 37.5391 37.4434 37.0154 37.693C36.8435 37.7762 36.6594 37.8472 36.4821 37.9249C36.1725 38.064 35.8656 38.2073 35.5464 38.3341C35.4932 38.3559 35.4373 38.3736 35.3828 38.3927C35.2627 38.4405 35.1372 38.4828 35.0199 38.5278C34.6053 38.6792 34.1866 38.8237 33.7597 38.956C33.6137 39.0024 33.4692 39.0474 33.3232 39.0924C33.225 39.1211 33.1268 39.1552 33.0286 39.1838C32.6112 39.3025 32.1871 39.4102 31.7588 39.5112C31.6701 39.533 31.5815 39.5507 31.4956 39.5725C31.2869 39.6189 31.0782 39.6694 30.8668 39.713C30.6963 39.7498 30.5204 39.7717 30.3499 39.8044C29.9857 39.874 29.6229 39.9381 29.2519 39.994C29.1059 40.0185 28.9587 40.0513 28.81 40.0731C28.6518 40.0949 28.4881 40.1058 28.3272 40.1249C27.9834 40.1699 27.6356 40.2081 27.2892 40.2422C27.1241 40.2586 26.9618 40.2831 26.7968 40.2981C26.6441 40.3104 26.4872 40.3118 26.3345 40.3227C25.9867 40.3459 25.6375 40.365 25.2869 40.38C25.1083 40.3868 24.931 40.4018 24.7564 40.4073C24.6145 40.4113 24.474 40.4045 24.3322 40.4059C23.953 40.41 23.5766 40.4073 23.1974 40.4004C23.0105 40.395 22.8237 40.4045 22.6341 40.3977C22.4418 40.3895 22.2508 40.3786 22.0599 40.3691C21.9576 40.3636 21.8553 40.3595 21.7503 40.3527C21.277 40.3241 20.8051 40.2913 20.3345 40.2449C20.2459 40.234 20.1517 40.2218 20.0631 40.2136C19.924 40.1958 19.7903 40.1822 19.6512 40.1631C19.1656 40.1058 18.6828 40.0363 18.2054 39.9599C18.0908 39.9408 17.9749 39.9272 17.8617 39.9053C17.8058 39.8944 17.7472 39.8876 17.6912 39.878C17.4635 39.8358 17.2411 39.7798 17.0161 39.7335C16.6369 39.6571 16.255 39.5821 15.8799 39.4907C15.6017 39.4211 15.3316 39.3434 15.0575 39.2684C14.7015 39.1715 14.3455 39.0733 13.9963 38.9656C13.9213 38.9424 13.8436 38.926 13.7686 38.9001C13.3389 38.7624 12.9202 38.6123 12.5056 38.4555C12.4483 38.4323 12.3896 38.4064 12.331 38.3832C11.8768 38.2059 11.4363 38.0177 11.0012 37.8158C10.873 37.7558 10.7474 37.6958 10.6206 37.6358C10.1419 37.4039 9.67267 37.1625 9.22258 36.902C9.13665 36.8529 9.05347 36.8038 8.973 36.7533C8.89526 36.7096 8.82843 36.6619 8.75614 36.6169C8.62247 36.5337 8.49153 36.4519 8.36059 36.3659C8.2542 36.295 8.14645 36.2227 8.04279 36.1504C7.92004 36.0672 7.80137 35.9827 7.68408 35.8981C7.58178 35.8217 7.48219 35.7467 7.38126 35.6717C7.26942 35.5858 7.15896 35.4998 7.05393 35.4153C6.95573 35.3362 6.86161 35.2571 6.77023 35.1779C6.66657 35.0907 6.56702 35.0047 6.46745 34.9174C6.42926 34.8806 6.38563 34.8452 6.34608 34.8111C6.30789 34.777 6.27923 34.7415 6.24377 34.7088C6.0801 34.5533 5.92322 34.3951 5.77046 34.2368C5.72273 34.1864 5.6682 34.1359 5.62183 34.0827C5.43224 33.8768 5.25218 33.6681 5.08442 33.4567C5.07624 33.4444 5.06668 33.4362 5.05986 33.4294C5.0244 33.3789 4.99031 33.3298 4.95485 33.2807C4.85255 33.1457 4.75298 33.0148 4.66023 32.8797C4.6084 32.8034 4.56615 32.7311 4.51705 32.6574C4.43794 32.536 4.36154 32.4146 4.29061 32.2919C4.27152 32.2578 4.24698 32.2237 4.22789 32.1896C4.19788 32.1378 4.17607 32.0873 4.14743 32.0355C4.09287 31.9345 4.03965 31.8322 3.99055 31.7299C3.94827 31.6413 3.90461 31.5526 3.86642 31.464C3.82005 31.3617 3.77777 31.2594 3.73685 31.1544C3.71639 31.1066 3.69458 31.0589 3.67412 31.0112C3.65776 30.9689 3.64684 30.9225 3.63183 30.8816C3.59773 30.7807 3.56501 30.6824 3.53364 30.5815C3.505 30.4915 3.47773 30.4015 3.45318 30.3087C3.42727 30.2105 3.40271 30.1109 3.38088 30.0127C3.36724 29.9555 3.35088 29.8996 3.33997 29.8409C3.33315 29.8054 3.32769 29.7673 3.32224 29.7291C3.30314 29.6281 3.2895 29.5258 3.27449 29.4235C3.26222 29.3335 3.24859 29.2408 3.2404 29.1494C3.22949 29.0444 3.22405 28.9407 3.21859 28.833C3.21314 28.7729 3.2063 28.7129 3.20494 28.6529C3.20085 28.5915 3.20086 28.5315 3.20086 28.4701L3.17768 21.0626C3.17495 21.1854 3.18584 21.3054 3.19266 21.4268Z" fill="#B4D8EF"/>
<path d="M9.29731 12.5151C1.17511 17.2057 1.13415 24.8069 9.1977 29.4933C17.2681 34.1825 30.3918 34.1825 38.514 29.4933C46.6321 24.8055 46.6757 17.2043 38.6067 12.5151C30.5377 7.82731 17.4168 7.82731 9.29731 12.5151Z" fill="#C6DFF7"/>
<path d="M13.1115 14.3605C7.07471 17.8494 7.04334 23.4933 13.0351 26.9768C19.0309 30.4616 28.7817 30.4616 34.8184 26.9768C40.8524 23.4933 40.8824 17.8494 34.888 14.3632C28.8949 10.8797 19.1428 10.8797 13.1115 14.3605Z" fill="#F8F5F0"/>
<path d="M2.03742 43.5679C2.0947 43.6306 2.15746 43.692 2.21611 43.7534C2.39751 43.9443 2.58712 44.1312 2.78352 44.3181C2.86945 44.4013 2.95944 44.4831 3.04946 44.5663C3.16676 44.6713 3.28817 44.7763 3.41229 44.88C3.52277 44.9755 3.63598 45.071 3.75327 45.1651C3.87876 45.2674 4.01102 45.3683 4.14196 45.4706C4.26335 45.562 4.38476 45.6547 4.51024 45.7447C4.648 45.8443 4.78848 45.9425 4.93306 46.0421C5.06263 46.1307 5.19083 46.2207 5.32586 46.3094C5.47317 46.4049 5.62592 46.5004 5.77732 46.5945C5.9669 46.7131 6.15515 46.8318 6.35156 46.9464C6.89167 47.2573 7.45361 47.5465 8.02646 47.8233C8.17922 47.8984 8.33469 47.9693 8.48881 48.0416C9.00438 48.2803 9.53085 48.5067 10.0696 48.7167C10.1446 48.7454 10.2142 48.7767 10.2878 48.8054C10.8689 49.0263 11.4663 49.2268 12.0719 49.4164C12.4933 49.5487 12.9216 49.6647 13.3526 49.782C13.6745 49.872 13.995 49.9647 14.3237 50.0438C14.7806 50.1543 15.2471 50.2457 15.7095 50.3398C16.0382 50.4066 16.3642 50.4816 16.6983 50.5403C16.8402 50.5648 16.9834 50.5839 17.1252 50.6071C17.694 50.6999 18.2641 50.7817 18.841 50.8513C19.0074 50.8717 19.1766 50.8922 19.3443 50.9113C20.014 50.9836 20.685 51.0409 21.3616 51.0791C21.4857 51.0872 21.6084 51.0927 21.7325 51.0981C22.1881 51.1227 22.6437 51.1281 23.0992 51.1363C23.552 51.1445 24.0049 51.1486 24.4591 51.1432C24.8382 51.1377 25.2188 51.1268 25.5979 51.1118C26.0167 51.0941 26.4354 51.0736 26.8527 51.0422C27.2374 51.0177 27.622 50.9849 28.0053 50.9481C28.4199 50.9086 28.8332 50.8608 29.2451 50.809C29.6147 50.7613 29.983 50.7094 30.3499 50.6521C30.7918 50.5826 31.2323 50.5062 31.6688 50.423C32.1271 50.3371 32.5853 50.2498 33.0341 50.1475C33.1418 50.1216 33.251 50.0998 33.3587 50.0738C33.5865 50.0193 33.806 49.9511 34.0311 49.8911V74.0217C33.8142 74.0749 33.6001 74.1376 33.3778 74.1895C33.2755 74.2154 33.1705 74.2358 33.0655 74.2617C32.8131 74.319 32.5649 74.3791 32.3112 74.4309C32.1066 74.4732 31.8952 74.5004 31.6906 74.54C31.2555 74.6232 30.8177 74.6996 30.3771 74.7678C30.1985 74.795 30.0266 74.8346 29.8479 74.8578C29.6556 74.8864 29.4592 74.8987 29.2669 74.9246C28.8523 74.9765 28.439 75.0228 28.0217 75.0637C27.8253 75.0828 27.6316 75.1128 27.4338 75.1292C27.2497 75.1456 27.0628 75.1469 26.8787 75.1592C26.4613 75.1879 26.044 75.2097 25.6225 75.226C25.4125 75.2342 25.1997 75.2533 24.9869 75.2602C24.8178 75.2642 24.6486 75.2547 24.4781 75.2574C24.024 75.2629 23.5739 75.2601 23.121 75.2506C22.896 75.2465 22.6709 75.2547 22.4445 75.2465C22.214 75.2397 21.9849 75.2233 21.7557 75.2138C21.6316 75.2069 21.5089 75.2029 21.3875 75.1947C20.8215 75.1619 20.254 75.1197 19.6921 75.0637C19.583 75.0528 19.4725 75.0365 19.3648 75.0255C19.1997 75.0064 19.0374 74.986 18.8724 74.9669C18.29 74.896 17.7117 74.8155 17.1389 74.7214C17.0011 74.6982 16.8647 74.6791 16.727 74.6559C16.6601 74.6423 16.5919 74.6341 16.5237 74.6232C16.2509 74.5741 15.9877 74.5045 15.7149 74.45C15.258 74.3572 14.8011 74.2672 14.3537 74.1581C14.0209 74.0776 13.6963 73.9835 13.3676 73.8935C12.9407 73.7776 12.5138 73.663 12.0978 73.5307C12.0077 73.502 11.9123 73.4816 11.8223 73.4516C11.3108 73.2865 10.8075 73.1065 10.311 72.9169C10.2401 72.8896 10.1746 72.8596 10.1024 72.831C9.55952 72.6196 9.03028 72.3918 8.51062 72.1518C8.3565 72.0808 8.20376 72.0085 8.05509 71.9376C7.48088 71.6594 6.91622 71.3702 6.38019 71.0579C6.2779 70.9979 6.17834 70.9392 6.07605 70.8778C5.98739 70.8246 5.90553 70.7701 5.8196 70.7155C5.65866 70.6173 5.50182 70.5178 5.34497 70.4168C5.2154 70.3309 5.09129 70.245 4.96444 70.1563C4.8185 70.0568 4.67392 69.9572 4.5348 69.8535C4.41069 69.7649 4.29199 69.6721 4.17197 69.5821C4.0383 69.4812 3.906 69.3789 3.77779 69.2752C3.66186 69.1825 3.55002 69.087 3.43818 68.9929C3.31679 68.8892 3.1954 68.7842 3.07947 68.6792C3.03037 68.6369 2.97853 68.5933 2.93079 68.551C2.88987 68.5101 2.85169 68.4678 2.80804 68.4282C2.61027 68.2414 2.42205 68.0531 2.24337 67.8636C2.18609 67.8049 2.12747 67.7463 2.07155 67.6862L2.00195 43.5188C2.01423 43.5379 2.02514 43.5543 2.03742 43.5679Z" fill="#B4D8EF"/>
<path d="M92.4307 43.8159L69.2251 54.1662C65.7588 55.7123 61.7753 54.5696 59.6129 51.6342C59.2798 51.1823 58.99 50.6876 58.7519 50.1539C56.9679 46.1542 58.7643 41.4652 62.7643 39.6811L85.9699 29.3307C89.9695 27.5467 94.6586 29.3431 96.4425 33.3428C96.8706 34.3025 97.0927 35.3022 97.1272 36.2916C97.165 37.3638 96.9829 38.4248 96.6053 39.4103C95.8793 41.3056 94.4306 42.9239 92.4307 43.8159Z" fill="#FFA94D"/>
<path d="M80.8273 48.9903L69.2246 54.1655C65.7582 55.7116 61.7747 54.5689 59.6123 51.6335C59.2792 51.1816 58.9894 50.6869 58.7514 50.1532C56.9674 46.1535 58.7637 41.4645 62.7637 39.6804L74.3665 34.5052L80.8273 48.9903Z" fill="#FEC864"/>
<path d="M64.4836 43.806L64.3738 43.5596C64.0111 42.7465 64.3763 41.7931 65.1895 41.4305L75.4183 36.8681L76.8417 40.0594L66.6128 44.6218C65.7996 44.9844 64.8463 44.6192 64.4836 43.806Z" fill="#FFE183"/>
<path d="M76.8421 40.0567L75.4188 36.8654L85.6476 32.303C86.4608 31.9403 87.4142 32.3055 87.7769 33.1187L87.8867 33.3651C88.2494 34.1783 87.8842 35.1315 87.071 35.4943L76.8421 40.0567Z" fill="#FFCA93"/>
<path opacity="0.45" d="M80.8271 48.9924C76.9595 50.7174 73.0919 52.4424 69.2243 54.1675C65.7579 55.7136 61.7745 54.5709 59.6121 51.6355C61.5086 52.2642 64.5627 52.8752 67.3214 51.6447C71.4047 49.8234 75.4881 48.0021 79.5714 46.1808C79.99 47.118 80.4085 48.0552 80.8271 48.9924Z" fill="#F2904E"/>
<path opacity="0.45" d="M79.5715 46.1803L91.2973 40.9503C93.4317 39.9983 95.7325 38.1097 97.1265 36.2925C97.1643 37.3647 96.9822 38.4256 96.6046 39.4112C95.8785 41.3063 94.4298 42.9247 92.43 43.8167L80.8272 48.9919L79.5715 46.1803Z" fill="#DB4A37"/>
<path d="M75.99 89.3836L53.098 70.4313C49.6784 67.6003 48.8089 62.8319 50.7636 59.0419C51.0644 58.4582 51.4325 57.8977 51.8684 57.3712C55.135 53.4255 60.9822 52.875 64.9282 56.1419L87.8202 75.0942C91.7659 78.3608 92.3164 84.208 89.0498 88.1537C88.266 89.1005 87.3334 89.852 86.3141 90.4016C85.2099 90.9977 84.0033 91.3574 82.7744 91.4731C80.411 91.6956 77.9628 91.017 75.99 89.3836Z" fill="#C0DDFF"/>
<path d="M64.544 79.9075L53.098 70.4313C49.6784 67.6003 48.8089 62.8319 50.7636 59.0419C51.0644 58.4582 51.4325 57.8977 51.8684 57.3712C55.135 53.4255 60.9822 52.875 64.9282 56.1419L76.3742 65.6181L64.544 79.9075Z" fill="#2383E2"/>
<path d="M61.5017 60.0811L61.7028 59.838C62.367 59.0358 63.5558 58.9239 64.3579 59.5881L74.4486 67.9421L71.8423 71.0902L61.7516 62.7362C60.9494 62.0721 60.8374 60.8833 61.5017 60.0811Z" fill="#4CA6FF"/>
<path d="M71.8418 71.0937L74.4481 67.9456L84.5388 76.2996C85.341 76.9637 85.4529 78.1525 84.7887 78.9547L84.5876 79.1977C83.9234 80 82.7346 80.1119 81.9324 79.4477L71.8418 71.0937Z" fill="#C9EBFF"/>
<path opacity="0.45" d="M64.544 79.9081C60.7287 76.7494 56.9133 73.5907 53.098 70.432C49.6784 67.6009 48.8089 62.8325 50.7636 59.0425C51.0889 61.3567 52.0334 64.8751 54.7548 67.1281C58.7829 70.4631 62.8111 73.798 66.8393 77.1329C66.0742 78.0579 65.309 78.983 64.544 79.9081Z" fill="#195C9E"/>
<path opacity="0.45" d="M66.8392 77.1284L78.4066 86.705C80.5122 88.4482 83.6858 89.8797 86.314 90.3978C85.2098 90.9939 84.0032 91.3536 82.7743 91.4693C80.4109 91.6918 77.9627 91.0131 75.9899 89.3798L64.5439 79.9036L66.8392 77.1284Z" fill="#7CCEFF"/>
</g>
<defs>
<clipPath id="clip0_1268_76097">
<rect width="100" height="100" fill="white"/>
</clipPath>
</defs>
</svg>
