<svg width="50" height="50" viewBox="0 0 50 50" fill="none" xmlns="http://www.w3.org/2000/svg">
<path d="M24.6354 18.4362C22.5679 11.7444 18.9886 6.41991 13.5418 2.7739L10.9351 0.861962C10.8517 0.800824 10.7461 0.795267 10.6572 0.845288L9.99025 1.22323C9.85686 1.29548 9.82351 1.47334 9.91244 1.59561L10.3793 2.23477L10.0736 2.19031C9.918 2.16808 9.79016 2.31259 9.83463 2.46265C9.8513 2.52935 9.90132 2.57937 9.96246 2.60716L11.1241 3.06291L11.88 3.39083C12.2301 3.54089 12.5469 3.76877 12.8081 4.05222L17.1211 8.79315C17.8547 9.59905 18.4383 10.5272 18.8496 11.5332L21.2173 17.3357L24.6354 18.4417V18.4362Z" fill="#FCC0A9"/>
<path d="M8.27834 46.5043H8.27278L6.37752 49.022C6.22746 49.2221 5.98291 49.3333 5.7328 49.3166L5.18812 49.2777C4.59342 49.2332 4.29329 48.5441 4.66012 48.0772L6.88886 45.2704C6.93332 45.2204 6.97222 45.1704 7.01669 45.1204C7.31126 45.4705 7.86705 46.1208 8.27834 46.5043Z" fill="#FCC0A9"/>
<path d="M42.5152 46.5104H39.8696L38.0911 36.6117L27.3698 34.6497L8.27826 46.5104C7.86697 46.1269 7.31117 45.4766 7.0166 45.1264L21.3283 30.0866C21.3283 30.0866 28.1257 31.5484 30.7324 28.9473L39.9863 33.3603C41.248 33.9605 42.0706 35.2111 42.1261 36.6117L42.5096 46.5271L42.5152 46.5104Z" fill="#353C59"/>
<path d="M30.7377 28.9362C28.1311 31.5429 21.3337 30.0756 21.3337 30.0756C22.7954 27.0076 23.0511 24.462 20.3388 23.1948C20.211 21.583 19.2772 20.7994 17.7043 20.666L18.8548 18.0093L20.5722 16.6587C24.3628 17.6424 27.4919 19.1431 27.8976 22.7835L30.7377 28.9362Z" fill="#FFC560"/>
<path d="M39.8696 46.5098L40.0586 47.2434C40.0697 47.2879 40.0753 47.3323 40.0697 47.3768L40.0197 48.3494C40.0086 48.6107 40.2142 48.8274 40.4699 48.8274H45.3609C45.711 48.8274 46 48.544 46 48.1883C46 47.8881 45.7888 47.6269 45.4887 47.5658L43.5935 47.1767C43.2489 47.1045 42.9376 46.9377 42.6875 46.6876L42.5097 46.5098" fill="#FCC0A9"/>
<path d="M20.5728 16.6578L18.8554 18.0084L18.1607 17.5582L17.2325 16.719L16.5044 16.7579C16.5044 16.7579 16.4877 16.7579 16.4822 16.7579C16.2765 16.7579 16.0931 16.6189 16.0431 16.4133C15.982 16.1632 16.1376 15.9131 16.3932 15.863L16.8101 15.7797L16.1709 14.7626C16.3877 13.8511 16.2876 12.934 15.8652 12.0114C16.2321 11.9391 16.6044 11.9224 16.9768 11.9669C17.6882 12.0558 18.3552 12.2837 18.9832 12.645C19.6446 13.0229 19.8892 13.8566 19.5557 14.5402L19.1833 15.3072L20.5673 16.6523L20.5728 16.6578Z" fill="#FCC0A9"/>
<path d="M18.1605 17.5574C17.5158 17.9854 16.7711 18.2355 16.0152 18.2244C15.7095 18.2244 15.4038 18.1688 15.0981 18.0743C14.3533 17.8353 13.7531 17.2684 13.4641 16.5403C13.4196 16.4347 13.3807 16.3236 13.3474 16.2235C12.8027 14.5951 13.2306 13.3223 14.748 12.4441C15.0981 12.244 15.4761 12.0995 15.8651 12.0217C16.2875 12.9388 16.382 13.8559 16.1708 14.7729L16.81 15.79L16.3931 15.8734C16.143 15.9234 15.9818 16.1735 16.043 16.4236C16.093 16.6237 16.2764 16.7682 16.482 16.7682C16.4876 16.7682 16.4987 16.7682 16.5043 16.7682L17.2324 16.7293L18.1605 17.5686V17.5574Z" fill="#0A0A0C"/>
<path d="M16.0148 18.2242C15.7369 19.2914 15.0699 19.497 14.4752 19.447C13.925 19.397 13.4248 19.1246 13.0635 18.7078L12.4243 17.9741C12.013 17.4962 12.1687 16.757 12.7467 16.4957L13.3469 16.2234C13.3803 16.329 13.4192 16.4346 13.4637 16.5402C13.7527 17.2683 14.3529 17.8296 15.0977 18.0742C15.3978 18.1742 15.7091 18.2187 16.0148 18.2242Z" fill="#0A0A0C"/>
<path d="M17.7043 20.6653C19.0271 20.5152 20.45 21.5934 20.45 23.2442L17.7043 20.6653Z" fill="#FCC0A9"/>
<path d="M17.7043 20.6646L13.9415 36.0879C13.8359 36.5269 13.6414 36.9438 13.3746 37.305L12.2408 38.8557C12.0574 39.1058 12.1408 39.4615 12.4187 39.6005L13.0745 39.934C13.3079 40.0507 13.5914 39.9729 13.7248 39.7505L14.5251 38.4444C14.614 38.2999 14.6919 38.1498 14.7697 37.9998L15.2032 37.105C15.2699 36.966 15.331 36.8215 15.3866 36.677L20.6333 22.7599" fill="#FCC0A9"/>
<path d="M19.1886 15.313L20.5725 16.658C19.5221 17.3027 18.3938 17.1749 17.2322 16.7191C18.316 16.5691 19.0719 16.18 19.1886 15.313Z" fill="#FC9A73"/>
</svg>
