<svg width="50" height="50" viewBox="0 0 50 50" fill="none" xmlns="http://www.w3.org/2000/svg">
<path d="M27.7055 13.2496C29.3869 13.2496 30.75 11.8865 30.75 10.2051C30.75 8.52372 29.3869 7.16064 27.7055 7.16064H27.0826V13.2494H27.7055V13.2496Z" fill="#EDC901"/>
<path d="M27.0813 7.98671V7.59277H29.2704C29.4578 7.70468 29.6299 7.83835 29.7881 7.98671H27.0813Z" fill="#EDAA03"/>
<path d="M30.068 8.2876C30.3225 8.60102 30.5176 8.96424 30.6313 9.36138H27.0815V8.2876H30.068Z" fill="#EDAA03"/>
<path d="M24.9302 12.3576C23.7413 11.1687 23.7413 9.24102 24.9302 8.05209C26.1191 6.86316 28.0468 6.86316 29.2357 8.05209C30.4246 9.24102 30.4246 11.1687 29.2357 12.3576C28.0468 13.5465 26.1191 13.5465 24.9302 12.3576Z" fill="#EDEB04"/>
<path d="M25.3708 11.9171C24.4252 10.9714 24.4252 9.43824 25.3708 8.49259C26.3165 7.54694 27.8497 7.54694 28.7953 8.49259C29.741 9.43824 29.741 10.9714 28.7953 11.9171C27.8497 12.8627 26.3165 12.8627 25.3708 11.9171Z" fill="#EDC901"/>
<path d="M26.8913 7.82284V8.35892H27.162V7.82284H26.8913ZM26.9292 10.7704V11.2595H27.1999V10.7704H26.9292ZM26.8281 10.1783C26.8281 10.1109 26.8371 10.0538 26.8552 10.0069C26.8732 9.95993 26.9015 9.91781 26.94 9.88051C26.9785 9.8432 27.0303 9.80771 27.0952 9.77401C27.2276 9.71385 27.3443 9.64947 27.4454 9.58088C27.5465 9.51229 27.6253 9.42746 27.6819 9.32638C27.7372 9.2241 27.7649 9.09474 27.7649 8.93831C27.7649 8.7879 27.7348 8.65794 27.6746 8.54844C27.6133 8.43894 27.5284 8.35411 27.4201 8.29394C27.3118 8.23377 27.1861 8.20369 27.0429 8.20369C26.9346 8.20369 26.8365 8.22294 26.7487 8.26145C26.6596 8.29875 26.5832 8.35411 26.5195 8.42751C26.4545 8.49971 26.4051 8.58875 26.3714 8.69464C26.3366 8.79933 26.3191 8.91906 26.3191 9.05383H26.8245C26.8245 8.98284 26.8299 8.92026 26.8407 8.86611C26.8516 8.81197 26.8672 8.76684 26.8877 8.73074C26.9081 8.69464 26.9322 8.66757 26.9599 8.64952C26.9875 8.63147 27.0176 8.62244 27.0501 8.62244C27.0982 8.62244 27.138 8.63688 27.1692 8.66576C27.2005 8.69344 27.2234 8.73074 27.2378 8.77767C27.2523 8.8246 27.2595 8.87755 27.2595 8.93651C27.2595 8.99667 27.2511 9.04962 27.2342 9.09535C27.2162 9.13987 27.1873 9.18078 27.1476 9.21808C27.1067 9.25418 27.0537 9.29149 26.9887 9.32999C26.8552 9.39136 26.7391 9.45754 26.6404 9.52854C26.5405 9.59833 26.4629 9.68437 26.4075 9.78665C26.351 9.88773 26.3227 10.0171 26.3227 10.1747C26.3227 10.3299 26.354 10.4623 26.4166 10.5718C26.4791 10.6813 26.5664 10.7649 26.6783 10.8227C26.789 10.8793 26.919 10.9075 27.0682 10.9075C27.162 10.9075 27.2553 10.8931 27.3479 10.8642C27.4406 10.8341 27.5248 10.786 27.6006 10.7198C27.6764 10.6524 27.7372 10.564 27.7829 10.4545C27.8275 10.3438 27.8497 10.2066 27.8497 10.043H27.3443C27.3443 10.1296 27.3365 10.2018 27.3209 10.2595C27.3052 10.3161 27.2848 10.3612 27.2595 10.3949C27.2342 10.4286 27.2047 10.4527 27.171 10.4671C27.1374 10.4816 27.1031 10.4888 27.0682 10.4888C27.0128 10.4888 26.9677 10.4749 26.9328 10.4473C26.8979 10.4196 26.872 10.3829 26.8552 10.3372C26.8371 10.2902 26.8281 10.2373 26.8281 10.1783Z" fill="#EDEB04"/>
<path d="M27.0828 7.78369C27.1175 7.78369 27.1511 7.78741 27.1855 7.78892C25.8962 7.8431 24.8668 8.90254 24.8668 10.2052C24.8668 11.5078 25.8962 12.5673 27.1855 12.6215C27.1513 12.6228 27.1175 12.6267 27.0828 12.6267C25.7453 12.6267 24.6613 11.5426 24.6613 10.2052C24.6614 8.86777 25.7455 7.78369 27.0828 7.78369Z" fill="#EDAA03"/>
<path d="M8.18193 19.4882C8.36236 19.1902 8.76439 19.1286 9.02583 19.3589C9.90501 20.1338 11.6835 21.9643 12.05 24.3569L6.79252 25.1623C6.4261 22.7697 7.57516 20.4908 8.18193 19.4882Z" fill="#F6A7C1"/>
<path d="M6.79219 25.1601C6.72001 24.6889 7.83851 24.1266 9.29041 23.9042C10.7423 23.6818 11.9778 23.8836 12.05 24.3548C12.1222 24.826 11.0037 25.3883 9.55177 25.6107C8.09987 25.833 6.86436 25.6313 6.79219 25.1601Z" fill="#FACFDE"/>
<path d="M48.9928 23.7854L46.3942 25.1724L46.719 25.7809L49.3175 24.3938C49.4856 24.3042 49.5489 24.0952 49.4593 23.9273C49.3698 23.7592 49.1609 23.6956 48.9928 23.7854Z" fill="#F6A7C1"/>
<path d="M46.7192 25.7804L46.3945 25.1719C45.7887 25.4953 45.0329 25.2656 44.7096 24.6597C44.3863 24.0541 44.6161 23.2983 45.2218 22.9749L44.8971 22.3665C43.9558 22.8689 43.5988 24.0433 44.1013 24.9844C44.6036 25.9259 45.7779 26.2828 46.7192 25.7804Z" fill="#F6A7C1"/>
<path d="M46.3942 25.1727L46.7189 25.7811C47.6602 25.2787 48.0172 24.1043 47.5147 23.163C47.0124 22.2219 45.838 21.8649 44.8967 22.3674L45.2215 22.9758C45.8272 22.6524 46.583 22.8822 46.9063 23.4879C47.2296 24.0937 46.9999 24.8495 46.3942 25.1727Z" fill="#FACFDE"/>
<path d="M44.1204 27.1683L46.719 25.7813L46.3943 25.1729L43.7957 26.5599C43.6276 26.6495 43.5643 26.8586 43.6539 27.0264C43.7434 27.1945 43.9523 27.2581 44.1204 27.1683Z" fill="#FACFDE"/>
<path d="M33.9721 28.1129C31.614 27.8311 29.5611 28.7847 28.8921 34.3816C28.4747 37.8734 29.3672 44.5063 30.3995 46.4782C31.0415 47.7047 32.2021 47.8434 33.1152 46.8027C34.5831 45.1296 37.014 38.894 37.4314 35.4024C38.1005 29.8055 36.3301 28.3948 33.9721 28.1129Z" fill="#F6A7C1"/>
<path d="M16.5512 28.1129C14.1932 27.8311 12.1403 28.7847 11.4713 34.3816C11.0539 37.8734 11.9464 44.5063 12.9786 46.4782C13.6207 47.7047 14.7812 47.8434 15.6943 46.8027C17.1622 45.1296 19.5932 38.894 20.0106 35.4024C20.6794 29.8055 18.9093 28.3948 16.5512 28.1129Z" fill="#F6A7C1"/>
<path d="M24.701 46.1197C12.8972 46.1197 3.32825 39.2871 3.32825 30.8587C3.32825 22.4302 12.8972 15.5977 24.701 15.5977C36.5048 15.5977 46.0737 22.4302 46.0737 30.8587C46.0737 39.2871 36.5048 46.1197 24.701 46.1197Z" fill="#FACFDE"/>
<path d="M10.8258 27.6226C10.3588 27.6226 9.9802 26.9778 9.9802 26.1824C9.9802 25.387 10.3588 24.7422 10.8258 24.7422C11.2928 24.7422 11.6714 25.387 11.6714 26.1824C11.6714 26.9778 11.2928 27.6226 10.8258 27.6226Z" fill="#424242"/>
<path d="M3.97852 27.1169C4.13143 27.4265 4.36064 27.6214 4.61685 27.6214C5.08319 27.6214 5.46143 26.9794 5.46143 26.1805C5.46143 25.6301 5.28185 25.1562 5.01433 24.9116C4.59389 25.6225 4.24604 26.3564 3.97852 27.1169Z" fill="#424242"/>
<path d="M20.4355 18.3295C20.4671 18.3295 20.499 18.327 20.5311 18.3217C23.2501 17.8657 26.153 17.8657 28.872 18.3217C29.1834 18.3732 29.4798 18.1634 29.5323 17.851C29.5846 17.5389 29.3738 17.2434 29.0616 17.1907C26.218 16.7138 23.1853 16.7138 20.3413 17.1907C20.0291 17.2434 19.8185 17.5389 19.8708 17.851C19.9179 18.1314 20.1606 18.3295 20.4355 18.3295Z" fill="#F27AA2"/>
<path d="M11.5306 22.4002C12.4555 22.7061 13.495 23.0958 14.5806 23.5583C15.6661 24.0207 16.6713 24.4984 17.5313 24.9532C18.2536 22.4269 17.6651 19.8088 17.2867 18.5591C17.1606 18.1426 16.6943 17.9438 16.3044 18.1426C15.1423 18.735 12.8491 20.1261 11.5306 22.4002Z" fill="#FBD7E3"/>
<path d="M12.3297 22.6757C13.0367 22.9279 13.7973 23.2261 14.5809 23.5586C15.3644 23.8911 16.1059 24.2312 16.7823 24.5676C17.2104 22.7483 16.7977 20.9175 16.5263 20.0195C16.4308 19.7021 16.0753 19.5531 15.7848 19.7021C14.9477 20.1303 13.3387 21.1049 12.3297 22.6757Z" fill="#F6A7C1"/>
<path d="M24.701 43.7482C33.9726 43.7482 41.9531 39.8163 45.5657 34.1623C43.4507 41.0016 34.9153 46.1194 24.701 46.1194C14.4867 46.1194 5.95108 41.0016 3.83626 34.1621C7.44868 39.8163 15.4291 43.7482 24.701 43.7482Z" fill="#F9C0D4"/>
<path d="M33.9717 28.1126C31.5487 28.716 29.8871 30.42 31.3192 36.1711C32.2127 39.7588 35.5665 45.9452 37.3175 47.4979C38.4066 48.4639 39.5991 48.1668 40.1079 46.8031C40.926 44.6104 40.987 37.5738 40.0936 33.986C38.6615 28.2348 36.3948 27.5092 33.9717 28.1126Z" fill="#FACFDE"/>
<path d="M15.1771 28.1126C12.7541 28.716 11.0925 30.42 12.5247 36.1711C13.4183 39.7588 16.7721 45.9452 18.5231 47.4979C19.6122 48.4639 20.8046 48.1668 21.3135 46.8031C22.1316 44.6104 22.1925 37.5738 21.2992 33.986C19.8669 28.2348 17.6002 27.5092 15.1771 28.1126Z" fill="#FACFDE"/>
<path d="M6.21928 38.0008C8.14389 38.0008 9.7041 36.0502 9.7041 33.6439C9.7041 31.2377 8.14389 29.2871 6.21928 29.2871H3.98546V38.0008H6.21928Z" fill="#F6A7C1"/>
<path d="M3.98515 38.0006C2.06053 38.0006 0.500327 36.05 0.500327 33.6439C0.500327 31.2377 2.06053 29.2871 3.98515 29.2871C5.90976 29.2871 7.46997 31.2377 7.46997 33.6439C7.46997 36.05 5.90976 38.0006 3.98515 38.0006Z" fill="#FACFDE"/>
<path d="M4.61748 33.6439C4.61748 34.2066 4.88533 34.6629 5.21564 34.6629C5.54611 34.6629 5.81396 34.2066 5.81396 33.6439C5.81396 33.0812 5.54611 32.625 5.21564 32.625C4.88533 32.6252 4.61748 33.0814 4.61748 33.6439Z" fill="#424242"/>
<path d="M2.13426 34.6629C1.80391 34.6629 1.53611 34.2067 1.53611 33.6439C1.53611 33.0812 1.80391 32.625 2.13426 32.625C2.46462 32.625 2.73242 33.0812 2.73242 33.6439C2.73242 34.2067 2.46462 34.6629 2.13426 34.6629Z" fill="#424242"/>
<path d="M28.8718 18.3223C26.1527 17.8663 23.2499 17.8663 20.5308 18.3223C20.4987 18.3275 20.4668 18.3301 20.4353 18.3301C20.2663 18.3301 20.1158 18.2492 20.0089 18.1265C20.0928 18.0317 20.2066 17.9623 20.3411 17.9395C23.185 17.4625 26.2177 17.4625 29.0613 17.9395C29.1982 17.9626 29.3135 18.034 29.3977 18.1314C29.2711 18.2767 29.0753 18.3559 28.8718 18.3223Z" fill="#EF5D8E"/>
<g opacity="0.2">
<path d="M20.4355 18.3295C20.4671 18.3295 20.499 18.327 20.5311 18.3217C23.2501 17.8657 26.153 17.8657 28.872 18.3217C29.1834 18.3732 29.4798 18.1634 29.5323 17.851C29.5846 17.5389 29.3738 17.2434 29.0616 17.1907C26.218 16.7138 23.1853 16.7138 20.3413 17.1907C20.0291 17.2434 19.8185 17.5389 19.8708 17.851C19.9179 18.1314 20.1606 18.3295 20.4355 18.3295Z" fill="#797979"/>
</g>
<path opacity="0.7" d="M38.166 25.7121C36.4224 23.9685 35.6916 21.8724 36.5336 21.0304C37.3756 20.1884 39.4717 20.9192 41.2153 22.6628C42.9589 24.4064 43.6897 26.5024 42.8477 27.3445C42.0057 28.1865 39.9096 27.4556 38.166 25.7121Z" fill="white"/>
<path d="M25.312 17.2714C26.9934 17.2714 28.3564 15.9083 28.3564 14.2271C28.3564 12.5457 26.9934 11.1826 25.312 11.1826H24.689V17.2714H25.312Z" fill="#FFD801"/>
<path d="M24.6876 12.0087V11.6147H26.8769C27.0642 11.7266 27.2364 11.8603 27.3945 12.0087H24.6876Z" fill="#FFB703"/>
<path d="M27.6742 12.3086C27.9287 12.622 28.1238 12.9852 28.2375 13.3824H24.6877V12.3086H27.6742Z" fill="#FFB703"/>
<path d="M21.7293 14.9304C21.3401 13.2947 22.3505 11.6531 23.9862 11.2639C25.6218 10.8746 27.2634 11.8851 27.6526 13.5208C28.0419 15.1564 27.0314 16.798 25.3958 17.1872C23.7601 17.5765 22.1185 16.566 21.7293 14.9304Z" fill="#FFFD04"/>
<path d="M22.3326 14.7877C22.0234 13.4866 22.8276 12.1812 24.1287 11.872C25.4298 11.5628 26.7352 12.3669 27.0444 13.668C27.3536 14.9692 26.5495 16.2746 25.2484 16.5838C23.9473 16.893 22.6418 16.0889 22.3326 14.7877Z" fill="#FFD801"/>
<path d="M24.4975 11.8448V12.3809H24.7682V11.8448H24.4975ZM24.5354 14.7923V15.2815H24.8061V14.7923H24.5354ZM24.4343 14.2003C24.4343 14.1329 24.4433 14.0758 24.4614 14.0288C24.4794 13.9819 24.5077 13.9398 24.5462 13.9025C24.5847 13.8652 24.6365 13.8297 24.7014 13.796C24.8338 13.7358 24.9505 13.6714 25.0516 13.6029C25.1527 13.5343 25.2315 13.4494 25.2881 13.3484C25.3434 13.2461 25.3711 13.1167 25.3711 12.9603C25.3711 12.8099 25.341 12.6799 25.2808 12.5704C25.2195 12.4609 25.1346 12.3761 25.0263 12.3159C24.918 12.2557 24.7923 12.2257 24.6491 12.2257C24.5408 12.2257 24.4427 12.2449 24.3549 12.2834C24.2658 12.3207 24.1894 12.3761 24.1257 12.4495C24.0607 12.5217 24.0113 12.6107 23.9776 12.7166C23.9428 12.8213 23.9253 12.941 23.9253 13.0758H24.4307C24.4307 13.0048 24.4361 12.9422 24.4469 12.8881C24.4578 12.8339 24.4734 12.7888 24.4939 12.7527C24.5143 12.7166 24.5384 12.6895 24.5661 12.6715C24.5937 12.6534 24.6238 12.6444 24.6563 12.6444C24.7044 12.6444 24.7442 12.6589 24.7754 12.6877C24.8067 12.7154 24.8296 12.7527 24.844 12.7996C24.8585 12.8466 24.8657 12.8995 24.8657 12.9585C24.8657 13.0186 24.8573 13.0716 24.8404 13.1173C24.8224 13.1618 24.7935 13.2028 24.7538 13.2401C24.7129 13.2762 24.6599 13.3135 24.5949 13.352C24.4614 13.4133 24.3453 13.4795 24.2466 13.5505C24.1467 13.6203 24.0691 13.7063 24.0137 13.8086C23.9572 13.9097 23.9289 14.0391 23.9289 14.1967C23.9289 14.3519 23.9602 14.4843 24.0228 14.5938C24.0853 14.7033 24.1726 14.7869 24.2845 14.8447C24.3952 14.9012 24.5252 14.9295 24.6744 14.9295C24.7682 14.9295 24.8615 14.9151 24.9541 14.8862C25.0468 14.8561 25.131 14.808 25.2068 14.7418C25.2826 14.6744 25.3434 14.586 25.3891 14.4765C25.4337 14.3658 25.4559 14.2286 25.4559 14.0649H24.9505C24.9505 14.1516 24.9427 14.2238 24.9271 14.2815C24.9114 14.3381 24.891 14.3832 24.8657 14.4169C24.8404 14.4506 24.8109 14.4747 24.7772 14.4891C24.7436 14.5035 24.7093 14.5108 24.6744 14.5108C24.619 14.5108 24.5739 14.4969 24.539 14.4692C24.5041 14.4416 24.4782 14.4049 24.4614 14.3591C24.4433 14.3122 24.4343 14.2593 24.4343 14.2003Z" fill="#FFFD04"/>
<path d="M24.6887 11.8054C24.7235 11.8054 24.7571 11.8091 24.7915 11.8107C23.5022 11.8648 22.4728 12.9243 22.4728 14.2269C22.4728 15.5296 23.5022 16.589 24.7915 16.6432C24.7572 16.6447 24.7235 16.6484 24.6887 16.6484C23.3515 16.6484 22.2672 15.5643 22.2672 14.2269C22.2674 12.8897 23.3515 11.8054 24.6887 11.8054Z" fill="#FFB703"/>
<path d="M25.8122 6.95515C27.4936 6.95515 28.8567 5.59208 28.8567 3.91068C28.8567 2.22929 27.4936 0.866211 25.8122 0.866211H25.1892V6.95499L25.8122 6.95515Z" fill="#D9B801"/>
<path d="M25.188 1.69423V1.30029H27.3771C27.5645 1.41219 27.7366 1.54587 27.8948 1.69423H25.188Z" fill="#D99C03"/>
<path d="M28.1744 1.99512C28.4289 2.30854 28.624 2.67176 28.7378 3.0689H25.188V1.99512H28.1744Z" fill="#D99C03"/>
<path d="M25.1892 6.95516C23.5078 6.95516 22.1447 5.5921 22.1447 3.91068C22.1447 2.22927 23.5078 0.866211 25.1892 0.866211C26.8706 0.866211 28.2336 2.22927 28.2336 3.91068C28.2336 5.5921 26.8706 6.95516 25.1892 6.95516Z" fill="#D9D703"/>
<path d="M23.4775 5.62289C22.5319 4.67724 22.5319 3.14405 23.4775 2.1984C24.4232 1.25276 25.9564 1.25276 26.902 2.1984C27.8477 3.14405 27.8477 4.67724 26.902 5.62289C25.9564 6.56853 24.4232 6.56853 23.4775 5.62289Z" fill="#D9B801"/>
<path d="M24.9977 1.5289V2.06497H25.2685V1.5289H24.9977ZM25.0356 4.47641V4.96556H25.3064V4.47641H25.0356ZM24.9345 3.88438C24.9345 3.817 24.9436 3.75984 24.9616 3.71291C24.9797 3.66598 25.008 3.62386 25.0465 3.58656C25.085 3.54926 25.1367 3.51376 25.2017 3.48007C25.334 3.4199 25.4508 3.35553 25.5518 3.28694C25.6529 3.21835 25.7317 3.13351 25.7883 3.03244C25.8437 2.93015 25.8713 2.8008 25.8713 2.64437C25.8713 2.49395 25.8412 2.364 25.7811 2.2545C25.7197 2.14499 25.6349 2.06016 25.5266 1.99999C25.4183 1.93983 25.2925 1.90975 25.1493 1.90975C25.041 1.90975 24.943 1.929 24.8551 1.96751C24.7661 2.00481 24.6897 2.06016 24.6259 2.13356C24.5609 2.20576 24.5116 2.29481 24.4779 2.4007C24.443 2.50539 24.4255 2.62512 24.4255 2.75989H24.9309C24.9309 2.68889 24.9364 2.62632 24.9472 2.57217C24.958 2.51802 24.9737 2.4729 24.9941 2.4368C25.0146 2.4007 25.0386 2.37362 25.0663 2.35557C25.094 2.33752 25.1241 2.3285 25.1566 2.3285C25.2047 2.3285 25.2444 2.34294 25.2757 2.37182C25.307 2.39949 25.3298 2.4368 25.3443 2.48373C25.3587 2.53066 25.3659 2.5836 25.3659 2.64256C25.3659 2.70273 25.3575 2.75567 25.3407 2.8014C25.3226 2.84592 25.2937 2.88684 25.254 2.92414C25.2131 2.96024 25.1602 2.99754 25.0952 3.03605C24.9616 3.09741 24.8455 3.1636 24.7468 3.23459C24.647 3.30438 24.5693 3.39042 24.514 3.4927C24.4574 3.59378 24.4292 3.72314 24.4292 3.88077C24.4292 4.036 24.4604 4.16836 24.523 4.27786C24.5856 4.38737 24.6728 4.471 24.7847 4.52875C24.8954 4.58531 25.0254 4.61359 25.1746 4.61359C25.2685 4.61359 25.3617 4.59915 25.4544 4.57027C25.547 4.54019 25.6313 4.49205 25.7071 4.42587C25.7829 4.35849 25.8437 4.27004 25.8894 4.16054C25.9339 4.04984 25.9562 3.91266 25.9562 3.74901H25.4508C25.4508 3.83565 25.4429 3.90785 25.4273 3.9656C25.4117 4.02216 25.3912 4.06728 25.3659 4.10098C25.3407 4.13467 25.3112 4.15874 25.2775 4.17318C25.2438 4.18762 25.2095 4.19484 25.1746 4.19484C25.1193 4.19484 25.0741 4.181 25.0392 4.15332C25.0043 4.12564 24.9785 4.08894 24.9616 4.04322C24.9436 3.99629 24.9345 3.94334 24.9345 3.88438Z" fill="#D9D703"/>
<path d="M25.1892 1.48926C25.224 1.48926 25.2576 1.49297 25.292 1.49449C24.0027 1.54867 22.9733 2.60811 22.9733 3.91076C22.9733 5.21341 24.0027 6.27285 25.292 6.32703C25.2577 6.32838 25.224 6.33226 25.1892 6.33226C23.852 6.33226 22.7677 5.24818 22.7677 3.91076C22.7677 2.57334 23.852 1.48926 25.1892 1.48926Z" fill="#D99C03"/>
<path d="M22.8695 10.3427C21.1881 10.3427 19.8252 8.9796 19.8252 7.29838C19.8252 5.61698 21.1882 4.25391 22.8695 4.25391H23.4924V10.3427H22.8695Z" fill="#FFD801"/>
<path d="M23.4937 5.07997V4.68604H21.3044C21.117 4.79794 20.9449 4.93161 20.7867 5.07997H23.4937Z" fill="#FFB703"/>
<path d="M20.5072 5.37988C20.2527 5.69331 20.0576 6.05653 19.9438 6.45367H23.4937V5.37988H20.5072Z" fill="#FFB703"/>
<path d="M21.3401 9.45084C20.1512 8.26191 20.1512 6.33428 21.3401 5.14535C22.529 3.95642 24.4567 3.95642 25.6456 5.14535C26.8345 6.33428 26.8345 8.26191 25.6456 9.45084C24.4567 10.6398 22.529 10.6398 21.3401 9.45084Z" fill="#FFFD04"/>
<path d="M21.7808 9.01034C20.8351 8.06469 20.8351 6.5315 21.7808 5.58585C22.7264 4.64021 24.2596 4.64021 25.2052 5.58585C26.1509 6.5315 26.1509 8.06469 25.2052 9.01034C24.2596 9.95599 22.7264 9.95599 21.7808 9.01034Z" fill="#FFD801"/>
<path d="M23.3024 4.91611V5.45218H23.5732V4.91611H23.3024ZM23.3403 7.86362V8.35276H23.6111V7.86362H23.3403ZM23.2392 7.27159C23.2392 7.2042 23.2483 7.14705 23.2663 7.10012C23.2844 7.05319 23.3126 7.01107 23.3511 6.97377C23.3897 6.93647 23.4414 6.90097 23.5064 6.86728C23.6387 6.80711 23.7555 6.74273 23.8565 6.67414C23.9576 6.60555 24.0364 6.52072 24.093 6.41964C24.1483 6.31736 24.176 6.18801 24.176 6.03158C24.176 5.88116 24.1459 5.7512 24.0858 5.6417C24.0244 5.5322 23.9396 5.44737 23.8313 5.3872C23.723 5.32704 23.5972 5.29695 23.454 5.29695C23.3457 5.29695 23.2477 5.31621 23.1598 5.35471C23.0708 5.39201 22.9944 5.44737 22.9306 5.52077C22.8656 5.59297 22.8163 5.68201 22.7826 5.7879C22.7477 5.89259 22.7302 6.01232 22.7302 6.14709H23.2356C23.2356 6.0761 23.241 6.01353 23.2519 5.95938C23.2627 5.90523 23.2783 5.8601 23.2988 5.824C23.3193 5.7879 23.3433 5.76083 23.371 5.74278C23.3987 5.72473 23.4288 5.71571 23.4612 5.71571C23.5094 5.71571 23.5491 5.73015 23.5804 5.75902C23.6117 5.7867 23.6345 5.824 23.649 5.87093C23.6634 5.91786 23.6706 5.97081 23.6706 6.02977C23.6706 6.08994 23.6622 6.14288 23.6454 6.18861C23.6273 6.23313 23.5984 6.27404 23.5587 6.31135C23.5178 6.34744 23.4649 6.38475 23.3999 6.42325C23.2663 6.48462 23.1502 6.5508 23.0515 6.6218C22.9516 6.69159 22.874 6.77763 22.8187 6.87991C22.7621 6.98099 22.7338 7.11034 22.7338 7.26798C22.7338 7.42321 22.7651 7.55557 22.8277 7.66507C22.8903 7.77457 22.9775 7.8582 23.0894 7.91596C23.2001 7.97252 23.3301 8.00079 23.4793 8.00079C23.5732 8.00079 23.6664 7.98636 23.7591 7.95748C23.8517 7.92739 23.936 7.87926 24.0118 7.81308C24.0876 7.74569 24.1483 7.65725 24.1941 7.54775C24.2386 7.43704 24.2608 7.29987 24.2608 7.13622H23.7555C23.7555 7.22285 23.7476 7.29505 23.732 7.35281C23.7164 7.40937 23.6959 7.45449 23.6706 7.48818C23.6454 7.52188 23.6159 7.54594 23.5822 7.56038C23.5485 7.57482 23.5142 7.58204 23.4793 7.58204C23.4239 7.58204 23.3788 7.5682 23.3439 7.54053C23.309 7.51285 23.2832 7.47615 23.2663 7.43043C23.2483 7.3835 23.2392 7.33055 23.2392 7.27159Z" fill="#FFFD04"/>
<path d="M23.4926 4.87598C23.4578 4.87598 23.4242 4.87969 23.3898 4.88121C24.6791 4.93539 25.7085 5.99483 25.7085 7.29748C25.7085 8.60013 24.6791 9.65957 23.3898 9.71375C23.4242 9.71527 23.4578 9.71898 23.4926 9.71898C24.8298 9.71898 25.9141 8.6349 25.9141 7.29748C25.9139 5.96023 24.8298 4.87598 23.4926 4.87598Z" fill="#FFB703"/>
</svg>
