<svg width="100" height="100" viewBox="0 0 100 100" fill="none" xmlns="http://www.w3.org/2000/svg">
<path d="M49.2706 36.8726C45.1355 23.4891 37.9769 12.8401 27.0833 5.54804L21.87 1.72417C21.7032 1.60189 21.492 1.59078 21.3142 1.69082L19.9803 2.4467C19.7135 2.59121 19.6468 2.94692 19.8246 3.19147L20.7584 4.46979L20.147 4.38087C19.8358 4.3364 19.5801 4.62542 19.669 4.92554C19.7024 5.05894 19.8024 5.15898 19.9247 5.21456L22.2479 6.12606L23.7597 6.7819C24.46 7.08203 25.0936 7.53778 25.616 8.10469L34.2419 17.5865C35.7092 19.1984 36.8764 21.0547 37.699 23.0667L42.4344 34.6717L49.2706 36.8837V36.8726Z" fill="#FCC0A9"/>
<path d="M16.5567 93.0086H16.5456L12.755 98.0441C12.4549 98.4442 11.9658 98.6666 11.4656 98.6332L10.3762 98.5554C9.18685 98.4665 8.58659 97.0881 9.32024 96.1544L13.7777 90.5408C13.8666 90.4408 13.9444 90.3408 14.0334 90.2407C14.6225 90.941 15.7341 92.2416 16.5567 93.0086Z" fill="#FCC0A9"/>
<path d="M85.0302 93.0205H79.739L76.1819 73.2231L54.7394 69.2992L16.5563 93.0205C15.7337 92.2535 14.6221 90.9529 14.033 90.2526L42.6564 60.173C42.6564 60.173 56.2511 63.0965 61.4645 57.8943L79.9724 66.7203C82.4957 67.9208 84.1409 70.4219 84.2521 73.2231L85.019 93.0539L85.0302 93.0205Z" fill="#353C59"/>
<path d="M61.4755 57.8726C56.2621 63.086 42.6674 60.1514 42.6674 60.1514C45.5908 54.0154 46.1022 48.9243 40.6776 46.3899C40.422 43.1663 38.5545 41.599 35.4087 41.3322L37.7097 36.0188L41.1445 33.3176C48.7255 35.2851 54.9838 38.2864 55.7952 45.5673L61.4755 57.8726Z" fill="#FFC560"/>
<path d="M79.7393 93.0193L80.1172 94.4866C80.1394 94.5755 80.1505 94.6644 80.1394 94.7534L80.0394 96.6986C80.0172 97.2211 80.4284 97.6546 80.9398 97.6546H90.7218C91.4221 97.6546 92.0001 97.0877 92.0001 96.3763C92.0001 95.776 91.5777 95.2536 90.9774 95.1313L87.1869 94.3532C86.4977 94.2087 85.8752 93.8752 85.375 93.375L85.0193 93.0193" fill="#FCC0A9"/>
<path d="M41.1454 33.3159L37.7106 36.017L36.3211 35.1167L34.4647 33.4382L33.0086 33.516C33.0086 33.516 32.9752 33.516 32.9641 33.516C32.5528 33.516 32.186 33.2381 32.0859 32.8268C31.9637 32.3266 32.2749 31.8263 32.7862 31.7263L33.6199 31.5596L32.3416 29.5254C32.7751 27.7023 32.575 25.8682 31.7302 24.023C32.4639 23.8785 33.2086 23.8451 33.9534 23.9341C35.3762 24.1119 36.7101 24.5677 37.9662 25.2902C39.289 26.0461 39.7781 27.7135 39.1112 29.0807L38.3664 30.6147L41.1343 33.3048L41.1454 33.3159Z" fill="#FCC0A9"/>
<path d="M36.3208 35.1149C35.0314 35.9708 33.5419 36.471 32.0301 36.4488C31.4187 36.4488 30.8074 36.3376 30.196 36.1487C28.7064 35.6707 27.5059 34.5369 26.9279 33.0807C26.839 32.8695 26.7612 32.6472 26.6945 32.4471C25.6051 29.1901 26.461 26.6446 29.4957 24.8883C30.196 24.4881 30.9519 24.1991 31.73 24.0435C32.5748 25.8776 32.7638 27.7117 32.3413 29.5458L33.6197 31.58L32.786 31.7468C32.2858 31.8468 31.9634 32.347 32.0857 32.8472C32.1857 33.2474 32.5526 33.5364 32.9638 33.5364C32.975 33.5364 32.9972 33.5364 33.0083 33.5364L34.4645 33.4586L36.3208 35.1371V35.1149Z" fill="#0A0A0C"/>
<path d="M32.0295 36.4485C31.4737 38.5827 30.1398 38.994 28.9504 38.894C27.85 38.794 26.8495 38.2493 26.127 37.4156L24.8487 35.9483C24.0261 34.9923 24.3373 33.5139 25.4934 32.9915L26.6939 32.4468C26.7606 32.658 26.8384 32.8692 26.9273 33.0804C27.5054 34.5366 28.7059 35.6593 30.1954 36.1484C30.7957 36.3485 31.4182 36.4374 32.0295 36.4485Z" fill="#0A0A0C"/>
<path d="M35.4087 41.3303C38.0543 41.0302 40.8999 43.1867 40.8999 46.4881L35.4087 41.3303Z" fill="#FCC0A9"/>
<path d="M35.4088 41.3289L27.8833 72.1755C27.6721 73.0536 27.283 73.8873 26.7495 74.6098L24.4818 77.7112C24.115 78.2114 24.2818 78.9228 24.8376 79.2007L26.1492 79.8677C26.6161 80.1011 27.183 79.9455 27.4498 79.5008L29.0505 76.8886C29.2283 76.5996 29.384 76.2994 29.5396 75.9993L30.4066 74.2097C30.54 73.9318 30.6623 73.6428 30.7734 73.3537L41.2668 45.5195" fill="#FCC0A9"/>
<path d="M38.3771 30.6257L41.145 33.3158C39.0441 34.6052 36.7876 34.3496 34.4644 33.4381C36.632 33.1379 38.1437 32.3598 38.3771 30.6257Z" fill="#FC9A73"/>
</svg>
