<svg width="50" height="50" viewBox="0 0 50 50" fill="none" xmlns="http://www.w3.org/2000/svg">
<path d="M37.5391 24.5765C36.9326 22.1421 34.8707 20.4529 32.5966 19.2988C27.8664 16.9004 22.2204 16.9004 17.4902 19.2988C15.216 20.4529 13.1541 22.1421 12.5477 24.5765C11.0013 30.774 13.2208 46 13.2208 46H36.1989C36.1989 46 39.0916 30.774 37.5451 24.5765H37.5391Z" fill="#39548B"/>
<path d="M26.95 48.9458L26.6223 49.0368C25.5906 49.316 24.5103 49.316 23.4786 49.0368L23.1509 48.9458V28.7183H26.9561V48.9458H26.95Z" fill="#A96433"/>
<path d="M23.1509 28.7178L25.0929 27.5708L26.95 28.7178C25.7362 29.0637 24.4496 29.0698 23.2298 28.7421L23.1509 28.7178Z" fill="#D7C1A3"/>
<path d="M26.9502 28.719C26.9502 28.719 31.4533 23.5301 41.9706 23.7546V43.4299C41.9706 43.4299 31.8296 45.1959 26.9502 48.9465V28.719Z" fill="#C28356"/>
<path d="M25.0928 27.5718C25.0928 27.5718 30.045 22.298 38.0012 21.5029L41.9703 23.7545C41.9703 23.7545 32.7881 23.2447 26.9498 28.7188L25.0928 27.5718Z" fill="#E4E4E4"/>
<mask id="mask0_1268_77397" style="mask-type:luminance" maskUnits="userSpaceOnUse" x="25" y="21" width="17" height="8">
<path d="M25.0925 27.5728C25.0925 27.5728 30.0447 22.2989 38.001 21.5039L41.97 23.7555C41.97 23.7555 32.7878 23.2457 26.9496 28.7198L25.0925 27.5728Z" fill="white"/>
</mask>
<g mask="url(#mask0_1268_77397)">
<path d="M27.7021 26.5284C27.7021 26.5284 33.6921 22.8021 39.0388 22.9235C39.0388 22.9235 32.5269 22.2741 27.7021 26.5284Z" fill="#C0C0C0"/>
</g>
<path d="M23.145 28.719C23.145 28.719 18.6419 23.5301 8.12451 23.7546V43.4299C8.12451 43.4299 18.2656 45.1959 23.145 48.9465V28.719Z" fill="#C28356"/>
<path d="M25.0928 27.5718C25.0928 27.5718 20.0496 22.298 12.0933 21.5029L8.12427 23.7545C8.12427 23.7545 17.3065 23.2447 23.1447 28.7188L25.0928 27.5718Z" fill="#E4E4E4"/>
<mask id="mask1_1268_77397" style="mask-type:luminance" maskUnits="userSpaceOnUse" x="8" y="21" width="18" height="8">
<path d="M25.0926 27.5728C25.0926 27.5728 20.0493 22.2989 12.0931 21.5039L8.12402 23.7555C8.12402 23.7555 17.3062 23.2457 23.1445 28.7198L25.0926 27.5728Z" fill="white"/>
</mask>
<g mask="url(#mask1_1268_77397)">
<path d="M11.2739 22.7661C11.2739 22.7661 18.1075 22.9603 22.6713 26.9961C22.6713 26.9961 17.1425 21.6858 11.2739 22.7661Z" fill="#C0C0C0"/>
</g>
<path d="M43.4756 31.0411C43.4331 30.7923 43.2753 30.592 43.069 30.4828C43.3239 30.3553 43.4999 30.0944 43.4999 29.7849C43.4999 29.354 43.1539 29.0081 42.723 29.0081H40.7021C40.2712 29.0081 39.9253 29.354 39.9253 29.7849C39.9253 30.2158 40.2712 30.5617 40.7021 30.5617H41.6428L40.5807 30.7438C40.1559 30.8166 39.8707 31.2171 39.9435 31.6419C39.9981 31.9575 40.2287 32.1881 40.52 32.267C40.3926 32.4127 40.3258 32.6069 40.3623 32.8132C40.3926 32.9832 40.4836 33.1227 40.6111 33.2198C40.4594 33.2927 40.344 33.4383 40.3258 33.6204C40.2955 33.8996 40.5018 34.1484 40.7749 34.1787L42.0797 34.3122C42.3589 34.3426 42.6077 34.1363 42.6381 33.8632C42.6684 33.584 42.4621 33.3352 42.189 33.3048L41.6549 33.2502L42.7898 33.056C43.1479 32.9953 43.3845 32.6554 43.3239 32.3035C43.2935 32.1214 43.1843 31.9636 43.0386 31.8726C43.3421 31.7269 43.5241 31.3931 43.4634 31.0411H43.4756Z" fill="#FFCCB8"/>
<path d="M6.78941 32.1825C6.83189 31.9337 6.98968 31.7334 7.19603 31.6241C6.94113 31.4967 6.76514 31.2357 6.76514 30.9262C6.76514 30.4953 7.11106 30.1494 7.54195 30.1494H9.56288C9.99377 30.1494 10.3397 30.4953 10.3397 30.9262C10.3397 31.3571 9.99377 31.703 9.56288 31.703H8.62221L9.68426 31.8851C10.1091 31.9579 10.3943 32.3585 10.3215 32.7833C10.2669 33.0989 10.0363 33.3295 9.74495 33.4084C9.8724 33.554 9.93915 33.7482 9.90274 33.9546C9.8724 34.1245 9.78136 34.2641 9.65392 34.3612C9.80564 34.434 9.92095 34.5797 9.93915 34.7618C9.9695 35.0409 9.76316 35.2897 9.49006 35.3201L8.18525 35.4536C7.90608 35.4839 7.65726 35.2776 7.62692 35.0045C7.59657 34.7253 7.80291 34.4765 8.07601 34.4462L8.61007 34.3915L7.47519 34.1973C7.11713 34.1367 6.88044 33.7968 6.94113 33.4448C6.97148 33.2627 7.08072 33.105 7.22637 33.0139C6.92293 32.8683 6.74086 32.5345 6.80155 32.1825H6.78941Z" fill="#FFCCB8"/>
<path d="M28.461 19.5472L28.194 19.7232C26.3308 20.9309 23.9336 20.9309 22.0705 19.7232L21.8035 19.5472L22.465 14.2188H27.7934L28.4549 19.5472H28.461Z" fill="#FFCCB8"/>
<mask id="mask2_1268_77397" style="mask-type:luminance" maskUnits="userSpaceOnUse" x="21" y="14" width="8" height="7">
<path d="M28.4608 19.5472L28.1937 19.7232C26.3306 20.9309 23.9334 20.9309 22.0703 19.7232L21.8032 19.5472L22.4647 14.2188H27.7932L28.4547 19.5472H28.4608Z" fill="white"/>
</mask>
<g mask="url(#mask2_1268_77397)">
<path d="M21.961 16.9561C22.1006 17.1564 24.0305 18.3581 25.6812 18.0728C27.3319 17.7937 28.4607 16.6648 28.4607 16.6648L28.3758 15.3722C28.3758 15.3722 25.044 15.8698 23.721 15.3722C22.3979 14.8745 21.6272 14.4072 21.6272 14.4072L21.961 16.9622V16.9561Z" fill="#FCC0AD"/>
</g>
<path d="M29.9968 9.3933C29.9968 9.3933 30.7312 7.67581 31.6718 8.53759C32.6125 9.3933 31.3927 12.2153 29.9968 11.8148C28.601 11.4142 29.9968 9.3933 29.9968 9.3933Z" fill="#FFCCB8"/>
<path d="M20.238 9.67284C20.238 9.67284 19.5036 7.95535 18.563 8.81713C17.6223 9.67284 18.8421 12.4949 20.238 12.0943C21.6338 11.6938 20.238 9.67284 20.238 9.67284Z" fill="#FFCCB8"/>
<path d="M29.4077 3.55566H21.0145C20.9841 3.65277 20.0738 6.65079 20.0434 6.75396C19.0724 10.0069 20.1588 14.2915 23.6059 16.191C24.1763 16.5066 24.7104 16.628 25.1959 16.5916C25.6875 16.628 26.2155 16.5066 26.786 16.191C30.2331 14.2854 31.3194 10.0069 30.3484 6.75396C30.318 6.65685 29.432 3.65277 29.4077 3.55566Z" fill="#FFCCB8"/>
<mask id="mask3_1268_77397" style="mask-type:luminance" maskUnits="userSpaceOnUse" x="19" y="3" width="12" height="14">
<path d="M29.4077 3.55566H21.0145C20.9841 3.65277 20.0738 6.65079 20.0434 6.75396C19.0724 10.0069 20.1588 14.2915 23.6059 16.191C24.1763 16.5066 24.7104 16.628 25.1959 16.5916C25.6875 16.628 26.2155 16.5066 26.786 16.191C30.2331 14.2854 31.3194 10.0069 30.3484 6.75396C30.318 6.65685 29.432 3.65277 29.4077 3.55566Z" fill="white"/>
</mask>
<g mask="url(#mask3_1268_77397)">
<path d="M19.3763 8.98717C19.3763 8.98717 27.4722 8.92041 30.8283 7.01479L29.9604 3.54946L20.3109 3.31885C20.3109 3.31885 19.2853 7.65809 19.3702 8.9811L19.3763 8.98717Z" fill="#FFCCB8"/>
</g>
<path d="M29.6931 4.52687C29.6931 4.52687 27.7025 5.33402 25.1961 5.67995L25.7059 4.52687C25.7059 4.52687 23.163 5.7285 21.5972 6.23829L22.0767 4.92134L20.0375 6.74807C20.0375 6.74807 18.4111 3.56798 21.1603 1.7716C23.9095 -0.0247836 28.4551 0.65493 29.6931 2.6091C30.5063 3.88963 29.6931 4.5208 29.6931 4.5208V4.52687Z" fill="#2F1B19"/>
<path d="M19.88 3.19165C19.88 3.19165 18.114 5.63133 18.9515 8.87211L19.7222 9.75209C19.7222 9.75209 19.6737 7.7433 20.4201 5.99547L19.88 3.19165Z" fill="#2F1B19"/>
<path d="M29.1528 4.31467C29.1528 4.31467 30.7793 7.94385 30.6883 9.18797L31.4287 8.37474C31.4287 8.37474 32.5575 3.13731 29.3713 2.21484L29.1528 4.32074V4.31467Z" fill="#2F1B19"/>
</svg>
