<svg width="100" height="100" viewBox="0 0 100 100" fill="none" xmlns="http://www.w3.org/2000/svg">
<path d="M70.5452 3.8601C72.4691 2.99176 74.7506 2.63421 76.7427 3.48552C78.4453 4.13251 79.7563 5.54568 80.4544 7.21425C80.9822 8.38905 81.0843 9.73411 81.8165 10.8068C82.4464 11.8283 83.3999 12.5605 84.4215 13.1564C86.3114 14.2971 87.9289 16.2892 87.8437 18.5877C87.8267 20.6138 86.3284 22.5208 84.3363 22.9294C83.5361 23.1167 82.6848 23.0826 81.9186 22.7761C81.3908 22.5548 80.8119 22.5548 80.2501 22.5548C79.7393 22.1462 79.1434 21.8738 78.5475 21.6013C78.1218 21.2268 77.6791 20.8692 77.2364 20.5287C77.0321 20.3584 76.8278 20.1882 76.6405 20.0009C76.0106 19.1836 75.4827 18.2812 75.1592 17.3108C75.1422 17.2256 75.0911 17.0724 75.0741 17.0043C74.7166 15.8635 74.5633 14.6717 74.4782 13.4799C74.9039 13.1564 75.3295 12.7648 75.4827 12.2199C75.7211 11.5389 75.3125 10.6365 74.5463 10.5514C73.9504 10.4492 73.5928 11.1643 73.014 11.0451C71.073 10.8068 69.3193 9.68304 68.2126 8.08258C67.9231 7.65692 67.7869 7.12911 67.9572 6.63536C68.2977 5.3584 69.3704 4.40493 70.5452 3.8601Z" fill="#2F1B19" stroke="#2F1B19" stroke-width="0.0115785"/>
<path d="M67.7013 12.1005C67.7864 10.7554 67.6502 9.35929 68.178 8.06531C69.2847 9.64874 71.0554 10.7895 72.9794 11.0279C73.5583 11.1641 73.9328 10.4319 74.5117 10.5341C75.2779 10.6192 75.6695 11.5386 75.4482 12.2027C75.2949 12.7475 74.8693 13.1221 74.4436 13.4626C74.5117 14.6544 74.682 15.8463 75.0395 16.987C74.2223 17.3786 73.4561 17.8724 72.5707 18.0767C71.447 18.3321 70.119 18.1959 69.2677 17.3275C68.6036 16.7146 68.3142 15.8292 68.0418 14.9949C67.9567 14.5523 67.4118 14.5182 67.0713 14.365C67.1053 13.5818 67.6842 12.9178 67.7013 12.1005ZM68.9612 11.13C68.6377 11.4365 68.7058 12.0494 69.0634 12.3048C69.9147 12.5262 69.7784 10.5852 68.9612 11.13Z" fill="#F8AF9A" stroke="#F8AF9A" stroke-width="0.0115785"/>
<path d="M68.9617 11.1296C69.7789 10.5848 69.9152 12.5257 69.0639 12.3044C68.7063 12.066 68.6382 11.4361 68.9617 11.1296Z" fill="#070807" stroke="#070807" stroke-width="0.0115785"/>
<path d="M72.5711 18.0754C73.4565 17.8711 74.2227 17.3603 75.0399 16.9857C75.057 17.0538 75.108 17.2071 75.1251 17.2922C74.3759 18.1435 73.5587 18.9608 72.6733 19.6588C72.5882 19.148 72.503 18.6202 72.5711 18.0754Z" fill="#ED846E" stroke="#ED846E" stroke-width="0.0115785"/>
<path d="M75.1422 17.2919C75.4827 18.2624 75.9935 19.1647 76.6235 19.982C76.6405 20.0501 76.6745 20.2033 76.6916 20.2885C75.3295 20.6801 74.1036 21.4462 72.7075 21.7016C72.6904 21.0206 72.6904 20.3566 72.6904 19.6755C73.5758 18.9604 74.393 18.1432 75.1422 17.2919Z" fill="#F8B099" stroke="#F8B099" stroke-width="0.0115785"/>
<path d="M76.6233 19.9817C76.8106 20.169 77.0149 20.3563 77.2192 20.5095C75.5507 20.5606 73.9332 21.4119 72.8776 22.7059C71.5665 24.1701 71.0217 26.1792 71.0387 28.1032C71.0217 30.4187 71.9581 32.7002 73.4905 34.4028C74.3248 35.3393 75.2101 36.2246 76.1806 37.0249C76.2317 37.3313 76.2828 37.6548 76.3509 37.9783C74.0864 39.5447 71.89 41.2133 69.6766 42.8308C69.7788 40.1406 69.898 37.4335 70.0001 34.7434C70.0342 34.4539 69.8469 34.2156 69.7107 33.9772C68.8424 32.4789 68.4848 30.606 69.0978 28.9374C69.9661 26.707 70.8514 24.4936 71.839 22.3143C71.9752 21.9397 72.3497 21.7694 72.7073 21.6843C74.1034 21.4289 75.3293 20.6627 76.6914 20.2711C76.6744 20.2031 76.6403 20.0498 76.6233 19.9817Z" fill="#DEE2E9" stroke="white" stroke-width="0.0115785"/>
<path d="M72.8773 22.7072C73.9329 21.4133 75.5504 20.579 77.219 20.5109C77.6617 20.8514 78.1043 21.2089 78.53 21.5835C77.3211 21.3792 76.0612 21.6346 75.0226 22.2816C73.6435 23.0818 72.7581 24.5461 72.3665 26.0614C71.9068 27.9172 72.1111 29.9604 72.9795 31.68C73.6605 33.0762 74.7332 34.2339 75.8739 35.2725C75.9761 35.8514 76.0612 36.4303 76.1634 37.0092C75.1929 36.209 74.3075 35.3236 73.4732 34.3872C71.9409 32.6675 71.0044 30.4031 71.0215 28.0875C71.0215 26.1806 71.5833 24.1715 72.8773 22.7072Z" fill="#283046" stroke="#283046" stroke-width="0.0115785"/>
<path d="M75.0399 22.2989C76.0785 21.6519 77.3384 21.3795 78.5473 21.6008C79.1432 21.8733 79.7391 22.1286 80.2499 22.5543C81.1353 23.2694 81.7993 24.2569 82.0717 25.3636C82.1228 25.8063 82.1569 26.266 82.1739 26.7087C82.3441 30.9993 82.5485 35.2728 82.6847 39.5634C82.242 39.2399 81.7993 38.8994 81.3396 38.5929C81.1864 36.2433 81.1183 33.8767 81.0331 31.5271C80.9139 29.535 80.7948 27.5259 80.6926 25.5339C80.6585 24.6485 80.335 23.7632 79.6881 23.1332C78.7686 22.2308 77.2703 21.9754 76.0955 22.5032C74.8356 22.997 74.1886 24.4612 74.3929 25.7552C74.8697 28.9391 75.4485 32.123 75.8912 35.3069C74.7505 34.2683 73.6778 33.1105 72.9968 31.7144C72.1114 29.9947 71.9241 27.9686 72.3838 26.0957C72.7584 24.5634 73.6608 23.0992 75.0399 22.2989Z" fill="#DEE2E9" stroke="#FEFFFE" stroke-width="0.0115785"/>
<path d="M76.0784 22.4861C77.2532 21.9583 78.7515 22.1967 79.6709 23.1161C80.3179 23.7461 80.6414 24.6314 80.6755 25.5168C80.7776 27.5088 80.9138 29.5179 81.016 31.51C81.1011 33.8596 81.1692 36.2262 81.3225 38.5758C81.3395 39.0355 81.3565 39.5123 81.3395 39.972C81.1692 40.7211 80.7776 41.4703 80.0625 41.8448C76.47 43.5645 72.8945 45.3011 69.319 47.0719C68.0421 47.6678 66.8162 48.3318 65.5562 48.9447C64.9944 49.1831 64.8241 49.8131 64.5347 50.3068C64.2623 50.8517 63.8877 51.3114 63.4961 51.7541C63.3599 51.9073 63.2407 52.0605 63.1045 52.2138C62.2702 52.8948 61.0613 52.7927 60.1419 52.35C60.0057 52.2819 59.7503 52.1286 59.6141 52.0605C59.3247 51.9413 59.0182 51.8562 58.7288 51.7711C59.3758 50.5793 60.4144 49.7109 61.3338 48.7404C61.0784 48.7745 60.84 48.8256 60.5846 48.8766H60.3803C61.1805 47.5146 62.8661 47.1059 64.2623 46.6632C66.1181 45.4884 67.8377 44.1264 69.6255 42.8494C71.8389 41.2319 74.0353 39.5633 76.2997 37.9969C76.2487 37.6734 76.1976 37.367 76.1295 37.0435C76.0273 36.4646 75.9422 35.8857 75.84 35.3068C75.3974 32.1229 74.8185 28.939 74.3417 25.7551C74.1715 24.4612 74.8355 22.9799 76.0784 22.4861Z" fill="#F7AF99" stroke="#F7AF99" stroke-width="0.0115785"/>
<path d="M80.2327 22.5366C80.7945 22.5366 81.3734 22.5366 81.9012 22.758C82.6674 23.0644 83.5187 23.0985 84.3189 22.9112C85.4086 23.3198 86.4642 23.8647 87.3155 24.6649C88.916 26.0951 89.6992 28.2234 89.9886 30.3176C90.0738 30.8624 90.0227 31.4072 89.8354 31.918L89.7843 31.901C89.4098 31.7818 88.933 31.8159 88.6947 31.4583C87.0431 29.4663 85.1021 27.7296 82.9568 26.2994C82.5823 26.044 82.2928 25.7035 82.0545 25.3459C81.782 24.2392 81.118 23.2688 80.2327 22.5366Z" fill="#2A314C" stroke="#2A314C" stroke-width="0.0115785"/>
<path d="M82.0718 25.364C82.3101 25.7386 82.5996 26.0621 82.9742 26.3175C85.1195 27.7477 87.0604 29.4843 88.712 31.4764C88.9674 31.834 89.4271 31.7999 89.8016 31.9191C89.5292 32.2596 89.1206 32.2766 88.729 32.2766C88.746 32.498 88.746 32.7193 88.7631 32.9406C88.3374 32.0042 87.5542 31.3232 86.8902 30.557C85.8005 29.4843 84.5576 28.582 83.3998 27.5774C83.0082 27.2539 82.5826 26.9645 82.1569 26.7091C82.1399 26.2494 82.1229 25.8067 82.0718 25.364Z" fill="#1E2335" stroke="#1E2335" stroke-width="0.0115785"/>
<path d="M82.1571 26.7076C82.5827 26.963 83.0084 27.2355 83.4 27.576C84.5408 28.5805 85.7837 29.4829 86.8904 30.5555C87.5374 31.3217 88.3376 32.0028 88.7632 32.9392C88.7973 33.3138 88.7803 33.6884 88.8143 34.0629C89.1038 37.0936 89.274 40.1242 89.5124 43.1549C89.4783 44.1765 88.9676 45.2151 88.0481 45.7088C86.7031 46.475 85.0856 46.2366 83.6043 46.3728C83.3319 44.5681 83.0084 42.7803 82.7871 40.9756C82.3274 40.635 81.8506 40.3115 81.3569 39.988C81.3909 39.5283 81.3739 39.0516 81.3398 38.5919C81.7825 38.9154 82.2252 39.2389 82.6849 39.5624C82.5317 35.2718 82.3274 30.9812 82.1571 26.7076Z" fill="#2A304A" stroke="#2A304A" stroke-width="0.0115785"/>
<path d="M88.7971 34.0641C89.4441 34.0301 90.1592 34.1492 90.6189 34.643C91.0105 35.0176 91.0957 35.5794 91.1467 36.0902C91.2829 37.8609 91.4702 39.6146 91.5724 41.3854C91.6064 41.9643 91.334 42.5772 90.8232 42.8837C90.4316 43.122 89.9379 43.105 89.4952 43.139C89.2568 40.1084 89.0866 37.0777 88.7971 34.0641Z" fill="#1D2236" stroke="#1D2236" stroke-width="0.0115785"/>
<path d="M81.3567 39.9729C81.8335 40.2964 82.3102 40.6199 82.7869 40.9604C83.0083 42.7652 83.3318 44.57 83.6042 46.3577C83.8085 47.839 84.0809 49.3032 84.2512 50.7845C84.0128 50.7845 83.7744 50.7845 83.5361 50.7845C78.922 50.7845 74.3079 50.8015 69.6768 50.8186C69.5406 50.8186 69.2852 50.8186 69.166 50.8186C69.2001 49.5756 69.3363 48.3157 69.3533 47.0728C72.9288 45.3021 76.5043 43.5824 80.0968 41.8458C80.7949 41.4712 81.1865 40.7391 81.3567 39.9729Z" fill="#DEE2E9" stroke="white" stroke-width="0.0115785"/>
<path d="M60.6185 48.8764C60.8739 48.8424 61.1122 48.7913 61.3676 48.7402C60.4482 49.7107 59.4096 50.5791 58.7626 51.7709C58.5243 52.1455 58.337 52.5541 58.1667 52.9627C58.6605 52.6563 59.1202 52.2817 59.665 52.0603C59.8012 52.1284 60.0566 52.2817 60.1928 52.3498C59.4947 52.8606 58.7456 53.2862 58.0475 53.78C58.5583 55.2102 60.312 55.8572 61.6741 55.2613C62.8319 54.7675 63.3086 53.3884 63.1554 52.2136C63.2916 52.0603 63.4108 51.9071 63.547 51.7539C63.598 51.7198 63.7172 51.6687 63.7853 51.6517C63.9726 52.8606 63.8024 54.2227 62.934 55.1421C61.4698 56.8106 58.3199 56.2658 57.5367 54.1886C55.4425 55.5507 53.3824 56.9468 51.2881 58.3089C49.0066 59.7902 46.7251 61.2885 44.4607 62.7868C36.9351 67.6393 29.3925 72.4747 21.6967 77.0377C20.2495 77.923 18.7852 78.7744 17.3039 79.6427C16.6229 80.0683 15.8908 80.4259 15.2949 80.9707C15.0565 81.2091 14.8011 81.4475 14.4946 81.6177C12.8601 82.6393 11.1916 83.6098 9.47192 84.4781C9.28464 84.2908 9.14843 84.0695 9.08032 83.7971C10.3743 83.8141 11.3618 82.8266 12.0599 81.8391C12.775 81.3794 13.4901 80.9026 14.2392 80.4599C14.8522 80.4089 15.397 80.1024 15.9078 79.7789C18.0361 78.553 20.1473 77.259 22.2586 75.9991C29.5968 71.6063 36.8329 67.0093 44.0009 62.3271C46.1633 60.931 48.3596 59.5689 50.4539 58.0876C52.8035 56.6063 55.085 55.0229 57.4175 53.5246C57.6048 51.5155 59.1542 50.0853 60.6185 48.8764Z" fill="#172031" stroke="#172031" stroke-width="0.0115785"/>
<path d="M69.6767 50.8182C74.2908 50.8012 78.9219 50.7842 83.536 50.7842C83.3658 52.3846 82.8209 53.917 81.9185 55.245C79.8584 59.3143 77.8663 63.4176 75.8572 67.5209C75.738 67.7933 75.6189 68.0827 75.4997 68.3552C75.2954 68.7297 75.091 69.1043 74.9038 69.4959C74.1887 71.0283 73.3033 72.4925 72.7585 74.093C72.0263 75.9318 71.3623 77.8047 70.6472 79.6605C69.2511 83.2701 67.9401 86.9137 66.6631 90.5743C66.5269 90.5402 66.4077 90.4891 66.2715 90.4551C64.9094 90.0805 63.5644 89.6889 62.1852 89.3825C62.1512 88.7525 62.3385 88.1566 62.4406 87.5436C62.9684 84.9386 63.4792 82.3336 64.007 79.7286C65.0797 74.5697 66.0331 69.3938 67.1058 64.2519C67.9571 59.7739 68.7914 55.2961 69.6767 50.8182Z" fill="#2A304A" stroke="#2A304A" stroke-width="0.0115785"/>
<path d="M75.8401 67.519C77.8492 63.4157 79.8412 59.3124 81.9014 55.2432C82.4462 58.2908 83.0932 61.3215 83.7062 64.3522C83.9445 65.6802 84.268 66.9912 84.4724 68.3363C84.5915 69.2046 85.2045 69.8686 85.6471 70.6008C87.5881 73.5974 89.478 76.645 91.419 79.6416C92.4236 81.174 93.4111 82.7234 94.4156 84.2557C94.3645 84.2898 94.2624 84.3749 94.2113 84.409C93.0195 85.2943 91.7936 86.1456 90.6188 87.065C90.1421 86.7075 89.8015 86.1967 89.3929 85.754C87.6052 83.7109 85.8174 81.6848 84.0297 79.6416C82.0546 77.4453 80.1647 75.1638 78.1386 73.0185C77.6789 72.5417 77.3043 71.9628 77.117 71.3329C76.8106 70.3454 76.4871 69.3578 76.1295 68.3874C76.0274 68.0979 75.9422 67.8085 75.8401 67.519Z" fill="#1C1F31" stroke="#1C1F31" stroke-width="0.0115785"/>
<path d="M75.4827 68.3543C75.6189 68.0819 75.721 67.7924 75.8402 67.52C75.9424 67.8095 76.0275 68.0989 76.1297 68.3713C75.9083 68.3713 75.687 68.3713 75.4827 68.3543Z" fill="#A0A6A9" stroke="#A0A6A9" stroke-width="0.0115785"/>
<path d="M29.4441 75.6242C30.04 75.2496 30.7211 75.539 31.2148 75.9136C31.2319 75.7944 31.2489 75.539 31.2489 75.4028C32.1343 75.522 32.6791 76.3393 32.8834 77.1395C32.9515 76.9011 33.0366 76.6628 33.1047 76.4244C33.8198 76.6457 33.7347 77.5652 33.7688 78.1611C33.9901 78.093 34.2115 78.0249 34.4498 77.9738C34.5009 78.5186 34.3477 79.0294 34.1263 79.5061L34.1433 79.6423C34.1604 80.0169 34.4158 80.4426 34.1433 80.8001C33.8709 81.2258 33.6155 81.6514 33.292 82.043C32.7131 82.6389 31.8618 82.7752 31.0957 82.9624C31.5554 83.8478 32.1683 84.6991 32.1683 85.7377C31.981 86.5039 31.8448 87.3041 31.3851 87.9511C30.7211 88.9216 29.8357 89.7389 28.9333 90.471C28.4907 90.8115 28.0139 91.1861 27.8948 91.765C27.7415 92.5482 28.0991 93.3314 27.9458 94.1316C27.6223 94.7105 27.1286 95.1702 26.6689 95.6469C26.2262 96.0555 25.8686 96.5663 25.3579 96.9068C24.8471 97.0771 24.3022 97.0431 23.7744 96.975C23.2636 96.9239 23.1785 96.0896 23.6212 95.8853C23.9617 95.7661 24.3193 95.7321 24.6598 95.664C25.2727 95.4426 25.5622 94.7445 25.8686 94.2167C26.3283 93.4506 25.7154 92.6503 25.477 91.9182C25.0344 90.9477 25.0344 89.8751 24.7619 88.8705C23.7914 89.0237 22.9061 89.4835 22.0037 89.858C20.5565 90.4369 19.0922 90.9818 17.5258 91.1009C17.5599 91.5947 17.7131 92.0714 17.9004 92.5311C18.3261 93.5697 18.7177 94.6253 19.0241 95.715C19.0412 96.1236 19.1263 96.7025 18.7006 96.9409C18.1558 97.1793 17.5258 97.1963 16.964 97.0431C16.6915 96.975 16.6234 96.6174 16.6745 96.379C16.8618 96.0896 17.1513 95.9023 17.4066 95.698C17.1342 94.7616 16.5724 93.9613 16.1467 93.093C15.8232 92.4971 15.5678 91.8671 15.2443 91.2882C14.9889 90.8115 14.393 90.8285 13.9503 90.6753C12.7926 90.1815 11.6859 89.5175 10.9027 88.513C10.477 87.7979 10.2216 86.9806 9.93217 86.1974C9.74488 85.6355 9.43841 85.0907 9.42139 84.4948C11.141 83.6265 12.8096 82.673 14.4441 81.6344C14.7335 81.4641 15.006 81.2258 15.2443 80.9874C15.8573 81.1747 16.4702 81.362 17.1172 81.4301C20.4714 81.6855 23.8255 81.379 27.1626 81.362C28.2012 81.3279 29.2058 81.6855 30.2273 81.7366C31.317 81.6514 32.3215 80.7831 32.4918 79.6934C32.5259 78.5867 31.8959 77.48 30.9084 77.0033C30.2273 76.6798 29.4782 76.9692 28.7631 76.9182C28.3374 76.3904 29.0014 75.8285 29.4441 75.6242Z" fill="#DF9352" stroke="#DF9352" stroke-width="0.0115785"/>
<path d="M7.66732 76.494C8.60375 76.3748 9.6764 76.3918 10.4085 77.0899C11.396 77.9753 12.2984 78.9628 13.3711 79.763C13.6605 79.9843 13.9329 80.2227 14.2054 80.4611C13.4732 80.9038 12.7581 81.3805 12.026 81.8402C12.1963 81.2273 12.6049 80.5632 12.3155 79.9162C11.9579 79.082 11.379 78.3669 10.749 77.7369C10.2383 77.1921 9.3529 77.2261 8.75699 77.6007C8.34836 77.8901 8.29728 78.435 8.39944 78.8947C8.68888 80.41 8.33134 81.9594 8.5697 83.4747C7.90568 83.0661 7.53111 82.2829 6.7479 82.0445C5.6412 81.8402 4.41532 82.2999 3.41078 81.6699C2.81487 81.1932 2.38921 80.4611 2.33813 79.6949C2.84892 79.5927 3.20647 79.133 3.08728 78.6052C3.70022 78.5882 4.31316 78.5201 4.9261 78.3669C5.41986 78.2817 5.55608 77.7369 5.82849 77.3793C6.23712 76.7835 6.98627 76.5961 7.66732 76.494ZM6.44143 78.1966C6.11794 78.3498 6.2882 78.7925 6.42441 79.0479C6.62872 78.9798 6.98627 78.9798 6.96924 78.6733C7.10545 78.3839 6.71385 77.9753 6.44143 78.1966Z" fill="#DF9553" stroke="#DF9553" stroke-width="0.0115785"/>
<path d="M8.77372 77.5991C9.36964 77.2075 10.255 77.1904 10.7658 77.7353C11.4128 78.3652 11.9917 79.0803 12.3322 79.9146C12.6216 80.5616 12.213 81.2086 12.0427 81.8386C11.3617 82.8261 10.3572 83.8136 9.06317 83.7966C8.89291 83.6944 8.73967 83.5752 8.56941 83.4731C8.33104 81.9578 8.68859 80.4084 8.39915 78.893C8.31402 78.4504 8.3651 77.8885 8.77372 77.5991Z" fill="#B9743B" stroke="#B9743B" stroke-width="0.0115785"/>
<path d="M6.44153 78.1948C6.71394 77.9735 7.10554 78.3821 6.96933 78.6715C6.98636 78.978 6.61179 78.961 6.4245 79.0461C6.28829 78.7907 6.11803 78.348 6.44153 78.1948Z" fill="#0C0B09" stroke="#0C0B09" stroke-width="0.0115785"/>
<path d="M2.03166 78.7073C2.3211 78.4178 2.74676 78.6051 3.08728 78.5881C3.20646 79.1159 2.84892 79.5756 2.33813 79.6778L2.16787 79.5926C2.04869 79.3373 1.94653 79.0137 2.03166 78.7073Z" fill="#1F140F" stroke="#1F140F" stroke-width="0.0115785"/>
<path d="M90.6355 87.065C91.8103 86.1456 93.0362 85.3113 94.228 84.4089C94.7728 85.3454 95.4369 86.2137 96.0668 87.0991C94.9772 87.9844 93.9215 88.9038 92.7978 89.7381C92.27 88.7336 91.5719 87.7461 90.6355 87.065Z" fill="#F4987F" stroke="#F4987F" stroke-width="0.0115785"/>
<path d="M32.1853 85.7551C32.3897 87.2364 31.9981 88.8198 32.6961 90.1989C33.1558 91.1354 34.3987 91.4078 34.6882 92.4464C35.0628 93.519 35.4033 94.6087 35.7268 95.6984C35.7438 96.0389 35.9311 96.5156 35.5735 96.737C34.9776 97.1116 34.2285 97.0094 33.5645 96.9583C33.3942 96.3794 33.7688 95.9538 34.2455 95.6984L34.3647 95.6643C34.0071 94.5406 33.5985 93.2126 32.4237 92.6848C31.1808 92.1059 29.8868 91.527 28.9333 90.4884C29.8357 89.7392 30.7211 88.939 31.3851 87.9685C31.8618 87.3215 31.9981 86.5213 32.1853 85.7551Z" fill="#C2793A" stroke="#C2793A" stroke-width="0.0115785"/>
<path d="M96.0671 87.1179L96.2033 87.0157C97.3441 87.7989 98.2294 88.9227 98.9786 90.0634C96.9865 91.9363 95.0115 93.8092 93.0024 95.665C92.2192 96.3291 91.5722 97.1463 90.7039 97.6911C90.3974 97.4017 90.0058 97.1463 89.9207 96.7036C89.8355 96.3801 89.9547 96.0566 90.0739 95.7672C90.806 94.4391 91.3849 93.043 91.9808 91.6469C92.2703 91.0169 92.2703 90.2507 92.8151 89.774C93.9218 88.9227 94.9774 88.0033 96.0671 87.1179Z" fill="#1C1F31" stroke="#1C1F31" stroke-width="0.0115785"/>
<path d="M10.9533 88.4968C11.7365 89.5014 12.8432 90.1654 14.001 90.6591C13.0305 91.851 11.7876 92.7704 10.749 93.8941C10.1871 94.49 9.60826 95.0519 9.02937 95.6138C8.65479 95.9373 8.28022 96.2948 7.80349 96.414C7.15649 96.5502 6.49247 96.448 5.8625 96.2948C5.76035 96.0905 5.67522 95.8862 5.59009 95.6819C5.76035 95.4775 5.89656 95.1881 6.16898 95.103C6.54355 95.0349 6.91813 95.0689 7.2927 95.0349C7.76943 94.7284 8.05888 94.1836 8.41643 93.7579C9.13152 92.7023 9.98283 91.7318 10.4766 90.54C10.749 89.893 10.8341 89.1949 10.9533 88.4968Z" fill="#C07A3D" stroke="#C07A3D" stroke-width="0.0115785"/>
<path d="M62.1508 89.3813C63.5299 89.7048 64.875 90.0794 66.2371 90.454C65.9817 91.5437 65.4198 92.5652 65.3858 93.706C63.9896 93.3655 62.6446 92.8887 61.2825 92.446C61.6741 91.4585 62.1849 90.454 62.1508 89.3813Z" fill="#FBB099" stroke="#FBB099" stroke-width="0.0115785"/>
<path d="M59.5973 92.6687C60.1591 92.5495 60.721 92.192 61.2999 92.4644C62.662 92.9071 64.0241 93.3838 65.4032 93.7243C65.5564 94.3713 65.4202 95.0524 65.301 95.6994C65.1989 96.142 65.0797 96.6017 64.9775 97.0444C64.9264 97.2487 64.8924 97.436 64.8413 97.6403C61.402 96.9593 57.9798 96.2101 54.5405 95.5631C54.1148 95.444 53.6381 95.444 53.2806 95.1545C53.1954 94.4905 53.6211 93.7073 54.3192 93.6051C56.0899 93.2816 57.8606 93.0603 59.5973 92.6687Z" fill="#1E2236" stroke="#1E2236" stroke-width="0.0115785"/>
</svg>
