<svg width="50" height="50" viewBox="0 0 50 50" fill="none" xmlns="http://www.w3.org/2000/svg">
<g clip-path="url(#clip0_1268_77390)">
<path d="M1.73427 40.6963H-0.000488281V41.7483H1.73427V40.6963Z" fill="#C47D47"/>
<path d="M9.78676 40.6963H8.052V41.7483H9.78676V40.6963Z" fill="#C47D47"/>
<path d="M9.78693 30.6404H-0.000488281V40.8475H9.78693V30.6404Z" fill="#DA9B68"/>
<path d="M8.37693 32.1453H1.33716V35.0832H8.37693V32.1453Z" fill="#C47D47"/>
<path d="M8.37693 36.2537H1.33716V39.1916H8.37693V36.2537Z" fill="#C47D47"/>
<path d="M49.4404 34.8757H10.3467V39.0392H49.4404V34.8757Z" fill="#DA9B68"/>
<path d="M12.2941 39.0166H10.3467V43.9131H12.2941V39.0166Z" fill="#DA9B68"/>
<path d="M49.4181 39.0166H47.4707V43.9131H49.4181V39.0166Z" fill="#DA9B68"/>
<path d="M45.8476 39.0166H44.1128V41.9153H45.8476V39.0166Z" fill="#C47D47"/>
<path d="M15.8698 39.0166H14.135V41.9153H15.8698V39.0166Z" fill="#C47D47"/>
<path d="M48.0861 18.3064H11.3203V30.0188H48.0861V18.3064Z" fill="#C47D47"/>
<path d="M46.4241 20.1482H13.4524V30.014H46.4241V20.1482Z" fill="#DA9B68"/>
<path d="M27.2691 20.4394C27.0285 20.4674 26.8102 20.5905 26.5808 20.6801C25.8477 20.9599 25.0363 20.848 24.2584 20.7752C23.2288 20.6801 22.1935 20.6577 21.1583 20.7081C20.912 20.7192 20.6434 20.7472 20.4755 20.9319C20.3692 21.055 20.3245 21.2173 20.2909 21.3796C19.9887 22.8625 20.4028 24.4294 20.1006 25.9123C19.9271 26.7629 19.5354 27.7254 20.0223 28.4305C20.2797 28.8055 20.7218 28.9901 21.1471 29.1245C23.1057 29.7568 25.2154 29.8687 27.2243 29.449C27.5097 29.3875 27.8063 29.3147 28.0469 29.1412C28.517 28.7999 28.6849 28.1675 28.7968 27.5855C29.0206 26.4216 29.1494 25.224 29.0318 24.0433C28.9479 23.2151 28.4051 20.3107 27.2747 20.4394H27.2691Z" fill="#04887D"/>
<path d="M37.5936 20.4394C37.3529 20.4674 37.1347 20.5905 36.9053 20.6801C36.1722 20.9599 35.3608 20.848 34.5829 20.7752C33.5532 20.6801 32.518 20.6577 31.4827 20.7081C31.2365 20.7192 30.9679 20.7472 30.8 20.9319C30.6937 21.055 30.6433 21.2173 30.6153 21.3796C30.3132 22.8625 30.7273 24.4294 30.4251 25.9123C30.2516 26.7629 29.8599 27.7254 30.3467 28.4305C30.6041 28.8055 31.0462 28.9901 31.4715 29.1245C33.4301 29.7568 35.5398 29.8687 37.5488 29.449C37.8342 29.3875 38.1308 29.3147 38.3714 29.1412C38.8415 28.7999 39.0094 28.1675 39.1213 27.5855C39.3451 26.4216 39.4738 25.224 39.3563 24.0433C39.2724 23.2151 38.7296 20.3107 37.5992 20.4394H37.5936Z" fill="#04887D"/>
<path d="M33.0106 29.7614C33.0106 29.6663 34.029 24.4452 33.9395 23.8968C33.8444 23.3484 34.2193 21.3842 34.2193 21.3842C34.2193 21.3842 37.6776 15.5531 36.536 12.4921C36.536 12.4921 33.2904 12.4585 30.5147 15.2957C30.5147 15.2957 30.6099 16.2638 31.1639 16.4877L34.3144 15.3573C34.3144 15.3573 32.339 17.7076 32.367 18.8044L30.4364 20.5616L27.6104 19.7725C27.6104 19.7725 26.4073 18.3567 25.6015 18.547C25.6015 18.547 20.565 10.8469 18.3714 9.55981C18.3714 9.55981 17.8286 5.25648 15.1145 6.90171C13.6764 7.77469 15.1929 10.6231 17.4145 10.7182L20.6266 15.3573C20.6266 15.3573 21.5555 16.4541 21.8018 17.4502C22.048 18.4463 24.8628 21.1547 25.4783 25.5364L26.189 28.8548L33.0162 29.7558L33.0106 29.7614Z" fill="#FCC0A9"/>
<path d="M30.4592 17.9038V17.9094L30.42 18.4019L30.2801 20.0527H28.3215V18.5082L30.4592 17.9038Z" fill="#FCC0A9"/>
<g style="mix-blend-mode:multiply">
<path d="M30.4592 17.9094L30.42 18.4019C29.4575 19.4819 28.3215 18.9782 28.3215 18.9782V18.5082L30.4536 17.9038L30.4592 17.9094Z" fill="#D3D3D3"/>
</g>
<path d="M31.4157 15.6322C31.4157 15.6322 31.785 14.8264 31.4045 14.1437C31.4045 14.1437 31.8018 13.3714 31.4828 13.0189C31.4828 13.0189 31.3205 12.851 31.2254 13.0581C31.2254 13.0581 31.3261 11.6535 29.4459 11.9053C28.7744 11.9948 28.0916 11.9389 27.4257 11.7822C27.0228 11.687 26.5471 11.8549 26.2673 12.9293C25.7077 15.0726 26.7094 14.6977 26.7094 14.6977L26.9277 15.9456L27.1291 16.2534L29.6865 16.2981L30.3245 16.757C30.3245 16.757 31.2814 16.6507 31.3038 16.6339C31.3261 16.6115 31.4101 15.6266 31.4101 15.6266L31.4157 15.6322Z" fill="#393E52"/>
<path d="M31.5666 16.0179C31.505 15.1618 30.9454 15.9116 30.9286 16.3705C30.9286 16.3705 30.7272 16.0347 30.8111 15.6206C30.8111 15.6206 30.0892 15.3073 30.1116 14.8316C30.1116 14.8316 29.3114 15.2457 29.3897 14.563C29.3897 14.563 28.209 15.0219 27.2521 14.8316C27.2521 14.8316 27.3696 15.6038 27.073 15.7717L27.2353 17.1036C27.2353 17.1036 28.0523 19.1461 29.2554 18.6481C29.5744 18.5138 29.8486 18.3683 30.0781 18.2172C30.7104 17.7975 31.007 17.3442 30.9902 17.0252C30.9902 17.0252 31.6281 16.8797 31.5722 16.0235L31.5666 16.0179Z" fill="#FCC0A9"/>
<path d="M27.2355 17.1031C27.2355 17.1031 26.771 16.6386 26.9221 15.8888C27.0732 15.1445 27.8342 16.9968 27.8342 16.9968L27.2355 17.1031Z" fill="#FFBEA1"/>
<path d="M33.4415 16.1963L35.9765 18.4179L34.432 21.7364C34.432 21.7364 34.1186 22.6485 34.1858 23.7957L34.1522 30.371L26.6703 30.3542L24.8348 30.0073V29.2238L25.0195 28.7202L24.7509 28.3732C24.7509 28.3732 25.5679 23.5215 23.7492 20.8634L22.3838 18.8488C22.3838 18.8488 23.9283 16.1404 23.8779 15.564L25.512 17.4722C25.6686 17.6569 25.8645 17.808 26.0772 17.9199L27.1292 18.4627C27.437 18.6194 27.6888 18.8656 27.8735 19.1622C28.0973 19.5259 28.517 19.996 29.2165 20.0464C30.7218 20.1583 31.2423 18.7369 31.2423 18.7369L33.4359 16.1907L33.4415 16.1963Z" fill="#45718E"/>
<path d="M48.2145 34.8766H11.3704C10.3855 34.8766 9.59082 34.0428 9.59082 33.0187V31.8772C9.59082 30.8531 10.391 30.0193 11.3704 30.0193H48.2201C49.2049 30.0193 49.9996 30.8531 49.9996 31.8772V33.0187C49.9996 34.0428 49.1994 34.8766 48.2201 34.8766H48.2145Z" fill="#D7ECFF"/>
<path d="M44.2026 29.8124C44.2026 29.8124 41.7851 26.5723 34.3816 26.5723C26.9781 26.5723 22.4621 23.2595 18.6344 25.593C14.8068 27.9266 11.6842 28.6652 12.5124 29.79C13.3406 30.9204 27.8622 29.3368 28.5841 30.4672C29.306 31.5976 32.3838 38.6765 34.1466 35.8505C36.564 31.9725 42.8483 30.5791 43.7157 30.5007C44.5831 30.428 44.2026 29.8012 44.2026 29.8012V29.8124Z" fill="#EFBF53"/>
<path d="M5.11991 26.532H4.8457V30.2086H5.11991V26.532Z" fill="#CBDDF1"/>
<path d="M6.19445 30.6567H3.8833C3.8833 30.4105 4.07357 30.2146 4.3086 30.2146H5.76915C6.00419 30.2146 6.19445 30.4105 6.19445 30.6567Z" fill="#ADC4D8"/>
<path d="M6.64192 26.6279H3.32349L4.35875 23.3542H5.60666L6.64192 26.6279Z" fill="#EFBF53"/>
</g>
<defs>
<clipPath id="clip0_1268_77390">
<rect width="50" height="50" fill="white"/>
</clipPath>
</defs>
</svg>
