<svg width="100" height="100" viewBox="0 0 100 100" fill="none" xmlns="http://www.w3.org/2000/svg">
<mask id="mask0_1268_76100" style="mask-type:luminance" maskUnits="userSpaceOnUse" x="26" y="51" width="23" height="37">
<path d="M41.7043 87.1128H33.5853C32.1659 87.1128 30.9641 86.0625 30.7654 84.6525L26.2422 51.5234H48.6594L44.5242 84.6147C44.3444 86.0341 43.1332 87.1034 41.7043 87.1034V87.1128Z" fill="white"/>
</mask>
<g mask="url(#mask0_1268_76100)">
<path d="M75.3823 57.4082H42.9346V89.856H75.3823V57.4082Z" fill="#F1C073"/>
<path d="M75.3823 24.9609H42.9346V57.4087H75.3823V24.9609Z" fill="#F1C073"/>
<path d="M42.9346 57.4082H10.4868V89.856H42.9346V57.4082Z" fill="#F1C073"/>
<path d="M42.9346 24.9609H10.4868V57.4087H42.9346V24.9609Z" fill="#F1C073"/>
</g>
<path d="M33.8125 65.0545C32.7711 65.0545 31.9199 64.3297 31.9199 63.4258V53.4353C31.9199 52.5392 32.7621 51.8066 33.8125 51.8066C34.8538 51.8066 35.705 52.5314 35.705 53.4353V63.4258C35.705 64.322 34.8629 65.0545 33.8125 65.0545Z" fill="#EDEDED"/>
<mask id="mask1_1268_76100" style="mask-type:luminance" maskUnits="userSpaceOnUse" x="26" y="51" width="23" height="37">
<path d="M41.7043 87.1128H33.5853C32.1659 87.1128 30.9641 86.0625 30.7654 84.6525L26.2422 51.5234H48.6594L44.5242 84.6147C44.3444 86.0341 43.1332 87.1034 41.7043 87.1034V87.1128Z" fill="white"/>
</mask>
<g mask="url(#mask1_1268_76100)">
<mask id="mask2_1268_76100" style="mask-type:luminance" maskUnits="userSpaceOnUse" x="28" y="82" width="19" height="6">
<path d="M46.4736 82.7598H28.1064V87.8696H46.4736V82.7598Z" fill="white"/>
</mask>
<g mask="url(#mask2_1268_76100)">
<path d="M75.3823 57.4102H42.9346V89.8579H75.3823V57.4102Z" fill="#F2AB41"/>
<path d="M42.9346 57.4102H10.4868V89.8579H42.9346V57.4102Z" fill="#F2AB41"/>
</g>
</g>
<mask id="mask3_1268_76100" style="mask-type:luminance" maskUnits="userSpaceOnUse" x="26" y="51" width="23" height="37">
<path d="M41.7043 87.1128H33.5853C32.1659 87.1128 30.9641 86.0625 30.7654 84.6525L26.2422 51.5234H48.6594L44.5242 84.6147C44.3444 86.0341 43.1332 87.1034 41.7043 87.1034V87.1128Z" fill="white"/>
</mask>
<g mask="url(#mask3_1268_76100)">
<path d="M48.6594 51.5312H26.2422V56.6884H48.6594V51.5312Z" fill="#EDEDED"/>
</g>
<mask id="mask4_1268_76100" style="mask-type:luminance" maskUnits="userSpaceOnUse" x="38" y="69" width="3" height="3">
<path d="M40.0484 70.4659C40.0484 70.8538 39.7362 71.1661 39.3482 71.1661C38.9602 71.1661 38.6479 70.8538 38.6479 70.4659C38.6479 70.0779 38.9602 69.7656 39.3482 69.7656C39.7362 69.7656 40.0484 70.0779 40.0484 70.4659Z" fill="white"/>
</mask>
<g mask="url(#mask4_1268_76100)">
<path d="M42.9346 57.4082H10.4868V89.856H42.9346V57.4082Z" fill="#F2AB41"/>
</g>
<mask id="mask5_1268_76100" style="mask-type:luminance" maskUnits="userSpaceOnUse" x="40" y="64" width="2" height="2">
<path d="M40.7584 65.756C41.1451 65.756 41.4586 65.4425 41.4586 65.0557C41.4586 64.669 41.1451 64.3555 40.7584 64.3555C40.3716 64.3555 40.0581 64.669 40.0581 65.0557C40.0581 65.4425 40.3716 65.756 40.7584 65.756Z" fill="white"/>
</mask>
<g mask="url(#mask5_1268_76100)">
<path d="M42.9346 57.4102H10.4868V89.8579H42.9346V57.4102Z" fill="#F2AB41"/>
</g>
<mask id="mask6_1268_76100" style="mask-type:luminance" maskUnits="userSpaceOnUse" x="32" y="68" width="2" height="1">
<path d="M32.6961 68.9625C32.9522 68.9625 33.1598 68.7549 33.1598 68.4988C33.1598 68.2428 32.9522 68.0352 32.6961 68.0352C32.44 68.0352 32.2324 68.2428 32.2324 68.4988C32.2324 68.7549 32.44 68.9625 32.6961 68.9625Z" fill="white"/>
</mask>
<g mask="url(#mask6_1268_76100)">
<path d="M42.9346 57.4082H10.4868V89.856H42.9346V57.4082Z" fill="#F2AB41"/>
</g>
<mask id="mask7_1268_76100" style="mask-type:luminance" maskUnits="userSpaceOnUse" x="34" y="74" width="2" height="2">
<path d="M35.6199 75.0663C35.6199 75.3407 35.4022 75.5583 35.1278 75.5583C34.8534 75.5583 34.6357 75.3407 34.6357 75.0663C34.6357 74.7919 34.8534 74.5742 35.1278 74.5742C35.4022 74.5742 35.6199 74.7919 35.6199 75.0663Z" fill="white"/>
</mask>
<g mask="url(#mask7_1268_76100)">
<path d="M42.9346 57.4082H10.4868V89.856H42.9346V57.4082Z" fill="#F2AB41"/>
</g>
<mask id="mask8_1268_76100" style="mask-type:luminance" maskUnits="userSpaceOnUse" x="38" y="59" width="2" height="2">
<path d="M39.386 59.7753C39.386 59.974 39.2252 60.1443 39.017 60.1443C38.8088 60.1443 38.6479 59.9835 38.6479 59.7753C38.6479 59.5671 38.8088 59.4062 39.017 59.4062C39.2252 59.4062 39.386 59.5671 39.386 59.7753Z" fill="white"/>
</mask>
<g mask="url(#mask8_1268_76100)">
<path d="M42.9346 57.4102H10.4868V89.8579H42.9346V57.4102Z" fill="#F2AB41"/>
</g>
<mask id="mask9_1268_76100" style="mask-type:luminance" maskUnits="userSpaceOnUse" x="39" y="75" width="2" height="2">
<path d="M40.7673 76.0787C40.7673 76.3721 40.5308 76.6087 40.2374 76.6087C39.9441 76.6087 39.7075 76.3721 39.7075 76.0787C39.7075 75.7854 39.9441 75.5488 40.2374 75.5488C40.5308 75.5488 40.7673 75.7854 40.7673 76.0787Z" fill="white"/>
</mask>
<g mask="url(#mask9_1268_76100)">
<path d="M42.9346 57.4102H10.4868V89.8579H42.9346V57.4102Z" fill="#F2AB41"/>
</g>
<mask id="mask10_1268_76100" style="mask-type:luminance" maskUnits="userSpaceOnUse" x="41" y="12" width="30" height="76">
<path d="M69.3924 51.3242C69.3262 48.088 67.3484 45.1924 64.3487 43.9906C64.3393 43.9906 64.3298 43.9906 64.3109 43.9717C63.3173 43.5743 62.9009 42.382 63.4592 41.4735L65.1152 38.7672C65.3329 38.4076 65.418 37.9818 65.3423 37.5749L61.0084 12.9434H50.5615L46.2276 37.6884C46.1519 38.1048 46.2276 38.5306 46.4642 38.8902L48.0823 41.5114C48.6406 42.4198 48.2337 43.6026 47.2496 44.0001H47.2306C44.231 45.2019 42.2532 48.0975 42.187 51.3337L41.5814 79.3245C41.4868 83.8761 45.1488 87.6044 49.7004 87.6044H61.879C66.44 87.6044 70.1021 83.8761 69.998 79.3245L69.3924 51.3337V51.3242Z" fill="white"/>
</mask>
<g mask="url(#mask10_1268_76100)">
<path d="M75.3823 57.4102H42.9346V89.8579H75.3823V57.4102Z" fill="#874D00"/>
<path d="M75.3823 24.9609H42.9346V57.4087H75.3823V24.9609Z" fill="#874D00"/>
<path d="M75.3823 -7.48633H42.9346V24.9614H75.3823V-7.48633Z" fill="#874D00"/>
<path d="M42.9346 57.4102H10.4868V89.8579H42.9346V57.4102Z" fill="#874D00"/>
<path d="M42.9346 24.9609H10.4868V57.4087H42.9346V24.9609Z" fill="#874D00"/>
<path d="M42.9346 -7.48633H10.4868V24.9614H42.9346V-7.48633Z" fill="#874D00"/>
</g>
<mask id="mask11_1268_76100" style="mask-type:luminance" maskUnits="userSpaceOnUse" x="49" y="9" width="14" height="4">
<path d="M62.0586 12.934H49.5205L50.0599 10.7008C50.2681 9.83023 51.044 9.22461 51.9335 9.22461H59.6456C60.5351 9.22461 61.3111 9.83969 61.5193 10.7008L62.0586 12.934Z" fill="white"/>
</mask>
<g mask="url(#mask11_1268_76100)">
<path d="M75.3823 -7.48633H42.9346V24.9614H75.3823V-7.48633Z" fill="#FFDE55"/>
</g>
<mask id="mask12_1268_76100" style="mask-type:luminance" maskUnits="userSpaceOnUse" x="46" y="53" width="20" height="27">
<path d="M65.503 53.0078H46.0854V79.6833H65.503V53.0078Z" fill="white"/>
</mask>
<g mask="url(#mask12_1268_76100)">
<path d="M75.3818 57.4082H42.9341V89.856H75.3818V57.4082Z" fill="#FF9811"/>
<path d="M75.3818 24.9609H42.9341V57.4087H75.3818V24.9609Z" fill="#FF9811"/>
</g>
<mask id="mask13_1268_76100" style="mask-type:luminance" maskUnits="userSpaceOnUse" x="45" y="52" width="21" height="29">
<path d="M63.109 55.4228V77.2723H48.4702V55.4228H63.109ZM65.9479 52.584H45.6313V80.1111H65.9479V52.584Z" fill="white"/>
</mask>
<g mask="url(#mask13_1268_76100)">
<path d="M82.1294 50.6641H49.6816V83.1118H82.1294V50.6641Z" fill="#FEE579"/>
<path d="M49.6816 50.6641H17.2339V83.1118H49.6816V50.6641Z" fill="#FEE579"/>
<path d="M82.1294 50.6641H49.6816V83.1118H82.1294V50.6641Z" fill="#FEE579"/>
<path d="M49.6816 50.6641H17.2339V83.1118H49.6816V50.6641Z" fill="#FEE579"/>
</g>
<mask id="mask14_1268_76100" style="mask-type:luminance" maskUnits="userSpaceOnUse" x="41" y="12" width="30" height="76">
<path d="M69.3924 51.3242C69.3262 48.088 67.3484 45.1924 64.3487 43.9906C64.3393 43.9906 64.3298 43.9906 64.3109 43.9717C63.3173 43.5743 62.9009 42.382 63.4592 41.4735L65.1152 38.7672C65.3329 38.4076 65.418 37.9818 65.3423 37.5749L61.0084 12.9434H50.5615L46.2276 37.6884C46.1519 38.1048 46.2276 38.5306 46.4642 38.8902L48.0823 41.5114C48.6406 42.4198 48.2337 43.6026 47.2496 44.0001H47.2306C44.231 45.2019 42.2532 48.0975 42.187 51.3337L41.5814 79.3245C41.4868 83.8761 45.1488 87.6044 49.7004 87.6044H61.879C66.44 87.6044 70.1021 83.8761 69.998 79.3245L69.3924 51.3337V51.3242Z" fill="white"/>
</mask>
<g mask="url(#mask14_1268_76100)">
<mask id="mask15_1268_76100" style="mask-type:luminance" maskUnits="userSpaceOnUse" x="44" y="23" width="23" height="11">
<path d="M66.0424 23.1738H44.8647V33.5828H66.0424V23.1738Z" fill="white"/>
</mask>
<g mask="url(#mask15_1268_76100)">
<path d="M75.3818 24.9609H42.9341V57.4087H75.3818V24.9609Z" fill="#FF9811"/>
<path d="M75.3818 -7.48633H42.9341V24.9614H75.3818V-7.48633Z" fill="#FF9811"/>
</g>
</g>
<mask id="mask16_1268_76100" style="mask-type:luminance" maskUnits="userSpaceOnUse" x="48" y="21" width="15" height="15">
<path d="M55.6141 35.1237C59.2985 35.1237 62.2853 32.1369 62.2853 28.4525C62.2853 24.7681 59.2985 21.7812 55.6141 21.7812C51.9297 21.7812 48.9429 24.7681 48.9429 28.4525C48.9429 32.1369 51.9297 35.1237 55.6141 35.1237Z" fill="white"/>
</mask>
<g mask="url(#mask16_1268_76100)">
<path d="M68.9582 -2.67572L61.5542 28.916L93.1459 36.32L100.55 4.72824L68.9582 -2.67572Z" fill="#FFB655"/>
<path d="M37.3712 -10.082L29.9673 21.5098L61.559 28.9137L68.963 -2.67801L37.3712 -10.082Z" fill="#FFB655"/>
<path d="M61.5631 28.9141L54.1592 60.5059L85.7509 67.9098L93.1549 36.3181L61.5631 28.9141Z" fill="#FFB655"/>
<path d="M29.9645 21.5059L22.5605 53.0977L54.1523 60.5016L61.5562 28.9099L29.9645 21.5059Z" fill="#FFB655"/>
</g>
<mask id="mask17_1268_76100" style="mask-type:luminance" maskUnits="userSpaceOnUse" x="51" y="24" width="9" height="9">
<path d="M55.6048 32.5226C57.8573 32.5226 59.6833 30.6966 59.6833 28.4442C59.6833 26.1917 57.8573 24.3657 55.6048 24.3657C53.3523 24.3657 51.5264 26.1917 51.5264 28.4442C51.5264 30.6966 53.3523 32.5226 55.6048 32.5226Z" fill="white"/>
</mask>
<g mask="url(#mask17_1268_76100)">
<path d="M75.3818 24.9609H42.9341V57.4087H75.3818V24.9609Z" fill="#FEE579"/>
<path d="M75.3818 -7.48633H42.9341V24.9614H75.3818V-7.48633Z" fill="#FEE579"/>
</g>
<mask id="mask18_1268_76100" style="mask-type:luminance" maskUnits="userSpaceOnUse" x="41" y="12" width="30" height="76">
<path d="M69.3924 51.3242C69.3262 48.088 67.3484 45.1924 64.3487 43.9906C64.3393 43.9906 64.3298 43.9906 64.3109 43.9717C63.3173 43.5743 62.9009 42.382 63.4592 41.4735L65.1152 38.7672C65.3329 38.4076 65.418 37.9818 65.3423 37.5749L61.0084 12.9434H50.5615L46.2276 37.6884C46.1519 38.1048 46.2276 38.5306 46.4642 38.8902L48.0823 41.5114C48.6406 42.4198 48.2337 43.6026 47.2496 44.0001H47.2306C44.231 45.2019 42.2532 48.0975 42.187 51.3337L41.5814 79.3245C41.4868 83.8761 45.1488 87.6044 49.7004 87.6044H61.879C66.44 87.6044 70.1021 83.8761 69.998 79.3245L69.3924 51.3337V51.3242Z" fill="white"/>
</mask>
<g mask="url(#mask18_1268_76100)">
<mask id="mask19_1268_76100" style="mask-type:luminance" maskUnits="userSpaceOnUse" x="50" y="12" width="12" height="3">
<path d="M61.2635 12.9336H50.3057V14.3435H61.2635V12.9336Z" fill="white"/>
</mask>
<g mask="url(#mask19_1268_76100)">
<path d="M75.3818 -7.48633H42.9341V24.9614H75.3818V-7.48633Z" fill="#653902"/>
</g>
</g>
<mask id="mask20_1268_76100" style="mask-type:luminance" maskUnits="userSpaceOnUse" x="47" y="57" width="17" height="19">
<path d="M63.6295 66.7383L47.3726 75.3399V65.9434L63.6295 57.3418V66.7383Z" fill="white"/>
</mask>
<g mask="url(#mask20_1268_76100)">
<path d="M75.3823 57.4082H42.9346V89.856H75.3823V57.4082Z" fill="#FEE579"/>
<path d="M75.3823 24.9609H42.9346V57.4087H75.3823V24.9609Z" fill="#FEE579"/>
</g>
<mask id="mask21_1268_76100" style="mask-type:luminance" maskUnits="userSpaceOnUse" x="41" y="12" width="30" height="76">
<path d="M69.3924 51.3242C69.3262 48.088 67.3484 45.1924 64.3487 43.9906C64.3393 43.9906 64.3298 43.9906 64.3109 43.9717C63.3173 43.5743 62.9009 42.382 63.4592 41.4735L65.1152 38.7672C65.3329 38.4076 65.418 37.9818 65.3423 37.5749L61.0084 12.9434H50.5615L46.2276 37.6884C46.1519 38.1048 46.2276 38.5306 46.4642 38.8902L48.0823 41.5114C48.6406 42.4198 48.2337 43.6026 47.2496 44.0001H47.2306C44.231 45.2019 42.2532 48.0975 42.187 51.3337L41.5814 79.3245C41.4868 83.8761 45.1488 87.6044 49.7004 87.6044H61.879C66.44 87.6044 70.1021 83.8761 69.998 79.3245L69.3924 51.3337V51.3242Z" fill="white"/>
</mask>
<g mask="url(#mask21_1268_76100)">
<mask id="mask22_1268_76100" style="mask-type:luminance" maskUnits="userSpaceOnUse" x="41" y="84" width="30" height="4">
<path d="M70.017 87.4629L41.5909 87.7278L41.5625 84.7281L69.9886 84.4727L70.017 87.4629Z" fill="white"/>
</mask>
<g mask="url(#mask22_1268_76100)">
<path d="M75.3823 57.4102H42.9346V89.8579H75.3823V57.4102Z" fill="#653902"/>
</g>
</g>
<path d="M50 2C76.5097 2 98 23.4903 98 50C98 76.5097 76.5097 98 50 98C23.4903 98 2 76.5097 2 50C2 23.4903 23.4903 2 50 2ZM24.7773 81.2529C31.672 86.8242 40.4453 90.1631 50 90.1631C72.1816 90.1631 90.1631 72.1816 90.1631 50C90.1631 40.4453 86.8242 31.672 81.2529 24.7773L24.7773 81.2529ZM50 9.83691C27.8184 9.83691 9.83691 27.8184 9.83691 50C9.83691 59.8046 13.3513 68.7875 19.1875 75.7607L75.7607 19.1875C68.7875 13.3513 59.8046 9.83691 50 9.83691Z" fill="#FF5959"/>
</svg>
