<svg width="50" height="50" viewBox="0 0 50 50" fill="none" xmlns="http://www.w3.org/2000/svg">
<path d="M35.2727 1.93005C36.2347 1.49588 37.3754 1.31711 38.3715 1.74276C39.2228 2.06626 39.8783 2.77284 40.2273 3.60712C40.4912 4.19453 40.5423 4.86706 40.9084 5.40338C41.2233 5.91417 41.7001 6.28023 42.2109 6.57818C43.1558 7.14856 43.9645 8.14459 43.922 9.29386C43.9135 10.3069 43.1643 11.2604 42.1683 11.4647C41.7682 11.5583 41.3425 11.5413 40.9594 11.3881C40.6955 11.2774 40.4061 11.2774 40.1252 11.2774C39.8698 11.0731 39.5718 10.9369 39.2738 10.8007C39.061 10.6134 38.8397 10.4346 38.6183 10.2643C38.5162 10.1792 38.414 10.0941 38.3204 10.0004C38.0054 9.59181 37.7415 9.14062 37.5797 8.65538C37.5712 8.61281 37.5457 8.53619 37.5372 8.50214C37.3584 7.93176 37.2818 7.33585 37.2392 6.73993C37.452 6.57819 37.6649 6.38238 37.7415 6.10997C37.8607 5.76944 37.6564 5.31825 37.2733 5.27568C36.9753 5.22461 36.7965 5.58216 36.5071 5.52256C35.5366 5.40338 34.6598 4.84152 34.1064 4.04129C33.9617 3.82846 33.8936 3.56456 33.9787 3.31768C34.149 2.6792 34.6853 2.20247 35.2727 1.93005Z" fill="#2F1B19" stroke="#2F1B19" stroke-width="0.00578923"/>
<path d="M33.8506 6.05031C33.8932 5.37778 33.8251 4.67971 34.089 4.03271C34.6423 4.82443 35.5277 5.3948 36.4897 5.51399C36.7791 5.58209 36.9664 5.21603 37.2559 5.26711C37.6389 5.30968 37.8347 5.76938 37.7241 6.10139C37.6475 6.37381 37.4346 6.5611 37.2218 6.73136C37.2559 7.32727 37.341 7.92319 37.5198 8.49356C37.1111 8.68936 36.728 8.93624 36.2854 9.0384C35.7235 9.1661 35.0595 9.09799 34.6338 8.66382C34.3018 8.35735 34.1571 7.91468 34.0209 7.49754C33.9783 7.2762 33.7059 7.25917 33.5356 7.18255C33.5527 6.79095 33.8421 6.45894 33.8506 6.05031ZM34.4806 5.56507C34.3188 5.7183 34.3529 6.02477 34.5317 6.15247C34.9573 6.26314 34.8892 5.29265 34.4806 5.56507Z" fill="#F8AF9A" stroke="#F8AF9A" stroke-width="0.00578923"/>
<path d="M34.4808 5.5648C34.8895 5.29238 34.9576 6.26287 34.5319 6.1522C34.3532 6.03301 34.3191 5.71803 34.4808 5.5648Z" fill="#070807" stroke="#070807" stroke-width="0.00578923"/>
<path d="M36.2856 9.03776C36.7282 8.9356 37.1113 8.68021 37.52 8.49292C37.5285 8.52697 37.554 8.60359 37.5625 8.64616C37.188 9.07181 36.7793 9.48044 36.3366 9.82947C36.2941 9.57406 36.2515 9.31016 36.2856 9.03776Z" fill="#ED846E" stroke="#ED846E" stroke-width="0.00578923"/>
<path d="M37.5711 8.646C37.7414 9.13124 37.9967 9.58243 38.3117 9.99106C38.3202 10.0251 38.3373 10.1017 38.3458 10.1443C37.6647 10.3401 37.0518 10.7232 36.3537 10.8509C36.3452 10.5104 36.3452 10.1783 36.3452 9.83783C36.7879 9.48028 37.1965 9.07165 37.5711 8.646Z" fill="#F8B099" stroke="#F8B099" stroke-width="0.00578923"/>
<path d="M38.3117 9.99072C38.4053 10.0844 38.5075 10.178 38.6096 10.2546C37.7753 10.2802 36.9666 10.7058 36.4388 11.3528C35.7833 12.0849 35.5109 13.0895 35.5194 14.0515C35.5109 15.2092 35.9791 16.35 36.7453 17.2013C37.1624 17.6695 37.6051 18.1122 38.0903 18.5123C38.1159 18.6655 38.1414 18.8273 38.1754 18.989C37.0432 19.7722 35.945 20.6065 34.8383 21.4153C34.8894 20.0702 34.949 18.7166 35.0001 17.3716C35.0171 17.2268 34.9235 17.1077 34.8553 16.9885C34.4212 16.2393 34.2424 15.3029 34.5489 14.4686C34.983 13.3534 35.4257 12.2467 35.9195 11.157C35.9876 10.9697 36.1749 10.8846 36.3536 10.842C37.0517 10.7143 37.6647 10.3312 38.3457 10.1354C38.3372 10.1014 38.3202 10.0248 38.3117 9.99072Z" fill="#DEE2E9" stroke="white" stroke-width="0.00578923"/>
<path d="M36.4388 11.3536C36.9666 10.7066 37.7753 10.2894 38.6096 10.2554C38.831 10.4256 39.0523 10.6044 39.2651 10.7917C38.6607 10.6895 38.0307 10.8172 37.5114 11.1407C36.8219 11.5408 36.3792 12.273 36.1834 13.0306C35.9535 13.9586 36.0557 14.9801 36.4899 15.8399C36.8304 16.538 37.3667 17.1169 37.9371 17.6362C37.9882 17.9257 38.0307 18.2151 38.0818 18.5045C37.5966 18.1044 37.1539 17.6617 36.7367 17.1935C35.9706 16.3337 35.5023 15.2015 35.5109 14.0437C35.5109 13.0902 35.7918 12.0857 36.4388 11.3536Z" fill="#283046" stroke="#283046" stroke-width="0.00578923"/>
<path d="M37.52 11.1496C38.0393 10.8261 38.6692 10.6899 39.2737 10.8006C39.5716 10.9368 39.8696 11.0645 40.125 11.2773C40.5676 11.6349 40.8996 12.1286 41.0359 12.682C41.0614 12.9033 41.0784 13.1332 41.0869 13.3545C41.1721 15.4998 41.2742 17.6366 41.3423 19.7819C41.121 19.6201 40.8997 19.4499 40.6698 19.2967C40.5932 18.1218 40.5591 16.9385 40.5166 15.7637C40.457 14.7677 40.3974 13.7632 40.3463 12.7671C40.3293 12.3244 40.1675 11.8818 39.844 11.5668C39.3843 11.1156 38.6352 10.9879 38.0478 11.2518C37.4178 11.4987 37.0943 12.2308 37.1965 12.8778C37.4348 14.4697 37.7243 16.0617 37.9456 17.6536C37.3752 17.1343 36.8389 16.5554 36.4984 15.8574C36.0557 14.9975 35.9621 13.9845 36.1919 13.0481C36.3792 12.2819 36.8304 11.5498 37.52 11.1496Z" fill="#DEE2E9" stroke="#FEFFFE" stroke-width="0.00578923"/>
<path d="M38.0391 11.2431C38.6265 10.9792 39.3756 11.0984 39.8353 11.5581C40.1588 11.8731 40.3206 12.3158 40.3376 12.7584C40.3887 13.7545 40.4568 14.759 40.5079 15.7551C40.5504 16.9299 40.5845 18.1132 40.6611 19.288C40.6696 19.5178 40.6781 19.7562 40.6696 19.986C40.5845 20.3606 40.3887 20.7352 40.0311 20.9225C38.2349 21.7823 36.4471 22.6506 34.6594 23.536C34.0209 23.834 33.408 24.166 32.778 24.4724C32.4971 24.5916 32.4119 24.9066 32.2672 25.1535C32.131 25.4259 31.9437 25.6558 31.7479 25.8771C31.6798 25.9537 31.6202 26.0303 31.5521 26.1069C31.135 26.4475 30.5306 26.3964 30.0708 26.175C30.0027 26.141 29.875 26.0644 29.8069 26.0303C29.6622 25.9707 29.509 25.9282 29.3643 25.8856C29.6878 25.2897 30.2071 24.8555 30.6668 24.3703C30.5391 24.3873 30.4199 24.4128 30.2922 24.4384H30.19C30.5901 23.7573 31.4329 23.553 32.131 23.3317C33.0589 22.7443 33.9188 22.0632 34.8126 21.4248C35.9193 20.616 37.0175 19.7817 38.1498 18.9985C38.1242 18.8368 38.0987 18.6835 38.0646 18.5218C38.0135 18.2324 37.971 17.9429 37.9199 17.6535C37.6986 16.0615 37.4091 14.4696 37.1707 12.8776C37.0856 12.2307 37.4176 11.49 38.0391 11.2431Z" fill="#F7AF99" stroke="#F7AF99" stroke-width="0.00578923"/>
<path d="M40.1162 11.2683C40.3971 11.2683 40.6866 11.2683 40.9505 11.379C41.3336 11.5322 41.7592 11.5492 42.1593 11.4556C42.7042 11.6599 43.232 11.9323 43.6576 12.3324C44.4579 13.0475 44.8495 14.1117 44.9942 15.1588C45.0368 15.4312 45.0112 15.7036 44.9176 15.959L44.892 15.9505C44.7048 15.8909 44.4664 15.9079 44.3472 15.7292C43.5214 14.7331 42.5509 13.8648 41.4783 13.1497C41.291 13.022 41.1463 12.8517 41.0271 12.673C40.8909 12.1196 40.5589 11.6344 40.1162 11.2683Z" fill="#2A314C" stroke="#2A314C" stroke-width="0.00578923"/>
<path d="M41.0359 12.6821C41.1551 12.8694 41.2998 13.0312 41.4871 13.1589C42.5597 13.874 43.5302 14.7423 44.356 15.7383C44.4837 15.9171 44.7135 15.9001 44.9008 15.9597C44.7646 16.1299 44.5603 16.1384 44.3645 16.1384C44.373 16.2491 44.373 16.3598 44.3815 16.4704C44.1687 16.0022 43.7771 15.6617 43.4451 15.2786C42.9003 14.7423 42.2788 14.2911 41.6999 13.7888C41.5041 13.6271 41.2913 13.4824 41.0785 13.3547C41.0699 13.1248 41.0614 12.9035 41.0359 12.6821Z" fill="#1E2335" stroke="#1E2335" stroke-width="0.00578923"/>
<path d="M41.0785 13.354C41.2914 13.4817 41.5042 13.6179 41.7 13.7882C42.2704 14.2904 42.8918 14.7416 43.4452 15.278C43.7687 15.661 44.1688 16.0016 44.3816 16.4698C44.3986 16.6571 44.3901 16.8444 44.4072 17.0317C44.5519 18.547 44.637 20.0623 44.7562 21.5776C44.7392 22.0884 44.4838 22.6077 44.0241 22.8546C43.3515 23.2377 42.5428 23.1185 41.8022 23.1866C41.6659 22.2842 41.5042 21.3903 41.3935 20.488C41.1637 20.3177 40.9253 20.1559 40.6784 19.9942C40.6955 19.7643 40.6869 19.526 40.6699 19.2961C40.8913 19.4579 41.1126 19.6196 41.3425 19.7814C41.2658 17.6361 41.1637 15.4908 41.0785 13.354Z" fill="#2A304A" stroke="#2A304A" stroke-width="0.00578923"/>
<path d="M44.3984 17.032C44.7219 17.015 45.0795 17.0746 45.3093 17.3214C45.5051 17.5087 45.5477 17.7897 45.5732 18.0451C45.6413 18.9304 45.735 19.8073 45.7861 20.6926C45.8031 20.9821 45.6669 21.2885 45.4115 21.4418C45.2157 21.561 44.9688 21.5524 44.7475 21.5695C44.6283 20.0541 44.5432 18.5388 44.3984 17.032Z" fill="#1D2236" stroke="#1D2236" stroke-width="0.00578923"/>
<path d="M40.6784 19.9863C40.9167 20.1481 41.1551 20.3098 41.3935 20.4801C41.5041 21.3825 41.6659 22.2849 41.8021 23.1787C41.9042 23.9194 42.0405 24.6515 42.1256 25.3921C42.0064 25.3921 41.8872 25.3921 41.768 25.3921C39.461 25.3921 37.154 25.4006 34.8384 25.4092C34.7703 25.4092 34.6426 25.4092 34.583 25.4092C34.6 24.7877 34.6681 24.1577 34.6767 23.5363C36.4644 22.6509 38.2521 21.7911 40.0484 20.9228C40.3974 20.7355 40.5932 20.3694 40.6784 19.9863Z" fill="#DEE2E9" stroke="white" stroke-width="0.00578923"/>
<path d="M30.3091 24.4382C30.4368 24.4212 30.556 24.3957 30.6837 24.3701C30.224 24.8554 29.7047 25.2895 29.3812 25.8854C29.262 26.0727 29.1684 26.277 29.0832 26.4814C29.3301 26.3281 29.56 26.1408 29.8324 26.0302C29.9005 26.0642 30.0282 26.1408 30.0963 26.1749C29.7472 26.4303 29.3727 26.6431 29.0236 26.89C29.279 27.6051 30.1559 27.9286 30.8369 27.6306C31.4158 27.3837 31.6542 26.6942 31.5776 26.1068C31.6457 26.0302 31.7053 25.9535 31.7734 25.8769C31.7989 25.8599 31.8585 25.8344 31.8925 25.8259C31.9862 26.4303 31.9011 27.1113 31.4669 27.571C30.7348 28.4053 29.1598 28.1329 28.7682 27.0943C27.7211 27.7753 26.6911 28.4734 25.6439 29.1545C24.5032 29.8951 23.3624 30.6443 22.2302 31.3934C18.4674 33.8196 14.6961 36.2373 10.8482 38.5188C10.1246 38.9615 9.39249 39.3872 8.65185 39.8213C8.31133 40.0342 7.94527 40.2129 7.64731 40.4854C7.52813 40.6045 7.40043 40.7237 7.2472 40.8089C6.42994 41.3196 5.59566 41.8049 4.73584 42.2391C4.6422 42.1454 4.57409 42.0347 4.54004 41.8985C5.18703 41.907 5.68079 41.4133 6.02983 40.9195C6.38738 40.6897 6.74492 40.4513 7.1195 40.23C7.42597 40.2044 7.69839 40.0512 7.95378 39.8894C9.01791 39.2765 10.0735 38.6295 11.1292 37.9995C14.7983 35.8032 18.4163 33.5046 22.0003 31.1636C23.0815 30.4655 24.1797 29.7844 25.2268 29.0438C26.4016 28.3032 27.5424 27.5114 28.7087 26.7623C28.8023 25.7577 29.577 25.0427 30.3091 24.4382Z" fill="#172031" stroke="#172031" stroke-width="0.00578923"/>
<path d="M34.8384 25.4091C37.1454 25.4006 39.461 25.3921 41.768 25.3921C41.6829 26.1923 41.4105 26.9585 40.9593 27.6225C39.9292 29.6571 38.9332 31.7088 37.9286 33.7604C37.869 33.8967 37.8094 34.0414 37.7498 34.1776C37.6477 34.3649 37.5455 34.5522 37.4519 34.748C37.0943 35.5141 36.6517 36.2463 36.3792 37.0465C36.0132 37.9659 35.6812 38.9023 35.3236 39.8303C34.6255 41.635 33.97 43.4568 33.3316 45.2871C33.2634 45.2701 33.2039 45.2446 33.1358 45.2275C32.4547 45.0403 31.7822 44.8445 31.0926 44.6912C31.0756 44.3762 31.1692 44.0783 31.2203 43.7718C31.4842 42.4693 31.7396 41.1668 32.0035 39.8643C32.5398 37.2849 33.0166 34.6969 33.5529 32.1259C33.9785 29.887 34.3957 27.648 34.8384 25.4091Z" fill="#2A304A" stroke="#2A304A" stroke-width="0.00578923"/>
<path d="M37.9199 33.7595C38.9245 31.7079 39.9205 29.6562 40.9506 27.6216C41.223 29.1454 41.5465 30.6607 41.853 32.1761C41.9721 32.8401 42.1339 33.4956 42.2361 34.1681C42.2956 34.6023 42.6021 34.9343 42.8235 35.3004C43.7939 36.7987 44.7389 38.3225 45.7094 39.8208C46.2117 40.587 46.7054 41.3617 47.2077 42.1279C47.1821 42.1449 47.1311 42.1874 47.1055 42.2045C46.5096 42.6472 45.8967 43.0728 45.3093 43.5325C45.0709 43.3537 44.9006 43.0983 44.6963 42.877C43.8025 41.8554 42.9086 40.8424 42.0147 39.8208C41.0272 38.7226 40.0822 37.5819 39.0692 36.5092C38.8393 36.2709 38.652 35.9814 38.5584 35.6664C38.4052 35.1727 38.2434 34.6789 38.0646 34.1937C38.0136 34.049 37.971 33.9042 37.9199 33.7595Z" fill="#1C1F31" stroke="#1C1F31" stroke-width="0.00578923"/>
<path d="M37.7412 34.1772C37.8093 34.0409 37.8604 33.8962 37.92 33.76C37.9711 33.9047 38.0136 34.0495 38.0647 34.1857C37.954 34.1856 37.8434 34.1856 37.7412 34.1772Z" fill="#A0A6A9" stroke="#A0A6A9" stroke-width="0.00578923"/>
<path d="M14.7221 37.8121C15.02 37.6248 15.3605 37.7695 15.6074 37.9568C15.6159 37.8972 15.6244 37.7695 15.6244 37.7014C16.0671 37.761 16.3396 38.1696 16.4417 38.5698C16.4758 38.4506 16.5183 38.3314 16.5524 38.2122C16.9099 38.3229 16.8674 38.7826 16.8844 39.0805C16.9951 39.0465 17.1057 39.0124 17.2249 38.9869C17.2504 39.2593 17.1738 39.5147 17.0632 39.7531L17.0717 39.8212C17.0802 40.0085 17.2079 40.2213 17.0717 40.4001C16.9355 40.6129 16.8078 40.8257 16.646 41.0215C16.3566 41.3195 15.9309 41.3876 15.5478 41.4812C15.7777 41.9239 16.0842 42.3496 16.0842 42.8689C15.9905 43.2519 15.9224 43.6521 15.6926 43.9756C15.3605 44.4608 14.9179 44.8694 14.4667 45.2355C14.2453 45.4058 14.007 45.593 13.9474 45.8825C13.8708 46.2741 14.0495 46.6657 13.9729 47.0658C13.8112 47.3552 13.5643 47.5851 13.3344 47.8235C13.1131 48.0278 12.9343 48.2832 12.6789 48.4534C12.4235 48.5386 12.1511 48.5215 11.8872 48.4875C11.6318 48.4619 11.5893 48.0448 11.8106 47.9426C11.9809 47.883 12.1596 47.866 12.3299 47.832C12.6364 47.7213 12.7811 47.3723 12.9343 47.1084C13.1642 46.7253 12.8577 46.3252 12.7385 45.9591C12.5172 45.4739 12.5172 44.9375 12.381 44.4353C11.8957 44.5119 11.453 44.7417 11.0019 44.929C10.2782 45.2185 9.54612 45.4909 8.76291 45.5505C8.77994 45.7973 8.85656 46.0357 8.9502 46.2656C9.16303 46.7849 9.35883 47.3127 9.51207 47.8575C9.52058 48.0618 9.56314 48.3513 9.35032 48.4705C9.0779 48.5896 8.76292 48.5981 8.48198 48.5215C8.34577 48.4875 8.31172 48.3087 8.33726 48.1895C8.4309 48.0448 8.57563 47.9512 8.70332 47.849C8.56712 47.3808 8.28618 46.9807 8.07336 46.5465C7.91161 46.2485 7.78391 45.9336 7.62216 45.6441C7.49447 45.4057 7.19651 45.4143 6.97517 45.3376C6.39628 45.0908 5.84293 44.7588 5.45133 44.2565C5.2385 43.8989 5.11081 43.4903 4.96609 43.0987C4.87244 42.8178 4.71921 42.5454 4.71069 42.2474C5.57051 41.8132 6.40479 41.3365 7.22205 40.8172C7.36677 40.7321 7.50298 40.6129 7.62216 40.4937C7.92863 40.5873 8.23511 40.681 8.5586 40.715C10.2357 40.8427 11.9128 40.6895 13.5813 40.681C14.1006 40.664 14.6029 40.8427 15.1137 40.8683C15.6585 40.8257 16.1608 40.3915 16.2459 39.8467C16.2629 39.2934 15.9479 38.74 15.4542 38.5016C15.1137 38.3399 14.7391 38.4846 14.3815 38.4591C14.1687 38.1952 14.5007 37.9142 14.7221 37.8121Z" fill="#DF9352" stroke="#DF9352" stroke-width="0.00578923"/>
<path d="M3.83354 38.2468C4.30176 38.1872 4.83808 38.1957 5.20414 38.5448C5.6979 38.9874 6.14909 39.4812 6.68542 39.8813C6.83014 39.992 6.96635 40.1112 7.10255 40.2304C6.73649 40.4517 6.37894 40.6901 6.01288 40.9199C6.09801 40.6134 6.30233 40.2814 6.1576 39.9579C5.97883 39.5408 5.68938 39.1832 5.3744 38.8683C5.11901 38.5958 4.67633 38.6129 4.37837 38.8002C4.17406 38.9449 4.14852 39.2173 4.1996 39.4472C4.34432 40.2048 4.16555 40.9795 4.28473 41.7372C3.95272 41.5329 3.76543 41.1413 3.37383 41.0221C2.82048 40.9199 2.20754 41.1498 1.70527 40.8348C1.40731 40.5964 1.19448 40.2304 1.16895 39.8473C1.42434 39.7962 1.60311 39.5663 1.54352 39.3024C1.84999 39.2939 2.15646 39.2599 2.46293 39.1832C2.70981 39.1407 2.77792 38.8683 2.91412 38.6895C3.11844 38.3915 3.49301 38.2979 3.83354 38.2468ZM3.22059 39.0981C3.05885 39.1747 3.14398 39.3961 3.21208 39.5238C3.31424 39.4897 3.49301 39.4897 3.4845 39.3365C3.5526 39.1918 3.3568 38.9875 3.22059 39.0981Z" fill="#DF9553" stroke="#DF9553" stroke-width="0.00578923"/>
<path d="M4.38686 38.7995C4.68482 38.6037 5.1275 38.5952 5.38289 38.8676C5.70639 39.1826 5.99583 39.5401 6.16609 39.9572C6.31081 40.2807 6.1065 40.6042 6.02137 40.9192C5.68085 41.413 5.17858 41.9067 4.53158 41.8982C4.44645 41.8472 4.36984 41.7876 4.2847 41.7365C4.16552 40.9788 4.3443 40.2041 4.19957 39.4465C4.15701 39.2251 4.18255 38.9442 4.38686 38.7995Z" fill="#B9743B" stroke="#B9743B" stroke-width="0.00578923"/>
<path d="M3.22064 39.0975C3.35685 38.9868 3.55265 39.1912 3.48455 39.3359C3.49306 39.4891 3.30577 39.4806 3.21213 39.5232C3.14402 39.3955 3.05889 39.1741 3.22064 39.0975Z" fill="#0C0B09" stroke="#0C0B09" stroke-width="0.00578923"/>
<path d="M1.01571 39.3536C1.16043 39.2089 1.37326 39.3025 1.54352 39.294C1.60311 39.5579 1.42434 39.7877 1.16894 39.8388L1.08381 39.7963C1.02422 39.6686 0.973142 39.5068 1.01571 39.3536Z" fill="#1F140F" stroke="#1F140F" stroke-width="0.00578923"/>
<path d="M45.3179 43.5326C45.9053 43.0729 46.5182 42.6558 47.1141 42.2046C47.3865 42.6728 47.7186 43.107 48.0335 43.5497C47.4887 43.9923 46.9609 44.452 46.399 44.8692C46.1351 44.3669 45.7861 43.8732 45.3179 43.5326Z" fill="#F4987F" stroke="#F4987F" stroke-width="0.00578923"/>
<path d="M16.0928 42.8774C16.1949 43.6181 15.9991 44.4098 16.3482 45.0994C16.578 45.5676 17.1995 45.7038 17.3442 46.2231C17.5315 46.7594 17.7018 47.3042 17.8635 47.8491C17.872 48.0193 17.9657 48.2577 17.7869 48.3684C17.4889 48.5557 17.1144 48.5046 16.7824 48.479C16.6972 48.1896 16.8845 47.9768 17.1229 47.8491L17.1825 47.8321C17.0037 47.2702 16.7994 46.6062 16.212 46.3423C15.5905 46.0528 14.9435 45.7634 14.4668 45.2441C14.918 44.8695 15.3607 44.4694 15.6927 43.9841C15.931 43.6606 15.9991 43.2605 16.0928 42.8774Z" fill="#C2793A" stroke="#C2793A" stroke-width="0.00578923"/>
<path d="M48.0334 43.5589L48.1015 43.5078C48.6719 43.8994 49.1146 44.4613 49.4892 45.0316C48.4931 45.9681 47.5056 46.9045 46.5011 47.8325C46.1095 48.1645 45.786 48.5731 45.3518 48.8455C45.1986 48.7008 45.0028 48.5731 44.9602 48.3517C44.9176 48.19 44.9772 48.0282 45.0368 47.8835C45.4029 47.2195 45.6923 46.5214 45.9903 45.8234C46.135 45.5084 46.135 45.1253 46.4074 44.8869C46.9608 44.4613 47.4886 44.0016 48.0334 43.5589Z" fill="#1C1F31" stroke="#1C1F31" stroke-width="0.00578923"/>
<path d="M5.47654 44.2485C5.86814 44.7508 6.42149 45.0828 7.00038 45.3297C6.51514 45.9256 5.89368 46.3853 5.37438 46.9472C5.09345 47.2451 4.80401 47.5261 4.51456 47.807C4.32728 47.9687 4.13999 48.1475 3.90162 48.2071C3.57812 48.2752 3.24611 48.2241 2.93113 48.1475C2.88005 48.0454 2.83749 47.9432 2.79492 47.841C2.88005 47.7389 2.94816 47.5942 3.08437 47.5516C3.27165 47.5176 3.45894 47.5346 3.64623 47.5176C3.8846 47.3643 4.02932 47.0919 4.20809 46.8791C4.56564 46.3513 4.99129 45.866 5.23817 45.2701C5.37438 44.9466 5.41695 44.5976 5.47654 44.2485Z" fill="#C07A3D" stroke="#C07A3D" stroke-width="0.00578923"/>
<path d="M31.0753 44.6907C31.7648 44.8524 32.4374 45.0397 33.1184 45.227C32.9907 45.7718 32.7098 46.2826 32.6928 46.853C31.9947 46.6827 31.3222 46.4444 30.6411 46.223C30.8369 45.7292 31.0923 45.227 31.0753 44.6907Z" fill="#FBB099" stroke="#FBB099" stroke-width="0.00578923"/>
<path d="M29.7985 46.3343C30.0794 46.2747 30.3604 46.0959 30.6498 46.2321C31.3309 46.4535 32.0119 46.6918 32.7015 46.8621C32.7781 47.1856 32.71 47.5261 32.6504 47.8496C32.5993 48.071 32.5397 48.3008 32.4886 48.5221C32.4631 48.6243 32.4461 48.7179 32.4205 48.8201C30.7009 48.4796 28.9898 48.105 27.2701 47.7815C27.0573 47.7219 26.8189 47.7219 26.6402 47.5772C26.5976 47.2452 26.8104 46.8536 27.1595 46.8025C28.0448 46.6408 28.9302 46.5301 29.7985 46.3343Z" fill="#1E2236" stroke="#1E2236" stroke-width="0.00578923"/>
</svg>
