<svg width="100" height="100" viewBox="0 0 100 100" fill="none" xmlns="http://www.w3.org/2000/svg">
<path d="M59.7166 43.6234L18.2339 63.624L19.7273 66.7215L61.21 46.7209L59.7166 43.6234Z" fill="#E6E7E8"/>
<path d="M61.2105 46.7077L19.7278 66.7083L22.5721 72.6075L64.0548 52.6069L61.2105 46.7077Z" fill="#D6D7D8"/>
<path d="M82.6288 32.5771L59.7104 43.627L61.2039 46.7244L84.1222 35.6745L82.6288 32.5771Z" fill="#EF7A2B"/>
<path d="M84.1232 35.6566L61.2068 46.7104L64.0521 52.6092L86.9685 41.5553L84.1232 35.6566Z" fill="#DF7228"/>
<path d="M67.8762 43.5022L64.9736 44.9016L67.8179 50.8008L70.7205 49.4014L67.8762 43.5022Z" fill="#EEC756"/>
<path d="M66.3879 40.3994L63.4856 41.7993L64.9795 44.8965L67.8819 43.4965L66.3879 40.3994Z" fill="#FED45C"/>
<path d="M23.1803 69.7398C23.1001 70.0814 23.1655 70.456 23.2965 70.8181C23.5616 71.5585 23.3184 72.4819 22.6728 72.6574C22.0016 72.8412 21.1978 72.1435 20.9827 71.3628C20.709 70.3488 18.7962 69.1856 18.8228 67.7909C18.8295 67.297 18.7049 66.7741 18.3607 66.3988C16.7749 64.6765 17.9259 62.7525 19.1023 63.7792C19.3936 64.039 19.7662 64.1743 20.099 64.1204C20.6477 64.0417 21.4013 64.5317 21.6186 66.1341C21.7957 67.4928 23.6385 67.7999 23.1803 69.7398Z" fill="#B3B3B3"/>
<path d="M46.9407 18.9341C51.0655 23.2346 50.941 30.8685 46.931 35.2838C43.5261 39.0319 39.8599 39.5929 35.9845 42.698C32.2295 45.7051 28.946 55.6843 28.946 55.6843C28.946 55.6843 27.0347 44.6992 30.3168 39.592C37.0191 29.1607 49.0504 31.2297 46.9315 18.9393L46.9407 18.9341Z" fill="#B3B3B3"/>
<path d="M22.2004 41.1069C20.6553 42.8895 18.4471 44.4399 17.1516 46.3544C14.0889 50.8723 14.3797 55.3924 17.027 60.1001C16.5185 57.2697 16.9578 54.8442 18.5222 52.4396C20.0826 50.0493 22.2056 48.0568 23.7217 45.6309C26.0946 41.8338 27.7379 37.8478 25.8005 33.8967C26.1423 36.9902 24.2467 38.7521 22.2004 41.1069Z" fill="#B3B3B3"/>
<path d="M50 2C76.5097 2 98 23.4903 98 50C98 76.5097 76.5097 98 50 98C23.4903 98 2 76.5097 2 50C2 23.4903 23.4903 2 50 2ZM24.7773 81.2529C31.672 86.8242 40.4453 90.1631 50 90.1631C72.1816 90.1631 90.1631 72.1816 90.1631 50C90.1631 40.4453 86.8242 31.672 81.2529 24.7773L24.7773 81.2529ZM50 9.83691C27.8184 9.83691 9.83691 27.8184 9.83691 50C9.83691 59.8046 13.3513 68.7875 19.1875 75.7607L75.7607 19.1875C68.7875 13.3513 59.8046 9.83691 50 9.83691Z" fill="#FF5959"/>
</svg>
