<svg width="50" height="50" viewBox="0 0 50 50" fill="none" xmlns="http://www.w3.org/2000/svg">
<g clip-path="url(#clip0_1268_77391)">
<path d="M1.0011 19.9373C1.0011 19.9059 1.00044 19.8745 1.00044 19.8425C1.00044 13.728 5.95694 8.77148 12.0714 8.77148C18.1859 8.77148 23.1424 13.7287 23.1424 19.8425C23.1602 26.0456 23.1779 32.2474 23.1956 38.4506C23.1997 40.103 22.1093 41.7567 19.927 43.017C19.7967 43.092 19.6624 43.1657 19.528 43.2359C19.4837 43.2584 19.438 43.2809 19.3937 43.3034C19.3016 43.3498 19.2089 43.3969 19.1148 43.4419C19.0609 43.4671 19.005 43.4916 18.9491 43.5169C18.8631 43.5571 18.7772 43.5953 18.6892 43.6335C18.6299 43.6587 18.5699 43.6826 18.5105 43.7072C18.4499 43.7324 18.3905 43.7583 18.3292 43.7822C18.2978 43.7944 18.2657 43.806 18.2344 43.8183C18.1975 43.8326 18.1607 43.8463 18.1239 43.8599C18.0086 43.9036 17.8913 43.9465 17.774 43.9868C17.7488 43.9963 17.7242 44.0045 17.6983 44.014C17.5578 44.0611 17.416 44.1075 17.2728 44.1511C17.2394 44.1613 17.2053 44.1702 17.1725 44.1811C17.1098 44.1988 17.0477 44.2193 16.9857 44.237C16.9502 44.2473 16.9154 44.2548 16.8806 44.2643C16.7715 44.295 16.6604 44.3237 16.5492 44.3523C16.481 44.3693 16.4121 44.3878 16.3426 44.4041C16.2185 44.4341 16.093 44.4621 15.9675 44.4887C15.9218 44.4989 15.8761 44.5098 15.8304 44.5194C15.8182 44.5228 15.8059 44.5241 15.7929 44.5269C15.677 44.5507 15.559 44.5719 15.4417 44.5944C15.3824 44.6053 15.3237 44.6169 15.2644 44.6271C15.1137 44.653 14.9623 44.6762 14.8095 44.6987C14.7843 44.7028 14.7584 44.7076 14.7325 44.711C14.7311 44.711 14.7297 44.711 14.7284 44.7117C14.5524 44.7362 14.3751 44.7587 14.1985 44.7792C14.1712 44.7819 14.1439 44.7847 14.116 44.7874C13.9666 44.8031 13.8173 44.8188 13.6666 44.8304C13.6631 44.831 13.6597 44.831 13.6563 44.8317C13.5977 44.8372 13.539 44.8392 13.4804 44.844C13.3638 44.8528 13.2471 44.861 13.1298 44.8679C13.0535 44.8719 12.9764 44.874 12.8993 44.8774C12.7971 44.8815 12.6954 44.8863 12.5938 44.8897C12.5843 44.8897 12.5754 44.8904 12.5659 44.891C12.5031 44.8924 12.4404 44.8917 12.3783 44.8924C12.2658 44.8945 12.1539 44.8965 12.0421 44.8958C11.9671 44.8958 11.8928 44.8938 11.8184 44.8931C11.7093 44.8917 11.5995 44.8897 11.4904 44.8863C11.4713 44.8856 11.4515 44.8863 11.4331 44.8856C11.384 44.8835 11.3349 44.8801 11.2865 44.8781C11.1603 44.8726 11.0348 44.8665 10.908 44.859C10.8344 44.8542 10.76 44.8488 10.687 44.8433C10.5663 44.8338 10.447 44.8249 10.327 44.8133C10.2861 44.8092 10.2458 44.8072 10.2049 44.8031C10.1517 44.7976 10.0992 44.7915 10.0467 44.786C10.0064 44.7812 9.96758 44.7772 9.92735 44.7724C9.77391 44.7553 9.62183 44.7356 9.46976 44.7144C9.44793 44.711 9.42541 44.7076 9.40291 44.7042C9.26856 44.6851 9.13557 44.6639 9.00259 44.6414C8.96304 44.6346 8.92485 44.6285 8.88598 44.6217C8.85461 44.6162 8.82392 44.6114 8.79187 44.606C8.73663 44.5964 8.68276 44.5842 8.62752 44.5739C8.53068 44.5555 8.43452 44.5371 8.33836 44.5166C8.25993 44.5003 8.18152 44.4825 8.10241 44.4655C8.0083 44.4444 7.91486 44.4225 7.82143 44.4C7.74369 44.3816 7.66528 44.3612 7.58821 44.3421C7.49547 44.3175 7.4034 44.2936 7.31202 44.2684C7.23564 44.2473 7.15925 44.2254 7.08355 44.2023C6.99285 44.1757 6.90214 44.1484 6.8128 44.1197C6.77393 44.1075 6.73506 44.0972 6.69551 44.0843C6.64163 44.0665 6.58845 44.0474 6.53457 44.0297C6.49979 44.0174 6.465 44.0065 6.43091 43.9943C6.29451 43.9472 6.15881 43.8981 6.02378 43.847C5.99787 43.8367 5.97126 43.8265 5.94534 43.8156C5.83282 43.7719 5.72167 43.7269 5.61188 43.6812C5.57641 43.6656 5.54096 43.6512 5.50686 43.6362C5.3766 43.5796 5.24634 43.5223 5.12017 43.4623C5.10381 43.4542 5.08676 43.446 5.07039 43.4378C4.95787 43.3839 4.84672 43.328 4.73692 43.2714C4.70282 43.2543 4.67007 43.2359 4.63734 43.2189C4.51322 43.1527 4.39116 43.0866 4.27113 43.017C4.22612 42.9904 4.18044 42.9638 4.13679 42.9372C4.05632 42.8888 3.97857 42.8404 3.90082 42.7906C3.88582 42.7804 3.87083 42.7708 3.85514 42.7606C3.74535 42.6897 3.6369 42.6167 3.53325 42.543C3.51961 42.5335 3.50801 42.5253 3.49437 42.5158C3.39071 42.4408 3.28774 42.3644 3.19022 42.2866C3.17999 42.2791 3.17113 42.2716 3.1609 42.2634C3.06133 42.1843 2.96517 42.1052 2.87243 42.0234C2.86561 42.0173 2.85811 42.0104 2.85197 42.005C2.81241 41.9702 2.77286 41.9347 2.73398 41.8993C2.69102 41.8597 2.65078 41.8202 2.60918 41.7799C2.59554 41.7656 2.57985 41.752 2.56553 41.7376C2.48574 41.6579 2.40801 41.5781 2.33435 41.4969C2.31731 41.4771 2.29957 41.458 2.2832 41.4383C2.22114 41.3687 2.16113 41.2991 2.10384 41.2282C2.0902 41.2125 2.07726 41.1962 2.0643 41.1805C2.05816 41.1737 2.05203 41.1668 2.04725 41.1607C1.98861 41.0857 1.93403 41.01 1.88016 40.935C1.86788 40.9186 1.85766 40.9029 1.84607 40.8865C1.78878 40.804 1.73421 40.7201 1.68307 40.6363C1.6742 40.6219 1.66603 40.6083 1.65853 40.5947C1.63943 40.5626 1.61966 40.5312 1.60261 40.4992C1.57124 40.444 1.54122 40.3887 1.51258 40.3328C1.50917 40.326 1.50577 40.3192 1.50236 40.313C1.45598 40.2203 1.41165 40.1275 1.37278 40.0341C1.3721 40.0327 1.37142 40.0314 1.37074 40.03C1.34824 39.9768 1.3271 39.9236 1.30664 39.8704C1.29164 39.8275 1.27663 39.7859 1.26231 39.7429C1.26027 39.7368 1.25822 39.7313 1.25617 39.7258C1.2248 39.6324 1.19753 39.5397 1.17434 39.4456C1.1723 39.4374 1.16956 39.4285 1.16751 39.421C1.15251 39.363 1.13954 39.3051 1.12795 39.2471C1.12113 39.213 1.11499 39.1789 1.11022 39.1455C1.10817 39.1346 1.10544 39.1243 1.10408 39.1134C1.08908 39.0234 1.07817 38.9327 1.06999 38.8427C1.06863 38.8304 1.06726 38.8181 1.06658 38.8052C1.06112 38.7411 1.05703 38.6763 1.05498 38.6122C1.05362 38.5802 1.05363 38.5474 1.05295 38.5147C1.0359 32.3115 1.01749 26.1097 1.00044 19.9066C0.999755 19.9168 1.0011 19.9264 1.0011 19.9373Z" fill="#7EB1ED"/>
<path d="M4.26838 34.0585C-0.0695981 36.5627 -0.092111 40.6231 4.21722 43.128C8.52655 45.6322 15.5372 45.6322 19.8751 43.128C24.2118 40.6238 24.2363 36.5634 19.9263 34.0585C15.6163 31.5544 8.60567 31.5544 4.26838 34.0585Z" fill="#5B9AD8"/>
<path d="M1.59633 10.7133C1.59906 10.7665 1.60247 10.8197 1.60792 10.8735C1.61201 10.9165 1.61883 10.9602 1.62497 11.0038C1.63179 11.057 1.6393 11.1116 1.64953 11.1647C1.65771 11.2077 1.66726 11.2527 1.67681 11.2964C1.68909 11.3475 1.70067 11.3993 1.71431 11.4519C1.72795 11.4969 1.74022 11.5412 1.75454 11.5862C1.77091 11.6367 1.78796 11.6878 1.80432 11.7396C1.82069 11.7833 1.83705 11.8256 1.85342 11.8679C1.87661 11.9231 1.89776 11.9777 1.92299 12.0322C1.94141 12.0738 1.96118 12.1147 1.98095 12.1563C2.00755 12.2116 2.03552 12.2648 2.06416 12.3179C2.08598 12.3589 2.10849 12.3991 2.13167 12.4393C2.1685 12.5014 2.20738 12.5628 2.24693 12.6255C2.2708 12.6617 2.29397 12.6985 2.31852 12.7346C2.36285 12.8021 2.41265 12.8662 2.46175 12.9324C2.48562 12.9631 2.50675 12.9931 2.5313 13.0231C2.61382 13.1281 2.70451 13.2338 2.79999 13.3361C2.82386 13.3627 2.84909 13.388 2.87433 13.4132C2.94866 13.4937 3.02846 13.5714 3.11098 13.6498C3.1478 13.6839 3.18394 13.7194 3.22145 13.7528C3.27055 13.7964 3.32103 13.8408 3.37285 13.8844C3.41991 13.924 3.46695 13.9635 3.51469 14.0024C3.56788 14.0454 3.62313 14.0876 3.67769 14.1306C3.72815 14.1688 3.77862 14.207 3.83113 14.2452C3.8891 14.2868 3.94707 14.3277 4.00776 14.3693C4.06232 14.4075 4.11619 14.443 4.17212 14.4811C4.23349 14.5214 4.29691 14.5609 4.35965 14.6005C4.43876 14.6489 4.5165 14.6994 4.5997 14.7471C4.82474 14.8774 5.05934 14.9974 5.2987 15.1133C5.36281 15.1447 5.42555 15.1747 5.49034 15.204C5.70584 15.3029 5.92612 15.3977 6.15185 15.4857C6.18185 15.4986 6.21186 15.5123 6.24255 15.5239C6.48532 15.6159 6.73356 15.6998 6.98657 15.7789C7.16252 15.8342 7.34187 15.8819 7.52123 15.9317C7.65558 15.9685 7.78925 16.0074 7.92769 16.0415C8.11659 16.0865 8.31164 16.1254 8.50463 16.1642C8.64239 16.1922 8.77877 16.2236 8.91789 16.2481C8.97654 16.2583 9.03588 16.2665 9.09521 16.2768C9.33254 16.3156 9.57053 16.3484 9.81127 16.3777C9.88083 16.3865 9.95177 16.3954 10.022 16.4022C10.3009 16.4329 10.5812 16.4568 10.8629 16.4738C10.9154 16.4759 10.9665 16.4786 11.0177 16.482C11.2079 16.4909 11.3996 16.4936 11.5891 16.4964C11.778 16.4998 11.9663 16.5025 12.1559 16.4991C12.3141 16.497 12.4723 16.4923 12.6305 16.4861C12.8058 16.4793 12.9804 16.4698 13.1543 16.4582C13.3152 16.4466 13.4755 16.4336 13.6357 16.4179C13.8089 16.4009 13.9815 16.3818 14.1526 16.36C14.3088 16.3402 14.4616 16.3177 14.615 16.2938C14.7998 16.2658 14.9833 16.2324 15.1661 16.1976C15.3557 16.1615 15.5479 16.1247 15.7341 16.0831C15.7791 16.0722 15.8248 16.0633 15.8692 16.0531C16.1338 15.989 16.3936 15.9187 16.65 15.8423C16.723 15.8205 16.7959 15.7967 16.8696 15.7741C17.0831 15.7066 17.2917 15.6357 17.4977 15.5593C17.5584 15.5375 17.6191 15.5157 17.6798 15.4932C17.8666 15.4202 18.048 15.3397 18.2301 15.2599C18.3188 15.2197 18.4108 15.1842 18.4974 15.142C18.7593 15.0178 19.0137 14.8862 19.2579 14.7457C21.3003 13.5659 22.3212 12.0186 22.3158 10.4712C22.3199 11.7062 22.3233 12.9413 22.3274 14.1763C22.3314 15.7216 21.3112 17.2704 19.2681 18.4495C19.0253 18.59 18.7696 18.7216 18.5077 18.8464C18.4218 18.888 18.3297 18.9235 18.241 18.9623C18.0862 19.0319 17.9328 19.1035 17.7732 19.1669C17.7466 19.1778 17.7187 19.1867 17.6914 19.1962C17.6314 19.2201 17.5686 19.2413 17.51 19.2638C17.3026 19.3395 17.0933 19.4117 16.8798 19.4779C16.8069 19.5011 16.7346 19.5236 16.6616 19.5461C16.6125 19.5604 16.5634 19.5775 16.5143 19.5918C16.3056 19.6511 16.0935 19.705 15.8794 19.7555C15.8351 19.7664 15.7907 19.7752 15.7478 19.7861C15.6434 19.8093 15.5391 19.8346 15.4334 19.8564C15.3481 19.8748 15.2602 19.8857 15.1749 19.9021C14.9928 19.9369 14.8114 19.9689 14.6259 19.9969C14.553 20.0091 14.4793 20.0255 14.405 20.0364C14.3259 20.0473 14.244 20.0528 14.1636 20.0623C13.9917 20.0848 13.8178 20.1039 13.6446 20.121C13.5621 20.1292 13.4809 20.1414 13.3984 20.1489C13.322 20.1551 13.2436 20.1558 13.1672 20.1612C12.9933 20.1728 12.8187 20.1824 12.6435 20.1899C12.5541 20.1933 12.4655 20.2008 12.3782 20.2035C12.3073 20.2056 12.237 20.2021 12.1661 20.2028C11.9765 20.2049 11.7883 20.2035 11.5987 20.2001C11.5053 20.1974 11.4118 20.2021 11.317 20.1987C11.2209 20.1946 11.1254 20.1892 11.0299 20.1844C10.9788 20.1817 10.9276 20.1796 10.8751 20.1762C10.6385 20.1619 10.4025 20.1455 10.1673 20.1223C10.1229 20.1169 10.0759 20.1108 10.0315 20.1067C9.96198 20.0978 9.89515 20.091 9.82558 20.0814C9.58281 20.0528 9.34139 20.018 9.1027 19.9798C9.04542 19.9703 8.98746 19.9635 8.93086 19.9525C8.9029 19.9471 8.87358 19.9437 8.84561 19.9389C8.73173 19.9178 8.62057 19.8898 8.50805 19.8666C8.31846 19.8284 8.1275 19.7909 7.93996 19.7452C7.80084 19.7104 7.66582 19.6716 7.52874 19.6341C7.35075 19.5857 7.17275 19.5365 6.99816 19.4827C6.96066 19.4711 6.92179 19.4629 6.88428 19.4499C6.66946 19.3811 6.4601 19.306 6.25278 19.2276C6.22414 19.216 6.19482 19.2031 6.1655 19.1915C5.93841 19.1028 5.71813 19.0087 5.50058 18.9078C5.43648 18.8778 5.37372 18.8478 5.3103 18.8178C5.07093 18.7018 4.83634 18.5811 4.61129 18.4509C4.56832 18.4263 4.52674 18.4018 4.4865 18.3765C4.44763 18.3547 4.41421 18.3308 4.37807 18.3083C4.31124 18.2667 4.24576 18.2258 4.18029 18.1828C4.1271 18.1474 4.07322 18.1112 4.0214 18.0751C3.96002 18.0335 3.90069 17.9912 3.84204 17.9489C3.79089 17.9107 3.7411 17.8732 3.69063 17.8357C3.63471 17.7928 3.57948 17.7498 3.52697 17.7075C3.47787 17.668 3.4308 17.6284 3.38511 17.5889C3.33328 17.5452 3.28351 17.5022 3.23373 17.4586C3.21463 17.4402 3.19282 17.4225 3.17304 17.4054C3.15394 17.3884 3.13962 17.3706 3.12188 17.3543C3.04005 17.2765 2.96161 17.1974 2.88523 17.1183C2.86136 17.0931 2.8341 17.0678 2.81091 17.0412C2.71612 16.9383 2.62609 16.8339 2.54221 16.7282C2.53812 16.7221 2.53334 16.718 2.52993 16.7146C2.5122 16.6893 2.49515 16.6648 2.47742 16.6402C2.42628 16.5727 2.37649 16.5073 2.33012 16.4397C2.3042 16.4016 2.28307 16.3654 2.25852 16.3286C2.21897 16.2679 2.18077 16.2072 2.14531 16.1458C2.13576 16.1288 2.12349 16.1117 2.11394 16.0947C2.09894 16.0688 2.08803 16.0435 2.07371 16.0176C2.04643 15.9671 2.01982 15.916 1.99527 15.8648C1.97413 15.8205 1.95231 15.7762 1.93321 15.7319C1.91003 15.6807 1.88888 15.6296 1.86842 15.5771C1.8582 15.5532 1.84729 15.5293 1.83706 15.5055C1.82888 15.4843 1.82342 15.4611 1.81592 15.4407C1.79887 15.3902 1.78251 15.3411 1.76682 15.2906C1.7525 15.2456 1.73887 15.2006 1.72659 15.1542C1.71363 15.1051 1.70135 15.0554 1.69044 15.0063C1.68362 14.9776 1.67544 14.9497 1.66998 14.9203C1.66657 14.9026 1.66385 14.8835 1.66112 14.8644C1.65157 14.8139 1.64475 14.7628 1.63725 14.7116C1.63111 14.6666 1.62429 14.6203 1.6202 14.5746C1.61475 14.5221 1.61202 14.4702 1.6093 14.4164C1.60657 14.3864 1.60315 14.3563 1.60247 14.3263C1.60042 14.2956 1.60043 14.2656 1.60043 14.235L1.58884 10.5312C1.58747 10.5926 1.59292 10.6526 1.59633 10.7133Z" fill="#B4D8EF"/>
<path d="M4.64865 6.25745C0.587555 8.60272 0.567076 12.4033 4.59885 14.7465C8.63403 17.0911 15.1959 17.0911 19.257 14.7465C23.3161 12.4026 23.3379 8.60204 19.3034 6.25745C15.2689 3.91353 8.70839 3.91353 4.64865 6.25745Z" fill="#C6DFF7"/>
<path d="M6.55573 7.18011C3.53736 8.92457 3.52167 11.7465 6.51754 13.4883C9.51546 15.2307 14.3908 15.2307 17.4092 13.4883C20.4262 11.7465 20.4412 8.92457 17.444 7.18147C14.4474 5.43974 9.57138 5.43974 6.55573 7.18011Z" fill="#F8F5F0"/>
<path d="M1.01871 21.7838C1.04735 21.8152 1.07873 21.8459 1.10805 21.8766C1.19876 21.972 1.29356 22.0655 1.39176 22.1589C1.43473 22.2005 1.47972 22.2414 1.52473 22.283C1.58338 22.3355 1.64409 22.388 1.70615 22.4399C1.76139 22.4876 1.81799 22.5354 1.87664 22.5824C1.93938 22.6336 2.00551 22.684 2.07098 22.7352C2.13167 22.7809 2.19238 22.8272 2.25512 22.8722C2.324 22.922 2.39424 22.9711 2.46653 23.0209C2.53132 23.0652 2.59542 23.1103 2.66293 23.1546C2.73658 23.2023 2.81296 23.2501 2.88866 23.2971C2.98345 23.3564 3.07758 23.4158 3.17578 23.4731C3.44584 23.6285 3.7268 23.7731 4.01323 23.9116C4.08961 23.9491 4.16735 23.9845 4.24441 24.0207C4.50219 24.14 4.76543 24.2532 5.0348 24.3582C5.07231 24.3726 5.10709 24.3882 5.14392 24.4026C5.43443 24.513 5.73314 24.6133 6.03594 24.7081C6.24666 24.7742 6.4608 24.8322 6.6763 24.8909C6.83724 24.9359 6.99751 24.9822 7.16186 25.0218C7.39032 25.077 7.62354 25.1227 7.85473 25.1698C8.01908 25.2032 8.18208 25.2407 8.34916 25.27C8.42008 25.2823 8.49168 25.2918 8.56261 25.3034C8.84698 25.3498 9.13204 25.3907 9.42051 25.4255C9.50371 25.4357 9.58829 25.446 9.67217 25.4555C10.007 25.4917 10.3425 25.5203 10.6808 25.5394C10.7428 25.5435 10.8042 25.5462 10.8663 25.5489C11.0941 25.5612 11.3218 25.564 11.5496 25.568C11.776 25.5721 12.0024 25.5742 12.2295 25.5715C12.4191 25.5687 12.6094 25.5633 12.799 25.5558C13.0083 25.5469 13.2177 25.5367 13.4264 25.521C13.6187 25.5087 13.811 25.4923 14.0026 25.4739C14.2099 25.4542 14.4166 25.4303 14.6226 25.4044C14.8074 25.3805 14.9915 25.3546 15.1749 25.3259C15.3959 25.2912 15.6162 25.253 15.8344 25.2114C16.0635 25.1684 16.2927 25.1248 16.517 25.0736C16.5709 25.0607 16.6255 25.0498 16.6794 25.0368C16.7932 25.0095 16.903 24.9754 17.0155 24.9454V37.0107C16.9071 37.0373 16.8001 37.0687 16.6889 37.0946C16.6378 37.1076 16.5852 37.1178 16.5327 37.1308C16.4066 37.1594 16.2824 37.1894 16.1556 37.2153C16.0533 37.2365 15.9476 37.2501 15.8453 37.2699C15.6278 37.3115 15.4088 37.3497 15.1886 37.3838C15.0992 37.3974 15.0133 37.4172 14.924 37.4288C14.8278 37.4431 14.7296 37.4492 14.6335 37.4622C14.4261 37.4881 14.2195 37.5113 14.0108 37.5317C13.9126 37.5413 13.8158 37.5563 13.7169 37.5645C13.6248 37.5727 13.5314 37.5733 13.4393 37.5795C13.2307 37.5938 13.022 37.6047 12.8113 37.6129C12.7062 37.617 12.5998 37.6265 12.4935 37.63C12.4089 37.632 12.3243 37.6272 12.2391 37.6286C12.012 37.6313 11.7869 37.63 11.5605 37.6252C11.448 37.6231 11.3355 37.6272 11.2223 37.6231C11.107 37.6197 10.9924 37.6115 10.8779 37.6068C10.8158 37.6034 10.7544 37.6013 10.6937 37.5972C10.4107 37.5809 10.127 37.5597 9.84606 37.5317C9.7915 37.5263 9.73627 37.5181 9.68239 37.5126C9.59987 37.5031 9.51872 37.4929 9.43621 37.4833C9.14501 37.4479 8.85586 37.4076 8.56943 37.3606C8.50055 37.349 8.43236 37.3394 8.36348 37.3278C8.33006 37.321 8.29595 37.3169 8.26185 37.3115C8.12546 37.2869 7.99385 37.2521 7.85746 37.2249C7.629 37.1785 7.40053 37.1335 7.17685 37.0789C7.01045 37.0387 6.84814 36.9916 6.68379 36.9466C6.47034 36.8887 6.25688 36.8314 6.04888 36.7652C6.00387 36.7509 5.95614 36.7407 5.91113 36.7257C5.65539 36.6431 5.40375 36.5531 5.15551 36.4583C5.12005 36.4447 5.08732 36.4297 5.05118 36.4154C4.77976 36.3097 4.51514 36.1958 4.25531 36.0758C4.17825 36.0403 4.10188 36.0041 4.02755 35.9687C3.74044 35.8296 3.45811 35.685 3.1901 35.5288C3.13895 35.4988 3.08917 35.4695 3.03802 35.4388C2.9937 35.4122 2.95277 35.3849 2.9098 35.3576C2.82933 35.3085 2.75091 35.2588 2.67248 35.2083C2.6077 35.1653 2.54564 35.1224 2.48222 35.078C2.40925 35.0283 2.33696 34.9785 2.2674 34.9266C2.20534 34.8823 2.146 34.8359 2.08598 34.7909C2.01915 34.7405 1.953 34.6893 1.8889 34.6375C1.83093 34.5911 1.77501 34.5434 1.71909 34.4963C1.6584 34.4445 1.5977 34.392 1.53973 34.3395C1.51518 34.3183 1.48926 34.2965 1.46539 34.2754C1.44494 34.2549 1.42584 34.2338 1.40402 34.214C1.30513 34.1206 1.21102 34.0265 1.12169 33.9317C1.09304 33.9023 1.06373 33.873 1.03577 33.843L1.00098 21.7593C1.00711 21.7688 1.01257 21.777 1.01871 21.7838Z" fill="#B4D8EF"/>
<path d="M46.2159 21.9079L34.6132 27.0831C32.88 27.8561 30.8883 27.2848 29.807 25.8171C29.6405 25.5912 29.4956 25.3438 29.3766 25.077C28.4846 23.0771 29.3828 20.7326 31.3828 19.8405L42.9855 14.6654C44.9854 13.7734 47.3299 14.6716 48.2219 16.6714C48.4359 17.1513 48.547 17.6511 48.5642 18.1458C48.5831 18.6819 48.4921 19.2124 48.3033 19.7052C47.9402 20.6528 47.2159 21.4619 46.2159 21.9079Z" fill="#FFA94D"/>
<path d="M40.4142 24.4952L34.6128 27.0827C32.8796 27.8558 30.8879 27.2845 29.8066 25.8167C29.6401 25.5908 29.4952 25.3434 29.3762 25.0766C28.4842 23.0768 29.3824 20.7323 31.3824 19.8402L37.1838 17.2526L40.4142 24.4952Z" fill="#FEC864"/>
<path d="M32.2424 21.9029L32.1875 21.7797C32.0061 21.3731 32.1887 20.8964 32.5953 20.7151L37.7098 18.4339L38.4215 20.0296L33.307 22.3108C32.9004 22.4921 32.4238 22.3095 32.2424 21.9029Z" fill="#FFE183"/>
<path d="M38.4215 20.0282L37.7099 18.4326L42.8243 16.1514C43.2309 15.97 43.7076 16.1526 43.8889 16.5592L43.9438 16.6824C44.1252 17.089 43.9426 17.5656 43.536 17.747L38.4215 20.0282Z" fill="#FFCA93"/>
<path opacity="0.45" d="M40.4141 24.4961C38.4803 25.3586 36.5466 26.2211 34.6128 27.0836C32.8796 27.8567 30.8879 27.2853 29.8066 25.8176C30.7549 26.132 32.282 26.4375 33.6613 25.8222C35.703 24.9116 37.7446 24.0009 39.7863 23.0903C39.9956 23.5589 40.2049 24.0275 40.4141 24.4961Z" fill="#F2904E"/>
<path opacity="0.45" d="M39.7865 23.0901L45.6494 20.475C46.7166 19.999 47.867 19.0547 48.564 18.1461C48.5829 18.6822 48.4918 19.2127 48.303 19.7055C47.94 20.653 47.2157 21.4622 46.2157 21.9082L40.4143 24.4958L39.7865 23.0901Z" fill="#DB4A37"/>
<path d="M37.995 44.6918L26.549 35.2157C24.8392 33.8001 24.4045 31.416 25.3818 29.5209C25.5322 29.2291 25.7163 28.9488 25.9342 28.6856C27.5675 26.7128 30.4911 26.4375 32.4641 28.0709L43.9101 37.5471C45.8829 39.1804 46.1582 42.104 44.5249 44.0768C44.133 44.5502 43.6667 44.926 43.1571 45.2008C42.605 45.4989 42.0017 45.6787 41.3872 45.7365C40.2055 45.8478 38.9814 45.5085 37.995 44.6918Z" fill="#C0DDFF"/>
<path d="M32.272 39.9538L26.549 35.2157C24.8392 33.8001 24.4045 31.416 25.3818 29.5209C25.5322 29.2291 25.7163 28.9488 25.9342 28.6856C27.5675 26.7128 30.4911 26.4375 32.4641 28.0709L38.1871 32.809L32.272 39.9538Z" fill="#2383E2"/>
<path d="M30.7508 30.0405L30.8514 29.919C31.1835 29.5179 31.7779 29.4619 32.179 29.794L37.2243 33.9711L35.9211 35.5451L30.8758 31.3681C30.4747 31.036 30.4187 30.4417 30.7508 30.0405Z" fill="#4CA6FF"/>
<path d="M35.9209 35.5467L37.2241 33.9727L42.2694 38.1497C42.6705 38.4817 42.7264 39.0761 42.3944 39.4772L42.2938 39.5988C41.9617 39.9999 41.3673 40.0558 40.9662 39.7237L35.9209 35.5467Z" fill="#C9EBFF"/>
<path opacity="0.45" d="M32.272 39.9541C30.3643 38.3747 28.4566 36.7954 26.549 35.216C24.8392 33.8005 24.4045 31.4163 25.3818 29.5212C25.5445 30.6784 26.0167 32.4375 27.3774 33.5641C29.3915 35.2315 31.4056 36.899 33.4196 38.5665C33.0371 39.029 32.6545 39.4915 32.272 39.9541Z" fill="#195C9E"/>
<path opacity="0.45" d="M33.4196 38.5642L39.2033 43.3525C40.2561 44.2241 41.8429 44.9399 43.157 45.1989C42.6049 45.497 42.0016 45.6768 41.3871 45.7346C40.2055 45.8459 38.9814 45.5065 37.995 44.6899L32.272 39.9518L33.4196 38.5642Z" fill="#7CCEFF"/>
</g>
<defs>
<clipPath id="clip0_1268_77391">
<rect width="50" height="50" fill="white"/>
</clipPath>
</defs>
</svg>
