<svg width="50" height="50" viewBox="0 0 50 50" fill="none" xmlns="http://www.w3.org/2000/svg">
<path d="M2.2002 29.5161V30.9088L5.93946 33.1636V31.7913L4.48048 30.5109L2.2002 29.5161Z" fill="#594E4B"/>
<path d="M7.59228 30.4609L7.39843 30.512L5.93945 31.7924V33.1646L7.59228 32.226V30.4609Z" fill="#514642"/>
<path d="M45.9696 38.2642L32.7316 45.8805L2.55225 28.5921L15.7851 20.9758L45.9696 38.2642Z" fill="#594E4B"/>
<path d="M32.7314 48.5785V45.8799L45.9694 38.2637V40.9572L43.7707 42.2274L43.6075 42.0693L34.8485 47.1043L34.5016 47.3236L32.7314 48.5785Z" fill="#514642"/>
<path d="M32.7316 45.8809V48.5795L29.7677 46.8706L28.5944 44.83L2.2002 29.6332V28.3018L32.7316 45.8809Z" fill="#C3C3C3"/>
<path d="M34.9354 44.6155L32.7316 45.8806L2.2002 28.3015L4.39886 27.0364L34.9354 44.6155Z" fill="#E1E1E1"/>
<path d="M34.9352 44.6162L32.7314 45.8813V48.5799L34.9352 47.3097V44.6162Z" fill="#E6E6E6"/>
<path d="M45.9695 38.2649L43.7709 39.5301L13.2344 21.9509L15.4381 20.6858L45.9695 38.2649Z" fill="#E1E1E1"/>
<path d="M45.9692 38.2637L43.7705 39.5288V42.2274L45.9692 40.9572V38.2637Z" fill="#E6E6E6"/>
<path d="M22.2226 39.0646L12.9025 33.6827C12.6424 33.5297 12.673 33.2695 12.9739 33.0961C13.2749 32.9226 13.734 32.9022 13.9942 33.0552L23.3143 38.4371C23.5745 38.5902 23.5439 38.8503 23.2429 39.0238C22.9419 39.1972 22.4828 39.2176 22.2226 39.0646Z" fill="#594E4B"/>
<path d="M33.2568 32.6388L23.9367 27.2569C23.6765 27.1039 23.7072 26.8437 24.0081 26.6703C24.3091 26.4968 24.7682 26.4764 25.0284 26.6295L34.3485 32.0114C34.6087 32.1644 34.5781 32.4246 34.2771 32.598C33.9761 32.7715 33.517 32.7919 33.2568 32.6388Z" fill="#594E4B"/>
<path d="M13.2344 21.9492V22.444L13.6629 22.1941L13.2344 21.9492Z" fill="#C3C3C3"/>
<path d="M15.8109 23.5366L7.08255 28.5767L6.79688 28.4134L15.5201 23.3784L15.8109 23.5366Z" fill="#473C37"/>
<path d="M17.6523 24.6076L8.94436 29.6324L8.65869 29.4691L17.3717 24.4392L17.6523 24.6076Z" fill="#473C37"/>
<path d="M19.5144 25.6801L10.8116 30.71L10.5259 30.5416L19.2389 25.5117L19.5144 25.6801Z" fill="#473C37"/>
<path d="M21.3765 26.7346L12.6736 31.7594L12.3931 31.5962L21.0704 26.5867L21.3765 26.7346Z" fill="#473C37"/>
<path d="M23.2534 27.7927L14.4995 32.8481L14.2139 32.6849L22.9371 27.6499L23.2534 27.7927Z" fill="#473C37"/>
<path d="M25.0798 28.8737L16.3667 33.9036L16.0811 33.7352L24.7941 28.7053L25.0798 28.8737Z" fill="#473C37"/>
<path d="M26.9572 29.9365L18.2288 34.9766L17.9482 34.8134L26.6511 29.7886L26.9572 29.9365Z" fill="#473C37"/>
<path d="M28.8037 31.0019L20.0957 36.0318L19.8101 35.8685L28.5129 30.8438L28.8037 31.0019Z" fill="#473C37"/>
<path d="M30.6653 32.0415L21.9114 37.0969L21.6309 36.9337L30.349 31.8987L30.6653 32.0415Z" fill="#473C37"/>
<path d="M32.4614 33.1371L23.7483 38.167L23.4678 38.0038L32.1808 32.9739L32.4614 33.1371Z" fill="#473C37"/>
<path d="M34.3382 34.2048L25.6099 39.2449L25.3242 39.0817L34.0322 34.0518L34.3382 34.2048Z" fill="#473C37"/>
<path d="M36.1801 35.2768L27.4722 40.3067L27.1865 40.1435L35.8894 35.1187L36.1801 35.2768Z" fill="#473C37"/>
<path d="M38.0217 36.3617L29.3189 41.3814L29.0332 41.2182L37.7412 36.1934L38.0217 36.3617Z" fill="#473C37"/>
<path d="M39.8937 37.4228L31.1807 42.4527L30.895 42.2895L39.5877 37.2749L39.8937 37.4228Z" fill="#473C37"/>
<path d="M41.7402 38.4987L33.0271 43.5235L32.7415 43.3603L41.4443 38.3354L41.7402 38.4987Z" fill="#473C37"/>
<path d="M31.9715 32.7385L13.2344 21.9492L13.4486 22.3063L31.9715 32.9681V32.7385Z" fill="#C3C3C3"/>
<path d="M33.8435 33.8171V34.0518L43.5666 39.6479L43.7707 39.5306L33.8435 33.8171Z" fill="#C3C3C3"/>
<path d="M43.7711 42.2286L43.5569 42.1062V39.6474L43.7711 39.53V42.2286Z" fill="#C3C3C3"/>
<path d="M7.8067 24.5934C9.07183 24.1292 12.6734 23.2059 13.8722 23.3334C14.367 22.9712 16.0861 20.8491 16.1219 20.6909C16.9942 21.6653 17.9838 21.9867 19.0908 22.2162C18.5756 22.7467 16.1933 25.1138 15.6729 25.6086C15.0659 25.9657 14.4894 26.5064 13.612 26.2565C11.3266 25.6086 9.3575 25.5372 7.822 25.6392C7.28126 24.9862 6.78134 25.9045 7.8067 24.5934Z" fill="#FCC0A9"/>
<path d="M24.1006 23.1447C24.2842 23.0325 24.7995 22.8386 24.7893 22.5938C24.7791 22.3489 23.1262 21.5684 22.1723 22.5938C21.2183 23.6191 19.9532 24.4303 20.0603 24.67C20.1726 24.9098 20.5246 25.0169 21.4122 24.67C22.2998 24.3231 23.8455 23.3029 24.1006 23.1447Z" fill="#2B221D"/>
<path d="M9.72997 25.8374C10.0667 25.3834 9.74017 24.9345 9.30656 24.5825C9.67385 24.3988 9.68406 24.0928 9.74527 23.9397C9.18923 23.9295 8.3016 23.8683 7.77106 24.0111C7.31194 24.1336 7.00076 25.516 6.91404 26.0619C6.69468 27.4545 6.72019 28.4697 7.9088 28.8727C8.2965 29.0053 8.6842 28.735 8.83724 28.1636C9.0668 27.3066 9.41879 26.6434 9.72997 25.8374Z" fill="#FC7734"/>
<path d="M8.08216 23.9341C8.08216 23.9341 7.8424 24.5462 7.54143 25.2043C7.24045 25.8675 6.80173 26.7398 6.93947 27.4234C7.0772 28.1121 7.65365 28.1631 8.04646 28.2702C8.44436 28.3773 8.42905 28.8007 8.42905 28.8007C8.42905 28.8007 8.11277 29.1527 7.37308 28.6936C6.63339 28.2345 6.57217 27.4489 6.6538 26.7143C6.73032 25.9797 7.0619 24.9033 7.17923 24.4595C7.24045 24.2351 7.4394 24.031 7.64345 23.98C7.85261 23.929 8.08216 23.9392 8.08216 23.9392V23.9341Z" fill="#3D322C"/>
<path d="M9.16334 25.001C9.16334 25.001 8.75523 25.7305 8.60219 26.1386C8.44915 26.5467 8.43895 27.2456 8.82665 27.3731C9.09192 27.4598 9.59185 26.3477 9.8061 25.7254C10.0153 25.103 9.16334 25.001 9.16334 25.001Z" fill="#3D322C"/>
<path d="M8.35782 25.6792C8.35782 25.6792 8.79143 25.7761 9.0618 25.9751C9.33217 26.174 9.55663 26.3628 9.55663 26.3628L9.46991 26.6229C9.46991 26.6229 9.19954 26.3322 8.93937 26.1536C8.669 25.9649 8.2915 25.8782 8.2915 25.8782L8.35782 25.6792Z" fill="#E1E1E1"/>
<path d="M8.16859 26.21C8.16859 26.21 8.6022 26.3069 8.87257 26.5058C9.14294 26.7048 9.29598 26.8731 9.29598 26.8731L9.20926 27.0874C9.20926 27.0874 9.0052 26.868 8.74504 26.6895C8.47467 26.5007 8.09717 26.414 8.09717 26.414L8.16348 26.2151L8.16859 26.21Z" fill="#E1E1E1"/>
<path d="M9.31648 25.6063C9.31648 25.6063 9.06652 25.1574 9.16345 25.0044C9.26037 24.8462 10.3929 25.0809 10.4949 25.4329C10.5969 25.7849 10.0613 25.7441 9.72969 25.841C9.39811 25.943 9.31648 25.6063 9.31648 25.6063Z" fill="#3D322C"/>
<path d="M22.896 20.0063C22.896 20.0063 23.8806 21.6235 24.3856 23.1386C24.6152 23.8323 24.6101 24.0313 24.6152 25.0924C24.6152 26.1534 24.6713 26.5156 24.8499 28.4235C25.0284 30.3314 25.36 32.8923 25.36 32.8923L24.0183 33.7697C24.0183 33.7697 22.3859 30.0304 21.9268 28.7143C21.4728 27.3982 21.5952 24.9699 21.5952 24.9699L19.9424 21.5112L22.9011 20.0063H22.896Z" fill="#FCC0A9"/>
<path d="M23.3298 32.9691C23.3298 32.9691 23.5288 33.7904 23.5645 34.3363C23.6002 34.8821 23.7787 35.3616 24.3144 35.4535C24.85 35.5453 25.304 35.4688 26.1916 35.3157C27.6812 35.0607 28.5025 34.8005 28.6148 34.27C28.727 33.7394 28.4413 33.3262 27.4823 33.2599C27.2068 33.2395 26.5028 33.214 26.207 33.0303C25.9468 32.8671 25.7784 32.7039 25.7019 32.5559C25.554 32.2651 25.1612 32.1988 24.6408 32.5814C24.2838 32.8467 24.1817 33.0456 24.146 33.2446C23.7481 33.0456 23.5084 32.9487 23.3247 32.9691H23.3298Z" fill="#FC7734"/>
<path d="M24.8957 32.8209C24.8957 32.8209 24.9416 33.1882 25.4824 33.4331C26.0231 33.678 26.4669 33.6218 26.7679 33.53C27.1199 33.4229 27.4209 33.2545 27.4209 33.2545C27.4209 33.2545 26.6557 33.2443 26.2731 33.0607C25.8905 32.877 25.6966 32.5557 25.6966 32.5557L24.8906 32.8209H24.8957Z" fill="#3D322C"/>
<path d="M28.0739 33.7038C27.6199 33.6426 27.0333 34.1068 26.7782 34.27C26.0283 34.7699 25.7477 34.7699 24.9774 34.8618C24.2071 34.9536 23.595 34.6322 23.595 34.6322C23.595 34.6322 23.6205 35.224 23.7786 35.4076C23.9215 35.5759 24.605 35.6933 25.1764 35.6678C25.7477 35.6474 27.2016 35.3413 27.9005 35.0301C28.5994 34.7189 29.084 33.8313 28.0688 33.6987L28.0739 33.7038Z" fill="#3D322C"/>
<path d="M28.6148 34.2702C28.6148 34.2702 28.3036 33.9896 27.5996 34.2702C26.8956 34.5508 26.5793 35.1017 25.7172 35.3415C24.8551 35.5812 23.9521 35.5149 23.9521 35.5149C23.9521 35.5149 24.1205 35.6527 24.5541 35.6782C25.0948 35.7139 25.9876 35.6272 26.7528 35.418C28.1301 35.0456 28.528 34.7089 28.6148 34.2651V34.2702Z" fill="#2B221D"/>
<path d="M25.2426 33.478L26.2067 33.024L25.9517 32.8403C25.9517 32.8403 25.2834 33.1311 24.9824 33.2535C25.0181 33.3097 25.1151 33.3913 25.2426 33.478Z" fill="#E1E1E1"/>
<path d="M26.3756 33.0918L25.5645 33.607C25.5645 33.607 25.7838 33.6887 25.9113 33.6836C26.0746 33.5968 26.6612 33.1632 26.6612 33.1632L26.3756 33.0918Z" fill="#E1E1E1"/>
<path d="M30.0689 9.32993C29.8088 8.68716 29.6149 8.29436 29.1915 8.0852C28.7477 7.86585 28.4263 8.13622 28.1713 8.53412C27.2479 8.75348 27.5234 9.6309 27.8295 9.92168C27.2377 10.7532 26.549 11.0338 26.1613 11.7122C25.993 11.299 25.4471 10.0696 24.8707 9.27891C24.8197 9.20749 23.1567 10.0798 23.4474 10.8756C23.677 11.498 23.8606 11.8092 24.1769 12.4213C24.5442 13.1253 25.0748 13.5538 25.4573 13.7783C25.9012 14.0384 26.3858 14.0231 27.2428 13.2273C28.0131 12.508 28.3345 11.4215 28.7732 10.794C29.0538 10.391 30.3393 10.0084 30.0689 9.33503V9.32993Z" fill="#FCC0A9"/>
<path d="M18.356 17.3024C18.8406 17.1341 21.5341 15.3588 22.4269 15.1038C22.7381 16.0373 23.4522 18.4655 23.9471 20.3326C24.0899 20.8631 24.7888 21.3529 24.7888 22.5874C23.9471 22.3476 23.0084 22.6486 22.4983 22.9904C21.8912 23.3985 20.9628 24.2555 20.0599 24.6585C19.5446 23.4903 18.3203 20.501 18.1469 19.6643C17.9887 18.9093 17.4429 17.6085 18.3509 17.2922L18.356 17.3024Z" fill="#2B221D"/>
<path d="M13.5049 22.761C14.4792 21.251 14.5098 21.2306 15.1322 18.9707C14.9996 16.5017 15.7597 16.2517 16.7595 14.4102C16.7595 14.4 19.1878 14.4153 19.198 14.4204C19.2082 14.4204 21.3405 16.2415 21.4119 17.2159C21.4731 18.0678 21.6415 20.2971 20.3202 20.6899C20.0703 22.0213 18.0196 24.1792 17.4431 25.4392C16.0759 25.7147 14.5353 23.8782 13.5049 22.761Z" fill="#3D322C"/>
<path d="M22.6313 5.69626C22.3762 6.00744 22.3609 5.99724 22.0854 6.29312C22.0957 6.96139 22.1671 7.62456 22.3405 8.28263C22.6058 9.28759 22.4221 11.425 23.0853 11.3281C23.9474 11.2006 24.9065 10.3487 25.4982 9.67019C25.1768 8.86418 24.8147 8.46628 24.2331 7.51743C24.2331 6.44616 23.2434 5.61974 22.6364 5.70137L22.6313 5.69626Z" fill="#3D322C"/>
<path d="M22.881 6.30908C21.6873 4.92663 21.0139 5.79895 19.4019 6.72739C18.3255 7.48239 17.295 7.81397 17.1726 9.70656C17.1012 10.8084 16.7441 11.1094 16.6982 12.1552C16.6472 13.2877 15.7136 15.9812 15.2749 17.1035C15.5249 18.5369 21.2026 20.1847 23.4166 18.1084C23.636 17.384 23.1309 16.2924 22.8861 15.7108C23.233 14.7161 23.1003 13.3897 23.7431 11.8491C24.7991 9.0638 23.9982 7.59462 22.8912 6.31419L22.881 6.30908Z" fill="#FC7734"/>
<path d="M18.4121 16.2057C18.4121 16.2057 19.9068 16.6903 20.6618 16.624C21.4168 16.5576 21.9218 15.9812 21.9218 15.9812C21.9218 15.9812 21.1107 16.2414 20.4934 16.2108C19.8762 16.1802 18.4121 16.2108 18.4121 16.2108V16.2057Z" fill="#F46425"/>
<path d="M19.4019 6.72794C19.4019 6.72794 20.3762 7.62577 20.82 8.25833C21.2587 8.89089 21.8913 9.78363 22.8299 9.40613C23.7635 9.02863 23.3758 8.38076 23.0493 7.50844C22.7177 6.63611 21.9933 5.83521 21.9933 5.83521C21.9933 5.83521 20.3864 6.05966 19.407 6.72794H19.4019Z" fill="#3D322C"/>
<path d="M20.6927 4.97833C20.6927 4.97833 22.116 4.79979 22.57 5.51397C22.3047 6.22306 22.32 6.87092 22.8455 7.82487C23.2281 8.51355 22.9985 8.89615 22.6414 9.03388C22.2639 9.18182 21.5497 8.7074 21.2488 8.28909C20.6213 7.42187 20.2234 7.00866 19.7388 6.54444C20.0448 6.17204 20.6927 4.97833 20.6927 4.97833Z" fill="#FFB69A"/>
<path d="M23.8656 4.09615C23.8401 3.5044 23.7126 2.75451 23.2534 2.3311C22.7994 1.91279 22.024 1.87198 21.4374 1.91279C20.5293 1.974 19.8866 2.98406 20.0498 4.14206C20.1977 5.21844 20.917 6.87127 22.1107 7.09573C22.7178 7.20796 23.1922 6.75394 23.4728 6.16729C23.8044 5.47351 23.8809 4.58588 23.8605 4.09615H23.8656Z" fill="#FCC0A9"/>
<path d="M20.4122 1.75912C19.7847 1.77442 19.1674 2.4835 19.4225 4.0292C19.5245 4.63626 19.7643 5.29943 20.0653 5.99831C20.1061 6.09524 21.0702 4.88622 21.1978 3.67211C22.2231 4.0343 23.6056 3.39664 24.5952 3.00894C24.2024 1.37142 21.6365 0.136897 20.4122 1.76422V1.75912Z" fill="#2B221D"/>
<path d="M21.0701 4.94759C21.0701 4.94759 20.8303 4.33543 20.4579 4.59049C20.0855 4.85066 20.5803 5.70258 20.5803 5.70258L21.0701 4.94249V4.94759Z" fill="#FFC8B5"/>
<path d="M18.4121 16.4361C18.1519 16.3749 17.8459 16.5841 17.5704 16.63C17.1827 15.472 16.5858 13.7732 16.3971 13.6202C16.5501 13.3957 17.3714 12.4112 17.7387 11.8449C17.5347 11.7123 16.4736 10.2992 16.2797 9.84521C15.637 10.8094 15.0248 11.4317 14.6014 12.1867C14.2443 12.8193 13.9893 13.4059 14.3361 14.1507C14.7596 15.069 15.7033 16.3902 16.4481 17.2319C16.4481 17.2319 16.5195 18.0481 17.1215 18.6246C17.652 19.1347 18.8253 18.849 19.1365 18.191C19.412 17.6196 18.9936 17.4411 18.7896 17.1707C18.8457 16.6198 18.6213 16.4769 18.4223 16.431L18.4121 16.4361Z" fill="#FCC0A9"/>
<path d="M17.1523 13.216C17.5604 12.8997 17.9685 12.512 18.198 12.2059C18.7541 11.456 19.4683 10.5072 19.402 9.4461C19.3509 8.686 19.0092 7.81877 18.2695 7.5127C17.1319 7.74736 16.5095 7.83408 16.03 9.41039C15.576 9.75728 14.8975 10.8847 14.7087 11.3285C14.7087 11.7315 15.7086 13.216 17.1574 13.216H17.1523Z" fill="#3D322C"/>
<path d="M25.6256 32.7236L25.748 32.6165C25.748 32.6165 25.748 32.1319 25.748 31.9686C25.748 31.8054 25.146 31.6829 24.8961 32.086C24.6461 32.489 24.9165 32.892 24.9165 32.892L25.6256 32.7287V32.7236Z" fill="#3D322C"/>
<path d="M19.4273 4.02907C19.4273 4.02907 20.6874 4.32494 22.0851 4.24843C23.4829 4.17191 23.8655 4.09539 23.8655 4.09539L23.789 3.0037C23.789 3.0037 21.4781 3.11593 20.6925 3.0037C19.9018 2.89147 19.4273 2.76904 19.4273 2.76904C19.4273 2.76904 19.1008 3.50873 19.4273 4.02907Z" fill="#FC7734"/>
<path d="M31.9612 21.8187L23.4165 16.8857L22.4524 17.4163L23.8297 18.6202L31.9612 23.3134V21.8187Z" fill="#665B59"/>
<path d="M31.9612 22.9045L22.4524 17.4155V18.9969L31.9612 24.486V22.9045Z" fill="#514642"/>
<path d="M24.5796 18.6398L22.4524 17.4155V19.0326L24.5796 20.2264V18.6398Z" fill="#C3C3C3"/>
<path d="M24.5796 18.6406L22.4524 17.4163L23.4318 16.8857L25.5183 18.0999L24.5796 18.6406Z" fill="#E6E6E6"/>
<path d="M44.2145 15.0016L35.6697 10.0686L34.7107 10.5991L36.0829 11.8031L44.2145 16.4963V15.0016Z" fill="#665B59"/>
<path d="M44.2145 16.0884L34.7107 10.5994V12.1808L44.2145 17.6698V16.0884Z" fill="#514642"/>
<path d="M36.8328 11.8237L34.7107 10.5994V12.2165L36.8328 13.4102V11.8237Z" fill="#C3C3C3"/>
<path d="M36.8328 11.8235L34.7107 10.5991L35.685 10.0686L37.7766 11.2827L36.8328 11.8235Z" fill="#E6E6E6"/>
<path d="M43.184 17.4917L29.7676 27.174L28.6504 25.8834L32.3488 19.0323C32.3488 19.0323 36.6391 15.0533 40.465 12.8444C44.7093 10.3907 46.8774 10.6457 46.8774 10.6457L47.9946 11.9364L43.1789 17.4968L43.184 17.4917Z" fill="#594E4B"/>
<path d="M44.3015 18.781L29.7729 27.1676L33.4714 20.3165C33.4714 20.3165 37.7616 16.3375 41.5876 14.1286C45.8319 11.6749 48 11.9299 48 11.9299L44.3015 18.781Z" fill="#514642"/>
<path d="M43.5565 18.635L31.3899 25.7463L34.2058 20.5276C34.2058 20.5276 38.5776 16.773 41.4905 15.0896C44.7247 13.2225 46.3725 13.4164 46.3725 13.4164L43.5565 18.635Z" fill="#473C37"/>
<path d="M33.8336 45.2949L32.6552 45.9785C32.6552 45.9785 32.2777 35.2045 32.2777 31.7713C32.2777 26.2415 32.0176 23.6551 32.0176 23.6551L33.196 22.9868C33.196 22.9868 33.8336 25.0477 33.8336 30.7204V45.3V45.2949Z" fill="#E6E6E6"/>
<path d="M32.6549 45.9636L31.2776 46.7594C31.2776 46.7594 31.2776 35.9242 31.2776 32.491C31.2776 26.9611 30.9358 25.5685 30.9358 25.5685L32.0224 23.6504C32.0224 23.6504 32.66 25.7113 32.66 31.384V45.9636H32.6549Z" fill="#C3C3C3"/>
<path d="M45.9696 38.2544L44.7912 38.9379C44.7912 38.9379 44.4137 28.1639 44.4137 24.7308C44.4137 19.2009 44.1536 16.6146 44.1536 16.6146L45.332 15.9463C45.332 15.9463 45.9696 18.0072 45.9696 23.6799V38.2595V38.2544Z" fill="#E6E6E6"/>
<path d="M44.7912 38.9284L43.4138 38.2244C43.4138 38.2244 43.4138 28.889 43.4138 25.4558C43.4138 19.926 43.072 18.5333 43.072 18.5333L44.1586 16.6152C44.1586 16.6152 44.7963 18.6762 44.7963 24.3488V38.9284H44.7912Z" fill="#C3C3C3"/>
</svg>
