<svg width="100" height="100" viewBox="0 0 100 100" fill="none" xmlns="http://www.w3.org/2000/svg">
<path d="M4.40039 59.032V61.8173L11.8789 66.3269V63.5824L8.96097 61.0215L4.40039 59.032Z" fill="#594E4B"/>
<path d="M15.1846 60.9216L14.7969 61.0237L11.8789 63.5845V66.329L15.1846 64.4517V60.9216Z" fill="#514642"/>
<path d="M91.9391 76.5284L65.4633 91.7609L5.10449 57.1842L31.5701 41.9517L91.9391 76.5284Z" fill="#594E4B"/>
<path d="M65.4629 97.1571V91.7599L91.9387 76.5273V81.9143L87.5414 84.4548L87.2149 84.1385L69.697 94.2085L69.0032 94.6472L65.4629 97.1571Z" fill="#514642"/>
<path d="M65.4632 91.7618V97.159L59.5354 93.7411L57.1888 89.6601L4.40039 59.2664V56.6035L65.4632 91.7618Z" fill="#C3C3C3"/>
<path d="M69.8707 89.231L65.4632 91.7613L4.40039 56.603L8.79773 54.0728L69.8707 89.231Z" fill="#E1E1E1"/>
<path d="M69.8704 89.2322L65.4629 91.7624V97.1596L69.8704 94.6192V89.2322Z" fill="#E6E6E6"/>
<path d="M91.9391 76.5299L87.5417 79.0601L26.4688 43.9018L30.8763 41.3716L91.9391 76.5299Z" fill="#E1E1E1"/>
<path d="M91.9386 76.5273L87.5413 79.0576V84.4548L91.9386 81.9143V76.5273Z" fill="#E6E6E6"/>
<path d="M44.4453 78.1294L25.8051 67.3657C25.2847 67.0596 25.3459 66.5393 25.9479 66.1924C26.5499 65.8455 27.4681 65.8047 27.9884 66.1107L46.6286 76.8745C47.149 77.1806 47.0878 77.7009 46.4858 78.0478C45.8839 78.3947 44.9656 78.4355 44.4453 78.1294Z" fill="#594E4B"/>
<path d="M66.5139 65.2774L47.8737 54.5136C47.3533 54.2075 47.4145 53.6872 48.0165 53.3403C48.6185 52.9934 49.5367 52.9526 50.057 53.2587L68.6972 64.0225C69.2176 64.3286 69.1564 64.8489 68.5544 65.1958C67.9525 65.5427 67.0342 65.5835 66.5139 65.2774Z" fill="#594E4B"/>
<path d="M26.4688 43.8987V44.8883L27.3258 44.3884L26.4688 43.8987Z" fill="#C3C3C3"/>
<path d="M31.6218 47.0734L14.1651 57.1536L13.5938 56.8271L31.0403 46.7571L31.6218 47.0734Z" fill="#473C37"/>
<path d="M35.3049 49.2151L17.889 59.2647L17.3176 58.9382L34.7437 48.8784L35.3049 49.2151Z" fill="#473C37"/>
<path d="M39.029 51.3599L21.6233 61.4197L21.052 61.083L38.4781 51.0232L39.029 51.3599Z" fill="#473C37"/>
<path d="M42.7527 53.4692L25.347 63.5188L24.7859 63.1923L42.1406 53.1733L42.7527 53.4692Z" fill="#473C37"/>
<path d="M46.5068 55.5855L28.9991 65.6963L28.4277 65.3698L45.8742 55.2998L46.5068 55.5855Z" fill="#473C37"/>
<path d="M50.1593 57.7473L32.7332 67.8071L32.1619 67.4704L49.588 57.4106L50.1593 57.7473Z" fill="#473C37"/>
<path d="M53.9141 59.8728L36.4574 69.953L35.8962 69.6265L53.3019 59.5769L53.9141 59.8728Z" fill="#473C37"/>
<path d="M57.6076 62.0035L40.1917 72.0633L39.6204 71.7369L57.0261 61.6873L57.6076 62.0035Z" fill="#473C37"/>
<path d="M61.3308 64.083L43.8231 74.1938L43.262 73.8674L60.6983 63.7974L61.3308 64.083Z" fill="#473C37"/>
<path d="M64.9228 66.2742L47.4967 76.334L46.9355 76.0076L64.3617 65.9478L64.9228 66.2742Z" fill="#473C37"/>
<path d="M68.6767 68.4093L51.22 78.4895L50.6487 78.1631L68.0646 68.1033L68.6767 68.4093Z" fill="#473C37"/>
<path d="M72.3601 70.5533L54.9442 80.6131L54.3728 80.2867L71.7785 70.2371L72.3601 70.5533Z" fill="#473C37"/>
<path d="M76.0432 72.7237L58.6375 82.763L58.0662 82.4366L75.4821 72.387L76.0432 72.7237Z" fill="#473C37"/>
<path d="M79.7877 74.8457L62.3616 84.9055L61.7903 84.579L79.1756 74.5498L79.7877 74.8457Z" fill="#473C37"/>
<path d="M83.4804 76.9976L66.0543 87.0472L65.4829 86.7207L82.8886 76.6711L83.4804 76.9976Z" fill="#473C37"/>
<path d="M63.943 65.4773L26.4688 43.8987L26.8973 44.6129L63.943 65.9364V65.4773Z" fill="#C3C3C3"/>
<path d="M67.687 67.6343V68.1036L87.1332 79.2959L87.5413 79.0612L67.687 67.6343Z" fill="#C3C3C3"/>
<path d="M87.5423 84.4573L87.1138 84.2124V79.2947L87.5423 79.0601V84.4573Z" fill="#C3C3C3"/>
<path d="M15.6132 49.1868C18.1434 48.2584 25.3465 46.4117 27.7441 46.6668C28.7337 45.9424 32.172 41.6981 32.2435 41.3818C33.9881 43.3305 35.9674 43.9733 38.1814 44.4324C37.1509 45.4935 32.3863 50.2275 31.3456 51.2172C30.1315 51.9314 28.9786 53.0128 27.2238 52.5129C22.653 51.2172 18.7148 51.0743 15.6438 51.2784C14.5623 49.9725 13.5624 51.8089 15.6132 49.1868Z" fill="#FCC0A9"/>
<path d="M48.2012 46.2892C48.5684 46.0647 49.5989 45.677 49.5785 45.1873C49.5581 44.6976 46.2524 43.1366 44.3446 45.1873C42.4367 47.238 39.9064 48.8603 40.1207 49.3398C40.3451 49.8193 41.0491 50.0336 42.8244 49.3398C44.5996 48.646 47.691 46.6055 48.2012 46.2892Z" fill="#2B221D"/>
<path d="M19.4599 51.6746C20.1333 50.7665 19.4803 49.8687 18.6131 49.1647C19.3477 48.7974 19.3681 48.1853 19.4905 47.8792C18.3785 47.8588 16.6032 47.7363 15.5421 48.022C14.6239 48.2669 14.0015 51.0318 13.8281 52.1235C13.3894 54.9088 13.4404 56.9391 15.8176 57.7451C16.593 58.0104 17.3684 57.4697 17.6745 56.327C18.1336 54.6129 18.8376 53.2866 19.4599 51.6746Z" fill="#FC7734"/>
<path d="M16.1643 47.8679C16.1643 47.8679 15.6848 49.0922 15.0829 50.4084C14.4809 51.7347 13.6035 53.4794 13.8789 54.8465C14.1544 56.2239 15.3073 56.3259 16.0929 56.5402C16.8887 56.7544 16.8581 57.6012 16.8581 57.6012C16.8581 57.6012 16.2255 58.3052 14.7462 57.387C13.2668 56.4687 13.1443 54.8975 13.3076 53.4284C13.4606 51.9592 14.1238 49.8064 14.3585 48.9188C14.4809 48.4699 14.8788 48.0618 15.2869 47.9597C15.7052 47.8577 16.1643 47.8781 16.1643 47.8781V47.8679Z" fill="#3D322C"/>
<path d="M18.3269 50.002C18.3269 50.002 17.5107 51.4609 17.2046 52.2771C16.8985 53.0934 16.8781 54.4911 17.6535 54.7462C18.1841 54.9196 19.1839 52.6955 19.6125 51.4507C20.0308 50.206 18.3269 50.002 18.3269 50.002Z" fill="#3D322C"/>
<path d="M16.7156 51.3582C16.7156 51.3582 17.5829 51.552 18.1236 51.9499C18.6643 52.3478 19.1133 52.7253 19.1133 52.7253L18.9398 53.2456C18.9398 53.2456 18.3991 52.6641 17.8787 52.307C17.338 51.9295 16.583 51.7561 16.583 51.7561L16.7156 51.3582Z" fill="#E1E1E1"/>
<path d="M16.3374 52.4197C16.3374 52.4197 17.2046 52.6135 17.7454 53.0114C18.2861 53.4093 18.5922 53.746 18.5922 53.746L18.4188 54.1745C18.4188 54.1745 18.0106 53.7358 17.4903 53.3787C16.9496 53.0012 16.1946 52.8278 16.1946 52.8278L16.3272 52.4299L16.3374 52.4197Z" fill="#E1E1E1"/>
<path d="M18.633 51.2129C18.633 51.2129 18.133 50.3151 18.3269 50.009C18.5207 49.6927 20.7857 50.162 20.9898 50.866C21.1938 51.57 20.1226 51.4884 19.4594 51.6822C18.7962 51.8863 18.633 51.2129 18.633 51.2129Z" fill="#3D322C"/>
<path d="M45.7923 40.0129C45.7923 40.0129 47.7614 43.2472 48.7715 46.2774C49.2306 47.6649 49.2204 48.0628 49.2306 50.185C49.2306 52.3071 49.3429 53.0315 49.6999 56.8473C50.057 60.6631 50.7202 65.7848 50.7202 65.7848L48.0369 67.5397C48.0369 67.5397 44.7721 60.0611 43.8538 57.4288C42.9458 54.7966 43.1907 49.9401 43.1907 49.9401L39.885 43.0227L45.8025 40.0129H45.7923Z" fill="#FCC0A9"/>
<path d="M46.6594 65.9385C46.6594 65.9385 47.0573 67.5811 47.1287 68.6728C47.2001 69.7645 47.5572 70.7235 48.6285 70.9072C49.6998 71.0908 50.6078 70.9378 52.3831 70.6317C55.3622 70.1216 57.0048 69.6012 57.2293 68.5401C57.4538 67.4791 56.8824 66.6527 54.9643 66.52C54.4134 66.4792 53.0054 66.4282 52.4137 66.0609C51.8933 65.7344 51.5566 65.4079 51.4036 65.1121C51.1077 64.5305 50.3221 64.3979 49.2814 65.1631C48.5673 65.6936 48.3632 66.0915 48.2918 66.4894C47.496 66.0915 47.0165 65.8977 46.6492 65.9385H46.6594Z" fill="#FC7734"/>
<path d="M49.7912 65.6421C49.7912 65.6421 49.883 66.3767 50.9645 66.8664C52.046 67.3561 52.9336 67.2439 53.5356 67.0603C54.2396 66.846 54.8415 66.5093 54.8415 66.5093C54.8415 66.5093 53.3111 66.4889 52.5459 66.1216C51.7807 65.7543 51.393 65.1116 51.393 65.1116L49.781 65.6421H49.7912Z" fill="#3D322C"/>
<path d="M56.1479 67.4073C55.2398 67.2849 54.0665 68.2133 53.5564 68.5398C52.0566 69.5396 51.4955 69.5396 49.9549 69.7233C48.4143 69.9069 47.1899 69.2642 47.1899 69.2642C47.1899 69.2642 47.241 70.4477 47.5572 70.815C47.8429 71.1517 49.2101 71.3863 50.3528 71.3353C51.4955 71.2945 54.4032 70.6823 55.801 70.06C57.1987 69.4376 58.168 67.6624 56.1377 67.3971L56.1479 67.4073Z" fill="#3D322C"/>
<path d="M57.2295 68.5402C57.2295 68.5402 56.6071 67.979 55.1992 68.5402C53.7912 69.1013 53.1587 70.2032 51.4344 70.6827C49.7102 71.1623 47.9043 71.0296 47.9043 71.0296C47.9043 71.0296 48.241 71.3051 49.1082 71.3561C50.1897 71.4275 51.9752 71.2541 53.5055 70.8358C56.2603 70.091 57.0561 69.4176 57.2295 68.53V68.5402Z" fill="#2B221D"/>
<path d="M50.4854 66.9562L52.4137 66.0482L51.9036 65.6809C51.9036 65.6809 50.567 66.2625 49.9651 66.5073C50.0365 66.6195 50.2304 66.7828 50.4854 66.9562Z" fill="#E1E1E1"/>
<path d="M52.7509 66.1838L51.1287 67.2143C51.1287 67.2143 51.5674 67.3776 51.8224 67.3673C52.1489 67.1939 53.3222 66.3267 53.3222 66.3267L52.7509 66.1838Z" fill="#E1E1E1"/>
<path d="M60.1379 18.6599C59.6175 17.3743 59.2298 16.5887 58.383 16.1704C57.4954 15.7317 56.8526 16.2724 56.3425 17.0682C54.4958 17.507 55.0468 19.2618 55.6589 19.8434C54.4754 21.5064 53.0981 22.0675 52.3227 23.4245C51.986 22.5981 50.8943 20.1392 49.7414 18.5578C49.6394 18.415 46.3133 20.1596 46.8949 21.7513C47.354 22.996 47.7213 23.6183 48.3538 24.8427C49.0884 26.2506 50.1495 27.1076 50.9147 27.5566C51.8023 28.0769 52.7716 28.0463 54.4856 26.4547C56.0262 25.0161 56.669 22.8429 57.5464 21.588C58.1076 20.782 60.6786 20.0168 60.1379 18.6701V18.6599Z" fill="#FCC0A9"/>
<path d="M36.712 34.6049C37.6813 34.2682 43.0683 30.7177 44.8537 30.2075C45.4761 32.0746 46.9045 36.9311 47.8941 40.6652C48.1798 41.7263 49.5776 42.7057 49.5776 45.1748C47.8941 44.6953 46.0169 45.2972 44.9966 45.9808C43.7825 46.797 41.9256 48.511 40.1197 49.3171C39.0893 46.9807 36.6406 41.0019 36.2937 39.3287C35.9775 37.8187 34.8858 35.217 36.7018 34.5845L36.712 34.6049Z" fill="#2B221D"/>
<path d="M27.0098 45.5221C28.9585 42.5021 29.0197 42.4613 30.2644 37.9415C29.9991 33.0034 31.5193 32.5035 33.519 28.8203C33.519 28.7999 38.3755 28.8305 38.3959 28.8407C38.4163 28.8407 42.681 32.4831 42.8239 34.4318C42.9463 36.1356 43.283 40.5942 40.6405 41.3798C40.1406 44.0427 36.0391 48.3584 34.8862 50.8784C32.1519 51.4294 29.0707 47.7564 27.0098 45.5221Z" fill="#3D322C"/>
<path d="M45.2626 11.3928C44.7524 12.0151 44.7218 11.9947 44.1709 12.5865C44.1913 13.923 44.3341 15.2494 44.681 16.5655C45.2116 18.5754 44.8443 22.8503 46.1706 22.6565C47.8949 22.4014 49.813 20.6976 50.9965 19.3406C50.3537 17.7286 49.6293 16.9328 48.4662 15.0351C48.4662 12.8926 46.4869 11.2397 45.2728 11.403L45.2626 11.3928Z" fill="#3D322C"/>
<path d="M45.7617 12.6182C43.3743 9.85326 42.0275 11.5979 38.8035 13.4548C36.6507 14.9648 34.5898 15.6279 34.3449 19.4131C34.2021 21.6169 33.4879 22.2188 33.3961 24.3104C33.2941 26.5754 31.427 31.9624 30.5496 34.2069C31.0495 37.0739 42.405 40.3693 46.833 36.2169C47.2717 34.7681 46.2616 32.5847 45.7719 31.4216C46.4657 29.4321 46.2004 26.7794 47.4859 23.6982C49.5979 18.1276 47.9961 15.1892 45.7821 12.6284L45.7617 12.6182Z" fill="#FC7734"/>
<path d="M36.8245 32.4113C36.8245 32.4113 39.8138 33.3806 41.3238 33.2479C42.8338 33.1153 43.8439 31.9624 43.8439 31.9624C43.8439 31.9624 42.2217 32.4827 40.9871 32.4215C39.7526 32.3603 36.8245 32.4215 36.8245 32.4215V32.4113Z" fill="#F46425"/>
<path d="M38.8037 13.4559C38.8037 13.4559 40.7524 15.2515 41.64 16.5167C42.5175 17.7818 43.7826 19.5673 45.6599 18.8123C47.527 18.0573 46.7516 16.7615 46.0986 15.0169C45.4354 13.2722 43.9866 11.6704 43.9866 11.6704C43.9866 11.6704 40.7728 12.1193 38.8139 13.4559H38.8037Z" fill="#3D322C"/>
<path d="M41.3852 9.95691C41.3852 9.95691 44.2317 9.59982 45.1398 11.0282C44.6092 12.4464 44.6398 13.7421 45.6907 15.65C46.4559 17.0273 45.9968 17.7925 45.2826 18.068C44.5276 18.3639 43.0992 17.415 42.4973 16.5784C41.2424 14.844 40.4465 14.0176 39.4773 13.0891C40.0895 12.3443 41.3852 9.95691 41.3852 9.95691Z" fill="#FFB69A"/>
<path d="M47.7309 8.19255C47.6799 7.00904 47.4249 5.50926 46.5066 4.66244C45.5986 3.82582 44.0478 3.7442 42.8745 3.82582C41.0584 3.94825 39.7729 5.96837 40.0994 8.28437C40.3952 10.4371 41.8338 13.7428 44.2212 14.1917C45.4353 14.4162 46.3842 13.5081 46.9453 12.3348C47.6085 10.9473 47.7615 9.172 47.7207 8.19255H47.7309Z" fill="#FCC0A9"/>
<path d="M40.8243 3.51823C39.5694 3.54884 38.3349 4.96701 38.845 8.05841C39.049 9.27252 39.5286 10.5989 40.1305 11.9966C40.2122 12.1905 42.1404 9.77245 42.3955 7.34422C44.4462 8.06861 47.2112 6.79328 49.1905 6.01788C48.4049 2.74283 43.2729 0.273794 40.8243 3.52844V3.51823Z" fill="#2B221D"/>
<path d="M42.1401 9.89542C42.1401 9.89542 41.6606 8.6711 40.9158 9.18123C40.171 9.70157 41.1607 11.4054 41.1607 11.4054L42.1401 9.88522V9.89542Z" fill="#FFC8B5"/>
<path d="M36.8244 32.8722C36.3041 32.7498 35.6919 33.1681 35.141 33.2599C34.3656 30.9439 33.1719 27.5465 32.7944 27.2404C33.1005 26.7915 34.7431 24.8224 35.4777 23.6899C35.0696 23.4246 32.9474 20.5985 32.5597 19.6904C31.2742 21.6187 30.0499 22.8634 29.2031 24.3734C28.4889 25.6386 27.9787 26.8119 28.6725 28.3015C29.5193 30.1379 31.4068 32.7804 32.8964 34.4638C32.8964 34.4638 33.0393 36.0963 34.2432 37.2492C35.3042 38.2694 37.6509 37.6981 38.2732 36.3819C38.8242 35.2392 37.9875 34.8822 37.5794 34.3414C37.6917 33.2395 37.2427 32.9539 36.8448 32.862L36.8244 32.8722Z" fill="#FCC0A9"/>
<path d="M34.3045 26.4322C35.1208 25.7996 35.937 25.0242 36.3961 24.4121C37.5082 22.9123 38.9365 21.0146 38.8039 18.8924C38.7019 17.3722 38.0183 15.6378 36.5389 15.0256C34.2637 15.495 33.019 15.6684 32.06 18.821C31.1519 19.5148 29.795 21.7696 29.4175 22.6572C29.4175 23.4632 31.4172 26.4322 34.3147 26.4322H34.3045Z" fill="#3D322C"/>
<path d="M51.2509 65.4472L51.4958 65.233C51.4958 65.233 51.4958 64.2637 51.4958 63.9372C51.4958 63.6108 50.2918 63.3659 49.7919 64.1719C49.292 64.9779 49.8327 65.7839 49.8327 65.7839L51.2509 65.4574V65.4472Z" fill="#3D322C"/>
<path d="M38.8547 8.05814C38.8547 8.05814 41.3747 8.64989 44.1702 8.49685C46.9658 8.34381 47.731 8.19077 47.731 8.19077L47.5779 6.00741C47.5779 6.00741 42.9561 6.23187 41.3849 6.00741C39.8035 5.78295 38.8547 5.53809 38.8547 5.53809C38.8547 5.53809 38.2017 7.01747 38.8547 8.05814Z" fill="#FC7734"/>
<path d="M63.9225 43.6374L46.8331 33.7715L44.9048 34.8326L47.6595 37.2404L63.9225 46.6268V43.6374Z" fill="#665B59"/>
<path d="M63.9225 45.8091L44.9048 34.8311V37.9939L63.9225 48.9719V45.8091Z" fill="#514642"/>
<path d="M49.1593 37.2797L44.9048 34.8311V38.0653L49.1593 40.4527V37.2797Z" fill="#C3C3C3"/>
<path d="M49.1593 37.2812L44.9048 34.8326L46.8637 33.7715L51.0366 36.1997L49.1593 37.2812Z" fill="#E6E6E6"/>
<path d="M88.4289 30.0032L71.3395 20.1372L69.4214 21.1983L72.1659 23.6061L88.4289 32.9925V30.0032Z" fill="#665B59"/>
<path d="M88.4289 32.1768L69.4214 21.1987V24.3615L88.4289 35.3396V32.1768Z" fill="#514642"/>
<path d="M73.6657 23.6474L69.4214 21.1987V24.433L73.6657 26.8204V23.6474Z" fill="#C3C3C3"/>
<path d="M73.6657 23.6469L69.4214 21.1983L71.3701 20.1372L75.5532 22.5654L73.6657 23.6469Z" fill="#E6E6E6"/>
<path d="M86.3681 34.9834L59.5352 54.348L57.3008 51.7668L64.6977 38.0646C64.6977 38.0646 73.2781 30.1066 80.9301 25.6888C89.4187 20.7813 93.7548 21.2915 93.7548 21.2915L95.9892 23.8727L86.3579 34.9936L86.3681 34.9834Z" fill="#594E4B"/>
<path d="M88.6028 37.5622L59.5457 54.3354L66.9426 40.6332C66.9426 40.6332 75.523 32.6752 83.175 28.2574C91.6636 23.35 95.9997 23.8601 95.9997 23.8601L88.6028 37.5622Z" fill="#514642"/>
<path d="M87.1131 37.27L62.7798 51.4925L68.4116 41.0552C68.4116 41.0552 77.1553 33.5461 82.981 30.1792C89.4495 26.4451 92.7449 26.8328 92.7449 26.8328L87.1131 37.27Z" fill="#473C37"/>
<path d="M67.6673 90.5898L65.3105 91.9569C65.3105 91.9569 64.5555 70.4089 64.5555 63.5426C64.5555 52.4829 64.0352 47.3102 64.0352 47.3102L66.392 45.9736C66.392 45.9736 67.6673 50.0955 67.6673 61.4408V90.6V90.5898Z" fill="#E6E6E6"/>
<path d="M65.3099 91.9274L62.5552 93.519C62.5552 93.519 62.5552 71.8486 62.5552 64.9822C62.5552 53.9225 61.8716 51.1372 61.8716 51.1372L64.0447 47.301C64.0447 47.301 65.3201 51.4229 65.3201 62.7682V91.9274H65.3099Z" fill="#C3C3C3"/>
<path d="M91.9393 76.5087L89.5825 77.8759C89.5825 77.8759 88.8275 56.3279 88.8275 49.4615C88.8275 38.4019 88.3071 33.2291 88.3071 33.2291L90.6639 31.8926C90.6639 31.8926 91.9393 36.0144 91.9393 47.3598V76.5189V76.5087Z" fill="#E6E6E6"/>
<path d="M89.5823 77.857L86.8276 76.4491C86.8276 76.4491 86.8276 57.7783 86.8276 50.9119C86.8276 39.8522 86.144 37.0669 86.144 37.0669L88.3172 33.2307C88.3172 33.2307 89.5925 37.3526 89.5925 48.6979V77.857H89.5823Z" fill="#C3C3C3"/>
</svg>
