<svg width="100" height="100" viewBox="0 0 100 100" fill="none" xmlns="http://www.w3.org/2000/svg">
<g clip-path="url(#clip0_1268_76099)">
<path d="M3.46855 81.3923H-0.000976562V83.4964H3.46855V81.3923Z" fill="#C47D47"/>
<path d="M19.5735 81.3923H16.104V83.4964H19.5735V81.3923Z" fill="#C47D47"/>
<path d="M19.5739 61.2808H-0.000976562V81.695H19.5739V61.2808Z" fill="#DA9B68"/>
<path d="M16.7539 64.2905H2.67432V70.1663H16.7539V64.2905Z" fill="#C47D47"/>
<path d="M16.7539 72.5073H2.67432V78.3831H16.7539V72.5073Z" fill="#C47D47"/>
<path d="M98.8805 69.7515H20.6931V78.0783H98.8805V69.7515Z" fill="#DA9B68"/>
<path d="M24.5879 78.033H20.6931V87.826H24.5879V78.033Z" fill="#DA9B68"/>
<path d="M98.8365 78.033H94.9417V87.826H98.8365V78.033Z" fill="#DA9B68"/>
<path d="M91.6954 78.033H88.2258V83.8304H91.6954V78.033Z" fill="#C47D47"/>
<path d="M31.7395 78.033H28.27V83.8304H31.7395V78.033Z" fill="#C47D47"/>
<path d="M96.1719 36.6128H22.6404V60.0377H96.1719V36.6128Z" fill="#C47D47"/>
<path d="M92.8481 40.2964H26.9048V60.0279H92.8481V40.2964Z" fill="#DA9B68"/>
<path d="M54.5382 40.8789C54.0569 40.9349 53.6204 41.1811 53.1616 41.3602C51.6954 41.9198 50.0726 41.6959 48.5169 41.5504C46.4576 41.3602 44.387 41.3154 42.3165 41.4161C41.8241 41.4385 41.2869 41.4945 40.9511 41.8638C40.7384 42.11 40.6489 42.4346 40.5818 42.7592C39.9774 45.725 40.8056 48.8588 40.2012 51.8247C39.8543 53.5259 39.0708 55.4509 40.0445 56.8611C40.5594 57.611 41.4435 57.9803 42.2941 58.2489C46.2113 59.5136 50.4307 59.7374 54.4487 58.898C55.0195 58.7749 55.6126 58.6294 56.0939 58.2825C57.034 57.5998 57.3698 56.3351 57.5936 55.1711C58.0413 52.8432 58.2987 50.4481 58.0637 48.0866C57.8958 46.4301 56.8102 40.6215 54.5494 40.8789H54.5382Z" fill="#04887D"/>
<path d="M75.1871 40.8789C74.7059 40.9349 74.2694 41.1811 73.8105 41.3602C72.3444 41.9198 70.7215 41.6959 69.1658 41.5504C67.1065 41.3602 65.036 41.3154 62.9654 41.4161C62.473 41.4385 61.9358 41.4945 61.6 41.8638C61.3874 42.11 61.2866 42.4346 61.2307 42.7592C60.6263 45.725 61.4545 48.8588 60.8502 51.8247C60.5032 53.5259 59.7198 55.4509 60.6935 56.8611C61.2083 57.611 62.0925 57.9803 62.9431 58.2489C66.8603 59.5136 71.0796 59.7374 75.0976 58.898C75.6684 58.7749 76.2616 58.6294 76.7428 58.2825C77.6829 57.5998 78.0187 56.3351 78.2425 55.1711C78.6902 52.8432 78.9476 50.4481 78.7126 48.0866C78.5447 46.4301 77.4591 40.6215 75.1983 40.8789H75.1871Z" fill="#04887D"/>
<path d="M66.0211 59.5228C66.0211 59.3325 68.0581 48.8904 67.879 47.7936C67.6887 46.6968 68.4386 42.7684 68.4386 42.7684C68.4386 42.7684 75.3553 31.1063 73.0721 24.9842C73.0721 24.9842 66.5807 24.9171 61.0295 30.5914C61.0295 30.5914 61.2198 32.5277 62.3278 32.9753L68.6289 30.7146C68.6289 30.7146 64.6781 35.4152 64.734 37.6088L60.8728 41.1231L55.2208 39.5451C55.2208 39.5451 52.8146 36.7135 51.2029 37.094C51.2029 37.094 41.1301 21.6938 36.7428 19.1196C36.7428 19.1196 35.6572 10.513 30.2291 13.8034C27.3527 15.5494 30.3858 21.2461 34.829 21.4364L41.2532 30.7146C41.2532 30.7146 43.1111 32.9082 43.6035 34.9004C44.096 36.8925 49.7256 42.3095 50.9567 51.0728L52.3781 57.7097L66.0323 59.5116L66.0211 59.5228Z" fill="#FCC0A9"/>
<path d="M60.9184 35.8076V35.8188L60.8401 36.8037L60.5603 40.1054H56.6431V37.0164L60.9184 35.8076Z" fill="#FCC0A9"/>
<g style="mix-blend-mode:multiply">
<path d="M60.9184 35.8188L60.8401 36.8037C58.915 38.9638 56.6431 37.9565 56.6431 37.9565V37.0164L60.9072 35.8076L60.9184 35.8188Z" fill="#D3D3D3"/>
</g>
<path d="M62.8314 31.2642C62.8314 31.2642 63.57 29.6525 62.809 28.2871C62.809 28.2871 63.6036 26.7426 62.9657 26.0375C62.9657 26.0375 62.6411 25.7018 62.4508 26.1159C62.4508 26.1159 62.6523 23.3067 58.8918 23.8103C57.5487 23.9894 56.1833 23.8775 54.8514 23.5641C54.0456 23.3738 53.0943 23.7096 52.5347 25.8585C51.4155 30.145 53.4189 29.3951 53.4189 29.3951L53.8554 31.8909L54.2583 32.5065L59.373 32.596L60.6489 33.5138C60.6489 33.5138 62.5627 33.3011 62.6075 33.2676C62.6523 33.2228 62.8202 31.253 62.8202 31.253L62.8314 31.2642Z" fill="#393E52"/>
<path d="M63.1332 32.0359C63.0101 30.3235 61.8909 31.8233 61.8573 32.741C61.8573 32.741 61.4544 32.0695 61.6223 31.2413C61.6223 31.2413 60.1785 30.6145 60.2233 29.6632C60.2233 29.6632 58.6228 30.4914 58.7795 29.126C58.7795 29.126 56.418 30.0437 54.5041 29.6632C54.5041 29.6632 54.7392 31.2077 54.146 31.5435L54.4706 34.2072C54.4706 34.2072 56.1046 38.2922 58.5109 37.2961C59.1488 37.0275 59.6972 36.7365 60.1561 36.4344C61.4208 35.595 62.014 34.6884 61.9804 34.0505C61.9804 34.0505 63.2563 33.7595 63.1444 32.0471L63.1332 32.0359Z" fill="#FCC0A9"/>
<path d="M54.4709 34.2062C54.4709 34.2062 53.542 33.2772 53.8441 31.7775C54.1463 30.289 55.6684 33.9935 55.6684 33.9935L54.4709 34.2062Z" fill="#FFBEA1"/>
<path d="M66.883 32.3929L71.953 36.8361L68.864 43.473C68.864 43.473 68.2372 45.2973 68.3715 47.5916L68.3044 60.7422L53.3407 60.7087L49.6697 60.0148V58.4479L50.039 57.4406L49.5018 56.7467C49.5018 56.7467 51.1358 47.0432 47.4984 41.727L44.7676 37.6979C44.7676 37.6979 47.8566 32.281 47.7558 31.1282L51.0239 34.9447C51.3373 35.314 51.729 35.6162 52.1543 35.84L54.2584 36.9256C54.874 37.239 55.3776 37.7315 55.7469 38.3246C56.1946 39.0521 57.034 39.9922 58.433 40.093C61.4437 40.3168 62.4845 37.474 62.4845 37.474L66.8718 32.3817L66.883 32.3929Z" fill="#45718E"/>
<path d="M96.4292 69.7532H22.7409C20.7712 69.7532 19.1819 68.0856 19.1819 66.0375V63.7543C19.1819 61.7062 20.7823 60.0386 22.7409 60.0386H96.4403C98.4101 60.0386 99.9994 61.7062 99.9994 63.7543V66.0375C99.9994 68.0856 98.3989 69.7532 96.4403 69.7532H96.4292Z" fill="#D7ECFF"/>
<path d="M88.4051 59.6249C88.4051 59.6249 83.5702 53.1447 68.7632 53.1447C53.9561 53.1447 44.9242 46.519 37.2688 51.1861C29.6135 55.8532 23.3684 57.3305 25.0248 59.5801C26.6812 61.8409 55.7245 58.6735 57.1682 60.9343C58.612 63.1951 64.7676 77.353 68.2931 71.701C73.1281 63.945 85.6967 61.1582 87.4314 61.0015C89.1662 60.856 88.4051 59.6025 88.4051 59.6025V59.6249Z" fill="#EFBF53"/>
<path d="M10.2398 53.064H9.69141V60.4171H10.2398V53.064Z" fill="#CBDDF1"/>
<path d="M12.3889 61.3134H7.7666C7.7666 60.8209 8.14713 60.4292 8.61719 60.4292H11.5383C12.0084 60.4292 12.3889 60.8209 12.3889 61.3134Z" fill="#ADC4D8"/>
<path d="M13.2838 53.2558H6.64697L8.7175 46.7085H11.2133L13.2838 53.2558Z" fill="#EFBF53"/>
</g>
<defs>
<clipPath id="clip0_1268_76099">
<rect width="100" height="100" fill="white"/>
</clipPath>
</defs>
</svg>
