<svg width="100" height="100" viewBox="0 0 100 100" fill="none" xmlns="http://www.w3.org/2000/svg">
<path d="M55.4113 26.4991C58.7741 26.4991 61.5002 23.7729 61.5002 20.4101C61.5002 17.0473 58.7741 14.3212 55.4113 14.3212H54.1654V26.4987H55.4113V26.4991Z" fill="#EDC901"/>
<path d="M54.1627 15.9738V15.1859H58.5409C58.9156 15.4097 59.2599 15.6771 59.5762 15.9738H54.1627Z" fill="#EDAA03"/>
<path d="M60.1357 16.5754C60.6447 17.2023 61.0349 17.9287 61.2625 18.723H54.1628V16.5754H60.1357Z" fill="#EDAA03"/>
<path d="M49.8604 24.7152C47.4825 22.3373 47.4825 18.482 49.8604 16.1042C52.2382 13.7263 56.0935 13.7263 58.4714 16.1042C60.8492 18.482 60.8492 22.3373 58.4714 24.7152C56.0935 27.093 52.2382 27.093 49.8604 24.7152Z" fill="#EDEB04"/>
<path d="M50.7417 23.8342C48.8504 21.9429 48.8504 18.8765 50.7417 16.9852C52.633 15.0939 55.6994 15.0939 57.5906 16.9852C59.4819 18.8765 59.4819 21.9429 57.5906 23.8342C55.6994 25.7254 52.633 25.7254 50.7417 23.8342Z" fill="#EDC901"/>
<path d="M53.7826 16.6458V17.718H54.324V16.6458H53.7826ZM53.8584 22.5408V23.5191H54.3999V22.5408H53.8584ZM53.6562 21.3568C53.6562 21.222 53.6743 21.1077 53.7104 21.0138C53.7465 20.92 53.803 20.8357 53.88 20.7611C53.957 20.6865 54.0605 20.6155 54.1905 20.5481C54.4552 20.4278 54.6887 20.2991 54.8908 20.1619C55.093 20.0247 55.2506 19.855 55.3637 19.6529C55.4744 19.4483 55.5298 19.1896 55.5298 18.8767C55.5298 18.5759 55.4696 18.316 55.3493 18.097C55.2265 17.878 55.0569 17.7083 54.8403 17.588C54.6237 17.4677 54.3722 17.4075 54.0858 17.4075C53.8692 17.4075 53.6731 17.446 53.4974 17.523C53.3193 17.5976 53.1665 17.7083 53.0389 17.8551C52.909 17.9995 52.8103 18.1776 52.7429 18.3894C52.6731 18.5988 52.6382 18.8382 52.6382 19.1078H53.649C53.649 18.9658 53.6598 18.8406 53.6815 18.7324C53.7031 18.6241 53.7344 18.5338 53.7753 18.4616C53.8162 18.3894 53.8644 18.3353 53.9197 18.2992C53.9751 18.2631 54.0353 18.245 54.1002 18.245C54.1965 18.245 54.2759 18.2739 54.3385 18.3316C54.4011 18.387 54.4468 18.4616 54.4757 18.5555C54.5045 18.6493 54.519 18.7552 54.519 18.8731C54.519 18.9935 54.5021 19.0994 54.4684 19.1908C54.4323 19.2799 54.3746 19.3617 54.2952 19.4363C54.2133 19.5085 54.1075 19.5831 53.9775 19.6601C53.7104 19.7828 53.4781 19.9152 53.2808 20.0572C53.081 20.1968 52.9258 20.3689 52.8151 20.5734C52.702 20.7756 52.6454 21.0343 52.6454 21.3496C52.6454 21.66 52.708 21.9247 52.8331 22.1437C52.9583 22.3627 53.1328 22.53 53.3566 22.6455C53.578 22.7586 53.8379 22.8152 54.1363 22.8152C54.324 22.8152 54.5106 22.7863 54.6959 22.7286C54.8812 22.6684 55.0496 22.5721 55.2013 22.4398C55.3529 22.305 55.4744 22.1281 55.5659 21.9091C55.6549 21.6877 55.6994 21.4133 55.6994 21.086H54.6887C54.6887 21.2593 54.673 21.4037 54.6417 21.5192C54.6104 21.6323 54.5695 21.7226 54.519 21.79C54.4684 21.8574 54.4095 21.9055 54.3421 21.9344C54.2747 21.9632 54.2061 21.9777 54.1363 21.9777C54.0256 21.9777 53.9354 21.95 53.8656 21.8947C53.7958 21.8393 53.7441 21.7659 53.7104 21.6744C53.6743 21.5806 53.6562 21.4747 53.6562 21.3568Z" fill="#EDEB04"/>
<path d="M54.1653 15.5671C54.2348 15.5671 54.302 15.5746 54.3708 15.5776C51.7922 15.686 49.7334 17.8048 49.7334 20.4101C49.7334 23.0154 51.7922 25.1343 54.3708 25.2427C54.3023 25.2454 54.2348 25.2531 54.1653 25.2531C51.4904 25.2531 49.3223 23.085 49.3223 20.4101C49.3226 17.7353 51.4908 15.5671 54.1653 15.5671Z" fill="#EDAA03"/>
<path d="M16.3639 38.9763C16.7247 38.3802 17.5288 38.257 18.0517 38.7178C19.81 40.2675 23.3669 43.9284 24.1001 48.7137L13.585 50.3245C12.8522 45.5392 15.1503 40.9815 16.3639 38.9763Z" fill="#F6A7C1"/>
<path d="M13.5844 50.3202C13.44 49.3777 15.677 48.2532 18.5808 47.8084C21.4846 47.3637 23.9556 47.7671 24.1 48.7096C24.2443 49.652 22.0073 50.7766 19.1035 51.2213C16.1997 51.6661 13.7287 51.2626 13.5844 50.3202Z" fill="#FACFDE"/>
<path d="M97.9853 47.5707L92.7882 50.3448L93.4377 51.5617L98.6348 48.7876C98.971 48.6084 99.0976 48.1905 98.9184 47.8546C98.7395 47.5184 98.3215 47.3911 97.9853 47.5707Z" fill="#F6A7C1"/>
<path d="M93.4382 51.5609L92.7888 50.344C91.5773 50.9908 90.0656 50.5313 89.4189 49.3195C88.7724 48.1083 89.2319 46.5967 90.4434 45.9499L89.7939 44.733C87.9113 45.738 87.1974 48.0867 88.2023 49.969C89.2069 51.8519 91.5556 52.5658 93.4382 51.5609Z" fill="#F6A7C1"/>
<path d="M92.7883 50.3455L93.4378 51.5624C95.3204 50.5575 96.0343 48.2087 95.0294 46.3261C94.0248 44.4439 91.6761 43.73 89.7935 44.7349L90.443 45.9518C91.6545 45.305 93.1661 45.7644 93.8125 46.976C94.4593 48.1875 93.9998 49.6991 92.7883 50.3455Z" fill="#FACFDE"/>
<path d="M88.2409 54.3366L93.438 51.5625L92.7885 50.3456L87.5914 53.1197C87.2552 53.2989 87.1286 53.7171 87.3079 54.0527C87.4868 54.3889 87.9047 54.5162 88.2409 54.3366Z" fill="#FACFDE"/>
<path d="M67.9439 56.2259C63.2278 55.6621 59.122 57.5694 57.7839 68.7633C56.9492 75.7467 58.7342 89.0126 60.7987 92.9563C62.0828 95.4094 64.4039 95.6869 66.2301 93.6055C69.1659 90.2592 74.0278 77.788 74.8626 70.8048C76.2007 59.6109 72.66 56.7896 67.9439 56.2259Z" fill="#F6A7C1"/>
<path d="M33.1027 56.2259C28.3866 55.6621 24.2808 57.5694 22.9427 68.7633C22.108 75.7467 23.893 89.0126 25.9575 92.9563C27.2416 95.4094 29.5627 95.6869 31.3889 93.6055C34.3247 90.2592 39.1866 77.788 40.0214 70.8048C41.3591 59.6109 37.8188 56.7896 33.1027 56.2259Z" fill="#F6A7C1"/>
<path d="M49.4017 92.2398C25.7941 92.2398 6.65626 78.5747 6.65626 61.7178C6.65626 44.861 25.7941 31.1958 49.4017 31.1958C73.0094 31.1958 92.1472 44.861 92.1472 61.7178C92.1472 78.5747 73.0094 92.2398 49.4017 92.2398Z" fill="#FACFDE"/>
<path d="M21.6518 55.2453C20.7178 55.2453 19.9606 53.9557 19.9606 52.3649C19.9606 50.7741 20.7178 49.4845 21.6518 49.4845C22.5858 49.4845 23.343 50.7741 23.343 52.3649C23.343 53.9557 22.5858 55.2453 21.6518 55.2453Z" fill="#424242"/>
<path d="M7.95704 54.2338C8.26287 54.8529 8.72127 55.2428 9.23369 55.2428C10.1664 55.2428 10.9229 53.9587 10.9229 52.361C10.9229 51.2602 10.5637 50.3124 10.0287 49.8232C9.18779 51.2451 8.49207 52.7128 7.95704 54.2338Z" fill="#424242"/>
<path d="M40.871 36.659C40.9342 36.659 40.998 36.6539 41.0621 36.6435C46.5002 35.7314 52.306 35.7314 57.7441 36.6435C58.3669 36.7464 58.9596 36.3268 59.0646 35.702C59.1693 35.0779 58.7477 34.4868 58.1232 34.3815C52.4359 33.4275 46.3706 33.4275 40.6827 34.3815C40.0582 34.4868 39.6369 35.0779 39.7416 35.702C39.8357 36.2627 40.3212 36.659 40.871 36.659Z" fill="#F27AA2"/>
<path d="M23.0612 44.8007C24.911 45.4124 26.9901 46.1918 29.1613 47.1168C31.3321 48.0417 33.3426 48.997 35.0625 49.9067C36.5073 44.8541 35.3302 39.6178 34.5734 37.1185C34.3212 36.2854 33.3886 35.8878 32.6088 36.2854C30.2847 37.4703 25.6982 40.2524 23.0612 44.8007Z" fill="#FBD7E3"/>
<path d="M24.6594 45.3517C26.0735 45.856 27.5946 46.4525 29.1619 47.1175C30.7288 47.7825 32.2117 48.4627 33.5647 49.1354C34.4207 45.4969 33.5954 41.8353 33.0526 40.0392C32.8615 39.4045 32.1506 39.1065 31.5697 39.4045C29.8954 40.2609 26.6774 42.21 24.6594 45.3517Z" fill="#F6A7C1"/>
<path d="M49.4019 87.4965C67.9452 87.4965 83.9062 79.6327 91.1313 68.3247C86.9014 82.0034 69.8305 92.2389 49.4019 92.2389C28.9734 92.2389 11.9022 82.0034 7.67252 68.3243C14.8974 79.6327 30.8583 87.4965 49.4019 87.4965Z" fill="#F9C0D4"/>
<path d="M67.9437 56.2257C63.0977 57.4325 59.7744 60.8405 62.6386 72.3426C64.4256 79.5182 71.1333 91.8908 74.6352 94.9964C76.8135 96.9282 79.1984 96.3341 80.2161 93.6066C81.8523 89.2214 81.9741 75.1481 80.1874 67.9725C77.3232 56.4701 72.7898 55.0189 67.9437 56.2257Z" fill="#FACFDE"/>
<path d="M30.3543 56.2257C25.5082 57.4325 22.1849 60.8405 25.0495 72.3426C26.8365 79.5182 33.5442 91.8908 37.0461 94.9964C39.2244 96.9282 41.6093 96.3341 42.627 93.6066C44.2632 89.2214 44.385 75.1481 42.5983 67.9725C39.7338 56.4701 35.2003 55.0189 30.3543 56.2257Z" fill="#FACFDE"/>
<path d="M12.4383 76.0015C16.2875 76.0015 19.408 72.1003 19.408 67.2877C19.408 62.4754 16.2875 58.5742 12.4383 58.5742H7.97068V76.0015H12.4383Z" fill="#F6A7C1"/>
<path d="M7.9703 76.0012C4.12107 76.0012 1.00065 72.1 1.00065 67.2877C1.00065 62.4754 4.12107 58.5742 7.9703 58.5742C11.8195 58.5742 14.9399 62.4754 14.9399 67.2877C14.9399 72.1 11.8195 76.0012 7.9703 76.0012Z" fill="#FACFDE"/>
<path d="M9.2352 67.2884C9.2352 68.4138 9.77091 69.3262 10.4315 69.3262C11.0925 69.3262 11.6282 68.4138 11.6282 67.2884C11.6282 66.1629 11.0925 65.2505 10.4315 65.2505C9.77091 65.2508 9.2352 66.1633 9.2352 67.2884Z" fill="#424242"/>
<path d="M4.26877 69.3262C3.60806 69.3262 3.07245 68.4138 3.07245 67.2884C3.07245 66.1629 3.60806 65.2505 4.26877 65.2505C4.92948 65.2505 5.46509 66.1629 5.46509 67.2884C5.46509 68.4138 4.92948 69.3262 4.26877 69.3262Z" fill="#424242"/>
<path d="M57.7436 36.6446C52.3054 35.7325 46.4997 35.7325 41.0616 36.6446C40.9975 36.6551 40.9337 36.6602 40.8705 36.6602C40.5326 36.6602 40.2315 36.4985 40.0178 36.2531C40.1856 36.0633 40.4131 35.9246 40.6822 35.879C46.3701 34.9251 52.4354 34.9251 58.1227 35.879C58.3964 35.9253 58.627 36.0681 58.7954 36.2628C58.5422 36.5535 58.1507 36.7118 57.7436 36.6446Z" fill="#EF5D8E"/>
<g opacity="0.2">
<path d="M40.871 36.659C40.9342 36.659 40.998 36.6539 41.0621 36.6435C46.5002 35.7314 52.306 35.7314 57.7441 36.6435C58.3669 36.7464 58.9596 36.3268 59.0646 35.702C59.1693 35.0779 58.7477 34.4868 58.1232 34.3815C52.4359 33.4275 46.3706 33.4275 40.6827 34.3815C40.0582 34.4868 39.6369 35.0779 39.7416 35.702C39.8357 36.2627 40.3212 36.659 40.871 36.659Z" fill="#797979"/>
</g>
<path opacity="0.7" d="M76.332 51.4241C72.8449 47.9369 71.3832 43.7448 73.0672 42.0608C74.7513 40.3767 78.9434 41.8384 82.4306 45.3256C85.9177 48.8127 87.3794 53.0048 85.6954 54.6889C84.0113 56.373 79.8192 54.9113 76.332 51.4241Z" fill="white"/>
<path d="M50.6237 34.5424C53.9865 34.5424 56.7126 31.8163 56.7126 28.4538C56.7126 25.091 53.9865 22.3649 50.6237 22.3649H49.3778V34.5424H50.6237Z" fill="#FFD801"/>
<path d="M49.3755 24.0174V23.2295H53.754C54.1287 23.4533 54.473 23.7206 54.7893 24.0174H49.3755Z" fill="#FFB703"/>
<path d="M55.3483 24.6172C55.8574 25.244 56.2476 25.9705 56.4751 26.7648H49.3755V24.6172H55.3483Z" fill="#FFB703"/>
<path d="M43.4586 29.8607C42.6801 26.5893 44.701 23.3063 47.9723 22.5278C51.2437 21.7493 54.5268 23.7702 55.3053 27.0415C56.0837 30.3129 54.0629 33.5959 50.7915 34.3744C47.5202 35.1529 44.2371 33.1321 43.4586 29.8607Z" fill="#FFFD04"/>
<path d="M44.6653 29.5757C44.0469 26.9735 45.6551 24.3627 48.2573 23.7443C50.8596 23.1259 53.4704 24.7341 54.0888 27.3363C54.7072 29.9386 53.099 32.5494 50.4967 33.1678C47.8945 33.7862 45.2837 32.178 44.6653 29.5757Z" fill="#FFD801"/>
<path d="M48.995 24.6896V25.7618H49.5364V24.6896H48.995ZM49.0708 30.5847V31.5629H49.6123V30.5847H49.0708ZM48.8686 29.4006C48.8686 29.2658 48.8867 29.1515 48.9228 29.0577C48.9589 28.9638 49.0154 28.8796 49.0924 28.805C49.1694 28.7304 49.2729 28.6594 49.4029 28.592C49.6676 28.4716 49.9011 28.3429 50.1032 28.2057C50.3054 28.0685 50.463 27.8989 50.5761 27.6967C50.6868 27.4921 50.7422 27.2334 50.7422 26.9206C50.7422 26.6197 50.682 26.3598 50.5617 26.1408C50.4389 25.9218 50.2693 25.7522 50.0527 25.6318C49.8361 25.5115 49.5846 25.4513 49.2982 25.4513C49.0816 25.4513 48.8855 25.4898 48.7098 25.5668C48.5317 25.6415 48.3789 25.7522 48.2513 25.899C48.1214 26.0434 48.0227 26.2214 47.9553 26.4332C47.8855 26.6426 47.8506 26.8821 47.8506 27.1516H48.8614C48.8614 27.0096 48.8722 26.8845 48.8939 26.7762C48.9155 26.6679 48.9468 26.5776 48.9877 26.5054C49.0287 26.4332 49.0768 26.3791 49.1321 26.343C49.1875 26.3069 49.2477 26.2888 49.3126 26.2888C49.4089 26.2888 49.4883 26.3177 49.5509 26.3755C49.6135 26.4308 49.6592 26.5054 49.6881 26.5993C49.7169 26.6931 49.7314 26.799 49.7314 26.917C49.7314 27.0373 49.7145 27.1432 49.6808 27.2346C49.6447 27.3237 49.587 27.4055 49.5076 27.4801C49.4257 27.5523 49.3199 27.6269 49.1899 27.7039C48.9228 27.8267 48.6905 27.959 48.4932 28.101C48.2934 28.2406 48.1382 28.4127 48.0275 28.6172C47.9144 28.8194 47.8578 29.0781 47.8578 29.3934C47.8578 29.7038 47.9204 29.9686 48.0455 30.1876C48.1707 30.4066 48.3452 30.5738 48.569 30.6893C48.7904 30.8025 49.0503 30.859 49.3487 30.859C49.5364 30.859 49.723 30.8301 49.9083 30.7724C50.0936 30.7122 50.262 30.6159 50.4137 30.4836C50.5653 30.3488 50.6868 30.1719 50.7783 29.9529C50.8673 29.7315 50.9118 29.4572 50.9118 29.1299H49.9011C49.9011 29.3031 49.8854 29.4475 49.8541 29.563C49.8228 29.6762 49.7819 29.7664 49.7314 29.8338C49.6808 29.9012 49.6219 29.9493 49.5545 29.9782C49.4871 30.0071 49.4185 30.0215 49.3487 30.0215C49.238 30.0215 49.1478 29.9938 49.078 29.9385C49.0082 29.8831 48.9565 29.8097 48.9228 29.7183C48.8867 29.6244 48.8686 29.5185 48.8686 29.4006Z" fill="#FFFD04"/>
<path d="M49.3777 23.611C49.4472 23.611 49.5144 23.6184 49.5833 23.6214C47.0046 23.7298 44.9458 25.8487 44.9458 28.454C44.9458 31.0593 47.0046 33.1781 49.5833 33.2865C49.5147 33.2895 49.4472 33.297 49.3777 33.297C46.7032 33.297 44.5347 31.1288 44.5347 28.454C44.535 25.7795 46.7032 23.611 49.3777 23.611Z" fill="#FFB703"/>
<path d="M51.6244 13.9107C54.9872 13.9107 57.7134 11.1845 57.7134 7.82173C57.7134 4.45894 54.9872 1.73279 51.6244 1.73279H50.3785V13.9103L51.6244 13.9107Z" fill="#D9B801"/>
<path d="M50.3761 3.38846V2.60059H54.7542C55.1289 2.82439 55.4733 3.09174 55.7896 3.38846H50.3761Z" fill="#D99C03"/>
<path d="M56.349 3.99023C56.8581 4.61709 57.2483 5.34352 57.4758 6.1378H50.3762V3.99023H56.349Z" fill="#D99C03"/>
<path d="M50.3783 13.9107C47.0155 13.9107 44.2894 11.1846 44.2894 7.82173C44.2894 4.4589 47.0155 1.73279 50.3783 1.73279C53.7412 1.73279 56.4673 4.4589 56.4673 7.82173C56.4673 11.1846 53.7412 13.9107 50.3783 13.9107Z" fill="#D9D703"/>
<path d="M46.9548 11.2458C45.0635 9.35448 45.0635 6.28809 46.9548 4.3968C48.8461 2.50551 51.9125 2.50551 53.8038 4.3968C55.6951 6.28809 55.6951 9.35448 53.8038 11.2458C51.9125 13.1371 48.8461 13.1371 46.9548 11.2458Z" fill="#D9B801"/>
<path d="M49.9957 4.05743V5.12958H50.5372V4.05743H49.9957ZM50.0715 9.95245V10.9307H50.613V9.95245H50.0715ZM49.8693 8.7684C49.8693 8.63362 49.8874 8.51931 49.9235 8.42545C49.9596 8.33159 50.0161 8.24736 50.0932 8.17276C50.1702 8.09815 50.2737 8.02716 50.4036 7.95977C50.6683 7.83944 50.9018 7.71068 51.1039 7.57351C51.3061 7.43633 51.4637 7.26666 51.5768 7.06451C51.6875 6.85994 51.7429 6.60123 51.7429 6.28837C51.7429 5.98754 51.6827 5.72763 51.5624 5.50862C51.4397 5.28962 51.27 5.11995 51.0534 4.99962C50.8368 4.87929 50.5853 4.81913 50.2989 4.81913C50.0823 4.81913 49.8862 4.85763 49.7105 4.93464C49.5324 5.00925 49.3796 5.11995 49.252 5.26676C49.1221 5.41116 49.0234 5.58925 48.956 5.80103C48.8862 6.0104 48.8513 6.24986 48.8513 6.51941H49.8621C49.8621 6.37742 49.873 6.25227 49.8946 6.14397C49.9163 6.03567 49.9476 5.94543 49.9885 5.87323C50.0294 5.80103 50.0775 5.74688 50.1329 5.71078C50.1882 5.67468 50.2484 5.65663 50.3134 5.65663C50.4096 5.65663 50.489 5.68551 50.5516 5.74327C50.6142 5.79862 50.6599 5.87323 50.6888 5.96709C50.7177 6.06094 50.7321 6.16684 50.7321 6.28476C50.7321 6.40509 50.7153 6.51098 50.6816 6.60243C50.6455 6.69148 50.5877 6.7733 50.5083 6.84791C50.4265 6.92011 50.3206 6.99471 50.1906 7.07173C49.9235 7.19446 49.6913 7.32683 49.4939 7.46882C49.2942 7.6084 49.1389 7.78048 49.0282 7.98504C48.9151 8.1872 48.8586 8.44591 48.8586 8.76118C48.8586 9.07163 48.9211 9.33636 49.0463 9.55536C49.1714 9.77436 49.3459 9.94162 49.5697 10.0571C49.7911 10.1703 50.051 10.2268 50.3495 10.2268C50.5372 10.2268 50.7237 10.1979 50.909 10.1402C51.0943 10.08 51.2628 9.98374 51.4144 9.85138C51.566 9.71661 51.6875 9.53972 51.779 9.32072C51.868 9.09931 51.9126 8.82495 51.9126 8.49765H50.9018C50.9018 8.67093 50.8861 8.81532 50.8549 8.93084C50.8236 9.04395 50.7827 9.1342 50.7321 9.20159C50.6816 9.26897 50.6226 9.31711 50.5552 9.34599C50.4878 9.37486 50.4193 9.3893 50.3495 9.3893C50.2388 9.3893 50.1485 9.36163 50.0787 9.30628C50.0089 9.25092 49.9572 9.17752 49.9235 9.08607C49.8874 8.99221 49.8693 8.88632 49.8693 8.7684Z" fill="#D9D703"/>
<path d="M50.3784 2.97876C50.4479 2.97876 50.5151 2.98619 50.584 2.98923C48.0053 3.09758 45.9466 5.21646 45.9466 7.82176C45.9466 10.4271 48.0053 12.5459 50.584 12.6543C50.5155 12.657 50.4479 12.6648 50.3784 12.6648C47.7039 12.6648 45.5354 10.4966 45.5354 7.82176C45.5354 5.14692 47.7039 2.97876 50.3784 2.97876Z" fill="#D99C03"/>
<path d="M45.7389 20.6852C42.3761 20.6852 39.6503 17.9591 39.6503 14.5966C39.6503 11.2338 42.3765 8.50769 45.7389 8.50769H46.9849V20.6852H45.7389Z" fill="#FFD801"/>
<path d="M46.9873 10.1598V9.37195H42.6088C42.2341 9.59575 41.8898 9.8631 41.5735 10.1598H46.9873Z" fill="#FFB703"/>
<path d="M41.0145 10.7596C40.5054 11.3865 40.1152 12.1129 39.8877 12.9072H46.9873V10.7596H41.0145Z" fill="#FFB703"/>
<path d="M42.6802 18.9017C40.3023 16.5238 40.3023 12.6686 42.6802 10.2907C45.0581 7.91284 48.9133 7.91284 51.2912 10.2907C53.669 12.6686 53.669 16.5238 51.2912 18.9017C48.9133 21.2795 45.0581 21.2795 42.6802 18.9017Z" fill="#FFFD04"/>
<path d="M43.5613 18.0207C41.67 16.1294 41.67 13.063 43.5613 11.1717C45.4525 9.28041 48.5189 9.28041 50.4102 11.1717C52.3015 13.063 52.3015 16.1294 50.4102 18.0207C48.5189 19.912 45.4525 19.912 43.5613 18.0207Z" fill="#FFD801"/>
<path d="M46.6048 10.8325V11.9046H47.1463V10.8325H46.6048ZM46.6806 16.7275V17.7058H47.2221V16.7275H46.6806ZM46.4785 15.5434C46.4785 15.4086 46.4965 15.2943 46.5326 15.2005C46.5687 15.1066 46.6253 15.0224 46.7023 14.9478C46.7793 14.8732 46.8828 14.8022 47.0127 14.7348C47.2775 14.6145 47.5109 14.4857 47.7131 14.3485C47.9152 14.2114 48.0729 14.0417 48.186 13.8395C48.2967 13.635 48.352 13.3763 48.352 13.0634C48.352 12.7626 48.2919 12.5027 48.1715 12.2836C48.0488 12.0646 47.8791 11.895 47.6625 11.7746C47.4459 11.6543 47.1944 11.5942 46.9081 11.5942C46.6915 11.5942 46.4953 11.6327 46.3196 11.7097C46.1415 11.7843 45.9887 11.895 45.8612 12.0418C45.7312 12.1862 45.6325 12.3643 45.5652 12.5761C45.4954 12.7854 45.4605 13.0249 45.4605 13.2944H46.4713C46.4713 13.1524 46.4821 13.0273 46.5037 12.919C46.5254 12.8107 46.5567 12.7205 46.5976 12.6483C46.6385 12.5761 46.6866 12.5219 46.742 12.4858C46.7974 12.4497 46.8575 12.4317 46.9225 12.4317C47.0188 12.4317 47.0982 12.4605 47.1608 12.5183C47.2233 12.5736 47.2691 12.6483 47.2979 12.7421C47.3268 12.836 47.3412 12.9419 47.3412 13.0598C47.3412 13.1801 47.3244 13.286 47.2907 13.3775C47.2546 13.4665 47.1969 13.5483 47.1174 13.6229C47.0356 13.6951 46.9297 13.7697 46.7998 13.8468C46.5326 13.9695 46.3004 14.1019 46.103 14.2438C45.9033 14.3834 45.7481 14.5555 45.6374 14.7601C45.5242 14.9622 45.4677 15.2209 45.4677 15.5362C45.4677 15.8467 45.5303 16.1114 45.6554 16.3304C45.7806 16.5494 45.955 16.7166 46.1788 16.8322C46.4003 16.9453 46.6602 17.0018 46.9586 17.0018C47.1463 17.0018 47.3328 16.973 47.5181 16.9152C47.7034 16.855 47.8719 16.7588 48.0235 16.6264C48.1751 16.4916 48.2967 16.3147 48.3881 16.0957C48.4772 15.8743 48.5217 15.6 48.5217 15.2727H47.5109C47.5109 15.446 47.4953 15.5903 47.464 15.7059C47.4327 15.819 47.3918 15.9092 47.3412 15.9766C47.2907 16.044 47.2317 16.0921 47.1644 16.121C47.097 16.1499 47.0284 16.1643 46.9586 16.1643C46.8479 16.1643 46.7576 16.1367 46.6879 16.0813C46.6181 16.0259 46.5663 15.9525 46.5326 15.8611C46.4965 15.7672 46.4785 15.6613 46.4785 15.5434Z" fill="#FFFD04"/>
<path d="M46.9849 9.75183C46.9153 9.75183 46.8482 9.75926 46.7793 9.7623C49.3579 9.87065 51.4167 11.9895 51.4167 14.5948C51.4167 17.2001 49.3579 19.319 46.7793 19.4274C46.8482 19.4304 46.9153 19.4378 46.9849 19.4378C49.6594 19.4378 51.8279 17.2697 51.8279 14.5948C51.8275 11.9203 49.6594 9.75183 46.9849 9.75183Z" fill="#FFB703"/>
</svg>
