<svg width="50" height="50" viewBox="0 0 50 50" fill="none" xmlns="http://www.w3.org/2000/svg">
<path d="M29.8586 21.8115L9.11719 31.8118L9.86389 33.3605L30.6053 23.3602L29.8586 21.8115Z" fill="#E6E7E8"/>
<path d="M30.6054 23.3537L9.86401 33.354L11.2861 36.3036L32.0275 26.3033L30.6054 23.3537Z" fill="#D6D7D8"/>
<path d="M41.3146 16.2883L29.8555 21.8132L30.6022 23.3619L42.0613 17.837L41.3146 16.2883Z" fill="#EF7A2B"/>
<path d="M42.0617 17.828L30.6035 23.355L32.0262 26.3043L43.4844 20.7774L42.0617 17.828Z" fill="#DF7228"/>
<path d="M33.9384 21.751L32.4871 22.4507L33.9092 25.4003L35.3605 24.7006L33.9384 21.751Z" fill="#EEC756"/>
<path d="M33.1941 20.1994L31.7429 20.8994L32.4899 22.448L33.9411 21.748L33.1941 20.1994Z" fill="#FED45C"/>
<path d="M11.5903 34.8698C11.5502 35.0406 11.5829 35.2279 11.6484 35.4089C11.7809 35.7791 11.6593 36.2408 11.3365 36.3286C11.0009 36.4205 10.599 36.0716 10.4915 35.6813C10.3546 35.1743 9.39823 34.5927 9.41153 33.8953C9.41487 33.6484 9.35255 33.3869 9.18048 33.1993C8.38759 32.3381 8.96306 31.3761 9.55127 31.8895C9.69693 32.0194 9.88324 32.087 10.0496 32.0601C10.324 32.0207 10.7008 32.2657 10.8094 33.0669C10.898 33.7463 11.8194 33.8998 11.5903 34.8698Z" fill="#B3B3B3"/>
<path d="M23.4704 9.46706C25.5327 11.6173 25.4705 15.4343 23.4655 17.6419C21.7631 19.516 19.93 19.7964 17.9923 21.349C16.1148 22.8526 14.473 27.8422 14.473 27.8422C14.473 27.8422 13.5174 22.3496 15.1584 19.796C18.5095 14.5804 24.5252 15.6149 23.4658 9.46965L23.4704 9.46706Z" fill="#B3B3B3"/>
<path d="M11.1003 20.5533C10.3278 21.4446 9.22366 22.2198 8.57594 23.1771C7.04456 25.436 7.18995 27.6961 8.51361 30.0499C8.25936 28.6347 8.47902 27.422 9.26124 26.2197C10.0414 25.0245 11.1029 24.0283 11.861 22.8153C13.0474 20.9168 13.8691 18.9238 12.9004 16.9482C13.0713 18.495 12.1234 19.3759 11.1003 20.5533Z" fill="#B3B3B3"/>
<path d="M25 1C38.2548 1 49 11.7452 49 25C49 38.2548 38.2548 49 25 49C11.7452 49 1 38.2548 1 25C1 11.7452 11.7452 1 25 1ZM12.3877 40.627C15.8351 43.4128 20.2225 45.082 25 45.082C36.0908 45.082 45.082 36.0908 45.082 25C45.082 20.2225 43.4128 15.8351 40.627 12.3877L12.3877 40.627ZM25 4.91797C13.9092 4.91797 4.91797 13.9092 4.91797 25C4.91797 29.9022 6.67578 34.3933 9.59375 37.8799L37.8799 9.59375C34.3933 6.67578 29.9022 4.91797 25 4.91797Z" fill="#FF5959"/>
</svg>
