<svg width="100" height="100" viewBox="0 0 100 100" fill="none" xmlns="http://www.w3.org/2000/svg">
<path d="M75.0782 49.1531C73.8653 44.2841 69.7415 40.9059 65.1932 38.5976C55.7327 33.8008 44.4408 33.8008 34.9803 38.5976C30.432 40.9059 26.3083 44.2841 25.0954 49.1531C22.0025 61.5479 26.4417 92 26.4417 92H72.3977C72.3977 92 78.1831 61.5479 75.0903 49.1531H75.0782Z" fill="#39548B"/>
<path d="M53.9 97.8913L53.2445 98.0734C51.1811 98.6317 49.0206 98.6317 46.9572 98.0734L46.3018 97.8913V57.4363H53.9121V97.8913H53.9Z" fill="#A96433"/>
<path d="M46.3018 57.4355L50.1858 55.1415L53.9 57.4355C51.4724 58.1274 48.8992 58.1395 46.4595 57.4841L46.3018 57.4355Z" fill="#D7C1A3"/>
<path d="M53.9001 57.4375C53.9001 57.4375 62.9063 47.0597 83.941 47.5088V86.8593C83.941 86.8593 63.6589 90.3914 53.9001 97.8925V57.4375Z" fill="#C28356"/>
<path d="M50.1855 55.1431C50.1855 55.1431 60.0899 44.5954 76.0025 43.0054L83.9406 47.5085C83.9406 47.5085 65.5762 46.4889 53.8997 57.4371L50.1855 55.1431Z" fill="#E4E4E4"/>
<mask id="mask0_1268_76102" style="mask-type:luminance" maskUnits="userSpaceOnUse" x="50" y="43" width="34" height="15">
<path d="M50.1851 55.1448C50.1851 55.1448 60.0894 44.5971 76.002 43.0071L83.9401 47.5102C83.9401 47.5102 65.5757 46.4906 53.8992 57.4388L50.1851 55.1448Z" fill="white"/>
</mask>
<g mask="url(#mask0_1268_76102)">
<path d="M55.4043 53.0562C55.4043 53.0562 67.3842 45.6037 78.0776 45.8464C78.0776 45.8464 65.0538 44.5477 55.4043 53.0562Z" fill="#C0C0C0"/>
</g>
<path d="M46.2897 57.4375C46.2897 57.4375 37.2835 47.0597 16.2488 47.5088V86.8593C16.2488 86.8593 36.5309 90.3914 46.2897 97.8925V57.4375Z" fill="#C28356"/>
<path d="M50.1856 55.1431C50.1856 55.1431 40.0992 44.5954 24.1866 43.0054L16.2485 47.5085C16.2485 47.5085 34.6129 46.4889 46.2894 57.4371L50.1856 55.1431Z" fill="#E4E4E4"/>
<mask id="mask1_1268_76102" style="mask-type:luminance" maskUnits="userSpaceOnUse" x="16" y="43" width="35" height="15">
<path d="M50.1851 55.1448C50.1851 55.1448 40.0987 44.5971 24.1861 43.0071L16.248 47.5102C16.248 47.5102 34.6124 46.4906 46.2889 57.4388L50.1851 55.1448Z" fill="white"/>
</mask>
<g mask="url(#mask1_1268_76102)">
<path d="M22.5476 45.5318C22.5476 45.5318 36.2147 45.9202 45.3423 53.9918C45.3423 53.9918 34.2848 43.3713 22.5476 45.5318Z" fill="#C0C0C0"/>
</g>
<path d="M86.9514 62.0824C86.8664 61.5847 86.5509 61.1842 86.1382 60.9657C86.648 60.7108 87 60.1889 87 59.5699C87 58.7081 86.3081 58.0162 85.4463 58.0162H81.4045C80.5427 58.0162 79.8508 58.7081 79.8508 59.5699C79.8508 60.4316 80.5427 61.1235 81.4045 61.1235H83.2858L81.1617 61.4876C80.3121 61.6333 79.7416 62.4344 79.8873 63.284C79.9965 63.9152 80.4577 64.3764 81.0403 64.5342C80.7854 64.8255 80.6519 65.2139 80.7247 65.6266C80.7854 65.9664 80.9675 66.2456 81.2224 66.4398C80.919 66.5855 80.6883 66.8768 80.6519 67.2409C80.5912 67.7992 81.0039 68.2969 81.5501 68.3576L84.1597 68.6246C84.7181 68.6853 85.2157 68.2726 85.2764 67.7264C85.3371 67.1681 84.9244 66.6704 84.3782 66.6097L83.3101 66.5005L85.5798 66.1121C86.296 65.9907 86.7693 65.311 86.648 64.607C86.5873 64.2429 86.3688 63.9273 86.0775 63.7452C86.6844 63.4539 87.0485 62.7864 86.9271 62.0824H86.9514Z" fill="#FFCCB8"/>
<path d="M13.5786 64.3652C13.6635 63.8676 13.9791 63.467 14.3918 63.2485C13.882 62.9936 13.53 62.4717 13.53 61.8527C13.53 60.9909 14.2219 60.2991 15.0837 60.2991H19.1255C19.9873 60.2991 20.6792 60.9909 20.6792 61.8527C20.6792 62.7145 19.9873 63.4063 19.1255 63.4063H17.2442L19.3683 63.7705C20.2179 63.9161 20.7884 64.7172 20.6427 65.5668C20.5335 66.198 20.0723 66.6592 19.4897 66.817C19.7445 67.1083 19.8781 67.4967 19.8052 67.9094C19.7445 68.2493 19.5625 68.5285 19.3076 68.7227C19.611 68.8683 19.8416 69.1596 19.8781 69.5237C19.9388 70.0821 19.5261 70.5797 18.9799 70.6404L16.3703 70.9074C15.8119 70.9681 15.3143 70.5555 15.2536 70.0093C15.1929 69.4509 15.6056 68.9533 16.1518 68.8926L17.2199 68.7833L14.9501 68.3949C14.234 68.2736 13.7606 67.5938 13.882 66.8899C13.9427 66.5257 14.1612 66.2101 14.4525 66.0281C13.8456 65.7368 13.4815 65.0692 13.6029 64.3652H13.5786Z" fill="#FFCCB8"/>
<path d="M56.922 39.0947L56.388 39.4467C52.6617 41.8621 47.8673 41.8621 44.141 39.4467L43.6069 39.0947L44.9299 28.4377H55.5869L56.9099 39.0947H56.922Z" fill="#FFCCB8"/>
<mask id="mask2_1268_76102" style="mask-type:luminance" maskUnits="userSpaceOnUse" x="43" y="28" width="14" height="14">
<path d="M56.9215 39.0949L56.3875 39.4469C52.6612 41.8623 47.8668 41.8623 44.1405 39.4469L43.6064 39.0949L44.9295 28.438H55.5864L56.9094 39.0949H56.9215Z" fill="white"/>
</mask>
<g mask="url(#mask2_1268_76102)">
<path d="M43.922 33.9128C44.2011 34.3133 48.0609 36.7166 51.3624 36.1461C54.6639 35.5878 56.9215 33.3302 56.9215 33.3302L56.7516 30.7448C56.7516 30.7448 50.0879 31.7401 47.4419 30.7448C44.7959 29.7495 43.2544 28.8149 43.2544 28.8149L43.922 33.9249V33.9128Z" fill="#FCC0AD"/>
</g>
<path d="M59.9939 18.7862C59.9939 18.7862 61.4626 15.3512 63.3439 17.0748C65.2253 18.7862 62.7856 24.4303 59.9939 23.6292C57.2022 22.8281 59.9939 18.7862 59.9939 18.7862Z" fill="#FFCCB8"/>
<path d="M40.4762 19.3457C40.4762 19.3457 39.0075 15.9107 37.1262 17.6343C35.2448 19.3457 37.6845 24.9897 40.4762 24.1886C43.2679 23.3875 40.4762 19.3457 40.4762 19.3457Z" fill="#FFCCB8"/>
<path d="M58.8157 7.11096H42.0292C41.9685 7.30517 40.1478 13.3012 40.0871 13.5075C38.1451 20.0134 40.3178 28.5826 47.212 32.3817C48.3529 33.0129 49.4211 33.2556 50.3921 33.1828C51.3752 33.2556 52.4312 33.0129 53.5722 32.3817C60.4664 28.5705 62.639 20.0134 60.697 13.5075C60.6363 13.3133 58.8642 7.30517 58.8157 7.11096Z" fill="#FFCCB8"/>
<mask id="mask3_1268_76102" style="mask-type:luminance" maskUnits="userSpaceOnUse" x="39" y="7" width="23" height="27">
<path d="M58.8152 7.11072H42.0287C41.968 7.30492 40.1473 13.301 40.0867 13.5073C38.1446 20.0131 40.3173 28.5824 47.2115 32.3815C48.3524 33.0126 49.4206 33.2554 50.3916 33.1826C51.3747 33.2554 52.4307 33.0126 53.5717 32.3815C60.4659 28.5702 62.6386 20.0131 60.6965 13.5073C60.6358 13.3131 58.8637 7.30492 58.8152 7.11072Z" fill="white"/>
</mask>
<g mask="url(#mask3_1268_76102)">
<path d="M38.7524 17.9737C38.7524 17.9737 54.9441 17.8402 61.6563 14.029L59.9206 7.09832L40.6216 6.63708C40.6216 6.63708 38.5703 15.3156 38.7402 17.9616L38.7524 17.9737Z" fill="#FFCCB8"/>
</g>
<path d="M59.3862 9.05349C59.3862 9.05349 55.405 10.6678 50.3922 11.3597L51.4117 9.05349C51.4117 9.05349 46.326 11.4568 43.1945 12.4763L44.1534 9.84244L40.0751 13.4959C40.0751 13.4959 36.8222 7.13573 42.3206 3.54296C47.819 -0.0498112 56.9101 1.30962 59.3862 5.21796C61.0127 7.77903 59.3862 9.04135 59.3862 9.04135V9.05349Z" fill="#2F1B19"/>
<path d="M39.7598 6.38342C39.7598 6.38342 36.2277 11.2628 37.9027 17.7443L39.4442 19.5043C39.4442 19.5043 39.3471 15.4867 40.84 11.9911L39.7598 6.38342Z" fill="#2F1B19"/>
<path d="M58.3059 8.62971C58.3059 8.62971 61.5588 15.8881 61.3768 18.3763L62.8576 16.7499C62.8576 16.7499 65.1152 6.27499 58.7429 4.43005L58.3059 8.64185V8.62971Z" fill="#2F1B19"/>
</svg>
