<svg width="50" height="50" viewBox="0 0 50 50" fill="none" xmlns="http://www.w3.org/2000/svg">
<mask id="mask0_1268_77394" style="mask-type:luminance" maskUnits="userSpaceOnUse" x="13" y="25" width="12" height="19">
<path d="M20.8522 43.5564H16.7926C16.0829 43.5564 15.482 43.0312 15.3827 42.3263L13.1211 25.7617H24.3297L22.2621 42.3073C22.1722 43.017 21.5666 43.5517 20.8522 43.5517V43.5564Z" fill="white"/>
</mask>
<g mask="url(#mask0_1268_77394)">
<path d="M37.6912 28.7041H21.4673V44.928H37.6912V28.7041Z" fill="#F1C073"/>
<path d="M37.6912 12.4805H21.4673V28.7043H37.6912V12.4805Z" fill="#F1C073"/>
<path d="M21.4673 28.7041H5.24341V44.928H21.4673V28.7041Z" fill="#F1C073"/>
<path d="M21.4673 12.4805H5.24341V28.7043H21.4673V12.4805Z" fill="#F1C073"/>
</g>
<path d="M16.9062 32.5272C16.3856 32.5272 15.96 32.1649 15.96 31.7129V26.7177C15.96 26.2696 16.381 25.9033 16.9062 25.9033C17.4269 25.9033 17.8525 26.2657 17.8525 26.7177V31.7129C17.8525 32.161 17.4314 32.5272 16.9062 32.5272Z" fill="#EDEDED"/>
<mask id="mask1_1268_77394" style="mask-type:luminance" maskUnits="userSpaceOnUse" x="13" y="25" width="12" height="19">
<path d="M20.8522 43.5564H16.7926C16.0829 43.5564 15.482 43.0312 15.3827 42.3263L13.1211 25.7617H24.3297L22.2621 42.3073C22.1722 43.017 21.5666 43.5517 20.8522 43.5517V43.5564Z" fill="white"/>
</mask>
<g mask="url(#mask1_1268_77394)">
<mask id="mask2_1268_77394" style="mask-type:luminance" maskUnits="userSpaceOnUse" x="14" y="41" width="10" height="3">
<path d="M23.2368 41.3799H14.0532V43.9348H23.2368V41.3799Z" fill="white"/>
</mask>
<g mask="url(#mask2_1268_77394)">
<path d="M37.6912 28.7051H21.4673V44.929H37.6912V28.7051Z" fill="#F2AB41"/>
<path d="M21.4673 28.7051H5.24341V44.929H21.4673V28.7051Z" fill="#F2AB41"/>
</g>
</g>
<mask id="mask3_1268_77394" style="mask-type:luminance" maskUnits="userSpaceOnUse" x="13" y="25" width="12" height="19">
<path d="M20.8522 43.5564H16.7926C16.0829 43.5564 15.482 43.0312 15.3827 42.3263L13.1211 25.7617H24.3297L22.2621 42.3073C22.1722 43.017 21.5666 43.5517 20.8522 43.5517V43.5564Z" fill="white"/>
</mask>
<g mask="url(#mask3_1268_77394)">
<path d="M24.3297 25.7656H13.1211V28.3442H24.3297V25.7656Z" fill="#EDEDED"/>
</g>
<mask id="mask4_1268_77394" style="mask-type:luminance" maskUnits="userSpaceOnUse" x="19" y="34" width="2" height="2">
<path d="M20.0242 35.2329C20.0242 35.4269 19.8681 35.5831 19.6741 35.5831C19.4801 35.5831 19.324 35.4269 19.324 35.2329C19.324 35.0389 19.4801 34.8828 19.6741 34.8828C19.8681 34.8828 20.0242 35.0389 20.0242 35.2329Z" fill="white"/>
</mask>
<g mask="url(#mask4_1268_77394)">
<path d="M21.4673 28.7041H5.24341V44.928H21.4673V28.7041Z" fill="#F2AB41"/>
</g>
<mask id="mask5_1268_77394" style="mask-type:luminance" maskUnits="userSpaceOnUse" x="20" y="32" width="1" height="1">
<path d="M20.3792 32.878C20.5725 32.878 20.7293 32.7212 20.7293 32.5279C20.7293 32.3345 20.5725 32.1777 20.3792 32.1777C20.1858 32.1777 20.0291 32.3345 20.0291 32.5279C20.0291 32.7212 20.1858 32.878 20.3792 32.878Z" fill="white"/>
</mask>
<g mask="url(#mask5_1268_77394)">
<path d="M21.4673 28.7051H5.24341V44.929H21.4673V28.7051Z" fill="#F2AB41"/>
</g>
<mask id="mask6_1268_77394" style="mask-type:luminance" maskUnits="userSpaceOnUse" x="16" y="34" width="1" height="1">
<path d="M16.348 34.4813C16.4761 34.4813 16.5799 34.3775 16.5799 34.2494C16.5799 34.1214 16.4761 34.0176 16.348 34.0176C16.22 34.0176 16.1162 34.1214 16.1162 34.2494C16.1162 34.3775 16.22 34.4813 16.348 34.4813Z" fill="white"/>
</mask>
<g mask="url(#mask6_1268_77394)">
<path d="M21.4673 28.7041H5.24341V44.928H21.4673V28.7041Z" fill="#F2AB41"/>
</g>
<mask id="mask7_1268_77394" style="mask-type:luminance" maskUnits="userSpaceOnUse" x="17" y="37" width="1" height="1">
<path d="M17.8099 37.5331C17.8099 37.6703 17.7011 37.7792 17.5639 37.7792C17.4267 37.7792 17.3179 37.6703 17.3179 37.5331C17.3179 37.3959 17.4267 37.2871 17.5639 37.2871C17.7011 37.2871 17.8099 37.3959 17.8099 37.5331Z" fill="white"/>
</mask>
<g mask="url(#mask7_1268_77394)">
<path d="M21.4673 28.7041H5.24341V44.928H21.4673V28.7041Z" fill="#F2AB41"/>
</g>
<mask id="mask8_1268_77394" style="mask-type:luminance" maskUnits="userSpaceOnUse" x="19" y="29" width="1" height="2">
<path d="M19.693 29.8877C19.693 29.987 19.6126 30.0722 19.5085 30.0722C19.4044 30.0722 19.324 29.9917 19.324 29.8877C19.324 29.7836 19.4044 29.7031 19.5085 29.7031C19.6126 29.7031 19.693 29.7836 19.693 29.8877Z" fill="white"/>
</mask>
<g mask="url(#mask8_1268_77394)">
<path d="M21.4673 28.7051H5.24341V44.929H21.4673V28.7051Z" fill="#F2AB41"/>
</g>
<mask id="mask9_1268_77394" style="mask-type:luminance" maskUnits="userSpaceOnUse" x="19" y="37" width="2" height="2">
<path d="M20.3837 38.0394C20.3837 38.186 20.2654 38.3043 20.1187 38.3043C19.972 38.3043 19.8538 38.186 19.8538 38.0394C19.8538 37.8927 19.972 37.7744 20.1187 37.7744C20.2654 37.7744 20.3837 37.8927 20.3837 38.0394Z" fill="white"/>
</mask>
<g mask="url(#mask9_1268_77394)">
<path d="M21.4673 28.7051H5.24341V44.929H21.4673V28.7051Z" fill="#F2AB41"/>
</g>
<mask id="mask10_1268_77394" style="mask-type:luminance" maskUnits="userSpaceOnUse" x="20" y="6" width="15" height="38">
<path d="M34.6962 25.6621C34.6631 24.044 33.6742 22.5962 32.1744 21.9953C32.1696 21.9953 32.1649 21.9953 32.1554 21.9858C31.6587 21.7871 31.4505 21.191 31.7296 20.7368L32.5576 19.3836C32.6664 19.2038 32.709 18.9909 32.6712 18.7874L30.5042 6.47168H25.2808L23.1138 18.8442C23.0759 19.0524 23.1138 19.2653 23.2321 19.4451L24.0411 20.7557C24.3203 21.2099 24.1168 21.8013 23.6248 22H23.6153C22.1155 22.6009 21.1266 24.0487 21.0935 25.6669L20.7907 39.6623C20.7434 41.938 22.5744 43.8022 24.8502 43.8022H30.9395C33.22 43.8022 35.051 41.938 34.999 39.6623L34.6962 25.6669V25.6621Z" fill="white"/>
</mask>
<g mask="url(#mask10_1268_77394)">
<path d="M37.6912 28.7051H21.4673V44.929H37.6912V28.7051Z" fill="#874D00"/>
<path d="M37.6912 12.4805H21.4673V28.7043H37.6912V12.4805Z" fill="#874D00"/>
<path d="M37.6912 -3.74316H21.4673V12.4807H37.6912V-3.74316Z" fill="#874D00"/>
<path d="M21.4673 28.7051H5.24341V44.929H21.4673V28.7051Z" fill="#874D00"/>
<path d="M21.4673 12.4805H5.24341V28.7043H21.4673V12.4805Z" fill="#874D00"/>
<path d="M21.4673 -3.74316H5.24341V12.4807H21.4673V-3.74316Z" fill="#874D00"/>
</g>
<mask id="mask11_1268_77394" style="mask-type:luminance" maskUnits="userSpaceOnUse" x="24" y="4" width="8" height="3">
<path d="M31.0293 6.467H24.7603L25.0299 5.3504C25.134 4.91511 25.522 4.6123 25.9668 4.6123H29.8228C30.2676 4.6123 30.6555 4.91984 30.7596 5.3504L31.0293 6.467Z" fill="white"/>
</mask>
<g mask="url(#mask11_1268_77394)">
<path d="M37.6912 -3.74316H21.4673V12.4807H37.6912V-3.74316Z" fill="#FFDE55"/>
</g>
<mask id="mask12_1268_77394" style="mask-type:luminance" maskUnits="userSpaceOnUse" x="23" y="26" width="10" height="14">
<path d="M32.7515 26.5039H23.0427V39.8416H32.7515V26.5039Z" fill="white"/>
</mask>
<g mask="url(#mask12_1268_77394)">
<path d="M37.6909 28.7041H21.467V44.928H37.6909V28.7041Z" fill="#FF9811"/>
<path d="M37.6909 12.4805H21.467V28.7043H37.6909V12.4805Z" fill="#FF9811"/>
</g>
<mask id="mask13_1268_77394" style="mask-type:luminance" maskUnits="userSpaceOnUse" x="22" y="26" width="11" height="15">
<path d="M31.5545 27.7114V38.6361H24.2351V27.7114H31.5545ZM32.9739 26.292H22.8157V40.0556H32.9739V26.292Z" fill="white"/>
</mask>
<g mask="url(#mask13_1268_77394)">
<path d="M41.0647 25.332H24.8408V41.5559H41.0647V25.332Z" fill="#FEE579"/>
<path d="M24.8408 25.332H8.61694V41.5559H24.8408V25.332Z" fill="#FEE579"/>
<path d="M41.0647 25.332H24.8408V41.5559H41.0647V25.332Z" fill="#FEE579"/>
<path d="M24.8408 25.332H8.61694V41.5559H24.8408V25.332Z" fill="#FEE579"/>
</g>
<mask id="mask14_1268_77394" style="mask-type:luminance" maskUnits="userSpaceOnUse" x="20" y="6" width="15" height="38">
<path d="M34.6962 25.6621C34.6631 24.044 33.6742 22.5962 32.1744 21.9953C32.1696 21.9953 32.1649 21.9953 32.1554 21.9858C31.6587 21.7871 31.4505 21.191 31.7296 20.7368L32.5576 19.3836C32.6664 19.2038 32.709 18.9909 32.6712 18.7874L30.5042 6.47168H25.2808L23.1138 18.8442C23.0759 19.0524 23.1138 19.2653 23.2321 19.4451L24.0411 20.7557C24.3203 21.2099 24.1168 21.8013 23.6248 22H23.6153C22.1155 22.6009 21.1266 24.0487 21.0935 25.6669L20.7907 39.6623C20.7434 41.938 22.5744 43.8022 24.8502 43.8022H30.9395C33.22 43.8022 35.051 41.938 34.999 39.6623L34.6962 25.6669V25.6621Z" fill="white"/>
</mask>
<g mask="url(#mask14_1268_77394)">
<mask id="mask15_1268_77394" style="mask-type:luminance" maskUnits="userSpaceOnUse" x="22" y="11" width="12" height="6">
<path d="M33.0212 11.5869H22.4324V16.7914H33.0212V11.5869Z" fill="white"/>
</mask>
<g mask="url(#mask15_1268_77394)">
<path d="M37.6909 12.4805H21.467V28.7043H37.6909V12.4805Z" fill="#FF9811"/>
<path d="M37.6909 -3.74316H21.467V12.4807H37.6909V-3.74316Z" fill="#FF9811"/>
</g>
</g>
<mask id="mask16_1268_77394" style="mask-type:luminance" maskUnits="userSpaceOnUse" x="24" y="10" width="8" height="8">
<path d="M27.8071 17.5619C29.6493 17.5619 31.1427 16.0685 31.1427 14.2262C31.1427 12.384 29.6493 10.8906 27.8071 10.8906C25.9648 10.8906 24.4714 12.384 24.4714 14.2262C24.4714 16.0685 25.9648 17.5619 27.8071 17.5619Z" fill="white"/>
</mask>
<g mask="url(#mask16_1268_77394)">
<path d="M34.4791 -1.33786L30.7771 14.458L46.573 18.16L50.2749 2.36412L34.4791 -1.33786Z" fill="#FFB655"/>
<path d="M18.6856 -5.04098L14.9836 10.7549L30.7795 14.4569L34.4815 -1.33901L18.6856 -5.04098Z" fill="#FFB655"/>
<path d="M30.7816 14.4571L27.0796 30.2529L42.8755 33.9549L46.5774 18.159L30.7816 14.4571Z" fill="#FFB655"/>
<path d="M14.9823 10.753L11.2803 26.5488L27.0761 30.2508L30.7781 14.4549L14.9823 10.753Z" fill="#FFB655"/>
</g>
<mask id="mask17_1268_77394" style="mask-type:luminance" maskUnits="userSpaceOnUse" x="25" y="12" width="5" height="5">
<path d="M27.8024 16.2613C28.9286 16.2613 29.8416 15.3483 29.8416 14.2221C29.8416 13.0959 28.9286 12.1829 27.8024 12.1829C26.6762 12.1829 25.7632 13.0959 25.7632 14.2221C25.7632 15.3483 26.6762 16.2613 27.8024 16.2613Z" fill="white"/>
</mask>
<g mask="url(#mask17_1268_77394)">
<path d="M37.6909 12.4805H21.467V28.7043H37.6909V12.4805Z" fill="#FEE579"/>
<path d="M37.6909 -3.74316H21.467V12.4807H37.6909V-3.74316Z" fill="#FEE579"/>
</g>
<mask id="mask18_1268_77394" style="mask-type:luminance" maskUnits="userSpaceOnUse" x="20" y="6" width="15" height="38">
<path d="M34.6962 25.6621C34.6631 24.044 33.6742 22.5962 32.1744 21.9953C32.1696 21.9953 32.1649 21.9953 32.1554 21.9858C31.6587 21.7871 31.4505 21.191 31.7296 20.7368L32.5576 19.3836C32.6664 19.2038 32.709 18.9909 32.6712 18.7874L30.5042 6.47168H25.2808L23.1138 18.8442C23.0759 19.0524 23.1138 19.2653 23.2321 19.4451L24.0411 20.7557C24.3203 21.2099 24.1168 21.8013 23.6248 22H23.6153C22.1155 22.6009 21.1266 24.0487 21.0935 25.6669L20.7907 39.6623C20.7434 41.938 22.5744 43.8022 24.8502 43.8022H30.9395C33.22 43.8022 35.051 41.938 34.999 39.6623L34.6962 25.6669V25.6621Z" fill="white"/>
</mask>
<g mask="url(#mask18_1268_77394)">
<mask id="mask19_1268_77394" style="mask-type:luminance" maskUnits="userSpaceOnUse" x="25" y="6" width="6" height="2">
<path d="M30.6318 6.4668H25.1528V7.17177H30.6318V6.4668Z" fill="white"/>
</mask>
<g mask="url(#mask19_1268_77394)">
<path d="M37.6909 -3.74316H21.467V12.4807H37.6909V-3.74316Z" fill="#653902"/>
</g>
</g>
<mask id="mask20_1268_77394" style="mask-type:luminance" maskUnits="userSpaceOnUse" x="23" y="28" width="9" height="10">
<path d="M31.8148 33.3692L23.6863 37.67V32.9717L31.8148 28.6709V33.3692Z" fill="white"/>
</mask>
<g mask="url(#mask20_1268_77394)">
<path d="M37.6912 28.7041H21.4673V44.928H37.6912V28.7041Z" fill="#FEE579"/>
<path d="M37.6912 12.4805H21.4673V28.7043H37.6912V12.4805Z" fill="#FEE579"/>
</g>
<mask id="mask21_1268_77394" style="mask-type:luminance" maskUnits="userSpaceOnUse" x="20" y="6" width="15" height="38">
<path d="M34.6962 25.6621C34.6631 24.044 33.6742 22.5962 32.1744 21.9953C32.1696 21.9953 32.1649 21.9953 32.1554 21.9858C31.6587 21.7871 31.4505 21.191 31.7296 20.7368L32.5576 19.3836C32.6664 19.2038 32.709 18.9909 32.6712 18.7874L30.5042 6.47168H25.2808L23.1138 18.8442C23.0759 19.0524 23.1138 19.2653 23.2321 19.4451L24.0411 20.7557C24.3203 21.2099 24.1168 21.8013 23.6248 22H23.6153C22.1155 22.6009 21.1266 24.0487 21.0935 25.6669L20.7907 39.6623C20.7434 41.938 22.5744 43.8022 24.8502 43.8022H30.9395C33.22 43.8022 35.051 41.938 34.999 39.6623L34.6962 25.6669V25.6621Z" fill="white"/>
</mask>
<g mask="url(#mask21_1268_77394)">
<mask id="mask22_1268_77394" style="mask-type:luminance" maskUnits="userSpaceOnUse" x="20" y="42" width="16" height="2">
<path d="M35.0085 43.7314L20.7954 43.8639L20.7812 42.3641L34.9943 42.2363L35.0085 43.7314Z" fill="white"/>
</mask>
<g mask="url(#mask22_1268_77394)">
<path d="M37.6912 28.7051H21.4673V44.929H37.6912V28.7051Z" fill="#653902"/>
</g>
</g>
<path d="M25 1C38.2548 1 49 11.7452 49 25C49 38.2548 38.2548 49 25 49C11.7452 49 1 38.2548 1 25C1 11.7452 11.7452 1 25 1ZM12.3877 40.627C15.8351 43.4128 20.2225 45.082 25 45.082C36.0908 45.082 45.082 36.0908 45.082 25C45.082 20.2225 43.4128 15.8351 40.627 12.3877L12.3877 40.627ZM25 4.91797C13.9092 4.91797 4.91797 13.9092 4.91797 25C4.91797 29.9022 6.67578 34.3933 9.59375 37.8799L37.8799 9.59375C34.3933 6.67578 29.9022 4.91797 25 4.91797Z" fill="#FF5959"/>
</svg>
