<svg preserveAspectRatio="none" width="100%" height="100%" overflow="visible" style="display: block;" viewBox="0 0 18 18" fill="none" xmlns="http://www.w3.org/2000/svg">
<g id="Path">
<path d="M4.75 4C4.33579 4 4 4.33579 4 4.75C4 5.16421 4.33579 5.5 4.75 5.5L13.25 5.5C13.6642 5.5 14 5.16421 14 4.75C14 4.33579 13.6642 4 13.25 4L4.75 4Z" fill="#212121"/>
<path d="M4 8.75C4 8.33579 4.33579 8 4.75 8L13.25 8C13.6642 8 14 8.33579 14 8.75C14 9.16421 13.6642 9.5 13.25 9.5L4.75 9.5C4.33579 9.5 4 9.16421 4 8.75Z" fill="#212121"/>
<path d="M4.75 12C4.33579 12 4 12.3358 4 12.75C4 13.1642 4.33579 13.5 4.75 13.5H9.25C9.66421 13.5 10 13.1642 10 12.75C10 12.3358 9.66421 12 9.25 12H4.75Z" fill="#212121"/>
<path fill-rule="evenodd" clip-rule="evenodd" d="M0 2C0 0.89543 0.895431 0 2 0H16C17.1046 0 18 0.895431 18 2V16C18 17.1046 17.1046 18 16 18H2C0.89543 18 0 17.1046 0 16V2ZM2 1.5H16C16.2761 1.5 16.5 1.72386 16.5 2V16C16.5 16.2761 16.2761 16.5 16 16.5H2C1.72386 16.5 1.5 16.2761 1.5 16V2C1.5 1.72386 1.72386 1.5 2 1.5Z" fill="#212121"/>
</g>
</svg>
