<svg preserveAspectRatio="none" width="100%" height="100%" overflow="visible" style="display: block;" viewBox="0 0 18 19" fill="none" xmlns="http://www.w3.org/2000/svg">
<path id="Path" fill-rule="evenodd" clip-rule="evenodd" d="M4.75 0C5.16421 0 5.5 0.335786 5.5 0.75V2H12.5V0.75C12.5 0.335786 12.8358 0 13.25 0C13.6642 0 14 0.335786 14 0.75V2H16C17.1046 2 18 2.89543 18 4V17C18 18.1046 17.1046 19 16 19H2C0.89543 19 0 18.1046 0 17V4C0 2.89543 0.895431 2 2 2H4V0.75C4 0.335786 4.33579 0 4.75 0ZM12.5 3.5V4.5C12.5 4.91421 12.8358 5.25 13.25 5.25C13.6642 5.25 14 4.91421 14 4.5V3.5H16C16.2761 3.5 16.5 3.72386 16.5 4V6.5L1.5 6.5V4C1.5 3.72386 1.72386 3.5 2 3.5H4V4.5C4 4.91421 4.33579 5.25 4.75 5.25C5.16421 5.25 5.5 4.91421 5.5 4.5V3.5H12.5ZM1.5 8V17C1.5 17.2761 1.72386 17.5 2 17.5H16C16.2761 17.5 16.5 17.2761 16.5 17V8L1.5 8Z" fill="var(--fill-0, #424242)"/>
</svg>
