<svg preserveAspectRatio="none" width="100%" height="100%" overflow="visible" style="display: block;" viewBox="0 0 26 26" fill="none" xmlns="http://www.w3.org/2000/svg">
<g id="Group 22">
<path id="Vector" d="M4.20723 10.0635L4.47602 10.3231L9.25503 5.37704L8.98624 5.11738C7.75803 3.93074 5.80044 3.96443 4.6138 5.19249L4.13196 5.69117C2.94532 6.91939 2.97902 8.87681 4.20707 10.0636L4.20723 10.0635Z" fill="var(--fill-0, #FFCA28)"/>
<path id="Vector_2" d="M21.9447 10.0635L21.6759 10.3231L16.8969 5.37704L17.1657 5.11738C18.3939 3.93074 20.3514 3.96443 21.5381 5.19249L22.0199 5.69117C23.2066 6.91939 23.1729 8.87681 21.9448 10.0636L21.9447 10.0635Z" fill="var(--fill-0, #FFCA28)"/>
<path id="Vector_3" d="M6.8951 22.5496C6.76378 22.5496 6.63088 22.5121 6.51341 22.4339C6.19644 22.2227 6.11062 21.7947 6.32178 21.4777L8.3403 18.4475C8.55146 18.1305 8.97944 18.0449 9.29641 18.256C9.61339 18.4672 9.6992 18.8952 9.48805 19.2122L7.46953 22.2422C7.33663 22.4416 7.11807 22.5496 6.8951 22.5496Z" fill="var(--fill-0, #FF9528)"/>
<path id="Vector_4" d="M19.1049 22.5494C18.882 22.5494 18.6633 22.4416 18.5304 22.2422L16.5117 19.2122C16.3006 18.8952 16.3864 18.4672 16.7034 18.256C17.02 18.0449 17.4483 18.1305 17.6595 18.4475L19.6782 21.4776C19.8893 21.7946 19.8035 22.2225 19.4865 22.4337C19.3691 22.512 19.2363 22.5494 19.1049 22.5494Z" fill="var(--fill-0, #FF9528)"/>
<path id="Vector_5" d="M19.5 19.5C23.0898 15.9101 23.0898 10.0899 19.5 6.5C15.9101 2.91015 10.0899 2.91015 6.5 6.5C2.91015 10.0899 2.91015 15.9101 6.5 19.5C10.0899 23.0899 15.9101 23.0898 19.5 19.5Z" fill="var(--fill-0, #FF9528)"/>
<path id="Vector_6" d="M18.1179 18.1178C20.9443 15.2913 20.9443 10.7087 18.1179 7.88221C15.2914 5.05574 10.7088 5.05574 7.8823 7.88221C5.05583 10.7087 5.05583 15.2913 7.8823 18.1178C10.7088 20.9443 15.2914 20.9443 18.1179 18.1178Z" fill="var(--fill-0, #FFF0E1)"/>
<path id="Vector 44 (Stroke)" d="M12.762 8.02599C12.762 7.6874 13.0365 7.41293 13.3751 7.41293C13.7136 7.41293 13.9881 7.6874 13.9881 8.02599V13.5435C13.9881 13.7297 13.9033 13.9058 13.7579 14.0222L9.92631 17.0874C9.66192 17.2989 9.2763 17.256 9.0648 16.9916C8.85332 16.7273 8.89621 16.3416 9.16059 16.1301L12.762 13.2489V8.02599Z" fill="var(--fill-0, #FF9528)"/>
</g>
</svg>
