<svg preserveAspectRatio="none" width="100%" height="100%" overflow="visible" style="display: block;" viewBox="0 0 18 19" fill="none" xmlns="http://www.w3.org/2000/svg">
<g id="Group 25">
<path id="Rectangle 6929" d="M14 3.00002C14 2.44774 14.4477 2.00002 15 2.00002H17.6C17.8209 2.00002 18 2.17911 18 2.40002V3.60002C18 3.82093 17.8209 4.00002 17.6 4.00002H15C14.4477 4.00002 14 3.55231 14 3.00002Z" fill="var(--fill-0, #9E9E9E)"/>
<path id="Rectangle 6930" d="M14 6.00002C14 5.44774 14.4477 5.00002 15 5.00002H17.6C17.8209 5.00002 18 5.17911 18 5.40002V6.60002C18 6.82093 17.8209 7.00002 17.6 7.00002H15C14.4477 7.00002 14 6.55231 14 6.00002Z" fill="var(--fill-0, #9E9E9E)"/>
<rect id="Rectangle 6931" x="1" width="15" height="19" rx="2" fill="var(--fill-0, #E0E0E0)"/>
<path id="Rectangle 6932" d="M3.50003 3.99996C3.50003 3.44767 3.94775 2.99996 4.50003 2.99996H12.5C13.0523 2.99996 13.5 3.44767 13.5 3.99996V5.99996C13.5 6.55224 13.0523 6.99996 12.5 6.99996H4.50003C3.94775 6.99996 3.50003 6.55224 3.50003 5.99996V3.99996Z" fill="var(--fill-0, #FAFAFA)"/>
<path id="Rectangle 6933" d="M0 3.4C0 3.17909 0.179086 3 0.4 3H1.6C1.82091 3 2 3.17909 2 3.4V4.6C2 4.82091 1.82091 5 1.6 5H0.4C0.179086 5 0 4.82091 0 4.6V3.4Z" fill="var(--fill-0, #BDBDBD)"/>
<path id="Rectangle 6934" d="M0 8.4C0 8.17909 0.179086 8 0.4 8H1.6C1.82091 8 2 8.17909 2 8.4V9.6C2 9.82091 1.82091 10 1.6 10H0.4C0.179086 10 0 9.82091 0 9.6V8.4Z" fill="var(--fill-0, #BDBDBD)"/>
<path id="Rectangle 6935" d="M0 14.4C0 14.1791 0.179086 14 0.4 14H1.6C1.82091 14 2 14.1791 2 14.4V15.6C2 15.8209 1.82091 16 1.6 16H0.4C0.179086 16 0 15.8209 0 15.6V14.4Z" fill="var(--fill-0, #BDBDBD)"/>
</g>
</svg>
