<svg width="30" height="30" viewBox="0 0 30 30" fill="none" xmlns="http://www.w3.org/2000/svg">
<path fill-rule="evenodd" clip-rule="evenodd" d="M15 10C18.4518 10 21.25 12.7982 21.25 16.25C21.25 19.7018 18.4518 22.5 15 22.5C11.5482 22.5 8.75 19.7018 8.75 16.25C8.75 12.7982 11.5482 10 15 10ZM15 11.875C17.4162 11.875 19.375 13.8338 19.375 16.25C19.375 18.6662 17.4162 20.625 15 20.625C12.5838 20.625 10.625 18.6662 10.625 16.25C10.625 13.8338 12.5838 11.875 15 11.875Z" fill="#BDBDBD"/>
<path fill-rule="evenodd" clip-rule="evenodd" d="M19.1211 4.30662L21.25 7.5H25C26.3807 7.5 27.5 8.61929 27.5 10V23.75C27.5 25.1307 26.3807 26.25 25 26.25H5C3.61929 26.25 2.5 25.1307 2.5 23.75V10C2.5 8.61929 3.61929 7.5 5 7.5H8.75L10.8789 4.30662C11.1107 3.95888 11.501 3.75 11.919 3.75H18.081C18.499 3.75 18.8893 3.95888 19.1211 4.30662ZM8.75 9.375C9.37691 9.375 9.96235 9.06169 10.3101 8.54006L12.2535 5.625H17.7465L19.6899 8.54006C20.0377 9.06169 20.6231 9.375 21.25 9.375H25C25.3452 9.375 25.625 9.65482 25.625 10V23.75C25.625 24.0952 25.3452 24.375 25 24.375H5C4.65482 24.375 4.375 24.0952 4.375 23.75V10C4.375 9.65482 4.65482 9.375 5 9.375H8.75Z" fill="#BDBDBD"/>
</svg>

