<svg preserveAspectRatio="none" width="100%" height="100%" overflow="visible" style="display: block;" viewBox="0 0 25 22.5" fill="none" xmlns="http://www.w3.org/2000/svg">
<g id="Path">
<path fill-rule="evenodd" clip-rule="evenodd" d="M12.5 6.25C15.9518 6.25 18.75 9.04822 18.75 12.5C18.75 15.9518 15.9518 18.75 12.5 18.75C9.04822 18.75 6.25 15.9518 6.25 12.5C6.25 9.04822 9.04822 6.25 12.5 6.25ZM12.5 8.125C14.9162 8.125 16.875 10.0838 16.875 12.5C16.875 14.9162 14.9162 16.875 12.5 16.875C10.0838 16.875 8.125 14.9162 8.125 12.5C8.125 10.0838 10.0838 8.125 12.5 8.125Z" fill="var(--fill-0, #BDBDBD)"/>
<path fill-rule="evenodd" clip-rule="evenodd" d="M16.6211 0.556625L18.75 3.75H22.5C23.8807 3.75 25 4.86929 25 6.25V20C25 21.3807 23.8807 22.5 22.5 22.5H2.5C1.11929 22.5 0 21.3807 0 20V6.25C0 4.86929 1.11929 3.75 2.5 3.75H6.25L8.37892 0.556625C8.61075 0.208876 9.00104 0 9.41898 0H15.581C15.999 0 16.3893 0.208876 16.6211 0.556625ZM6.25 5.625C6.87691 5.625 7.46235 5.31169 7.81009 4.79006L9.75347 1.875H15.2465L17.1899 4.79006C17.5377 5.31169 18.1231 5.625 18.75 5.625H22.5C22.8452 5.625 23.125 5.90482 23.125 6.25V20C23.125 20.3452 22.8452 20.625 22.5 20.625H2.5C2.15482 20.625 1.875 20.3452 1.875 20V6.25C1.875 5.90482 2.15482 5.625 2.5 5.625H6.25Z" fill="var(--fill-0, #BDBDBD)"/>
</g>
</svg>
