<svg width="24" height="24" viewBox="0 0 24 24" fill="none" xmlns="http://www.w3.org/2000/svg">
<path d="M17.3636 5.36365C17.7151 5.01219 18.2856 5.01218 18.6371 5.36365C18.9882 5.71514 18.9884 6.28572 18.6371 6.63708L13.2738 12.0004L18.6371 17.3636C18.9882 17.7151 18.9884 18.2857 18.6371 18.6371C18.2857 18.9884 17.7151 18.9882 17.3636 18.6371L12.0004 13.2738L6.63708 18.6371C6.28572 18.9884 5.71515 18.9882 5.36365 18.6371C5.01218 18.2856 5.01218 17.7151 5.36365 17.3636L10.7269 12.0004L5.36365 6.63708C5.01218 6.28561 5.01218 5.71512 5.36365 5.36365C5.71512 5.01219 6.28562 5.01218 6.63708 5.36365L12.0004 10.7269L17.3636 5.36365Z" fill="#212121"/>
</svg>

