<svg preserveAspectRatio="none" width="100%" height="100%" overflow="visible" style="display: block;" viewBox="0 0 13.8005 13.8005" fill="none" xmlns="http://www.w3.org/2000/svg">
<path id="Union" d="M12.2636 0.263598C12.6151 -0.0878622 13.1856 -0.0878699 13.537 0.263598C13.8882 0.615093 13.8884 1.18567 13.537 1.53704L8.17376 6.90032L13.537 12.2636C13.8882 12.6151 13.8884 13.1857 13.537 13.537C13.1857 13.8884 12.6151 13.8882 12.2636 13.537L6.90032 8.17375L1.53704 13.537C1.18568 13.8884 0.615103 13.8882 0.263604 13.537C-0.087868 13.1856 -0.087868 12.6151 0.263604 12.2636L5.62689 6.90032L0.263604 1.53704C-0.087868 1.18556 -0.087868 0.61507 0.263604 0.263598C0.615077 -0.0878622 1.18557 -0.0878699 1.53704 0.263598L6.90032 5.62688L12.2636 0.263598Z" fill="var(--fill-0, #212121)"/>
</svg>
