<svg width="36" height="36" viewBox="0 0 36 36" fill="none" xmlns="http://www.w3.org/2000/svg">
<path d="M25.9307 7.93945C26.5164 7.35392 27.466 7.35384 28.0518 7.93945C28.6374 8.52517 28.6373 9.47476 28.0518 10.0605L20.1162 17.9951L28.0518 25.9307C28.6374 26.5164 28.6372 27.466 28.0518 28.0518C27.466 28.6375 26.5165 28.6375 25.9307 28.0518L17.9951 20.1172L10.0605 28.0518C9.47478 28.6375 8.52525 28.6375 7.93945 28.0518C7.35382 27.466 7.35372 26.5164 7.93945 25.9307L15.874 17.9951L7.93945 10.0605C7.35367 9.47476 7.35367 8.52524 7.93945 7.93945C8.52526 7.35389 9.47484 7.35374 10.0605 7.93945L17.9951 15.874L25.9307 7.93945Z" fill="white"/>
</svg>

