<svg preserveAspectRatio="none" width="100%" height="100%" overflow="visible" style="display: block;" viewBox="0 0 20.9908 20.9908" fill="none" xmlns="http://www.w3.org/2000/svg">
<path id="Union" d="M18.4305 0.439254C19.0163 -0.146334 19.9659 -0.146378 20.5516 0.439254C21.1371 1.025 21.1372 1.97462 20.5516 2.56035L12.6161 10.4949L20.5516 18.4305C21.1371 19.0162 21.1371 19.9658 20.5516 20.5516C19.9659 21.1373 19.0164 21.1371 18.4305 20.5516L10.495 12.617L2.56043 20.5516C1.97473 21.1373 1.02515 21.1371 0.439338 20.5516C-0.146296 19.9658 -0.146395 19.0162 0.439338 18.4305L8.37391 10.4949L0.439338 2.56035C-0.146445 1.97456 -0.146447 1.02504 0.439338 0.439254C1.02514 -0.146361 1.9747 -0.146475 2.56043 0.439254L10.495 8.37382L18.4305 0.439254Z" fill="var(--fill-0, white)"/>
</svg>
