<svg preserveAspectRatio="none" width="100%" height="100%" overflow="visible" style="display: block;" viewBox="0 0 20 20" fill="none" xmlns="http://www.w3.org/2000/svg">
<g id="Path">
<path fill-rule="evenodd" clip-rule="evenodd" d="M4.91403 13.7808C4.57559 14.6027 5.39753 15.4246 6.21946 15.0862L12.115 12.6586C12.3615 12.5571 12.5573 12.3613 12.6589 12.1147L15.0864 6.21922C15.4249 5.39728 14.6029 4.57535 13.781 4.91379L7.88552 7.34134C7.63894 7.44288 7.44312 7.63869 7.34159 7.88527L4.91403 13.7808ZM13.2425 6.75771L8.64928 8.64904L11.3512 11.3509L13.2425 6.75771Z" fill="var(--fill-0, #212121)"/>
<path fill-rule="evenodd" clip-rule="evenodd" d="M20 10C20 15.5228 15.5228 20 10 20C4.47715 20 0 15.5228 0 10C0 4.47715 4.47715 0 10 0C15.5228 0 20 4.47715 20 10ZM18.5 10C18.5 14.6944 14.6944 18.5 10 18.5C5.30558 18.5 1.5 14.6944 1.5 10C1.5 5.30558 5.30558 1.5 10 1.5C14.6944 1.5 18.5 5.30558 18.5 10Z" fill="var(--fill-0, #212121)"/>
</g>
</svg>
