<svg width="24" height="24" viewBox="0 0 24 24" fill="none" xmlns="http://www.w3.org/2000/svg">
<path d="M17 6C17 5.44772 17.4477 5 18 5H20.6C20.8209 5 21 5.17909 21 5.4V6.6C21 6.82091 20.8209 7 20.6 7H18C17.4477 7 17 6.55228 17 6Z" fill="#9E9E9E"/>
<path d="M17 9C17 8.44772 17.4477 8 18 8H20.6C20.8209 8 21 8.17909 21 8.4V9.6C21 9.82091 20.8209 10 20.6 10H18C17.4477 10 17 9.55228 17 9Z" fill="#9E9E9E"/>
<rect x="4" y="3" width="15" height="19" rx="2" fill="#E0E0E0"/>
<path d="M6.5 7C6.5 6.44772 6.94772 6 7.5 6H15.5C16.0523 6 16.5 6.44772 16.5 7V9C16.5 9.55228 16.0523 10 15.5 10H7.5C6.94772 10 6.5 9.55228 6.5 9V7Z" fill="#FAFAFA"/>
<path d="M3 6.4C3 6.17909 3.17909 6 3.4 6H4.6C4.82091 6 5 6.17909 5 6.4V7.6C5 7.82091 4.82091 8 4.6 8H3.4C3.17909 8 3 7.82091 3 7.6V6.4Z" fill="#BDBDBD"/>
<path d="M3 11.4C3 11.1791 3.17909 11 3.4 11H4.6C4.82091 11 5 11.1791 5 11.4V12.6C5 12.8209 4.82091 13 4.6 13H3.4C3.17909 13 3 12.8209 3 12.6V11.4Z" fill="#BDBDBD"/>
<path d="M3 17.4C3 17.1791 3.17909 17 3.4 17H4.6C4.82091 17 5 17.1791 5 17.4V18.6C5 18.8209 4.82091 19 4.6 19H3.4C3.17909 19 3 18.8209 3 18.6V17.4Z" fill="#BDBDBD"/>
</svg>

