<svg width="24" height="24" viewBox="0 0 24 24" fill="none" xmlns="http://www.w3.org/2000/svg">
<g clip-path="url(#clip0_884_6950)">
<path d="M3.20723 9.06352L3.47602 9.32317L8.25503 4.3771L7.98624 4.11744C6.75803 2.9308 4.80045 2.96449 3.6138 4.19255L3.13197 4.69124C1.94532 5.91945 1.97902 7.87687 3.20708 9.06367L3.20723 9.06352Z" fill="#BDBDBD"/>
<path d="M20.9447 9.06352L20.6759 9.32317L15.8969 4.3771L16.1657 4.11744C17.3939 2.9308 19.3515 2.96449 20.5381 4.19255L21.0199 4.69124C22.2066 5.91945 22.1729 7.87687 20.9448 9.06367L20.9447 9.06352Z" fill="#BDBDBD"/>
<path d="M5.89513 21.5496C5.76381 21.5496 5.63091 21.5121 5.51344 21.4339C5.19647 21.2227 5.11065 20.7947 5.32181 20.4778L7.34033 17.4475C7.55149 17.1306 7.97947 17.0449 8.29644 17.2561C8.61342 17.4672 8.69923 17.8952 8.48808 18.2122L6.46956 21.2422C6.33666 21.4416 6.1181 21.5496 5.89513 21.5496Z" fill="#E0E0E0"/>
<path d="M18.1049 21.5495C17.882 21.5495 17.6633 21.4416 17.5304 21.2422L15.5117 18.2122C15.3006 17.8952 15.3864 17.4672 15.7034 17.2561C16.02 17.0449 16.4483 17.1306 16.6595 17.4475L18.6782 20.4776C18.8893 20.7946 18.8035 21.2226 18.4865 21.4337C18.3691 21.512 18.2363 21.5495 18.1049 21.5495Z" fill="#E0E0E0"/>
<path d="M18.5 18.5C22.0898 14.9101 22.0898 9.08985 18.5 5.5C14.9101 1.91015 9.08985 1.91015 5.5 5.5C1.91015 9.08985 1.91015 14.9101 5.5 18.5C9.08985 22.0899 14.9101 22.0898 18.5 18.5Z" fill="#E0E0E0"/>
<path d="M17.1179 17.1178C19.9444 14.2913 19.9444 9.70869 17.1179 6.88221C14.2914 4.05574 9.70879 4.05574 6.88231 6.88221C4.05584 9.70869 4.05584 14.2913 6.88231 17.1178C9.70879 19.9443 14.2914 19.9443 17.1179 17.1178Z" fill="#FAFAFA"/>
<path d="M11.762 7.02602C11.762 6.68744 12.0365 6.41296 12.3751 6.41296C12.7136 6.41296 12.9881 6.68744 12.9881 7.02602V12.5435C12.9881 12.7298 12.9034 12.9058 12.7579 13.0222L8.92632 16.0875C8.66193 16.299 8.27631 16.2561 8.06481 15.9917C7.85333 15.7273 7.89622 15.3417 8.1606 15.1302L11.762 12.249V7.02602Z" fill="#E0E0E0"/>
</g>
<defs>
<clipPath id="clip0_884_6950">
<rect width="24" height="24" fill="white"/>
</clipPath>
</defs>
</svg>

