<svg width="24" height="24" viewBox="0 0 24 24" fill="none" xmlns="http://www.w3.org/2000/svg">
<path d="M5.06407 3.00024H18.216C19.3551 3.00024 20.28 3.92514 20.28 5.06431V18.2162C20.28 19.3554 19.3551 20.2803 18.216 20.2803H5.06407C3.9249 20.2803 3 19.3554 3 18.2162V5.06431C3 3.92514 3.9249 3.00024 5.06407 3.00024Z" fill="#FFF5EA"/>
<path d="M18.216 18.7441H5.06407C3.92408 18.7441 3 17.82 3 16.6801V18.2159C3 19.3559 3.92408 20.28 5.06407 20.28H18.216C19.3559 20.28 20.28 19.3559 20.28 18.2159V16.6801C20.28 17.82 19.3559 18.7441 18.216 18.7441Z" fill="#FEE2C7"/>
<path d="M20.28 7.56173V5.06406C20.28 3.92408 19.3559 3 18.216 3H5.06407C3.92408 3 3 3.92408 3 5.06406V7.56173H20.2799H20.28Z" fill="#FF9528"/>
<path d="M20.2799 7.11328H3V8.01023H20.2799V7.11328Z" fill="#FFDEBE"/>
<path d="M6.91689 6.04675C7.4327 5.7748 7.63038 5.13619 7.35843 4.62038C7.08647 4.10458 6.44787 3.90689 5.93206 4.17885C5.41625 4.4508 5.21857 5.08941 5.49052 5.60522C5.76248 6.12102 6.40109 6.31871 6.91689 6.04675Z" fill="white"/>
<path d="M6.42453 4.39814C6.94949 4.39814 7.38489 4.78141 7.46645 5.28333C7.47544 5.22776 7.48034 5.17072 7.48034 5.1127C7.48034 4.52955 7.00767 4.05688 6.42453 4.05688C5.84138 4.05688 5.36871 4.52955 5.36871 5.1127C5.36871 5.17088 5.37362 5.22776 5.38261 5.28333C5.46416 4.78141 5.89956 4.39814 6.42453 4.39814Z" fill="white"/>
<path d="M17.363 6.03777C17.8743 5.75748 18.0616 5.11574 17.7813 4.60442C17.501 4.09309 16.8593 3.9058 16.348 4.18609C15.8366 4.46638 15.6493 5.10811 15.9296 5.61944C16.2099 6.13077 16.8517 6.31806 17.363 6.03777Z" fill="white"/>
<path d="M16.8555 4.39814C17.3805 4.39814 17.8159 4.78141 17.8974 5.28333C17.9064 5.22776 17.9113 5.17072 17.9113 5.1127C17.9113 4.52955 17.4386 4.05688 16.8555 4.05688C16.2723 4.05688 15.7997 4.52955 15.7997 5.1127C15.7997 5.17088 15.8046 5.22776 15.8136 5.28333C15.8951 4.78141 16.3305 4.39814 16.8555 4.39814Z" fill="white"/>
<path d="M15.1433 9.64312C15.4948 9.29165 16.0653 9.29165 16.4167 9.64312C16.7682 9.99459 16.7682 10.5651 16.4167 10.9166L11.4167 15.9166C11.0653 16.268 10.4948 16.268 10.1433 15.9166L7.6433 13.4166C7.29183 13.0651 7.29183 12.4946 7.6433 12.1431C7.99478 11.7916 8.56527 11.7916 8.91674 12.1431L10.78 14.0064L15.1433 9.64312Z" fill="#FF9528"/>
</svg>

