<svg width="24" height="24" viewBox="0 0 24 24" fill="none" xmlns="http://www.w3.org/2000/svg">
<path d="M12.5 8.00012V12.0326C12.5 12.087 12.4778 12.1391 12.4386 12.1768L9.5 15.0001" stroke="#212121" stroke-width="1.8" stroke-linecap="round" stroke-linejoin="round"/>
<path d="M8.77032 3.70605C10.8638 2.89115 13.1886 2.89823 15.2772 3.72559L14.9451 4.5625L14.6141 5.39941C12.9478 4.73936 11.0928 4.73354 9.42267 5.38379C7.75271 6.03415 6.39039 7.29235 5.60919 8.90527C4.82802 10.5184 4.68546 12.3675 5.21075 14.0811C5.73607 15.7946 6.89028 17.2464 8.44122 18.1445C9.9921 19.0425 11.8256 19.3201 13.5731 18.9229C15.3207 18.5254 16.854 17.4815 17.8641 16.001C18.8741 14.5204 19.2868 12.7126 19.0193 10.9404C18.8466 9.79568 18.3972 8.72146 17.7234 7.80273L17.1453 8.1123C16.806 8.29367 16.3977 8.03971 16.41 7.65527L16.4481 6.46777C16.4393 6.46072 16.4305 6.4533 16.4217 6.44629L16.45 6.40918L16.5115 4.53418C16.5244 4.1497 16.9494 3.92278 17.2762 4.12598L19.9266 5.77539C20.2534 5.97865 20.2377 6.45919 19.8983 6.64062L19.3231 6.94727C20.0853 8.05178 20.596 9.32268 20.7996 10.6719C21.1348 12.8933 20.6174 15.1597 19.3514 17.0156C18.0852 18.8715 16.1632 20.1805 13.9725 20.6787C11.7818 21.1768 9.48306 20.8279 7.53888 19.7021C5.59473 18.5763 4.14852 16.7564 3.49005 14.6084C2.83157 12.4604 3.00983 10.1422 3.98907 8.12012C4.96841 6.09834 6.67695 4.5212 8.77032 3.70605Z" fill="#212121"/>
</svg>

