<svg preserveAspectRatio="none" width="100%" height="100%" overflow="visible" style="display: block;" viewBox="0 0 17.8001 17.8003" fill="none" xmlns="http://www.w3.org/2000/svg">
<g id="Group 1000005808">
<path id="Union" d="M5.67113 0.606164C7.76468 -0.208736 10.0893 -0.201777 12.178 0.625695L11.8459 1.46261L11.5149 2.29952C9.84855 1.63935 7.99371 1.63366 6.32348 2.2839C4.65333 2.93421 3.29126 4.19232 2.51 5.80538C1.72881 7.41847 1.58626 9.26757 2.11156 10.9812C2.63698 12.6946 3.79111 14.1466 5.34203 15.0446C6.89295 15.9425 8.72642 16.2203 10.4739 15.823C12.2215 15.4254 13.7548 14.3816 14.7649 12.9011C15.7748 11.4206 16.1875 9.61259 15.9202 7.84054C15.7473 6.69557 15.2972 5.62071 14.6233 4.70187L14.0452 5.01144C13.7057 5.19288 13.2972 4.9391 13.3098 4.55441L13.3479 3.36788C13.3393 3.36094 13.3312 3.35331 13.3225 3.3464L13.3498 3.31027L13.4123 1.43429C13.425 1.04963 13.8492 0.822841 14.176 1.02609L16.8274 2.67452C17.1539 2.87783 17.1383 3.35927 16.7991 3.54073L16.2239 3.84738C16.9859 4.95176 17.4968 6.22302 17.7004 7.57198C18.0355 9.79331 17.5181 12.0599 16.2522 13.9157C14.986 15.7716 13.064 17.0805 10.8733 17.5788C8.68266 18.077 6.3839 17.7279 4.43969 16.6023C2.49556 15.4765 1.04943 13.6563 0.39086 11.5085C-0.267621 9.36046 -0.0893802 7.04228 0.889883 5.02023C1.86928 2.99832 3.57757 1.42126 5.67113 0.606164Z" fill="var(--fill-0, #212121)"/>
</g>
</svg>
