<svg width="30" height="30" viewBox="0 0 30 30" fill="none" xmlns="http://www.w3.org/2000/svg">
<path fill-rule="evenodd" clip-rule="evenodd" d="M22.5 10.625C22.5 12.3509 21.1009 13.75 19.375 13.75C17.6491 13.75 16.25 12.3509 16.25 10.625C16.25 8.89911 17.6491 7.5 19.375 7.5C21.1009 7.5 22.5 8.89911 22.5 10.625ZM20.625 10.625C20.625 11.3154 20.0654 11.875 19.375 11.875C18.6846 11.875 18.125 11.3154 18.125 10.625C18.125 9.93464 18.6846 9.375 19.375 9.375C20.0654 9.375 20.625 9.93464 20.625 10.625Z" fill="#BDBDBD"/>
<path fill-rule="evenodd" clip-rule="evenodd" d="M3.75 6.25V23.75C3.75 25.1307 4.86929 26.25 6.25 26.25H23.75C25.1307 26.25 26.25 25.1307 26.25 23.75V6.25C26.25 4.86929 25.1307 3.75 23.75 3.75H6.25C4.86929 3.75 3.75 4.86929 3.75 6.25ZM23.75 5.625H6.25C5.90482 5.625 5.625 5.90482 5.625 6.25V18.0492L10.5871 13.0871C10.9532 12.721 11.5468 12.721 11.9129 13.0871L17.5 18.6742L20.5871 15.5871C20.9532 15.221 21.5468 15.221 21.9129 15.5871L24.375 18.0492V6.25C24.375 5.90482 24.0952 5.625 23.75 5.625ZM11.25 15.0758L5.625 20.7008V23.75C5.625 24.0952 5.90482 24.375 6.25 24.375H23.75C24.0952 24.375 24.375 24.0952 24.375 23.75V20.7008L21.25 17.5758L18.1629 20.6629C17.7968 21.029 17.2032 21.029 16.8371 20.6629L11.25 15.0758Z" fill="#BDBDBD"/>
</svg>

