<svg preserveAspectRatio="none" width="100%" height="100%" overflow="visible" style="display: block;" viewBox="0 0 22.5 22.5" fill="none" xmlns="http://www.w3.org/2000/svg">
<g id="Path">
<path fill-rule="evenodd" clip-rule="evenodd" d="M18.75 6.875C18.75 8.60089 17.3509 10 15.625 10C13.8991 10 12.5 8.60089 12.5 6.875C12.5 5.14911 13.8991 3.75 15.625 3.75C17.3509 3.75 18.75 5.14911 18.75 6.875ZM16.875 6.875C16.875 7.56536 16.3154 8.125 15.625 8.125C14.9346 8.125 14.375 7.56536 14.375 6.875C14.375 6.18464 14.9346 5.625 15.625 5.625C16.3154 5.625 16.875 6.18464 16.875 6.875Z" fill="var(--fill-0, #BDBDBD)"/>
<path fill-rule="evenodd" clip-rule="evenodd" d="M0 2.5V20C0 21.3807 1.11929 22.5 2.5 22.5H20C21.3807 22.5 22.5 21.3807 22.5 20V2.5C22.5 1.11929 21.3807 0 20 0H2.5C1.11929 0 0 1.11929 0 2.5ZM20 1.875H2.5C2.15482 1.875 1.875 2.15482 1.875 2.5V14.2992L6.83709 9.33709C7.2032 8.97097 7.7968 8.97097 8.16291 9.33709L13.75 14.9242L16.8371 11.8371C17.2032 11.471 17.7968 11.471 18.1629 11.8371L20.625 14.2992V2.5C20.625 2.15482 20.3452 1.875 20 1.875ZM7.5 11.3258L1.875 16.9508V20C1.875 20.3452 2.15482 20.625 2.5 20.625H20C20.3452 20.625 20.625 20.3452 20.625 20V16.9508L17.5 13.8258L14.4129 16.9129C14.0468 17.279 13.4532 17.279 13.0871 16.9129L7.5 11.3258Z" fill="var(--fill-0, #BDBDBD)"/>
</g>
</svg>
