<svg width="20" height="20" viewBox="0 0 20 20" fill="none" xmlns="http://www.w3.org/2000/svg">
<path d="M10.4688 9.625C10.7276 9.625 10.9375 9.83487 10.9375 10.0938C10.9375 10.3526 10.7276 10.5625 10.4688 10.5625C10.2099 10.5625 10 10.3526 10 10.0938C10 9.83487 10.2099 9.625 10.4688 9.625Z" fill="#212121"/>
<path d="M16.0938 9.625C16.3526 9.625 16.5625 9.83487 16.5625 10.0938C16.5625 10.3526 16.3526 10.5625 16.0938 10.5625C15.8349 10.5625 15.625 10.3526 15.625 10.0938C15.625 9.83487 15.8349 9.625 16.0938 9.625Z" fill="#212121"/>
<path d="M4.84375 9.625C5.10263 9.625 5.3125 9.83487 5.3125 10.0938C5.3125 10.3526 5.10263 10.5625 4.84375 10.5625C4.58487 10.5625 4.375 10.3526 4.375 10.0938C4.375 9.83487 4.58487 9.625 4.84375 9.625Z" fill="#212121"/>
<path d="M10.4688 9.625L10.4688 10.325C10.341 10.325 10.2375 10.2215 10.2375 10.0938L10.9375 10.0938L11.6375 10.0938C11.6375 9.44827 11.1142 8.925 10.4688 8.925L10.4688 9.625ZM10.9375 10.0938L10.2375 10.0938C10.2375 9.96603 10.341 9.8625 10.4688 9.8625L10.4688 10.5625L10.4687 11.2625C11.1142 11.2625 11.6375 10.7392 11.6375 10.0938L10.9375 10.0938ZM10.4688 10.5625L10.4688 9.8625C10.5965 9.8625 10.7 9.96603 10.7 10.0938L10 10.0938L9.3 10.0938C9.3 10.7392 9.82327 11.2625 10.4687 11.2625L10.4688 10.5625ZM10 10.0938L10.7 10.0938C10.7 10.2215 10.5965 10.325 10.4688 10.325L10.4688 9.625L10.4688 8.925C9.82327 8.925 9.3 9.44827 9.3 10.0938L10 10.0938ZM16.0938 9.625L16.0938 10.325C15.966 10.325 15.8625 10.2215 15.8625 10.0938L16.5625 10.0938L17.2625 10.0938C17.2625 9.44827 16.7392 8.925 16.0938 8.925L16.0938 9.625ZM16.5625 10.0938L15.8625 10.0938C15.8625 9.96603 15.966 9.8625 16.0938 9.8625L16.0938 10.5625L16.0937 11.2625C16.7392 11.2625 17.2625 10.7392 17.2625 10.0938L16.5625 10.0938ZM16.0938 10.5625L16.0938 9.8625C16.2215 9.8625 16.325 9.96603 16.325 10.0938L15.625 10.0938L14.925 10.0938C14.925 10.7392 15.4483 11.2625 16.0937 11.2625L16.0938 10.5625ZM15.625 10.0938L16.325 10.0938C16.325 10.2215 16.2215 10.325 16.0938 10.325L16.0938 9.625L16.0938 8.925C15.4483 8.925 14.925 9.44827 14.925 10.0938L15.625 10.0938ZM4.84375 9.625L4.84375 10.325C4.71603 10.325 4.6125 10.2215 4.6125 10.0938L5.3125 10.0938L6.0125 10.0938C6.0125 9.44827 5.48923 8.925 4.84375 8.925L4.84375 9.625ZM5.3125 10.0938L4.6125 10.0938C4.6125 9.96603 4.71603 9.8625 4.84375 9.8625L4.84375 10.5625L4.84375 11.2625C5.48923 11.2625 6.0125 10.7392 6.0125 10.0938L5.3125 10.0938ZM4.84375 10.5625L4.84375 9.8625C4.97147 9.8625 5.075 9.96603 5.075 10.0938L4.375 10.0938L3.675 10.0937C3.675 10.7392 4.19827 11.2625 4.84375 11.2625L4.84375 10.5625ZM4.375 10.0938L5.075 10.0938C5.075 10.2215 4.97147 10.325 4.84375 10.325L4.84375 9.625L4.84375 8.925C4.19827 8.925 3.675 9.44827 3.675 10.0937L4.375 10.0938Z" fill="#212121"/>
</svg>

