<svg preserveAspectRatio="none" width="100%" height="100%" overflow="visible" style="display: block;" viewBox="0 0 2.3375 13.5875" fill="none" xmlns="http://www.w3.org/2000/svg">
<g id="Vector">
<path d="M1.6375 6.79375C1.6375 7.05263 1.42763 7.2625 1.16875 7.2625C0.909866 7.2625 0.7 7.05263 0.7 6.79375C0.7 6.53487 0.909866 6.325 1.16875 6.325C1.42763 6.325 1.6375 6.53487 1.6375 6.79375Z" fill="var(--fill-0, #212121)"/>
<path d="M1.6375 12.4187C1.6375 12.6776 1.42763 12.8875 1.16875 12.8875C0.909866 12.8875 0.7 12.6776 0.7 12.4187C0.7 12.1599 0.909866 11.95 1.16875 11.95C1.42763 11.95 1.6375 12.1599 1.6375 12.4187Z" fill="var(--fill-0, #212121)"/>
<path d="M1.6375 1.16875C1.6375 1.42763 1.42763 1.6375 1.16875 1.6375C0.909866 1.6375 0.7 1.42763 0.7 1.16875C0.7 0.909866 0.909866 0.7 1.16875 0.7C1.42763 0.7 1.6375 0.909866 1.6375 1.16875Z" fill="var(--fill-0, #212121)"/>
<path d="M1.6375 6.79375H0.9375C0.9375 6.66603 1.04103 6.5625 1.16875 6.5625V7.2625V7.9625C1.81423 7.9625 2.3375 7.43923 2.3375 6.79375H1.6375ZM1.16875 7.2625V6.5625C1.29647 6.5625 1.4 6.66603 1.4 6.79375H0.7H0C0 7.43923 0.523267 7.9625 1.16875 7.9625V7.2625ZM0.7 6.79375H1.4C1.4 6.92147 1.29647 7.025 1.16875 7.025V6.325V5.625C0.523267 5.625 0 6.14827 0 6.79375H0.7ZM1.16875 6.325V7.025C1.04103 7.025 0.9375 6.92147 0.9375 6.79375H1.6375H2.3375C2.3375 6.14827 1.81423 5.625 1.16875 5.625V6.325ZM1.6375 12.4187H0.9375C0.9375 12.291 1.04103 12.1875 1.16875 12.1875V12.8875V13.5875C1.81423 13.5875 2.3375 13.0642 2.3375 12.4187H1.6375ZM1.16875 12.8875V12.1875C1.29647 12.1875 1.4 12.291 1.4 12.4187H0.7H0C0 13.0642 0.523267 13.5875 1.16875 13.5875V12.8875ZM0.7 12.4187H1.4C1.4 12.5465 1.29647 12.65 1.16875 12.65V11.95V11.25C0.523267 11.25 0 11.7733 0 12.4187H0.7ZM1.16875 11.95V12.65C1.04103 12.65 0.9375 12.5465 0.9375 12.4187H1.6375H2.3375C2.3375 11.7733 1.81423 11.25 1.16875 11.25V11.95ZM1.6375 1.16875H0.9375C0.9375 1.04103 1.04103 0.9375 1.16875 0.9375V1.6375V2.3375C1.81423 2.3375 2.3375 1.81423 2.3375 1.16875H1.6375ZM1.16875 1.6375V0.9375C1.29647 0.9375 1.4 1.04103 1.4 1.16875H0.7H0C0 1.81423 0.523267 2.3375 1.16875 2.3375V1.6375ZM0.7 1.16875H1.4C1.4 1.29647 1.29647 1.4 1.16875 1.4V0.7V0C0.523267 0 0 0.523267 0 1.16875H0.7ZM1.16875 0.7V1.4C1.04103 1.4 0.9375 1.29647 0.9375 1.16875H1.6375H2.3375C2.3375 0.523267 1.81423 0 1.16875 0V0.7Z" fill="var(--stroke-0, #212121)"/>
</g>
</svg>
