<svg preserveAspectRatio="none" width="100%" height="100%" overflow="visible" style="display: block;" viewBox="0 0 12 12.6667" fill="none" xmlns="http://www.w3.org/2000/svg">
<g id="Group 25">
<path id="Rectangle 6929" d="M9.33332 2.00002C9.33332 1.63183 9.63179 1.33336 9.99998 1.33336H11.7333C11.8806 1.33336 12 1.45275 12 1.60002V2.40002C12 2.5473 11.8806 2.66669 11.7333 2.66669H9.99998C9.63179 2.66669 9.33332 2.36821 9.33332 2.00002Z" fill="var(--fill-0, #FF7D7D)"/>
<path id="Rectangle 6930" d="M9.33332 4C9.33332 3.63181 9.63179 3.33333 9.99998 3.33333H11.7333C11.8806 3.33333 12 3.45272 12 3.6V4.4C12 4.54727 11.8806 4.66666 11.7333 4.66666H9.99998C9.63179 4.66666 9.33332 4.36819 9.33332 4Z" fill="var(--fill-0, #FFA953)"/>
<rect id="Rectangle 6931" x="0.666678" width="9.99999" height="12.6667" rx="1.33333" fill="var(--fill-0, #2C7DFF)"/>
<path id="Rectangle 6932" d="M2.33331 2.66676C2.33331 2.29857 2.63179 2.00009 2.99998 2.00009H8.33331C8.7015 2.00009 8.99998 2.29857 8.99998 2.66676V4.00009C8.99998 4.36828 8.7015 4.66676 8.33331 4.66676H2.99998C2.63179 4.66676 2.33331 4.36828 2.33331 4.00009V2.66676Z" fill="var(--fill-0, #E5EFFF)"/>
<path id="Rectangle 6933" d="M0 2.26676C0 2.11948 0.119391 2.00009 0.266667 2.00009H1.06667C1.21394 2.00009 1.33333 2.11948 1.33333 2.26676V3.06676C1.33333 3.21403 1.21394 3.33342 1.06667 3.33342H0.266667C0.119391 3.33342 0 3.21403 0 3.06676V2.26676Z" fill="var(--fill-0, #395070)"/>
<path id="Rectangle 6934" d="M0 5.59997C0 5.4527 0.119391 5.33331 0.266667 5.33331H1.06667C1.21394 5.33331 1.33333 5.4527 1.33333 5.59997V6.39997C1.33333 6.54725 1.21394 6.66664 1.06667 6.66664H0.266667C0.119391 6.66664 0 6.54725 0 6.39997V5.59997Z" fill="var(--fill-0, #395070)"/>
<path id="Rectangle 6935" d="M0 9.60004C0 9.45276 0.119391 9.33337 0.266667 9.33337H1.06667C1.21394 9.33337 1.33333 9.45276 1.33333 9.60004V10.4C1.33333 10.5473 1.21394 10.6667 1.06667 10.6667H0.266667C0.119391 10.6667 0 10.5473 0 10.4V9.60004Z" fill="var(--fill-0, #395070)"/>
</g>
</svg>
