<svg width="25" height="25" viewBox="0 0 25 25" fill="none" xmlns="http://www.w3.org/2000/svg">
<rect x="0.25" y="0.25" width="24" height="24" rx="12" stroke="#EEEEEE" stroke-width="0.5"/>
<g clip-path="url(#clip0_1884_121630)">
<path d="M6.38813 10.2923L6.56732 10.4654L9.75332 7.16806L9.57413 6.99496C8.75532 6.20386 7.45027 6.22633 6.65917 7.04503L6.33795 7.37749C5.54685 8.1963 5.56932 9.50125 6.38802 10.2924L6.38813 10.2923Z" fill="#FFCA28"/>
<path d="M18.213 10.2923L18.0338 10.4654L14.8478 7.16806L15.027 6.99496C15.8458 6.20386 17.1509 6.22633 17.942 7.04503L18.2632 7.37749C19.0543 8.1963 19.0318 9.50125 18.2131 10.2924L18.213 10.2923Z" fill="#FFCA28"/>
<path d="M8.18006 18.6163C8.09251 18.6163 8.00391 18.5913 7.9256 18.5392C7.71428 18.3984 7.65707 18.1131 7.79784 17.9018L9.14352 15.8816C9.28429 15.6703 9.56962 15.6132 9.78093 15.754C9.99225 15.8947 10.0495 16.1801 9.90869 16.3914L8.56301 18.4114C8.47441 18.5443 8.3287 18.6163 8.18006 18.6163Z" fill="#FF9528"/>
<path d="M16.3198 18.6162C16.1713 18.6162 16.0255 18.5443 15.9369 18.4114L14.5911 16.3914C14.4503 16.1801 14.5076 15.8947 14.7189 15.754C14.93 15.6132 15.2155 15.6703 15.3563 15.8816L16.7021 17.9017C16.8428 18.113 16.7856 18.3983 16.5743 18.5391C16.496 18.5912 16.4075 18.6162 16.3198 18.6162Z" fill="#FF9528"/>
<path d="M16.5833 16.5833C18.9765 14.1901 18.9765 10.3099 16.5833 7.91667C14.1901 5.52344 10.3099 5.52344 7.91664 7.91667C5.52341 10.3099 5.52341 14.1901 7.91664 16.5833C10.3099 18.9766 14.1901 18.9766 16.5833 16.5833Z" fill="#FF9528"/>
<path d="M15.6619 15.6619C17.5462 13.7775 17.5462 10.7225 15.6619 8.83815C13.7775 6.95383 10.7225 6.95383 8.83815 8.83815C6.95384 10.7225 6.95384 13.7775 8.83815 15.6619C10.7225 17.5462 13.7775 17.5462 15.6619 15.6619Z" fill="#FFF0E1"/>
<path d="M12.0912 8.9341C12.0912 8.70837 12.2742 8.52539 12.5 8.52539C12.7257 8.52539 12.9087 8.70837 12.9087 8.9341V12.6124C12.9087 12.7366 12.8521 12.854 12.7552 12.9315L10.2008 14.9751C10.0245 15.116 9.76745 15.0874 9.62645 14.9112C9.48546 14.7349 9.51406 14.4779 9.69031 14.3369L12.0912 12.4161V8.9341Z" fill="#FF9528"/>
</g>
<defs>
<clipPath id="clip0_1884_121630">
<rect width="16" height="16" fill="white" transform="translate(4.25 4.25)"/>
</clipPath>
</defs>
</svg>

