<svg width="24" height="24" viewBox="0 0 24 24" fill="none" xmlns="http://www.w3.org/2000/svg">
<path d="M14.6714 19.0589C13.9644 19.6446 13.0357 20 12.0186 20C11.0015 20 10.0728 19.6446 9.36582 19.0589M18.0319 12.6408V9.64709C18.0319 6.52022 15.3497 4 12.0186 4C8.68749 4 5.96893 6.41278 5.96893 9.64709V12.6205C5.96893 13.0753 5.89343 13.5271 5.74532 13.9585L5.00489 16.1152C4.98462 16.1742 5.02989 16.2352 5.094 16.2352H18.9C18.9678 16.2352 19.0159 16.1732 18.9951 16.1127L18.2497 13.9413C18.1054 13.5211 18.0319 13.0823 18.0319 12.6408Z" stroke="#212121" stroke-width="1.8" stroke-linecap="round"/>
</svg>

