<svg preserveAspectRatio="none" width="100%" height="100%" overflow="visible" style="display: block;" viewBox="0 0 15.8065 17.8" fill="none" xmlns="http://www.w3.org/2000/svg">
<path id="Vector" d="M10.5737 15.9589C9.8667 16.5446 8.93803 16.9 7.92093 16.9C6.90383 16.9 5.97516 16.5446 5.26816 15.9589M13.9343 9.54081V6.54709C13.9343 3.42022 11.252 0.9 7.92093 0.9C4.58983 0.9 1.87127 3.31278 1.87127 6.54709V9.52053C1.87127 9.97528 1.79576 10.4271 1.64766 10.8585L0.907231 13.0152C0.886957 13.0742 0.932229 13.1352 0.996342 13.1352H14.8024C14.8701 13.1352 14.9182 13.0732 14.8974 13.0127L14.152 10.8413C14.0077 10.4211 13.9343 9.9823 13.9343 9.54081Z" stroke="var(--stroke-0, #212121)" stroke-width="1.8" stroke-linecap="round"/>
</svg>
