<svg preserveAspectRatio="none" width="100%" height="100%" overflow="visible" style="display: block;" viewBox="0 0 16 16" fill="none" xmlns="http://www.w3.org/2000/svg">
<g id="Project" clip-path="url(#clip0_0_12)">
<circle id="Ellipse 482" cx="7.5" cy="8.5" r="6.5" fill="var(--fill-0, #FFF0E1)"/>
<g id="Group 1000005873">
<path id="Vector" d="M7.3438 4.69306C5.29535 4.69306 3.62859 6.35982 3.62859 8.40827C3.62859 10.4567 5.29535 12.1235 7.3438 12.1235C9.39225 12.1235 11.059 10.4567 11.059 8.40827C11.059 6.35982 9.39225 4.69306 7.3438 4.69306ZM7.3438 10.9503C5.94219 10.9503 4.80181 9.80989 4.80181 8.40827C4.80181 7.00666 5.94219 5.86629 7.3438 5.86629C8.74542 5.86629 9.88579 7.00666 9.88579 8.40827C9.88579 9.80989 8.74542 10.9503 7.3438 10.9503ZM14.1876 8.40827C14.1876 12.1821 11.1177 15.2521 7.3438 15.2521C3.56993 15.2521 0.499988 12.1821 0.499988 8.40827C0.499988 4.6344 3.56993 1.56446 7.3438 1.56446C8.56943 1.56446 9.76925 1.89374 10.8126 2.51634C11.0903 2.68215 11.1818 3.04194 11.0152 3.32039C10.8502 3.59727 10.4912 3.69034 10.2112 3.52296C9.35002 3.00987 8.35903 2.73768 7.34459 2.73768C4.21755 2.73768 1.674 5.28124 1.674 8.40827C1.674 11.5353 4.21755 14.0789 7.34459 14.0789C10.4716 14.0789 13.0152 11.5353 13.0152 8.40827C13.0152 7.39383 12.743 6.40284 12.2299 5.54169C12.0633 5.26325 12.154 4.90346 12.4325 4.73764C12.7133 4.57104 13.0715 4.66256 13.2365 4.94022C13.8591 5.98361 14.1884 7.18265 14.1884 8.40906L14.1876 8.40827Z" fill="var(--fill-0, #FFB467)"/>
<path id="Vector_2" d="M15.4988 2.40839L14.1097 1.71384L13.4152 0.324737C13.3315 0.155793 13.1712 0.037688 12.9842 0.00796629C12.7981 -0.0233197 12.6088 0.0384702 12.4758 0.172218L10.1294 2.51867C9.95027 2.69778 9.90647 2.96997 10.0191 3.19523L10.612 4.38175L6.99999 7.99372C6.77082 8.22289 6.77082 8.59441 6.99999 8.82358C7.11419 8.93778 7.26436 8.99566 7.41453 8.99566C7.56471 8.99566 7.71488 8.93856 7.82907 8.82358L11.441 5.21161L12.6276 5.80448C12.7105 5.84594 12.8004 5.86627 12.8896 5.86627C13.0413 5.86627 13.1923 5.80761 13.3041 5.6942L15.6506 3.34775C15.7843 3.214 15.8453 3.0255 15.8148 2.83935C15.7851 2.6532 15.6678 2.49286 15.4988 2.40839ZM12.7746 4.56634L11.7633 4.06107L11.258 3.04975L12.7308 1.57774L13.1485 2.41308C13.2048 2.52727 13.2971 2.61957 13.4113 2.67588L14.2466 3.09355L12.7746 4.56634Z" fill="var(--fill-0, #FF9528)"/>
</g>
</g>
<defs>
<clipPath id="clip0_0_12">
<rect width="16" height="16" fill="white"/>
</clipPath>
</defs>
</svg>
