<svg preserveAspectRatio="none" width="100%" height="100%" overflow="visible" style="display: block;" viewBox="0 0 17.3333 17.3333" fill="none" xmlns="http://www.w3.org/2000/svg">
<g id="Group 22">
<path id="Vector" d="M2.80478 6.70905L2.98397 6.88215L6.16998 3.58477L5.99079 3.41166C5.17198 2.62057 3.86692 2.64303 3.07583 3.46174L2.7546 3.79419C1.96351 4.613 1.98597 5.91795 2.80468 6.70915L2.80478 6.70905Z" fill="var(--fill-0, #FFCA28)"/>
<path id="Vector_2" d="M14.6297 6.70905L14.4505 6.88215L11.2645 3.58477L11.4437 3.41166C12.2625 2.62057 13.5676 2.64303 14.3587 3.46174L14.6799 3.79419C15.471 4.613 15.4485 5.91795 14.6298 6.70915L14.6297 6.70905Z" fill="var(--fill-0, #FFCA28)"/>
<path id="Vector_3" d="M4.59671 15.0331C4.50916 15.0331 4.42056 15.0081 4.34225 14.956C4.13094 14.8152 4.07372 14.5299 4.2145 14.3185L5.56018 12.2984C5.70095 12.0871 5.98627 12.03 6.19759 12.1707C6.4089 12.3115 6.46611 12.5968 6.32534 12.8082L4.97966 14.8282C4.89106 14.9611 4.74536 15.0331 4.59671 15.0331Z" fill="var(--fill-0, #FF9528)"/>
<path id="Vector_4" d="M12.7365 15.033C12.588 15.033 12.4421 14.9611 12.3535 14.8282L11.0078 12.8082C10.867 12.5968 10.9242 12.3115 11.1355 12.1707C11.3466 12.03 11.6322 12.0871 11.7729 12.2984L13.1187 14.3184C13.2595 14.5298 13.2023 14.8151 12.991 14.9559C12.9126 15.008 12.8242 15.033 12.7365 15.033Z" fill="var(--fill-0, #FF9528)"/>
<path id="Vector_5" d="M13 13.0001C15.3932 10.6068 15.3932 6.72665 13 4.33342C10.6067 1.94018 6.72652 1.94018 4.33329 4.33342C1.94006 6.72665 1.94006 10.6068 4.33329 13.0001C6.72652 15.3933 10.6067 15.3933 13 13.0001Z" fill="var(--fill-0, #FF9528)"/>
<path id="Vector_6" d="M12.0785 12.0786C13.9628 10.1943 13.9628 7.13921 12.0785 5.25489C10.1942 3.37058 7.13913 3.37058 5.25481 5.25489C3.3705 7.13921 3.3705 10.1943 5.25481 12.0786C7.13913 13.9629 10.1942 13.9629 12.0785 12.0786Z" fill="var(--fill-0, #FFF0E1)"/>
<path id="Vector 44 (Stroke)" d="M8.50791 5.3508C8.50791 5.12508 8.69089 4.94209 8.91661 4.94209C9.14234 4.94209 9.32532 5.12508 9.32532 5.3508V9.02914C9.32532 9.1533 9.26881 9.27068 9.17185 9.34824L6.61745 11.3918C6.44119 11.5327 6.18411 11.5042 6.04311 11.3279C5.90212 11.1516 5.93072 10.8946 6.10697 10.7536L8.50791 8.83277V5.3508Z" fill="var(--fill-0, #FF9528)"/>
</g>
</svg>
