<svg width="25" height="25" viewBox="0 0 25 25" fill="none" xmlns="http://www.w3.org/2000/svg">
<rect x="0.25" y="0.25" width="24" height="24" rx="12" stroke="#EEEEEE" stroke-width="0.5"/>
<path d="M15.5833 8.24992C15.5833 7.88173 15.8818 7.58325 16.25 7.58325H17.9833C18.1306 7.58325 18.25 7.70264 18.25 7.84992V8.64992C18.25 8.79719 18.1306 8.91658 17.9833 8.91658H16.25C15.8818 8.91658 15.5833 8.61811 15.5833 8.24992Z" fill="#FF7D7D"/>
<path d="M15.5833 10.2499C15.5833 9.88173 15.8818 9.58325 16.25 9.58325H17.9833C18.1306 9.58325 18.25 9.70264 18.25 9.84992V10.6499C18.25 10.7972 18.1306 10.9166 17.9833 10.9166H16.25C15.8818 10.9166 15.5833 10.6181 15.5833 10.2499Z" fill="#FFA953"/>
<rect x="6.91669" y="6.25" width="9.99999" height="12.6667" rx="1.33333" fill="#2C7DFF"/>
<path d="M8.58331 8.91667C8.58331 8.54848 8.88179 8.25 9.24998 8.25H14.5833C14.9515 8.25 15.25 8.54848 15.25 8.91667V10.25C15.25 10.6182 14.9515 10.9167 14.5833 10.9167H9.24998C8.88179 10.9167 8.58331 10.6182 8.58331 10.25V8.91667Z" fill="#E5EFFF"/>
<path d="M6.25 8.51667C6.25 8.36939 6.36939 8.25 6.51667 8.25H7.31667C7.46394 8.25 7.58333 8.36939 7.58333 8.51667V9.31667C7.58333 9.46394 7.46394 9.58333 7.31667 9.58333H6.51667C6.36939 9.58333 6.25 9.46394 6.25 9.31667V8.51667Z" fill="#395070"/>
<path d="M6.25 11.8499C6.25 11.7026 6.36939 11.5833 6.51667 11.5833H7.31667C7.46394 11.5833 7.58333 11.7026 7.58333 11.8499V12.6499C7.58333 12.7972 7.46394 12.9166 7.31667 12.9166H6.51667C6.36939 12.9166 6.25 12.7972 6.25 12.6499V11.8499Z" fill="#395070"/>
<path d="M6.25 15.85C6.25 15.7028 6.36939 15.5834 6.51667 15.5834H7.31667C7.46394 15.5834 7.58333 15.7028 7.58333 15.85V16.65C7.58333 16.7973 7.46394 16.9167 7.31667 16.9167H6.51667C6.36939 16.9167 6.25 16.7973 6.25 16.65V15.85Z" fill="#395070"/>
</svg>

