<svg width="25" height="25" viewBox="0 0 25 25" fill="none" xmlns="http://www.w3.org/2000/svg">
<rect x="0.25" y="0.25" width="24" height="24" rx="12" stroke="#EEEEEE" stroke-width="0.5"/>
<g clip-path="url(#clip0_2039_137758)">
<circle cx="11.75" cy="12.75" r="6.5" fill="#FFF0E1"/>
<path d="M11.5938 8.94305C9.54536 8.94305 7.8786 10.6098 7.8786 12.6583C7.8786 14.7067 9.54536 16.3735 11.5938 16.3735C13.6423 16.3735 15.309 14.7067 15.309 12.6583C15.309 10.6098 13.6423 8.94305 11.5938 8.94305ZM11.5938 15.2003C10.1922 15.2003 9.05183 14.0599 9.05183 12.6583C9.05183 11.2567 10.1922 10.1163 11.5938 10.1163C12.9954 10.1163 14.1358 11.2567 14.1358 12.6583C14.1358 14.0599 12.9954 15.2003 11.5938 15.2003ZM18.4376 12.6583C18.4376 16.4321 15.3677 19.5021 11.5938 19.5021C7.81994 19.5021 4.75 16.4321 4.75 12.6583C4.75 8.88439 7.81994 5.81445 11.5938 5.81445C12.8194 5.81445 14.0193 6.14374 15.0627 6.76633C15.3403 6.93215 15.4318 7.29194 15.2652 7.57038C15.1002 7.84726 14.7412 7.94034 14.4612 7.77296C13.6 7.25987 12.609 6.98768 11.5946 6.98768C8.46756 6.98768 5.92401 9.53123 5.92401 12.6583C5.92401 15.7853 8.46756 18.3289 11.5946 18.3289C14.7216 18.3289 17.2652 15.7853 17.2652 12.6583C17.2652 11.6438 16.993 10.6528 16.4799 9.79169C16.3133 9.51324 16.404 9.15345 16.6825 8.98764C16.9633 8.82104 17.3215 8.91255 17.4865 9.19021C18.1091 10.2336 18.4384 11.4326 18.4384 12.6591L18.4376 12.6583Z" fill="#FFB467"/>
<path d="M19.7488 6.65841L18.3597 5.96386L17.6652 4.57476C17.5815 4.40582 17.4212 4.28771 17.2342 4.25799C17.0481 4.2267 16.8588 4.28849 16.7258 4.42224L14.3794 6.76869C14.2003 6.94781 14.1565 7.21999 14.2691 7.44525L14.862 8.63178L11.25 12.2437C11.0208 12.4729 11.0208 12.8444 11.25 13.0736C11.3642 13.1878 11.5144 13.2457 11.6645 13.2457C11.8147 13.2457 11.9649 13.1886 12.0791 13.0736L15.691 9.46164L16.8776 10.0545C16.9605 10.096 17.0504 10.1163 17.1396 10.1163C17.2913 10.1163 17.4423 10.0576 17.5541 9.94422L19.9006 7.59777C20.0343 7.46402 20.0953 7.27553 20.0648 7.08937C20.0351 6.90322 19.9178 6.74288 19.7488 6.65841ZM17.0246 8.81636L16.0133 8.31109L15.508 7.29977L16.9808 5.82777L17.3985 6.6631C17.4548 6.7773 17.5471 6.86959 17.6613 6.92591L18.4966 7.34357L17.0246 8.81636Z" fill="#FF9528"/>
</g>
<defs>
<clipPath id="clip0_2039_137758">
<rect width="16" height="16" fill="white" transform="translate(4.25 4.25)"/>
</clipPath>
</defs>
</svg>

