<svg preserveAspectRatio="none" width="100%" height="100%" overflow="visible" style="display: block;" viewBox="0 0 29.5998 37.6008" fill="none" xmlns="http://www.w3.org/2000/svg">
<g id="Group 1000005870">
<path id="?" d="M12.621 19.1078C12.6265 17.7461 12.9929 17.3305 13.6491 16.9203C14.1194 16.6141 14.4858 16.275 14.4804 15.7719C14.4858 15.225 14.0593 14.8695 13.5288 14.8641C13.0202 14.8695 12.5444 15.2086 12.5226 15.8484H10.9694C10.9968 14.3117 12.1397 13.5734 13.5397 13.5734C15.0655 13.5734 16.1429 14.3664 16.1429 15.7172C16.1429 16.6195 15.678 17.1883 14.9616 17.6203C14.3437 17.9867 14.0702 18.3422 14.0647 19.1078V19.2281H12.621V19.1078ZM12.4569 20.7812C12.446 20.2781 12.8616 19.868 13.3757 19.8734C13.8624 19.868 14.2835 20.2781 14.2835 20.7812C14.2835 21.2898 13.8624 21.7 13.3757 21.7C12.8616 21.7 12.446 21.2898 12.4569 20.7812Z" fill="var(--fill-0, #D5D5D5)"/>
<rect id="Rectangle 6947" x="5.5998" y="5.60078" width="24" height="32" rx="1.6" fill="var(--fill-0, #9F9F9F)" fill-opacity="0.2"/>
<rect id="Rectangle 6946" x="0.8" y="0.8" width="24.8" height="32.8" rx="1.6" stroke="var(--stroke-0, #D5D5D5)" stroke-width="1.6" stroke-linecap="round" stroke-dasharray="4 4"/>
</g>
</svg>
