<svg width="40" height="40" viewBox="0 0 40 40" fill="none" xmlns="http://www.w3.org/2000/svg">
<path d="M17.4211 19.9094C17.4266 18.5477 17.793 18.132 18.4492 17.7219C18.9195 17.4156 19.2859 17.0766 19.2805 16.5734C19.2859 16.0266 18.8594 15.6711 18.3289 15.6656C17.8203 15.6711 17.3445 16.0102 17.3227 16.65H15.7695C15.7969 15.1133 16.9398 14.375 18.3398 14.375C19.8656 14.375 20.943 15.168 20.943 16.5187C20.943 17.4211 20.4781 17.9898 19.7617 18.4219C19.1437 18.7883 18.8703 19.1437 18.8648 19.9094V20.0297H17.4211V19.9094ZM17.257 21.5828C17.2461 21.0797 17.6617 20.6695 18.1758 20.675C18.6625 20.6695 19.0836 21.0797 19.0836 21.5828C19.0836 22.0914 18.6625 22.5016 18.1758 22.5016C17.6617 22.5016 17.2461 22.0914 17.257 21.5828Z" fill="#D5D5D5"/>
<rect x="10.3999" y="6.40234" width="24" height="32" rx="1.6" fill="#9F9F9F" fill-opacity="0.2"/>
<rect x="5.6001" y="1.60156" width="24.8" height="32.8" rx="1.6" stroke="#D5D5D5" stroke-width="1.6" stroke-linecap="round" stroke-dasharray="4 4"/>
</svg>

