<svg preserveAspectRatio="none" width="100%" height="100%" overflow="visible" style="display: block;" viewBox="0 0 20 20" fill="none" xmlns="http://www.w3.org/2000/svg">
<g id="Path">
<path d="M15.5 11C16.3284 11 17 10.3284 17 9.5C17 8.67157 16.3284 8 15.5 8C14.6716 8 14 8.67157 14 9.5C14 10.3284 14.6716 11 15.5 11Z" fill="#212121"/>
<path d="M13.067 3.68783C13.7844 4.10204 14.0302 5.01943 13.616 5.73687C13.2018 6.4543 12.2844 6.70012 11.567 6.2859C10.8495 5.87169 10.6037 4.9543 11.0179 4.23687C11.4322 3.51943 12.3495 3.27361 13.067 3.68783Z" fill="#212121"/>
<path d="M8.11602 4.73687C7.70181 4.01943 6.78442 3.77361 6.06698 4.18783C5.34954 4.60204 5.10373 5.51943 5.51794 6.23687C5.93216 6.9543 6.84954 7.20012 7.56698 6.7859C8.28442 6.37169 8.53023 5.4543 8.11602 4.73687Z" fill="#212121"/>
<path d="M3 10.5C3 9.67157 3.67157 9 4.5 9C5.32843 9 6 9.67157 6 10.5C6 11.3284 5.32843 12 4.5 12C3.67157 12 3 11.3284 3 10.5Z" fill="#212121"/>
<path d="M6.38398 14.2631C5.96977 14.9806 6.21558 15.898 6.93302 16.3122C7.65046 16.7264 8.56784 16.4806 8.98206 15.7631C9.39627 15.0457 9.15046 14.1283 8.43302 13.7141C7.71558 13.2999 6.79819 13.5457 6.38398 14.2631Z" fill="#212121"/>
<path fill-rule="evenodd" clip-rule="evenodd" d="M0 10C0 4.47715 4.47715 0 10 0C15.5228 0 20 4.47715 20 10C20 12.7614 17.7614 15 15 15C13.8954 15 13 15.8954 13 17V18C13 19.1046 12.1046 20 11 20H10C4.47715 20 0 15.5228 0 10ZM11.5 17V18C11.5 18.2761 11.2761 18.5 11 18.5H10C5.30558 18.5 1.5 14.6944 1.5 10C1.5 5.30558 5.30558 1.5 10 1.5C14.6944 1.5 18.5 5.30558 18.5 10C18.5 11.933 16.933 13.5 15 13.5C13.067 13.5 11.5 15.067 11.5 17Z" fill="#212121"/>
</g>
</svg>
