<svg width="24" height="24" viewBox="0 0 24 24" fill="none" xmlns="http://www.w3.org/2000/svg">
<path d="M11.2342 2.97559C11.351 1.71705 12.7333 1.00182 13.8279 1.63379L19.5789 4.9541C20.6367 5.56531 20.7465 7.05048 19.7908 7.81152L18.4422 8.88477L16.0945 13.1396C16.432 13.8538 16.6399 14.5068 16.6922 15.2129C16.744 15.9136 16.638 16.6042 16.4383 17.3818C16.1067 18.6725 14.6447 19.1761 13.5701 18.5557L10.1414 16.5762L7.15411 21.749C6.90552 22.1793 6.355 22.3266 5.92462 22.0781C5.49434 21.8296 5.34623 21.279 5.59454 20.8486L8.58185 15.6758L5.1629 13.7021C4.09443 13.0852 3.76988 11.5336 4.80157 10.6143C5.42521 10.0587 6.01632 9.66637 6.67462 9.39746C7.32202 9.13303 7.98872 9.00667 8.73419 8.92676L11.076 4.68359L11.2342 2.97559ZM12.867 4.86426C12.8504 5.04213 12.8065 5.21605 12.7371 5.37988L12.659 5.54102L10.2967 9.82129C10.0132 10.335 9.49855 10.6558 8.9422 10.7148C8.27135 10.786 7.78657 10.8874 7.35529 11.0635C6.92989 11.2373 6.5092 11.5034 5.99884 11.958C5.98524 11.9702 5.98099 11.9786 5.97931 11.9834C5.97692 11.9903 5.97463 12.0048 5.97736 12.0244C5.98339 12.0654 6.01005 12.1128 6.06329 12.1436L14.4705 16.9971C14.523 17.0273 14.5786 17.0284 14.6238 17.0107C14.6458 17.0021 14.6618 16.9903 14.6717 16.9795C14.6801 16.9702 14.6884 16.9572 14.6942 16.9355C14.87 16.251 14.9288 15.7726 14.8973 15.3457C14.8661 14.9255 14.7432 14.491 14.4656 13.9043C14.2319 13.4102 14.2219 12.8085 14.5067 12.292L16.8709 8.00488C16.9813 7.80478 17.1306 7.6277 17.3094 7.48535L18.5926 6.46484L13.0174 3.24609L12.867 4.86426Z" fill="black"/>
</svg>

