<svg preserveAspectRatio="none" width="100%" height="100%" overflow="visible" style="display: block;" viewBox="0 0 16.2705 20.7989" fill="none" xmlns="http://www.w3.org/2000/svg">
<path id="Union" d="M7.0608 1.57482C7.17785 0.316581 8.5591 -0.397736 9.65357 0.234004L15.4046 3.55432C16.4625 4.1655 16.5724 5.65069 15.6165 6.41174L14.2678 7.484L11.9212 11.7389C12.2587 12.4532 12.4665 13.1068 12.5188 13.8131C12.5706 14.5139 12.4637 15.2042 12.2639 15.9821C11.9324 17.2727 10.4713 17.7762 9.39674 17.1559L5.96705 15.1754L2.98072 20.3492C2.7322 20.7794 2.18156 20.9265 1.75123 20.6783C1.32089 20.4298 1.17283 19.8793 1.42115 19.4488L4.40748 14.275L0.989512 12.3014C-0.0789727 11.6844 -0.404486 10.1328 0.627207 9.2135C1.25089 8.65788 1.84287 8.26659 2.50123 7.99768C3.14861 7.73326 3.81535 7.60688 4.5608 7.52697L6.90162 3.28381L7.0608 1.57482ZM8.69361 3.4635C8.67706 3.64145 8.63319 3.8162 8.56373 3.9801L8.48561 4.14123L6.1233 8.4215C5.83986 8.93505 5.32502 9.25597 4.76881 9.31506C4.09777 9.38619 3.61229 9.4875 3.18092 9.66369C2.75554 9.83754 2.33486 10.1035 1.82447 10.5582C1.81098 10.5703 1.80759 10.5788 1.80592 10.5836C1.80356 10.5905 1.8013 10.6043 1.80397 10.6237C1.80987 10.6646 1.83577 10.7119 1.88893 10.7428L10.2962 15.5973C10.3487 15.6276 10.4052 15.6278 10.4504 15.61C10.4723 15.6013 10.4875 15.5895 10.4973 15.5787C10.5058 15.5693 10.515 15.5568 10.5208 15.5348C10.6966 14.8504 10.7554 14.3727 10.7239 13.9459C10.6928 13.5257 10.5689 13.0913 10.2913 12.5045C10.0575 12.0105 10.0477 11.4087 10.3323 10.8922L12.6975 6.60412C12.8079 6.40414 12.9573 6.22784 13.136 6.08557L14.4192 5.06506L8.844 1.84631L8.69361 3.4635Z" fill="var(--fill-0, black)"/>
</svg>
