<svg preserveAspectRatio="none" width="100%" height="100%" overflow="visible" style="display: block;" viewBox="0 0 15.0288 16.75" fill="none" xmlns="http://www.w3.org/2000/svg">
<path id="Path" d="M1.52881 0.75C1.52881 0.335786 1.19303 0 0.778812 0C0.364599 0 0.0288122 0.335786 0.0288122 0.75V5C0.0288122 5.41421 0.364599 5.75 0.778812 5.75H5.02881C5.44303 5.75 5.77881 5.41421 5.77881 5C5.77881 4.58579 5.44303 4.25 5.02881 4.25H2.33838C3.13537 3.41928 4.14198 2.81192 5.25768 2.49595C6.59872 2.11617 8.02633 2.17751 9.32985 2.67092C10.6334 3.16433 11.7438 4.06367 12.4972 5.23626C13.2507 6.40884 13.6073 7.79255 13.5144 9.18324C13.4215 10.5739 12.884 11.8979 11.9813 12.9599C11.0786 14.0218 9.85841 14.7655 8.50084 15.0811C7.14327 15.3968 5.72019 15.2677 4.44158 14.7129C3.16296 14.1581 2.09654 13.2071 1.39964 12C1.19254 11.6413 0.733845 11.5184 0.375125 11.7255C0.0164057 11.9326 -0.106501 12.3913 0.100606 12.75C0.958319 14.2356 2.27085 15.4062 3.84452 16.089C5.4182 16.7718 7.16969 16.9306 8.84054 16.5422C10.5114 16.1537 12.0131 15.2384 13.1242 13.9314C14.2352 12.6244 14.8967 10.9948 15.011 9.28322C15.1254 7.57161 14.6865 5.86857 13.7592 4.42539C12.8319 2.98221 11.4652 1.87533 9.86086 1.26806C8.25652 0.660785 6.49947 0.58529 4.84895 1.05271C3.60019 1.40636 2.46245 2.05662 1.52881 2.94051V0.75Z" fill="var(--fill-0, #212121)"/>
</svg>
