<svg width="50" height="50" viewBox="0 0 50 50" fill="none" xmlns="http://www.w3.org/2000/svg">
<path d="M19.8394 16.2149L25.7846 15.541L30.9355 16.4877L39.5524 0H28.344L19.8394 16.2149Z" fill="#5191FD"/>
<path d="M32.7088 23.8684H31.6015V16.2223C31.6015 15.6526 31.1362 15.1953 30.5746 15.1953H20.4252C19.8555 15.1953 19.3982 15.6607 19.3982 16.2223V23.8684H18.291V16.2223C18.291 15.0429 19.2538 14.0801 20.4332 14.0801H30.5826C31.762 14.0801 32.7248 15.0429 32.7248 16.2223V23.8684H32.7088Z" fill="#FFC43C"/>
<path d="M25.4958 49.9993C34.6061 49.9993 41.9915 42.6139 41.9915 33.5036C41.9915 24.3932 34.6061 17.0078 25.4958 17.0078C16.3854 17.0078 9 24.3932 9 33.5036C9 42.6139 16.3854 49.9993 25.4958 49.9993Z" fill="#FFC43C"/>
<path d="M13.9181 34.5794C13.9181 27.5912 19.5825 21.9268 26.5708 21.9268C29.7881 21.9268 32.7326 23.1303 34.9631 25.112C32.6443 22.4964 29.2585 20.8517 25.4956 20.8517C18.5074 20.8517 12.843 26.5161 12.843 33.5043C12.843 37.2752 14.4878 40.653 17.1034 42.9717C15.1216 40.7413 13.9181 37.7967 13.9181 34.5794Z" fill="#FFA23B"/>
<path d="M30.5818 16.6065C27.3645 15.3549 23.7781 15.4271 20.6009 16.8151C20.3923 16.9034 20.1516 16.8151 20.0473 16.6226L11.5908 0.503906H22.7993L30.9428 16.2134C31.0632 16.4461 30.8305 16.7108 30.5818 16.6145V16.6065Z" fill="#50B4FF"/>
<path d="M25.5674 46.6622C32.8787 46.6622 38.8057 40.7352 38.8057 33.4239C38.8057 26.1125 32.8787 20.1855 25.5674 20.1855C18.2561 20.1855 12.3291 26.1125 12.3291 33.4239C12.3291 40.7352 18.2561 46.6622 25.5674 46.6622Z" fill="#FFCB3C"/>
<path d="M25.4956 46.1569C32.4835 46.1569 38.1483 40.4922 38.1483 33.5043C38.1483 26.5165 32.4835 20.8517 25.4956 20.8517C18.5078 20.8517 12.843 26.5165 12.843 33.5043C12.843 40.4922 18.5078 46.1569 25.4956 46.1569Z" fill="#FFAA3B"/>
<path d="M26.1052 26.4868L27.6377 29.319C27.7661 29.5597 27.9907 29.7201 28.2635 29.7683L31.4327 30.346C32.1307 30.4743 32.4035 31.3248 31.9141 31.8302L29.6916 34.157C29.5071 34.3495 29.4188 34.6223 29.4509 34.8871L29.8762 38.0803C29.9724 38.7784 29.2504 39.3079 28.6085 39.003L25.7041 37.607C25.4634 37.4866 25.1746 37.4866 24.9339 37.607L22.0295 39.003C21.3956 39.3079 20.6735 38.7864 20.7618 38.0803L21.187 34.8871C21.2191 34.6223 21.1389 34.3495 20.9463 34.157L18.7239 31.8302C18.2345 31.3168 18.5153 30.4743 19.2053 30.346L22.3745 29.7683C22.6392 29.7201 22.8719 29.5517 23.0003 29.319L24.5327 26.4868C24.8697 25.869 25.7603 25.869 26.0972 26.4868H26.1052Z" fill="#FFC43C"/>
</svg>

