<svg width="50" height="50" viewBox="0 0 50 50" fill="none" xmlns="http://www.w3.org/2000/svg">
<g clip-path="url(#clip0_1943_128689)">
<path d="M11.2551 20.1384C21.9087 3.80284 17.6534 -0.988936 20.133 0.162842C24.2761 2.08631 31.059 7.43797 31.4142 20.5769C31.4148 18.357 36.7412 10.8112 38.5168 12.5867C40.2436 14.3135 48.5131 38.4651 34.2658 50.2429C34.431 49.2723 34.5207 48.2568 34.5207 47.2107C34.5207 40.3463 30.7451 34.7811 26.0871 34.781C21.4291 34.781 17.6525 40.3462 17.6525 47.2107C17.6525 48.2511 17.7401 49.2615 17.9035 50.2273C10.7135 45.8613 1.44141 35.1861 11.2551 20.1384Z" fill="#FE6449"/>
</g>
<defs>
<clipPath id="clip0_1943_128689">
<rect width="50" height="50" fill="white"/>
</clipPath>
</defs>
</svg>

