<svg width="24" height="24" viewBox="0 0 24 24" fill="none" xmlns="http://www.w3.org/2000/svg">
<path d="M3.4503 10.5476L3.00037 11.3271L3.4503 10.5476ZM4.61472 11.2198L4.16479 11.9992L4.61472 11.2198ZM3.45003 13.4513L3.90013 14.2307L3.45003 13.4513ZM6.45021 18.6476L6.00021 17.8682L6.45021 18.6476ZM7.61569 17.9747L8.0657 18.7542L7.61569 17.9747ZM18.7097 18.3182L17.9303 17.8682L18.7097 18.3182ZM17.4802 18.6475L17.0301 19.4269L17.4802 18.6475ZM20.4803 13.4523L20.0302 14.2317L20.4803 13.4523ZM20.8096 14.6817L20.0302 14.2317L20.8096 14.6817ZM19.3141 12.7788L19.7641 11.9994L19.3141 12.7788ZM20.8094 9.31794L21.5888 8.86789L20.8094 9.31794ZM20.4797 10.5476L20.03 9.76799L20.4797 10.5476ZM17.4803 5.3522L17.0304 4.57274L17.4803 5.3522ZM18.7096 5.68161L17.9302 6.13167L18.7096 5.68161ZM16.3156 6.02449L15.8657 5.24503L16.3156 6.02449ZM16.3156 6.02449L16.7656 6.80395L17.9302 6.13167L17.4803 5.3522L17.0304 4.57274L15.8657 5.24503L16.3156 6.02449ZM18.7096 5.68161L17.9302 6.13167L20.03 9.76799L20.8094 9.31794L21.5888 8.86789L19.489 5.23156L18.7096 5.68161ZM20.4797 10.5476L20.03 9.76799L18.8647 10.4403L19.3144 11.2198L19.7641 11.9994L20.9295 11.3272L20.4797 10.5476ZM19.3141 12.7788L18.864 13.5582L20.0302 14.2317L20.4803 13.4523L20.9304 12.6729L19.7641 11.9994L19.3141 12.7788ZM20.8096 14.6817L20.0302 14.2317L17.9303 17.8682L18.7097 18.3182L19.4891 18.7683L21.589 15.1318L20.8096 14.6817ZM17.4802 18.6475L17.9303 17.8682L16.7659 17.1957L16.3158 17.975L15.8657 18.7544L17.0301 19.4269L17.4802 18.6475ZM14.9657 18.7544H14.0657V20.1H14.9657H15.8657V18.7544H14.9657ZM14.0657 21V20.1H9.8657V21V21.9H14.0657V21ZM8.9657 20.1H9.8657V18.7542H8.9657H8.0657V20.1H8.9657ZM7.61569 17.9747L7.16569 17.1953L6.00021 17.8682L6.45021 18.6476L6.90021 19.4271L8.0657 18.7542L7.61569 17.9747ZM5.22078 18.3182L6.00021 17.8682L3.90013 14.2307L3.1207 14.6807L2.34127 15.1307L4.44135 18.7682L5.22078 18.3182ZM3.45003 13.4513L3.90013 14.2307L5.065 13.558L4.61489 12.7786L4.16479 11.9992L2.99992 12.672L3.45003 13.4513ZM4.61472 11.2198L5.06465 10.4403L3.90023 9.76816L3.4503 10.5476L3.00037 11.3271L4.16479 11.9992L4.61472 11.2198ZM3.1208 9.31817L3.90023 9.76816L6.00021 6.1308L5.22078 5.68081L4.44135 5.23082L2.34137 8.86818L3.1208 9.31817ZM6.45021 5.35138L6.00021 6.1308L7.16569 6.8037L7.61569 6.02428L8.0657 5.24486L6.90021 4.57196L6.45021 5.35138ZM8.9657 5.24486H9.8657V3.9H8.9657H8.0657V5.24486H8.9657ZM9.8657 3V3.9H14.0657V3V2.1H9.8657V3ZM14.9657 3.9H14.0657V5.24503H14.9657H15.8657V3.9H14.9657ZM14.0657 3V3.9H14.0657H14.9657H15.8657C15.8657 2.90589 15.0598 2.1 14.0657 2.1V3ZM8.9657 3.9H9.8657V3.9V3V2.1C8.87159 2.1 8.0657 2.90589 8.0657 3.9H8.9657ZM7.61569 6.02428L7.16569 6.8037C8.36569 7.49653 9.8657 6.6305 9.8657 5.24486H8.9657H8.0657L8.0657 5.24486L7.61569 6.02428ZM5.22078 5.68081L6.00021 6.1308L6.00021 6.1308L6.45021 5.35138L6.90021 4.57196C6.03928 4.07489 4.9384 4.36987 4.44135 5.23082L5.22078 5.68081ZM3.4503 10.5476L3.90023 9.76816L3.90023 9.76816L3.1208 9.31817L2.34137 8.86818C1.8443 9.72916 2.13935 10.8301 3.00037 11.3271L3.4503 10.5476ZM4.61489 12.7786L5.065 13.558C6.26487 12.865 6.26468 11.133 5.06465 10.4403L4.61472 11.2198L4.16479 11.9992H4.16479L4.61489 12.7786ZM3.1207 14.6807L3.90013 14.2307L3.90013 14.2307L3.45003 13.4513L2.99992 12.672C2.13915 13.1691 1.84428 14.2698 2.34127 15.1307L3.1207 14.6807ZM6.45021 18.6476L6.00021 17.8682H6.00021L5.22078 18.3182L4.44135 18.7682C4.9384 19.6291 6.03928 19.9241 6.90021 19.4271L6.45021 18.6476ZM8.9657 18.7542H9.8657C9.8657 17.3685 8.36569 16.5025 7.16569 17.1953L7.61569 17.9747L8.0657 18.7542V18.7542H8.9657ZM9.8657 21V20.1V20.1H8.9657H8.0657C8.0657 21.0941 8.87159 21.9 9.8657 21.9V21ZM14.9657 20.1H14.0657V20.1V21V21.9C15.0598 21.9 15.8657 21.0941 15.8657 20.1H14.9657ZM16.3158 17.975L16.7659 17.1957C15.5659 16.5026 14.0657 17.3686 14.0657 18.7544H14.9657H15.8657H15.8657L16.3158 17.975ZM18.7097 18.3182L17.9303 17.8682V17.8682L17.4802 18.6475L17.0301 19.4269C17.891 19.9241 18.992 19.6292 19.4891 18.7683L18.7097 18.3182ZM20.4803 13.4523L20.0302 14.2317V14.2317L20.8096 14.6817L21.589 15.1318C22.0861 14.2709 21.7912 13.17 20.9304 12.6729L20.4803 13.4523ZM19.3144 11.2198L18.8647 10.4403C17.6643 11.1328 17.6639 12.8651 18.864 13.5582L19.3141 12.7788L19.7641 11.9994V11.9994L19.3144 11.2198ZM20.8094 9.31794L20.03 9.76799V9.76799L20.4797 10.5476L20.9295 11.3272C21.7908 10.8302 22.0861 9.72903 21.5888 8.86789L20.8094 9.31794ZM17.4803 5.3522L17.9302 6.13167V6.13167L18.7096 5.68161L19.489 5.23156C18.992 4.37076 17.8912 4.07582 17.0304 4.57274L17.4803 5.3522ZM16.3156 6.02449L15.8657 5.24503V5.24503H14.9657H14.0657C14.0657 6.6306 15.5656 7.49663 16.7656 6.80395L16.3156 6.02449Z" fill="#212121"/>
<circle cx="11.9999" cy="12" r="3" stroke="#212121" stroke-width="1.8"/>
</svg>

