<svg preserveAspectRatio="none" width="100%" height="100%" overflow="visible" style="display: block;" viewBox="0 0 19.7307 19.8" fill="none" xmlns="http://www.w3.org/2000/svg">
<g id="Group 2">
<path id="Union" d="M1.35047 8.44762L0.90054 9.22708L1.35047 8.44762ZM2.51489 9.11976L2.06496 9.89922L2.51489 9.11976ZM1.3502 11.3513L1.8003 12.1307L1.3502 11.3513ZM4.35038 16.5476L3.90038 15.7682L4.35038 16.5476ZM5.51586 15.8747L5.96587 16.6542L5.51586 15.8747ZM16.6099 16.2182L15.8305 15.7682L16.6099 16.2182ZM15.3804 16.5475L14.9303 17.3269L15.3804 16.5475ZM18.3805 11.3523L17.9304 12.1317L18.3805 11.3523ZM18.7098 12.5817L17.9304 12.1317L18.7098 12.5817ZM17.2142 10.6788L17.6643 9.89942L17.2142 10.6788ZM18.7096 7.21794L19.489 6.76789L18.7096 7.21794ZM18.3799 8.44757L17.9302 7.66799L18.3799 8.44757ZM15.3805 3.2522L14.9305 2.47274L15.3805 3.2522ZM16.6098 3.58161L15.8304 4.03167L16.6098 3.58161ZM14.2158 3.92449L13.7659 3.14503L14.2158 3.92449ZM14.2158 3.92449L14.6657 4.70395L15.8304 4.03167L15.3805 3.2522L14.9305 2.47274L13.7659 3.14503L14.2158 3.92449ZM16.6098 3.58161L15.8304 4.03167L17.9302 7.66799L18.7096 7.21794L19.489 6.76789L17.3892 3.13156L16.6098 3.58161ZM18.3799 8.44757L17.9302 7.66799L16.7648 8.34027L17.2146 9.11984L17.6643 9.89942L18.8296 9.22715L18.3799 8.44757ZM17.2142 10.6788L16.7641 11.4582L17.9304 12.1317L18.3805 11.3523L18.8305 10.5729L17.6643 9.89942L17.2142 10.6788ZM18.7098 12.5817L17.9304 12.1317L15.8305 15.7682L16.6099 16.2182L17.3893 16.6683L19.4892 13.0318L18.7098 12.5817ZM15.3804 16.5475L15.8305 15.7682L14.6661 15.0957L14.216 15.875L13.7659 16.6544L14.9303 17.3269L15.3804 16.5475ZM12.8659 16.6544H11.9659V18H12.8659H13.7659V16.6544H12.8659ZM11.9659 18.9V18H7.76587V18.9V19.8H11.9659V18.9ZM6.86587 18H7.76587V16.6542H6.86587H5.96587V18H6.86587ZM5.51586 15.8747L5.06586 15.0953L3.90038 15.7682L4.35038 16.5476L4.80038 17.3271L5.96587 16.6542L5.51586 15.8747ZM3.12095 16.2182L3.90038 15.7682L1.8003 12.1307L1.02087 12.5807L0.241444 13.0307L2.34152 16.6682L3.12095 16.2182ZM1.3502 11.3513L1.8003 12.1307L2.96517 11.4579L2.51506 10.6786L2.06496 9.89922L0.900093 10.572L1.3502 11.3513ZM2.51489 9.11976L2.96482 8.3403L1.8004 7.66816L1.35047 8.44762L0.90054 9.22708L2.06496 9.89922L2.51489 9.11976ZM1.02097 7.21817L1.8004 7.66816L3.90038 4.0308L3.12095 3.58081L2.34152 3.13082L0.241544 6.76818L1.02097 7.21817ZM4.35038 3.25138L3.90038 4.0308L5.06586 4.7037L5.51586 3.92428L5.96587 3.14486L4.80038 2.47196L4.35038 3.25138ZM6.86587 3.14486H7.76587V1.8H6.86587H5.96587V3.14486H6.86587ZM7.76587 0.9V1.8H11.9659V0.9V0H7.76587V0.9ZM12.8659 1.8H11.9659V3.14503H12.8659H13.7659V1.8H12.8659ZM11.9659 0.9V1.8H11.9659H12.8659H13.7659C13.7659 0.805887 12.96 0 11.9659 0V0.9ZM6.86587 1.8H7.76587V1.8V0.9V0C6.77176 0 5.96587 0.805888 5.96587 1.8H6.86587ZM5.51586 3.92428L5.06586 4.7037C6.26586 5.39653 7.76587 4.5305 7.76587 3.14486H6.86587H5.96587L5.96587 3.14486L5.51586 3.92428ZM3.12095 3.58081L3.90038 4.0308L3.90038 4.0308L4.35038 3.25138L4.80038 2.47196C3.93945 1.97489 2.83857 2.26987 2.34152 3.13082L3.12095 3.58081ZM1.35047 8.44762L1.8004 7.66816L1.8004 7.66816L1.02097 7.21817L0.241544 6.76818C-0.25553 7.62916 0.0395219 8.73008 0.90054 9.22708L1.35047 8.44762ZM2.51506 10.6786L2.96517 11.4579C4.16504 10.765 4.16485 9.03299 2.96482 8.3403L2.51489 9.11976L2.06496 9.89922H2.06496L2.51506 10.6786ZM1.02087 12.5807L1.8003 12.1307L1.8003 12.1307L1.3502 11.3513L0.900093 10.572C0.0393207 11.0691 -0.255552 12.1698 0.241444 13.0307L1.02087 12.5807ZM4.35038 16.5476L3.90038 15.7682H3.90038L3.12095 16.2182L2.34152 16.6682C2.83857 17.5291 3.93945 17.8241 4.80038 17.3271L4.35038 16.5476ZM6.86587 16.6542H7.76587C7.76587 15.2685 6.26586 14.4025 5.06586 15.0953L5.51586 15.8747L5.96587 16.6542V16.6542H6.86587ZM7.76587 18.9V18V18H6.86587H5.96587C5.96587 18.9941 6.77176 19.8 7.76587 19.8V18.9ZM12.8659 18H11.9659V18V18.9V19.8C12.96 19.8 13.7659 18.9941 13.7659 18H12.8659ZM14.216 15.875L14.6661 15.0957C13.4661 14.4026 11.9659 15.2686 11.9659 16.6544H12.8659H13.7659H13.7659L14.216 15.875ZM16.6099 16.2182L15.8305 15.7682V15.7682L15.3804 16.5475L14.9303 17.3269C15.7912 17.8241 16.8921 17.5292 17.3893 16.6683L16.6099 16.2182ZM18.3805 11.3523L17.9304 12.1317V12.1317L18.7098 12.5817L19.4892 13.0318C19.9863 12.1709 19.6914 11.07 18.8305 10.5729L18.3805 11.3523ZM17.2146 9.11984L16.7648 8.34027C15.5644 9.03277 15.564 10.7651 16.7641 11.4582L17.2142 10.6788L17.6643 9.89942V9.89942L17.2146 9.11984ZM18.7096 7.21794L17.9302 7.66799V7.66799L18.3799 8.44757L18.8296 9.22715C19.691 8.73025 19.9862 7.62903 19.489 6.76789L18.7096 7.21794ZM15.3805 3.2522L15.8304 4.03167V4.03167L16.6098 3.58161L17.3892 3.13156C16.8921 2.27076 15.7914 1.97582 14.9305 2.47274L15.3805 3.2522ZM14.2158 3.92449L13.7659 3.14503V3.14503H12.8659H11.9659C11.9659 4.5306 13.4657 5.39663 14.6657 4.70395L14.2158 3.92449Z" fill="var(--stroke-0, #212121)"/>
<circle id="Ellipse 8" cx="9.90005" cy="9.9" r="3" stroke="var(--stroke-0, #212121)" stroke-width="1.8"/>
</g>
</svg>
