<svg width="16" height="16" viewBox="0 0 16 16" fill="none" xmlns="http://www.w3.org/2000/svg">
<rect width="16" height="16" rx="2" fill="#050708"/>
<g clip-path="url(#clip0_1715_116395)">
<path d="M7.86133 5.30457C8.27734 5.30457 8.79883 5.02627 9.10938 4.65521C9.39062 4.31893 9.5957 3.84931 9.5957 3.37968C9.5957 3.31591 9.58984 3.25213 9.57812 3.19995C9.11523 3.21734 8.55859 3.50724 8.22461 3.89569C7.96094 4.19138 7.7207 4.65521 7.7207 5.13063C7.7207 5.20021 7.73242 5.26978 7.73828 5.29297C7.76758 5.29877 7.81445 5.30457 7.86133 5.30457ZM6.39648 12.32C6.96484 12.32 7.2168 11.9431 7.92578 11.9431C8.64648 11.9431 8.80469 12.3084 9.4375 12.3084C10.0586 12.3084 10.4746 11.7402 10.8672 11.1836C11.3066 10.5458 11.4883 9.91965 11.5 9.89066C11.459 9.87906 10.2695 9.39784 10.2695 8.04694C10.2695 6.87578 11.207 6.34818 11.2598 6.30759C10.6387 5.42632 9.69531 5.40313 9.4375 5.40313C8.74023 5.40313 8.17188 5.82057 7.81445 5.82057C7.42773 5.82057 6.91797 5.42632 6.31445 5.42632C5.16602 5.42632 4 6.36557 4 8.13971C4 9.2413 4.43359 10.4067 4.9668 11.1604C5.42383 11.7981 5.82227 12.32 6.39648 12.32Z" fill="white"/>
</g>
<defs>
<clipPath id="clip0_1715_116395">
<rect width="8" height="9.6" fill="white" transform="translate(4 3.19995)"/>
</clipPath>
</defs>
</svg>

