<svg preserveAspectRatio="none" width="100%" height="100%" overflow="visible" style="display: block;" viewBox="0 0 18 20.75" fill="none" xmlns="http://www.w3.org/2000/svg">
<g id="Path">
<path d="M8 7.5C8 7.08579 7.66421 6.75 7.25 6.75C6.83579 6.75 6.5 7.08579 6.5 7.5L6.5 17C6.5 17.4142 6.83579 17.75 7.25 17.75C7.66421 17.75 8 17.4142 8 17V7.5Z" fill="#212121"/>
<path d="M10.75 6.75C11.1642 6.75 11.5 7.08579 11.5 7.5V17C11.5 17.4142 11.1642 17.75 10.75 17.75C10.3358 17.75 10 17.4142 10 17V7.5C10 7.08579 10.3358 6.75 10.75 6.75Z" fill="#212121"/>
<path fill-rule="evenodd" clip-rule="evenodd" d="M9 0C6.92893 0 5.25 1.67893 5.25 3.75L0.75 3.75C0.335786 3.75 0 4.08579 0 4.5C0 4.91421 0.335786 5.25 0.75 5.25H2.08824L2.88926 18.8674C2.95145 19.9246 3.82686 20.75 4.88581 20.75H13.1142C14.1731 20.75 15.0486 19.9246 15.1107 18.8674L15.9118 5.25H17.25C17.6642 5.25 18 4.91421 18 4.5C18 4.08579 17.6642 3.75 17.25 3.75L12.75 3.75C12.75 1.67893 11.0711 0 9 0ZM11.25 3.75C11.25 2.50736 10.2426 1.5 9 1.5C7.75736 1.5 6.75 2.50736 6.75 3.75H11.25ZM4.38667 18.7794L3.59083 5.25H14.4092L13.6133 18.7794C13.5978 19.0436 13.3789 19.25 13.1142 19.25H4.88581C4.62107 19.25 4.40222 19.0436 4.38667 18.7794Z" fill="#212121"/>
</g>
</svg>
